<svg id="floor_09" data-name="floor 09" xmlns="http://www.w3.org/2000/svg" viewBox="0 0 420.83 72.54"><defs><style>.cls-1{fill:#008a64;opacity:0.4;}</style></defs><title>09-floor</title><path class="cls-1" d="M404.81,1110.12h0c-10.88-6.94-33.94-8.41-33.94-8.41l-81-20.08-112,16c-33.5.88-49.25,6.92-49.25,6.92v0.11L41,1117.13l0.06,29.38,87.43-10.71a159.52,159.52,0,0,1,21.64-4.79c11.71-1.55,28.75-1.38,28.75-1.38L290,1116l80.57,17.9a89,89,0,0,1,21.48,2.77,86.37,86.37,0,0,1,12.92,4.87l56.86,12.63v-29.92Z" transform="translate(-41 -1081.63)"/></svg>