<svg id="floor_24" data-name="floor 24" xmlns="http://www.w3.org/2000/svg" viewBox="0 0 427.63 165"><defs><style>.cls-1{fill:#008a64;opacity:0.4;}</style></defs><title>24-floor</title><path class="cls-1" d="M463,693.83v-1.5l2.25-.08v-2.42l-3.42-2.61-57.35-43.86c-12.26-18-33.4-25.55-33.4-25.55L290.25,556,177.87,605c-32.25,6.88-49.37,21.47-49.37,21.47v0.05l-22.61,9.85L37.63,666.13v2.63l2,0.5,0.17,1.31L41,670.83l-0.37,19.35,1.25,0.5,0,3.9-4.21,1.67v2.33l2.06,0.6L41,700.33l88-36.21v0s22.25-16.84,49.5-20.34h0L289.67,598l81.17,56.24s21,7.59,33.33,24.42v0l57.42,42.13,3.67,0.17v-1.92l-3.42-2.83V694.5Z" transform="translate(-37.63 -556)"/></svg>