<svg id="floor_35" data-name="floor 35" xmlns="http://www.w3.org/2000/svg" viewBox="0 0 427.06 208.29"><defs><style>.cls-1{fill:#008a64;opacity:0.4;}</style></defs><title>35-floor</title><path class="cls-1" d="M461.83,395.33V391.5l-15.5-16.67V349.67l-42.06-47.28c-6.31-19.76-33.52-37.68-33.52-37.68h0l-59.12-66.46-9.37,5c-16.62-17-35-3.25-35-3.25L260,193.33l-82,51.2c-25.29,7-45.51,27.07-48.79,30.46L64.13,315.63v27.5l-22,14.13V362l-4.37,3v1.63l1.25,1,89.47-56.54c1.72-2,21.12-23.92,50.7-32l111.46-70.43,80.44,89.12c2,1.4,25.55,18.5,33,36.53l60.78,67.35V399Z" transform="translate(-37.75 -193.33)"/></svg>