<svg id="floor_36" data-name="floor 36" xmlns="http://www.w3.org/2000/svg" viewBox="0 0 382.21 191.17"><defs><style>.cls-1{fill:#008a64;opacity:0.4;}</style></defs><title>36-floor</title><path class="cls-1" d="M446.25,319.75l-42.16-48.9h0c-9.4-23.45-33-38.5-33-38.5v0.19l-59.31-68.79-9.5,4.5c-16.67-17.92-35.25-3.87-35.25-3.87l-7.5-5.87-80.33,52.32c-30,9.33-51,33.18-51,33.18v0l-64,41.71v29.88L129.21,275c3.29-3.39,23.5-23.45,48.79-30.46l82-51.2,7.25,6.67s18.38-13.75,35,3.25l9.38-5,59.13,66.46h0s27.22,17.92,33.52,37.68l42.06,47.28Z" transform="translate(-64.13 -158.5)"/></svg>