<svg id="floor_37" data-name="floor 37" xmlns="http://www.w3.org/2000/svg" viewBox="0 0 382.21 197"><defs><style>.cls-1{fill:#008a64;opacity:0.4;}</style></defs><title>37-floor</title><path class="cls-1" d="M404.51,239.38v-0.07c-11.24-25.2-33.76-40.17-33.76-40.17L311.5,128.5l-9.37,5.5c-16.62-18.25-35-3.25-35-3.25l-7.62-8-80.17,53.89h0C149.91,187,131.07,208,128.88,210.55L64.13,254.08v31.67l64-41.71v0s21-23.84,51-33.18L259.5,158.5l7.5,5.88s18.58-14,35.25,3.88l9.5-4.5,59.31,68.79v-0.19s23.62,15.05,33,38.5l42.16,48.9,0.08-30.5Z" transform="translate(-64.13 -122.75)"/></svg>