<svg id="floor_38" data-name="floor 38" xmlns="http://www.w3.org/2000/svg" viewBox="0 0 388.71 201.08"><defs><style>.cls-1{fill:#008a64;opacity:0.4;}</style></defs><title>38-floor</title><path class="cls-1" d="M409.16,213h0c-2-24-44.48-54.47-44.48-54.47L311.33,93.17l-9.27,6.33c-16.06-16.62-35-3.81-35-3.81l-7.73-7.52-76.43,53.44h0c-38.43,12.11-58.1,40.62-58.1,40.62L64.13,224.67l-1.17.88L64.13,228,57.63,233l0.31,3.4,5.73,5.6,0.46,12,64.76-43.53c2.19-2.53,21-23.58,50.45-33.91h0l80.17-53.89,7.63,8s18.38-15,35,3.25l9.38-5.5,59.25,70.64s22.51,15,33.76,40.17v0.07l41.83,49.87V258.5Z" transform="translate(-57.63 -88.17)"/></svg>