<svg id="Layer_1" data-name="Layer 1" xmlns="http://www.w3.org/2000/svg" viewBox="0 0 1210 1210"><defs><style>.cls-1{fill:#153e28;}.cls-2{fill:#1d422d;}</style></defs><title>form-bg</title><rect class="cls-1" width="1210" height="1210"/><path class="cls-2" d="M1156.86,714.42l-23.24-62.24c-3.6-9.41-7.47-24.34-7.19-30.43a71.56,71.56,0,0,1,3.87-15.77l0.28-1.11,0.28-1.11C1138.33,578,1138.05,526,1091.3,497c29.32-46.75,7.19-93.5-10.51-113.42l-0.83-.83-0.83-.83a55.33,55.33,0,0,1-10.24-12.45h0c-2.49-4.7-5.53-19.36-6.64-30.71l-5.81-66.39-2.21-23.51-22.41-7.19-63.07-20.47c-9.41-3-23.79-9.41-28.22-13.28a56.9,56.9,0,0,1-9.68-13l-0.55-1.11-0.55-1.11c-3-4.15-30.15-40.94-77.46-40.94A91.9,91.9,0,0,0,821.58,157c-15.21-43.16-55.05-62.8-91.29-62.8h-5.81a68.72,68.72,0,0,1-10.51.55c-3,0-5-.28-5.53-0.28h0c-5.26-1.11-18.53-7.75-27.94-13.83L625.17,43.85l-19.64-13-19.64,13L530.56,80.65c-8.3,5.53-22.13,12.73-27.94,13.83-0.55,0-2.49.28-5.53,0.28s-6.64-.28-10.51-0.55l-2.21-.28h-3.87c-36.24,0-76.07,19.64-91.29,62.8a91.9,91.9,0,0,0-30.71-5.26c-47.3,0-74.41,36.79-77.46,40.67l-0.55.83-0.55,1.11a83,83,0,0,1-9.68,12.73h0c-3.87,3.32-17.43,9.68-28.22,13.28L179,240.54l-22.41,7.19-2.21,23.51-5.81,66.39c-0.83,10-3.87,25.17-6.64,30.71a72.92,72.92,0,0,1-10.24,12.45l-0.83.83-0.83.83c-17.7,19.92-40.11,66.95-10.51,113.42-46.75,29.32-47,81.33-39.56,106.78l0.28,1.11,0.28,1.11a71.18,71.18,0,0,1,3.87,15.49h0c0.28,5.26-3.32,19.92-7.19,30.43L53.92,713l-8.3,22.13L62.5,751.49l48.13,45.92c7.19,6.92,17.15,18.81,19.64,24.34a76.52,76.52,0,0,1,3.32,15.77v1.38l0.28,1.11c4.43,25.73,27.11,72.75,81.88,79.12-6.36,54.77,34,87.42,58.65,97.65l1.11,0.55,1.11,0.28a70.85,70.85,0,0,1,14.66,6.64h0c4.15,3,13.28,14.94,19.36,24.62l34,57.26,11.9,20.19,23.24-3,65.84-8.85a158.45,158.45,0,0,1,19.64-1.38,51.92,51.92,0,0,1,11.62.83,60.55,60.55,0,0,1,14.39,7.47l1.11,0.55,1.11,0.55a105.34,105.34,0,0,0,48.13,11.9,90,90,0,0,0,64.73-27.11,91.1,91.1,0,0,0,64.73,27.11,106.59,106.59,0,0,0,48.13-11.9l1.11-.55,0.83-.55a60.19,60.19,0,0,1,14.39-7.19h0a63.63,63.63,0,0,1,11.9-.83,117.18,117.18,0,0,1,19.64,1.38l65.84,8.85,23.24,3,11.9-20.19,34-57.26c5-8.58,14.39-21,19.09-24.62a70.68,70.68,0,0,1,14.66-6.64l1.11-.28,1.11-.55c24.62-10.24,65-42.88,58.65-97.65,55.05-6.09,77.46-53.39,81.88-79.12l0.28-1.11v-1.11a67.47,67.47,0,0,1,3.32-15.77h0c2.21-4.7,11.62-16.32,19.64-24.34L1149.95,752l16.87-16.32Zm-64.73,32.64,42.88-8.58-48.13,46.2c-7.19,6.92-20.19,21.3-24.07,30.71l-0.28.28h0a83.43,83.43,0,0,0-4.43,21v1.11c-3.6,20.75-21.85,58.92-66.67,63.07-2.77.28-5.53,0.28-8.3,0.28h0a39,39,0,0,1-5.53-.28h-0.83a61.73,61.73,0,0,1-6.36-1.11,35.36,35.36,0,0,1,2.49,6.09l0.28,0.83a84.28,84.28,0,0,1,2.77,13.56c5.81,44.54-26.83,71.1-46.47,79.39l-0.55.28-0.55.28c-13.28,4.43-19.64,9.13-19.64,9.41-8.58,6.36-20.19,23.24-24.62,30.43l-34,57.26L849,1053.57a54,54,0,0,1-26.28,6.92,53,53,0,0,1-21.85,16.32L834,1105l-65.84-9.13a197.87,197.87,0,0,0-22.13-1.38,69.16,69.16,0,0,0-16.87,1.66h-0.55a81.86,81.86,0,0,0-19.36,9.68l-0.55.28-0.55.28a82.3,82.3,0,0,1-38.73,9.68,75.49,75.49,0,0,1-61.14-33.2l-0.28-.28-0.28-.28a28.63,28.63,0,0,1-3-5.81,55.7,55.7,0,0,1-3,5.81l-0.28.28-0.28.28a87.78,87.78,0,0,1-8.85,10.79A71,71,0,0,1,540,1116.09a82.3,82.3,0,0,1-38.73-9.68l-0.55-.28-0.55-.28a75.16,75.16,0,0,0-19.64-9.68,71.23,71.23,0,0,0-16.87-1.66,197.87,197.87,0,0,0-22.13,1.38l-65.84,8.85,33.2-27.94A57.54,57.54,0,0,1,387,1060.49a54,54,0,0,1-26.28-6.92l-1.11,43.71-34-57.26c-5-8.58-16.32-24.34-24.34-30.43l-0.28-.28h0a77,77,0,0,0-19.36-9.13L281,999.9l-0.55-.28c-19.92-8.3-52.56-34.58-46.47-79.39a84.29,84.29,0,0,1,2.77-13.56l0.28-.83a35.35,35.35,0,0,1,2.49-6.09,61.68,61.68,0,0,1-6.36,1.11h-0.83c-1.94,0-3.6.28-5.53,0.28-3,0-5.81-.28-8.3-0.28-44.81-4.15-63.35-42.33-66.67-63.07v-1.11a75.8,75.8,0,0,0-4.7-21.3c-4.43-10-18.26-24.9-24.34-30.71l-48.13-46.2,42.88,8.58a56.16,56.16,0,0,1-.83-27.11,56.24,56.24,0,0,1-11.07-24.9L70.8,721.33l23.51-62.52c3.6-9.41,8.85-27.94,8.58-38.18v-0.55h0a92.37,92.37,0,0,0-5-21l-0.28-.55L97.35,598c-6.09-20.75-5.53-62.8,32.92-86a104.41,104.41,0,0,1,12.45-6.36l0.83-.28a36.85,36.85,0,0,1,6.36-1.66,58.22,58.22,0,0,1-5-4.43l-0.55-.55a99.59,99.59,0,0,1-8.58-11.07c-24.62-37.62-6.64-75.8,7.75-91.84l0.28-.55,0.55-.28A79.09,79.09,0,0,0,158.21,378c5-9.41,8-29.88,8.85-38.18l5.81-66.39,19.92,39a53.86,53.86,0,0,1,20.75-17.7,56.24,56.24,0,0,1,12.73-24.07l-42.33-10.79,63.35-20.47c9.41-3,27.39-10.51,34.86-17.15l0.28-.28h0a76.41,76.41,0,0,0,13.28-17.15l0.28-.55,0.28-.55c0.83-1.38,23.51-32.64,61.69-32.64a76.71,76.71,0,0,1,25.73,4.7c4.15,1.66,8.3,3.6,12.73,5.81l0.83,0.55a32,32,0,0,1,5.26,3.87,53.31,53.31,0,0,1,.28-6.64v-0.83A107.72,107.72,0,0,1,406.08,165c12.45-37.62,46.2-51.45,73.58-51.45h3.6a105.13,105.13,0,0,0,12.73.83,66.39,66.39,0,0,0,9.13-.55c10.51-1.94,28.22-12.17,35.41-16.87l55.6-36.79-18,39.84h3.32A53.11,53.11,0,0,1,605,105.27,52.81,52.81,0,0,1,628.21,100h3.32l-18-39.84L669.16,97c8.3,5.53,25.17,14.94,35.13,16.87h0.55a59.53,59.53,0,0,0,8.85.55,105.13,105.13,0,0,0,12.73-.83H730c27.39,0,61.14,13.83,73.58,51.45a88.53,88.53,0,0,1,3.32,13.56v0.83a49,49,0,0,1,.28,6.64c1.94-1.38,3.6-2.77,5.26-3.87l0.83-.55A105.61,105.61,0,0,1,826,175.81a76.71,76.71,0,0,1,25.73-4.7c38.18,0,60.58,31.26,61.69,32.64l0.28,0.55,0.28,0.55A87.78,87.78,0,0,0,927.26,222c8,6.92,27.11,14.66,35.13,17.15l63.35,20.47-42.33,10.79a56.24,56.24,0,0,1,12.73,24.07,51.62,51.62,0,0,1,20.75,17.7l19.92-38.73,5.81,66.39c0.83,10,4.15,29,8.85,37.9l0.28,0.28h0a86.45,86.45,0,0,0,13.56,16.6l0.55,0.28,0.28,0.55c14.39,16,32.09,54.22,7.75,91.84a99.61,99.61,0,0,1-8.58,11.07l-0.55.55a58.26,58.26,0,0,1-5,4.43c3.32,0.83,5.81,1.38,6.36,1.66l0.83,0.28a87.63,87.63,0,0,1,12.45,6.36c38.45,23.24,38.73,65.29,32.92,86l-0.28.55-0.28.55a77.12,77.12,0,0,0-5,21.3c-0.28,10.79,5.53,30.43,8.58,38.18l23.51,62.52L1104,694.5A53.31,53.31,0,0,1,1093,719.4a58.09,58.09,0,0,1-.83,27.66h0Z"/><path class="cls-2" d="M981.2,509.71c-10.79-5.53-36-23-35.69-68.61-9.13-4.43-19.92-13-30.43-29l9.68-10.24A55.77,55.77,0,0,1,914.25,388a29.18,29.18,0,0,1-20.19-11.07,30.18,30.18,0,0,1-6.36-22.41A57.46,57.46,0,0,1,876.36,341l-12.17,7.19c-13.56-13.83-19.36-26.28-21.58-36.24-44.26-10-55.88-38.18-58.65-50.07a20.42,20.42,0,0,1-.55-3.32,92.45,92.45,0,0,1-1.94-18.81A94.05,94.05,0,0,1,766,249.95a18.42,18.42,0,0,1-3.32,1.66A56.24,56.24,0,0,1,738,256.86c-12.45,0-30.71-3.87-50.9-20.19A67.44,67.44,0,0,1,656.71,243c-3.6,0-7.47-.28-11.34-0.55l-1.94-13.83a50,50,0,0,1-6.92.55,70,70,0,0,1-10.51-.83,30.15,30.15,0,0,1-21.3,9.13,31.09,31.09,0,0,1-21.3-8.85,67.31,67.31,0,0,1-10.51.83,46.64,46.64,0,0,1-6.92-.55L564,242.76c-3.87.28-7.75,0.55-11.34,0.55a67.44,67.44,0,0,1-30.43-6.36c-20.19,16.32-38.45,20.19-50.9,20.19a59.39,59.39,0,0,1-24.62-5.26,18.42,18.42,0,0,1-3.32-1.66A71.7,71.7,0,0,1,427.93,240,76.29,76.29,0,0,1,426,258.8c-0.28.83-.28,1.94-0.55,3.32-2.77,11.9-14.39,40.11-58.65,50.07-2.21,10-8,22.41-21.58,36.24L333,341.24a56.16,56.16,0,0,1-11.34,13.56,30.43,30.43,0,0,1-6.36,22.41,29.74,29.74,0,0,1-20.19,11.07,55.77,55.77,0,0,1-10.51,13.83l9.68,10.24c-10.51,16.32-21.3,24.9-30.43,29C264.16,487,239.27,504.45,228.2,510a26.94,26.94,0,0,1-3,1.38,86.11,86.11,0,0,1-18,6.09,76.77,76.77,0,0,1,13.56,13.28,22.6,22.6,0,0,1,2.21,2.49c7.47,9.68,22.41,36.24,2.49,77.18,6.36,8,12.45,20.47,14.94,39.56l-13,5a52.2,52.2,0,0,1,3.32,17.15,30.62,30.62,0,0,1,13.56,18.81,28.24,28.24,0,0,1-4.15,22.68,63.63,63.63,0,0,1,4.43,16.87l13.83-1.11c6.09,18.26,6.09,32.09,3.87,42,35.69,28.22,33.75,58.65,31.26,70.54a28.74,28.74,0,0,1-.83,3.32,94.56,94.56,0,0,1-6.36,17.7,91,91,0,0,1,18.53-2.49h3.6c10.51,0,41.77,3.87,61.69,46.2h0.55c12.17,0,25.45,4.43,39.56,13L406.08,933a59.39,59.39,0,0,1,15.49,8,31.76,31.76,0,0,1,10.24-1.66,30.87,30.87,0,0,1,13,3,29.07,29.07,0,0,1,15.49,17.43A52.81,52.81,0,0,1,476.06,967l7.75-11.62c18.26,6.64,28.77,15.21,35.13,23.24a98.57,98.57,0,0,1,23.24-2.77c29.32,0,45.09,14.66,51.45,22.41a31.8,31.8,0,0,0,2.21,2.77,80.86,80.86,0,0,1,9.68,15.77,80.86,80.86,0,0,1,9.68-15.77,16,16,0,0,1,2.21-2.77c6.09-7.75,21.85-22.41,51.45-22.41a98.57,98.57,0,0,1,23.24,2.77c6.36-8,17.15-16.6,35.13-23.24L735,967a52.81,52.81,0,0,1,15.77-7.19,29.07,29.07,0,0,1,15.49-17.43,30.87,30.87,0,0,1,13-3A31.76,31.76,0,0,1,789.49,941,59.39,59.39,0,0,1,805,933l-4.15-13.28c14.11-8.58,27.39-13,39.56-13h0.55c19.92-42.33,51.45-46.2,61.69-46.2h3.6A78.93,78.93,0,0,1,924.77,863a66.94,66.94,0,0,1-6.36-17.7,28.69,28.69,0,0,1-.83-3.32c-2.49-11.9-4.43-42.33,31.26-70.54-2.49-10-2.49-23.79,3.87-42l13.83,1.11A54.5,54.5,0,0,1,971,713.59a30.85,30.85,0,0,1-4.15-22.68,29.16,29.16,0,0,1,13.56-18.81,60.55,60.55,0,0,1,3.32-17.15l-13-5c2.49-19.09,8.3-31.54,14.94-39.56-19.92-40.94-5-67.5,2.49-77.18a22.59,22.59,0,0,1,2.21-2.49,87.77,87.77,0,0,1,13.56-13.28,91.9,91.9,0,0,1-18-6.09A17.4,17.4,0,0,1,981.2,509.71ZM604.7,956.2c-192,0-347.73-156-347.73-348.56a348.2,348.2,0,0,1,49.79-179.81c1.11-1.66,2.49-3.32,3.6-5.26l8-12.73h0A350.85,350.85,0,0,1,348,372.5h0l10.51-10.79c1.66-1.66,3.32-3.6,4.7-5.26a348.56,348.56,0,0,1,193.37-94.33c3,0,5.81-.28,8.85-0.55l14.94-1.66v-0.28c7.75-.55,15.77-0.83,23.79-0.83s16,0.28,23.79.83v0.28l14.94,1.66c3,0.28,6.09.55,8.85,0.55A344.94,344.94,0,0,1,845.1,356.45c1.66,1.66,3,3.32,4.7,5.26l10.51,10.79h0a318.93,318.93,0,0,1,29.6,37.35h0l8,12.73a59.21,59.21,0,0,0,3.6,5.26c99.19,165.13,45.74,379.39-119.39,478.58A348.78,348.78,0,0,1,604.7,956.2Z"/><path class="cls-2" d="M787.83,181.9c-8.58-51.45-59.48-48.69-59.48-48.69a91.68,91.68,0,0,1-27.94,0c-17.43-3.32-42-19.64-42-19.64,20.19,45.37,43.43,42.88,43.43,42.88-0.28,36.79,29.88,35.69,29.88,35.69-8-8.3-9.13-38.45,15.21-31.26s14.94,30.43,14.94,30.43c-8.3,23.79-34.86,15.77-34.86,15.77-29.32-8.3-42-39-42-39-12.17-29.88-48.41-64.73-80.22-39.56-31.81-25.17-68.05,9.68-80.22,39.56,0,0-12.73,30.71-42,39,0,0-26.56,8-34.86-15.77,0,0-9.41-23.24,14.94-30.43s23.24,23,15.21,31.26c0,0,30.15,1.11,29.88-35.69,0,0,23.24,2.49,43.43-42.88,0,0-24.62,16.32-42,19.64a90.85,90.85,0,0,1-27.94,0s-50.62-3-59.48,48.69c0,0-4.15,33.75,31,50.9,0,0,29.32,19.64,68.61-21.85,0,0,7.19,15.49,40.67,11.9,0,0-8.3-3.32-18-17.43,0,0-23-33.75,17.15-51.45,0,0,25.45-9.68,31.26,16.6,0,0,5,19.36-13,21.85,0,0-15.21,3.87-12.17-11.07a28.49,28.49,0,0,1,14.11-13.83s-31-5.81-31.81,18.81a22.68,22.68,0,0,0,15.21,21.58s11.07,4.7,29.88-3.87c0.28-.28.55-0.28,0.83-0.55a9.24,9.24,0,0,0-.83,4.15,10.26,10.26,0,0,0,20.47,0,11.07,11.07,0,0,0-.83-4.15c0.28,0.28.55,0.28,0.83,0.55,18.53,8.58,29.88,3.87,29.88,3.87A22.13,22.13,0,0,0,660,186.32c-1.11-24.62-31.81-18.81-31.81-18.81a30.13,30.13,0,0,1,14.11,13.83c3,14.94-12.17,11.07-12.17,11.07-18-2.77-13-21.85-13-21.85,5.81-26,31.26-16.6,31.26-16.6,40.11,18,17.15,51.45,17.15,51.45-9.68,14.11-18,17.43-18,17.43,33.47,3.32,40.67-11.9,40.67-11.9,39.56,41.5,68.61,21.85,68.61,21.85C791.71,215.65,787.83,181.9,787.83,181.9Z"/><path class="cls-2" d="M386.44,198.77c-45.64-25.45-75,16.32-75,16.32A95,95,0,0,1,294,236.95c-13.56,11.62-41.5,20.75-41.5,20.75,47.86,12.45,60.58-7.47,60.58-7.47,28.49,23.24,46.2-1.11,46.2-1.11-11.34,1.11-35.69-16.87-14.94-31.54s32.92,7.19,32.92,7.19c13.28,21.3-9.41,37.07-9.41,37.07-24.62,17.7-56.71,8.58-56.71,8.58-30.71-9.13-80.5-2.49-80.78,38.18-39.56,9.13-34.86,59.48-19.09,87.42,0,0,16,29.32,4.15,57.26,0,0-10.24,25.73-34,17.43,0,0-23.79-7.19-14.38-30.71s32.64-3.87,34,7.47c0,0,19.64-23-9.13-45.64,0,0,16.32-16.6-6.36-60.86,0,0-2.77,29.6-11.07,45.37a100.09,100.09,0,0,1-17.43,21.85s-34,37.9.83,76.9c0,0,23.79,24.07,58.92,7.47,0,0,33.47-10.79,26-67.5,0,0,16.6,4.15,34.58-24.34,0,0-7.75,4.43-24.62,3,0,0-40.67-3-29.6-45.64,0,0,8.3-25.73,32.37-14.11,0,0,18,8.3,8.85,24.07,0,0-6.36,14.38-16,2.77a29.71,29.71,0,0,1-1.94-19.64S222.67,371.67,241.2,388a22.13,22.13,0,0,0,26.28,1.38S278,383.56,283,363.64a6.27,6.27,0,0,0,.28-1.11,8.66,8.66,0,0,0,2.49,3,10.4,10.4,0,0,0,14.11-1.94,10,10,0,0,0-1.11-14.11,9.1,9.1,0,0,0-3.6-1.94c0.28,0,.55-0.28.83-0.28,18.26-9.41,21.58-20.75,21.58-20.75a22.13,22.13,0,0,0-7.19-25.45c-19.92-14.38-34.58,13.28-34.58,13.28a27.66,27.66,0,0,1,19.36-2.49c13.56,6.92.83,16.32,0.83,16.32-13.28,12.45-25.17-3.32-25.17-3.32-16.87-20.75,6.64-34.86,6.64-34.86,39-20.19,50.9,18.81,50.9,18.81,5,16.32,2.49,24.9,2.49,24.9,23.51-24.07,16-39.28,16-39.28,57-5.26,59.75-40.39,59.75-40.39A51,51,0,0,0,386.44,198.77Z"/><path class="cls-2" d="M149.64,523.82c-48.13,19.92-34,68.88-34,68.88a89,89,0,0,1,6.09,27.11c0.55,18-9.68,45.64-9.68,45.64,39.56-29.88,32.09-52,32.09-52C179.79,605.7,172,576.38,172,576.38c-6.09,9.68-35.41,17.43-33.75-8s26.28-21.3,26.28-21.3c24.9,2.77,23,30.71,23,30.71C185.88,608.19,159,627.55,159,627.55c-26.28,18.53-52,61.69-20.47,87.14-17.43,36.52,24.62,64.46,56.16,69.71,0,0,32.64,5.81,47.3,32.37,0,0,13.83,24.34-7.47,37.62,0,0-20.47,14.39-32.92-7.75s17.15-27.94,26.83-21.85c0,0-5.53-29.88-41.22-21.3,0,0-2.77-23.24-51.45-32.92,0,0,21.3,20.47,28.49,36.79a88.77,88.77,0,0,1,6.09,27.11S179,884.82,231,881.78c0,0,33.75-3.6,42.6-41.77,0,0,12.73-32.92-36.52-62.24,0,0,13.56-10.51,2.49-42.33,0,0-1.38,8.85-13,21.3,0,0-27.66,30.15-53.94-5.26,0,0-14.94-22.68,9.13-34,0,0,17.7-9.13,24.34,8,0,0,7.19,14.11-8,14.39a27.94,27.94,0,0,1-16.6-10.79s1.38,31.54,25.45,27.11a22.71,22.71,0,0,0,17.7-19.92s1.94-11.9-10.51-28.22a1.47,1.47,0,0,1-.55-0.83,10.48,10.48,0,0,0,4.15,0,10.35,10.35,0,0,0,7.19-12.17,10,10,0,0,0-11.57-8h0a7.25,7.25,0,0,0-3.6,1.66,6.28,6.28,0,0,0,.28-1.11c4.15-20.19-2.77-29.88-2.77-29.88a22.66,22.66,0,0,0-24.34-10.24c-23.79,6.36-11.34,35.41-11.34,35.41A28.55,28.55,0,0,1,181.73,666c13.83-6.36,13.28,9.41,13.28,9.41,1.38,18.26-18.53,17.7-18.53,17.7-26.56.28-23-26.83-23-26.83,8.3-43.16,46.2-28.22,46.2-28.22,15.77,6.36,21,13.56,21,13.56C216.58,618.15,200,614.55,200,614.55c31.54-47.86,5.81-71.93,5.81-71.93C181.45,512.47,149.64,523.82,149.64,523.82Z"/><path class="cls-2" d="M255.31,912.21C240.93,962.56,288,981.92,288,981.92a96,96,0,0,1,25.17,12.17c14.39,10.51,29.6,36,29.6,36,1.38-49.52-20.75-57.54-20.75-57.54,16.32-32.92-11.34-45.09-11.34-45.09,3.6,10.79-8.58,38.45-27.39,21.58S283,915,283,915c17.7-17.7,38.18,1.11,38.18,1.11,22.68,20.19,21,53.39,21,53.39-1.94,32.09,15.77,79.39,55.05,70.27,17.7,36.52,65.56,20.75,89.35-.55,0,0,24.9-22.13,54.77-16.87,0,0,27.39,4.43,24.62,29.32,0,0-1.66,24.9-26.56,21s-11.07-31-.28-34.86c0,0-26.56-14.11-42.33,19.09,0,0-19.92-12.17-57.82,19.64,0,0,29.32-3.87,46.47.55a96.38,96.38,0,0,1,25.17,12.17s44.54,24.62,74.69-18c0,0,18.26-28.49-6.09-59.2,0,0-17.7-30.43-71.37-10.24,0,0,.28-16.87-31.54-28.49,0,0,6.09,6.64,8.58,23.51,0,0,6.09,40.39-37.62,39,0,0-27.11-2.49-21-28.49,0,0,3.87-19.64,21.3-14.11,0,0,15.49,3,6.36,15.21a28.88,28.88,0,0,1-18.53,6.36s25.45,18.53,36.79-3a22.55,22.55,0,0,0-4.43-26s-8-8.85-28.49-9.41h-1.11a7.55,7.55,0,0,0,2.49-3.32A10.32,10.32,0,1,0,421,967.81c-0.28-.28-0.28-0.55-0.55-0.83-13-15.77-25.17-16.6-25.17-16.6a22.66,22.66,0,0,0-23.24,12.73c-9.68,22.68,20.47,31,20.47,31a28.6,28.6,0,0,1-6.64-18.53c3.6-14.66,15.77-4.43,15.77-4.43,14.94,10.24,2.21,25.45,2.21,25.45-16.6,21-35.13,1.38-35.13,1.38C340.24,964.5,375.65,944,375.65,944c14.66-8.58,23.51-8,23.51-8-28.77-17.7-41.77-6.92-41.77-6.92-17.7-54.5-52.56-49.52-52.56-49.52C266.1,880.12,255.31,912.21,255.31,912.21Z"/><path class="cls-2" d="M624.06,1071.55c30.15,42.6,74.69,18,74.69,18a96.38,96.38,0,0,1,25.17-12.17c17.15-4.7,46.47-.55,46.47-0.55-37.9-32.09-57.82-19.64-57.82-19.64-15.49-33.2-42.33-19.09-42.33-19.09,10.79,3.87,24.62,30.71-.28,34.86s-26.56-21-26.56-21c-2.77-24.9,24.62-29.32,24.62-29.32,29.88-5.26,54.77,16.87,54.77,16.87,23.79,21.58,71.65,37.07,89.35.55,39.56,8.85,57-38.18,55.05-70.27,0,0-1.66-33.2,21-53.39,0,0,20.47-18.81,38.18-1.11,0,0,18.53,16.87-.28,34s-31-10.51-27.39-21.58c0,0-27.66,12.17-11.34,45.09,0,0-21.85,8-20.75,57.54,0,0,15.21-25.45,29.6-36a90.15,90.15,0,0,1,25.17-12.17s47-19.36,32.64-69.71c0,0-10.79-32.09-50.07-32.37,0,0-34.86-5-52.56,49.52,0,0-13-10.79-41.77,6.92,0,0,8.85-.55,23.51,8,0,0,35.41,20.19,6.92,53.94,0,0-18.81,19.64-35.13-1.38,0,0-12.73-15.21,2.21-25.45,0,0,12.17-10.24,15.77,4.43a28.6,28.6,0,0,1-6.64,18.53s30.43-8.3,20.47-30.71a22.32,22.32,0,0,0-23.24-12.73s-11.9.83-25.17,16.6c-0.28.28-.28,0.55-0.55,0.83a6.36,6.36,0,0,0-1.11-3.87,10.35,10.35,0,0,0-18.53,9.13,7.55,7.55,0,0,0,2.49,3.32h-1.11c-20.47.55-28.49,9.41-28.49,9.41a22.55,22.55,0,0,0-4.43,26c11.62,21.58,36.79,3,36.79,3a27.19,27.19,0,0,1-18.53-6.36c-9.13-12.17,6.36-15.21,6.36-15.21,17.43-5.53,21.3,14.11,21.3,14.11,6.09,26-21,28.49-21,28.49-44,1.38-37.62-39-37.62-39,2.49-16.87,8.58-23.51,8.58-23.51C701,985.52,701,1002.67,701,1002.67c-53.39-20.19-71.37,10.24-71.37,10.24C605.81,1043.06,624.06,1071.55,624.06,1071.55Z"/><path class="cls-2" d="M978.16,882.06c52,3,60.58-47.3,60.58-47.3a96.66,96.66,0,0,1,6.09-27.11c7.19-16.32,28.49-36.79,28.49-36.79-48.41,9.68-51.45,32.92-51.45,32.92-35.69-8.58-41.22,21.3-41.22,21.3,9.68-6.09,39.28-.28,26.83,21.85s-32.92,7.75-32.92,7.75c-21.3-13.28-7.47-37.62-7.47-37.62,14.66-26.83,47.3-32.37,47.3-32.37,31.54-5.26,73.58-32.92,56.16-69.71,31.54-25.45,5.81-68.61-20.47-87.14,0,0-27.11-19.36-28.49-49.79,0,0-1.94-27.66,23-30.71,0,0,24.62-3.87,26.28,21.3s-27.66,17.7-33.75,8c0,0-7.75,29.32,27.94,37.07,0,0-7.47,22.13,32.09,52,0,0-10.51-27.66-9.68-45.64a101.16,101.16,0,0,1,6.09-27.11s14.11-49-34-68.88c0,0-31.81-11.62-56.43,19.09,0,0-25.73,24.07,5.81,71.93,0,0-16.6,3.6-20.75,37.07,0,0,5.26-7.19,21-13.56,0,0,37.9-14.94,46.2,28.22,0,0,3.6,26.83-23,26.83,0,0-19.92.55-18.53-17.7,0,0-.55-15.77,13.28-9.41a28.55,28.55,0,0,1,10.24,16.87S1049.8,654.66,1026,648a22.13,22.13,0,0,0-24.34,10.24s-6.92,10-2.77,29.88a6.27,6.27,0,0,1,.28,1.11,8.58,8.58,0,0,0-3.6-1.66,10,10,0,0,0-11.61,8v0a10.21,10.21,0,0,0,7.19,12.17,10.48,10.48,0,0,0,4.15,0,1.47,1.47,0,0,0-.55.83c-12.45,16.32-10.51,28.22-10.51,28.22a22.82,22.82,0,0,0,17.7,19.92c24.07,4.43,25.45-27.11,25.45-27.11a29.74,29.74,0,0,1-16.6,10.79c-15.21-.28-8-14.39-8-14.39,6.64-16.87,24.34-8,24.34-8,24.07,11.34,9.13,34,9.13,34-26.28,35.13-53.94,5.26-53.94,5.26-11.62-12.45-13-21.3-13-21.3-10.79,32.09,2.49,42.33,2.49,42.33-49,29.32-36.52,62.24-36.52,62.24C944.41,878.46,978.16,882.06,978.16,882.06Z"/><path class="cls-2" d="M1050.91,485.92c34.86-39,.83-76.9.83-76.9a100.11,100.11,0,0,1-17.43-21.85c-8.3-15.77-11.07-45.37-11.07-45.37-22.68,44.26-6.36,60.86-6.36,60.86-28.77,22.68-9.13,45.64-9.13,45.64,1.38-11.34,24.34-31,33.75-7.47s-14.39,30.71-14.39,30.71c-23.79,8.3-34-17.43-34-17.43-11.9-28.22,4.15-57.26,4.15-57.26,15.77-27.94,20.19-78.29-19.09-87.42,0-40.67-50.07-47.3-80.78-38.18,0,0-32.09,9.13-56.71-8.58,0,0-23-15.77-9.41-37.07,0,0,12.17-21.85,32.92-7.19s-3.32,32.64-14.94,31.54c0,0,18,24.34,46.2,1.11,0,0,12.45,19.64,60.58,7.47,0,0-28.22-9.13-41.5-20.75a95,95,0,0,1-17.43-21.85s-29.32-41.5-75-16.32c0,0-28.77,17.7-20.19,55.88,0,0,2.77,35.13,59.75,40.39,0,0-7.47,15.21,16,39.28,0,0-2.49-8.58,2.49-24.9,0,0,11.9-39,50.9-18.81,0,0,23.24,13.83,6.64,34.86,0,0-11.9,15.77-25.17,3.32,0,0-12.73-9.41.83-16.32a27.66,27.66,0,0,1,19.36,2.49s-14.66-27.66-34.58-13.28A22.49,22.49,0,0,0,891,328s3.32,11.62,21.58,20.75a1,1,0,0,0,.83.28,6.61,6.61,0,0,0-3.6,1.94A10,10,0,0,0,908.72,365,10.15,10.15,0,0,0,922.83,367a8.66,8.66,0,0,0,2.49-3,2.1,2.1,0,0,0,.28,1.11c5,19.92,15.49,25.73,15.49,25.73a22.38,22.38,0,0,0,26.28-1.38c18.53-16-5.26-36.79-5.26-36.79a29.71,29.71,0,0,1-1.94,19.64c-9.68,11.62-16-2.77-16-2.77C935,353.69,953,345.39,953,345.39c24.07-11.9,32.37,14.11,32.37,14.11,11.07,42.6-29.6,45.64-29.6,45.64-16.87,1.11-24.62-3-24.62-3,18.26,28.49,34.58,24.34,34.58,24.34-7.75,56.71,26,67.5,26,67.5C1027.4,510.26,1050.91,485.92,1050.91,485.92Z"/><path class="cls-2" d="M604.7,277.06c-182,0-329.47,148-329.47,330.58s147.45,330.3,329.47,330.3,329.47-148,329.47-330.58S786.73,277.06,604.7,277.06Zm306,284.1C887.42,575,850.35,590.76,844.27,591A241.39,241.39,0,0,0,906,532.12C907.89,541.52,909.55,551.2,910.66,561.16Zm-11.34-66.95c-14.66,30.15-37.62,84.65-82.16,83.82-3.32,0-10.24-2.21-18,.28a31.65,31.65,0,0,0-17.43,13.56c-3.32,6.09-2.77,14.66-.83,21.58a29.16,29.16,0,0,1-7.47-21.58,38.48,38.48,0,0,1,6.36-19.64,23.82,23.82,0,0,1,8.3-7.47c-9.68-24.34,24.62-66.95,54.22-33.47,0,0-21.85-7.19-30.71,7.75-9.13,15.77,5.81,28.49,29.32,19.92,15.49-5.81,44-38.45,44.54-94.06A283.56,283.56,0,0,1,899.32,494.22Zm-46.47-81.88c6.36,10.24,12.45,21,18,32.09-14.94,30.71-39,59.75-39,59.75a232.18,232.18,0,0,0,21-91.84h0Zm-32.92-36.79a220,220,0,0,1-.28,55.6,831.49,831.49,0,0,0-42-90.18,299.78,299.78,0,0,1,42.33,34.58h0ZM627.66,502s15.49,49.79,78.84,46.2S791.71,471,779.26,436.4c-9.13-25.17-51.73-79.95-70-130.57,3.32,1.11,6.92,2.49,10.24,3.87a356.11,356.11,0,0,0,46.2,68.05C831.54,456,790,560.06,712.31,562.54S626.55,523.26,627.66,502h0Zm-5.81,197s10.51,2.21,7.75-8.85a21.11,21.11,0,0,0-9.68-9.41s19.09-6.09,21.85,11.9a16.27,16.27,0,0,1-8.85,17.15s-7.75,4.43-21-1.66a1,1,0,0,1-.55-0.28,9.93,9.93,0,0,1,.55,3,7.19,7.19,0,0,1-14.39,0,11.76,11.76,0,0,1,.55-3,1,1,0,0,0-.55.28c-13.28,6.09-21,1.66-21,1.66a16.27,16.27,0,0,1-8.85-17.15c2.77-18,21.85-11.9,21.85-11.9a21.11,21.11,0,0,0-9.68,9.41c-2.77,10.79,7.75,8.85,7.75,8.85,12.17-1.11,9.41-15.77,9.41-15.77-3.32-19.36-19.09-13.56-19.09-13.56-8.58,3.6-11.34,10.51-14.66,16.6-1.94,3.32-4.7,7.47-9.41,7.47H518.11c37.9-11.07,38.73-34.3,60.58-45.37A20.44,20.44,0,0,1,605,652.17a20.44,20.44,0,0,1,26.28-3.87c21.85,11.34,22.68,34.3,60.58,45.37H656.15c-4.43-.28-7.19-4.43-9.41-7.47-3.32-6.09-6.09-13-14.66-16.6,0,0-15.77-5.81-19.09,13.56C612.72,682.88,609.68,697.54,621.85,698.93Zm-6.36,43.16A11.07,11.07,0,1,1,604.42,731a11.07,11.07,0,0,1,11.07,11.07h0ZM584,584.68l21-45.37,20.19,45.37L605,630ZM604.7,426.16s39.28,33.2,11.9,68.05A16,16,0,0,1,604.7,500a14.74,14.74,0,0,1-11.9-5.81c-27.66-34.86,11.9-68.05,11.9-68.05h0ZM490.17,309.7c3.32-1.38,6.64-2.49,10-3.87-18,50.9-61.14,106-70.27,131.4-12.45,34.58,9.41,108.16,72.75,111.76s78.84-46.2,78.84-46.2c1.11,21.3-7.19,63.07-84.65,60.58s-119-106.23-53.39-184.79c22.68-27.11,37.35-50.07,46.75-68.88h0Zm-100.7,65.84a288,288,0,0,1,42.88-34.86c-23,40.67-42.6,91.57-42.6,91.57a215.78,215.78,0,0,1-.28-56.71h0ZM359.88,409a222,222,0,0,0,21.3,91.57s-24.07-29-39-59.75A322.67,322.67,0,0,1,359.88,409ZM327,461.57c0.55,55.6,28.77,88.52,44.54,94.06,23.51,8.58,38.45-4.15,29.32-19.92C392,520.5,370.11,528,370.11,528c29.6-33.47,63.9,9.13,54.22,33.47a26.89,26.89,0,0,1,8.3,7.47A41.27,41.27,0,0,1,439,588.55a29.16,29.16,0,0,1-7.47,21.58c1.94-6.92,2.49-15.49-.83-21.58A31.65,31.65,0,0,0,413.27,575c-7.75-2.49-14.66-.28-18-0.28-44.54.83-67.5-53.67-82.16-83.82A317.36,317.36,0,0,1,327,461.57Zm-23.79,71.1a245.46,245.46,0,0,0,61.69,59.2c-6.09-.55-43.16-16.32-66.39-29.88A240.38,240.38,0,0,1,303.17,532.67ZM297.64,624c-0.83-8.85-1.11-18-1.11-27.11v-7.19c45.64,20.19,112,32.92,112,32.92S315.89,624.23,297.64,624Zm69.44,51.45c-12.45,0-54.5-28.49-54.5-28.49l167.64,9.41s-100.7,19.09-113.14,19.09h0Zm169.3-42.88a35.66,35.66,0,0,0,2.77-20.75c-1.11-6.92-4.43-19.64-22.13-24.62,0,0-21.3-6.92-31.81,8.85s17.43,23.79,26.56,19.64c0,0-6.36,24.07-40.11,11.62,0,0-4.43,19.09-51.18,13.83,0,0,22.13-9.68,29.6-20.75,0,0,4.7-6.09,6.09-19.09,0,0,4.15-34.58,53.67-31,0,0,34,1.94,45.37,34.3a35.71,35.71,0,0,1,1.38,15.21c-5.81,47.86-62.24,71.65-62.24,71.65-21.3,2.77-74.69-8-74.69-8,92.4-14.94,104.29-25.17,116.74-50.9h0Zm-31,280.78a352.71,352.71,0,0,1-33.47-13.56c117.57-33.47,99.87-115.91,99.87-115.91C588.66,832.54,540,884.27,505.39,913.32Zm21,6.36c48.13-47.58,60.31-102.08,61.41-125.87a60.86,60.86,0,0,0-18-43.71s-11.62-12.45-25.45-12.45c0,0-12.73.28-12.73,13,0,0-.55,12.17,10,12.17s6.92-14.39,2.49-17.15c0,0,13-4.43,16,13.83,0,0,10.24-3.6,19.92,18,0,0-10.51-6.64-17.7-6.64a23.35,23.35,0,0,0-10.79,3S531.39,783,520,760.62a25.89,25.89,0,0,1,4.43-30.15c14.66-12.45,26.83-8.3,39,.83a69.8,69.8,0,0,1,15.49,16A60.86,60.86,0,0,1,590,772.23c8.85,48.13-20.75,115.36-39,153.26-8-1.94-16.32-3.87-24.62-5.81h0Zm78,10c-7.75,0-15.77-.28-23.51-0.83C587.27,910,595,880.4,601.38,835.58L604.7,785h0l3.32,50.9c6.36,43.43,13.83,74.69,20.19,92.67a231.77,231.77,0,0,1-23.79,1.11h0Zm53.67-4.7c-18-37.9-47.86-105.12-39-153.26a60.86,60.86,0,0,1,11.07-24.9,69.8,69.8,0,0,1,15.49-16c12.17-8.85,24.34-13,39-.83a25.89,25.89,0,0,1,4.43,30.15c-11.34,22.41-31.54,13.28-31.54,13.28a28.85,28.85,0,0,0-10.79-3c-7.19,0-17.7,6.64-17.7,6.64,9.68-21.58,19.92-18,19.92-18,2.77-18.26,16-13.83,16-13.83-4.43,2.77-7.75,17.15,2.49,17.15s10-12.17,10-12.17c0-12.73-12.73-13-12.73-13-13.83,0-25.45,12.45-25.45,12.45a59.81,59.81,0,0,0-18,43.71c1.11,23.79,13.28,78.29,61.41,125.87a245,245,0,0,1-24.62,5.81h0ZM704,913c-34.58-29-83.27-80.78-66.39-129.74,0,0-17.7,82.44,99.87,115.91A267,267,0,0,1,704,913h0ZM714.8,692s-56.16-23.79-62.24-71.65a41.74,41.74,0,0,1,1.38-15.21c11.34-32.37,45.37-34.3,45.37-34.3,49.52-3.6,53.67,31,53.67,31,1.38,13,6.09,19.09,6.09,19.09,7.19,10.79,29.6,20.75,29.6,20.75-46.75,5.26-51.18-13.83-51.18-13.83-33.75,12.45-40.11-11.62-40.11-11.62,9.41,4.15,37.35-3.87,26.56-19.64s-31.81-8.85-31.81-8.85c-17.7,5-21,17.7-22.13,24.62a35.66,35.66,0,0,0,2.77,20.75c12.45,25.73,24.34,36,116.74,51.45,0-.55-53.39,10.24-74.69,7.47h0Zm127.25-17.43c-12.45,0-113.14-19.09-113.14-19.09l167.64-9.41s-42,28.49-54.5,28.49h0Zm-41.5-52.84s66.39-12.73,112-32.92v7.75c0,8.85-.28,17.7-1.11,26.56-18,.55-110.93-1.38-110.93-1.38h0Z"/></svg>