<?xml version="1.0" encoding="utf-8"?>
<!-- Generator: Adobe Illustrator 19.2.0, SVG Export Plug-In . SVG Version: 6.00 Build 0)  -->
<svg version="1.1" id="Layer_1" xmlns="http://www.w3.org/2000/svg" xmlns:xlink="http://www.w3.org/1999/xlink" x="0px" y="0px"
	 viewBox="0 0 26 26" style="enable-background:new 0 0 26 26;" xml:space="preserve">
<style type="text/css">
	.st0{fill:black;}
</style>
<title>3d</title>
<path class="st0" d="M13,0C5.8,0,0,5.8,0,13s5.8,13,13,13s13-5.8,13-13S20.2,0,13,0z M13,24.1c-6.1,0-11.1-5-11.1-11.1
	S6.9,1.9,13,1.9s11.1,5,11.1,11.1S19.1,24.1,13,24.1z M17.2,5.7c-0.3-0.1-0.6,0-0.7,0.2L11,11.7c-0.1,0.1-0.1,0.2-0.1,0.2l-2.5,7.5
	c-0.1,0.3,0,0.7,0.4,0.8c0.3,0.1,0.6,0,0.7-0.2l0,0l5.5-5.8c0.1-0.1,0.1-0.1,0.1-0.2l2.6-7.5C17.7,6.2,17.5,5.8,17.2,5.7z
	 M14.1,13.3c-0.2,0.6-0.8,0.9-1.4,0.8l0,0c-0.6-0.2-0.9-0.8-0.8-1.4c0.2-0.6,0.8-0.9,1.4-0.8C13.9,12.1,14.2,12.7,14.1,13.3z"/>
</svg>
