<?xml version="1.0" encoding="utf-8"?>
<!-- Generator: Adobe Illustrator 19.2.1, SVG Export Plug-In . SVG Version: 6.00 Build 0)  -->
<svg version="1.1" id="Слой_1" xmlns="http://www.w3.org/2000/svg" xmlns:xlink="http://www.w3.org/1999/xlink" x="0px" y="0px"
	 viewBox="0 0 28 23" style="enable-background:new 0 0 28 23;" xml:space="preserve">
<style type="text/css">
	.st0{fill:black;enable-background:new    ;}
	.st1{fill:black;}
</style>
<path class="st0" d="z"/>
<path class="st1" d="M28,14.2c0,4.8-3.9,8.8-8.7,8.8H1.2C0.5,23,0,22.5,0,21.8c0-0.7,0.5-1.2,1.2-1.2h18.1c3.5,0,6.3-2.9,6.3-6.4
	c0-3.5-2.8-6.4-6.3-6.4H4l3.5,3.5c0.5,0.5,0.5,1.2,0,1.7c-0.2,0.2-0.5,0.3-0.8,0.3c-0.3,0-0.6-0.1-0.8-0.3L0.3,7.5
	c-0.5-0.5-0.5-1.2,0-1.7l5.4-5.5c0.5-0.5,1.2-0.5,1.7,0c0.5,0.5,0.5,1.2,0,1.7L4.1,5.4h15.2C24.1,5.4,28,9.4,28,14.2z"/>
</svg>
