<?xml version="1.0" encoding="utf-8"?>
<!-- Generator: Adobe Illustrator 19.2.1, SVG Export Plug-In . SVG Version: 6.00 Build 0)  -->
<svg version="1.1" id="Слой_1" xmlns="http://www.w3.org/2000/svg" xmlns:xlink="http://www.w3.org/1999/xlink" x="0px" y="0px"
	 viewBox="0 0 28 28" style="enable-background:new 0 0 28 28;" xml:space="preserve">
<style type="text/css">
	.st0{fill:black;}
</style>
<path class="st0" d="M27.4,27.5c-0.7,0.7-1.8,0.7-2.4,0L14,16.5l-11,11.1c-0.7,0.7-1.8,0.7-2.5,0c-0.7-0.7-0.7-1.8,0-2.4v0l11-11.1
	L0.5,2.9c-0.7-0.7-0.7-1.8,0-2.5c0.7-0.7,1.8-0.7,2.4,0l11,11.1L25,0.5c0.7-0.7,1.8-0.7,2.5,0c0.7,0.7,0.7,1.8,0,2.4L16.4,14
	l11,11.1C28.1,25.7,28.1,26.8,27.4,27.5z"/>
</svg>
