<?xml version="1.0" encoding="utf-8"?>
<!-- Generator: Adobe Illustrator 19.2.0, SVG Export Plug-In . SVG Version: 6.00 Build 0)  -->
<svg version="1.1" id="Layer_1" xmlns="http://www.w3.org/2000/svg" xmlns:xlink="http://www.w3.org/1999/xlink" x="0px" y="0px"
	 viewBox="0 0 26 26" style="enable-background:new 0 0 26 26;" xml:space="preserve">
<style type="text/css">
	.st0{fill:black;}
</style>
<title>digits</title>
<path class="st0" d="M13,26C5.8,26,0,20.2,0,13c0-3.3,1.3-6.6,3.6-9C3.9,3.5,4.5,3.3,5,3.6S5.7,4.5,5.4,5C5.3,5.1,5.2,5.2,5.1,5.3
	l0,0C0.9,9.6,0.9,16.6,5.2,20.8s11.3,4.2,15.6-0.1S25,9.4,20.7,5.2c-2-2-4.8-3.2-7.7-3.2l0,0c-0.6,0-1-0.4-1-1s0.4-1,1-1l0,0
	c7.2,0,13,5.8,13,13S20.2,26,13,26z M13,10L13,10c-0.6,0-1-0.4-1-1s0.4-1,1-1l0,0c2.8,0,5,2.2,5,5s-2.2,5-5,5l0,0c-0.6,0-1-0.4-1-1
	s0.4-1,1-1l0,0c1.7,0,3-1.3,3-3S14.7,10,13,10z M20,13c0-3.9-3.1-7-7-7l0,0c-0.6,0-1-0.4-1-1s0.4-1,1-1l0,0c5,0,9,4,9,9s-4,9-9,9
	s-9-4-9-9l0,0c0-0.6,0.4-1,1-1s1,0.4,1,1l0,0c0,3.9,3.1,7,7,7S20,16.9,20,13z"/>
</svg>
