<?xml version="1.0" encoding="utf-8"?>
<!-- Generator: Adobe Illustrator 19.2.0, SVG Export Plug-In . SVG Version: 6.00 Build 0)  -->
<svg version="1.1" id="Layer_1" xmlns="http://www.w3.org/2000/svg" xmlns:xlink="http://www.w3.org/1999/xlink" x="0px" y="0px"
	 viewBox="0 0 26 26" style="enable-background:new 0 0 26 26;" xml:space="preserve">
<style type="text/css">
	.st0{fill:black;}
</style>
<path class="st0" d="M13,26c7.2,0,13-5.8,13-13S20.2,0,13,0C5.8,0,0,5.8,0,13S5.8,26,13,26z M13,2.3c5.9,0,10.7,4.8,10.7,10.7
	c0,5.9-4.8,10.7-10.7,10.7C7.1,23.7,2.3,18.9,2.3,13C2.3,7.1,7.1,2.3,13,2.3z M12.2,17.6c0.4,0.4,1.2,0.4,1.6,0l4.5-4.5
	c0.4-0.4,0.4-1.2,0-1.6c-0.4-0.4-1.2-0.4-1.6,0L14.2,14V7.6c0-0.6-0.5-1.2-1.2-1.2c-0.6,0-1.2,0.5-1.2,1.2V14l-2.5-2.5
	c-0.2-0.2-0.5-0.3-0.8-0.3c-0.3,0-0.6,0.1-0.8,0.3c-0.4,0.4-0.4,1.2,0,1.6L12.2,17.6z"/>
</svg>
