<?xml version="1.0" encoding="utf-8"?>
<!-- Generator: Adobe Illustrator 19.2.0, SVG Export Plug-In . SVG Version: 6.00 Build 0)  -->
<svg version="1.1" id="Layer_1" xmlns="http://www.w3.org/2000/svg" xmlns:xlink="http://www.w3.org/1999/xlink" x="0px" y="0px"
	 viewBox="0 0 26 26" style="enable-background:new 0 0 26 26;" xml:space="preserve">
<style type="text/css">
	.st0{fill:black;}
</style>
<title>3d</title>
<path class="st0" d="M1,7.1h15.1c0.4,1.1,1.5,2,2.8,2c1.3,0,2.4-0.8,2.8-2H25c0.6,0,1-0.5,1-1s-0.5-1-1-1h-3.2c-0.4-1.1-1.5-2-2.8-2
	c-1.3,0-2.4,0.8-2.8,2H1C0.5,5,0,5.5,0,6S0.5,7.1,1,7.1z M25,12H8.7c-0.4-1.1-1.5-2-2.8-2c-1.3,0-2.4,0.8-2.8,2H1c-0.6,0-1,0.5-1,1
	c0,0.6,0.5,1,1,1h2.1c0.4,1.1,1.5,2,2.8,2c1.3,0,2.4-0.8,2.8-2H25c0.6,0,1-0.5,1-1C26,12.4,25.5,12,25,12z M25,18.9h-6.9
	c-0.4-1.1-1.5-2-2.8-2c-1.3,0-2.4,0.8-2.8,2H1c-0.6,0-1,0.5-1,1s0.5,1,1,1h11.5c0.4,1.1,1.5,2,2.8,2c1.3,0,2.4-0.8,2.8-2H25
	c0.6,0,1-0.5,1-1S25.5,18.9,25,18.9z"/>
</svg>
