<?xml version="1.0" encoding="utf-8"?>
<!-- Generator: Adobe Illustrator 19.2.1, SVG Export Plug-In . SVG Version: 6.00 Build 0)  -->
<svg version="1.1" id="Слой_1" xmlns="http://www.w3.org/2000/svg" xmlns:xlink="http://www.w3.org/1999/xlink" x="0px" y="0px"
	 viewBox="0 0 22.4 20" style="enable-background:new 0 0 22.4 20;" xml:space="preserve">
<style type="text/css">
	.st0{fill:black;}
</style>
<path id="menu_icon" class="st0" d="M1.4,0H21c0.8,0,1.4,0.7,1.4,1.5c0,0.8-0.6,1.4-1.4,1.4H1.4C0.6,2.8,0,2.2,0,1.4
	C0,0.6,0.6,0,1.4,0z M1.4,17.1H21c0.8,0,1.4,0.7,1.4,1.5c0,0.8-0.6,1.4-1.4,1.4H1.4C0.6,20,0,19.3,0,18.5C0,17.8,0.6,17.2,1.4,17.1z
	 M1.4,8.6H21c0.8,0,1.4,0.7,1.4,1.5c0,0.8-0.6,1.4-1.4,1.4H1.4C0.6,11.4,0,10.8,0,10S0.6,8.6,1.4,8.6L1.4,8.6z"/>
</svg>
