<?xml version="1.0" encoding="utf-8"?>
<!-- Generator: Adobe Illustrator 19.2.0, SVG Export Plug-In . SVG Version: 6.00 Build 0)  -->
<svg version="1.1" id="Layer_1" xmlns="http://www.w3.org/2000/svg" xmlns:xlink="http://www.w3.org/1999/xlink" x="0px" y="0px"
	 viewBox="0 0 16.6 26" style="enable-background:new 0 0 16.6 26;" xml:space="preserve">
<style type="text/css">
	.st0{fill:black;}
</style>
<title>scroll</title>
<path class="st0" d="M10.7,0L10.7,0L5.9,0C2.6,0,0,2.6,0,5.9v11.9C0,22.3,3.7,26,8.3,26c4.6,0,8.3-3.7,8.3-8.3V5.9
	C16.6,2.6,14,0,10.7,0z M14.9,17.7c0,3.7-3,6.6-6.6,6.6s-6.6-3-6.6-6.6V5.9c0-2.3,1.9-4.2,4.2-4.2h4.8v0c2.3,0,4.2,1.9,4.2,4.2V17.7
	z M10.5,11l-2.2,1.6L6,11c-0.2-0.2-0.5-0.1-0.7,0.1c-0.2,0.2-0.1,0.5,0.1,0.7L8,13.6c0.1,0.1,0.2,0.1,0.3,0.1c0.1,0,0.2-0.1,0.3-0.1
	l2.5-1.8c0,0,0,0,0.1-0.1c0.2-0.2,0.2-0.5,0.1-0.7C11.1,10.8,10.7,10.8,10.5,11z M10.5,14.9l-2.2,1.6l-2.2-1.6c0,0,0,0-0.1-0.1
	c-0.2-0.1-0.5-0.1-0.7,0.2c-0.1,0.2-0.1,0.5,0.2,0.7L8,17.5c0.1,0.1,0.2,0.1,0.3,0.1c0.1,0,0.2,0,0.3-0.1l2.5-1.8c0,0,0,0,0.1-0.1
	c0.2-0.2,0.2-0.5,0.1-0.7C11.1,14.7,10.7,14.7,10.5,14.9z M10.5,18.6l-2.2,1.6L6,18.6c0,0,0,0-0.1-0.1c-0.2-0.1-0.5-0.1-0.7,0.2
	c-0.1,0.2-0.1,0.5,0.2,0.7L8,21.2c0.1,0.1,0.2,0.1,0.3,0.1c0.1,0,0.2,0,0.3-0.1l2.5-1.8c0,0,0,0,0.1-0.1c0.2-0.2,0.2-0.5,0.1-0.7
	C11.1,18.5,10.7,18.5,10.5,18.6z M8.3,9c0.5,0,1-0.4,1-0.9V5.9c0-0.6-0.4-1-1-1c-0.6,0-1,0.4-1,1V8C7.3,8.6,7.7,9,8.3,9z"/>
</svg>
