<?xml version="1.0" encoding="utf-8"?>
<!-- Generator: Adobe Illustrator 19.2.1, SVG Export Plug-In . SVG Version: 6.00 Build 0)  -->
<svg version="1.1" id="Слой_1" xmlns="http://www.w3.org/2000/svg" xmlns:xlink="http://www.w3.org/1999/xlink" x="0px" y="0px"
	 viewBox="0 0 37 35" style="enable-background:new 0 0 37 35;" xml:space="preserve">
<style type="text/css">
	.st0{fill:black;}
</style>
<path class="st0" d="M36.2,23.2l-6.6-3.6l-3,1.6l5.9,3.2l-14,7.5L4.5,24.4l5.9-3.2l-3-1.6l-6.6,3.6C0.3,23.4,0,23.9,0,24.4
	c0,0.5,0.3,1,0.8,1.2l17.1,9.2c0.2,0.1,0.5,0.2,0.7,0.2c0.2,0,0.5-0.1,0.7-0.2l17-9.1c0.5-0.2,0.8-0.7,0.8-1.2
	C37,23.9,36.7,23.5,36.2,23.2z M0.8,11.8l6.6,3.6l3,1.6l7.5,4c0.2,0.1,0.5,0.2,0.7,0.2c0.2,0,0.5-0.1,0.7-0.2l7.4-4l3-1.6l6.6-3.6
	c0.5-0.2,0.8-0.7,0.8-1.2c0-0.5-0.3-1-0.8-1.2L19.2,0.2c-0.4-0.2-1-0.2-1.4,0l-17,9.1C0.3,9.6,0,10,0,10.6S0.3,11.5,0.8,11.8z
	 M18.4,3l14.1,7.6l-5.9,3.2l-3,1.6l-5.1,2.7l-5.2-2.8l-3-1.6l-5.9-3.2L18.4,3z"/>
</svg>
