<svg id="Слой_1" data-name="Слой 1" xmlns="http://www.w3.org/2000/svg" xmlns:xlink="http://www.w3.org/1999/xlink" viewBox="0 0 459 642.22"><defs><style>.cls-1,.cls-3,.cls-6{fill:none;}.cls-2{fill:#153e28;}.cls-3,.cls-6{stroke:#153e28;stroke-miterlimit:10;}.cls-4{font-size:15px;fill:#58595b;font-family:Gotham Pro;}.cls-5{fill:url(#Новый_образец_узора_4);}.cls-6{stroke-width:0.5px;}</style><pattern id="Новый_образец_узора_4" data-name="Новый образец узора 4" width="58" height="2.42" patternTransform="translate(-16.43 13.54) rotate(-45) scale(1.5)" patternUnits="userSpaceOnUse" viewBox="0 0 58 2.42"><rect class="cls-1" width="58" height="2.42"/><rect class="cls-2" width="58" height="0.5"/><line class="cls-1" y1="2.42" x2="58" y2="2.42"/></pattern></defs><title>plan</title><rect class="cls-2" x="99.76" y="0.04" width="76.48" height="1.17"/><rect class="cls-2" x="99.76" y="15.08" width="76.48" height="1.17"/><rect class="cls-2" x="34.95" y="63.76" width="1.17" height="82.52"/><rect class="cls-2" x="49.99" y="63.76" width="1.17" height="82.52"/><rect class="cls-2" x="34.95" y="217.23" width="1.17" height="96.27"/><rect class="cls-2" x="49.99" y="217.23" width="1.17" height="96.27"/><rect class="cls-2" x="18.07" y="427.8" width="1.17" height="37.51"/><rect class="cls-2" x="33.11" y="427.8" width="1.17" height="37.51"/><rect class="cls-2" x="260.83" y="0.04" width="91.27" height="1.17"/><rect class="cls-2" x="260.83" y="15.08" width="91.27" height="1.17"/><path class="cls-3" d="M455.15,399.76" transform="translate(-1.21 0.69)"/><path class="cls-3" d="M455.15,368.76" transform="translate(-1.21 0.69)"/><text class="cls-4" transform="translate(121.64 425.3)">16,5</text><text class="cls-4" transform="translate(121.64 277.87)">2<tspan x="8.99" y="0">0</tspan><tspan x="19.41" y="0">,</tspan><tspan x="22.34" y="0">1</tspan></text><text class="cls-4" transform="translate(114.76 107.52)">22,2</text><text class="cls-4" transform="translate(284.8 95.8)">1<tspan x="5.37" y="0">9</tspan><tspan x="14.93" y="0">,6</tspan></text><text class="cls-4" transform="translate(187.9 561.25)">43<tspan x="19.26" y="0">,</tspan><tspan x="22.64" y="0">0</tspan></text><path class="cls-5" d="M34.29,415H65.86V358.55h175v17.5H249V315H240.9v21.88H54.76V314.06H37.42v88.67H20.54v23.13H34.29V415ZM64.92,29.1H96.59V14.31h3.13V0.56H37.42V61.82H64.92V29.1ZM181.2,30.35h20V172.68h39.7v8.39H249V170.44h10.47v-6.3H246.63v-17.3H207.87V30.35h21.67v-16H260.8V0.56H178.7V14.31h2.5v16ZM54.76,192.47H167.55V229H240.9v55.74H249v-74H240.9V222.9h-67.2V186.33H69.61V146.84H37.42v68.45H54.76V192.47ZM32.9,494H248.71V443.15h26.41v-8H249V404.55H240.9v32.56h-17v21.46H197.45v23.55H34.29V465.86H20.54v25.9l-3.41.84L15.8,499l14.51,4.28ZM448,435.18H308.72v8h63.35V621.52H340.4v6.25H248.92V619H2.83v21.26H394.16V458.15H459V401.27H448v33.91Zm6.1-89.55H398.33V0.56H354.57V14.31H376V164.13H351.44v6.3h19.8v66.84H301V170.44h23.76v-6.3H292.26v6.3h2.29V276.55H301V243.42h70.22v54.7H347.48v36.05H301V302.5h-6.46v38.76h76.68v29.69H301V367.3h-6.46v9.79h89.81v-19l63.66-.05v9.85H459v-22.3h-4.84Z" transform="translate(-1.21 0.69)"/><path class="cls-2" d="M395.41,641.53H1.58V617.77H250.17v8.75h89v-6.25h31.67V444.4H307.47V433.93h139.3V400h13.44V459.4H395.41V641.53ZM4.08,639H392.91V456.9h64.81V402.52h-8.44v33.91H310v5.47h63.35V622.77H341.65V629h-94v-8.75H4.08V639Zm27.1-134.15-16.83-5,1.72-8.33,3.22-.79V464.61H35.54v16.25H196.2V457.32h26.46V435.86h17V403.3h10.63v30.63h26.1V444.4H250v50.84H33.85Zm-13.92-6.71,12.19,3.6,2.5-9H247.46V441.9h26.41v-5.47h-26.1V405.8h-5.63v32.56h-17v21.46H198.7v23.55H33V467.11H21.79v25.63l-3.59.88Zm18.29-71.06H19.29V401.48H36.17V312.81H56v22.82H239.65V313.75h10.63V377.3H239.65V359.8H67.11v56.47H35.54v10.84Zm-13.75-2.5H33V413.77H64.61V357.3H242.15v17.5h5.63V316.25h-5.63v21.88H53.51V315.31H38.67V404H21.79v20.63Zm363.83-46.26H293.3v-12.3h9v3.65H370V342.5H293.3V301.25h9v31.67h44V296.87H370v-52.2H302.26V277.8h-9V171.69H291v-8.8h35v8.8H302.26V236H370V171.69h-19.8v-8.8h24.59V15.56H353.32V-0.69h46.26V344.38h60.64v24.8H446.77v-9.84l-61.16,0v19Zm-89.81-2.5h87.31v-19l66.16-.05v9.85h8.44v-19.8H397.08V1.81H355.82V13.06h21.46V165.38H352.69v3.8h19.8v69.34H299.76V169.19h23.76v-3.8h-30v3.8h2.29V275.3h4V242.17h72.72v57.2H348.73v36.05h-49V303.75h-4V340h76.68V372.2H299.76v-3.65h-4v7.29ZM250.27,286H239.65V230.29H166.3V193.72H56v22.82H36.17v-71H70.86v39.49H174.94v36.57h64.7V209.56h10.63V286Zm-8.13-2.5h5.63V212.06h-5.63v12.09h-69.7V187.58H68.36V148.09H38.67v66H53.51V191.22H168.8v36.57h73.35v55.74Zm8.13-101.22H239.65v-8.39H200V31.6h-20v-16h-2.5V-0.69H262V15.56H230.79v16H209.12v114h38.76v17.3h12.87v8.8H250.27v10.63Zm-8.13-2.5h5.63V169.19h10.47v-3.8H245.38v-17.3H206.62V29.1h21.67v-16h31.26V1.81h-79.6V13.06h2.5v16h20V171.43h39.7v8.39ZM66.17,63.07h-30V-0.69H101V15.56H97.84V30.35H66.17V63.07Zm-27.51-2.5h25V27.85H95.34V13.06h3.13V1.81H38.67V60.57Z" transform="translate(-1.21 0.69)"/><path class="cls-6" d="M308,444.4a32.1,32.1,0,0,1-32.12,32.12V444.4" transform="translate(-1.21 0.69)"/><path class="cls-6" d="M239.65,403.77a27.18,27.18,0,0,1-27.19-27.19h27.19" transform="translate(-1.21 0.69)"/><path class="cls-6" d="M239.88,210.37A28.9,28.9,0,0,1,211,181.45h28.91" transform="translate(-1.21 0.69)"/><path class="cls-6" d="M293.3,366.57a24.68,24.68,0,0,1-24.69-24.69H293.3" transform="translate(-1.21 0.69)"/><path class="cls-6" d="M446.88,400.64a32.18,32.18,0,0,1-32.19-32.19h32.19" transform="translate(-1.21 0.69)"/><path class="cls-6" d="M239.65,285.38a29,29,0,0,0-29,29h29" transform="translate(-1.21 0.69)"/><path class="cls-6" d="M302.26,277.18A24.68,24.68,0,0,1,327,301.87H302.26" transform="translate(-1.21 0.69)"/><path class="cls-6" d="M291.74,162.88a31.66,31.66,0,0,0-31.67-31.67v31.67" transform="translate(-1.21 0.69)"/><path class="cls-6" d="M325.21,171.37a25.54,25.54,0,0,0,25.55,25.55V171.37" transform="translate(-1.21 0.69)"/><path class="cls-2" d="M31.62,502.79l-1.21-.32c-10,37.5-13.63,76.27-11.83,115.31h1.25C18,578.84,21.69,540.18,31.62,502.79Z" transform="translate(-1.21 0.69)"/><path class="cls-2" d="M15.55,500.24l-1.21-.33C3.91,538.19-.08,577.82,1.58,617.77H2.83C1.17,577.93,5.14,538.41,15.55,500.24Z" transform="translate(-1.21 0.69)"/></svg>