<svg id="Слой_1" data-name="Слой 1" xmlns="http://www.w3.org/2000/svg" viewBox="0 0 243.43 346.43"><defs><style>.cls-1{fill:#008a64;}</style></defs><title>flat-08</title><polygon class="cls-1" points="200.29 3.51 182.42 3.51 182.42 0.01 130.81 0 130.81 4.7 0.37 4.7 0 12.43 0.17 22.18 0.77 31.68 1.86 41.81 3.44 51.88 5.46 61.73 9.03 75.03 9.2 82.64 9.2 120.14 28.07 120.14 28.07 152.24 21.81 164.58 21.81 245.7 29.13 249.69 29.13 271.44 27.01 271.26 27.01 337.74 45.09 346.43 202.4 345.85 202.4 186.44 206.92 152.34 243.39 152.34 243.43 108.31 200.29 103.11 200.29 3.51"/></svg>