<svg id="Слой_1" data-name="Слой 1" xmlns="http://www.w3.org/2000/svg" xmlns:xlink="http://www.w3.org/1999/xlink" viewBox="0 0 274.48 330.78"><defs><style>.cls-1{fill:none;}.cls-2{opacity:0.6;}.cls-3{clip-path:url(#clip-path);}.cls-4{fill:#fff;}</style><clipPath id="clip-path" transform="translate(63.43 64.06)"><polygon class="cls-1" points="68.2 204.99 31.85 204.99 31.85 182.76 28.48 181.09 0.38 181.09 0.38 24.77 30.47 24.77 30.47 8.55 73.14 8.55 87.09 5.08 100.58 2.66 112.75 1.15 123.2 0.35 133.82 0.01 147.62 0.28 146.71 168.78 130.87 168.78 130.87 204.99 68.2 204.99"/></clipPath></defs><title>flat-02-sold</title><g class="cls-2"><g class="cls-3"><rect class="cls-1" x="66.11" y="-33.83" width="87" height="3.63" transform="translate(118.18 132.19) rotate(-45)"/><rect class="cls-4" x="67.13" y="-31.37" width="87" height="0.75" transform="translate(117.76 133.21) rotate(-45)"/><line class="cls-1" x1="202.52" x2="141" y2="61.52"/><rect class="cls-1" x="68.68" y="-31.26" width="87" height="3.63" transform="translate(117.11 134.76) rotate(-45)"/><rect class="cls-4" x="69.7" y="-28.81" width="87" height="0.75" transform="translate(116.69 135.78) rotate(-45)"/><line class="cls-1" x1="205.09" y1="2.57" x2="143.57" y2="64.09"/><rect class="cls-1" x="71.25" y="-28.7" width="87" height="3.63" transform="translate(116.05 137.32) rotate(-45)"/><rect class="cls-4" x="72.27" y="-26.24" width="87" height="0.75" transform="translate(115.63 138.34) rotate(-45)"/><line class="cls-1" x1="207.66" y1="5.13" x2="146.14" y2="66.65"/><rect class="cls-1" x="73.81" y="-26.13" width="87" height="3.63" transform="translate(114.99 139.89) rotate(-45)"/><rect class="cls-4" x="74.83" y="-23.67" width="87" height="0.75" transform="translate(114.57 140.91) rotate(-45)"/><line class="cls-1" x1="210.22" y1="7.7" x2="148.7" y2="69.22"/><rect class="cls-1" x="76.38" y="-23.56" width="87" height="3.63" transform="translate(113.92 142.46) rotate(-45)"/><rect class="cls-4" x="77.4" y="-21.11" width="87" height="0.75" transform="translate(113.5 143.48) rotate(-45)"/><line class="cls-1" x1="212.79" y1="10.27" x2="151.27" y2="71.79"/><rect class="cls-1" x="78.95" y="-21" width="87" height="3.63" transform="translate(112.86 145.02) rotate(-45)"/><rect class="cls-4" x="79.97" y="-18.54" width="87" height="0.75" transform="translate(112.44 146.04) rotate(-45)"/><line class="cls-1" x1="215.36" y1="12.83" x2="153.84" y2="74.35"/><rect class="cls-1" x="81.51" y="-18.43" width="87" height="3.63" transform="translate(111.8 147.59) rotate(-45)"/><rect class="cls-4" x="82.53" y="-15.97" width="87" height="0.75" transform="translate(111.38 148.61) rotate(-45)"/><line class="cls-1" x1="217.92" y1="15.4" x2="156.4" y2="76.92"/><rect class="cls-1" x="84.08" y="-15.86" width="87" height="3.63" transform="translate(110.73 150.16) rotate(-45)"/><rect class="cls-4" x="85.1" y="-13.41" width="87" height="0.75" transform="translate(110.31 151.18) rotate(-45)"/><line class="cls-1" x1="220.49" y1="17.97" x2="158.97" y2="79.49"/><rect class="cls-1" x="86.65" y="-13.3" width="87" height="3.63" transform="translate(109.67 152.72) rotate(-45)"/><rect class="cls-4" x="87.67" y="-10.84" width="87" height="0.75" transform="translate(109.25 153.74) rotate(-45)"/><line class="cls-1" x1="223.06" y1="20.53" x2="161.54" y2="82.05"/><rect class="cls-1" x="89.21" y="-10.73" width="87" height="3.63" transform="translate(108.61 155.29) rotate(-45)"/><rect class="cls-4" x="90.23" y="-8.27" width="87" height="0.75" transform="translate(108.19 156.31) rotate(-45)"/><line class="cls-1" x1="225.62" y1="23.1" x2="164.11" y2="84.62"/><rect class="cls-1" x="91.78" y="-8.16" width="87" height="3.63" transform="translate(107.55 157.86) rotate(-45)"/><rect class="cls-4" x="92.8" y="-5.71" width="87" height="0.75" transform="translate(107.12 158.88) rotate(-45)"/><line class="cls-1" x1="228.19" y1="25.67" x2="166.67" y2="87.19"/><rect class="cls-1" x="94.35" y="-5.6" width="87" height="3.63" transform="translate(106.48 160.42) rotate(-45)"/><rect class="cls-4" x="95.37" y="-3.14" width="87" height="0.75" transform="translate(106.06 161.44) rotate(-45)"/><line class="cls-1" x1="230.76" y1="28.23" x2="169.24" y2="89.75"/><rect class="cls-1" x="96.92" y="-3.03" width="87" height="3.63" transform="translate(105.42 162.99) rotate(-45)"/><rect class="cls-4" x="97.93" y="-0.57" width="87" height="0.75" transform="translate(105 164.01) rotate(-45)"/><line class="cls-1" x1="233.32" y1="30.8" x2="171.81" y2="92.32"/><rect class="cls-1" x="99.48" y="-0.46" width="87" height="3.63" transform="translate(104.36 165.56) rotate(-45)"/><rect class="cls-4" x="100.5" y="2" width="87" height="0.75" transform="translate(103.93 166.58) rotate(-45)"/><line class="cls-1" x1="235.89" y1="33.37" x2="174.37" y2="94.89"/><rect class="cls-1" x="102.05" y="2.1" width="87" height="3.63" transform="translate(103.29 168.13) rotate(-45)"/><rect class="cls-4" x="103.07" y="4.56" width="87" height="0.75" transform="translate(102.87 169.14) rotate(-45)"/><line class="cls-1" x1="238.46" y1="35.94" x2="176.94" y2="97.45"/><rect class="cls-1" x="104.62" y="4.67" width="87" height="3.63" transform="translate(102.23 170.69) rotate(-45)"/><rect class="cls-4" x="105.63" y="7.13" width="87" height="0.75" transform="translate(101.81 171.71) rotate(-45)"/><line class="cls-1" x1="241.02" y1="38.5" x2="179.51" y2="100.02"/><rect class="cls-1" x="107.18" y="7.24" width="87" height="3.63" transform="translate(101.17 173.26) rotate(-45)"/><rect class="cls-4" x="108.2" y="9.7" width="87" height="0.75" transform="translate(100.74 174.28) rotate(-45)"/><line class="cls-1" x1="243.59" y1="41.07" x2="182.07" y2="102.59"/><rect class="cls-1" x="109.75" y="9.8" width="87" height="3.63" transform="translate(100.1 175.83) rotate(-45)"/><rect class="cls-4" x="110.77" y="12.26" width="87" height="0.75" transform="translate(99.68 176.84) rotate(-45)"/><line class="cls-1" x1="246.16" y1="43.64" x2="184.64" y2="105.15"/><rect class="cls-1" x="112.32" y="12.37" width="87" height="3.63" transform="translate(99.04 178.39) rotate(-45)"/><rect class="cls-4" x="113.33" y="14.83" width="87" height="0.75" transform="translate(98.62 179.41) rotate(-45)"/><line class="cls-1" x1="248.72" y1="46.2" x2="187.21" y2="107.72"/><rect class="cls-1" x="114.88" y="14.94" width="87" height="3.63" transform="translate(97.98 180.96) rotate(-45)"/><rect class="cls-4" x="115.9" y="17.4" width="87" height="0.75" transform="translate(97.55 181.98) rotate(-45)"/><line class="cls-1" x1="251.29" y1="48.77" x2="189.77" y2="110.29"/><rect class="cls-1" x="117.45" y="17.5" width="87" height="3.63" transform="translate(96.91 183.53) rotate(-45)"/><rect class="cls-4" x="118.47" y="19.96" width="87" height="0.75" transform="translate(96.49 184.54) rotate(-45)"/><line class="cls-1" x1="253.86" y1="51.34" x2="192.34" y2="112.85"/><rect class="cls-1" x="120.02" y="20.07" width="87" height="3.63" transform="translate(95.85 186.09) rotate(-45)"/><rect class="cls-4" x="121.03" y="22.53" width="87" height="0.75" transform="translate(95.43 187.11) rotate(-45)"/><line class="cls-1" x1="256.43" y1="53.9" x2="194.91" y2="115.42"/><rect class="cls-1" x="122.58" y="22.64" width="87" height="3.63" transform="translate(94.79 188.66) rotate(-45)"/><rect class="cls-4" x="123.6" y="25.1" width="87" height="0.75" transform="translate(94.37 189.68) rotate(-45)"/><line class="cls-1" x1="258.99" y1="56.47" x2="197.47" y2="117.99"/><rect class="cls-1" x="125.15" y="25.2" width="87" height="3.63" transform="translate(93.72 191.23) rotate(-45)"/><rect class="cls-4" x="126.17" y="27.66" width="87" height="0.75" transform="translate(93.3 192.24) rotate(-45)"/><line class="cls-1" x1="261.56" y1="59.04" x2="200.04" y2="120.55"/><rect class="cls-1" x="127.72" y="27.77" width="87" height="3.63" transform="translate(92.66 193.79) rotate(-45)"/><rect class="cls-4" x="128.73" y="30.23" width="87" height="0.75" transform="translate(92.24 194.81) rotate(-45)"/><line class="cls-1" x1="264.13" y1="61.6" x2="202.61" y2="123.12"/><rect class="cls-1" x="130.28" y="30.34" width="87" height="3.63" transform="translate(91.6 196.36) rotate(-45)"/><rect class="cls-4" x="131.3" y="32.8" width="87" height="0.75" transform="translate(91.18 197.38) rotate(-45)"/><line class="cls-1" x1="266.69" y1="64.17" x2="205.17" y2="125.69"/><rect class="cls-1" x="132.85" y="32.91" width="87" height="3.63" transform="translate(90.53 198.93) rotate(-45)"/><rect class="cls-4" x="133.87" y="35.36" width="87" height="0.75" transform="translate(90.11 199.94) rotate(-45)"/><line class="cls-1" x1="269.26" y1="66.74" x2="207.74" y2="128.26"/><rect class="cls-1" x="135.42" y="35.47" width="87" height="3.63" transform="translate(89.47 201.49) rotate(-45)"/><rect class="cls-4" x="136.44" y="37.93" width="87" height="0.75" transform="translate(89.05 202.51) rotate(-45)"/><line class="cls-1" x1="271.83" y1="69.3" x2="210.31" y2="130.82"/><rect class="cls-1" x="-33.91" y="-10.82" width="87" height="3.63" transform="translate(72.61 68.21) rotate(-45)"/><rect class="cls-4" x="-32.89" y="-8.36" width="87" height="0.75" transform="translate(72.19 69.22) rotate(-45)"/><line class="cls-1" x1="102.5" y1="23.02" x2="40.98" y2="84.53"/><rect class="cls-1" x="-31.34" y="-8.25" width="87" height="3.63" transform="translate(71.54 70.77) rotate(-45)"/><rect class="cls-4" x="-30.32" y="-5.79" width="87" height="0.75" transform="translate(71.12 71.79) rotate(-45)"/><line class="cls-1" x1="105.07" y1="25.58" x2="43.55" y2="87.1"/><rect class="cls-1" x="-28.77" y="-5.68" width="87" height="3.63" transform="translate(70.48 73.34) rotate(-45)"/><rect class="cls-4" x="-27.75" y="-3.22" width="87" height="0.75" transform="translate(70.06 74.36) rotate(-45)"/><line class="cls-1" x1="107.64" y1="28.15" x2="46.12" y2="89.67"/><rect class="cls-1" x="-26.21" y="-3.11" width="87" height="3.63" transform="translate(69.42 75.91) rotate(-45)"/><rect class="cls-4" x="-25.19" y="-0.66" width="87" height="0.75" transform="translate(69 76.92) rotate(-45)"/><line class="cls-1" x1="110.2" y1="30.72" x2="48.68" y2="92.24"/><rect class="cls-1" x="-23.64" y="-0.55" width="87" height="3.63" transform="translate(68.35 78.47) rotate(-45)"/><rect class="cls-4" x="-22.62" y="1.91" width="87" height="0.75" transform="translate(67.93 79.49) rotate(-45)"/><line class="cls-1" x1="112.77" y1="33.28" x2="51.25" y2="94.8"/><rect class="cls-1" x="-21.07" y="2.02" width="87" height="3.63" transform="translate(67.29 81.04) rotate(-45)"/><rect class="cls-4" x="-20.05" y="4.48" width="87" height="0.75" transform="translate(66.87 82.06) rotate(-45)"/><line class="cls-1" x1="115.34" y1="35.85" x2="53.82" y2="97.37"/><rect class="cls-1" x="-18.51" y="4.59" width="87" height="3.63" transform="translate(66.23 83.61) rotate(-45)"/><rect class="cls-4" x="-17.49" y="7.04" width="87" height="0.75" transform="translate(65.81 84.63) rotate(-45)"/><line class="cls-1" x1="117.9" y1="38.42" x2="56.38" y2="99.94"/><rect class="cls-1" x="-15.94" y="7.15" width="87" height="3.63" transform="translate(65.16 86.17) rotate(-45)"/><rect class="cls-4" x="-14.92" y="9.61" width="87" height="0.75" transform="translate(64.74 87.19) rotate(-45)"/><line class="cls-1" x1="120.47" y1="40.98" x2="58.95" y2="102.5"/><rect class="cls-1" x="-13.37" y="9.72" width="87" height="3.63" transform="translate(64.1 88.74) rotate(-45)"/><rect class="cls-4" x="-12.35" y="12.18" width="87" height="0.75" transform="translate(63.68 89.76) rotate(-45)"/><line class="cls-1" x1="123.04" y1="43.55" x2="61.52" y2="105.07"/><rect class="cls-1" x="-10.81" y="12.29" width="87" height="3.63" transform="translate(63.04 91.31) rotate(-45)"/><rect class="cls-4" x="-9.79" y="14.74" width="87" height="0.75" transform="translate(62.62 92.33) rotate(-45)"/><line class="cls-1" x1="125.6" y1="46.12" x2="64.09" y2="107.64"/><rect class="cls-1" x="-8.24" y="14.85" width="87" height="3.63" transform="translate(61.97 93.87) rotate(-45)"/><rect class="cls-4" x="-7.22" y="17.31" width="87" height="0.75" transform="translate(61.55 94.89) rotate(-45)"/><line class="cls-1" x1="128.17" y1="48.68" x2="66.65" y2="110.2"/><rect class="cls-1" x="-5.67" y="17.42" width="87" height="3.63" transform="translate(60.91 96.44) rotate(-45)"/><rect class="cls-4" x="-4.65" y="19.88" width="87" height="0.75" transform="translate(60.49 97.46) rotate(-45)"/><line class="cls-1" x1="130.74" y1="51.25" x2="69.22" y2="112.77"/><rect class="cls-1" x="-3.11" y="19.99" width="87" height="3.63" transform="translate(59.85 99.01) rotate(-45)"/><rect class="cls-4" x="-2.09" y="22.44" width="87" height="0.75" transform="translate(59.43 100.03) rotate(-45)"/><line class="cls-1" x1="133.3" y1="53.82" x2="71.79" y2="115.34"/><rect class="cls-1" x="-0.54" y="22.55" width="87" height="3.63" transform="translate(58.79 101.57) rotate(-45)"/><rect class="cls-4" x="0.48" y="25.01" width="87" height="0.75" transform="translate(58.36 102.59) rotate(-45)"/><line class="cls-1" x1="135.87" y1="56.38" x2="74.35" y2="117.9"/><rect class="cls-1" x="2.03" y="25.12" width="87" height="3.63" transform="translate(57.72 104.14) rotate(-45)"/><rect class="cls-4" x="3.05" y="27.58" width="87" height="0.75" transform="translate(57.3 105.16) rotate(-45)"/><line class="cls-1" x1="138.44" y1="58.95" x2="76.92" y2="120.47"/><rect class="cls-1" x="4.6" y="27.69" width="87" height="3.63" transform="translate(56.66 106.71) rotate(-45)"/><rect class="cls-4" x="5.61" y="30.15" width="87" height="0.75" transform="translate(56.24 107.73) rotate(-45)"/><line class="cls-1" x1="141" y1="61.52" x2="79.49" y2="123.04"/><rect class="cls-1" x="7.16" y="30.25" width="87" height="3.63" transform="translate(55.6 109.28) rotate(-45)"/><rect class="cls-4" x="8.18" y="32.71" width="87" height="0.75" transform="translate(55.17 110.29) rotate(-45)"/><line class="cls-1" x1="143.57" y1="64.09" x2="82.05" y2="125.6"/><rect class="cls-1" x="9.73" y="32.82" width="87" height="3.63" transform="translate(54.53 111.84) rotate(-45)"/><rect class="cls-4" x="10.75" y="35.28" width="87" height="0.75" transform="translate(54.11 112.86) rotate(-45)"/><line class="cls-1" x1="146.14" y1="66.65" x2="84.62" y2="128.17"/><rect class="cls-1" x="12.3" y="35.39" width="87" height="3.63" transform="translate(53.47 114.41) rotate(-45)"/><rect class="cls-4" x="13.31" y="37.85" width="87" height="0.75" transform="translate(53.05 115.43) rotate(-45)"/><line class="cls-1" x1="148.7" y1="69.22" x2="87.19" y2="130.74"/><rect class="cls-1" x="14.86" y="37.95" width="87" height="3.63" transform="translate(52.41 116.98) rotate(-45)"/><rect class="cls-4" x="15.88" y="40.41" width="87" height="0.75" transform="translate(51.98 117.99) rotate(-45)"/><line class="cls-1" x1="151.27" y1="71.79" x2="89.75" y2="133.3"/><rect class="cls-1" x="17.43" y="40.52" width="87" height="3.63" transform="translate(51.34 119.54) rotate(-45)"/><rect class="cls-4" x="18.45" y="42.98" width="87" height="0.75" transform="translate(50.92 120.56) rotate(-45)"/><line class="cls-1" x1="153.84" y1="74.35" x2="92.32" y2="135.87"/><rect class="cls-1" x="20" y="43.09" width="87" height="3.63" transform="translate(50.28 122.11) rotate(-45)"/><rect class="cls-4" x="21.01" y="45.55" width="87" height="0.75" transform="translate(49.86 123.13) rotate(-45)"/><line class="cls-1" x1="156.4" y1="76.92" x2="94.89" y2="138.44"/><rect class="cls-1" x="22.56" y="45.65" width="87" height="3.63" transform="translate(49.22 124.68) rotate(-45)"/><rect class="cls-4" x="23.58" y="48.11" width="87" height="0.75" transform="translate(48.79 125.69) rotate(-45)"/><line class="cls-1" x1="158.97" y1="79.49" x2="97.45" y2="141"/><rect class="cls-1" x="25.13" y="48.22" width="87" height="3.63" transform="translate(48.15 127.24) rotate(-45)"/><rect class="cls-4" x="26.15" y="50.68" width="87" height="0.75" transform="translate(47.73 128.26) rotate(-45)"/><line class="cls-1" x1="161.54" y1="82.05" x2="100.02" y2="143.57"/><rect class="cls-1" x="27.7" y="50.79" width="87" height="3.63" transform="translate(47.09 129.81) rotate(-45)"/><rect class="cls-4" x="28.71" y="53.25" width="87" height="0.75" transform="translate(46.67 130.83) rotate(-45)"/><line class="cls-1" x1="164.11" y1="84.62" x2="102.59" y2="146.14"/><rect class="cls-1" x="30.26" y="53.35" width="87" height="3.63" transform="translate(46.03 132.38) rotate(-45)"/><rect class="cls-4" x="31.28" y="55.81" width="87" height="0.75" transform="translate(45.61 133.39) rotate(-45)"/><line class="cls-1" x1="166.67" y1="87.19" x2="105.15" y2="148.7"/><rect class="cls-1" x="32.83" y="55.92" width="87" height="3.63" transform="translate(44.96 134.94) rotate(-45)"/><rect class="cls-4" x="33.85" y="58.38" width="87" height="0.75" transform="translate(44.54 135.96) rotate(-45)"/><line class="cls-1" x1="169.24" y1="89.75" x2="107.72" y2="151.27"/><rect class="cls-1" x="35.4" y="58.49" width="87" height="3.63" transform="translate(43.9 137.51) rotate(-45)"/><rect class="cls-4" x="36.42" y="60.95" width="87" height="0.75" transform="translate(43.48 138.53) rotate(-45)"/><line class="cls-1" x1="171.81" y1="92.32" x2="110.29" y2="153.84"/><rect class="cls-1" x="37.96" y="61.06" width="87" height="3.63" transform="translate(42.84 140.08) rotate(-45)"/><rect class="cls-4" x="38.98" y="63.51" width="87" height="0.75" transform="translate(42.42 141.09) rotate(-45)"/><line class="cls-1" x1="174.37" y1="94.89" x2="112.85" y2="156.4"/><rect class="cls-1" x="40.53" y="63.62" width="87" height="3.63" transform="translate(41.77 142.64) rotate(-45)"/><rect class="cls-4" x="41.55" y="66.08" width="87" height="0.75" transform="translate(41.35 143.66) rotate(-45)"/><line class="cls-1" x1="176.94" y1="97.45" x2="115.42" y2="158.97"/><rect class="cls-1" x="43.1" y="66.19" width="87" height="3.63" transform="translate(40.71 145.21) rotate(-45)"/><rect class="cls-4" x="44.12" y="68.65" width="87" height="0.75" transform="translate(40.29 146.23) rotate(-45)"/><line class="cls-1" x1="179.51" y1="100.02" x2="117.99" y2="161.54"/><rect class="cls-1" x="45.66" y="68.76" width="87" height="3.63" transform="translate(39.65 147.78) rotate(-45)"/><rect class="cls-4" x="46.68" y="71.21" width="87" height="0.75" transform="translate(39.23 148.8) rotate(-45)"/><line class="cls-1" x1="182.07" y1="102.59" x2="120.55" y2="164.11"/><rect class="cls-1" x="48.23" y="71.32" width="87" height="3.63" transform="translate(38.58 150.34) rotate(-45)"/><rect class="cls-4" x="49.25" y="73.78" width="87" height="0.75" transform="translate(38.16 151.36) rotate(-45)"/><line class="cls-1" x1="184.64" y1="105.15" x2="123.12" y2="166.67"/><rect class="cls-1" x="50.8" y="73.89" width="87" height="3.63" transform="translate(37.52 152.91) rotate(-45)"/><rect class="cls-4" x="51.82" y="76.35" width="87" height="0.75" transform="translate(37.1 153.93) rotate(-45)"/><line class="cls-1" x1="187.21" y1="107.72" x2="125.69" y2="169.24"/><rect class="cls-1" x="53.36" y="76.46" width="87" height="3.63" transform="translate(36.46 155.48) rotate(-45)"/><rect class="cls-4" x="54.38" y="78.91" width="87" height="0.75" transform="translate(36.04 156.5) rotate(-45)"/><line class="cls-1" x1="189.77" y1="110.29" x2="128.26" y2="171.81"/><rect class="cls-1" x="55.93" y="79.02" width="87" height="3.63" transform="translate(35.39 158.04) rotate(-45)"/><rect class="cls-4" x="56.95" y="81.48" width="87" height="0.75" transform="translate(34.97 159.06) rotate(-45)"/><line class="cls-1" x1="192.34" y1="112.85" x2="130.82" y2="174.37"/><rect class="cls-1" x="58.5" y="81.59" width="87" height="3.63" transform="translate(34.33 160.61) rotate(-45)"/><rect class="cls-4" x="59.52" y="84.05" width="87" height="0.75" transform="translate(33.91 161.63) rotate(-45)"/><line class="cls-1" x1="194.91" y1="115.42" x2="133.39" y2="176.94"/><rect class="cls-1" x="61.06" y="84.16" width="87" height="3.63" transform="translate(33.27 163.18) rotate(-45)"/><rect class="cls-4" x="62.08" y="86.61" width="87" height="0.75" transform="translate(32.85 164.2) rotate(-45)"/><line class="cls-1" x1="197.47" y1="117.99" x2="135.96" y2="179.51"/><rect class="cls-1" x="63.63" y="86.72" width="87" height="3.63" transform="translate(32.21 165.74) rotate(-45)"/><rect class="cls-4" x="64.65" y="89.18" width="87" height="0.75" transform="translate(31.78 166.76) rotate(-45)"/><line class="cls-1" x1="200.04" y1="120.55" x2="138.52" y2="182.07"/><rect class="cls-1" x="66.2" y="89.29" width="87" height="3.63" transform="translate(31.14 168.31) rotate(-45)"/><rect class="cls-4" x="67.22" y="91.75" width="87" height="0.75" transform="translate(30.72 169.33) rotate(-45)"/><line class="cls-1" x1="202.61" y1="123.12" x2="141.09" y2="184.64"/><rect class="cls-1" x="68.77" y="91.86" width="87" height="3.63" transform="translate(30.08 170.88) rotate(-45)"/><rect class="cls-4" x="69.78" y="94.32" width="87" height="0.75" transform="translate(29.66 171.9) rotate(-45)"/><line class="cls-1" x1="205.17" y1="125.69" x2="143.66" y2="187.21"/><rect class="cls-1" x="71.33" y="94.42" width="87" height="3.63" transform="translate(29.02 173.45) rotate(-45)"/><rect class="cls-4" x="72.35" y="96.88" width="87" height="0.75" transform="translate(28.59 174.46) rotate(-45)"/><line class="cls-1" x1="207.74" y1="128.26" x2="146.22" y2="189.77"/><rect class="cls-1" x="73.9" y="96.99" width="87" height="3.63" transform="translate(27.95 176.01) rotate(-45)"/><rect class="cls-4" x="74.92" y="99.45" width="87" height="0.75" transform="translate(27.53 177.03) rotate(-45)"/><line class="cls-1" x1="210.31" y1="130.82" x2="148.79" y2="192.34"/><rect class="cls-1" x="76.47" y="99.56" width="87" height="3.63" transform="translate(26.89 178.58) rotate(-45)"/><rect class="cls-4" x="77.48" y="102.02" width="87" height="0.75" transform="translate(26.47 179.6) rotate(-45)"/><line class="cls-1" x1="212.87" y1="133.39" x2="151.36" y2="194.91"/><rect class="cls-1" x="79.03" y="102.12" width="87" height="3.63" transform="translate(25.83 181.15) rotate(-45)"/><rect class="cls-4" x="80.05" y="104.58" width="87" height="0.75" transform="translate(25.4 182.16) rotate(-45)"/><line class="cls-1" x1="215.44" y1="135.96" x2="153.92" y2="197.47"/><rect class="cls-1" x="81.6" y="104.69" width="87" height="3.63" transform="translate(24.76 183.71) rotate(-45)"/><rect class="cls-4" x="82.62" y="107.15" width="87" height="0.75" transform="translate(24.34 184.73) rotate(-45)"/><line class="cls-1" x1="218.01" y1="138.52" x2="156.49" y2="200.04"/><rect class="cls-1" x="84.17" y="107.26" width="87" height="3.63" transform="translate(23.7 186.28) rotate(-45)"/><rect class="cls-4" x="85.18" y="109.72" width="87" height="0.75" transform="translate(23.28 187.3) rotate(-45)"/><line class="cls-1" x1="220.57" y1="141.09" x2="159.06" y2="202.61"/><rect class="cls-1" x="86.73" y="109.82" width="87" height="3.63" transform="translate(22.64 188.85) rotate(-45)"/><rect class="cls-4" x="87.75" y="112.28" width="87" height="0.75" transform="translate(22.21 189.86) rotate(-45)"/><line class="cls-1" x1="223.14" y1="143.66" x2="161.62" y2="205.17"/><rect class="cls-1" x="89.3" y="112.39" width="87" height="3.63" transform="translate(21.57 191.41) rotate(-45)"/><rect class="cls-4" x="90.32" y="114.85" width="87" height="0.75" transform="translate(21.15 192.43) rotate(-45)"/><line class="cls-1" x1="225.71" y1="146.22" x2="164.19" y2="207.74"/><rect class="cls-1" x="91.87" y="114.96" width="87" height="3.63" transform="translate(20.51 193.98) rotate(-45)"/><rect class="cls-4" x="92.88" y="117.42" width="87" height="0.75" transform="translate(20.09 195) rotate(-45)"/><line class="cls-1" x1="228.28" y1="148.79" x2="166.76" y2="210.31"/><rect class="cls-1" x="94.43" y="117.52" width="87" height="3.63" transform="translate(19.45 196.55) rotate(-45)"/><rect class="cls-4" x="95.45" y="119.98" width="87" height="0.75" transform="translate(19.03 197.56) rotate(-45)"/><line class="cls-1" x1="230.84" y1="151.36" x2="169.32" y2="212.87"/><rect class="cls-1" x="97" y="120.09" width="87" height="3.63" transform="translate(18.38 199.11) rotate(-45)"/><rect class="cls-4" x="98.02" y="122.55" width="87" height="0.75" transform="translate(17.96 200.13) rotate(-45)"/><line class="cls-1" x1="233.41" y1="153.92" x2="171.89" y2="215.44"/><rect class="cls-1" x="99.57" y="122.66" width="87" height="3.63" transform="translate(17.32 201.68) rotate(-45)"/><rect class="cls-4" x="100.58" y="125.12" width="87" height="0.75" transform="translate(16.9 202.7) rotate(-45)"/><line class="cls-1" x1="235.98" y1="156.49" x2="174.46" y2="218.01"/><rect class="cls-1" x="102.13" y="125.23" width="87" height="3.63" transform="translate(16.26 204.25) rotate(-45)"/><rect class="cls-4" x="103.15" y="127.68" width="87" height="0.75" transform="translate(15.84 205.26) rotate(-45)"/><line class="cls-1" x1="238.54" y1="159.06" x2="177.02" y2="220.57"/><rect class="cls-1" x="104.7" y="127.79" width="87" height="3.63" transform="translate(15.19 206.81) rotate(-45)"/><rect class="cls-4" x="105.72" y="130.25" width="87" height="0.75" transform="translate(14.77 207.83) rotate(-45)"/><line class="cls-1" x1="241.11" y1="161.62" x2="179.59" y2="223.14"/><rect class="cls-1" x="107.27" y="130.36" width="87" height="3.63" transform="translate(14.13 209.38) rotate(-45)"/><rect class="cls-4" x="108.29" y="132.82" width="87" height="0.75" transform="translate(13.71 210.4) rotate(-45)"/><line class="cls-1" x1="243.68" y1="164.19" x2="182.16" y2="225.71"/><rect class="cls-1" x="109.83" y="132.93" width="87" height="3.63" transform="translate(13.07 211.95) rotate(-45)"/><rect class="cls-4" x="110.85" y="135.38" width="87" height="0.75" transform="translate(12.65 212.97) rotate(-45)"/><line class="cls-1" x1="246.24" y1="166.76" x2="184.72" y2="228.28"/><rect class="cls-1" x="112.4" y="135.49" width="87" height="3.63" transform="translate(12 214.51) rotate(-45)"/><rect class="cls-4" x="113.42" y="137.95" width="87" height="0.75" transform="translate(11.58 215.53) rotate(-45)"/><line class="cls-1" x1="248.81" y1="169.32" x2="187.29" y2="230.84"/><rect class="cls-1" x="114.97" y="138.06" width="87" height="3.63" transform="translate(10.94 217.08) rotate(-45)"/><rect class="cls-4" x="115.99" y="140.52" width="87" height="0.75" transform="translate(10.52 218.1) rotate(-45)"/><line class="cls-1" x1="251.38" y1="171.89" x2="189.86" y2="233.41"/><rect class="cls-1" x="117.53" y="140.63" width="87" height="3.63" transform="translate(9.88 219.65) rotate(-45)"/><rect class="cls-4" x="118.55" y="143.08" width="87" height="0.75" transform="translate(9.46 220.67) rotate(-45)"/><line class="cls-1" x1="253.94" y1="174.46" x2="192.42" y2="235.98"/><rect class="cls-1" x="120.1" y="143.19" width="87" height="3.63" transform="translate(8.81 222.21) rotate(-45)"/><rect class="cls-4" x="121.12" y="145.65" width="87" height="0.75" transform="translate(8.39 223.23) rotate(-45)"/><line class="cls-1" x1="256.51" y1="177.02" x2="194.99" y2="238.54"/><rect class="cls-1" x="122.67" y="145.76" width="87" height="3.63" transform="translate(7.75 224.78) rotate(-45)"/><rect class="cls-4" x="123.69" y="148.22" width="87" height="0.75" transform="translate(7.33 225.8) rotate(-45)"/><line class="cls-1" x1="259.08" y1="179.59" x2="197.56" y2="241.11"/><rect class="cls-1" x="125.23" y="148.33" width="87" height="3.63" transform="translate(6.69 227.35) rotate(-45)"/><rect class="cls-4" x="126.25" y="150.78" width="87" height="0.75" transform="translate(6.27 228.37) rotate(-45)"/><line class="cls-1" x1="261.64" y1="182.16" x2="200.13" y2="243.68"/><rect class="cls-1" x="127.8" y="150.89" width="87" height="3.63" transform="translate(5.63 229.91) rotate(-45)"/><rect class="cls-4" x="128.82" y="153.35" width="87" height="0.75" transform="translate(5.2 230.93) rotate(-45)"/><line class="cls-1" x1="264.21" y1="184.72" x2="202.69" y2="246.24"/><rect class="cls-1" x="130.37" y="153.46" width="87" height="3.63" transform="translate(4.56 232.48) rotate(-45)"/><rect class="cls-4" x="131.39" y="155.92" width="87" height="0.75" transform="translate(4.14 233.5) rotate(-45)"/><line class="cls-1" x1="266.78" y1="187.29" x2="205.26" y2="248.81"/><rect class="cls-1" x="132.94" y="156.03" width="87" height="3.63" transform="translate(3.5 235.05) rotate(-45)"/><rect class="cls-4" x="133.95" y="158.49" width="87" height="0.75" transform="translate(3.08 236.07) rotate(-45)"/><line class="cls-1" x1="269.34" y1="189.86" x2="207.83" y2="251.38"/><rect class="cls-1" x="135.5" y="158.59" width="87" height="3.63" transform="translate(2.44 237.61) rotate(-45)"/><rect class="cls-4" x="136.52" y="161.05" width="87" height="0.75" transform="translate(2.01 238.63) rotate(-45)"/><line class="cls-1" x1="271.91" y1="192.42" x2="210.39" y2="253.94"/><rect class="cls-1" x="-74.89" y="71.24" width="87" height="3.63" transform="translate(2.58 63.26) rotate(-45)"/><rect class="cls-4" x="-73.87" y="73.7" width="87" height="0.75" transform="translate(2.16 64.28) rotate(-45)"/><line class="cls-1" x1="61.52" y1="105.07" y2="166.59"/><rect class="cls-1" x="-72.32" y="73.8" width="87" height="3.63" transform="translate(1.52 65.83) rotate(-45)"/><rect class="cls-4" x="-71.31" y="76.26" width="87" height="0.75" transform="translate(1.1 66.84) rotate(-45)"/><line class="cls-1" x1="64.09" y1="107.64" x2="2.57" y2="169.15"/><rect class="cls-1" x="-69.76" y="76.37" width="87" height="3.63" transform="translate(0.46 68.39) rotate(-45)"/><rect class="cls-4" x="-68.74" y="78.83" width="87" height="0.75" transform="translate(0.03 69.41) rotate(-45)"/><line class="cls-1" x1="66.65" y1="110.2" x2="5.13" y2="171.72"/><rect class="cls-1" x="-67.19" y="78.94" width="87" height="3.63" transform="translate(-0.61 70.96) rotate(-45)"/><rect class="cls-4" x="-66.17" y="81.4" width="87" height="0.75" transform="translate(-1.03 71.98) rotate(-45)"/><line class="cls-1" x1="69.22" y1="112.77" x2="7.7" y2="174.29"/><rect class="cls-1" x="-64.62" y="81.5" width="87" height="3.63" transform="translate(-1.67 73.53) rotate(-45)"/><rect class="cls-4" x="-63.61" y="83.96" width="87" height="0.75" transform="translate(-2.09 74.54) rotate(-45)"/><line class="cls-1" x1="71.79" y1="115.34" x2="10.27" y2="176.85"/><rect class="cls-1" x="-62.06" y="84.07" width="87" height="3.63" transform="translate(-2.73 76.09) rotate(-45)"/><rect class="cls-4" x="-61.04" y="86.53" width="87" height="0.75" transform="translate(-3.15 77.11) rotate(-45)"/><line class="cls-1" x1="74.35" y1="117.9" x2="12.83" y2="179.42"/><rect class="cls-1" x="-59.49" y="86.64" width="87" height="3.63" transform="translate(-3.8 78.66) rotate(-45)"/><rect class="cls-4" x="-58.47" y="89.1" width="87" height="0.75" transform="translate(-4.22 79.68) rotate(-45)"/><line class="cls-1" x1="76.92" y1="120.47" x2="15.4" y2="181.99"/><rect class="cls-1" x="-56.92" y="89.21" width="87" height="3.63" transform="translate(-4.86 81.23) rotate(-45)"/><rect class="cls-4" x="-55.9" y="91.66" width="87" height="0.75" transform="translate(-5.28 82.24) rotate(-45)"/><line class="cls-1" x1="79.49" y1="123.04" x2="17.97" y2="184.55"/><rect class="cls-1" x="-54.36" y="91.77" width="87" height="3.63" transform="translate(-5.92 83.79) rotate(-45)"/><rect class="cls-4" x="-53.34" y="94.23" width="87" height="0.75" transform="translate(-6.34 84.81) rotate(-45)"/><line class="cls-1" x1="82.05" y1="125.6" x2="20.53" y2="187.12"/><rect class="cls-1" x="-51.79" y="94.34" width="87" height="3.63" transform="translate(-6.99 86.36) rotate(-45)"/><rect class="cls-4" x="-50.77" y="96.8" width="87" height="0.75" transform="translate(-7.41 87.38) rotate(-45)"/><line class="cls-1" x1="84.62" y1="128.17" x2="23.1" y2="189.69"/><rect class="cls-1" x="-49.22" y="96.91" width="87" height="3.63" transform="translate(-8.05 88.93) rotate(-45)"/><rect class="cls-4" x="-48.2" y="99.36" width="87" height="0.75" transform="translate(-8.47 89.95) rotate(-45)"/><line class="cls-1" x1="87.19" y1="130.74" x2="25.67" y2="192.26"/><rect class="cls-1" x="-46.66" y="99.47" width="87" height="3.63" transform="translate(-9.11 91.49) rotate(-45)"/><rect class="cls-4" x="-45.64" y="101.93" width="87" height="0.75" transform="translate(-9.53 92.51) rotate(-45)"/><line class="cls-1" x1="89.75" y1="133.3" x2="28.23" y2="194.82"/><rect class="cls-1" x="-44.09" y="102.04" width="87" height="3.63" transform="translate(-10.18 94.06) rotate(-45)"/><rect class="cls-4" x="-43.07" y="104.5" width="87" height="0.75" transform="translate(-10.6 95.08) rotate(-45)"/><line class="cls-1" x1="92.32" y1="135.87" x2="30.8" y2="197.39"/><rect class="cls-1" x="-41.52" y="104.61" width="87" height="3.63" transform="translate(-11.24 96.63) rotate(-45)"/><rect class="cls-4" x="-40.5" y="107.06" width="87" height="0.75" transform="translate(-11.66 97.65) rotate(-45)"/><line class="cls-1" x1="94.89" y1="138.44" x2="33.37" y2="199.96"/><rect class="cls-1" x="-38.96" y="107.17" width="87" height="3.63" transform="translate(-12.3 99.19) rotate(-45)"/><rect class="cls-4" x="-37.94" y="109.63" width="87" height="0.75" transform="translate(-12.72 100.21) rotate(-45)"/><line class="cls-1" x1="97.45" y1="141" x2="35.94" y2="202.52"/><rect class="cls-1" x="-36.39" y="109.74" width="87" height="3.63" transform="translate(-13.36 101.76) rotate(-45)"/><rect class="cls-4" x="-35.37" y="112.2" width="87" height="0.75" transform="translate(-13.79 102.78) rotate(-45)"/><line class="cls-1" x1="100.02" y1="143.57" x2="38.5" y2="205.09"/><rect class="cls-1" x="-33.82" y="112.31" width="87" height="3.63" transform="translate(-14.43 104.33) rotate(-45)"/><rect class="cls-4" x="-32.8" y="114.76" width="87" height="0.75" transform="translate(-14.85 105.35) rotate(-45)"/><line class="cls-1" x1="102.59" y1="146.14" x2="41.07" y2="207.66"/><rect class="cls-1" x="-31.26" y="114.87" width="87" height="3.63" transform="translate(-15.49 106.89) rotate(-45)"/><rect class="cls-4" x="-30.24" y="117.33" width="87" height="0.75" transform="translate(-15.91 107.91) rotate(-45)"/><line class="cls-1" x1="105.15" y1="148.7" x2="43.64" y2="210.22"/><rect class="cls-1" x="-28.69" y="117.44" width="87" height="3.63" transform="translate(-16.55 109.46) rotate(-45)"/><rect class="cls-4" x="-27.67" y="119.9" width="87" height="0.75" transform="translate(-16.98 110.48) rotate(-45)"/><line class="cls-1" x1="107.72" y1="151.27" x2="46.2" y2="212.79"/><rect class="cls-1" x="-26.12" y="120.01" width="87" height="3.63" transform="translate(-17.62 112.03) rotate(-45)"/><rect class="cls-4" x="-25.1" y="122.46" width="87" height="0.75" transform="translate(-18.04 113.05) rotate(-45)"/><line class="cls-1" x1="110.29" y1="153.84" x2="48.77" y2="215.36"/><rect class="cls-1" x="-23.55" y="122.57" width="87" height="3.63" transform="translate(-18.68 114.59) rotate(-45)"/><rect class="cls-4" x="-22.54" y="125.03" width="87" height="0.75" transform="translate(-19.1 115.61) rotate(-45)"/><line class="cls-1" x1="112.85" y1="156.4" x2="51.34" y2="217.92"/><rect class="cls-1" x="-20.99" y="125.14" width="87" height="3.63" transform="translate(-19.74 117.16) rotate(-45)"/><rect class="cls-4" x="-19.97" y="127.6" width="87" height="0.75" transform="translate(-20.17 118.18) rotate(-45)"/><line class="cls-1" x1="115.42" y1="158.97" x2="53.9" y2="220.49"/><rect class="cls-1" x="-18.42" y="127.71" width="87" height="3.63" transform="translate(-20.81 119.73) rotate(-45)"/><rect class="cls-4" x="-17.4" y="130.17" width="87" height="0.75" transform="translate(-21.23 120.75) rotate(-45)"/><line class="cls-1" x1="117.99" y1="161.54" x2="56.47" y2="223.06"/><rect class="cls-1" x="-15.85" y="130.27" width="87" height="3.63" transform="translate(-21.87 122.3) rotate(-45)"/><rect class="cls-4" x="-14.84" y="132.73" width="87" height="0.75" transform="translate(-22.29 123.31) rotate(-45)"/><line class="cls-1" x1="120.55" y1="164.11" x2="59.04" y2="225.62"/><rect class="cls-1" x="-13.29" y="132.84" width="87" height="3.63" transform="translate(-22.93 124.86) rotate(-45)"/><rect class="cls-4" x="-12.27" y="135.3" width="87" height="0.75" transform="translate(-23.36 125.88) rotate(-45)"/><line class="cls-1" x1="123.12" y1="166.67" x2="61.6" y2="228.19"/><rect class="cls-1" x="-10.72" y="135.41" width="87" height="3.63" transform="translate(-24 127.43) rotate(-45)"/><rect class="cls-4" x="-9.7" y="137.87" width="87" height="0.75" transform="translate(-24.42 128.45) rotate(-45)"/><line class="cls-1" x1="125.69" y1="169.24" x2="64.17" y2="230.76"/><rect class="cls-1" x="-8.15" y="137.97" width="87" height="3.63" transform="translate(-25.06 130) rotate(-45)"/><rect class="cls-4" x="-7.14" y="140.43" width="87" height="0.75" transform="translate(-25.48 131.01) rotate(-45)"/><line class="cls-1" x1="128.26" y1="171.81" x2="66.74" y2="233.32"/><rect class="cls-1" x="-5.59" y="140.54" width="87" height="3.63" transform="translate(-26.12 132.56) rotate(-45)"/><rect class="cls-4" x="-4.57" y="143" width="87" height="0.75" transform="translate(-26.55 133.58) rotate(-45)"/><line class="cls-1" x1="130.82" y1="174.37" x2="69.3" y2="235.89"/><rect class="cls-1" x="-3.02" y="143.11" width="87" height="3.63" transform="translate(-27.19 135.13) rotate(-45)"/><rect class="cls-4" x="-2" y="145.57" width="87" height="0.75" transform="translate(-27.61 136.15) rotate(-45)"/><line class="cls-1" x1="133.39" y1="176.94" x2="71.87" y2="238.46"/><rect class="cls-1" x="-0.45" y="145.67" width="87" height="3.63" transform="translate(-28.25 137.7) rotate(-45)"/><rect class="cls-4" x="0.56" y="148.13" width="87" height="0.75" transform="translate(-28.67 138.71) rotate(-45)"/><line class="cls-1" x1="135.96" y1="179.51" x2="74.44" y2="241.02"/><rect class="cls-1" x="2.11" y="148.24" width="87" height="3.63" transform="translate(-29.31 140.26) rotate(-45)"/><rect class="cls-4" x="3.13" y="150.7" width="87" height="0.75" transform="translate(-29.73 141.28) rotate(-45)"/><line class="cls-1" x1="138.52" y1="182.07" x2="77" y2="243.59"/><rect class="cls-1" x="4.68" y="150.81" width="87" height="3.63" transform="translate(-30.38 142.83) rotate(-45)"/><rect class="cls-4" x="5.7" y="153.27" width="87" height="0.75" transform="translate(-30.8 143.85) rotate(-45)"/><line class="cls-1" x1="141.09" y1="184.64" x2="79.57" y2="246.16"/><rect class="cls-1" x="7.25" y="153.38" width="87" height="3.63" transform="translate(-31.44 145.4) rotate(-45)"/><rect class="cls-4" x="8.27" y="155.83" width="87" height="0.75" transform="translate(-31.86 146.41) rotate(-45)"/><line class="cls-1" x1="143.66" y1="187.21" x2="82.14" y2="248.72"/><rect class="cls-1" x="9.81" y="155.94" width="87" height="3.63" transform="translate(-32.5 147.96) rotate(-45)"/><rect class="cls-4" x="10.83" y="158.4" width="87" height="0.75" transform="translate(-32.92 148.98) rotate(-45)"/><line class="cls-1" x1="146.22" y1="189.77" x2="84.7" y2="251.29"/><rect class="cls-1" x="12.38" y="158.51" width="87" height="3.63" transform="translate(-33.57 150.53) rotate(-45)"/><rect class="cls-4" x="13.4" y="160.97" width="87" height="0.75" transform="translate(-33.99 151.55) rotate(-45)"/><line class="cls-1" x1="148.79" y1="192.34" x2="87.27" y2="253.86"/><rect class="cls-1" x="14.95" y="161.08" width="87" height="3.63" transform="translate(-34.63 153.1) rotate(-45)"/><rect class="cls-4" x="15.97" y="163.53" width="87" height="0.75" transform="translate(-35.05 154.12) rotate(-45)"/><line class="cls-1" x1="151.36" y1="194.91" x2="89.84" y2="256.43"/><rect class="cls-1" x="17.51" y="163.64" width="87" height="3.63" transform="translate(-35.69 155.66) rotate(-45)"/><rect class="cls-4" x="18.53" y="166.1" width="87" height="0.75" transform="translate(-36.11 156.68) rotate(-45)"/><line class="cls-1" x1="153.92" y1="197.47" x2="92.4" y2="258.99"/><rect class="cls-1" x="20.08" y="166.21" width="87" height="3.63" transform="translate(-36.76 158.23) rotate(-45)"/><rect class="cls-4" x="21.1" y="168.67" width="87" height="0.75" transform="translate(-37.18 159.25) rotate(-45)"/><line class="cls-1" x1="156.49" y1="200.04" x2="94.97" y2="261.56"/><rect class="cls-1" x="22.65" y="168.78" width="87" height="3.63" transform="translate(-37.82 160.8) rotate(-45)"/><rect class="cls-4" x="23.67" y="171.23" width="87" height="0.75" transform="translate(-38.24 161.82) rotate(-45)"/><line class="cls-1" x1="159.06" y1="202.61" x2="97.54" y2="264.13"/><rect class="cls-1" x="25.21" y="171.34" width="87" height="3.63" transform="translate(-38.88 163.36) rotate(-45)"/><rect class="cls-4" x="26.23" y="173.8" width="87" height="0.75" transform="translate(-39.3 164.38) rotate(-45)"/><line class="cls-1" x1="161.62" y1="205.17" x2="100.11" y2="266.69"/><rect class="cls-1" x="27.78" y="173.91" width="87" height="3.63" transform="translate(-39.94 165.93) rotate(-45)"/><rect class="cls-4" x="28.8" y="176.37" width="87" height="0.75" transform="translate(-40.37 166.95) rotate(-45)"/><line class="cls-1" x1="164.19" y1="207.74" x2="102.67" y2="269.26"/><rect class="cls-1" x="30.35" y="176.48" width="87" height="3.63" transform="translate(-41.01 168.5) rotate(-45)"/><rect class="cls-4" x="31.37" y="178.93" width="87" height="0.75" transform="translate(-41.43 169.52) rotate(-45)"/><line class="cls-1" x1="166.76" y1="210.31" x2="105.24" y2="271.83"/><rect class="cls-1" x="32.91" y="179.04" width="87" height="3.63" transform="translate(-42.07 171.06) rotate(-45)"/><rect class="cls-4" x="33.93" y="181.5" width="87" height="0.75" transform="translate(-42.49 172.08) rotate(-45)"/><line class="cls-1" x1="169.32" y1="212.87" x2="107.81" y2="274.39"/><rect class="cls-1" x="35.48" y="181.61" width="87" height="3.63" transform="translate(-43.13 173.63) rotate(-45)"/><rect class="cls-4" x="36.5" y="184.07" width="87" height="0.75" transform="translate(-43.56 174.65) rotate(-45)"/><line class="cls-1" x1="171.89" y1="215.44" x2="110.37" y2="276.96"/><rect class="cls-1" x="38.05" y="184.18" width="87" height="3.63" transform="translate(-44.2 176.2) rotate(-45)"/><rect class="cls-4" x="39.07" y="186.63" width="87" height="0.75" transform="translate(-44.62 177.22) rotate(-45)"/><line class="cls-1" x1="174.46" y1="218.01" x2="112.94" y2="279.53"/><rect class="cls-1" x="40.62" y="186.74" width="87" height="3.63" transform="translate(-45.26 178.76) rotate(-45)"/><rect class="cls-4" x="41.63" y="189.2" width="87" height="0.75" transform="translate(-45.68 179.78) rotate(-45)"/><line class="cls-1" x1="177.02" y1="220.57" x2="115.51" y2="282.09"/><rect class="cls-1" x="43.18" y="189.31" width="87" height="3.63" transform="translate(-46.32 181.33) rotate(-45)"/><rect class="cls-4" x="44.2" y="191.77" width="87" height="0.75" transform="translate(-46.75 182.35) rotate(-45)"/><line class="cls-1" x1="179.59" y1="223.14" x2="118.07" y2="284.66"/><rect class="cls-1" x="45.75" y="191.88" width="87" height="3.63" transform="translate(-47.39 183.9) rotate(-45)"/><rect class="cls-4" x="46.77" y="194.34" width="87" height="0.75" transform="translate(-47.81 184.92) rotate(-45)"/><line class="cls-1" x1="182.16" y1="225.71" x2="120.64" y2="287.23"/><rect class="cls-1" x="48.32" y="194.44" width="87" height="3.63" transform="translate(-48.45 186.47) rotate(-45)"/><rect class="cls-4" x="49.33" y="196.9" width="87" height="0.75" transform="translate(-48.87 187.48) rotate(-45)"/><line class="cls-1" x1="184.72" y1="228.28" x2="123.21" y2="289.79"/><rect class="cls-1" x="50.88" y="197.01" width="87" height="3.63" transform="translate(-49.51 189.03) rotate(-45)"/><rect class="cls-4" x="51.9" y="199.47" width="87" height="0.75" transform="translate(-49.94 190.05) rotate(-45)"/><line class="cls-1" x1="187.29" y1="230.84" x2="125.77" y2="292.36"/><rect class="cls-1" x="53.45" y="199.58" width="87" height="3.63" transform="translate(-50.58 191.6) rotate(-45)"/><rect class="cls-4" x="54.47" y="202.04" width="87" height="0.75" transform="translate(-51 192.62) rotate(-45)"/><line class="cls-1" x1="189.86" y1="233.41" x2="128.34" y2="294.93"/><rect class="cls-1" x="56.02" y="202.14" width="87" height="3.63" transform="translate(-51.64 194.17) rotate(-45)"/><rect class="cls-4" x="57.03" y="204.6" width="87" height="0.75" transform="translate(-52.06 195.18) rotate(-45)"/><line class="cls-1" x1="192.42" y1="235.98" x2="130.91" y2="297.49"/><rect class="cls-1" x="58.58" y="204.71" width="87" height="3.63" transform="translate(-52.7 196.73) rotate(-45)"/><rect class="cls-4" x="59.6" y="207.17" width="87" height="0.75" transform="translate(-53.13 197.75) rotate(-45)"/><line class="cls-1" x1="194.99" y1="238.54" x2="133.47" y2="300.06"/><rect class="cls-1" x="61.15" y="207.28" width="87" height="3.63" transform="translate(-53.77 199.3) rotate(-45)"/><rect class="cls-4" x="62.17" y="209.74" width="87" height="0.75" transform="translate(-54.19 200.32) rotate(-45)"/><line class="cls-1" x1="197.56" y1="241.11" x2="136.04" y2="302.63"/><rect class="cls-1" x="63.72" y="209.84" width="87" height="3.63" transform="translate(-54.83 201.87) rotate(-45)"/><rect class="cls-4" x="64.73" y="212.3" width="87" height="0.75" transform="translate(-55.25 202.88) rotate(-45)"/><line class="cls-1" x1="200.13" y1="243.68" x2="138.61" y2="305.19"/><rect class="cls-1" x="66.28" y="212.41" width="87" height="3.63" transform="translate(-55.89 204.43) rotate(-45)"/><rect class="cls-4" x="67.3" y="214.87" width="87" height="0.75" transform="translate(-56.31 205.45) rotate(-45)"/><line class="cls-1" x1="202.69" y1="246.24" x2="141.17" y2="307.76"/><rect class="cls-1" x="68.85" y="214.98" width="87" height="3.63" transform="translate(-56.96 207) rotate(-45)"/><rect class="cls-4" x="69.87" y="217.44" width="87" height="0.75" transform="translate(-57.38 208.02) rotate(-45)"/><line class="cls-1" x1="205.26" y1="248.81" x2="143.74" y2="310.33"/><rect class="cls-1" x="71.42" y="217.55" width="87" height="3.63" transform="translate(-58.02 209.57) rotate(-45)"/><rect class="cls-4" x="72.44" y="220" width="87" height="0.75" transform="translate(-58.44 210.58) rotate(-45)"/><line class="cls-1" x1="207.83" y1="251.38" x2="146.31" y2="312.89"/><rect class="cls-1" x="73.98" y="220.11" width="87" height="3.63" transform="translate(-59.08 212.13) rotate(-45)"/><rect class="cls-4" x="75" y="222.57" width="87" height="0.75" transform="translate(-59.5 213.15) rotate(-45)"/><line class="cls-1" x1="210.39" y1="253.94" x2="148.87" y2="315.46"/><rect class="cls-1" x="76.55" y="222.68" width="87" height="3.63" transform="translate(-60.15 214.7) rotate(-45)"/><rect class="cls-4" x="77.57" y="225.14" width="87" height="0.75" transform="translate(-60.57 215.72) rotate(-45)"/><line class="cls-1" x1="212.96" y1="256.51" x2="151.44" y2="318.03"/><rect class="cls-1" x="79.12" y="225.25" width="87" height="3.63" transform="translate(-61.21 217.27) rotate(-45)"/><rect class="cls-4" x="80.14" y="227.7" width="87" height="0.75" transform="translate(-61.63 218.29) rotate(-45)"/><line class="cls-1" x1="215.53" y1="259.08" x2="154.01" y2="320.6"/><rect class="cls-1" x="81.68" y="227.81" width="87" height="3.63" transform="translate(-62.27 219.83) rotate(-45)"/><rect class="cls-4" x="82.7" y="230.27" width="87" height="0.75" transform="translate(-62.69 220.85) rotate(-45)"/><line class="cls-1" x1="218.09" y1="261.64" x2="156.57" y2="323.16"/><rect class="cls-1" x="-74.81" y="194.36" width="87" height="3.63" transform="translate(-84.45 99.38) rotate(-45)"/><rect class="cls-4" x="-73.79" y="196.82" width="87" height="0.75" transform="translate(-84.87 100.4) rotate(-45)"/><line class="cls-1" x1="61.6" y1="228.19" x2="0.08" y2="289.71"/><rect class="cls-1" x="-72.24" y="196.93" width="87" height="3.63" transform="translate(-85.52 101.95) rotate(-45)"/><rect class="cls-4" x="-71.22" y="199.38" width="87" height="0.75" transform="translate(-85.94 102.97) rotate(-45)"/><line class="cls-1" x1="64.17" y1="230.76" x2="2.65" y2="292.28"/><rect class="cls-1" x="-69.67" y="199.49" width="87" height="3.63" transform="translate(-86.58 104.51) rotate(-45)"/><rect class="cls-4" x="-68.65" y="201.95" width="87" height="0.75" transform="translate(-87 105.53) rotate(-45)"/><line class="cls-1" x1="66.74" y1="233.32" x2="5.22" y2="294.84"/><rect class="cls-1" x="-67.11" y="202.06" width="87" height="3.63" transform="translate(-87.64 107.08) rotate(-45)"/><rect class="cls-4" x="-66.09" y="204.52" width="87" height="0.75" transform="translate(-88.06 108.1) rotate(-45)"/><line class="cls-1" x1="69.3" y1="235.89" x2="7.79" y2="297.41"/><rect class="cls-1" x="-64.54" y="204.63" width="87" height="3.63" transform="translate(-88.7 109.65) rotate(-45)"/><rect class="cls-4" x="-63.52" y="207.08" width="87" height="0.75" transform="translate(-89.13 110.67) rotate(-45)"/><line class="cls-1" x1="71.87" y1="238.46" x2="10.35" y2="299.98"/><rect class="cls-1" x="-61.97" y="207.19" width="87" height="3.63" transform="translate(-89.77 112.21) rotate(-45)"/><rect class="cls-4" x="-60.95" y="209.65" width="87" height="0.75" transform="translate(-90.19 113.23) rotate(-45)"/><line class="cls-1" x1="74.44" y1="241.02" x2="12.92" y2="302.54"/><rect class="cls-1" x="-59.41" y="209.76" width="87" height="3.63" transform="translate(-90.83 114.78) rotate(-45)"/><rect class="cls-4" x="-58.39" y="212.22" width="87" height="0.75" transform="translate(-91.25 115.8) rotate(-45)"/><line class="cls-1" x1="77" y1="243.59" x2="15.49" y2="305.11"/><rect class="cls-1" x="-56.84" y="212.33" width="87" height="3.63" transform="translate(-91.89 117.35) rotate(-45)"/><rect class="cls-4" x="-55.82" y="214.78" width="87" height="0.75" transform="translate(-92.32 118.37) rotate(-45)"/><line class="cls-1" x1="79.57" y1="246.16" x2="18.05" y2="307.68"/><rect class="cls-1" x="-54.27" y="214.89" width="87" height="3.63" transform="translate(-92.96 119.91) rotate(-45)"/><rect class="cls-4" x="-53.25" y="217.35" width="87" height="0.75" transform="translate(-93.38 120.93) rotate(-45)"/><line class="cls-1" x1="82.14" y1="248.72" x2="20.62" y2="310.24"/><rect class="cls-1" x="-51.7" y="217.46" width="87" height="3.63" transform="translate(-94.02 122.48) rotate(-45)"/><rect class="cls-4" x="-50.69" y="219.92" width="87" height="0.75" transform="translate(-94.44 123.5) rotate(-45)"/><line class="cls-1" x1="84.7" y1="251.29" x2="23.19" y2="312.81"/><rect class="cls-1" x="-49.14" y="220.03" width="87" height="3.63" transform="translate(-95.08 125.05) rotate(-45)"/><rect class="cls-4" x="-48.12" y="222.49" width="87" height="0.75" transform="translate(-95.51 126.07) rotate(-45)"/><line class="cls-1" x1="87.27" y1="253.86" x2="25.75" y2="315.38"/><rect class="cls-1" x="-46.57" y="222.59" width="87" height="3.63" transform="translate(-96.15 127.62) rotate(-45)"/><rect class="cls-4" x="-45.55" y="225.05" width="87" height="0.75" transform="translate(-96.57 128.63) rotate(-45)"/><line class="cls-1" x1="89.84" y1="256.43" x2="28.32" y2="317.94"/><rect class="cls-1" x="-44" y="225.16" width="87" height="3.63" transform="translate(-97.21 130.18) rotate(-45)"/><rect class="cls-4" x="-42.99" y="227.62" width="87" height="0.75" transform="translate(-97.63 131.2) rotate(-45)"/><line class="cls-1" x1="92.4" y1="258.99" x2="30.89" y2="320.51"/><rect class="cls-1" x="-41.44" y="227.73" width="87" height="3.63" transform="translate(-98.27 132.75) rotate(-45)"/><rect class="cls-4" x="-40.42" y="230.19" width="87" height="0.75" transform="translate(-98.7 133.77) rotate(-45)"/><line class="cls-1" x1="94.97" y1="261.56" x2="33.45" y2="323.08"/><rect class="cls-1" x="-38.87" y="230.29" width="87" height="3.63" transform="translate(-99.34 135.32) rotate(-45)"/><rect class="cls-4" x="-37.85" y="232.75" width="87" height="0.75" transform="translate(-99.76 136.33) rotate(-45)"/><line class="cls-1" x1="97.54" y1="264.13" x2="36.02" y2="325.64"/><rect class="cls-1" x="-36.3" y="232.86" width="87" height="3.63" transform="translate(-100.4 137.88) rotate(-45)"/><rect class="cls-4" x="-35.29" y="235.32" width="87" height="0.75" transform="translate(-100.82 138.9) rotate(-45)"/><line class="cls-1" x1="100.11" y1="266.69" x2="38.59" y2="328.21"/></g></g></svg>