<svg id="Слой_1" data-name="Слой 1" xmlns="http://www.w3.org/2000/svg" viewBox="0 0 243.16 347.44"><defs><style>.cls-1{fill:#008a64;}</style></defs><title>flat-05</title><polygon class="cls-1" points="43.43 5.47 61.43 5.47 61.43 0 113.1 0 113.1 5.47 242.95 5.43 243.16 13.73 243.1 25.36 241.71 39.77 239.83 52.17 237.56 63.39 234.45 77.12 234.4 83.69 234.4 121.32 215.18 121.32 215.18 152.69 222.24 165.76 221.91 320.76 216.27 320.75 216.27 338.91 198.56 338.92 198.56 347.15 43.56 347.44 43.56 188.07 43.56 163.29 36.09 153.76 0 153.77 0 108.86 43.43 104.86 43.43 5.47"/></svg>