<svg id="Слой_1" data-name="Слой 1" xmlns="http://www.w3.org/2000/svg" xmlns:xlink="http://www.w3.org/1999/xlink" viewBox="0 0 271.91 328.21"><defs><style>.cls-1{fill:none;}.cls-2{opacity:0.6;}.cls-3{clip-path:url(#clip-path);}.cls-4{fill:#fff;}</style><clipPath id="clip-path" transform="translate(61.96 61.67)"><polyline class="cls-1" points="0.05 168.65 0.05 0.31 11.09 0.13 20.89 0.39 32.13 1.17 42.64 2.38 52.06 3.85 64.39 6.35 73.87 8.42 79.51 8.68 116.09 8.68 116.09 24.88 145.95 24.88 145.94 181.38 118.34 181.38 114.48 204.87 73.88 204.85 15.57 204.85 15.57 168.65 0.05 168.65"/></clipPath></defs><title>flat-03-sold</title><g class="cls-2"><g class="cls-3"><rect class="cls-1" x="98.39" y="-31.44" width="87" height="3.63" transform="translate(124.47 153.32) rotate(-45)"/><rect class="cls-4" x="99.41" y="-28.99" width="87" height="0.75" transform="translate(124.05 154.34) rotate(-45)"/><line class="cls-1" x1="233.32" x2="171.81" y2="61.52"/><rect class="cls-1" x="100.95" y="-28.88" width="87" height="3.63" transform="translate(123.41 155.89) rotate(-45)"/><rect class="cls-4" x="101.97" y="-26.42" width="87" height="0.75" transform="translate(122.98 156.91) rotate(-45)"/><line class="cls-1" x1="235.89" y1="2.57" x2="174.37" y2="64.09"/><rect class="cls-1" x="103.52" y="-26.31" width="87" height="3.63" transform="translate(122.34 158.46) rotate(-45)"/><rect class="cls-4" x="104.54" y="-23.85" width="87" height="0.75" transform="translate(121.92 159.47) rotate(-45)"/><line class="cls-1" x1="238.46" y1="5.13" x2="176.94" y2="66.65"/><rect class="cls-1" x="106.09" y="-23.74" width="87" height="3.63" transform="translate(121.28 161.02) rotate(-45)"/><rect class="cls-4" x="107.11" y="-21.29" width="87" height="0.75" transform="translate(120.86 162.04) rotate(-45)"/><line class="cls-1" x1="241.02" y1="7.7" x2="179.51" y2="69.22"/><rect class="cls-1" x="108.65" y="-21.18" width="87" height="3.63" transform="translate(120.22 163.59) rotate(-45)"/><rect class="cls-4" x="109.67" y="-18.72" width="87" height="0.75" transform="translate(119.8 164.61) rotate(-45)"/><line class="cls-1" x1="243.59" y1="10.27" x2="182.07" y2="71.79"/><rect class="cls-1" x="111.22" y="-18.61" width="87" height="3.63" transform="translate(119.15 166.16) rotate(-45)"/><rect class="cls-4" x="112.24" y="-16.15" width="87" height="0.75" transform="translate(118.73 167.18) rotate(-45)"/><line class="cls-1" x1="246.16" y1="12.83" x2="184.64" y2="74.35"/><rect class="cls-1" x="113.79" y="-16.04" width="87" height="3.63" transform="translate(118.09 168.72) rotate(-45)"/><rect class="cls-4" x="114.81" y="-13.59" width="87" height="0.75" transform="translate(117.67 169.74) rotate(-45)"/><line class="cls-1" x1="248.72" y1="15.4" x2="187.21" y2="76.92"/><rect class="cls-1" x="116.35" y="-13.48" width="87" height="3.63" transform="translate(117.03 171.29) rotate(-45)"/><rect class="cls-4" x="117.37" y="-11.02" width="87" height="0.75" transform="translate(116.61 172.31) rotate(-45)"/><line class="cls-1" x1="251.29" y1="17.97" x2="189.77" y2="79.49"/><rect class="cls-1" x="118.92" y="-10.91" width="87" height="3.63" transform="translate(115.96 173.86) rotate(-45)"/><rect class="cls-4" x="119.94" y="-8.45" width="87" height="0.75" transform="translate(115.54 174.88) rotate(-45)"/><line class="cls-1" x1="253.86" y1="20.53" x2="192.34" y2="82.05"/><rect class="cls-1" x="121.49" y="-8.34" width="87" height="3.63" transform="translate(114.9 176.42) rotate(-45)"/><rect class="cls-4" x="122.51" y="-5.88" width="87" height="0.75" transform="translate(114.48 177.44) rotate(-45)"/><line class="cls-1" x1="256.43" y1="23.1" x2="194.91" y2="84.62"/><rect class="cls-1" x="124.06" y="-5.78" width="87" height="3.63" transform="translate(113.84 178.99) rotate(-45)"/><rect class="cls-4" x="125.07" y="-3.32" width="87" height="0.75" transform="translate(113.42 180.01) rotate(-45)"/><line class="cls-1" x1="258.99" y1="25.67" x2="197.47" y2="87.19"/><rect class="cls-1" x="126.62" y="-3.21" width="87" height="3.63" transform="translate(112.77 181.56) rotate(-45)"/><rect class="cls-4" x="127.64" y="-0.75" width="87" height="0.75" transform="translate(112.35 182.58) rotate(-45)"/><line class="cls-1" x1="261.56" y1="28.23" x2="200.04" y2="89.75"/><rect class="cls-1" x="129.19" y="-0.64" width="87" height="3.63" transform="translate(111.71 184.12) rotate(-45)"/><rect class="cls-4" x="130.21" y="1.82" width="87" height="0.75" transform="translate(111.29 185.14) rotate(-45)"/><line class="cls-1" x1="264.13" y1="30.8" x2="202.61" y2="92.32"/><rect class="cls-1" x="131.76" y="1.92" width="87" height="3.63" transform="translate(110.65 186.69) rotate(-45)"/><rect class="cls-4" x="132.77" y="4.38" width="87" height="0.75" transform="translate(110.23 187.71) rotate(-45)"/><line class="cls-1" x1="266.69" y1="33.37" x2="205.17" y2="94.89"/><rect class="cls-1" x="134.32" y="4.49" width="87" height="3.63" transform="translate(109.59 189.26) rotate(-45)"/><rect class="cls-4" x="135.34" y="6.95" width="87" height="0.75" transform="translate(109.16 190.28) rotate(-45)"/><line class="cls-1" x1="269.26" y1="35.94" x2="207.74" y2="97.45"/><rect class="cls-1" x="-19.6" y="-26.4" width="87" height="3.63" transform="translate(86.34 71.37) rotate(-45)"/><rect class="cls-4" x="-18.58" y="-23.94" width="87" height="0.75" transform="translate(85.92 72.39) rotate(-45)"/><line class="cls-1" x1="115.34" y1="5.05" x2="53.82" y2="66.57"/><rect class="cls-1" x="-17.03" y="-23.83" width="87" height="3.63" transform="translate(85.28 73.94) rotate(-45)"/><rect class="cls-4" x="-16.02" y="-21.37" width="87" height="0.75" transform="translate(84.86 74.96) rotate(-45)"/><line class="cls-1" x1="117.9" y1="7.62" x2="56.38" y2="69.13"/><rect class="cls-1" x="-14.47" y="-21.26" width="87" height="3.63" transform="translate(84.22 76.51) rotate(-45)"/><rect class="cls-4" x="-13.45" y="-18.8" width="87" height="0.75" transform="translate(83.79 77.52) rotate(-45)"/><line class="cls-1" x1="120.47" y1="10.18" x2="58.95" y2="71.7"/><rect class="cls-1" x="-11.9" y="-18.7" width="87" height="3.63" transform="translate(83.15 79.07) rotate(-45)"/><rect class="cls-4" x="-10.88" y="-16.24" width="87" height="0.75" transform="translate(82.73 80.09) rotate(-45)"/><line class="cls-1" x1="123.04" y1="12.75" x2="61.52" y2="74.27"/><rect class="cls-1" x="-9.33" y="-16.13" width="87" height="3.63" transform="translate(82.09 81.64) rotate(-45)"/><rect class="cls-4" x="-8.32" y="-13.67" width="87" height="0.75" transform="translate(81.67 82.66) rotate(-45)"/><line class="cls-1" x1="125.6" y1="15.32" x2="64.09" y2="76.83"/><rect class="cls-1" x="-6.77" y="-13.56" width="87" height="3.63" transform="translate(81.03 84.21) rotate(-45)"/><rect class="cls-4" x="-5.75" y="-11.1" width="87" height="0.75" transform="translate(80.6 85.22) rotate(-45)"/><line class="cls-1" x1="128.17" y1="17.88" x2="66.65" y2="79.4"/><rect class="cls-1" x="-4.2" y="-10.99" width="87" height="3.63" transform="translate(79.96 86.77) rotate(-45)"/><rect class="cls-4" x="-3.18" y="-8.54" width="87" height="0.75" transform="translate(79.54 87.79) rotate(-45)"/><line class="cls-1" x1="130.74" y1="20.45" x2="69.22" y2="81.97"/><rect class="cls-1" x="-1.63" y="-8.43" width="87" height="3.63" transform="translate(78.9 89.34) rotate(-45)"/><rect class="cls-4" x="-0.61" y="-5.97" width="87" height="0.75" transform="translate(78.48 90.36) rotate(-45)"/><line class="cls-1" x1="133.3" y1="23.02" x2="71.79" y2="84.53"/><rect class="cls-1" x="0.93" y="-5.86" width="87" height="3.63" transform="translate(77.84 91.91) rotate(-45)"/><rect class="cls-4" x="1.95" y="-3.4" width="87" height="0.75" transform="translate(77.41 92.92) rotate(-45)"/><line class="cls-1" x1="135.87" y1="25.58" x2="74.35" y2="87.1"/><rect class="cls-1" x="3.5" y="-3.29" width="87" height="3.63" transform="translate(76.77 94.47) rotate(-45)"/><rect class="cls-4" x="4.52" y="-0.84" width="87" height="0.75" transform="translate(76.35 95.49) rotate(-45)"/><line class="cls-1" x1="138.44" y1="28.15" x2="76.92" y2="89.67"/><rect class="cls-1" x="6.07" y="-0.73" width="87" height="3.63" transform="translate(75.71 97.04) rotate(-45)"/><rect class="cls-4" x="7.09" y="1.73" width="87" height="0.75" transform="translate(75.29 98.06) rotate(-45)"/><line class="cls-1" x1="141" y1="30.72" x2="79.49" y2="92.24"/><rect class="cls-1" x="8.63" y="1.84" width="87" height="3.63" transform="translate(74.65 99.61) rotate(-45)"/><rect class="cls-4" x="9.65" y="4.3" width="87" height="0.75" transform="translate(74.23 100.62) rotate(-45)"/><line class="cls-1" x1="143.57" y1="33.28" x2="82.05" y2="94.8"/><rect class="cls-1" x="11.2" y="4.41" width="87" height="3.63" transform="translate(73.58 102.17) rotate(-45)"/><rect class="cls-4" x="12.22" y="6.86" width="87" height="0.75" transform="translate(73.16 103.19) rotate(-45)"/><line class="cls-1" x1="146.14" y1="35.85" x2="84.62" y2="97.37"/><rect class="cls-1" x="13.77" y="6.97" width="87" height="3.63" transform="translate(72.52 104.74) rotate(-45)"/><rect class="cls-4" x="14.79" y="9.43" width="87" height="0.75" transform="translate(72.1 105.76) rotate(-45)"/><line class="cls-1" x1="148.7" y1="38.42" x2="87.19" y2="99.94"/><rect class="cls-1" x="16.33" y="9.54" width="87" height="3.63" transform="translate(71.46 107.31) rotate(-45)"/><rect class="cls-4" x="17.35" y="12" width="87" height="0.75" transform="translate(71.04 108.33) rotate(-45)"/><line class="cls-1" x1="151.27" y1="40.98" x2="89.75" y2="102.5"/><rect class="cls-1" x="18.9" y="12.11" width="87" height="3.63" transform="translate(70.39 109.87) rotate(-45)"/><rect class="cls-4" x="19.92" y="14.56" width="87" height="0.75" transform="translate(69.97 110.89) rotate(-45)"/><line class="cls-1" x1="153.84" y1="43.55" x2="92.32" y2="105.07"/><rect class="cls-1" x="21.47" y="14.67" width="87" height="3.63" transform="translate(69.33 112.44) rotate(-45)"/><rect class="cls-4" x="22.49" y="17.13" width="87" height="0.75" transform="translate(68.91 113.46) rotate(-45)"/><line class="cls-1" x1="156.4" y1="46.12" x2="94.89" y2="107.64"/><rect class="cls-1" x="24.03" y="17.24" width="87" height="3.63" transform="translate(68.27 115.01) rotate(-45)"/><rect class="cls-4" x="25.05" y="19.7" width="87" height="0.75" transform="translate(67.85 116.03) rotate(-45)"/><line class="cls-1" x1="158.97" y1="48.68" x2="97.45" y2="110.2"/><rect class="cls-1" x="26.6" y="19.81" width="87" height="3.63" transform="translate(67.2 117.57) rotate(-45)"/><rect class="cls-4" x="27.62" y="22.27" width="87" height="0.75" transform="translate(66.78 118.59) rotate(-45)"/><line class="cls-1" x1="161.54" y1="51.25" x2="100.02" y2="112.77"/><rect class="cls-1" x="29.17" y="22.37" width="87" height="3.63" transform="translate(66.14 120.14) rotate(-45)"/><rect class="cls-4" x="30.19" y="24.83" width="87" height="0.75" transform="translate(65.72 121.16) rotate(-45)"/><line class="cls-1" x1="164.11" y1="53.82" x2="102.59" y2="115.34"/><rect class="cls-1" x="31.74" y="24.94" width="87" height="3.63" transform="translate(65.08 122.71) rotate(-45)"/><rect class="cls-4" x="32.75" y="27.4" width="87" height="0.75" transform="translate(64.66 123.73) rotate(-45)"/><line class="cls-1" x1="166.67" y1="56.38" x2="105.15" y2="117.9"/><rect class="cls-1" x="34.3" y="27.51" width="87" height="3.63" transform="translate(64.01 125.27) rotate(-45)"/><rect class="cls-4" x="35.32" y="29.97" width="87" height="0.75" transform="translate(63.59 126.29) rotate(-45)"/><line class="cls-1" x1="169.24" y1="58.95" x2="107.72" y2="120.47"/><rect class="cls-1" x="36.87" y="30.07" width="87" height="3.63" transform="translate(62.95 127.84) rotate(-45)"/><rect class="cls-4" x="37.89" y="32.53" width="87" height="0.75" transform="translate(62.53 128.86) rotate(-45)"/><line class="cls-1" x1="171.81" y1="61.52" x2="110.29" y2="123.04"/><rect class="cls-1" x="39.44" y="32.64" width="87" height="3.63" transform="translate(61.89 130.41) rotate(-45)"/><rect class="cls-4" x="40.45" y="35.1" width="87" height="0.75" transform="translate(61.47 131.43) rotate(-45)"/><line class="cls-1" x1="174.37" y1="64.09" x2="112.85" y2="125.6"/><rect class="cls-1" x="42" y="35.21" width="87" height="3.63" transform="translate(60.83 132.97) rotate(-45)"/><rect class="cls-4" x="43.02" y="37.67" width="87" height="0.75" transform="translate(60.4 133.99) rotate(-45)"/><line class="cls-1" x1="176.94" y1="66.65" x2="115.42" y2="128.17"/><rect class="cls-1" x="44.57" y="37.77" width="87" height="3.63" transform="translate(59.76 135.54) rotate(-45)"/><rect class="cls-4" x="45.59" y="40.23" width="87" height="0.75" transform="translate(59.34 136.56) rotate(-45)"/><line class="cls-1" x1="179.51" y1="69.22" x2="117.99" y2="130.74"/><rect class="cls-1" x="47.14" y="40.34" width="87" height="3.63" transform="translate(58.7 138.11) rotate(-45)"/><rect class="cls-4" x="48.15" y="42.8" width="87" height="0.75" transform="translate(58.28 139.13) rotate(-45)"/><line class="cls-1" x1="182.07" y1="71.79" x2="120.55" y2="133.3"/><rect class="cls-1" x="49.7" y="42.91" width="87" height="3.63" transform="translate(57.64 140.68) rotate(-45)"/><rect class="cls-4" x="50.72" y="45.37" width="87" height="0.75" transform="translate(57.21 141.69) rotate(-45)"/><line class="cls-1" x1="184.64" y1="74.35" x2="123.12" y2="135.87"/><rect class="cls-1" x="52.27" y="45.47" width="87" height="3.63" transform="translate(56.57 143.24) rotate(-45)"/><rect class="cls-4" x="53.29" y="47.93" width="87" height="0.75" transform="translate(56.15 144.26) rotate(-45)"/><line class="cls-1" x1="187.21" y1="76.92" x2="125.69" y2="138.44"/><rect class="cls-1" x="54.84" y="48.04" width="87" height="3.63" transform="translate(55.51 145.81) rotate(-45)"/><rect class="cls-4" x="55.85" y="50.5" width="87" height="0.75" transform="translate(55.09 146.83) rotate(-45)"/><line class="cls-1" x1="189.77" y1="79.49" x2="128.26" y2="141"/><rect class="cls-1" x="57.4" y="50.61" width="87" height="3.63" transform="translate(54.45 148.38) rotate(-45)"/><rect class="cls-4" x="58.42" y="53.07" width="87" height="0.75" transform="translate(54.02 149.39) rotate(-45)"/><line class="cls-1" x1="192.34" y1="82.05" x2="130.82" y2="143.57"/><rect class="cls-1" x="59.97" y="53.18" width="87" height="3.63" transform="translate(53.38 150.94) rotate(-45)"/><rect class="cls-4" x="60.99" y="55.63" width="87" height="0.75" transform="translate(52.96 151.96) rotate(-45)"/><line class="cls-1" x1="194.91" y1="84.62" x2="133.39" y2="146.14"/><rect class="cls-1" x="62.54" y="55.74" width="87" height="3.63" transform="translate(52.32 153.51) rotate(-45)"/><rect class="cls-4" x="63.56" y="58.2" width="87" height="0.75" transform="translate(51.9 154.53) rotate(-45)"/><line class="cls-1" x1="197.47" y1="87.19" x2="135.96" y2="148.7"/><rect class="cls-1" x="65.1" y="58.31" width="87" height="3.63" transform="translate(51.26 156.08) rotate(-45)"/><rect class="cls-4" x="66.12" y="60.77" width="87" height="0.75" transform="translate(50.83 157.09) rotate(-45)"/><line class="cls-1" x1="200.04" y1="89.75" x2="138.52" y2="151.27"/><rect class="cls-1" x="67.67" y="60.88" width="87" height="3.63" transform="translate(50.19 158.64) rotate(-45)"/><rect class="cls-4" x="68.69" y="63.33" width="87" height="0.75" transform="translate(49.77 159.66) rotate(-45)"/><line class="cls-1" x1="202.61" y1="92.32" x2="141.09" y2="153.84"/><rect class="cls-1" x="70.24" y="63.44" width="87" height="3.63" transform="translate(49.13 161.21) rotate(-45)"/><rect class="cls-4" x="71.26" y="65.9" width="87" height="0.75" transform="translate(48.71 162.23) rotate(-45)"/><line class="cls-1" x1="205.17" y1="94.89" x2="143.66" y2="156.4"/><rect class="cls-1" x="72.8" y="66.01" width="87" height="3.63" transform="translate(48.07 163.78) rotate(-45)"/><rect class="cls-4" x="73.82" y="68.47" width="87" height="0.75" transform="translate(47.65 164.79) rotate(-45)"/><line class="cls-1" x1="207.74" y1="97.45" x2="146.22" y2="158.97"/><rect class="cls-1" x="75.37" y="68.58" width="87" height="3.63" transform="translate(47 166.34) rotate(-45)"/><rect class="cls-4" x="76.39" y="71.03" width="87" height="0.75" transform="translate(46.58 167.36) rotate(-45)"/><line class="cls-1" x1="210.31" y1="100.02" x2="148.79" y2="161.54"/><rect class="cls-1" x="77.94" y="71.14" width="87" height="3.63" transform="translate(45.94 168.91) rotate(-45)"/><rect class="cls-4" x="78.96" y="73.6" width="87" height="0.75" transform="translate(45.52 169.93) rotate(-45)"/><line class="cls-1" x1="212.87" y1="102.59" x2="151.36" y2="164.11"/><rect class="cls-1" x="80.5" y="73.71" width="87" height="3.63" transform="translate(44.88 171.48) rotate(-45)"/><rect class="cls-4" x="81.52" y="76.17" width="87" height="0.75" transform="translate(44.46 172.49) rotate(-45)"/><line class="cls-1" x1="215.44" y1="105.15" x2="153.92" y2="166.67"/><rect class="cls-1" x="83.07" y="76.28" width="87" height="3.63" transform="translate(43.81 174.04) rotate(-45)"/><rect class="cls-4" x="84.09" y="78.73" width="87" height="0.75" transform="translate(43.39 175.06) rotate(-45)"/><line class="cls-1" x1="218.01" y1="107.72" x2="156.49" y2="169.24"/><rect class="cls-1" x="85.64" y="78.84" width="87" height="3.63" transform="translate(42.75 176.61) rotate(-45)"/><rect class="cls-4" x="86.66" y="81.3" width="87" height="0.75" transform="translate(42.33 177.63) rotate(-45)"/><line class="cls-1" x1="220.57" y1="110.29" x2="159.06" y2="171.81"/><rect class="cls-1" x="88.2" y="81.41" width="87" height="3.63" transform="translate(41.69 179.18) rotate(-45)"/><rect class="cls-4" x="89.22" y="83.87" width="87" height="0.75" transform="translate(41.27 180.2) rotate(-45)"/><line class="cls-1" x1="223.14" y1="112.85" x2="161.62" y2="174.37"/><rect class="cls-1" x="90.77" y="83.98" width="87" height="3.63" transform="translate(40.62 181.74) rotate(-45)"/><rect class="cls-4" x="91.79" y="86.44" width="87" height="0.75" transform="translate(40.2 182.76) rotate(-45)"/><line class="cls-1" x1="225.71" y1="115.42" x2="164.19" y2="176.94"/><rect class="cls-1" x="93.34" y="86.54" width="87" height="3.63" transform="translate(39.56 184.31) rotate(-45)"/><rect class="cls-4" x="94.36" y="89" width="87" height="0.75" transform="translate(39.14 185.33) rotate(-45)"/><line class="cls-1" x1="228.28" y1="117.99" x2="166.76" y2="179.51"/><rect class="cls-1" x="95.91" y="89.11" width="87" height="3.63" transform="translate(38.5 186.88) rotate(-45)"/><rect class="cls-4" x="96.92" y="91.57" width="87" height="0.75" transform="translate(38.08 187.9) rotate(-45)"/><line class="cls-1" x1="230.84" y1="120.55" x2="169.32" y2="182.07"/><rect class="cls-1" x="98.47" y="91.68" width="87" height="3.63" transform="translate(37.43 189.44) rotate(-45)"/><rect class="cls-4" x="99.49" y="94.14" width="87" height="0.75" transform="translate(37.01 190.46) rotate(-45)"/><line class="cls-1" x1="233.41" y1="123.12" x2="171.89" y2="184.64"/><rect class="cls-1" x="101.04" y="94.24" width="87" height="3.63" transform="translate(36.37 192.01) rotate(-45)"/><rect class="cls-4" x="102.06" y="96.7" width="87" height="0.75" transform="translate(35.95 193.03) rotate(-45)"/><line class="cls-1" x1="235.98" y1="125.69" x2="174.46" y2="187.21"/><rect class="cls-1" x="103.61" y="96.81" width="87" height="3.63" transform="translate(35.31 194.58) rotate(-45)"/><rect class="cls-4" x="104.62" y="99.27" width="87" height="0.75" transform="translate(34.89 195.6) rotate(-45)"/><line class="cls-1" x1="238.54" y1="128.26" x2="177.02" y2="189.77"/><rect class="cls-1" x="106.17" y="99.38" width="87" height="3.63" transform="translate(34.25 197.14) rotate(-45)"/><rect class="cls-4" x="107.19" y="101.84" width="87" height="0.75" transform="translate(33.82 198.16) rotate(-45)"/><line class="cls-1" x1="241.11" y1="130.82" x2="179.59" y2="192.34"/><rect class="cls-1" x="108.74" y="101.94" width="87" height="3.63" transform="translate(33.18 199.71) rotate(-45)"/><rect class="cls-4" x="109.76" y="104.4" width="87" height="0.75" transform="translate(32.76 200.73) rotate(-45)"/><line class="cls-1" x1="243.68" y1="133.39" x2="182.16" y2="194.91"/><rect class="cls-1" x="111.31" y="104.51" width="87" height="3.63" transform="translate(32.12 202.28) rotate(-45)"/><rect class="cls-4" x="112.32" y="106.97" width="87" height="0.75" transform="translate(31.7 203.3) rotate(-45)"/><line class="cls-1" x1="246.24" y1="135.96" x2="184.72" y2="197.47"/><rect class="cls-1" x="113.87" y="107.08" width="87" height="3.63" transform="translate(31.06 204.85) rotate(-45)"/><rect class="cls-4" x="114.89" y="109.54" width="87" height="0.75" transform="translate(30.63 205.86) rotate(-45)"/><line class="cls-1" x1="248.81" y1="138.52" x2="187.29" y2="200.04"/><rect class="cls-1" x="116.44" y="109.64" width="87" height="3.63" transform="translate(29.99 207.41) rotate(-45)"/><rect class="cls-4" x="117.46" y="112.1" width="87" height="0.75" transform="translate(29.57 208.43) rotate(-45)"/><line class="cls-1" x1="251.38" y1="141.09" x2="189.86" y2="202.61"/><rect class="cls-1" x="119.01" y="112.21" width="87" height="3.63" transform="translate(28.93 209.98) rotate(-45)"/><rect class="cls-4" x="120.02" y="114.67" width="87" height="0.75" transform="translate(28.51 211) rotate(-45)"/><line class="cls-1" x1="253.94" y1="143.66" x2="192.42" y2="205.17"/><rect class="cls-1" x="121.57" y="114.78" width="87" height="3.63" transform="translate(27.87 212.55) rotate(-45)"/><rect class="cls-4" x="122.59" y="117.24" width="87" height="0.75" transform="translate(27.44 213.56) rotate(-45)"/><line class="cls-1" x1="256.51" y1="146.22" x2="194.99" y2="207.74"/><rect class="cls-1" x="124.14" y="117.35" width="87" height="3.63" transform="translate(26.8 215.11) rotate(-45)"/><rect class="cls-4" x="125.16" y="119.8" width="87" height="0.75" transform="translate(26.38 216.13) rotate(-45)"/><line class="cls-1" x1="259.08" y1="148.79" x2="197.56" y2="210.31"/><rect class="cls-1" x="126.71" y="119.91" width="87" height="3.63" transform="translate(25.74 217.68) rotate(-45)"/><rect class="cls-4" x="127.72" y="122.37" width="87" height="0.75" transform="translate(25.32 218.7) rotate(-45)"/><line class="cls-1" x1="261.64" y1="151.36" x2="200.13" y2="212.87"/><rect class="cls-1" x="129.27" y="122.48" width="87" height="3.63" transform="translate(24.68 220.25) rotate(-45)"/><rect class="cls-4" x="130.29" y="124.94" width="87" height="0.75" transform="translate(24.25 221.26) rotate(-45)"/><line class="cls-1" x1="264.21" y1="153.92" x2="202.69" y2="215.44"/><rect class="cls-1" x="131.84" y="125.05" width="87" height="3.63" transform="translate(23.61 222.81) rotate(-45)"/><rect class="cls-4" x="132.86" y="127.5" width="87" height="0.75" transform="translate(23.19 223.83) rotate(-45)"/><line class="cls-1" x1="266.78" y1="156.49" x2="205.26" y2="218.01"/><rect class="cls-1" x="134.41" y="127.61" width="87" height="3.63" transform="translate(22.55 225.38) rotate(-45)"/><rect class="cls-4" x="135.43" y="130.07" width="87" height="0.75" transform="translate(22.13 226.4) rotate(-45)"/><line class="cls-1" x1="269.34" y1="159.06" x2="207.83" y2="220.57"/><rect class="cls-1" x="-73.42" y="42.82" width="87" height="3.63" transform="translate(21.63 53.59) rotate(-45)"/><rect class="cls-4" x="-72.4" y="45.28" width="87" height="0.75" transform="translate(21.21 54.61) rotate(-45)"/><line class="cls-1" x1="61.52" y1="74.27" y2="135.79"/><rect class="cls-1" x="-70.85" y="45.39" width="87" height="3.63" transform="translate(20.57 56.16) rotate(-45)"/><rect class="cls-4" x="-69.83" y="47.85" width="87" height="0.75" transform="translate(20.15 57.18) rotate(-45)"/><line class="cls-1" x1="64.09" y1="76.83" x2="2.57" y2="138.35"/><rect class="cls-1" x="-68.29" y="47.96" width="87" height="3.63" transform="translate(19.51 58.72) rotate(-45)"/><rect class="cls-4" x="-67.27" y="50.42" width="87" height="0.75" transform="translate(19.09 59.74) rotate(-45)"/><line class="cls-1" x1="66.65" y1="79.4" x2="5.13" y2="140.92"/><rect class="cls-1" x="-65.72" y="50.52" width="87" height="3.63" transform="translate(18.44 61.29) rotate(-45)"/><rect class="cls-4" x="-64.7" y="52.98" width="87" height="0.75" transform="translate(18.02 62.31) rotate(-45)"/><line class="cls-1" x1="69.22" y1="81.97" x2="7.7" y2="143.49"/><rect class="cls-1" x="-63.15" y="53.09" width="87" height="3.63" transform="translate(17.38 63.86) rotate(-45)"/><rect class="cls-4" x="-62.13" y="55.55" width="87" height="0.75" transform="translate(16.96 64.88) rotate(-45)"/><line class="cls-1" x1="71.79" y1="84.53" x2="10.27" y2="146.05"/><rect class="cls-1" x="-60.58" y="55.66" width="87" height="3.63" transform="translate(16.32 66.42) rotate(-45)"/><rect class="cls-4" x="-59.57" y="58.12" width="87" height="0.75" transform="translate(15.9 67.44) rotate(-45)"/><line class="cls-1" x1="74.35" y1="87.1" x2="12.83" y2="148.62"/><rect class="cls-1" x="-58.02" y="58.22" width="87" height="3.63" transform="translate(15.26 68.99) rotate(-45)"/><rect class="cls-4" x="-57" y="60.68" width="87" height="0.75" transform="translate(14.83 70.01) rotate(-45)"/><line class="cls-1" x1="76.92" y1="89.67" x2="15.4" y2="151.19"/><rect class="cls-1" x="-55.45" y="60.79" width="87" height="3.63" transform="translate(14.19 71.56) rotate(-45)"/><rect class="cls-4" x="-54.43" y="63.25" width="87" height="0.75" transform="translate(13.77 72.58) rotate(-45)"/><line class="cls-1" x1="79.49" y1="92.24" x2="17.97" y2="153.75"/><rect class="cls-1" x="-52.88" y="63.36" width="87" height="3.63" transform="translate(13.13 74.12) rotate(-45)"/><rect class="cls-4" x="-51.87" y="65.82" width="87" height="0.75" transform="translate(12.71 75.14) rotate(-45)"/><line class="cls-1" x1="82.05" y1="94.8" x2="20.53" y2="156.32"/><rect class="cls-1" x="-50.32" y="65.92" width="87" height="3.63" transform="translate(12.07 76.69) rotate(-45)"/><rect class="cls-4" x="-49.3" y="68.38" width="87" height="0.75" transform="translate(11.64 77.71) rotate(-45)"/><line class="cls-1" x1="84.62" y1="97.37" x2="23.1" y2="158.89"/><rect class="cls-1" x="-47.75" y="68.49" width="87" height="3.63" transform="translate(11 79.26) rotate(-45)"/><rect class="cls-4" x="-46.73" y="70.95" width="87" height="0.75" transform="translate(10.58 80.28) rotate(-45)"/><line class="cls-1" x1="87.19" y1="99.94" x2="25.67" y2="161.45"/><rect class="cls-1" x="-45.18" y="71.06" width="87" height="3.63" transform="translate(9.94 81.83) rotate(-45)"/><rect class="cls-4" x="-44.17" y="73.52" width="87" height="0.75" transform="translate(9.52 82.84) rotate(-45)"/><line class="cls-1" x1="89.75" y1="102.5" x2="28.23" y2="164.02"/><rect class="cls-1" x="-42.62" y="73.62" width="87" height="3.63" transform="translate(8.88 84.39) rotate(-45)"/><rect class="cls-4" x="-41.6" y="76.08" width="87" height="0.75" transform="translate(8.45 85.41) rotate(-45)"/><line class="cls-1" x1="92.32" y1="105.07" x2="30.8" y2="166.59"/><rect class="cls-1" x="-40.05" y="76.19" width="87" height="3.63" transform="translate(7.81 86.96) rotate(-45)"/><rect class="cls-4" x="-39.03" y="78.65" width="87" height="0.75" transform="translate(7.39 87.98) rotate(-45)"/><line class="cls-1" x1="94.89" y1="107.64" x2="33.37" y2="169.15"/><rect class="cls-1" x="-37.48" y="78.76" width="87" height="3.63" transform="translate(6.75 89.53) rotate(-45)"/><rect class="cls-4" x="-36.47" y="81.22" width="87" height="0.75" transform="translate(6.33 90.54) rotate(-45)"/><line class="cls-1" x1="97.45" y1="110.2" x2="35.94" y2="171.72"/><rect class="cls-1" x="-34.92" y="81.33" width="87" height="3.63" transform="translate(5.69 92.09) rotate(-45)"/><rect class="cls-4" x="-33.9" y="83.78" width="87" height="0.75" transform="translate(5.26 93.11) rotate(-45)"/><line class="cls-1" x1="100.02" y1="112.77" x2="38.5" y2="174.29"/><rect class="cls-1" x="-32.35" y="83.89" width="87" height="3.63" transform="translate(4.62 94.66) rotate(-45)"/><rect class="cls-4" x="-31.33" y="86.35" width="87" height="0.75" transform="translate(4.2 95.68) rotate(-45)"/><line class="cls-1" x1="102.59" y1="115.34" x2="41.07" y2="176.85"/><rect class="cls-1" x="-29.78" y="86.46" width="87" height="3.63" transform="translate(3.56 97.23) rotate(-45)"/><rect class="cls-4" x="-28.76" y="88.92" width="87" height="0.75" transform="translate(3.14 98.24) rotate(-45)"/><line class="cls-1" x1="105.15" y1="117.9" x2="43.64" y2="179.42"/><rect class="cls-1" x="-27.22" y="89.03" width="87" height="3.63" transform="translate(2.5 99.79) rotate(-45)"/><rect class="cls-4" x="-26.2" y="91.48" width="87" height="0.75" transform="translate(2.07 100.81) rotate(-45)"/><line class="cls-1" x1="107.72" y1="120.47" x2="46.2" y2="181.99"/><rect class="cls-1" x="-24.65" y="91.59" width="87" height="3.63" transform="translate(1.43 102.36) rotate(-45)"/><rect class="cls-4" x="-23.63" y="94.05" width="87" height="0.75" transform="translate(1.01 103.38) rotate(-45)"/><line class="cls-1" x1="110.29" y1="123.04" x2="48.77" y2="184.55"/><rect class="cls-1" x="-22.08" y="94.16" width="87" height="3.63" transform="translate(0.37 104.93) rotate(-45)"/><rect class="cls-4" x="-21.06" y="96.62" width="87" height="0.75" transform="translate(-0.05 105.94) rotate(-45)"/><line class="cls-1" x1="112.85" y1="125.6" x2="51.34" y2="187.12"/><rect class="cls-1" x="-19.52" y="96.73" width="87" height="3.63" transform="translate(-0.69 107.49) rotate(-45)"/><rect class="cls-4" x="-18.5" y="99.18" width="87" height="0.75" transform="translate(-1.11 108.51) rotate(-45)"/><line class="cls-1" x1="115.42" y1="128.17" x2="53.9" y2="189.69"/><rect class="cls-1" x="-16.95" y="99.29" width="87" height="3.63" transform="translate(-1.76 110.06) rotate(-45)"/><rect class="cls-4" x="-15.93" y="101.75" width="87" height="0.75" transform="translate(-2.18 111.08) rotate(-45)"/><line class="cls-1" x1="117.99" y1="130.74" x2="56.47" y2="192.26"/><rect class="cls-1" x="-14.38" y="101.86" width="87" height="3.63" transform="translate(-2.82 112.63) rotate(-45)"/><rect class="cls-4" x="-13.36" y="104.32" width="87" height="0.75" transform="translate(-3.24 113.64) rotate(-45)"/><line class="cls-1" x1="120.55" y1="133.3" x2="59.04" y2="194.82"/><rect class="cls-1" x="-11.82" y="104.43" width="87" height="3.63" transform="translate(-3.88 115.19) rotate(-45)"/><rect class="cls-4" x="-10.8" y="106.88" width="87" height="0.75" transform="translate(-4.3 116.21) rotate(-45)"/><line class="cls-1" x1="123.12" y1="135.87" x2="61.6" y2="197.39"/><rect class="cls-1" x="-9.25" y="106.99" width="87" height="3.63" transform="translate(-4.95 117.76) rotate(-45)"/><rect class="cls-4" x="-8.23" y="109.45" width="87" height="0.75" transform="translate(-5.37 118.78) rotate(-45)"/><line class="cls-1" x1="125.69" y1="138.44" x2="64.17" y2="199.96"/><rect class="cls-1" x="-6.68" y="109.56" width="87" height="3.63" transform="translate(-6.01 120.33) rotate(-45)"/><rect class="cls-4" x="-5.66" y="112.02" width="87" height="0.75" transform="translate(-6.43 121.35) rotate(-45)"/><line class="cls-1" x1="128.26" y1="141" x2="66.74" y2="202.52"/><rect class="cls-1" x="-4.12" y="112.13" width="87" height="3.63" transform="translate(-7.07 122.89) rotate(-45)"/><rect class="cls-4" x="-3.1" y="114.58" width="87" height="0.75" transform="translate(-7.49 123.91) rotate(-45)"/><line class="cls-1" x1="130.82" y1="143.57" x2="69.3" y2="205.09"/><rect class="cls-1" x="-1.55" y="114.69" width="87" height="3.63" transform="translate(-8.14 125.46) rotate(-45)"/><rect class="cls-4" x="-0.53" y="117.15" width="87" height="0.75" transform="translate(-8.56 126.48) rotate(-45)"/><line class="cls-1" x1="133.39" y1="146.14" x2="71.87" y2="207.66"/><rect class="cls-1" x="1.02" y="117.26" width="87" height="3.63" transform="translate(-9.2 128.03) rotate(-45)"/><rect class="cls-4" x="2.04" y="119.72" width="87" height="0.75" transform="translate(-9.62 129.05) rotate(-45)"/><line class="cls-1" x1="135.96" y1="148.7" x2="74.44" y2="210.22"/><rect class="cls-1" x="3.59" y="119.83" width="87" height="3.63" transform="translate(-10.26 130.59) rotate(-45)"/><rect class="cls-4" x="4.6" y="122.29" width="87" height="0.75" transform="translate(-10.68 131.61) rotate(-45)"/><line class="cls-1" x1="138.52" y1="151.27" x2="77" y2="212.79"/><rect class="cls-1" x="6.15" y="122.39" width="87" height="3.63" transform="translate(-11.33 133.16) rotate(-45)"/><rect class="cls-4" x="7.17" y="124.85" width="87" height="0.75" transform="translate(-11.75 134.18) rotate(-45)"/><line class="cls-1" x1="141.09" y1="153.84" x2="79.57" y2="215.36"/><rect class="cls-1" x="8.72" y="124.96" width="87" height="3.63" transform="translate(-12.39 135.73) rotate(-45)"/><rect class="cls-4" x="9.74" y="127.42" width="87" height="0.75" transform="translate(-12.81 136.75) rotate(-45)"/><line class="cls-1" x1="143.66" y1="156.4" x2="82.14" y2="217.92"/><rect class="cls-1" x="11.29" y="127.53" width="87" height="3.63" transform="translate(-13.45 138.29) rotate(-45)"/><rect class="cls-4" x="12.3" y="129.99" width="87" height="0.75" transform="translate(-13.87 139.31) rotate(-45)"/><line class="cls-1" x1="146.22" y1="158.97" x2="84.7" y2="220.49"/><rect class="cls-1" x="13.85" y="130.09" width="87" height="3.63" transform="translate(-14.51 140.86) rotate(-45)"/><rect class="cls-4" x="14.87" y="132.55" width="87" height="0.75" transform="translate(-14.94 141.88) rotate(-45)"/><line class="cls-1" x1="148.79" y1="161.54" x2="87.27" y2="223.06"/><rect class="cls-1" x="16.42" y="132.66" width="87" height="3.63" transform="translate(-15.58 143.43) rotate(-45)"/><rect class="cls-4" x="17.44" y="135.12" width="87" height="0.75" transform="translate(-16 144.45) rotate(-45)"/><line class="cls-1" x1="151.36" y1="164.11" x2="89.84" y2="225.62"/><rect class="cls-1" x="18.99" y="135.23" width="87" height="3.63" transform="translate(-16.64 146) rotate(-45)"/><rect class="cls-4" x="20" y="137.69" width="87" height="0.75" transform="translate(-17.06 147.01) rotate(-45)"/><line class="cls-1" x1="153.92" y1="166.67" x2="92.4" y2="228.19"/><rect class="cls-1" x="21.55" y="137.79" width="87" height="3.63" transform="translate(-17.7 148.56) rotate(-45)"/><rect class="cls-4" x="22.57" y="140.25" width="87" height="0.75" transform="translate(-18.13 149.58) rotate(-45)"/><line class="cls-1" x1="156.49" y1="169.24" x2="94.97" y2="230.76"/><rect class="cls-1" x="24.12" y="140.36" width="87" height="3.63" transform="translate(-18.77 151.13) rotate(-45)"/><rect class="cls-4" x="25.14" y="142.82" width="87" height="0.75" transform="translate(-19.19 152.15) rotate(-45)"/><line class="cls-1" x1="159.06" y1="171.81" x2="97.54" y2="233.32"/><rect class="cls-1" x="26.69" y="142.93" width="87" height="3.63" transform="translate(-19.83 153.7) rotate(-45)"/><rect class="cls-4" x="27.7" y="145.39" width="87" height="0.75" transform="translate(-20.25 154.71) rotate(-45)"/><line class="cls-1" x1="161.62" y1="174.37" x2="100.11" y2="235.89"/><rect class="cls-1" x="29.25" y="145.5" width="87" height="3.63" transform="translate(-20.89 156.26) rotate(-45)"/><rect class="cls-4" x="30.27" y="147.95" width="87" height="0.75" transform="translate(-21.32 157.28) rotate(-45)"/><line class="cls-1" x1="164.19" y1="176.94" x2="102.67" y2="238.46"/><rect class="cls-1" x="31.82" y="148.06" width="87" height="3.63" transform="translate(-21.96 158.83) rotate(-45)"/><rect class="cls-4" x="32.84" y="150.52" width="87" height="0.75" transform="translate(-22.38 159.85) rotate(-45)"/><line class="cls-1" x1="166.76" y1="179.51" x2="105.24" y2="241.02"/><rect class="cls-1" x="34.39" y="150.63" width="87" height="3.63" transform="translate(-23.02 161.4) rotate(-45)"/><rect class="cls-4" x="35.41" y="153.09" width="87" height="0.75" transform="translate(-23.44 162.41) rotate(-45)"/><line class="cls-1" x1="169.32" y1="182.07" x2="107.81" y2="243.59"/><rect class="cls-1" x="36.95" y="153.2" width="87" height="3.63" transform="translate(-24.08 163.96) rotate(-45)"/><rect class="cls-4" x="37.97" y="155.65" width="87" height="0.75" transform="translate(-24.51 164.98) rotate(-45)"/><line class="cls-1" x1="171.89" y1="184.64" x2="110.37" y2="246.16"/><rect class="cls-1" x="39.52" y="155.76" width="87" height="3.63" transform="translate(-25.15 166.53) rotate(-45)"/><rect class="cls-4" x="40.54" y="158.22" width="87" height="0.75" transform="translate(-25.57 167.55) rotate(-45)"/><line class="cls-1" x1="174.46" y1="187.21" x2="112.94" y2="248.72"/><rect class="cls-1" x="42.09" y="158.33" width="87" height="3.63" transform="translate(-26.21 169.1) rotate(-45)"/><rect class="cls-4" x="43.11" y="160.79" width="87" height="0.75" transform="translate(-26.63 170.11) rotate(-45)"/><line class="cls-1" x1="177.02" y1="189.77" x2="115.51" y2="251.29"/><rect class="cls-1" x="44.65" y="160.9" width="87" height="3.63" transform="translate(-27.27 171.66) rotate(-45)"/><rect class="cls-4" x="45.67" y="163.35" width="87" height="0.75" transform="translate(-27.69 172.68) rotate(-45)"/><line class="cls-1" x1="179.59" y1="192.34" x2="118.07" y2="253.86"/><rect class="cls-1" x="47.22" y="163.46" width="87" height="3.63" transform="translate(-28.34 174.23) rotate(-45)"/><rect class="cls-4" x="48.24" y="165.92" width="87" height="0.75" transform="translate(-28.76 175.25) rotate(-45)"/><line class="cls-1" x1="182.16" y1="194.91" x2="120.64" y2="256.43"/><rect class="cls-1" x="49.79" y="166.03" width="87" height="3.63" transform="translate(-29.4 176.8) rotate(-45)"/><rect class="cls-4" x="50.81" y="168.49" width="87" height="0.75" transform="translate(-29.82 177.81) rotate(-45)"/><line class="cls-1" x1="184.72" y1="197.47" x2="123.21" y2="258.99"/><rect class="cls-1" x="52.35" y="168.6" width="87" height="3.63" transform="translate(-30.46 179.36) rotate(-45)"/><rect class="cls-4" x="53.37" y="171.05" width="87" height="0.75" transform="translate(-30.88 180.38) rotate(-45)"/><line class="cls-1" x1="187.29" y1="200.04" x2="125.77" y2="261.56"/><rect class="cls-1" x="54.92" y="171.16" width="87" height="3.63" transform="translate(-31.53 181.93) rotate(-45)"/><rect class="cls-4" x="55.94" y="173.62" width="87" height="0.75" transform="translate(-31.95 182.95) rotate(-45)"/><line class="cls-1" x1="189.86" y1="202.61" x2="128.34" y2="264.13"/><rect class="cls-1" x="57.49" y="173.73" width="87" height="3.63" transform="translate(-32.59 184.5) rotate(-45)"/><rect class="cls-4" x="58.51" y="176.19" width="87" height="0.75" transform="translate(-33.01 185.52) rotate(-45)"/><line class="cls-1" x1="192.42" y1="205.17" x2="130.91" y2="266.69"/><rect class="cls-1" x="60.05" y="176.3" width="87" height="3.63" transform="translate(-33.65 187.06) rotate(-45)"/><rect class="cls-4" x="61.07" y="178.75" width="87" height="0.75" transform="translate(-34.07 188.08) rotate(-45)"/><line class="cls-1" x1="194.99" y1="207.74" x2="133.47" y2="269.26"/><rect class="cls-1" x="62.62" y="178.86" width="87" height="3.63" transform="translate(-34.72 189.63) rotate(-45)"/><rect class="cls-4" x="63.64" y="181.32" width="87" height="0.75" transform="translate(-35.14 190.65) rotate(-45)"/><line class="cls-1" x1="197.56" y1="210.31" x2="136.04" y2="271.83"/><rect class="cls-1" x="65.19" y="181.43" width="87" height="3.63" transform="translate(-35.78 192.2) rotate(-45)"/><rect class="cls-4" x="66.21" y="183.89" width="87" height="0.75" transform="translate(-36.2 193.22) rotate(-45)"/><line class="cls-1" x1="200.13" y1="212.87" x2="138.61" y2="274.39"/><rect class="cls-1" x="67.76" y="184" width="87" height="3.63" transform="translate(-36.84 194.76) rotate(-45)"/><rect class="cls-4" x="68.77" y="186.46" width="87" height="0.75" transform="translate(-37.26 195.78) rotate(-45)"/><line class="cls-1" x1="202.69" y1="215.44" x2="141.17" y2="276.96"/><rect class="cls-1" x="70.32" y="186.56" width="87" height="3.63" transform="translate(-37.91 197.33) rotate(-45)"/><rect class="cls-4" x="71.34" y="189.02" width="87" height="0.75" transform="translate(-38.33 198.35) rotate(-45)"/><line class="cls-1" x1="205.26" y1="218.01" x2="143.74" y2="279.53"/><rect class="cls-1" x="72.89" y="189.13" width="87" height="3.63" transform="translate(-38.97 199.9) rotate(-45)"/><rect class="cls-4" x="73.91" y="191.59" width="87" height="0.75" transform="translate(-39.39 200.92) rotate(-45)"/><line class="cls-1" x1="207.83" y1="220.57" x2="146.31" y2="282.09"/><rect class="cls-1" x="75.46" y="191.7" width="87" height="3.63" transform="translate(-40.03 202.46) rotate(-45)"/><rect class="cls-4" x="76.47" y="194.16" width="87" height="0.75" transform="translate(-40.45 203.48) rotate(-45)"/><line class="cls-1" x1="210.39" y1="223.14" x2="148.87" y2="284.66"/><rect class="cls-1" x="78.02" y="194.26" width="87" height="3.63" transform="translate(-41.09 205.03) rotate(-45)"/><rect class="cls-4" x="79.04" y="196.72" width="87" height="0.75" transform="translate(-41.52 206.05) rotate(-45)"/><line class="cls-1" x1="212.96" y1="225.71" x2="151.44" y2="287.23"/><rect class="cls-1" x="80.59" y="196.83" width="87" height="3.63" transform="translate(-42.16 207.6) rotate(-45)"/><rect class="cls-4" x="81.61" y="199.29" width="87" height="0.75" transform="translate(-42.58 208.62) rotate(-45)"/><line class="cls-1" x1="215.53" y1="228.28" x2="154.01" y2="289.79"/><rect class="cls-1" x="83.16" y="199.4" width="87" height="3.63" transform="translate(-43.22 210.16) rotate(-45)"/><rect class="cls-4" x="84.17" y="201.86" width="87" height="0.75" transform="translate(-43.64 211.18) rotate(-45)"/><line class="cls-1" x1="218.09" y1="230.84" x2="156.57" y2="292.36"/><rect class="cls-1" x="85.72" y="201.96" width="87" height="3.63" transform="translate(-44.28 212.73) rotate(-45)"/><rect class="cls-4" x="86.74" y="204.42" width="87" height="0.75" transform="translate(-44.71 213.75) rotate(-45)"/><line class="cls-1" x1="220.66" y1="233.41" x2="159.14" y2="294.93"/><rect class="cls-1" x="88.29" y="204.53" width="87" height="3.63" transform="translate(-45.35 215.3) rotate(-45)"/><rect class="cls-4" x="89.31" y="206.99" width="87" height="0.75" transform="translate(-45.77 216.32) rotate(-45)"/><line class="cls-1" x1="223.23" y1="235.98" x2="161.71" y2="297.49"/><rect class="cls-1" x="90.86" y="207.1" width="87" height="3.63" transform="translate(-46.41 217.87) rotate(-45)"/><rect class="cls-4" x="91.87" y="209.56" width="87" height="0.75" transform="translate(-46.83 218.88) rotate(-45)"/><line class="cls-1" x1="225.79" y1="238.54" x2="164.28" y2="300.06"/><rect class="cls-1" x="93.42" y="209.67" width="87" height="3.63" transform="translate(-47.47 220.43) rotate(-45)"/><rect class="cls-4" x="94.44" y="212.12" width="87" height="0.75" transform="translate(-47.9 221.45) rotate(-45)"/><line class="cls-1" x1="228.36" y1="241.11" x2="166.84" y2="302.63"/><rect class="cls-1" x="-73.33" y="165.94" width="87" height="3.63" transform="translate(-65.4 89.71) rotate(-45)"/><rect class="cls-4" x="-72.32" y="168.4" width="87" height="0.75" transform="translate(-65.82 90.73) rotate(-45)"/><line class="cls-1" x1="61.6" y1="197.39" x2="0.08" y2="258.91"/><rect class="cls-1" x="-70.77" y="168.51" width="87" height="3.63" transform="translate(-66.46 92.28) rotate(-45)"/><rect class="cls-4" x="-69.75" y="170.97" width="87" height="0.75" transform="translate(-66.89 93.3) rotate(-45)"/><line class="cls-1" x1="64.17" y1="199.96" x2="2.65" y2="261.47"/><rect class="cls-1" x="-68.2" y="171.08" width="87" height="3.63" transform="translate(-67.53 94.85) rotate(-45)"/><rect class="cls-4" x="-67.18" y="173.54" width="87" height="0.75" transform="translate(-67.95 95.86) rotate(-45)"/><line class="cls-1" x1="66.74" y1="202.52" x2="5.22" y2="264.04"/><rect class="cls-1" x="-65.63" y="173.65" width="87" height="3.63" transform="translate(-68.59 97.41) rotate(-45)"/><rect class="cls-4" x="-64.62" y="176.1" width="87" height="0.75" transform="translate(-69.01 98.43) rotate(-45)"/><line class="cls-1" x1="69.3" y1="205.09" x2="7.79" y2="266.61"/><rect class="cls-1" x="-63.07" y="176.21" width="87" height="3.63" transform="translate(-69.65 99.98) rotate(-45)"/><rect class="cls-4" x="-62.05" y="178.67" width="87" height="0.75" transform="translate(-70.08 101) rotate(-45)"/><line class="cls-1" x1="71.87" y1="207.66" x2="10.35" y2="269.17"/><rect class="cls-1" x="-60.5" y="178.78" width="87" height="3.63" transform="translate(-70.72 102.55) rotate(-45)"/><rect class="cls-4" x="-59.48" y="181.24" width="87" height="0.75" transform="translate(-71.14 103.56) rotate(-45)"/><line class="cls-1" x1="74.44" y1="210.22" x2="12.92" y2="271.74"/><rect class="cls-1" x="-57.93" y="181.35" width="87" height="3.63" transform="translate(-71.78 105.11) rotate(-45)"/><rect class="cls-4" x="-56.91" y="183.8" width="87" height="0.75" transform="translate(-72.2 106.13) rotate(-45)"/><line class="cls-1" x1="77" y1="212.79" x2="15.49" y2="274.31"/><rect class="cls-1" x="-55.37" y="183.91" width="87" height="3.63" transform="translate(-72.84 107.68) rotate(-45)"/><rect class="cls-4" x="-54.35" y="186.37" width="87" height="0.75" transform="translate(-73.27 108.7) rotate(-45)"/><line class="cls-1" x1="79.57" y1="215.36" x2="18.05" y2="276.87"/><rect class="cls-1" x="-52.8" y="186.48" width="87" height="3.63" transform="translate(-73.91 110.25) rotate(-45)"/><rect class="cls-4" x="-51.78" y="188.94" width="87" height="0.75" transform="translate(-74.33 111.26) rotate(-45)"/><line class="cls-1" x1="82.14" y1="217.92" x2="20.62" y2="279.44"/><rect class="cls-1" x="-50.23" y="189.05" width="87" height="3.63" transform="translate(-74.97 112.81) rotate(-45)"/><rect class="cls-4" x="-49.21" y="191.5" width="87" height="0.75" transform="translate(-75.39 113.83) rotate(-45)"/><line class="cls-1" x1="84.7" y1="220.49" x2="23.19" y2="282.01"/><rect class="cls-1" x="-47.67" y="191.61" width="87" height="3.63" transform="translate(-76.03 115.38) rotate(-45)"/><rect class="cls-4" x="-46.65" y="194.07" width="87" height="0.75" transform="translate(-76.45 116.4) rotate(-45)"/><line class="cls-1" x1="87.27" y1="223.06" x2="25.75" y2="284.58"/><rect class="cls-1" x="-45.1" y="194.18" width="87" height="3.63" transform="translate(-77.1 117.95) rotate(-45)"/><rect class="cls-4" x="-44.08" y="196.64" width="87" height="0.75" transform="translate(-77.52 118.96) rotate(-45)"/><line class="cls-1" x1="89.84" y1="225.62" x2="28.32" y2="287.14"/><rect class="cls-1" x="-42.53" y="196.75" width="87" height="3.63" transform="translate(-78.16 120.51) rotate(-45)"/><rect class="cls-4" x="-41.51" y="199.2" width="87" height="0.75" transform="translate(-78.58 121.53) rotate(-45)"/><line class="cls-1" x1="92.4" y1="228.19" x2="30.89" y2="289.71"/><rect class="cls-1" x="-39.97" y="199.31" width="87" height="3.63" transform="translate(-79.22 123.08) rotate(-45)"/><rect class="cls-4" x="-38.95" y="201.77" width="87" height="0.75" transform="translate(-79.64 124.1) rotate(-45)"/><line class="cls-1" x1="94.97" y1="230.76" x2="33.45" y2="292.28"/><rect class="cls-1" x="-37.4" y="201.88" width="87" height="3.63" transform="translate(-80.29 125.65) rotate(-45)"/><rect class="cls-4" x="-36.38" y="204.34" width="87" height="0.75" transform="translate(-80.71 126.67) rotate(-45)"/><line class="cls-1" x1="97.54" y1="233.32" x2="36.02" y2="294.84"/><rect class="cls-1" x="-34.83" y="204.45" width="87" height="3.63" transform="translate(-81.35 128.21) rotate(-45)"/><rect class="cls-4" x="-33.81" y="206.9" width="87" height="0.75" transform="translate(-81.77 129.23) rotate(-45)"/><line class="cls-1" x1="100.11" y1="235.89" x2="38.59" y2="297.41"/><rect class="cls-1" x="-32.27" y="207.01" width="87" height="3.63" transform="translate(-82.41 130.78) rotate(-45)"/><rect class="cls-4" x="-31.25" y="209.47" width="87" height="0.75" transform="translate(-82.83 131.8) rotate(-45)"/><line class="cls-1" x1="102.67" y1="238.46" x2="41.15" y2="299.98"/><rect class="cls-1" x="-29.7" y="209.58" width="87" height="3.63" transform="translate(-83.48 133.35) rotate(-45)"/><rect class="cls-4" x="-28.68" y="212.04" width="87" height="0.75" transform="translate(-83.9 134.37) rotate(-45)"/><line class="cls-1" x1="105.24" y1="241.02" x2="43.72" y2="302.54"/><rect class="cls-1" x="-27.13" y="212.15" width="87" height="3.63" transform="translate(-84.54 135.91) rotate(-45)"/><rect class="cls-4" x="-26.11" y="214.61" width="87" height="0.75" transform="translate(-84.96 136.93) rotate(-45)"/><line class="cls-1" x1="107.81" y1="243.59" x2="46.29" y2="305.11"/><rect class="cls-1" x="-24.56" y="214.71" width="87" height="3.63" transform="translate(-85.6 138.48) rotate(-45)"/><rect class="cls-4" x="-23.55" y="217.17" width="87" height="0.75" transform="translate(-86.02 139.5) rotate(-45)"/><line class="cls-1" x1="110.37" y1="246.16" x2="48.85" y2="307.68"/><rect class="cls-1" x="-22" y="217.28" width="87" height="3.63" transform="translate(-86.66 141.05) rotate(-45)"/><rect class="cls-4" x="-20.98" y="219.74" width="87" height="0.75" transform="translate(-87.09 142.07) rotate(-45)"/><line class="cls-1" x1="112.94" y1="248.72" x2="51.42" y2="310.24"/><rect class="cls-1" x="-19.43" y="219.85" width="87" height="3.63" transform="translate(-87.73 143.61) rotate(-45)"/><rect class="cls-4" x="-18.41" y="222.31" width="87" height="0.75" transform="translate(-88.15 144.63) rotate(-45)"/><line class="cls-1" x1="115.51" y1="251.29" x2="53.99" y2="312.81"/><rect class="cls-1" x="-16.86" y="222.41" width="87" height="3.63" transform="translate(-88.79 146.18) rotate(-45)"/><rect class="cls-4" x="-15.85" y="224.87" width="87" height="0.75" transform="translate(-89.21 147.2) rotate(-45)"/><line class="cls-1" x1="118.07" y1="253.86" x2="56.55" y2="315.38"/><rect class="cls-1" x="-14.3" y="224.98" width="87" height="3.63" transform="translate(-89.85 148.75) rotate(-45)"/><rect class="cls-4" x="-13.28" y="227.44" width="87" height="0.75" transform="translate(-90.28 149.77) rotate(-45)"/><line class="cls-1" x1="120.64" y1="256.43" x2="59.12" y2="317.94"/><rect class="cls-1" x="-11.73" y="227.55" width="87" height="3.63" transform="translate(-90.92 151.31) rotate(-45)"/><rect class="cls-4" x="-10.71" y="230.01" width="87" height="0.75" transform="translate(-91.34 152.33) rotate(-45)"/><line class="cls-1" x1="123.21" y1="258.99" x2="61.69" y2="320.51"/><rect class="cls-1" x="-9.16" y="230.11" width="87" height="3.63" transform="translate(-91.98 153.88) rotate(-45)"/><rect class="cls-4" x="-8.15" y="232.57" width="87" height="0.75" transform="translate(-92.4 154.9) rotate(-45)"/><line class="cls-1" x1="125.77" y1="261.56" x2="64.25" y2="323.08"/><rect class="cls-1" x="-6.6" y="232.68" width="87" height="3.63" transform="translate(-93.04 156.45) rotate(-45)"/><rect class="cls-4" x="-5.58" y="235.14" width="87" height="0.75" transform="translate(-93.47 157.47) rotate(-45)"/><line class="cls-1" x1="128.34" y1="264.13" x2="66.82" y2="325.64"/></g></g></svg>