<svg id="Слой_1" data-name="Слой 1" xmlns="http://www.w3.org/2000/svg" xmlns:xlink="http://www.w3.org/1999/xlink" viewBox="0 0 271.91 330.78"><defs><style>.cls-1{fill:none;}.cls-2{opacity:0.6;}.cls-3{clip-path:url(#clip-path);}.cls-4{fill:#fff;}</style><clipPath id="clip-path" transform="translate(61.44 61.62)"><polygon class="cls-1" points="79.81 0.86 115.63 0.86 119.18 24.32 147.51 24.32 147.51 181.37 117.75 181.37 117.75 197.15 79.99 197.17 74.81 196.94 67.75 198.9 57.57 201.14 49.08 202.66 39.41 204.05 28.82 205.02 18.24 205.57 9.33 205.67 0.49 205.44 0.86 37.46 17.32 37.46 17.32 0.33 74.92 0.33 79.81 0.86"/></clipPath></defs><title>flat-06-sold</title><g class="cls-2"><g class="cls-3"><rect class="cls-1" x="98.91" y="-31.39" width="87" height="3.63" transform="translate(124.06 153.66) rotate(-45)"/><rect class="cls-4" x="99.93" y="-28.94" width="87" height="0.75" transform="translate(123.64 154.68) rotate(-45)"/><line class="cls-1" x1="233.32" x2="171.81" y2="61.52"/><rect class="cls-1" x="101.48" y="-28.83" width="87" height="3.63" transform="translate(123 156.22) rotate(-45)"/><rect class="cls-4" x="102.49" y="-26.37" width="87" height="0.75" transform="translate(122.58 157.24) rotate(-45)"/><line class="cls-1" x1="235.89" y1="2.57" x2="174.37" y2="64.09"/><rect class="cls-1" x="104.04" y="-26.26" width="87" height="3.63" transform="translate(121.94 158.79) rotate(-45)"/><rect class="cls-4" x="105.06" y="-23.8" width="87" height="0.75" transform="translate(121.52 159.81) rotate(-45)"/><line class="cls-1" x1="238.46" y1="5.13" x2="176.94" y2="66.65"/><rect class="cls-1" x="106.61" y="-23.69" width="87" height="3.63" transform="translate(120.88 161.36) rotate(-45)"/><rect class="cls-4" x="107.63" y="-21.24" width="87" height="0.75" transform="translate(120.45 162.38) rotate(-45)"/><line class="cls-1" x1="241.02" y1="7.7" x2="179.51" y2="69.22"/><rect class="cls-1" x="109.18" y="-21.13" width="87" height="3.63" transform="translate(119.81 163.92) rotate(-45)"/><rect class="cls-4" x="110.2" y="-18.67" width="87" height="0.75" transform="translate(119.39 164.94) rotate(-45)"/><line class="cls-1" x1="243.59" y1="10.27" x2="182.07" y2="71.79"/><rect class="cls-1" x="111.74" y="-18.56" width="87" height="3.63" transform="translate(118.75 166.49) rotate(-45)"/><rect class="cls-4" x="112.76" y="-16.1" width="87" height="0.75" transform="translate(118.33 167.51) rotate(-45)"/><line class="cls-1" x1="246.16" y1="12.83" x2="184.64" y2="74.35"/><rect class="cls-1" x="114.31" y="-15.99" width="87" height="3.63" transform="translate(117.69 169.06) rotate(-45)"/><rect class="cls-4" x="115.33" y="-13.54" width="87" height="0.75" transform="translate(117.26 170.08) rotate(-45)"/><line class="cls-1" x1="248.72" y1="15.4" x2="187.21" y2="76.92"/><rect class="cls-1" x="116.88" y="-13.43" width="87" height="3.63" transform="translate(116.62 171.62) rotate(-45)"/><rect class="cls-4" x="117.9" y="-10.97" width="87" height="0.75" transform="translate(116.2 172.64) rotate(-45)"/><line class="cls-1" x1="251.29" y1="17.97" x2="189.77" y2="79.49"/><rect class="cls-1" x="119.44" y="-10.86" width="87" height="3.63" transform="translate(115.56 174.19) rotate(-45)"/><rect class="cls-4" x="120.46" y="-8.4" width="87" height="0.75" transform="translate(115.14 175.21) rotate(-45)"/><line class="cls-1" x1="253.86" y1="20.53" x2="192.34" y2="82.05"/><rect class="cls-1" x="122.01" y="-8.29" width="87" height="3.63" transform="translate(114.5 176.76) rotate(-45)"/><rect class="cls-4" x="123.03" y="-5.83" width="87" height="0.75" transform="translate(114.07 177.78) rotate(-45)"/><line class="cls-1" x1="256.43" y1="23.1" x2="194.91" y2="84.62"/><rect class="cls-1" x="124.58" y="-5.73" width="87" height="3.63" transform="translate(113.43 179.33) rotate(-45)"/><rect class="cls-4" x="125.6" y="-3.27" width="87" height="0.75" transform="translate(113.01 180.34) rotate(-45)"/><line class="cls-1" x1="258.99" y1="25.67" x2="197.47" y2="87.19"/><rect class="cls-1" x="127.14" y="-3.16" width="87" height="3.63" transform="translate(112.37 181.89) rotate(-45)"/><rect class="cls-4" x="128.16" y="-0.7" width="87" height="0.75" transform="translate(111.95 182.91) rotate(-45)"/><line class="cls-1" x1="261.56" y1="28.23" x2="200.04" y2="89.75"/><rect class="cls-1" x="129.71" y="-0.59" width="87" height="3.63" transform="translate(111.31 184.46) rotate(-45)"/><rect class="cls-4" x="130.73" y="1.87" width="87" height="0.75" transform="translate(110.88 185.48) rotate(-45)"/><line class="cls-1" x1="264.13" y1="30.8" x2="202.61" y2="92.32"/><rect class="cls-1" x="132.28" y="1.97" width="87" height="3.63" transform="translate(110.24 187.03) rotate(-45)"/><rect class="cls-4" x="133.3" y="4.43" width="87" height="0.75" transform="translate(109.82 188.04) rotate(-45)"/><line class="cls-1" x1="266.69" y1="33.37" x2="205.17" y2="94.89"/><rect class="cls-1" x="134.85" y="4.54" width="87" height="3.63" transform="translate(109.18 189.59) rotate(-45)"/><rect class="cls-4" x="135.86" y="7" width="87" height="0.75" transform="translate(108.76 190.61) rotate(-45)"/><line class="cls-1" x1="269.26" y1="35.94" x2="207.74" y2="97.45"/><rect class="cls-1" x="-19.08" y="-26.35" width="87" height="3.63" transform="translate(85.94 71.71) rotate(-45)"/><rect class="cls-4" x="-18.06" y="-23.89" width="87" height="0.75" transform="translate(85.52 72.72) rotate(-45)"/><line class="cls-1" x1="115.34" y1="5.05" x2="53.82" y2="66.57"/><rect class="cls-1" x="-16.51" y="-23.78" width="87" height="3.63" transform="translate(84.87 74.27) rotate(-45)"/><rect class="cls-4" x="-15.49" y="-21.32" width="87" height="0.75" transform="translate(84.45 75.29) rotate(-45)"/><line class="cls-1" x1="117.9" y1="7.62" x2="56.38" y2="69.13"/><rect class="cls-1" x="-13.94" y="-21.21" width="87" height="3.63" transform="translate(83.81 76.84) rotate(-45)"/><rect class="cls-4" x="-12.93" y="-18.75" width="87" height="0.75" transform="translate(83.39 77.86) rotate(-45)"/><line class="cls-1" x1="120.47" y1="10.18" x2="58.95" y2="71.7"/><rect class="cls-1" x="-11.38" y="-18.65" width="87" height="3.63" transform="translate(82.75 79.41) rotate(-45)"/><rect class="cls-4" x="-10.36" y="-16.19" width="87" height="0.75" transform="translate(82.33 80.42) rotate(-45)"/><line class="cls-1" x1="123.04" y1="12.75" x2="61.52" y2="74.27"/><rect class="cls-1" x="-8.81" y="-16.08" width="87" height="3.63" transform="translate(81.68 81.97) rotate(-45)"/><rect class="cls-4" x="-7.79" y="-13.62" width="87" height="0.75" transform="translate(81.26 82.99) rotate(-45)"/><line class="cls-1" x1="125.6" y1="15.32" x2="64.09" y2="76.83"/><rect class="cls-1" x="-6.24" y="-13.51" width="87" height="3.63" transform="translate(80.62 84.54) rotate(-45)"/><rect class="cls-4" x="-5.23" y="-11.05" width="87" height="0.75" transform="translate(80.2 85.56) rotate(-45)"/><line class="cls-1" x1="128.17" y1="17.88" x2="66.65" y2="79.4"/><rect class="cls-1" x="-3.68" y="-10.94" width="87" height="3.63" transform="translate(79.56 87.11) rotate(-45)"/><rect class="cls-4" x="-2.66" y="-8.49" width="87" height="0.75" transform="translate(79.14 88.13) rotate(-45)"/><line class="cls-1" x1="130.74" y1="20.45" x2="69.22" y2="81.97"/><rect class="cls-1" x="-1.11" y="-8.38" width="87" height="3.63" transform="translate(78.49 89.67) rotate(-45)"/><rect class="cls-4" x="-0.09" y="-5.92" width="87" height="0.75" transform="translate(78.07 90.69) rotate(-45)"/><line class="cls-1" x1="133.3" y1="23.02" x2="71.79" y2="84.53"/><rect class="cls-1" x="1.46" y="-5.81" width="87" height="3.63" transform="translate(77.43 92.24) rotate(-45)"/><rect class="cls-4" x="2.47" y="-3.35" width="87" height="0.75" transform="translate(77.01 93.26) rotate(-45)"/><line class="cls-1" x1="135.87" y1="25.58" x2="74.35" y2="87.1"/><rect class="cls-1" x="4.02" y="-3.24" width="87" height="3.63" transform="translate(76.37 94.81) rotate(-45)"/><rect class="cls-4" x="5.04" y="-0.79" width="87" height="0.75" transform="translate(75.95 95.83) rotate(-45)"/><line class="cls-1" x1="138.44" y1="28.15" x2="76.92" y2="89.67"/><rect class="cls-1" x="6.59" y="-0.68" width="87" height="3.63" transform="translate(75.31 97.37) rotate(-45)"/><rect class="cls-4" x="7.61" y="1.78" width="87" height="0.75" transform="translate(74.88 98.39) rotate(-45)"/><line class="cls-1" x1="141" y1="30.72" x2="79.49" y2="92.24"/><rect class="cls-1" x="9.16" y="1.89" width="87" height="3.63" transform="translate(74.24 99.94) rotate(-45)"/><rect class="cls-4" x="10.18" y="4.35" width="87" height="0.75" transform="translate(73.82 100.96) rotate(-45)"/><line class="cls-1" x1="143.57" y1="33.28" x2="82.05" y2="94.8"/><rect class="cls-1" x="11.72" y="4.46" width="87" height="3.63" transform="translate(73.18 102.51) rotate(-45)"/><rect class="cls-4" x="12.74" y="6.91" width="87" height="0.75" transform="translate(72.76 103.53) rotate(-45)"/><line class="cls-1" x1="146.14" y1="35.85" x2="84.62" y2="97.37"/><rect class="cls-1" x="14.29" y="7.02" width="87" height="3.63" transform="translate(72.12 105.07) rotate(-45)"/><rect class="cls-4" x="15.31" y="9.48" width="87" height="0.75" transform="translate(71.69 106.09) rotate(-45)"/><line class="cls-1" x1="148.7" y1="38.42" x2="87.19" y2="99.94"/><rect class="cls-1" x="16.86" y="9.59" width="87" height="3.63" transform="translate(71.05 107.64) rotate(-45)"/><rect class="cls-4" x="17.88" y="12.05" width="87" height="0.75" transform="translate(70.63 108.66) rotate(-45)"/><line class="cls-1" x1="151.27" y1="40.98" x2="89.75" y2="102.5"/><rect class="cls-1" x="19.42" y="12.16" width="87" height="3.63" transform="translate(69.99 110.21) rotate(-45)"/><rect class="cls-4" x="20.44" y="14.61" width="87" height="0.75" transform="translate(69.57 111.23) rotate(-45)"/><line class="cls-1" x1="153.84" y1="43.55" x2="92.32" y2="105.07"/><rect class="cls-1" x="21.99" y="14.72" width="87" height="3.63" transform="translate(68.93 112.77) rotate(-45)"/><rect class="cls-4" x="23.01" y="17.18" width="87" height="0.75" transform="translate(68.5 113.79) rotate(-45)"/><line class="cls-1" x1="156.4" y1="46.12" x2="94.89" y2="107.64"/><rect class="cls-1" x="24.56" y="17.29" width="87" height="3.63" transform="translate(67.86 115.34) rotate(-45)"/><rect class="cls-4" x="25.58" y="19.75" width="87" height="0.75" transform="translate(67.44 116.36) rotate(-45)"/><line class="cls-1" x1="158.97" y1="48.68" x2="97.45" y2="110.2"/><rect class="cls-1" x="27.12" y="19.86" width="87" height="3.63" transform="translate(66.8 117.91) rotate(-45)"/><rect class="cls-4" x="28.14" y="22.32" width="87" height="0.75" transform="translate(66.38 118.93) rotate(-45)"/><line class="cls-1" x1="161.54" y1="51.25" x2="100.02" y2="112.77"/><rect class="cls-1" x="29.69" y="22.42" width="87" height="3.63" transform="translate(65.74 120.48) rotate(-45)"/><rect class="cls-4" x="30.71" y="24.88" width="87" height="0.75" transform="translate(65.31 121.49) rotate(-45)"/><line class="cls-1" x1="164.11" y1="53.82" x2="102.59" y2="115.34"/><rect class="cls-1" x="32.26" y="24.99" width="87" height="3.63" transform="translate(64.67 123.04) rotate(-45)"/><rect class="cls-4" x="33.28" y="27.45" width="87" height="0.75" transform="translate(64.25 124.06) rotate(-45)"/><line class="cls-1" x1="166.67" y1="56.38" x2="105.15" y2="117.9"/><rect class="cls-1" x="34.82" y="27.56" width="87" height="3.63" transform="translate(63.61 125.61) rotate(-45)"/><rect class="cls-4" x="35.84" y="30.02" width="87" height="0.75" transform="translate(63.19 126.63) rotate(-45)"/><line class="cls-1" x1="169.24" y1="58.95" x2="107.72" y2="120.47"/><rect class="cls-1" x="37.39" y="30.12" width="87" height="3.63" transform="translate(62.55 128.18) rotate(-45)"/><rect class="cls-4" x="38.41" y="32.58" width="87" height="0.75" transform="translate(62.12 129.19) rotate(-45)"/><line class="cls-1" x1="171.81" y1="61.52" x2="110.29" y2="123.04"/><rect class="cls-1" x="39.96" y="32.69" width="87" height="3.63" transform="translate(61.48 130.74) rotate(-45)"/><rect class="cls-4" x="40.98" y="35.15" width="87" height="0.75" transform="translate(61.06 131.76) rotate(-45)"/><line class="cls-1" x1="174.37" y1="64.09" x2="112.85" y2="125.6"/><rect class="cls-1" x="42.53" y="35.26" width="87" height="3.63" transform="translate(60.42 133.31) rotate(-45)"/><rect class="cls-4" x="43.54" y="37.72" width="87" height="0.75" transform="translate(60 134.33) rotate(-45)"/><line class="cls-1" x1="176.94" y1="66.65" x2="115.42" y2="128.17"/><rect class="cls-1" x="45.09" y="37.82" width="87" height="3.63" transform="translate(59.36 135.88) rotate(-45)"/><rect class="cls-4" x="46.11" y="40.28" width="87" height="0.75" transform="translate(58.94 136.89) rotate(-45)"/><line class="cls-1" x1="179.51" y1="69.22" x2="117.99" y2="130.74"/><rect class="cls-1" x="47.66" y="40.39" width="87" height="3.63" transform="translate(58.29 138.44) rotate(-45)"/><rect class="cls-4" x="48.68" y="42.85" width="87" height="0.75" transform="translate(57.87 139.46) rotate(-45)"/><line class="cls-1" x1="182.07" y1="71.79" x2="120.55" y2="133.3"/><rect class="cls-1" x="50.23" y="42.96" width="87" height="3.63" transform="translate(57.23 141.01) rotate(-45)"/><rect class="cls-4" x="51.24" y="45.42" width="87" height="0.75" transform="translate(56.81 142.03) rotate(-45)"/><line class="cls-1" x1="184.64" y1="74.35" x2="123.12" y2="135.87"/><rect class="cls-1" x="52.79" y="45.52" width="87" height="3.63" transform="translate(56.17 143.58) rotate(-45)"/><rect class="cls-4" x="53.81" y="47.98" width="87" height="0.75" transform="translate(55.75 144.59) rotate(-45)"/><line class="cls-1" x1="187.21" y1="76.92" x2="125.69" y2="138.44"/><rect class="cls-1" x="55.36" y="48.09" width="87" height="3.63" transform="translate(55.1 146.14) rotate(-45)"/><rect class="cls-4" x="56.38" y="50.55" width="87" height="0.75" transform="translate(54.68 147.16) rotate(-45)"/><line class="cls-1" x1="189.77" y1="79.49" x2="128.26" y2="141"/><rect class="cls-1" x="57.93" y="50.66" width="87" height="3.63" transform="translate(54.04 148.71) rotate(-45)"/><rect class="cls-4" x="58.94" y="53.12" width="87" height="0.75" transform="translate(53.62 149.73) rotate(-45)"/><line class="cls-1" x1="192.34" y1="82.05" x2="130.82" y2="143.57"/><rect class="cls-1" x="60.49" y="53.23" width="87" height="3.63" transform="translate(52.98 151.28) rotate(-45)"/><rect class="cls-4" x="61.51" y="55.68" width="87" height="0.75" transform="translate(52.56 152.29) rotate(-45)"/><line class="cls-1" x1="194.91" y1="84.62" x2="133.39" y2="146.14"/><rect class="cls-1" x="63.06" y="55.79" width="87" height="3.63" transform="translate(51.91 153.84) rotate(-45)"/><rect class="cls-4" x="64.08" y="58.25" width="87" height="0.75" transform="translate(51.49 154.86) rotate(-45)"/><line class="cls-1" x1="197.47" y1="87.19" x2="135.96" y2="148.7"/><rect class="cls-1" x="65.63" y="58.36" width="87" height="3.63" transform="translate(50.85 156.41) rotate(-45)"/><rect class="cls-4" x="66.64" y="60.82" width="87" height="0.75" transform="translate(50.43 157.43) rotate(-45)"/><line class="cls-1" x1="200.04" y1="89.75" x2="138.52" y2="151.27"/><rect class="cls-1" x="68.19" y="60.93" width="87" height="3.63" transform="translate(49.79 158.98) rotate(-45)"/><rect class="cls-4" x="69.21" y="63.38" width="87" height="0.75" transform="translate(49.37 160) rotate(-45)"/><line class="cls-1" x1="202.61" y1="92.32" x2="141.09" y2="153.84"/><rect class="cls-1" x="70.76" y="63.49" width="87" height="3.63" transform="translate(48.73 161.54) rotate(-45)"/><rect class="cls-4" x="71.78" y="65.95" width="87" height="0.75" transform="translate(48.3 162.56) rotate(-45)"/><line class="cls-1" x1="205.17" y1="94.89" x2="143.66" y2="156.4"/><rect class="cls-1" x="73.33" y="66.06" width="87" height="3.63" transform="translate(47.66 164.11) rotate(-45)"/><rect class="cls-4" x="74.35" y="68.52" width="87" height="0.75" transform="translate(47.24 165.13) rotate(-45)"/><line class="cls-1" x1="207.74" y1="97.45" x2="146.22" y2="158.97"/><rect class="cls-1" x="75.89" y="68.63" width="87" height="3.63" transform="translate(46.6 166.68) rotate(-45)"/><rect class="cls-4" x="76.91" y="71.08" width="87" height="0.75" transform="translate(46.18 167.7) rotate(-45)"/><line class="cls-1" x1="210.31" y1="100.02" x2="148.79" y2="161.54"/><rect class="cls-1" x="78.46" y="71.19" width="87" height="3.63" transform="translate(45.54 169.24) rotate(-45)"/><rect class="cls-4" x="79.48" y="73.65" width="87" height="0.75" transform="translate(45.11 170.26) rotate(-45)"/><line class="cls-1" x1="212.87" y1="102.59" x2="151.36" y2="164.11"/><rect class="cls-1" x="81.03" y="73.76" width="87" height="3.63" transform="translate(44.47 171.81) rotate(-45)"/><rect class="cls-4" x="82.05" y="76.22" width="87" height="0.75" transform="translate(44.05 172.83) rotate(-45)"/><line class="cls-1" x1="215.44" y1="105.15" x2="153.92" y2="166.67"/><rect class="cls-1" x="83.59" y="76.33" width="87" height="3.63" transform="translate(43.41 174.38) rotate(-45)"/><rect class="cls-4" x="84.61" y="78.78" width="87" height="0.75" transform="translate(42.99 175.4) rotate(-45)"/><line class="cls-1" x1="218.01" y1="107.72" x2="156.49" y2="169.24"/><rect class="cls-1" x="86.16" y="78.89" width="87" height="3.63" transform="translate(42.35 176.94) rotate(-45)"/><rect class="cls-4" x="87.18" y="81.35" width="87" height="0.75" transform="translate(41.92 177.96) rotate(-45)"/><line class="cls-1" x1="220.57" y1="110.29" x2="159.06" y2="171.81"/><rect class="cls-1" x="88.73" y="81.46" width="87" height="3.63" transform="translate(41.28 179.51) rotate(-45)"/><rect class="cls-4" x="89.75" y="83.92" width="87" height="0.75" transform="translate(40.86 180.53) rotate(-45)"/><line class="cls-1" x1="223.14" y1="112.85" x2="161.62" y2="174.37"/><rect class="cls-1" x="91.29" y="84.03" width="87" height="3.63" transform="translate(40.22 182.08) rotate(-45)"/><rect class="cls-4" x="92.31" y="86.49" width="87" height="0.75" transform="translate(39.8 183.1) rotate(-45)"/><line class="cls-1" x1="225.71" y1="115.42" x2="164.19" y2="176.94"/><rect class="cls-1" x="93.86" y="86.59" width="87" height="3.63" transform="translate(39.16 184.65) rotate(-45)"/><rect class="cls-4" x="94.88" y="89.05" width="87" height="0.75" transform="translate(38.73 185.66) rotate(-45)"/><line class="cls-1" x1="228.28" y1="117.99" x2="166.76" y2="179.51"/><rect class="cls-1" x="96.43" y="89.16" width="87" height="3.63" transform="translate(38.09 187.21) rotate(-45)"/><rect class="cls-4" x="97.45" y="91.62" width="87" height="0.75" transform="translate(37.67 188.23) rotate(-45)"/><line class="cls-1" x1="230.84" y1="120.55" x2="169.32" y2="182.07"/><rect class="cls-1" x="98.99" y="91.73" width="87" height="3.63" transform="translate(37.03 189.78) rotate(-45)"/><rect class="cls-4" x="100.01" y="94.19" width="87" height="0.75" transform="translate(36.61 190.8) rotate(-45)"/><line class="cls-1" x1="233.41" y1="123.12" x2="171.89" y2="184.64"/><rect class="cls-1" x="101.56" y="94.29" width="87" height="3.63" transform="translate(35.97 192.35) rotate(-45)"/><rect class="cls-4" x="102.58" y="96.75" width="87" height="0.75" transform="translate(35.54 193.36) rotate(-45)"/><line class="cls-1" x1="235.98" y1="125.69" x2="174.46" y2="187.21"/><rect class="cls-1" x="104.13" y="96.86" width="87" height="3.63" transform="translate(34.9 194.91) rotate(-45)"/><rect class="cls-4" x="105.15" y="99.32" width="87" height="0.75" transform="translate(34.48 195.93) rotate(-45)"/><line class="cls-1" x1="238.54" y1="128.26" x2="177.02" y2="189.77"/><rect class="cls-1" x="106.7" y="99.43" width="87" height="3.63" transform="translate(33.84 197.48) rotate(-45)"/><rect class="cls-4" x="107.71" y="101.89" width="87" height="0.75" transform="translate(33.42 198.5) rotate(-45)"/><line class="cls-1" x1="241.11" y1="130.82" x2="179.59" y2="192.34"/><rect class="cls-1" x="109.26" y="101.99" width="87" height="3.63" transform="translate(32.78 200.05) rotate(-45)"/><rect class="cls-4" x="110.28" y="104.45" width="87" height="0.75" transform="translate(32.36 201.06) rotate(-45)"/><line class="cls-1" x1="243.68" y1="133.39" x2="182.16" y2="194.91"/><rect class="cls-1" x="111.83" y="104.56" width="87" height="3.63" transform="translate(31.71 202.61) rotate(-45)"/><rect class="cls-4" x="112.85" y="107.02" width="87" height="0.75" transform="translate(31.29 203.63) rotate(-45)"/><line class="cls-1" x1="246.24" y1="135.96" x2="184.72" y2="197.47"/><rect class="cls-1" x="114.4" y="107.13" width="87" height="3.63" transform="translate(30.65 205.18) rotate(-45)"/><rect class="cls-4" x="115.41" y="109.59" width="87" height="0.75" transform="translate(30.23 206.2) rotate(-45)"/><line class="cls-1" x1="248.81" y1="138.52" x2="187.29" y2="200.04"/><rect class="cls-1" x="116.96" y="109.69" width="87" height="3.63" transform="translate(29.59 207.75) rotate(-45)"/><rect class="cls-4" x="117.98" y="112.15" width="87" height="0.75" transform="translate(29.17 208.76) rotate(-45)"/><line class="cls-1" x1="251.38" y1="141.09" x2="189.86" y2="202.61"/><rect class="cls-1" x="119.53" y="112.26" width="87" height="3.63" transform="translate(28.52 210.31) rotate(-45)"/><rect class="cls-4" x="120.55" y="114.72" width="87" height="0.75" transform="translate(28.1 211.33) rotate(-45)"/><line class="cls-1" x1="253.94" y1="143.66" x2="192.42" y2="205.17"/><rect class="cls-1" x="122.1" y="114.83" width="87" height="3.63" transform="translate(27.46 212.88) rotate(-45)"/><rect class="cls-4" x="123.11" y="117.29" width="87" height="0.75" transform="translate(27.04 213.9) rotate(-45)"/><line class="cls-1" x1="256.51" y1="146.22" x2="194.99" y2="207.74"/><rect class="cls-1" x="124.66" y="117.4" width="87" height="3.63" transform="translate(26.4 215.45) rotate(-45)"/><rect class="cls-4" x="125.68" y="119.85" width="87" height="0.75" transform="translate(25.98 216.46) rotate(-45)"/><line class="cls-1" x1="259.08" y1="148.79" x2="197.56" y2="210.31"/><rect class="cls-1" x="127.23" y="119.96" width="87" height="3.63" transform="translate(25.33 218.01) rotate(-45)"/><rect class="cls-4" x="128.25" y="122.42" width="87" height="0.75" transform="translate(24.91 219.03) rotate(-45)"/><line class="cls-1" x1="261.64" y1="151.36" x2="200.13" y2="212.87"/><rect class="cls-1" x="129.8" y="122.53" width="87" height="3.63" transform="translate(24.27 220.58) rotate(-45)"/><rect class="cls-4" x="130.81" y="124.99" width="87" height="0.75" transform="translate(23.85 221.6) rotate(-45)"/><line class="cls-1" x1="264.21" y1="153.92" x2="202.69" y2="215.44"/><rect class="cls-1" x="132.36" y="125.1" width="87" height="3.63" transform="translate(23.21 223.15) rotate(-45)"/><rect class="cls-4" x="133.38" y="127.55" width="87" height="0.75" transform="translate(22.79 224.17) rotate(-45)"/><line class="cls-1" x1="266.78" y1="156.49" x2="205.26" y2="218.01"/><rect class="cls-1" x="134.93" y="127.66" width="87" height="3.63" transform="translate(22.14 225.71) rotate(-45)"/><rect class="cls-4" x="135.95" y="130.12" width="87" height="0.75" transform="translate(21.72 226.73) rotate(-45)"/><line class="cls-1" x1="269.34" y1="159.06" x2="207.83" y2="220.57"/><rect class="cls-1" x="-72.9" y="42.87" width="87" height="3.63" transform="translate(21.23 53.92) rotate(-45)"/><rect class="cls-4" x="-71.88" y="45.33" width="87" height="0.75" transform="translate(20.81 54.94) rotate(-45)"/><line class="cls-1" x1="61.52" y1="74.27" y2="135.79"/><rect class="cls-1" x="-70.33" y="45.44" width="87" height="3.63" transform="translate(20.17 56.49) rotate(-45)"/><rect class="cls-4" x="-69.31" y="47.9" width="87" height="0.75" transform="translate(19.74 57.51) rotate(-45)"/><line class="cls-1" x1="64.09" y1="76.83" x2="2.57" y2="138.35"/><rect class="cls-1" x="-67.76" y="48.01" width="87" height="3.63" transform="translate(19.1 59.06) rotate(-45)"/><rect class="cls-4" x="-66.74" y="50.47" width="87" height="0.75" transform="translate(18.68 60.08) rotate(-45)"/><line class="cls-1" x1="66.65" y1="79.4" x2="5.13" y2="140.92"/><rect class="cls-1" x="-65.2" y="50.57" width="87" height="3.63" transform="translate(18.04 61.63) rotate(-45)"/><rect class="cls-4" x="-64.18" y="53.03" width="87" height="0.75" transform="translate(17.62 62.64) rotate(-45)"/><line class="cls-1" x1="69.22" y1="81.97" x2="7.7" y2="143.49"/><rect class="cls-1" x="-62.63" y="53.14" width="87" height="3.63" transform="translate(16.98 64.19) rotate(-45)"/><rect class="cls-4" x="-61.61" y="55.6" width="87" height="0.75" transform="translate(16.55 65.21) rotate(-45)"/><line class="cls-1" x1="71.79" y1="84.53" x2="10.27" y2="146.05"/><rect class="cls-1" x="-60.06" y="55.71" width="87" height="3.63" transform="translate(15.91 66.76) rotate(-45)"/><rect class="cls-4" x="-59.04" y="58.17" width="87" height="0.75" transform="translate(15.49 67.78) rotate(-45)"/><line class="cls-1" x1="74.35" y1="87.1" x2="12.83" y2="148.62"/><rect class="cls-1" x="-57.5" y="58.27" width="87" height="3.63" transform="translate(14.85 69.33) rotate(-45)"/><rect class="cls-4" x="-56.48" y="60.73" width="87" height="0.75" transform="translate(14.43 70.34) rotate(-45)"/><line class="cls-1" x1="76.92" y1="89.67" x2="15.4" y2="151.19"/><rect class="cls-1" x="-54.93" y="60.84" width="87" height="3.63" transform="translate(13.79 71.89) rotate(-45)"/><rect class="cls-4" x="-53.91" y="63.3" width="87" height="0.75" transform="translate(13.37 72.91) rotate(-45)"/><line class="cls-1" x1="79.49" y1="92.24" x2="17.97" y2="153.75"/><rect class="cls-1" x="-52.36" y="63.41" width="87" height="3.63" transform="translate(12.72 74.46) rotate(-45)"/><rect class="cls-4" x="-51.34" y="65.87" width="87" height="0.75" transform="translate(12.3 75.48) rotate(-45)"/><line class="cls-1" x1="82.05" y1="94.8" x2="20.53" y2="156.32"/><rect class="cls-1" x="-49.79" y="65.97" width="87" height="3.63" transform="translate(11.66 77.03) rotate(-45)"/><rect class="cls-4" x="-48.78" y="68.43" width="87" height="0.75" transform="translate(11.24 78.04) rotate(-45)"/><line class="cls-1" x1="84.62" y1="97.37" x2="23.1" y2="158.89"/><rect class="cls-1" x="-47.23" y="68.54" width="87" height="3.63" transform="translate(10.6 79.59) rotate(-45)"/><rect class="cls-4" x="-46.21" y="71" width="87" height="0.75" transform="translate(10.18 80.61) rotate(-45)"/><line class="cls-1" x1="87.19" y1="99.94" x2="25.67" y2="161.45"/><rect class="cls-1" x="-44.66" y="71.11" width="87" height="3.63" transform="translate(9.53 82.16) rotate(-45)"/><rect class="cls-4" x="-43.64" y="73.57" width="87" height="0.75" transform="translate(9.11 83.18) rotate(-45)"/><line class="cls-1" x1="89.75" y1="102.5" x2="28.23" y2="164.02"/><rect class="cls-1" x="-42.09" y="73.67" width="87" height="3.63" transform="translate(8.47 84.73) rotate(-45)"/><rect class="cls-4" x="-41.08" y="76.13" width="87" height="0.75" transform="translate(8.05 85.74) rotate(-45)"/><line class="cls-1" x1="92.32" y1="105.07" x2="30.8" y2="166.59"/><rect class="cls-1" x="-39.53" y="76.24" width="87" height="3.63" transform="translate(7.41 87.29) rotate(-45)"/><rect class="cls-4" x="-38.51" y="78.7" width="87" height="0.75" transform="translate(6.99 88.31) rotate(-45)"/><line class="cls-1" x1="94.89" y1="107.64" x2="33.37" y2="169.15"/><rect class="cls-1" x="-36.96" y="78.81" width="87" height="3.63" transform="translate(6.34 89.86) rotate(-45)"/><rect class="cls-4" x="-35.94" y="81.27" width="87" height="0.75" transform="translate(5.92 90.88) rotate(-45)"/><line class="cls-1" x1="97.45" y1="110.2" x2="35.94" y2="171.72"/><rect class="cls-1" x="-34.39" y="81.38" width="87" height="3.63" transform="translate(5.28 92.43) rotate(-45)"/><rect class="cls-4" x="-33.38" y="83.83" width="87" height="0.75" transform="translate(4.86 93.44) rotate(-45)"/><line class="cls-1" x1="100.02" y1="112.77" x2="38.5" y2="174.29"/><rect class="cls-1" x="-31.83" y="83.94" width="87" height="3.63" transform="translate(4.22 94.99) rotate(-45)"/><rect class="cls-4" x="-30.81" y="86.4" width="87" height="0.75" transform="translate(3.8 96.01) rotate(-45)"/><line class="cls-1" x1="102.59" y1="115.34" x2="41.07" y2="176.85"/><rect class="cls-1" x="-29.26" y="86.51" width="87" height="3.63" transform="translate(3.15 97.56) rotate(-45)"/><rect class="cls-4" x="-28.24" y="88.97" width="87" height="0.75" transform="translate(2.73 98.58) rotate(-45)"/><line class="cls-1" x1="105.15" y1="117.9" x2="43.64" y2="179.42"/><rect class="cls-1" x="-26.69" y="89.08" width="87" height="3.63" transform="translate(2.09 100.13) rotate(-45)"/><rect class="cls-4" x="-25.68" y="91.53" width="87" height="0.75" transform="translate(1.67 101.15) rotate(-45)"/><line class="cls-1" x1="107.72" y1="120.47" x2="46.2" y2="181.99"/><rect class="cls-1" x="-24.13" y="91.64" width="87" height="3.63" transform="translate(1.03 102.69) rotate(-45)"/><rect class="cls-4" x="-23.11" y="94.1" width="87" height="0.75" transform="translate(0.61 103.71) rotate(-45)"/><line class="cls-1" x1="110.29" y1="123.04" x2="48.77" y2="184.55"/><rect class="cls-1" x="-21.56" y="94.21" width="87" height="3.63" transform="translate(-0.03 105.26) rotate(-45)"/><rect class="cls-4" x="-20.54" y="96.67" width="87" height="0.75" transform="translate(-0.46 106.28) rotate(-45)"/><line class="cls-1" x1="112.85" y1="125.6" x2="51.34" y2="187.12"/><rect class="cls-1" x="-18.99" y="96.78" width="87" height="3.63" transform="translate(-1.1 107.83) rotate(-45)"/><rect class="cls-4" x="-17.97" y="99.23" width="87" height="0.75" transform="translate(-1.52 108.85) rotate(-45)"/><line class="cls-1" x1="115.42" y1="128.17" x2="53.9" y2="189.69"/><rect class="cls-1" x="-16.43" y="99.34" width="87" height="3.63" transform="translate(-2.16 110.39) rotate(-45)"/><rect class="cls-4" x="-15.41" y="101.8" width="87" height="0.75" transform="translate(-2.58 111.41) rotate(-45)"/><line class="cls-1" x1="117.99" y1="130.74" x2="56.47" y2="192.26"/><rect class="cls-1" x="-13.86" y="101.91" width="87" height="3.63" transform="translate(-3.22 112.96) rotate(-45)"/><rect class="cls-4" x="-12.84" y="104.37" width="87" height="0.75" transform="translate(-3.65 113.98) rotate(-45)"/><line class="cls-1" x1="120.55" y1="133.3" x2="59.04" y2="194.82"/><rect class="cls-1" x="-11.29" y="104.48" width="87" height="3.63" transform="translate(-4.29 115.53) rotate(-45)"/><rect class="cls-4" x="-10.27" y="106.93" width="87" height="0.75" transform="translate(-4.71 116.55) rotate(-45)"/><line class="cls-1" x1="123.12" y1="135.87" x2="61.6" y2="197.39"/><rect class="cls-1" x="-8.73" y="107.04" width="87" height="3.63" transform="translate(-5.35 118.09) rotate(-45)"/><rect class="cls-4" x="-7.71" y="109.5" width="87" height="0.75" transform="translate(-5.77 119.11) rotate(-45)"/><line class="cls-1" x1="125.69" y1="138.44" x2="64.17" y2="199.96"/><rect class="cls-1" x="-6.16" y="109.61" width="87" height="3.63" transform="translate(-6.41 120.66) rotate(-45)"/><rect class="cls-4" x="-5.14" y="112.07" width="87" height="0.75" transform="translate(-6.84 121.68) rotate(-45)"/><line class="cls-1" x1="128.26" y1="141" x2="66.74" y2="202.52"/><rect class="cls-1" x="-3.59" y="112.18" width="87" height="3.63" transform="translate(-7.48 123.23) rotate(-45)"/><rect class="cls-4" x="-2.57" y="114.63" width="87" height="0.75" transform="translate(-7.9 124.25) rotate(-45)"/><line class="cls-1" x1="130.82" y1="143.57" x2="69.3" y2="205.09"/><rect class="cls-1" x="-1.03" y="114.74" width="87" height="3.63" transform="translate(-8.54 125.8) rotate(-45)"/><rect class="cls-4" x="-0.01" y="117.2" width="87" height="0.75" transform="translate(-8.96 126.81) rotate(-45)"/><line class="cls-1" x1="133.39" y1="146.14" x2="71.87" y2="207.66"/><rect class="cls-1" x="1.54" y="117.31" width="87" height="3.63" transform="translate(-9.6 128.36) rotate(-45)"/><rect class="cls-4" x="2.56" y="119.77" width="87" height="0.75" transform="translate(-10.03 129.38) rotate(-45)"/><line class="cls-1" x1="135.96" y1="148.7" x2="74.44" y2="210.22"/><rect class="cls-1" x="4.11" y="119.88" width="87" height="3.63" transform="translate(-10.67 130.93) rotate(-45)"/><rect class="cls-4" x="5.13" y="122.34" width="87" height="0.75" transform="translate(-11.09 131.95) rotate(-45)"/><line class="cls-1" x1="138.52" y1="151.27" x2="77" y2="212.79"/><rect class="cls-1" x="6.67" y="122.44" width="87" height="3.63" transform="translate(-11.73 133.5) rotate(-45)"/><rect class="cls-4" x="7.69" y="124.9" width="87" height="0.75" transform="translate(-12.15 134.51) rotate(-45)"/><line class="cls-1" x1="141.09" y1="153.84" x2="79.57" y2="215.36"/><rect class="cls-1" x="9.24" y="125.01" width="87" height="3.63" transform="translate(-12.79 136.06) rotate(-45)"/><rect class="cls-4" x="10.26" y="127.47" width="87" height="0.75" transform="translate(-13.22 137.08) rotate(-45)"/><line class="cls-1" x1="143.66" y1="156.4" x2="82.14" y2="217.92"/><rect class="cls-1" x="11.81" y="127.58" width="87" height="3.63" transform="translate(-13.86 138.63) rotate(-45)"/><rect class="cls-4" x="12.83" y="130.04" width="87" height="0.75" transform="translate(-14.28 139.65) rotate(-45)"/><line class="cls-1" x1="146.22" y1="158.97" x2="84.7" y2="220.49"/><rect class="cls-1" x="14.38" y="130.14" width="87" height="3.63" transform="translate(-14.92 141.2) rotate(-45)"/><rect class="cls-4" x="15.39" y="132.6" width="87" height="0.75" transform="translate(-15.34 142.21) rotate(-45)"/><line class="cls-1" x1="148.79" y1="161.54" x2="87.27" y2="223.06"/><rect class="cls-1" x="16.94" y="132.71" width="87" height="3.63" transform="translate(-15.98 143.76) rotate(-45)"/><rect class="cls-4" x="17.96" y="135.17" width="87" height="0.75" transform="translate(-16.4 144.78) rotate(-45)"/><line class="cls-1" x1="151.36" y1="164.11" x2="89.84" y2="225.62"/><rect class="cls-1" x="19.51" y="135.28" width="87" height="3.63" transform="translate(-17.05 146.33) rotate(-45)"/><rect class="cls-4" x="20.53" y="137.74" width="87" height="0.75" transform="translate(-17.47 147.35) rotate(-45)"/><line class="cls-1" x1="153.92" y1="166.67" x2="92.4" y2="228.19"/><rect class="cls-1" x="22.08" y="137.84" width="87" height="3.63" transform="translate(-18.11 148.9) rotate(-45)"/><rect class="cls-4" x="23.09" y="140.3" width="87" height="0.75" transform="translate(-18.53 149.91) rotate(-45)"/><line class="cls-1" x1="156.49" y1="169.24" x2="94.97" y2="230.76"/><rect class="cls-1" x="24.64" y="140.41" width="87" height="3.63" transform="translate(-19.17 151.46) rotate(-45)"/><rect class="cls-4" x="25.66" y="142.87" width="87" height="0.75" transform="translate(-19.59 152.48) rotate(-45)"/><line class="cls-1" x1="159.06" y1="171.81" x2="97.54" y2="233.32"/><rect class="cls-1" x="27.21" y="142.98" width="87" height="3.63" transform="translate(-20.24 154.03) rotate(-45)"/><rect class="cls-4" x="28.23" y="145.44" width="87" height="0.75" transform="translate(-20.66 155.05) rotate(-45)"/><line class="cls-1" x1="161.62" y1="174.37" x2="100.11" y2="235.89"/><rect class="cls-1" x="29.78" y="145.55" width="87" height="3.63" transform="translate(-21.3 156.6) rotate(-45)"/><rect class="cls-4" x="30.79" y="148" width="87" height="0.75" transform="translate(-21.72 157.61) rotate(-45)"/><line class="cls-1" x1="164.19" y1="176.94" x2="102.67" y2="238.46"/><rect class="cls-1" x="32.34" y="148.11" width="87" height="3.63" transform="translate(-22.36 159.16) rotate(-45)"/><rect class="cls-4" x="33.36" y="150.57" width="87" height="0.75" transform="translate(-22.78 160.18) rotate(-45)"/><line class="cls-1" x1="166.76" y1="179.51" x2="105.24" y2="241.02"/><rect class="cls-1" x="34.91" y="150.68" width="87" height="3.63" transform="translate(-23.43 161.73) rotate(-45)"/><rect class="cls-4" x="35.93" y="153.14" width="87" height="0.75" transform="translate(-23.85 162.75) rotate(-45)"/><line class="cls-1" x1="169.32" y1="182.07" x2="107.81" y2="243.59"/><rect class="cls-1" x="37.48" y="153.25" width="87" height="3.63" transform="translate(-24.49 164.3) rotate(-45)"/><rect class="cls-4" x="38.49" y="155.7" width="87" height="0.75" transform="translate(-24.91 165.32) rotate(-45)"/><line class="cls-1" x1="171.89" y1="184.64" x2="110.37" y2="246.16"/><rect class="cls-1" x="40.04" y="155.81" width="87" height="3.63" transform="translate(-25.55 166.86) rotate(-45)"/><rect class="cls-4" x="41.06" y="158.27" width="87" height="0.75" transform="translate(-25.97 167.88) rotate(-45)"/><line class="cls-1" x1="174.46" y1="187.21" x2="112.94" y2="248.72"/><rect class="cls-1" x="42.61" y="158.38" width="87" height="3.63" transform="translate(-26.61 169.43) rotate(-45)"/><rect class="cls-4" x="43.63" y="160.84" width="87" height="0.75" transform="translate(-27.04 170.45) rotate(-45)"/><line class="cls-1" x1="177.02" y1="189.77" x2="115.51" y2="251.29"/><rect class="cls-1" x="45.18" y="160.95" width="87" height="3.63" transform="translate(-27.68 172) rotate(-45)"/><rect class="cls-4" x="46.2" y="163.4" width="87" height="0.75" transform="translate(-28.1 173.02) rotate(-45)"/><line class="cls-1" x1="179.59" y1="192.34" x2="118.07" y2="253.86"/><rect class="cls-1" x="47.74" y="163.51" width="87" height="3.63" transform="translate(-28.74 174.56) rotate(-45)"/><rect class="cls-4" x="48.76" y="165.97" width="87" height="0.75" transform="translate(-29.16 175.58) rotate(-45)"/><line class="cls-1" x1="182.16" y1="194.91" x2="120.64" y2="256.43"/><rect class="cls-1" x="50.31" y="166.08" width="87" height="3.63" transform="translate(-29.8 177.13) rotate(-45)"/><rect class="cls-4" x="51.33" y="168.54" width="87" height="0.75" transform="translate(-30.23 178.15) rotate(-45)"/><line class="cls-1" x1="184.72" y1="197.47" x2="123.21" y2="258.99"/><rect class="cls-1" x="52.88" y="168.65" width="87" height="3.63" transform="translate(-30.87 179.7) rotate(-45)"/><rect class="cls-4" x="53.9" y="171.1" width="87" height="0.75" transform="translate(-31.29 180.72) rotate(-45)"/><line class="cls-1" x1="187.29" y1="200.04" x2="125.77" y2="261.56"/><rect class="cls-1" x="55.44" y="171.21" width="87" height="3.63" transform="translate(-31.93 182.26) rotate(-45)"/><rect class="cls-4" x="56.46" y="173.67" width="87" height="0.75" transform="translate(-32.35 183.28) rotate(-45)"/><line class="cls-1" x1="189.86" y1="202.61" x2="128.34" y2="264.13"/><rect class="cls-1" x="58.01" y="173.78" width="87" height="3.63" transform="translate(-32.99 184.83) rotate(-45)"/><rect class="cls-4" x="59.03" y="176.24" width="87" height="0.75" transform="translate(-33.42 185.85) rotate(-45)"/><line class="cls-1" x1="192.42" y1="205.17" x2="130.91" y2="266.69"/><rect class="cls-1" x="60.58" y="176.35" width="87" height="3.63" transform="translate(-34.06 187.4) rotate(-45)"/><rect class="cls-4" x="61.6" y="178.8" width="87" height="0.75" transform="translate(-34.48 188.42) rotate(-45)"/><line class="cls-1" x1="194.99" y1="207.74" x2="133.47" y2="269.26"/><rect class="cls-1" x="63.14" y="178.91" width="87" height="3.63" transform="translate(-35.12 189.96) rotate(-45)"/><rect class="cls-4" x="64.16" y="181.37" width="87" height="0.75" transform="translate(-35.54 190.98) rotate(-45)"/><line class="cls-1" x1="197.56" y1="210.31" x2="136.04" y2="271.83"/><rect class="cls-1" x="65.71" y="181.48" width="87" height="3.63" transform="translate(-36.18 192.53) rotate(-45)"/><rect class="cls-4" x="66.73" y="183.94" width="87" height="0.75" transform="translate(-36.61 193.55) rotate(-45)"/><line class="cls-1" x1="200.13" y1="212.87" x2="138.61" y2="274.39"/><rect class="cls-1" x="68.28" y="184.05" width="87" height="3.63" transform="translate(-37.25 195.1) rotate(-45)"/><rect class="cls-4" x="69.3" y="186.51" width="87" height="0.75" transform="translate(-37.67 196.12) rotate(-45)"/><line class="cls-1" x1="202.69" y1="215.44" x2="141.17" y2="276.96"/><rect class="cls-1" x="70.84" y="186.61" width="87" height="3.63" transform="translate(-38.31 197.67) rotate(-45)"/><rect class="cls-4" x="71.86" y="189.07" width="87" height="0.75" transform="translate(-38.73 198.68) rotate(-45)"/><line class="cls-1" x1="205.26" y1="218.01" x2="143.74" y2="279.53"/><rect class="cls-1" x="73.41" y="189.18" width="87" height="3.63" transform="translate(-39.37 200.23) rotate(-45)"/><rect class="cls-4" x="74.43" y="191.64" width="87" height="0.75" transform="translate(-39.8 201.25) rotate(-45)"/><line class="cls-1" x1="207.83" y1="220.57" x2="146.31" y2="282.09"/><rect class="cls-1" x="75.98" y="191.75" width="87" height="3.63" transform="translate(-40.44 202.8) rotate(-45)"/><rect class="cls-4" x="77" y="194.21" width="87" height="0.75" transform="translate(-40.86 203.82) rotate(-45)"/><line class="cls-1" x1="210.39" y1="223.14" x2="148.87" y2="284.66"/><rect class="cls-1" x="78.55" y="194.31" width="87" height="3.63" transform="translate(-41.5 205.37) rotate(-45)"/><rect class="cls-4" x="79.56" y="196.77" width="87" height="0.75" transform="translate(-41.92 206.38) rotate(-45)"/><line class="cls-1" x1="212.96" y1="225.71" x2="151.44" y2="287.23"/><rect class="cls-1" x="81.11" y="196.88" width="87" height="3.63" transform="translate(-42.56 207.93) rotate(-45)"/><rect class="cls-4" x="82.13" y="199.34" width="87" height="0.75" transform="translate(-42.98 208.95) rotate(-45)"/><line class="cls-1" x1="215.53" y1="228.28" x2="154.01" y2="289.79"/><rect class="cls-1" x="83.68" y="199.45" width="87" height="3.63" transform="translate(-43.63 210.5) rotate(-45)"/><rect class="cls-4" x="84.7" y="201.91" width="87" height="0.75" transform="translate(-44.05 211.52) rotate(-45)"/><line class="cls-1" x1="218.09" y1="230.84" x2="156.57" y2="292.36"/><rect class="cls-1" x="86.25" y="202.01" width="87" height="3.63" transform="translate(-44.69 213.07) rotate(-45)"/><rect class="cls-4" x="87.26" y="204.47" width="87" height="0.75" transform="translate(-45.11 214.08) rotate(-45)"/><line class="cls-1" x1="220.66" y1="233.41" x2="159.14" y2="294.93"/><rect class="cls-1" x="88.81" y="204.58" width="87" height="3.63" transform="translate(-45.75 215.63) rotate(-45)"/><rect class="cls-4" x="89.83" y="207.04" width="87" height="0.75" transform="translate(-46.17 216.65) rotate(-45)"/><line class="cls-1" x1="223.23" y1="235.98" x2="161.71" y2="297.49"/><rect class="cls-1" x="91.38" y="207.15" width="87" height="3.63" transform="translate(-46.82 218.2) rotate(-45)"/><rect class="cls-4" x="92.4" y="209.61" width="87" height="0.75" transform="translate(-47.24 219.22) rotate(-45)"/><line class="cls-1" x1="225.79" y1="238.54" x2="164.28" y2="300.06"/><rect class="cls-1" x="93.95" y="209.72" width="87" height="3.63" transform="translate(-47.88 220.77) rotate(-45)"/><rect class="cls-4" x="94.96" y="212.17" width="87" height="0.75" transform="translate(-48.3 221.78) rotate(-45)"/><line class="cls-1" x1="228.36" y1="241.11" x2="166.84" y2="302.63"/><rect class="cls-1" x="96.51" y="212.28" width="87" height="3.63" transform="translate(-48.94 223.33) rotate(-45)"/><rect class="cls-4" x="97.53" y="214.74" width="87" height="0.75" transform="translate(-49.36 224.35) rotate(-45)"/><line class="cls-1" x1="230.93" y1="243.68" x2="169.41" y2="305.19"/><rect class="cls-1" x="-72.81" y="165.99" width="87" height="3.63" transform="translate(-65.81 90.05) rotate(-45)"/><rect class="cls-4" x="-71.79" y="168.45" width="87" height="0.75" transform="translate(-66.23 91.06) rotate(-45)"/><line class="cls-1" x1="61.6" y1="197.39" x2="0.08" y2="258.91"/><rect class="cls-1" x="-70.24" y="168.56" width="87" height="3.63" transform="translate(-66.87 92.61) rotate(-45)"/><rect class="cls-4" x="-69.23" y="171.02" width="87" height="0.75" transform="translate(-67.29 93.63) rotate(-45)"/><line class="cls-1" x1="64.17" y1="199.96" x2="2.65" y2="261.47"/><rect class="cls-1" x="-67.68" y="171.13" width="87" height="3.63" transform="translate(-67.93 95.18) rotate(-45)"/><rect class="cls-4" x="-66.66" y="173.59" width="87" height="0.75" transform="translate(-68.35 96.2) rotate(-45)"/><line class="cls-1" x1="66.74" y1="202.52" x2="5.22" y2="264.04"/><rect class="cls-1" x="-65.11" y="173.7" width="87" height="3.63" transform="translate(-69 97.75) rotate(-45)"/><rect class="cls-4" x="-64.09" y="176.15" width="87" height="0.75" transform="translate(-69.42 98.76) rotate(-45)"/><line class="cls-1" x1="69.3" y1="205.09" x2="7.79" y2="266.61"/><rect class="cls-1" x="-62.54" y="176.26" width="87" height="3.63" transform="translate(-70.06 100.31) rotate(-45)"/><rect class="cls-4" x="-61.53" y="178.72" width="87" height="0.75" transform="translate(-70.48 101.33) rotate(-45)"/><line class="cls-1" x1="71.87" y1="207.66" x2="10.35" y2="269.17"/><rect class="cls-1" x="-59.98" y="178.83" width="87" height="3.63" transform="translate(-71.12 102.88) rotate(-45)"/><rect class="cls-4" x="-58.96" y="181.29" width="87" height="0.75" transform="translate(-71.54 103.9) rotate(-45)"/><line class="cls-1" x1="74.44" y1="210.22" x2="12.92" y2="271.74"/><rect class="cls-1" x="-57.41" y="181.4" width="87" height="3.63" transform="translate(-72.19 105.45) rotate(-45)"/><rect class="cls-4" x="-56.39" y="183.85" width="87" height="0.75" transform="translate(-72.61 106.47) rotate(-45)"/><line class="cls-1" x1="77" y1="212.79" x2="15.49" y2="274.31"/><rect class="cls-1" x="-54.84" y="183.96" width="87" height="3.63" transform="translate(-73.25 108.01) rotate(-45)"/><rect class="cls-4" x="-53.83" y="186.42" width="87" height="0.75" transform="translate(-73.67 109.03) rotate(-45)"/><line class="cls-1" x1="79.57" y1="215.36" x2="18.05" y2="276.87"/><rect class="cls-1" x="-52.28" y="186.53" width="87" height="3.63" transform="translate(-74.31 110.58) rotate(-45)"/><rect class="cls-4" x="-51.26" y="188.99" width="87" height="0.75" transform="translate(-74.73 111.6) rotate(-45)"/><line class="cls-1" x1="82.14" y1="217.92" x2="20.62" y2="279.44"/><rect class="cls-1" x="-49.71" y="189.1" width="87" height="3.63" transform="translate(-75.37 113.15) rotate(-45)"/><rect class="cls-4" x="-48.69" y="191.55" width="87" height="0.75" transform="translate(-75.8 114.17) rotate(-45)"/><line class="cls-1" x1="84.7" y1="220.49" x2="23.19" y2="282.01"/><rect class="cls-1" x="-47.14" y="191.66" width="87" height="3.63" transform="translate(-76.44 115.71) rotate(-45)"/><rect class="cls-4" x="-46.12" y="194.12" width="87" height="0.75" transform="translate(-76.86 116.73) rotate(-45)"/><line class="cls-1" x1="87.27" y1="223.06" x2="25.75" y2="284.58"/><rect class="cls-1" x="-44.58" y="194.23" width="87" height="3.63" transform="translate(-77.5 118.28) rotate(-45)"/><rect class="cls-4" x="-43.56" y="196.69" width="87" height="0.75" transform="translate(-77.92 119.3) rotate(-45)"/><line class="cls-1" x1="89.84" y1="225.62" x2="28.32" y2="287.14"/><rect class="cls-1" x="-42.01" y="196.8" width="87" height="3.63" transform="translate(-78.56 120.85) rotate(-45)"/><rect class="cls-4" x="-40.99" y="199.25" width="87" height="0.75" transform="translate(-78.99 121.87) rotate(-45)"/><line class="cls-1" x1="92.4" y1="228.19" x2="30.89" y2="289.71"/><rect class="cls-1" x="-39.44" y="199.36" width="87" height="3.63" transform="translate(-79.63 123.41) rotate(-45)"/><rect class="cls-4" x="-38.42" y="201.82" width="87" height="0.75" transform="translate(-80.05 124.43) rotate(-45)"/><line class="cls-1" x1="94.97" y1="230.76" x2="33.45" y2="292.28"/><rect class="cls-1" x="-36.88" y="201.93" width="87" height="3.63" transform="translate(-80.69 125.98) rotate(-45)"/><rect class="cls-4" x="-35.86" y="204.39" width="87" height="0.75" transform="translate(-81.11 127) rotate(-45)"/><line class="cls-1" x1="97.54" y1="233.32" x2="36.02" y2="294.84"/><rect class="cls-1" x="-34.31" y="204.5" width="87" height="3.63" transform="translate(-81.75 128.55) rotate(-45)"/><rect class="cls-4" x="-33.29" y="206.95" width="87" height="0.75" transform="translate(-82.18 129.57) rotate(-45)"/><line class="cls-1" x1="100.11" y1="235.89" x2="38.59" y2="297.41"/><rect class="cls-1" x="-31.74" y="207.06" width="87" height="3.63" transform="translate(-82.82 131.11) rotate(-45)"/><rect class="cls-4" x="-30.72" y="209.52" width="87" height="0.75" transform="translate(-83.24 132.13) rotate(-45)"/><line class="cls-1" x1="102.67" y1="238.46" x2="41.15" y2="299.98"/><rect class="cls-1" x="-29.18" y="209.63" width="87" height="3.63" transform="translate(-83.88 133.68) rotate(-45)"/><rect class="cls-4" x="-28.16" y="212.09" width="87" height="0.75" transform="translate(-84.3 134.7) rotate(-45)"/><line class="cls-1" x1="105.24" y1="241.02" x2="43.72" y2="302.54"/><rect class="cls-1" x="-26.61" y="212.2" width="87" height="3.63" transform="translate(-84.94 136.25) rotate(-45)"/><rect class="cls-4" x="-25.59" y="214.66" width="87" height="0.75" transform="translate(-85.37 137.27) rotate(-45)"/><line class="cls-1" x1="107.81" y1="243.59" x2="46.29" y2="305.11"/><rect class="cls-1" x="-24.04" y="214.76" width="87" height="3.63" transform="translate(-86.01 138.82) rotate(-45)"/><rect class="cls-4" x="-23.02" y="217.22" width="87" height="0.75" transform="translate(-86.43 139.83) rotate(-45)"/><line class="cls-1" x1="110.37" y1="246.16" x2="48.85" y2="307.68"/><rect class="cls-1" x="-21.47" y="217.33" width="87" height="3.63" transform="translate(-87.07 141.38) rotate(-45)"/><rect class="cls-4" x="-20.46" y="219.79" width="87" height="0.75" transform="translate(-87.49 142.4) rotate(-45)"/><line class="cls-1" x1="112.94" y1="248.72" x2="51.42" y2="310.24"/><rect class="cls-1" x="-18.91" y="219.9" width="87" height="3.63" transform="translate(-88.13 143.95) rotate(-45)"/><rect class="cls-4" x="-17.89" y="222.36" width="87" height="0.75" transform="translate(-88.55 144.97) rotate(-45)"/><line class="cls-1" x1="115.51" y1="251.29" x2="53.99" y2="312.81"/><rect class="cls-1" x="-16.34" y="222.46" width="87" height="3.63" transform="translate(-89.2 146.52) rotate(-45)"/><rect class="cls-4" x="-15.32" y="224.92" width="87" height="0.75" transform="translate(-89.62 147.53) rotate(-45)"/><line class="cls-1" x1="118.07" y1="253.86" x2="56.55" y2="315.38"/><rect class="cls-1" x="-13.77" y="225.03" width="87" height="3.63" transform="translate(-90.26 149.08) rotate(-45)"/><rect class="cls-4" x="-12.76" y="227.49" width="87" height="0.75" transform="translate(-90.68 150.1) rotate(-45)"/><line class="cls-1" x1="120.64" y1="256.43" x2="59.12" y2="317.94"/><rect class="cls-1" x="-11.21" y="227.6" width="87" height="3.63" transform="translate(-91.32 151.65) rotate(-45)"/><rect class="cls-4" x="-10.19" y="230.06" width="87" height="0.75" transform="translate(-91.74 152.67) rotate(-45)"/><line class="cls-1" x1="123.21" y1="258.99" x2="61.69" y2="320.51"/><rect class="cls-1" x="-8.64" y="230.16" width="87" height="3.63" transform="translate(-92.39 154.22) rotate(-45)"/><rect class="cls-4" x="-7.62" y="232.62" width="87" height="0.75" transform="translate(-92.81 155.23) rotate(-45)"/><line class="cls-1" x1="125.77" y1="261.56" x2="64.25" y2="323.08"/><rect class="cls-1" x="-6.07" y="232.73" width="87" height="3.63" transform="translate(-93.45 156.78) rotate(-45)"/><rect class="cls-4" x="-5.06" y="235.19" width="87" height="0.75" transform="translate(-93.87 157.8) rotate(-45)"/><line class="cls-1" x1="128.34" y1="264.13" x2="66.82" y2="325.64"/><rect class="cls-1" x="-3.51" y="235.3" width="87" height="3.63" transform="translate(-94.51 159.35) rotate(-45)"/><rect class="cls-4" x="-2.49" y="237.76" width="87" height="0.75" transform="translate(-94.93 160.37) rotate(-45)"/><line class="cls-1" x1="130.91" y1="266.69" x2="69.39" y2="328.21"/></g></g></svg>