<svg id="Слой_1" data-name="Слой 1" xmlns="http://www.w3.org/2000/svg" xmlns:xlink="http://www.w3.org/1999/xlink" viewBox="0 0 279 341.97"><defs><style>.cls-1{fill:none;}.cls-2{opacity:0.6;}.cls-3{clip-path:url(#clip-path);}.cls-4{fill:#fff;}.cls-5{fill:#008a64;}</style><clipPath id="clip-path" transform="translate(65.86 67.16)"><polygon class="cls-1" points="32.15 0.32 131.25 0.32 131.25 37.45 147.47 37.45 147.47 206.69 129.86 206.49 112.11 204.46 93.89 202.78 72.94 196.84 30.86 197.31 30.86 180.88 0.53 180.88 0.53 23.25 28.48 23.25 32.15 0.32"/></clipPath></defs><title>flat-07-sold</title><g class="cls-2"><g class="cls-3"><rect class="cls-1" x="3.87" y="-34.92" width="92.8" height="3.87" transform="translate(103.91 93.05) rotate(-45)"/><rect class="cls-4" x="4.96" y="-32.29" width="92.8" height="0.8" transform="translate(103.46 94.14) rotate(-45)"/><line class="cls-1" x1="147.57" x2="81.95" y2="65.62"/><rect class="cls-1" x="6.62" y="-32.18" width="92.8" height="3.87" transform="translate(102.77 95.79) rotate(-45)"/><rect class="cls-4" x="7.7" y="-29.56" width="92.8" height="0.8" transform="translate(102.33 96.88) rotate(-45)"/><line class="cls-1" x1="150.31" y1="2.74" x2="84.69" y2="68.36"/><rect class="cls-1" x="9.34" y="-29.44" width="92.8" height="3.87" transform="translate(101.64 98.52) rotate(-45)"/><rect class="cls-4" x="10.44" y="-26.82" width="92.8" height="0.8" transform="translate(101.19 99.62) rotate(-45)"/><line class="cls-1" x1="153.05" y1="5.48" x2="87.43" y2="71.1"/><rect class="cls-1" x="12.09" y="-26.71" width="92.8" height="3.87" transform="translate(100.51 101.26) rotate(-45)"/><rect class="cls-4" x="13.17" y="-24.08" width="92.8" height="0.8" transform="translate(100.06 102.35) rotate(-45)"/><line class="cls-1" x1="155.79" y1="8.22" x2="90.17" y2="73.83"/><rect class="cls-1" x="14.82" y="-23.97" width="92.8" height="3.87" transform="translate(99.38 104) rotate(-45)"/><rect class="cls-4" x="15.9" y="-21.34" width="92.8" height="0.8" transform="translate(98.92 105.09) rotate(-45)"/><line class="cls-1" x1="158.53" y1="10.95" x2="92.91" y2="76.57"/><rect class="cls-1" x="17.56" y="-21.23" width="92.8" height="3.87" transform="translate(98.23 106.74) rotate(-45)"/><rect class="cls-4" x="18.65" y="-18.61" width="92.8" height="0.8" transform="translate(97.79 107.83) rotate(-45)"/><line class="cls-1" x1="161.26" y1="13.69" x2="95.64" y2="79.31"/><rect class="cls-1" x="20.31" y="-18.49" width="92.8" height="3.87" transform="translate(97.1 109.49) rotate(-45)"/><rect class="cls-4" x="21.39" y="-15.87" width="92.8" height="0.8" transform="translate(96.66 110.57) rotate(-45)"/><line class="cls-1" x1="164" y1="16.43" x2="98.38" y2="82.05"/><rect class="cls-1" x="23.03" y="-15.76" width="92.8" height="3.87" transform="translate(95.97 112.21) rotate(-45)"/><rect class="cls-4" x="24.12" y="-13.13" width="92.8" height="0.8" transform="translate(95.52 113.3) rotate(-45)"/><line class="cls-1" x1="166.74" y1="19.17" x2="101.12" y2="84.79"/><rect class="cls-1" x="25.78" y="-13.02" width="92.8" height="3.87" transform="translate(94.84 114.96) rotate(-45)"/><rect class="cls-4" x="26.86" y="-10.39" width="92.8" height="0.8" transform="translate(94.38 116.04) rotate(-45)"/><line class="cls-1" x1="169.48" y1="21.9" x2="103.86" y2="87.52"/><rect class="cls-1" x="28.51" y="-10.28" width="92.8" height="3.87" transform="translate(93.7 117.69) rotate(-45)"/><rect class="cls-4" x="29.59" y="-7.65" width="92.8" height="0.8" transform="translate(93.25 118.78) rotate(-45)"/><line class="cls-1" x1="172.22" y1="24.64" x2="106.6" y2="90.26"/><rect class="cls-1" x="31.25" y="-7.54" width="92.8" height="3.87" transform="translate(92.56 120.43) rotate(-45)"/><rect class="cls-4" x="32.34" y="-4.92" width="92.8" height="0.8" transform="translate(92.12 121.52) rotate(-45)"/><line class="cls-1" x1="174.95" y1="27.38" x2="109.33" y2="93"/><rect class="cls-1" x="34" y="-4.8" width="92.8" height="3.87" transform="translate(91.43 123.18) rotate(-45)"/><rect class="cls-4" x="35.08" y="-2.18" width="92.8" height="0.8" transform="translate(90.99 124.26) rotate(-45)"/><line class="cls-1" x1="177.69" y1="30.12" x2="112.07" y2="95.74"/><rect class="cls-1" x="36.72" y="-2.07" width="92.8" height="3.87" transform="translate(90.3 125.9) rotate(-45)"/><rect class="cls-4" x="37.81" y="0.56" width="92.8" height="0.8" transform="translate(89.84 126.99) rotate(-45)"/><line class="cls-1" x1="180.43" y1="32.86" x2="114.81" y2="98.48"/><rect class="cls-1" x="39.47" y="0.67" width="92.8" height="3.87" transform="translate(89.17 128.65) rotate(-45)"/><rect class="cls-4" x="40.55" y="3.3" width="92.8" height="0.8" transform="translate(88.71 129.73) rotate(-45)"/><line class="cls-1" x1="183.17" y1="35.59" x2="117.55" y2="101.21"/><rect class="cls-1" x="42.2" y="3.41" width="92.8" height="3.87" transform="translate(88.03 131.38) rotate(-45)"/><rect class="cls-4" x="43.29" y="6.04" width="92.8" height="0.8" transform="translate(87.58 132.47) rotate(-45)"/><line class="cls-1" x1="185.9" y1="38.33" x2="120.29" y2="103.95"/><rect class="cls-1" x="44.94" y="6.15" width="92.8" height="3.87" transform="translate(86.89 134.12) rotate(-45)"/><rect class="cls-4" x="46.03" y="8.77" width="92.8" height="0.8" transform="translate(86.45 135.21) rotate(-45)"/><line class="cls-1" x1="188.64" y1="41.07" x2="123.02" y2="106.69"/><rect class="cls-1" x="47.69" y="8.89" width="92.8" height="3.87" transform="translate(85.76 136.87) rotate(-45)"/><rect class="cls-4" x="48.77" y="11.51" width="92.8" height="0.8" transform="translate(85.32 137.95) rotate(-45)"/><line class="cls-1" x1="191.38" y1="43.81" x2="125.76" y2="109.43"/><rect class="cls-1" x="50.41" y="11.62" width="92.8" height="3.87" transform="translate(84.63 139.59) rotate(-45)"/><rect class="cls-4" x="51.5" y="14.25" width="92.8" height="0.8" transform="translate(84.17 140.68) rotate(-45)"/><line class="cls-1" x1="194.12" y1="46.55" x2="128.5" y2="112.17"/><rect class="cls-1" x="53.16" y="14.36" width="92.8" height="3.87" transform="translate(83.5 142.34) rotate(-45)"/><rect class="cls-4" x="54.24" y="16.99" width="92.8" height="0.8" transform="translate(83.04 143.42) rotate(-45)"/><line class="cls-1" x1="196.86" y1="49.28" x2="131.24" y2="114.9"/><rect class="cls-1" x="55.89" y="17.1" width="92.8" height="3.87" transform="translate(82.36 145.07) rotate(-45)"/><rect class="cls-4" x="56.98" y="19.73" width="92.8" height="0.8" transform="translate(81.91 146.16) rotate(-45)"/><line class="cls-1" x1="199.59" y1="52.02" x2="133.98" y2="117.64"/><rect class="cls-1" x="58.63" y="19.84" width="92.8" height="3.87" transform="translate(81.22 147.81) rotate(-45)"/><rect class="cls-4" x="59.72" y="22.46" width="92.8" height="0.8" transform="translate(80.78 148.9) rotate(-45)"/><line class="cls-1" x1="202.33" y1="54.76" x2="136.71" y2="120.38"/><rect class="cls-1" x="61.37" y="22.58" width="92.8" height="3.87" transform="translate(80.09 150.55) rotate(-45)"/><rect class="cls-4" x="62.47" y="25.2" width="92.8" height="0.8" transform="translate(79.65 151.64) rotate(-45)"/><line class="cls-1" x1="205.07" y1="57.5" x2="139.45" y2="123.12"/><rect class="cls-1" x="64.11" y="25.31" width="92.8" height="3.87" transform="translate(78.96 153.28) rotate(-45)"/><rect class="cls-4" x="65.19" y="27.94" width="92.8" height="0.8" transform="translate(78.51 154.37) rotate(-45)"/><line class="cls-1" x1="207.81" y1="60.24" x2="142.19" y2="125.86"/><rect class="cls-1" x="66.85" y="28.05" width="92.8" height="3.87" transform="translate(77.83 156.03) rotate(-45)"/><rect class="cls-4" x="67.93" y="30.68" width="92.8" height="0.8" transform="translate(77.37 157.11) rotate(-45)"/><line class="cls-1" x1="210.55" y1="62.97" x2="144.93" y2="128.59"/><rect class="cls-1" x="69.58" y="30.79" width="92.8" height="3.87" transform="translate(76.69 158.76) rotate(-45)"/><rect class="cls-4" x="70.67" y="33.42" width="92.8" height="0.8" transform="translate(76.24 159.85) rotate(-45)"/><line class="cls-1" x1="213.28" y1="65.71" x2="147.66" y2="131.33"/><rect class="cls-1" x="72.32" y="33.53" width="92.8" height="3.87" transform="translate(75.55 161.5) rotate(-45)"/><rect class="cls-4" x="73.41" y="36.15" width="92.8" height="0.8" transform="translate(75.11 162.59) rotate(-45)"/><line class="cls-1" x1="216.02" y1="68.45" x2="150.4" y2="134.07"/><rect class="cls-1" x="75.05" y="36.27" width="92.8" height="3.87" transform="translate(74.42 164.23) rotate(-45)"/><rect class="cls-4" x="76.15" y="38.89" width="92.8" height="0.8" transform="translate(73.97 165.32) rotate(-45)"/><line class="cls-1" x1="218.76" y1="71.19" x2="153.14" y2="136.81"/><rect class="cls-1" x="77.8" y="39" width="92.8" height="3.87" transform="translate(73.29 166.97) rotate(-45)"/><rect class="cls-4" x="78.88" y="41.63" width="92.8" height="0.8" transform="translate(72.84 168.06) rotate(-45)"/><line class="cls-1" x1="221.5" y1="73.93" x2="155.88" y2="139.54"/><rect class="cls-1" x="80.54" y="41.74" width="92.8" height="3.87" transform="translate(72.16 169.72) rotate(-45)"/><rect class="cls-4" x="81.62" y="44.37" width="92.8" height="0.8" transform="translate(71.7 170.8) rotate(-45)"/><line class="cls-1" x1="224.24" y1="76.66" x2="158.62" y2="142.28"/><rect class="cls-1" x="83.27" y="44.48" width="92.8" height="3.87" transform="translate(71.02 172.45) rotate(-45)"/><rect class="cls-4" x="84.36" y="47.1" width="92.8" height="0.8" transform="translate(70.57 173.54) rotate(-45)"/><line class="cls-1" x1="226.97" y1="79.4" x2="161.35" y2="145.02"/><rect class="cls-1" x="86.01" y="47.22" width="92.8" height="3.87" transform="translate(69.88 175.19) rotate(-45)"/><rect class="cls-4" x="87.1" y="49.84" width="92.8" height="0.8" transform="translate(69.44 176.28) rotate(-45)"/><line class="cls-5" x1="229.71" y1="82.14" x2="164.09" y2="147.76"/><rect class="cls-1" x="88.74" y="49.95" width="92.8" height="3.87" transform="translate(68.76 177.92) rotate(-45)"/><rect class="cls-4" x="89.83" y="52.58" width="92.8" height="0.8" transform="translate(68.3 179.01) rotate(-45)"/><line class="cls-1" x1="232.45" y1="84.88" x2="166.83" y2="150.5"/><rect class="cls-1" x="91.49" y="52.69" width="92.8" height="3.87" transform="translate(67.62 180.66) rotate(-45)"/><rect class="cls-4" x="92.57" y="55.32" width="92.8" height="0.8" transform="translate(67.17 181.75) rotate(-45)"/><line class="cls-1" x1="235.19" y1="87.61" x2="169.57" y2="153.23"/><rect class="cls-1" x="94.22" y="55.43" width="92.8" height="3.87" transform="translate(66.48 183.4) rotate(-45)"/><rect class="cls-4" x="95.31" y="58.06" width="92.8" height="0.8" transform="translate(66.03 184.49) rotate(-45)"/><line class="cls-1" x1="237.93" y1="90.35" x2="172.31" y2="155.97"/><rect class="cls-1" x="96.96" y="58.17" width="92.8" height="3.87" transform="translate(65.35 186.14) rotate(-45)"/><rect class="cls-4" x="98.05" y="60.79" width="92.8" height="0.8" transform="translate(64.9 187.23) rotate(-45)"/><line class="cls-1" x1="240.66" y1="93.09" x2="175.04" y2="158.71"/><rect class="cls-1" x="99.7" y="60.91" width="92.8" height="3.87" transform="translate(64.21 188.88) rotate(-45)"/><rect class="cls-4" x="100.79" y="63.53" width="92.8" height="0.8" transform="translate(63.77 189.97) rotate(-45)"/><line class="cls-1" x1="243.4" y1="95.83" x2="177.78" y2="161.45"/><rect class="cls-1" x="102.43" y="63.64" width="92.8" height="3.87" transform="translate(63.09 191.61) rotate(-45)"/><rect class="cls-4" x="103.52" y="66.27" width="92.8" height="0.8" transform="translate(62.63 192.7) rotate(-45)"/><line class="cls-1" x1="246.14" y1="98.57" x2="180.52" y2="164.19"/><rect class="cls-1" x="105.18" y="66.38" width="92.8" height="3.87" transform="translate(61.95 194.35) rotate(-45)"/><rect class="cls-4" x="106.26" y="69.01" width="92.8" height="0.8" transform="translate(61.5 195.44) rotate(-45)"/><line class="cls-1" x1="248.88" y1="101.3" x2="183.26" y2="166.92"/><rect class="cls-1" x="107.92" y="69.12" width="92.8" height="3.87" transform="translate(60.81 197.09) rotate(-45)"/><rect class="cls-4" x="109" y="71.75" width="92.8" height="0.8" transform="translate(60.36 198.18) rotate(-45)"/><line class="cls-1" x1="251.62" y1="104.04" x2="186" y2="169.66"/><rect class="cls-1" x="110.65" y="71.86" width="92.8" height="3.87" transform="translate(59.68 199.83) rotate(-45)"/><rect class="cls-4" x="111.74" y="74.48" width="92.8" height="0.8" transform="translate(59.23 200.92) rotate(-45)"/><line class="cls-1" x1="254.35" y1="106.78" x2="188.73" y2="172.4"/><rect class="cls-1" x="113.39" y="74.6" width="92.8" height="3.87" transform="translate(58.54 202.57) rotate(-45)"/><rect class="cls-4" x="114.48" y="77.22" width="92.8" height="0.8" transform="translate(58.1 203.66) rotate(-45)"/><line class="cls-1" x1="257.09" y1="109.52" x2="191.47" y2="175.14"/><rect class="cls-1" x="116.12" y="77.33" width="92.8" height="3.87" transform="translate(57.42 205.3) rotate(-45)"/><rect class="cls-4" x="117.21" y="79.96" width="92.8" height="0.8" transform="translate(56.96 206.39) rotate(-45)"/><line class="cls-1" x1="259.83" y1="112.26" x2="194.21" y2="177.88"/><rect class="cls-1" x="118.87" y="80.07" width="92.8" height="3.87" transform="translate(56.28 208.04) rotate(-45)"/><rect class="cls-4" x="119.95" y="82.7" width="92.8" height="0.8" transform="translate(55.83 209.13) rotate(-45)"/><line class="cls-1" x1="262.57" y1="114.99" x2="196.95" y2="180.61"/><rect class="cls-1" x="121.61" y="82.81" width="92.8" height="3.87" transform="translate(55.14 210.79) rotate(-45)"/><rect class="cls-4" x="122.69" y="85.44" width="92.8" height="0.8" transform="translate(54.69 211.87) rotate(-45)"/><line class="cls-1" x1="265.3" y1="117.73" x2="199.69" y2="183.35"/><rect class="cls-1" x="124.34" y="85.55" width="92.8" height="3.87" transform="translate(54 213.52) rotate(-45)"/><rect class="cls-4" x="125.43" y="88.17" width="92.8" height="0.8" transform="translate(53.56 214.61) rotate(-45)"/><line class="cls-1" x1="268.04" y1="120.47" x2="202.42" y2="186.09"/><rect class="cls-1" x="127.08" y="88.29" width="92.8" height="3.87" transform="translate(52.87 216.26) rotate(-45)"/><rect class="cls-4" x="128.17" y="90.91" width="92.8" height="0.8" transform="translate(52.43 217.35) rotate(-45)"/><line class="cls-1" x1="270.78" y1="123.21" x2="205.16" y2="188.83"/><rect class="cls-1" x="129.81" y="91.02" width="92.8" height="3.87" transform="translate(51.74 218.99) rotate(-45)"/><rect class="cls-4" x="130.9" y="93.65" width="92.8" height="0.8" transform="translate(51.29 220.08) rotate(-45)"/><line class="cls-1" x1="273.52" y1="125.95" x2="207.9" y2="191.57"/><rect class="cls-1" x="132.56" y="93.76" width="92.8" height="3.87" transform="translate(50.61 221.74) rotate(-45)"/><rect class="cls-4" x="133.64" y="96.39" width="92.8" height="0.8" transform="translate(50.15 222.82) rotate(-45)"/><line class="cls-1" x1="276.26" y1="128.68" x2="210.64" y2="194.3"/><rect class="cls-1" x="-69.97" y="22.48" width="92.8" height="3.87" transform="translate(41.7 57.65) rotate(-45)"/><rect class="cls-4" x="-68.87" y="25.11" width="92.8" height="0.8" transform="translate(41.24 58.75) rotate(-45)"/><line class="cls-1" x1="73.74" y1="57.41" x2="8.12" y2="123.03"/><rect class="cls-1" x="-67.22" y="25.22" width="92.8" height="3.87" transform="translate(40.56 60.39) rotate(-45)"/><rect class="cls-4" x="-66.14" y="27.85" width="92.8" height="0.8" transform="translate(40.1 61.48) rotate(-45)"/><line class="cls-1" x1="76.48" y1="60.15" x2="10.86" y2="125.76"/><rect class="cls-1" x="-64.48" y="27.96" width="92.8" height="3.87" transform="translate(39.43 63.14) rotate(-45)"/><rect class="cls-4" x="-63.4" y="30.59" width="92.8" height="0.8" transform="translate(38.97 64.22) rotate(-45)"/><line class="cls-1" x1="79.22" y1="62.88" x2="13.6" y2="128.5"/><rect class="cls-1" x="-61.75" y="30.7" width="92.8" height="3.87" transform="translate(38.28 65.87) rotate(-45)"/><rect class="cls-4" x="-60.66" y="33.32" width="92.8" height="0.8" transform="translate(37.84 66.96) rotate(-45)"/><line class="cls-1" x1="81.95" y1="65.62" x2="16.34" y2="131.24"/><rect class="cls-1" x="-59" y="33.44" width="92.8" height="3.87" transform="translate(37.15 68.61) rotate(-45)"/><rect class="cls-4" x="-57.92" y="36.06" width="92.8" height="0.8" transform="translate(36.71 69.7) rotate(-45)"/><line class="cls-1" x1="84.69" y1="68.36" x2="19.07" y2="133.98"/><rect class="cls-1" x="-56.28" y="36.17" width="92.8" height="3.87" transform="translate(36.02 71.34) rotate(-45)"/><rect class="cls-4" x="-55.18" y="38.8" width="92.8" height="0.8" transform="translate(35.57 72.44) rotate(-45)"/><line class="cls-1" x1="87.43" y1="71.1" x2="21.81" y2="136.72"/><rect class="cls-1" x="-53.53" y="38.91" width="92.8" height="3.87" transform="translate(34.89 74.08) rotate(-45)"/><rect class="cls-4" x="-52.45" y="41.54" width="92.8" height="0.8" transform="translate(34.43 75.17) rotate(-45)"/><line class="cls-1" x1="90.17" y1="73.83" x2="24.55" y2="139.45"/><rect class="cls-1" x="-50.79" y="41.65" width="92.8" height="3.87" transform="translate(33.76 76.83) rotate(-45)"/><rect class="cls-4" x="-49.71" y="44.28" width="92.8" height="0.8" transform="translate(33.3 77.91) rotate(-45)"/><line class="cls-1" x1="92.91" y1="76.57" x2="27.29" y2="142.19"/><rect class="cls-1" x="-48.06" y="44.39" width="92.8" height="3.87" transform="translate(32.61 79.56) rotate(-45)"/><rect class="cls-4" x="-46.97" y="47.01" width="92.8" height="0.8" transform="translate(32.17 80.65) rotate(-45)"/><line class="cls-1" x1="95.64" y1="79.31" x2="30.02" y2="144.93"/><rect class="cls-1" x="-45.31" y="47.13" width="92.8" height="3.87" transform="translate(31.48 82.3) rotate(-45)"/><rect class="cls-4" x="-44.23" y="49.75" width="92.8" height="0.8" transform="translate(31.04 83.39) rotate(-45)"/><line class="cls-1" x1="98.38" y1="82.05" x2="32.76" y2="147.67"/><rect class="cls-1" x="-42.59" y="49.86" width="92.8" height="3.87" transform="translate(30.35 85.03) rotate(-45)"/><rect class="cls-4" x="-41.49" y="52.49" width="92.8" height="0.8" transform="translate(29.9 86.13) rotate(-45)"/><line class="cls-1" x1="101.12" y1="84.79" x2="35.5" y2="150.41"/><rect class="cls-1" x="-39.84" y="52.6" width="92.8" height="3.87" transform="translate(29.22 87.77) rotate(-45)"/><rect class="cls-4" x="-38.76" y="55.23" width="92.8" height="0.8" transform="translate(28.76 88.86) rotate(-45)"/><line class="cls-1" x1="103.86" y1="87.52" x2="38.24" y2="153.14"/><rect class="cls-1" x="-37.11" y="55.34" width="92.8" height="3.87" transform="translate(28.08 90.51) rotate(-45)"/><rect class="cls-4" x="-36.03" y="57.97" width="92.8" height="0.8" transform="translate(27.63 91.6) rotate(-45)"/><line class="cls-1" x1="106.6" y1="90.26" x2="40.98" y2="155.88"/><rect class="cls-1" x="-34.37" y="58.08" width="92.8" height="3.87" transform="translate(26.94 93.25) rotate(-45)"/><rect class="cls-4" x="-33.28" y="60.7" width="92.8" height="0.8" transform="translate(26.5 94.34) rotate(-45)"/><line class="cls-1" x1="109.33" y1="93" x2="43.71" y2="158.62"/><rect class="cls-1" x="-31.62" y="60.82" width="92.8" height="3.87" transform="translate(25.81 96) rotate(-45)"/><rect class="cls-4" x="-30.54" y="63.44" width="92.8" height="0.8" transform="translate(25.37 97.08) rotate(-45)"/><line class="cls-1" x1="112.07" y1="95.74" x2="46.45" y2="161.36"/><rect class="cls-1" x="-28.9" y="63.55" width="92.8" height="3.87" transform="translate(24.68 98.72) rotate(-45)"/><rect class="cls-4" x="-27.81" y="66.18" width="92.8" height="0.8" transform="translate(24.22 99.81) rotate(-45)"/><line class="cls-1" x1="114.81" y1="98.48" x2="49.19" y2="164.1"/><rect class="cls-1" x="-26.15" y="66.29" width="92.8" height="3.87" transform="translate(23.55 101.47) rotate(-45)"/><rect class="cls-4" x="-25.07" y="68.92" width="92.8" height="0.8" transform="translate(23.09 102.55) rotate(-45)"/><line class="cls-1" x1="117.55" y1="101.21" x2="51.93" y2="166.83"/><rect class="cls-1" x="-23.42" y="69.03" width="92.8" height="3.87" transform="translate(22.41 104.2) rotate(-45)"/><rect class="cls-4" x="-22.33" y="71.66" width="92.8" height="0.8" transform="translate(21.96 105.29) rotate(-45)"/><line class="cls-1" x1="120.29" y1="103.95" x2="54.67" y2="169.57"/><rect class="cls-1" x="-20.68" y="71.77" width="92.8" height="3.87" transform="translate(21.27 106.94) rotate(-45)"/><rect class="cls-4" x="-19.59" y="74.39" width="92.8" height="0.8" transform="translate(20.83 108.03) rotate(-45)"/><line class="cls-1" x1="123.02" y1="106.69" x2="57.4" y2="172.31"/><rect class="cls-1" x="-17.94" y="74.51" width="92.8" height="3.87" transform="translate(20.14 109.68) rotate(-45)"/><rect class="cls-4" x="-16.85" y="77.13" width="92.8" height="0.8" transform="translate(19.7 110.77) rotate(-45)"/><line class="cls-1" x1="125.76" y1="109.43" x2="60.14" y2="175.05"/><rect class="cls-1" x="-15.21" y="77.24" width="92.8" height="3.87" transform="translate(19.01 112.41) rotate(-45)"/><rect class="cls-4" x="-14.12" y="79.87" width="92.8" height="0.8" transform="translate(18.56 113.5) rotate(-45)"/><line class="cls-1" x1="128.5" y1="112.17" x2="62.88" y2="177.79"/><rect class="cls-1" x="-12.46" y="79.98" width="92.8" height="3.87" transform="translate(17.88 115.16) rotate(-45)"/><rect class="cls-4" x="-11.38" y="82.61" width="92.8" height="0.8" transform="translate(17.42 116.24) rotate(-45)"/><line class="cls-1" x1="131.24" y1="114.9" x2="65.62" y2="180.52"/><rect class="cls-1" x="-9.73" y="82.72" width="92.8" height="3.87" transform="translate(16.74 117.89) rotate(-45)"/><rect class="cls-4" x="-8.64" y="85.35" width="92.8" height="0.8" transform="translate(16.29 118.98) rotate(-45)"/><line class="cls-1" x1="133.98" y1="117.64" x2="68.36" y2="183.26"/><rect class="cls-1" x="-6.99" y="85.46" width="92.8" height="3.87" transform="translate(15.6 120.63) rotate(-45)"/><rect class="cls-4" x="-5.9" y="88.08" width="92.8" height="0.8" transform="translate(15.16 121.72) rotate(-45)"/><line class="cls-1" x1="136.71" y1="120.38" x2="71.09" y2="186"/><rect class="cls-1" x="-4.25" y="88.19" width="92.8" height="3.87" transform="translate(14.48 123.37) rotate(-45)"/><rect class="cls-4" x="-3.15" y="90.82" width="92.8" height="0.8" transform="translate(14.03 124.46) rotate(-45)"/><line class="cls-1" x1="139.45" y1="123.12" x2="73.83" y2="188.74"/><rect class="cls-1" x="-1.51" y="90.93" width="92.8" height="3.87" transform="translate(13.34 126.1) rotate(-45)"/><rect class="cls-4" x="-0.43" y="93.56" width="92.8" height="0.8" transform="translate(12.89 127.19) rotate(-45)"/><line class="cls-1" x1="142.19" y1="125.86" x2="76.57" y2="191.47"/><rect class="cls-1" x="1.23" y="93.67" width="92.8" height="3.87" transform="translate(12.21 128.85) rotate(-45)"/><rect class="cls-4" x="2.31" y="96.3" width="92.8" height="0.8" transform="translate(11.75 129.93) rotate(-45)"/><line class="cls-1" x1="144.93" y1="128.59" x2="79.31" y2="194.21"/><rect class="cls-1" x="3.96" y="96.41" width="92.8" height="3.87" transform="translate(11.07 131.58) rotate(-45)"/><rect class="cls-4" x="5.05" y="99.03" width="92.8" height="0.8" transform="translate(10.62 132.66) rotate(-45)"/><line class="cls-1" x1="147.66" y1="131.33" x2="82.05" y2="196.95"/><rect class="cls-1" x="6.7" y="99.15" width="92.8" height="3.87" transform="translate(9.93 134.32) rotate(-45)"/><rect class="cls-4" x="7.79" y="101.77" width="92.8" height="0.8" transform="translate(9.49 135.41) rotate(-45)"/><line class="cls-1" x1="150.4" y1="134.07" x2="84.78" y2="199.69"/><rect class="cls-1" x="9.44" y="101.88" width="92.8" height="3.87" transform="translate(8.81 137.06) rotate(-45)"/><rect class="cls-4" x="10.54" y="104.51" width="92.8" height="0.8" transform="translate(8.36 138.15) rotate(-45)"/><line class="cls-1" x1="153.14" y1="136.81" x2="87.52" y2="202.43"/><rect class="cls-1" x="12.18" y="104.62" width="92.8" height="3.87" transform="translate(7.67 139.79) rotate(-45)"/><rect class="cls-4" x="13.26" y="107.25" width="92.8" height="0.8" transform="translate(7.22 140.88) rotate(-45)"/><line class="cls-1" x1="155.88" y1="139.54" x2="90.26" y2="205.16"/><rect class="cls-1" x="14.92" y="107.36" width="92.8" height="3.87" transform="translate(6.54 142.54) rotate(-45)"/><rect class="cls-4" x="16" y="109.99" width="92.8" height="0.8" transform="translate(6.08 143.62) rotate(-45)"/><line class="cls-1" x1="158.62" y1="142.28" x2="93" y2="207.9"/><rect class="cls-1" x="17.65" y="110.1" width="92.8" height="3.87" transform="translate(5.4 145.27) rotate(-45)"/><rect class="cls-4" x="18.74" y="112.72" width="92.8" height="0.8" transform="translate(4.95 146.35) rotate(-45)"/><line class="cls-1" x1="161.35" y1="145.02" x2="95.73" y2="210.64"/><rect class="cls-1" x="20.39" y="112.84" width="92.8" height="3.87" transform="translate(4.26 148.01) rotate(-45)"/><rect class="cls-4" x="21.48" y="115.46" width="92.8" height="0.8" transform="translate(3.82 149.1) rotate(-45)"/><line class="cls-1" x1="164.09" y1="147.76" x2="98.47" y2="213.38"/><rect class="cls-1" x="23.12" y="115.57" width="92.8" height="3.87" transform="translate(3.14 150.74) rotate(-45)"/><rect class="cls-4" x="24.22" y="118.2" width="92.8" height="0.8" transform="translate(2.68 151.83) rotate(-45)"/><line class="cls-1" x1="166.83" y1="150.5" x2="101.21" y2="216.12"/><rect class="cls-1" x="25.87" y="118.31" width="92.8" height="3.87" transform="translate(2 153.48) rotate(-45)"/><rect class="cls-4" x="26.95" y="120.94" width="92.8" height="0.8" transform="translate(1.55 154.57) rotate(-45)"/><line class="cls-1" x1="169.57" y1="153.23" x2="103.95" y2="218.85"/><rect class="cls-1" x="28.61" y="121.05" width="92.8" height="3.87" transform="translate(0.87 156.23) rotate(-45)"/><rect class="cls-4" x="29.69" y="123.68" width="92.8" height="0.8" transform="translate(0.41 157.31) rotate(-45)"/><line class="cls-1" x1="172.31" y1="155.97" x2="106.69" y2="221.59"/><rect class="cls-1" x="31.34" y="123.79" width="92.8" height="3.87" transform="translate(-0.27 158.96) rotate(-45)"/><rect class="cls-4" x="32.43" y="126.41" width="92.8" height="0.8" transform="translate(-0.72 160.04) rotate(-45)"/><line class="cls-1" x1="175.04" y1="158.71" x2="109.42" y2="224.33"/><rect class="cls-1" x="34.08" y="126.53" width="92.8" height="3.87" transform="translate(-1.41 161.7) rotate(-45)"/><rect class="cls-4" x="35.17" y="129.15" width="92.8" height="0.8" transform="translate(-1.85 162.79) rotate(-45)"/><line class="cls-1" x1="177.78" y1="161.45" x2="112.16" y2="227.07"/><rect class="cls-1" x="36.81" y="129.26" width="92.8" height="3.87" transform="translate(-2.53 164.43) rotate(-45)"/><rect class="cls-4" x="37.9" y="131.89" width="92.8" height="0.8" transform="translate(-2.99 165.52) rotate(-45)"/><line class="cls-1" x1="180.52" y1="164.19" x2="114.9" y2="229.81"/><rect class="cls-1" x="39.56" y="132" width="92.8" height="3.87" transform="translate(-3.67 167.17) rotate(-45)"/><rect class="cls-4" x="40.64" y="134.63" width="92.8" height="0.8" transform="translate(-4.12 168.26) rotate(-45)"/><line class="cls-1" x1="183.26" y1="166.92" x2="117.64" y2="232.54"/><rect class="cls-1" x="42.3" y="134.74" width="92.8" height="3.87" transform="translate(-4.81 169.91) rotate(-45)"/><rect class="cls-4" x="43.38" y="137.37" width="92.8" height="0.8" transform="translate(-5.26 171) rotate(-45)"/><line class="cls-1" x1="186" y1="169.66" x2="120.38" y2="235.28"/><rect class="cls-1" x="45.03" y="137.48" width="92.8" height="3.87" transform="translate(-5.95 172.65) rotate(-45)"/><rect class="cls-4" x="46.12" y="140.1" width="92.8" height="0.8" transform="translate(-6.39 173.74) rotate(-45)"/><line class="cls-1" x1="188.73" y1="172.4" x2="123.11" y2="238.02"/><rect class="cls-1" x="47.77" y="140.22" width="92.8" height="3.87" transform="translate(-7.08 175.39) rotate(-45)"/><rect class="cls-4" x="48.86" y="142.84" width="92.8" height="0.8" transform="translate(-7.52 176.48) rotate(-45)"/><line class="cls-1" x1="191.47" y1="175.14" x2="125.85" y2="240.76"/><rect class="cls-1" x="50.5" y="142.95" width="92.8" height="3.87" transform="translate(-8.21 178.12) rotate(-45)"/><rect class="cls-4" x="51.58" y="145.58" width="92.8" height="0.8" transform="translate(-8.66 179.21) rotate(-45)"/><line class="cls-1" x1="194.21" y1="177.88" x2="128.59" y2="243.5"/><rect class="cls-1" x="53.25" y="145.69" width="92.8" height="3.87" transform="translate(-9.34 180.86) rotate(-45)"/><rect class="cls-4" x="54.33" y="148.32" width="92.8" height="0.8" transform="translate(-9.8 181.95) rotate(-45)"/><line class="cls-1" x1="196.95" y1="180.61" x2="131.33" y2="246.23"/><rect class="cls-1" x="55.99" y="148.43" width="92.8" height="3.87" transform="translate(-10.48 183.6) rotate(-45)"/><rect class="cls-4" x="57.07" y="151.06" width="92.8" height="0.8" transform="translate(-10.93 184.69) rotate(-45)"/><line class="cls-1" x1="199.69" y1="183.35" x2="134.07" y2="248.97"/><rect class="cls-1" x="58.72" y="151.17" width="92.8" height="3.87" transform="translate(-11.62 186.34) rotate(-45)"/><rect class="cls-4" x="59.81" y="153.79" width="92.8" height="0.8" transform="translate(-12.06 187.43) rotate(-45)"/><line class="cls-1" x1="202.42" y1="186.09" x2="136.8" y2="251.71"/><rect class="cls-1" x="61.46" y="153.9" width="92.8" height="3.87" transform="translate(-12.74 189.07) rotate(-45)"/><rect class="cls-4" x="62.55" y="156.53" width="92.8" height="0.8" transform="translate(-13.19 190.17) rotate(-45)"/><line class="cls-1" x1="205.16" y1="188.83" x2="139.54" y2="254.45"/><rect class="cls-1" x="64.19" y="156.64" width="92.8" height="3.87" transform="translate(-13.88 191.81) rotate(-45)"/><rect class="cls-4" x="65.27" y="159.27" width="92.8" height="0.8" transform="translate(-14.33 192.9) rotate(-45)"/><line class="cls-1" x1="207.9" y1="191.57" x2="142.28" y2="257.18"/><rect class="cls-1" x="66.94" y="159.38" width="92.8" height="3.87" transform="translate(-15.01 194.55) rotate(-45)"/><rect class="cls-4" x="68.02" y="162.01" width="92.8" height="0.8" transform="translate(-15.47 195.64) rotate(-45)"/><line class="cls-1" x1="210.64" y1="194.3" x2="145.02" y2="259.92"/><rect class="cls-1" x="69.68" y="162.12" width="92.8" height="3.87" transform="translate(-16.15 197.3) rotate(-45)"/><rect class="cls-4" x="70.76" y="164.74" width="92.8" height="0.8" transform="translate(-16.59 198.38) rotate(-45)"/><line class="cls-1" x1="213.37" y1="197.04" x2="147.76" y2="262.66"/><rect class="cls-1" x="72.41" y="164.86" width="92.8" height="3.87" transform="translate(-17.29 200.03) rotate(-45)"/><rect class="cls-4" x="73.5" y="167.48" width="92.8" height="0.8" transform="translate(-17.73 201.12) rotate(-45)"/><line class="cls-1" x1="216.11" y1="199.78" x2="150.49" y2="265.4"/><rect class="cls-1" x="75.15" y="167.59" width="92.8" height="3.87" transform="translate(-18.41 202.77) rotate(-45)"/><rect class="cls-4" x="76.24" y="170.22" width="92.8" height="0.8" transform="translate(-18.86 203.86) rotate(-45)"/><line class="cls-1" x1="218.85" y1="202.52" x2="153.23" y2="268.14"/><rect class="cls-1" x="77.88" y="170.33" width="92.8" height="3.87" transform="translate(-19.55 205.5) rotate(-45)"/><rect class="cls-4" x="78.96" y="172.96" width="92.8" height="0.8" transform="translate(-20 206.59) rotate(-45)"/><line class="cls-1" x1="221.59" y1="205.25" x2="155.97" y2="270.87"/><rect class="cls-1" x="80.63" y="173.07" width="92.8" height="3.87" transform="translate(-20.68 208.25) rotate(-45)"/><rect class="cls-4" x="81.71" y="175.7" width="92.8" height="0.8" transform="translate(-21.14 209.33) rotate(-45)"/><line class="cls-1" x1="224.33" y1="207.99" x2="158.71" y2="273.61"/><rect class="cls-1" x="83.37" y="175.81" width="92.8" height="3.87" transform="translate(-21.82 210.99) rotate(-45)"/><rect class="cls-4" x="84.45" y="178.43" width="92.8" height="0.8" transform="translate(-22.26 212.07) rotate(-45)"/><line class="cls-1" x1="227.06" y1="210.73" x2="161.44" y2="276.35"/><rect class="cls-1" x="86.1" y="178.55" width="92.8" height="3.87" transform="translate(-22.96 213.72) rotate(-45)"/><rect class="cls-4" x="87.19" y="181.17" width="92.8" height="0.8" transform="translate(-23.4 214.81) rotate(-45)"/><line class="cls-1" x1="229.8" y1="213.47" x2="164.18" y2="279.09"/><rect class="cls-1" x="88.84" y="181.28" width="92.8" height="3.87" transform="translate(-24.08 216.46) rotate(-45)"/><rect class="cls-4" x="89.93" y="183.91" width="92.8" height="0.8" transform="translate(-24.53 217.55) rotate(-45)"/><line class="cls-1" x1="232.54" y1="216.21" x2="166.92" y2="281.83"/><rect class="cls-1" x="91.57" y="184.02" width="92.8" height="3.87" transform="translate(-25.22 219.19) rotate(-45)"/><rect class="cls-4" x="92.66" y="186.65" width="92.8" height="0.8" transform="translate(-25.67 220.28) rotate(-45)"/><line class="cls-1" x1="235.28" y1="218.94" x2="169.66" y2="284.56"/><rect class="cls-1" x="94.32" y="186.76" width="92.8" height="3.87" transform="translate(-26.35 221.94) rotate(-45)"/><rect class="cls-4" x="95.4" y="189.39" width="92.8" height="0.8" transform="translate(-26.81 223.02) rotate(-45)"/><line class="cls-1" x1="238.02" y1="221.68" x2="172.4" y2="287.3"/><rect class="cls-1" x="97.05" y="189.5" width="92.8" height="3.87" transform="translate(-27.49 224.67) rotate(-45)"/><rect class="cls-4" x="98.14" y="192.12" width="92.8" height="0.8" transform="translate(-27.94 225.75) rotate(-45)"/><line class="cls-1" x1="240.75" y1="224.42" x2="175.13" y2="290.04"/><rect class="cls-1" x="99.79" y="192.24" width="92.8" height="3.87" transform="translate(-28.63 227.41) rotate(-45)"/><rect class="cls-4" x="100.88" y="194.86" width="92.8" height="0.8" transform="translate(-29.07 228.5) rotate(-45)"/><line class="cls-1" x1="243.49" y1="227.16" x2="177.87" y2="292.78"/><rect class="cls-1" x="102.53" y="194.97" width="92.8" height="3.87" transform="translate(-29.75 230.15) rotate(-45)"/><rect class="cls-4" x="103.63" y="197.6" width="92.8" height="0.8" transform="translate(-30.2 231.24) rotate(-45)"/><line class="cls-1" x1="246.23" y1="229.9" x2="180.61" y2="295.52"/><rect class="cls-1" x="105.27" y="197.71" width="92.8" height="3.87" transform="translate(-30.89 232.88) rotate(-45)"/><rect class="cls-4" x="106.35" y="200.34" width="92.8" height="0.8" transform="translate(-31.34 233.97) rotate(-45)"/><line class="cls-1" x1="248.97" y1="232.63" x2="183.35" y2="298.25"/><rect class="cls-1" x="108" y="200.45" width="92.8" height="3.87" transform="translate(-32.03 235.62) rotate(-45)"/><rect class="cls-4" x="109.09" y="203.08" width="92.8" height="0.8" transform="translate(-32.48 236.71) rotate(-45)"/><line class="cls-1" x1="251.71" y1="235.37" x2="186.09" y2="300.99"/><rect class="cls-1" x="-78.08" y="145.6" width="92.8" height="3.87" transform="translate(-47.74 87.98) rotate(-45)"/><rect class="cls-4" x="-77" y="148.23" width="92.8" height="0.8" transform="translate(-48.2 89.06) rotate(-45)"/><line class="cls-1" x1="65.62" y1="180.52" y2="246.14"/><rect class="cls-1" x="-75.35" y="148.35" width="92.8" height="3.87" transform="translate(-48.88 90.71) rotate(-45)"/><rect class="cls-4" x="-74.26" y="150.96" width="92.8" height="0.8" transform="translate(-49.33 91.79) rotate(-45)"/><line class="cls-1" x1="68.36" y1="183.26" x2="2.74" y2="248.88"/><rect class="cls-1" x="-72.61" y="151.09" width="92.8" height="3.87" transform="translate(-50.02 93.45) rotate(-45)"/><rect class="cls-4" x="-71.52" y="153.7" width="92.8" height="0.8" transform="translate(-50.46 94.54) rotate(-45)"/><line class="cls-1" x1="71.09" y1="186" x2="5.47" y2="251.62"/><rect class="cls-1" x="-69.87" y="153.81" width="92.8" height="3.87" transform="translate(-51.14 96.19) rotate(-45)"/><rect class="cls-4" x="-68.77" y="156.44" width="92.8" height="0.8" transform="translate(-51.59 97.28) rotate(-45)"/><line class="cls-1" x1="73.83" y1="188.74" x2="8.21" y2="254.36"/><rect class="cls-1" x="-67.13" y="156.55" width="92.8" height="3.87" transform="translate(-52.28 98.92) rotate(-45)"/><rect class="cls-4" x="-66.05" y="159.18" width="92.8" height="0.8" transform="translate(-52.73 100.01) rotate(-45)"/><line class="cls-1" x1="76.57" y1="191.47" x2="10.95" y2="257.09"/><rect class="cls-1" x="-64.39" y="159.29" width="92.8" height="3.87" transform="translate(-53.41 101.67) rotate(-45)"/><rect class="cls-4" x="-63.31" y="161.92" width="92.8" height="0.8" transform="translate(-53.87 102.75) rotate(-45)"/><line class="cls-1" x1="79.31" y1="194.21" x2="13.69" y2="259.83"/><rect class="cls-1" x="-61.66" y="162.04" width="92.8" height="3.87" transform="translate(-54.55 104.4) rotate(-45)"/><rect class="cls-4" x="-60.57" y="164.65" width="92.8" height="0.8" transform="translate(-55 105.48) rotate(-45)"/><line class="cls-1" x1="82.05" y1="196.95" x2="16.43" y2="262.57"/><rect class="cls-1" x="-58.92" y="164.78" width="92.8" height="3.87" transform="translate(-55.69 107.14) rotate(-45)"/><rect class="cls-4" x="-57.83" y="167.39" width="92.8" height="0.8" transform="translate(-56.13 108.23) rotate(-45)"/><line class="cls-1" x1="84.78" y1="199.69" x2="19.16" y2="265.31"/><rect class="cls-1" x="-56.18" y="167.5" width="92.8" height="3.87" transform="translate(-56.81 109.88) rotate(-45)"/><rect class="cls-4" x="-55.08" y="170.13" width="92.8" height="0.8" transform="translate(-57.26 110.97) rotate(-45)"/><line class="cls-1" x1="87.52" y1="202.43" x2="21.9" y2="268.05"/><rect class="cls-1" x="-53.44" y="170.24" width="92.8" height="3.87" transform="translate(-57.95 112.61) rotate(-45)"/><rect class="cls-4" x="-52.36" y="172.87" width="92.8" height="0.8" transform="translate(-58.4 113.7) rotate(-45)"/><line class="cls-1" x1="90.26" y1="205.16" x2="24.64" y2="270.78"/><rect class="cls-1" x="-50.7" y="172.98" width="92.8" height="3.87" transform="translate(-59.08 115.36) rotate(-45)"/><rect class="cls-4" x="-49.62" y="175.61" width="92.8" height="0.8" transform="translate(-59.54 116.44) rotate(-45)"/><line class="cls-1" x1="93" y1="207.9" x2="27.38" y2="273.52"/><rect class="cls-1" x="-47.97" y="175.73" width="92.8" height="3.87" transform="translate(-60.22 118.09) rotate(-45)"/><rect class="cls-4" x="-46.88" y="178.34" width="92.8" height="0.8" transform="translate(-60.67 119.17) rotate(-45)"/><line class="cls-1" x1="95.73" y1="210.64" x2="30.12" y2="276.26"/><rect class="cls-1" x="-45.23" y="178.47" width="92.8" height="3.87" transform="translate(-61.36 120.83) rotate(-45)"/><rect class="cls-4" x="-44.14" y="181.08" width="92.8" height="0.8" transform="translate(-61.8 121.92) rotate(-45)"/><line class="cls-1" x1="98.47" y1="213.38" x2="32.85" y2="279"/><rect class="cls-1" x="-42.49" y="181.19" width="92.8" height="3.87" transform="translate(-62.48 123.57) rotate(-45)"/><rect class="cls-4" x="-41.39" y="183.82" width="92.8" height="0.8" transform="translate(-62.93 124.66) rotate(-45)"/><line class="cls-1" x1="101.21" y1="216.12" x2="35.59" y2="281.74"/><rect class="cls-1" x="-39.75" y="183.93" width="92.8" height="3.87" transform="translate(-63.62 126.3) rotate(-45)"/><rect class="cls-4" x="-38.67" y="186.56" width="92.8" height="0.8" transform="translate(-64.07 127.39) rotate(-45)"/><line class="cls-1" x1="103.95" y1="218.85" x2="38.33" y2="284.47"/><rect class="cls-1" x="-37.01" y="186.67" width="92.8" height="3.87" transform="translate(-64.75 129.05) rotate(-45)"/><rect class="cls-4" x="-35.93" y="189.3" width="92.8" height="0.8" transform="translate(-65.21 130.13) rotate(-45)"/><line class="cls-1" x1="106.69" y1="221.59" x2="41.07" y2="287.21"/><rect class="cls-1" x="-34.28" y="189.42" width="92.8" height="3.87" transform="translate(-65.9 131.78) rotate(-45)"/><rect class="cls-4" x="-33.19" y="192.03" width="92.8" height="0.8" transform="translate(-66.34 132.86) rotate(-45)"/><line class="cls-1" x1="109.42" y1="224.33" x2="43.8" y2="289.95"/><rect class="cls-1" x="-31.54" y="192.15" width="92.8" height="3.87" transform="translate(-67.03 134.52) rotate(-45)"/><rect class="cls-4" x="-30.45" y="194.77" width="92.8" height="0.8" transform="translate(-67.47 135.61) rotate(-45)"/><line class="cls-1" x1="112.16" y1="227.07" x2="46.54" y2="292.69"/><rect class="cls-1" x="-28.81" y="194.88" width="92.8" height="3.87" transform="translate(-68.16 137.25) rotate(-45)"/><rect class="cls-4" x="-27.71" y="197.5" width="92.8" height="0.8" transform="translate(-68.6 138.34) rotate(-45)"/><line class="cls-1" x1="114.9" y1="229.81" x2="49.28" y2="295.43"/><rect class="cls-1" x="-26.06" y="197.62" width="92.8" height="3.87" transform="translate(-69.29 139.99) rotate(-45)"/><rect class="cls-4" x="-24.98" y="200.25" width="92.8" height="0.8" transform="translate(-69.75 141.08) rotate(-45)"/><line class="cls-1" x1="117.64" y1="232.54" x2="52.02" y2="298.16"/><rect class="cls-1" x="-23.32" y="200.36" width="92.8" height="3.87" transform="translate(-70.42 142.74) rotate(-45)"/><rect class="cls-4" x="-22.24" y="202.99" width="92.8" height="0.8" transform="translate(-70.88 143.82) rotate(-45)"/><line class="cls-1" x1="120.38" y1="235.28" x2="54.76" y2="300.9"/><rect class="cls-1" x="-20.59" y="203.11" width="92.8" height="3.87" transform="translate(-71.57 145.47) rotate(-45)"/><rect class="cls-4" x="-19.5" y="205.72" width="92.8" height="0.8" transform="translate(-72.01 146.55) rotate(-45)"/><line class="cls-1" x1="123.11" y1="238.02" x2="57.49" y2="303.64"/><rect class="cls-1" x="-17.85" y="205.83" width="92.8" height="3.87" transform="translate(-72.69 148.2) rotate(-45)"/><rect class="cls-4" x="-16.76" y="208.46" width="92.8" height="0.8" transform="translate(-73.14 149.3) rotate(-45)"/><line class="cls-1" x1="125.85" y1="240.76" x2="60.23" y2="306.38"/><rect class="cls-1" x="-15.12" y="208.57" width="92.8" height="3.87" transform="translate(-73.83 150.94) rotate(-45)"/><rect class="cls-4" x="-14.03" y="211.19" width="92.8" height="0.8" transform="translate(-74.28 152.03) rotate(-45)"/><line class="cls-1" x1="128.59" y1="243.5" x2="62.97" y2="309.11"/><rect class="cls-1" x="-12.37" y="211.31" width="92.8" height="3.87" transform="translate(-74.96 153.68) rotate(-45)"/><rect class="cls-4" x="-11.29" y="213.94" width="92.8" height="0.8" transform="translate(-75.42 154.77) rotate(-45)"/><line class="cls-1" x1="131.33" y1="246.23" x2="65.71" y2="311.85"/><rect class="cls-1" x="-9.63" y="214.06" width="92.8" height="3.87" transform="translate(-76.1 156.42) rotate(-45)"/><rect class="cls-4" x="-8.55" y="216.67" width="92.8" height="0.8" transform="translate(-76.54 157.51) rotate(-45)"/><line class="cls-1" x1="134.07" y1="248.97" x2="68.45" y2="314.59"/><rect class="cls-1" x="-6.9" y="216.8" width="92.8" height="3.87" transform="translate(-77.24 159.16) rotate(-45)"/><rect class="cls-4" x="-5.81" y="219.41" width="92.8" height="0.8" transform="translate(-77.68 160.25) rotate(-45)"/><line class="cls-1" x1="136.8" y1="251.71" x2="71.18" y2="317.33"/><rect class="cls-1" x="-4.16" y="219.52" width="92.8" height="3.87" transform="translate(-78.36 161.89) rotate(-45)"/><rect class="cls-4" x="-3.07" y="222.15" width="92.8" height="0.8" transform="translate(-78.81 162.99) rotate(-45)"/><line class="cls-1" x1="139.54" y1="254.45" x2="73.92" y2="320.07"/><rect class="cls-1" x="-1.43" y="222.26" width="92.8" height="3.87" transform="translate(-79.5 164.63) rotate(-45)"/><rect class="cls-4" x="-0.35" y="224.89" width="92.8" height="0.8" transform="translate(-79.95 165.72) rotate(-45)"/><line class="cls-1" x1="142.28" y1="257.18" x2="76.66" y2="322.8"/><rect class="cls-1" x="1.32" y="225" width="92.8" height="3.87" transform="translate(-80.63 167.37) rotate(-45)"/><rect class="cls-4" x="2.4" y="227.63" width="92.8" height="0.8" transform="translate(-81.09 168.46) rotate(-45)"/><line class="cls-1" x1="145.02" y1="259.92" x2="79.4" y2="325.54"/><rect class="cls-1" x="4.06" y="227.75" width="92.8" height="3.87" transform="translate(-81.77 170.11) rotate(-45)"/><rect class="cls-4" x="5.14" y="230.36" width="92.8" height="0.8" transform="translate(-82.21 171.2) rotate(-45)"/><line class="cls-1" x1="147.76" y1="262.66" x2="82.14" y2="328.28"/><rect class="cls-1" x="6.79" y="230.49" width="92.8" height="3.87" transform="translate(-82.91 172.85) rotate(-45)"/><rect class="cls-4" x="7.88" y="233.1" width="92.8" height="0.8" transform="translate(-83.35 173.94) rotate(-45)"/><line class="cls-1" x1="150.49" y1="265.4" x2="84.87" y2="331.02"/><rect class="cls-1" x="9.53" y="233.21" width="92.8" height="3.87" transform="translate(-84.03 175.58) rotate(-45)"/><rect class="cls-4" x="10.62" y="235.84" width="92.8" height="0.8" transform="translate(-84.48 176.68) rotate(-45)"/><line class="cls-1" x1="153.23" y1="268.14" x2="87.61" y2="333.76"/><rect class="cls-1" x="12.26" y="235.95" width="92.8" height="3.87" transform="translate(-85.17 178.32) rotate(-45)"/><rect class="cls-4" x="13.34" y="238.58" width="92.8" height="0.8" transform="translate(-85.62 179.41) rotate(-45)"/><line class="cls-1" x1="155.97" y1="270.87" x2="90.35" y2="336.49"/><rect class="cls-1" x="15.01" y="238.69" width="92.8" height="3.87" transform="translate(-86.3 181.06) rotate(-45)"/><rect class="cls-4" x="16.09" y="241.32" width="92.8" height="0.8" transform="translate(-86.76 182.15) rotate(-45)"/><line class="cls-1" x1="158.71" y1="273.61" x2="93.09" y2="339.23"/></g></g></svg>