<svg id="Слой_1" data-name="Слой 1" xmlns="http://www.w3.org/2000/svg" viewBox="0 0 243.5 346.08"><defs><style>.cls-1{fill:#008a64;}</style></defs><title>flat-01</title><polygon class="cls-1" points="27.37 8.34 45.24 8.34 45.24 0 92.97 0 92.97 9.05 120.24 9.05 120.24 0 202.88 0 202.88 84.52 200.18 88.07 200.18 160.11 186.78 160.11 186.78 180.45 200.18 184.44 207.59 193.96 243.5 193.94 243.5 237.43 200.65 241.93 200.65 342.56 182.78 342.56 182.78 346.08 131.17 346.08 131.17 342.07 0 341.14 0.76 327.02 0.74 314.77 2.33 301 4.09 287.3 7.99 275.12 9.3 270.61 10.09 263.91 10.09 226.06 27.9 226.06 27.9 194.2 21.64 181.97 21.64 100.51 30.02 97.04 30.02 74.76 22.58 74.76 22.58 26.8 27.37 26.8 27.37 8.34"/></svg>