<?xml version="1.0" encoding="utf-8"?>
<!-- Generator: Adobe Illustrator 19.0.0, SVG Export Plug-In . SVG Version: 6.00 Build 0)  -->
<svg version="1.1" id="_x31__commercial" xmlns="http://www.w3.org/2000/svg" xmlns:xlink="http://www.w3.org/1999/xlink" x="0px"
	 y="0px" viewBox="204 -203.5 753 752.7" style="enable-background:new 204 -203.5 753 752.7;" xml:space="preserve">
<style type="text/css">
	.st0{fill:#FFFFFF;}
	.st1{enable-background:new    ;}
</style>
<symbol  id="Doors_23_" viewBox="-8 -7.9 16.1 15.8">
	<path class="st0" d="M8-7.9H7.8C-1-7.9-8-0.8-8,7.9l0,0h0.5c0-8.4,6.7-15.2,15.1-15.3V7.9h0.5L8-7.9L8-7.9L8-7.9z"/>
</symbol>
<rect x="393.4" y="-168.3" transform="matrix(0.7076 -0.7066 0.7066 0.7076 242.228 249.4009)" class="st0" width="58.2" height="0.7"/>
<rect x="390.1" y="-172" transform="matrix(0.7082 -0.706 0.706 0.7082 243.4731 245.8035)" class="st0" width="58" height="0.7"/>
<path class="st0" d="M568.1,113.1V98h0.4v14.7c0,0.1,0.1,0.2,0.1,0.2l0,0l0,0c6.7-0.2,12.1-6.7,12.2-14.7h0.4c0,2.6-0.5,5.1-1.6,7.4
	c-2.3,4.9-6.6,7.9-11.3,7.9h-0.2L568.1,113.1z"/>
<path class="st0" d="M212.3,179.2h-1.1"/>
<path class="st0" d="M204.8,179.5l-1-0.1"/>
<rect x="471.3" y="-198.2" class="st0" width="33.8" height="1"/>
<rect x="471.3" y="-202.9" class="st0" width="33.8" height="1"/>
<rect x="522.8" y="-198.2" class="st0" width="114.5" height="1"/>
<rect x="522.8" y="-202.9" class="st0" width="114.5" height="1"/>
<path class="st0" d="M593.9,113.1V98h-0.4v14.7c0,0.1-0.1,0.2-0.1,0.2l0,0l0,0c-6.7-0.2-12.1-6.7-12.2-14.7h-0.4
	c0,2.6,0.5,5.1,1.6,7.4c2.3,4.9,6.6,7.9,11.3,7.9h0.2L593.9,113.1z"/>
<polygon class="st0" points="449.9,-202.9 449.6,-202.6 449.6,-202.9 "/>
<polygon class="st0" points="471.5,-202.9 471.5,-197.2 465.1,-197.2 465.1,-191.7 446.8,-191.7 443.3,-188.2 439.3,-192.3 
	449.6,-202.6 449.9,-202.9 "/>
<rect x="209.6" y="15.8" transform="matrix(-0.7066 0.7076 -0.7076 -0.7066 418.7961 -141.3632)" class="st0" width="58.2" height="0.7"/>
<rect x="206.1" y="12.3" transform="matrix(-0.706 0.7082 -0.7082 -0.706 410.0865 -144.8539)" class="st0" width="58" height="0.7"/>
<polygon class="st0" points="203.8,65.2 209.5,65.2 209.5,58.8 215,58.8 215,40.5 218.5,37 214.4,33 204.1,43.3 203.8,43.6 "/>
<polygon class="st0" points="398.3,-151.5 388.1,-141.2 374.6,-141.2 374.3,-141.2 271.1,-141.2 265.5,-141.2 265.5,-135.5 
	265.5,-32 265.5,-32 265.5,-18.2 255.2,-8 259.3,-3.9 271.2,-15.7 271.2,-32 271.1,-32 271.1,-135.5 374.3,-135.5 374.6,-135.5 
	390.6,-135.5 402.4,-147.3 "/>
<polygon class="st0" points="587.3,14.5 587.3,-69.8 588.5,-69.8 588.5,-133.4 572.5,-133.4 572.5,-69.8 573.7,-69.8 573.7,14.5 
	562.2,14.5 562.2,47.9 574.1,47.9 574.1,56.5 586.9,56.5 586.9,47.9 598.8,47.9 598.8,14.5 "/>
<polygon class="st0" points="396.9,-96.7 396.9,-73.2 386.6,-73.2 386.6,-86.1 372.2,-86.1 372.2,-89.2 335,-89.2 335,-86.1 
	320.6,-86.1 320.6,-73.2 310.4,-73.2 310.4,-96.7 "/>
<polygon class="st0" points="310.4,-96.7 320.6,-96.7 320.6,-96.7 "/>
<rect x="310.4" y="-96.7" class="st0" width="0" height="7.5"/>
<rect x="310.4" y="-36.3" class="st0" width="11.9" height="20.3"/>
<rect x="380.4" y="-36.3" class="st0" width="20.3" height="11.9"/>
<polygon class="st0" points="852.2,-96.7 852.2,-73.2 842,-73.2 842,-86.1 826.4,-86.1 826.4,-96.7 "/>
<polygon class="st0" points="399.3,43.4 399.3,57.2 337.5,57.2 337.5,59.7 321.3,59.7 321.3,79 310.8,79 310.8,59.7 271.2,59.7 
	271.2,43.4 "/>
<rect x="203.8" y="65.2" class="st0" width="1" height="98.7"/>
<rect x="208.5" y="65.2" class="st0" width="1" height="98.7"/>
<rect x="203.8" y="181.8" class="st0" width="1" height="18"/>
<rect x="208.5" y="181.8" class="st0" width="1" height="18"/>
<g>
	<path class="st0" d="M608.3,180.3v15.3h5.9v-15.3H608.3z M608.8,180.8h4.9v14.4h-4.9V180.8z"/>
	<path class="st0" d="M608.3,222.7v15.8h5.9v-15.8H608.3z M608.8,223h4.9v15.1h-4.9V223z"/>
	<path class="st0" d="M608.3,108.3v15.9h5.9v-15.9H608.3z M608.7,108.7h5.2v15.1h-5.2V108.7z"/>
	
		<rect x="627.9" y="169" transform="matrix(-0.7059 -0.7083 0.7083 -0.7059 937.8616 766.5324)" class="st0" width="0.4" height="39.2"/>
	
		<rect x="608.5" y="188.4" transform="matrix(-0.7059 -0.7083 0.7083 -0.7059 937.8565 766.527)" class="st0" width="39.2" height="0.4"/>
	<polygon class="st0" points="642,216.1 641.8,215.9 614.1,244.6 614.4,244.9 	"/>
	<polygon class="st0" points="642,244.6 614.4,215.8 614.1,216.1 641.8,244.9 	"/>
	<polygon class="st0" points="654.4,101.2 654.1,100.9 614.2,139.3 614.5,139.6 	"/>
	<polygon class="st0" points="654.4,139.2 614.5,100.9 614.2,101.1 654.1,139.5 	"/>
	<path class="st0" d="M679.4,214.8v-43.3h-6.7v43.3H679.4z M673.1,171.9h6v42.5h-6V171.9z"/>
	<path class="st0" d="M674.5,173.6v39h3.2v-39H674.5L674.5,173.6z M674.8,174h2.5l0,0v38.3h-2.5V174z"/>
	<rect x="679.2" y="212.3" class="st0" width="21.4" height="0.4"/>
	<rect x="679.2" y="207.8" class="st0" width="21.4" height="0.4"/>
	<rect x="679.2" y="203.2" class="st0" width="21.4" height="0.4"/>
	
		<rect x="679.2" y="198.7" transform="matrix(-1 3.852717e-003 -3.852717e-003 -1 1380.5717 395.0437)" class="st0" width="21.4" height="0.4"/>
	<rect x="679.2" y="194.2" class="st0" width="21.4" height="0.4"/>
	<rect x="679.2" y="189.6" class="st0" width="21.4" height="0.4"/>
	<rect x="679.2" y="185.1" class="st0" width="21.4" height="0.4"/>
	<rect x="679.2" y="180.5" class="st0" width="21.4" height="0.4"/>
	<rect x="679.2" y="176" class="st0" width="21.4" height="0.4"/>
	<rect x="679.2" y="171.5" class="st0" width="21.4" height="0.4"/>
	<rect x="651.5" y="212.3" class="st0" width="21.4" height="0.4"/>
	<rect x="651.5" y="207.8" class="st0" width="21.4" height="0.4"/>
	<rect x="651.5" y="203.2" class="st0" width="21.4" height="0.4"/>
	
		<rect x="651.5" y="198.7" transform="matrix(-1 3.852717e-003 -3.852717e-003 -1 1325.1714 395.1503)" class="st0" width="21.4" height="0.4"/>
	<rect x="651.5" y="194.2" class="st0" width="21.4" height="0.4"/>
	<rect x="651.5" y="189.6" class="st0" width="21.4" height="0.4"/>
	<rect x="651.5" y="185.1" class="st0" width="21.4" height="0.4"/>
	<rect x="651.5" y="180.5" class="st0" width="21.4" height="0.4"/>
	<rect x="651.5" y="176" class="st0" width="21.4" height="0.4"/>
	<rect x="651.5" y="171.5" class="st0" width="21.4" height="0.4"/>
	<polygon class="st0" points="689.2,172.8 689.6,172.8 689.6,224.1 662.2,224.1 662.2,173.3 662.6,173.3 662.6,223.8 689.2,223.8 	
		"/>
	<polygon class="st0" points="663.5,173.6 662.4,171.7 661.3,173.6 	"/>
	
		<rect x="651.7" y="205.5" transform="matrix(-0.9624 0.2716 -0.2716 -0.9624 1356.8656 223.6612)" class="st0" width="22.5" height="0.4"/>
	
		<rect x="650.8" y="203.8" transform="matrix(-0.9649 0.2627 -0.2627 -0.9649 1354.4702 226.9929)" class="st0" width="22.5" height="0.4"/>
	<ellipse class="st0" cx="689.4" cy="171.7" rx="1.5" ry="1.5"/>
	<rect x="662.2" y="207" class="st0" width="0.4" height="4.6"/>
	<polygon class="st0" points="663.5,207.3 662.4,205.4 661.3,207.3 	"/>
	<path class="st0" d="M695.4,129.7v9.8h-0.3v-9.6c-5.7,0.1-10.3,4.3-10.3,9.6h-0.3c0-5.4,4.8-9.8,10.7-9.8H695.4L695.4,129.7z"/>
	<path class="st0" d="M659,161.9h-15v-0.4h14.6c-0.1-8-6.6-14.5-14.6-14.5v-0.3c8.3,0,15,6.7,15,15V161.9L659,161.9z"/>
	<path class="st0" d="M727.3,161.9h-17.6v-0.4h17.2c-0.1-8-6.6-14.5-14.6-14.5v-0.3c8.3,0,15,6.7,15,15L727.3,161.9L727.3,161.9z"/>
	<path class="st0" d="M629,161.4h-14.6V161h14.2c-0.1-7.8-6.4-14.1-14.2-14.1v-0.3c8,0,14.6,6.5,14.6,14.6V161.4z"/>
</g>
<rect x="386" y="98" class="st0" width="13.3" height="13.1"/>
<rect x="377.3" y="234.8" class="st0" width="13.3" height="13.1"/>
<polygon class="st0" points="769.9,-96.7 769.9,-86.1 780.2,-86.1 788.1,-86.1 794.3,-86.1 794.3,-96.7 "/>
<g>
	
		<rect x="209.6" y="328.8" transform="matrix(-0.7066 -0.7076 0.7076 -0.7066 174.4786 730.6829)" class="st0" width="58.2" height="0.7"/>
	
		<rect x="206.1" y="332.3" transform="matrix(-0.706 -0.7082 0.7082 -0.706 165.5504 733.9396)" class="st0" width="58" height="0.7"/>
	<polyline class="st0" points="208.5,217 208.5,280.2 209.5,280.2 209.5,217 	"/>
	<polyline class="st0" points="203.8,217 203.8,280.2 204.8,280.2 204.8,217 	"/>
	<polygon class="st0" points="203.8,301.8 204.1,302 203.8,302 	"/>
	<polygon class="st0" points="203.8,280.2 209.5,280.2 209.5,286.5 215,286.5 215,304.9 218.5,308.4 214.4,312.4 204.1,302 
		203.8,301.8 	"/>
	
		<rect x="393.8" y="512.6" transform="matrix(0.7076 0.7066 -0.7066 0.7076 486.1386 -148.843)" class="st0" width="58.2" height="0.7"/>
	
		<rect x="390.4" y="516.3" transform="matrix(0.7082 0.706 -0.706 0.7082 487.1241 -145.348)" class="st0" width="58" height="0.7"/>
	<polygon class="st0" points="471.8,547.9 471.8,542.2 465.5,542.2 465.5,536.7 447.2,536.7 443.7,533.3 439.7,537.3 449.9,547.6 
		450.3,547.9 	"/>
	<rect x="471.8" y="546.9" class="st0" width="98.7" height="1"/>
	<rect x="471.8" y="542.2" class="st0" width="98.7" height="1"/>
</g>
<g>
	
		<rect x="893.1" y="328.8" transform="matrix(0.7066 -0.7076 0.7076 0.7066 37.6708 749.1477)" class="st0" width="58.2" height="0.7"/>
	<rect x="896.9" y="332.3" transform="matrix(0.706 -0.7082 0.7082 0.706 36.6635 753.5498)" class="st0" width="58" height="0.7"/>
	<polyline class="st0" points="952.5,182.3 952.5,280.2 951.5,280.2 951.5,182.3 	"/>
	<polyline class="st0" points="957.2,182.3 957.2,280.2 956.2,280.2 956.2,182.3 	"/>
	<polygon class="st0" points="957.2,301.8 956.9,302 957.2,302 	"/>
	
		<rect x="709" y="512.6" transform="matrix(-0.7076 0.7066 -0.7066 -0.7076 1622.776 354.2973)" class="st0" width="58.2" height="0.7"/>
	
		<rect x="712.5" y="516.2" transform="matrix(-0.7082 0.706 -0.706 -0.7082 1631.3638 358.7664)" class="st0" width="58" height="0.7"/>
	<polygon class="st0" points="689.2,547.9 689.2,542.2 695.5,542.2 695.5,536.7 713.8,536.7 717.3,533.3 721.3,537.3 711.1,547.6 
		710.7,547.9 	"/>
	<rect x="590.4" y="546.9" class="st0" width="98.7" height="1"/>
	<rect x="590.4" y="542.2" class="st0" width="98.7" height="1"/>
</g>
<g>
	
		<rect x="893.1" y="15.4" transform="matrix(0.7066 0.7076 -0.7076 0.7066 281.7277 -647.935)" class="st0" width="58.2" height="0.7"/>
	<rect x="896.9" y="12" transform="matrix(0.706 0.7082 -0.7082 0.706 280.938 -652.1346)" class="st0" width="58" height="0.7"/>
	<polyline class="st0" points="952.5,163.9 952.5,64.8 951.5,64.8 951.5,163.9 	"/>
	<polyline class="st0" points="957.2,163.9 957.2,64.8 956.2,64.8 956.2,163.9 	"/>
	<polygon class="st0" points="957.2,43.2 956.9,42.9 957.2,42.9 	"/>
	<polygon class="st0" points="957.2,64.8 951.5,64.8 951.5,58.4 946,58.4 946,40.1 942.6,36.7 946.6,32.6 956.9,42.9 957.2,43.2 	
		"/>
	
		<rect x="709" y="-168.4" transform="matrix(-0.7076 -0.7066 0.7066 -0.7076 1379.0753 234.6398)" class="st0" width="58.2" height="0.7"/>
	
		<rect x="712.6" y="-172" transform="matrix(-0.7082 -0.706 0.706 -0.7082 1388.0513 230.3332)" class="st0" width="58" height="0.7"/>
	<polygon class="st0" points="689.2,-202.9 689.2,-197.2 695.5,-197.2 695.5,-191.7 713.8,-191.7 717.3,-188.2 721.3,-192.3 
		711.1,-202.6 710.7,-202.9 	"/>
	<rect x="637.2" y="-202.9" class="st0" width="52" height="1"/>
	<rect x="637.2" y="-198.2" class="st0" width="52" height="1"/>
</g>
<rect x="957" y="173.4" class="st0" width="0.2" height="0.9"/>
<polygon class="st0" points="951.5,280.2 951.5,286.5 946,286.5 946,297 922.7,297 922.7,299.4 946,299.4 946,304.9 942.6,308.4 
	946.6,312.4 956.9,302 957.2,301.8 957.2,280.2 "/>
<polygon class="st0" points="951.5,132.9 712.3,132.9 712.3,129.7 703.1,129.7 703.1,139.5 695.2,139.5 695.2,144 702.8,144 
	702.8,147 712.3,147 712.3,135.3 951.5,135.3 "/>
<g id="stairs_1_lvl_commercial_1_">
	<polygon class="st0" points="321.8,432 344.3,410 343.4,410 320.6,432 	"/>
	<polygon class="st0" points="359.1,410 381.7,432 380.8,432 358,410 	"/>
	<g id="stairs_1_">
		<rect x="321.8" y="359" class="st0" width="21.6" height="0.5"/>
		<rect x="321.8" y="364.8" class="st0" width="21.6" height="0.5"/>
		<rect x="321.8" y="369.3" class="st0" width="21.6" height="0.5"/>
		<rect x="321.8" y="373.7" class="st0" width="21.6" height="0.5"/>
		<rect x="321.8" y="378.2" class="st0" width="21.6" height="0.5"/>
		<rect x="321.8" y="382.7" class="st0" width="21.6" height="0.5"/>
		<rect x="321.8" y="387" class="st0" width="21.6" height="0.5"/>
		<rect x="321.8" y="391.5" class="st0" width="21.6" height="0.5"/>
		<rect x="321.8" y="396" class="st0" width="21.6" height="0.5"/>
		<rect x="321.8" y="400.5" class="st0" width="21.6" height="0.5"/>
		<rect x="321.8" y="405" class="st0" width="21.6" height="0.5"/>
		<rect x="321.8" y="409.5" class="st0" width="21.6" height="0.5"/>
		<rect x="359.1" y="409.5" class="st0" width="14.3" height="0.5"/>
		<rect x="359.1" y="404.5" class="st0" width="12.5" height="0.5"/>
		<rect x="359.1" y="399.5" class="st0" width="7.5" height="0.5"/>
		<rect x="344.3" y="410" class="st0" width="0.5" height="20.7"/>
		<rect x="349" y="410" class="st0" width="0.5" height="20.7"/>
		<rect x="353.7" y="410" class="st0" width="0.5" height="20.7"/>
		<rect x="358.5" y="410" class="st0" width="0.5" height="20.7"/>
		
			<rect x="352.6" y="403" transform="matrix(0.7071 0.7071 -0.7071 0.7071 393.5461 -143.6554)" class="st0" width="35.1" height="0.5"/>
		
			<rect x="350.9" y="405.1" transform="matrix(0.7071 0.7071 -0.7071 0.7071 394.7634 -142.3771)" class="st0" width="36.6" height="0.5"/>
		<rect x="321.3" y="380.2" class="st0" width="0.5" height="37.7"/>
		<rect x="321.3" y="359" class="st0" width="0.5" height="2.1"/>
		<g>
			<rect x="343.4" y="359" class="st0" width="1.3" height="51"/>
			<polygon class="st0" points="357.8,392 357.8,408.5 344.8,408.5 344.8,410 357.8,410 359,410 359.1,410 359.1,392 			"/>
		</g>
		<path class="st0" d="M370.9,408.9l-1.5-2.6l-1.5,2.6h1.3V420h-36.3v-58.5c1-0.1,1.8-1,1.8-2.1c0-1.1-0.9-2.1-2.1-2.1
			s-2.1,0.9-2.1,2.1c0,1.1,0.8,1.9,1.8,2.1V420v0.5h0.5h36.3h0.5V420v-11.1H370.9z"/>
		<rect x="310.7" y="361" class="st0" width="11.1" height="19.1"/>
		<polygon class="st0" points="380.5,369.9 380.5,381 380.5,431 381.9,431 381.9,381 399.6,381 399.6,369.9 		"/>
		<polygon class="st0" points="321.8,430.5 321.8,417.8 310.7,417.8 310.7,441.8 314.4,441.8 321.8,441.8 399.6,441.8 399.6,430.5 
					"/>
	</g>
</g>
<g id="stairs_1_lvl_commercial">
	<polygon class="st0" points="839.3,432 816.7,410 817.6,410 840.4,432 	"/>
	<polygon class="st0" points="801.9,410 779.3,432 780.2,432 803,410 	"/>
	<g id="stairs">
		<rect x="817.6" y="359" class="st0" width="21.6" height="0.5"/>
		<rect x="817.6" y="364.8" class="st0" width="21.6" height="0.5"/>
		<rect x="817.6" y="369.3" class="st0" width="21.6" height="0.5"/>
		<rect x="817.6" y="373.7" class="st0" width="21.6" height="0.5"/>
		<rect x="817.6" y="378.2" class="st0" width="21.6" height="0.5"/>
		<rect x="817.6" y="382.7" class="st0" width="21.6" height="0.5"/>
		<rect x="817.6" y="387" class="st0" width="21.6" height="0.5"/>
		<rect x="817.6" y="391.5" class="st0" width="21.6" height="0.5"/>
		<rect x="817.6" y="396" class="st0" width="21.6" height="0.5"/>
		<rect x="817.6" y="400.5" class="st0" width="21.6" height="0.5"/>
		<rect x="817.6" y="405" class="st0" width="21.6" height="0.5"/>
		<rect x="817.6" y="409.5" class="st0" width="21.6" height="0.5"/>
		<rect x="787.6" y="409.5" class="st0" width="14.3" height="0.5"/>
		<rect x="789.4" y="404.5" class="st0" width="12.5" height="0.5"/>
		<rect x="794.4" y="399.5" class="st0" width="7.5" height="0.5"/>
		<rect x="816.2" y="410" class="st0" width="0.5" height="20.7"/>
		<rect x="811.5" y="410" class="st0" width="0.5" height="20.7"/>
		<rect x="806.8" y="410" class="st0" width="0.5" height="20.7"/>
		<rect x="802" y="410" class="st0" width="0.5" height="20.7"/>
		
			<rect x="773.3" y="403" transform="matrix(-0.7071 0.7071 -0.7071 -0.7071 1635.2173 129.206)" class="st0" width="35.1" height="0.5"/>
		
			<rect x="773.5" y="405" transform="matrix(-0.7071 0.7071 -0.7071 -0.7071 1638.2424 131.9985)" class="st0" width="36.6" height="0.5"/>
		<rect x="839.2" y="380.2" class="st0" width="0.5" height="37.7"/>
		<rect x="839.2" y="359" class="st0" width="0.5" height="2.1"/>
		<g>
			<rect x="816.2" y="359" class="st0" width="1.3" height="51"/>
			<polygon class="st0" points="803.2,392 801.9,392 801.9,410 802,410 803.2,410 816.2,410 816.2,408.5 803.2,408.5 			"/>
		</g>
		<rect x="779.2" y="381" class="st0" width="1.3" height="50"/>
		<path class="st0" d="M830.5,359.5c0-1.1-0.9-2.1-2.1-2.1s-2.1,0.9-2.1,2.1c0,1.1,0.8,1.9,1.8,2.1V420h-36.3V409h1.3l-1.5-2.6
			l-1.5,2.6h1.3V420v0.5h0.5h36.3h0.5V420v-58.5C829.7,361.4,830.5,360.5,830.5,359.5z"/>
		<rect x="839.2" y="361" class="st0" width="11.1" height="19.1"/>
		<rect x="761.4" y="369.9" class="st0" width="19.1" height="11.1"/>
		<polygon class="st0" points="839.2,417.8 839.2,430.5 761.4,430.5 761.4,441.8 839.2,441.8 846.6,441.8 850.3,441.8 850.3,417.8 
					"/>
	</g>
</g>
<polygon class="st0" points="851.6,-16.1 852.2,-16.1 890,-16.1 901.7,-4.3 905.8,-8.4 895.5,-18.6 895.5,-29.5 895.5,-29.5 
	895.5,-135.6 895.5,-141.2 889.9,-141.2 786.3,-141.2 786,-141.2 772.6,-141.2 762.3,-151.5 758.2,-147.4 770.1,-135.6 786,-135.6 
	786.3,-135.6 889.9,-135.6 889.9,-32.4 889.9,-29.5 889.9,-18.5 852.2,-18.5 852.2,-36.3 840.3,-36.3 840.3,-30.4 788,-30.4 
	785.6,-30.4 782.1,-30.4 782.1,-36.3 761.9,-36.3 761.9,-24.5 782.1,-24.5 782.1,-28 785.6,-28 785.6,43.4 762.4,43.4 762.4,43.4 
	737,43.4 737,45.8 762.4,45.8 762.4,57.2 824.1,57.2 824.1,59.7 840.3,59.7 840.3,79 848.4,79 848.4,90.2 850.8,90.2 850.8,79 
	850.8,79 850.8,59.7 890.4,59.7 890.4,43.4 788,43.4 788,-28 840.3,-28 840.3,-16.1 "/>
<g id="Doors_20_">
	<path class="st0" d="M500.7,29.9h0.2c5.9,0,10.7-5,10.7-11.2l0,0h-0.3c0,5.9-4.5,10.7-10.2,10.8V18.7h-0.3L500.7,29.9L500.7,29.9
		L500.7,29.9z"/>
</g>
<g id="Doors_19_">
	<path class="st0" d="M487.3-32.3L487.3-32.3c0,4.9,4.1,8.7,9,8.7l0,0v-0.3c-4.8,0-8.7-3.7-8.8-8.2h8.8v-0.2H487.3L487.3-32.3
		L487.3-32.3z"/>
</g>
<g id="Doors_18_">
	<path class="st0" d="M484.4,4.5h0.1c4.2,0,7.6-3.2,7.6-7.2l0,0h-0.2c0,3.8-3.2,6.9-7.2,7v-7h-0.2L484.4,4.5L484.4,4.5L484.4,4.5z"
		/>
</g>
<g id="Doors_17_">
	<path class="st0" d="M484.4-76h0.1c4.2,0,7.6,3.2,7.6,7.2l0,0h-0.2c0-3.8-3.2-6.9-7.2-7v7h-0.2L484.4-76L484.4-76L484.4-76z"/>
</g>
<g id="Doors_16_">
	<path class="st0" d="M487.3-47.9L487.3-47.9c0,4.9,4.1,8.7,9,8.7l0,0v-0.3c-4.8,0-8.7-3.7-8.8-8.2h8.8V-48L487.3-47.9L487.3-47.9
		L487.3-47.9z"/>
</g>
<rect x="677.5" y="-68.8" class="st0" width="18.4" height="2.4"/>
<polygon class="st0" points="717.5,43.4 717.5,27 706.9,27 706.9,-118.5 696,-118.5 696,-95.3 694.8,-95.3 675.3,-95.3 665.7,-95.3 
	663.4,-95.3 663.4,-93 663.4,-47.7 665.7,-47.7 665.7,-66.4 670.4,-66.4 670.4,-68.8 665.7,-68.8 665.7,-93 675.3,-93 675.3,-86.1 
	696,-86.1 696,-36.9 665.7,-36.9 665.7,-39.4 663.4,-39.4 663.4,-36.9 663.4,-36.9 663.4,-34.6 663.4,-34.6 663.4,-32.1 
	665.7,-32.1 665.7,-34.6 696,-34.6 696,-5.1 677.5,-5.1 677.5,-2.7 696,-2.7 696,16.3 665.7,16.3 665.7,-2.7 670.4,-2.7 670.4,-5.1 
	665.7,-5.1 665.7,-23.9 663.4,-23.9 663.4,16.3 661.1,16.3 661.1,18.7 696,18.7 696,35 672,35 672,54.2 646.2,54.2 646.2,18.7 
	650.9,18.7 650.9,15.8 646.2,15.8 646.2,-191 655.5,-191 655.5,-202.9 635.7,-202.9 635.7,-191 641.4,-191 641.4,61.8 646.2,61.8 
	646.2,56.5 672,56.5 679.9,56.5 696,56.5 697.8,56.5 704.5,56.5 704.5,90.5 706.9,90.5 706.9,56.5 706.9,47.3 717.5,47.3 
	717.5,45.8 722.2,45.8 722.2,43.4 "/>
<g id="Doors_15_">
	<path class="st0" d="M661.4,29.9h-0.2c-5.9,0-10.7-5-10.7-11.2l0,0h0.3c0,5.9,4.5,10.7,10.2,10.8V18.7h0.3L661.4,29.9L661.4,29.9
		L661.4,29.9z"/>
</g>
<g id="Doors_21_">
	<path class="st0" d="M674.8-32.3L674.8-32.3c0,4.9-4.1,8.7-9,8.7l0,0v-0.3c4.8,0,8.7-3.7,8.8-8.2h-8.8v-0.2H674.8L674.8-32.3
		L674.8-32.3z"/>
</g>
<g id="Doors_14_">
	<path class="st0" d="M677.8,4.5L677.8,4.5c-4.3,0-7.7-3.2-7.7-7.2l0,0h0.2c0,3.8,3.2,6.9,7.2,7v-7h0.2L677.8,4.5L677.8,4.5
		L677.8,4.5z"/>
</g>
<g id="Doors_13_">
	<path class="st0" d="M677.8-76L677.8-76c-4.3,0-7.7,3.2-7.7,7.2l0,0h0.2c0-3.8,3.2-6.9,7.2-7v7h0.2L677.8-76L677.8-76L677.8-76z"/>
</g>
<g id="Doors_12_">
	<path class="st0" d="M674.8-47.9L674.8-47.9c0,4.9-4.1,8.7-9,8.7l0,0v-0.3c4.8,0,8.7-3.7,8.8-8.2h-8.8V-48L674.8-47.9L674.8-47.9
		L674.8-47.9z"/>
</g>
<g id="Doors_11_">
	<path class="st0" d="M661.3,61.4v0.2c0,7.3-6.7,13.2-15,13.2l0,0v-0.4c8,0,14.4-5.6,14.6-12.6h-14.6v-0.4L661.3,61.4L661.3,61.4
		L661.3,61.4z"/>
</g>
<use xlink:href="#Doors_23_"  width="16.1" height="15.8" x="-8" y="-7.9" transform="matrix(-6.679300e-011 0.7072 -0.7805 -6.679300e-011 463.8103 81.6431)" style="overflow:visible;"/>
<g id="Doors_10_">
	<path class="st0" d="M423,286.2h0.2c6.6,0,11.9,5.3,11.9,11.9l0,0h-0.4c0-6.3-5.1-11.4-11.3-11.5V298H423L423,286.2L423,286.2
		L423,286.2z"/>
</g>
<g id="Doors_9_">
	<path class="st0" d="M388.8,264.2v0.2c0,6.6,5.3,11.9,11.9,11.9l0,0v-0.4c-6.3,0-11.4-5.1-11.5-11.3h11.5v-0.4H388.8L388.8,264.2
		L388.8,264.2z"/>
</g>
<g id="Doors_8_">
	<path class="st0" d="M473,280v-0.2c0-8.2-6.9-14.8-15.4-14.8l0,0v0.5c8.1,0,14.8,6.3,14.9,14.1h-14.9v0.5L473,280L473,280L473,280z
		"/>
</g>
<g id="Doors_22_">
	<path class="st0" d="M689.3,265v0.2c0,8.2,6.9,14.8,15.4,14.8l0,0v-0.5c-8.1,0-14.8-6.3-14.9-14.1h14.9v-0.5L689.3,265L689.3,265
		L689.3,265z"/>
</g>
<g id="Doors_7_">
	<path class="st0" d="M825.5,237.5v0.3c0,9.6,8.5,17.4,19,17.4l0,0v-0.5c-10,0-18.2-7.4-18.4-16.5h18.4v-0.5L825.5,237.5
		L825.5,237.5L825.5,237.5z"/>
</g>
<g id="Doors_6_">
	<path class="st0" d="M827.3,211.4v-0.2c0-7.8,7.7-14.2,17.2-14.2l0,0v0.4c-9.1,0-16.5,6-16.7,13.5h16.7v0.4L827.3,211.4
		L827.3,211.4L827.3,211.4z"/>
</g>
<g id="Doors_5_">
	<path class="st0" d="M544,275.9h0.2c7.5,0,13.6,6,13.6,13.4l0,0h-0.4c0-7.1-5.8-12.9-13-13v13H544V275.9L544,275.9L544,275.9z"/>
</g>
<use xlink:href="#Doors_23_"  width="16.1" height="15.8" x="-8" y="-7.9" transform="matrix(0.8983 0 0 0.8475 611.074 282.5928)" style="overflow:visible;enable-background:new    ;"/>
<g id="Doors_4_">
	<path class="st0" d="M749.6,284.5h-0.2c-7.4,0-13.5,6.1-13.5,13.6l0,0h0.4c0-7.2,5.7-13.1,12.8-13.2v13.2h0.4L749.6,284.5
		L749.6,284.5L749.6,284.5z"/>
</g>
<g id="Doors_3_">
	<path class="st0" d="M922.8,284.5L922.8,284.5c-5.5,0-9.9,5.6-9.9,12.5l0,0h0.3c0-6.6,4.2-12,9.4-12.1V297h0.3L922.8,284.5
		L922.8,284.5L922.8,284.5z"/>
</g>
<g id="Doors_2_">
	<path class="st0" d="M761.5,235.9h-0.3c-9.8,0-17.7,7.8-17.7,17.4l0,0h0.6c0-9.2,7.5-16.7,16.9-16.8v16.8h0.6L761.5,235.9
		L761.5,235.9L761.5,235.9z"/>
</g>
<g>
	<polygon class="st0" points="466.2,289.4 464.4,289.4 457.6,289.4 457.6,279.5 455.3,279.5 455.3,289.4 455.3,289.4 455.3,298 
		446.3,298 444.7,298 434.7,298 434.7,301.7 444.7,301.7 444.7,318.3 455.3,318.3 455.3,464.4 466.2,464.4 466.2,441.2 486.9,441.2 
		486.9,432 466.2,432 466.2,310.9 490.1,310.9 490.1,291.7 544.5,291.7 544.5,289.4 490.1,289.4 	"/>
	<polygon class="st0" points="715.4,298 707,298 707,289.4 707,279.5 704.7,279.5 704.7,289.4 698,289.4 696.2,289.4 672.2,289.4 
		617.8,289.4 617.8,291.7 672.2,291.7 672.2,310.9 696.2,310.9 696.2,432 675.5,432 675.5,441.2 696.2,441.2 696.2,464.4 707,464.4 
		707,318.3 717.7,318.3 717.7,301.7 736.5,301.7 736.5,298 717.7,298 	"/>
</g>
<g id="Doors_1_">
	<path class="st0" d="M727.8,115.2v0.2c0,8.1-7,14.7-15.6,14.7l0,0v-0.4c8.2,0,14.9-6.2,15.1-14h-15.1v-0.5H727.8L727.8,115.2
		L727.8,115.2z"/>
</g>
<g id="Doors">
	<path class="st0" d="M737.3,60.2h-0.2c-8.5,0-15.3-6.4-15.3-14.4l0,0h0.5c0,7.6,6.5,13.8,14.6,13.9V45.8h0.5L737.3,60.2L737.3,60.2
		L737.3,60.2z"/>
</g>
<polygon class="st0" points="390.9,480.5 377.1,480.5 374.7,480.5 271.1,480.5 271.1,377.4 271.1,361 259.3,349.3 255.2,353.4 
	265.5,363.5 265.5,377.4 265.5,377.4 265.5,486 265.5,486 271.1,486 374.7,486 377.1,486 388.5,486 398.7,496.5 402.8,492.4 "/>
<polygon class="st0" points="901.7,349.3 889.8,361 889.8,377.4 889.8,377.4 889.8,480.5 786.3,480.5 783.7,480.5 770.1,480.5 
	758.2,492.4 762.3,496.5 772.6,486 783.7,486 786.3,486 889.8,486 895.4,486 895.4,486 895.4,377.4 895.4,377 895.4,363.5 
	905.8,353.4 "/>
<g class="st1">
	<path class="st0" d="M335.9-6.7l0.8-0.7c0.8,0.9,1.7,1.5,2.9,1.5c1.2,0,2.2-0.8,2.2-1.9c0-1.2-1.1-1.9-2.8-1.9h-0.6l-0.2-0.7
		l3.1-3.5h-4.8v-1h6.3v0.8l-3.1,3.4c1.7,0.1,3.3,1,3.3,2.8s-1.5,3-3.3,3C338-4.9,336.7-5.6,335.9-6.7z"/>
	<path class="st0" d="M344.7-10c0-2.8,1.6-5.1,4.2-5.1s4.1,2.3,4.1,5.1s-1.6,5.1-4.2,5.1C346.4-4.9,344.7-7.2,344.7-10z M351.9-10
		c0-2.2-1.2-4.1-3-4.1s-3,1.9-3,4.1s1.2,4.1,3,4.1C350.8-5.9,351.9-7.8,351.9-10z"/>
	<path class="st0" d="M354.7-7.8c0-1.2,0.8-2,2-2.4c-0.9-0.4-1.7-1.1-1.7-2.3c0-1.5,1.6-2.6,3.4-2.6s3.4,1.1,3.4,2.6
		c0,1.1-0.8,1.8-1.7,2.3c1.2,0.4,2,1.2,2,2.4c0,1.7-1.6,2.8-3.7,2.8C356.3-4.9,354.7-6.1,354.7-7.8z M361-7.8c0-1.1-1.1-1.9-2.6-1.9
		s-2.6,0.8-2.6,1.9c0,1,1,1.8,2.6,1.8S361-6.8,361-7.8z M360.6-12.4c0-1-1-1.7-2.3-1.7s-2.3,0.7-2.3,1.7c0,1.1,1,1.8,2.3,1.8
		S360.6-11.3,360.6-12.4z"/>
	<path class="st0" d="M363.5-3.9c0.6-0.2,0.9-0.6,0.9-1.1v-0.1h-0.5v-1.5h1.3v1.3c0,1.1-0.5,1.7-1.6,1.9L363.5-3.9z"/>
	<path class="st0" d="M367.1-9.8c0-3,1.5-5.4,4.1-5.4c1.2,0,2.1,0.4,2.9,1.1l-0.6,0.9c-0.7-0.6-1.4-1-2.3-1c-1.8,0-2.9,1.8-2.9,4.3
		l0,0c0.5-0.8,1.4-1.5,2.8-1.5c1.8,0,3.4,1.2,3.4,3.1S373-5,371-5C368.8-4.9,367.1-6.3,367.1-9.8z M373.4-8.2c0-1.2-1-2.1-2.4-2.1
		c-1.5,0-2.5,1.1-2.5,2.2c0,1.3,1,2.2,2.5,2.2S373.4-6.9,373.4-8.2z"/>
</g>
<g class="st1">
	<path class="st0" d="M564.7-167.9l-1.9,0.6l-0.3-0.9l2.4-0.8h0.8v9.9h-1.1L564.7-167.9L564.7-167.9z"/>
	<path class="st0" d="M567.9-160.7l0.8-0.7c0.8,0.9,1.7,1.5,2.9,1.5s2.2-0.8,2.2-1.9c0-1.2-1.1-1.9-2.8-1.9h-0.6l-0.2-0.7l3.1-3.5
		h-4.8v-1h6.3v0.8l-3.1,3.4c1.7,0.1,3.3,1,3.3,2.8s-1.5,3-3.3,3C569.9-158.9,568.7-159.6,567.9-160.7z"/>
	<path class="st0" d="M581.9-167.9h-5.4v-1h6.7v0.8l-4.5,9h-1.2L581.9-167.9z"/>
	<path class="st0" d="M583.2-157.9c0.6-0.2,0.9-0.6,0.9-1.1v-0.1h-0.5v-1.5h1.3v1.3c0,1.1-0.5,1.7-1.6,1.9L583.2-157.9z"/>
	<path class="st0" d="M587.1-160.1l0.6-0.9c0.8,0.7,1.5,1.1,2.4,1.1c1.7,0,2.9-1.7,2.9-4.2v-0.1c-0.5,0.9-1.4,1.6-2.8,1.6
		c-2,0-3.4-1.3-3.4-3.1c0-1.9,1.5-3.4,3.5-3.4c2.2,0,3.8,1.3,3.8,4.9c0,3.1-1.7,5.3-4.1,5.3C588.8-158.9,587.9-159.4,587.1-160.1z
		 M592.9-165.9c0-1.3-1-2.2-2.5-2.2s-2.4,1.1-2.4,2.3c0,1.3,1,2.2,2.4,2.2C591.9-163.6,592.9-164.7,592.9-165.9z"/>
</g>
<g class="st1">
	<path class="st0" d="M341.3,258.4h-5.2l-0.3-0.8l5.6-6.8h1v6.7h1.5v0.9h-1.5v2.3h-1.1V258.4z M341.3,257.4v-5.1l-4.1,5.1H341.3z"/>
	<path class="st0" d="M350.5,251.8h-5.4v-1h6.7v0.8l-4.5,9h-1.2L350.5,251.8z"/>
	<path class="st0" d="M351.8,261.9c0.6-0.2,0.9-0.6,0.9-1.1v-0.1h-0.5v-1.5h1.3v1.3c0,1.1-0.5,1.7-1.6,1.9L351.8,261.9z"/>
	<path class="st0" d="M360.7,258.4h-5.2l-0.3-0.8l5.6-6.8h1v6.7h1.5v0.9h-1.5v2.3h-1.1V258.4z M360.7,257.4v-5.1l-4.1,5.1H360.7z"/>
</g>
<g class="st1">
	<path class="st0" d="M335.9,199.2l0.8-0.7c0.8,0.9,1.7,1.5,2.9,1.5c1.2,0,2.2-0.8,2.2-1.9c0-1.2-1.1-1.9-2.8-1.9h-0.6l-0.2-0.7
		l3.1-3.5h-4.8v-1h6.3v0.8l-3.1,3.4c1.7,0.1,3.3,1,3.3,2.8s-1.5,3-3.3,3C338,201,336.7,200.2,335.9,199.2z"/>
	<path class="st0" d="M346.4,192l-1.9,0.6l-0.3-0.9l2.4-0.8h0.8v9.9h-1.1V192H346.4z"/>
	<path class="st0" d="M349.6,202c0.6-0.2,0.9-0.6,0.9-1.1v-0.1H350v-1.5h1.3v1.3c0,1.1-0.5,1.7-1.6,1.9L349.6,202z"/>
	<path class="st0" d="M353.1,198.1c0-1.2,0.8-2,2-2.4c-0.9-0.4-1.7-1.1-1.7-2.3c0-1.5,1.6-2.6,3.4-2.6s3.4,1.1,3.4,2.6
		c0,1.1-0.8,1.8-1.7,2.3c1.2,0.4,2,1.2,2,2.4c0,1.7-1.6,2.8-3.7,2.8S353.1,199.8,353.1,198.1z M359.4,198.1c0-1.1-1.1-1.9-2.6-1.9
		s-2.6,0.8-2.6,1.9c0,1,1,1.8,2.6,1.8S359.4,199.1,359.4,198.1z M359.1,193.5c0-1-1-1.7-2.3-1.7s-2.3,0.7-2.3,1.7
		c0,1.1,1,1.8,2.3,1.8S359.1,194.6,359.1,193.5z"/>
</g>
<g class="st1">
	<path class="st0" d="M789.1,251.9l-1.9,0.6l-0.3-0.9l2.4-0.8h0.8v9.9H789L789.1,251.9L789.1,251.9z"/>
	<path class="st0" d="M798,251.8h-5.4v-1h6.7v0.8l-4.5,9h-1.2L798,251.8z"/>
	<path class="st0" d="M799.2,261.9c0.6-0.2,0.9-0.6,0.9-1.1v-0.1h-0.5v-1.5h1.3v1.3c0,1.1-0.5,1.7-1.6,1.9L799.2,261.9z"/>
	<path class="st0" d="M808.2,251.8h-5.4v-1h6.7v0.8l-4.5,9h-1.2L808.2,251.8z"/>
</g>
<g class="st1">
	<path class="st0" d="M897.6,258.4h-5.2l-0.3-0.8l5.6-6.8h1v6.7h1.5v0.9h-1.5v2.3h-1.1V258.4z M897.6,257.4v-5.1l-4.1,5.1H897.6z"/>
	<path class="st0" d="M902,259.7l0.6-0.9c0.8,0.7,1.5,1.1,2.4,1.1c1.7,0,2.9-1.7,2.9-4.2v-0.1c-0.5,0.9-1.4,1.6-2.8,1.6
		c-2,0-3.4-1.3-3.4-3.1c0-1.9,1.5-3.4,3.5-3.4c2.2,0,3.8,1.3,3.8,4.9c0,3.1-1.7,5.3-4.1,5.3C903.7,260.9,902.8,260.3,902,259.7z
		 M907.7,253.9c0-1.3-1-2.2-2.5-2.2s-2.4,1.1-2.4,2.3c0,1.3,1,2.2,2.4,2.2C906.8,256,907.7,255,907.7,253.9z"/>
	<path class="st0" d="M910.5,261.9c0.6-0.2,0.9-0.6,0.9-1.1v-0.1h-0.5v-1.5h1.3v1.3c0,1.1-0.5,1.7-1.6,1.9L910.5,261.9z"/>
	<path class="st0" d="M914.4,259.7l0.6-0.9c0.8,0.7,1.5,1.1,2.4,1.1c1.7,0,2.9-1.7,2.9-4.2v-0.1c-0.5,0.9-1.4,1.6-2.8,1.6
		c-2,0-3.4-1.3-3.4-3.1c0-1.9,1.5-3.4,3.5-3.4c2.2,0,3.8,1.3,3.8,4.9c0,3.1-1.7,5.3-4.1,5.3C916.1,260.9,915.2,260.3,914.4,259.7z
		 M920.2,253.9c0-1.3-1-2.2-2.5-2.2s-2.4,1.1-2.4,2.3c0,1.3,1,2.2,2.4,2.2C919.2,256,920.2,255,920.2,253.9z"/>
</g>
<g class="st1">
	<path class="st0" d="M787.3,155.7l0.8-0.7c0.8,0.9,1.7,1.5,2.9,1.5s2.2-0.8,2.2-1.9c0-1.2-1.1-1.9-2.8-1.9h-0.6l-0.2-0.7l3.1-3.5
		h-4.8v-1h6.3v0.8l-3.2,3.4c1.7,0.1,3.3,1,3.3,2.8s-1.5,3-3.3,3C789.3,157.5,788.1,156.8,787.3,155.7z"/>
	<path class="st0" d="M797.7,148.5l-1.9,0.6l-0.3-0.9l2.4-0.8h0.8v9.9h-1.1L797.7,148.5L797.7,148.5z"/>
	<path class="st0" d="M800.9,158.5c0.6-0.2,0.9-0.6,0.9-1.1v-0.1h-0.5v-1.5h1.3v1.3c0,1.1-0.5,1.7-1.6,1.9L800.9,158.5z"/>
	<path class="st0" d="M809.8,155h-5.2l-0.3-0.8l5.6-6.8h1v6.7h1.5v0.9h-1.5v2.3h-1.1V155z M809.8,154.1v-5.1l-4.1,5.1H809.8z"/>
</g>
<g class="st1">
	<path class="st0" d="M792.7,117.2h-5.2l-0.3-0.8l5.6-6.8h1v6.7h1.5v0.9h-1.5v2.3h-1.1V117.2z M792.7,116.3v-5.1l-4.1,5.1H792.7z"/>
	<path class="st0" d="M798.3,110.8l-1.9,0.6l-0.3-0.9l2.4-0.8h0.8v9.9h-1.1L798.3,110.8L798.3,110.8z"/>
	<path class="st0" d="M801.4,120.8c0.6-0.2,0.9-0.6,0.9-1.1v-0.1h-0.5v-1.5h1.3v1.3c0,1.1-0.5,1.7-1.6,1.9L801.4,120.8z"/>
	<path class="st0" d="M804.9,118l0.8-0.7c0.8,0.9,1.7,1.5,2.9,1.5s2.2-0.8,2.2-1.9c0-1.2-1.1-1.9-2.8-1.9h-0.6l-0.2-0.7l3.1-3.5
		h-4.8v-1h6.3v0.8l-3.1,3.4c1.7,0.1,3.3,1,3.3,2.8s-1.5,3-3.3,3C807,119.7,805.7,119,804.9,118z"/>
</g>
<g class="st1">
	<path class="st0" d="M864,17.3l0.7-0.8c0.9,0.8,1.8,1.4,2.8,1.4c1.4,0,2.4-0.9,2.4-2.2c0-1.2-1-2.1-2.5-2.1c-0.8,0-1.5,0.3-2.1,0.6
		l-0.7-0.5l0.3-4.8h5.7v1h-4.7l-0.2,3.2c0.6-0.3,1.1-0.4,1.9-0.4c1.9,0,3.4,1.1,3.4,3s-1.5,3.2-3.5,3.2
		C866.1,18.9,864.9,18.2,864,17.3z"/>
	<path class="st0" d="M872.6,17.1l0.8-0.7c0.8,0.9,1.7,1.5,2.9,1.5s2.2-0.8,2.2-1.9c0-1.2-1.1-1.9-2.8-1.9H875l-0.2-0.7l3.1-3.5
		h-4.8v-1h6.3v0.8l-3.1,3.4c1.7,0.1,3.3,1,3.3,2.8s-1.5,3-3.3,3C874.6,18.9,873.4,18.2,872.6,17.1z"/>
	<path class="st0" d="M881.1,19.9c0.6-0.2,0.9-0.6,0.9-1.1v-0.1h-0.5v-1.5h1.3v1.3c0,1.1-0.5,1.7-1.6,1.9L881.1,19.9z"/>
	<path class="st0" d="M884.7,17.1l0.8-0.7c0.8,0.9,1.7,1.5,2.9,1.5s2.2-0.8,2.2-1.9c0-1.2-1.1-1.9-2.8-1.9h-0.6l-0.2-0.7l3.1-3.5
		h-4.8v-1h6.3v0.8l-3.1,3.4c1.7,0.1,3.3,1,3.3,2.8s-1.5,3-3.3,3C886.7,18.9,885.5,18.2,884.7,17.1z"/>
</g>
<g class="st1">
	<path class="st0" d="M410.3,281.2l0.6-0.9c0.8,0.7,1.5,1.1,2.4,1.1c1.7,0,2.9-1.7,2.9-4.2V277c-0.5,0.9-1.4,1.6-2.8,1.6
		c-2,0-3.4-1.3-3.4-3.1c0-1.9,1.5-3.4,3.5-3.4c2.2,0,3.8,1.3,3.8,4.9c0,3.1-1.7,5.3-4.1,5.3C412.1,282.4,411.2,281.9,410.3,281.2z
		 M416.1,275.5c0-1.3-1-2.2-2.5-2.2s-2.4,1.1-2.4,2.3c0,1.3,1,2.2,2.4,2.2C415.2,277.7,416.1,276.5,416.1,275.5z"/>
	<path class="st0" d="M418.9,283.5c0.6-0.2,0.9-0.6,0.9-1.1v-0.1h-0.5v-1.5h1.3v1.3c0,1.1-0.5,1.7-1.6,1.9L418.9,283.5z"/>
	<path class="st0" d="M422.8,281.2l0.6-0.9c0.8,0.7,1.5,1.1,2.4,1.1c1.7,0,2.9-1.7,2.9-4.2V277c-0.5,0.9-1.4,1.6-2.8,1.6
		c-2,0-3.4-1.3-3.4-3.1c0-1.9,1.5-3.4,3.5-3.4c2.2,0,3.8,1.3,3.8,4.9c0,3.1-1.7,5.3-4.1,5.3C424.5,282.4,423.6,281.9,422.8,281.2z
		 M428.6,275.5c0-1.3-1-2.2-2.5-2.2s-2.4,1.1-2.4,2.3c0,1.3,1,2.2,2.4,2.2C427.6,277.7,428.6,276.5,428.6,275.5z"/>
</g>
<g class="st1">
	<path class="st0" d="M500.9,273.5L499,274l-0.3-0.9l2.4-0.8h0.8v9.9h-1.1v-8.8H500.9z"/>
	<path class="st0" d="M504.2,280.9l0.7-0.8c0.9,0.8,1.8,1.4,2.8,1.4c1.4,0,2.4-0.9,2.4-2.2c0-1.2-1-2.1-2.5-2.1
		c-0.8,0-1.5,0.3-2.1,0.6l-0.7-0.5l0.3-4.8h5.7v1h-4.7l-0.2,3.2c0.6-0.3,1.1-0.4,1.9-0.4c1.9,0,3.4,1.1,3.4,3c0,1.9-1.5,3.2-3.5,3.2
		C506.3,282.4,505.1,281.8,504.2,280.9z"/>
	<path class="st0" d="M512.7,283.5c0.6-0.2,0.9-0.6,0.9-1.1v-0.1h-0.5v-1.5h1.3v1.3c0,1.1-0.5,1.7-1.6,1.9L512.7,283.5z"/>
	<path class="st0" d="M521.6,273.4h-5.4v-1h6.7v0.8l-4.5,9h-1.2L521.6,273.4z"/>
</g>
<g class="st1">
	<path class="st0" d="M642.2,273.5l-1.9,0.6l-0.3-0.9l2.4-0.8h0.8v9.9h-1.1L642.2,273.5L642.2,273.5z"/>
	<path class="st0" d="M645.5,280.9l0.7-0.8c0.9,0.8,1.8,1.4,2.8,1.4c1.4,0,2.4-0.9,2.4-2.2c0-1.2-1-2.1-2.5-2.1
		c-0.8,0-1.5,0.3-2.1,0.6l-0.7-0.5l0.3-4.8h5.7v1h-4.7l-0.2,3.2c0.6-0.3,1.1-0.4,1.9-0.4c1.9,0,3.4,1.1,3.4,3c0,1.9-1.5,3.2-3.5,3.2
		C647.6,282.4,646.4,281.8,645.5,280.9z"/>
	<path class="st0" d="M654,283.5c0.6-0.2,0.9-0.6,0.9-1.1v-0.1h-0.5v-1.5h1.3v1.3c0,1.1-0.5,1.7-1.6,1.9L654,283.5z"/>
	<path class="st0" d="M658.6,273.5l-1.9,0.6l-0.3-0.9l2.4-0.8h0.8v9.9h-1.1L658.6,273.5L658.6,273.5z"/>
</g>
<g class="st1">
	<path class="st0" d="M721,273.5l-1.9,0.6l-0.3-0.9l2.4-0.8h0.8v9.9h-1V273.5z"/>
	<path class="st0" d="M724.4,277.3c0-2.8,1.6-5.1,4.2-5.1s4.1,2.3,4.1,5.1s-1.6,5.1-4.2,5.1C726,282.4,724.4,280,724.4,277.3z
		 M731.6,277.3c0-2.2-1.2-4.1-3-4.1s-3,1.9-3,4.1s1.2,4.1,3,4.1C730.4,281.4,731.6,279.5,731.6,277.3z"/>
	<path class="st0" d="M734,283.5c0.6-0.2,0.9-0.6,0.9-1.1v-0.1h-0.5v-1.5h1.3v1.3c0,1.1-0.5,1.7-1.6,1.9L734,283.5z"/>
	<path class="st0" d="M737.6,277.5c0-3,1.5-5.4,4.1-5.4c1.2,0,2.1,0.4,2.9,1.1l-0.6,0.9c-0.7-0.6-1.4-1-2.3-1
		c-1.8,0-2.9,1.8-2.9,4.3l0,0c0.5-0.8,1.4-1.5,2.8-1.5c1.8,0,3.4,1.2,3.4,3.1c0,1.9-1.5,3.3-3.5,3.3
		C739.3,282.4,737.6,281,737.6,277.5z M743.9,279.2c0-1.2-1-2.1-2.4-2.1c-1.5,0-2.5,1.1-2.5,2.2c0,1.3,1,2.2,2.5,2.2
		C742.9,281.5,743.9,280.5,743.9,279.2z"/>
</g>
<g class="st1">
	<path class="st0" d="M719.2,199.9l3.6-3.2c1.5-1.3,2.1-2.1,2.1-3.1c0-1.2-0.9-1.9-2-1.9s-1.9,0.6-2.6,1.7l-0.8-0.6
		c0.9-1.3,1.8-2.1,3.5-2.1c1.8,0,3.1,1.2,3.1,2.8c0,1.4-0.8,2.3-2.5,3.8l-2.6,2.3h5.2v1h-6.9L719.2,199.9L719.2,199.9z"/>
	<path class="st0" d="M727.6,199.2l0.8-0.7c0.8,0.9,1.7,1.5,2.9,1.5s2.2-0.8,2.2-1.9c0-1.2-1.1-1.9-2.8-1.9h-0.6l-0.2-0.7l3.1-3.5
		h-4.8v-1h6.3v0.8l-3.1,3.4c1.7,0.1,3.3,1,3.3,2.8s-1.5,3-3.3,3C729.7,201,728.4,200.2,727.6,199.2z"/>
	<path class="st0" d="M736.2,202c0.6-0.2,0.9-0.6,0.9-1.1v-0.1h-0.5v-1.5h1.3v1.3c0,1.1-0.5,1.7-1.6,1.9L736.2,202z"/>
	<path class="st0" d="M739.8,198.1c0-1.2,0.8-2,2-2.4c-0.9-0.4-1.7-1.1-1.7-2.3c0-1.5,1.6-2.6,3.4-2.6s3.4,1.1,3.4,2.6
		c0,1.1-0.8,1.8-1.7,2.3c1.2,0.4,2,1.2,2,2.4c0,1.7-1.6,2.8-3.7,2.8C741.4,200.9,739.8,199.8,739.8,198.1z M746,198.1
		c0-1.1-1.1-1.9-2.6-1.9s-2.6,0.8-2.6,1.9c0,1,1,1.8,2.6,1.8C745.1,200,746,199.1,746,198.1z M745.7,193.5c0-1-1-1.7-2.3-1.7
		s-2.3,0.7-2.3,1.7c0,1.1,1,1.8,2.3,1.8S745.7,194.6,745.7,193.5z"/>
</g>
<g class="st1">
	<path class="st0" d="M719.2,77.3l3.6-3.2c1.5-1.3,2.1-2.1,2.1-3.1c0-1.2-0.9-1.9-2-1.9s-1.9,0.6-2.6,1.7l-0.8-0.6
		c0.9-1.3,1.8-2.1,3.5-2.1c1.8,0,3.1,1.2,3.1,2.8c0,1.4-0.8,2.3-2.5,3.8L721,77h5.2v1h-6.9L719.2,77.3L719.2,77.3z"/>
	<path class="st0" d="M727.8,73.2c0-2.8,1.6-5.1,4.2-5.1s4.1,2.3,4.1,5.1c0,2.8-1.6,5.1-4.2,5.1C729.4,78.3,727.8,76,727.8,73.2z
		 M735,73.2c0-2.2-1.2-4.1-3-4.1s-3,1.9-3,4.1s1.2,4.1,3,4.1S735,75.4,735,73.2z"/>
	<path class="st0" d="M737.4,79.4c0.6-0.2,0.9-0.6,0.9-1.1v-0.1h-0.5v-1.5h1.3V78c0,1.1-0.5,1.7-1.6,1.9L737.4,79.4z"/>
	<path class="st0" d="M746.3,69.3h-5.4v-1h6.7v0.8l-4.5,9h-1.2L746.3,69.3z"/>
</g>
<g class="st1">
	<path class="st0" d="M721-13.9l-1.9,0.6l-0.3-0.9l2.4-0.8h0.8v9.9h-1V-13.9z"/>
	<path class="st0" d="M724.3-6.5l0.7-0.8c0.9,0.8,1.8,1.4,2.8,1.4c1.4,0,2.4-0.9,2.4-2.2c0-1.2-1-2.1-2.5-2.1
		c-0.8,0-1.5,0.3-2.1,0.6l-0.7-0.5l0.3-4.8h5.7v1h-4.7l-0.2,3.2c0.6-0.3,1.1-0.4,1.9-0.4c1.9,0,3.4,1.1,3.4,3s-1.5,3.2-3.5,3.2
		C726.4-4.9,725.2-5.6,724.3-6.5z"/>
	<path class="st0" d="M733-10c0-2.8,1.6-5.1,4.2-5.1s4.1,2.3,4.1,5.1s-1.6,5.1-4.2,5.1C734.6-4.9,733-7.2,733-10z M740.2-10
		c0-2.2-1.2-4.1-3-4.1s-3,1.9-3,4.1s1.2,4.1,3,4.1C739.1-5.9,740.2-7.8,740.2-10z"/>
	<path class="st0" d="M742.6-3.9c0.6-0.2,0.9-0.6,0.9-1.1v-0.1H743v-1.5h1.3v1.3c0,1.1-0.5,1.7-1.6,1.9L742.6-3.9z"/>
	<path class="st0" d="M746.1-7.8c0-1.2,0.8-2,2-2.4c-0.9-0.4-1.7-1.1-1.7-2.3c0-1.5,1.6-2.6,3.4-2.6s3.4,1.1,3.4,2.6
		c0,1.1-0.8,1.8-1.7,2.3c1.2,0.4,2,1.2,2,2.4c0,1.7-1.6,2.8-3.7,2.8C747.7-4.9,746.1-6.1,746.1-7.8z M752.4-7.8
		c0-1.1-1.1-1.9-2.6-1.9s-2.6,0.8-2.6,1.9c0,1,1,1.8,2.6,1.8C751.5-5.9,752.4-6.8,752.4-7.8z M752.1-12.4c0-1-1-1.7-2.3-1.7
		s-2.3,0.7-2.3,1.7c0,1.1,1,1.8,2.3,1.8S752.1-11.3,752.1-12.4z"/>
</g>
<g class="st1">
	<path class="st0" d="M789.1,192l-1.9,0.6l-0.2-0.9l2.4-0.8h0.8v9.9h-1.1L789.1,192L789.1,192z"/>
	<path class="st0" d="M792.3,199.9l3.6-3.2c1.5-1.3,2.1-2.1,2.1-3.1c0-1.2-0.9-1.9-2-1.9s-1.9,0.6-2.6,1.7l-0.8-0.6
		c0.9-1.3,1.8-2.1,3.5-2.1c1.8,0,3.1,1.2,3.1,2.8c0,1.4-0.8,2.3-2.5,3.8l-2.6,2.3h5.2v1h-6.9L792.3,199.9L792.3,199.9z"/>
	<path class="st0" d="M800.7,202c0.6-0.2,0.9-0.6,0.9-1.1v-0.1h-0.5v-1.5h1.3v1.3c0,1.1-0.5,1.7-1.6,1.9L800.7,202z"/>
	<path class="st0" d="M804.6,199.7l0.6-0.9c0.8,0.7,1.5,1.1,2.4,1.1c1.7,0,2.9-1.7,2.9-4.2v-0.1c-0.5,0.9-1.4,1.6-2.8,1.6
		c-2,0-3.4-1.3-3.4-3.1c0-1.9,1.5-3.4,3.5-3.4c2.2,0,3.8,1.3,3.8,4.9c0,3.1-1.7,5.3-4.1,5.3C806.4,201,805.4,200.4,804.6,199.7z
		 M810.4,194c0-1.3-1-2.2-2.5-2.2s-2.4,1.1-2.4,2.3c0,1.3,1,2.2,2.4,2.2C809.5,196.2,810.4,195.1,810.4,194z"/>
</g>
<g class="st1">
	<path class="st0" d="M409.9,415l3.6-3.2c1.5-1.3,2.1-2.1,2.1-3.1c0-1.2-0.9-1.9-2-1.9s-1.9,0.6-2.6,1.7l-0.8-0.6
		c0.9-1.3,1.8-2.1,3.5-2.1c1.8,0,3.1,1.2,3.1,2.8c0,1.4-0.8,2.3-2.5,3.8l-2.6,2.3h5.2v1H410V415H409.9z"/>
	<path class="st0" d="M418.8,414.9l0.6-0.9c0.8,0.7,1.5,1.1,2.4,1.1c1.7,0,2.9-1.7,2.9-4.2v-0.2c-0.5,0.9-1.4,1.6-2.8,1.6
		c-2,0-3.4-1.3-3.4-3.1c0-1.9,1.5-3.4,3.5-3.4c2.2,0,3.8,1.3,3.8,4.9c0,3.1-1.7,5.3-4.1,5.3C420.5,416,419.6,415.5,418.8,414.9z
		 M424.6,409c0-1.3-1-2.2-2.5-2.2s-2.4,1.1-2.4,2.3c0,1.3,1,2.2,2.4,2.2C423.6,411.4,424.6,410.3,424.6,409z"/>
	<path class="st0" d="M427.4,414.3l0.8-0.7c0.8,0.9,1.7,1.5,2.9,1.5c1.2,0,2.2-0.8,2.2-1.9c0-1.2-1.1-1.9-2.8-1.9h-0.6l-0.2-0.7
		l3.1-3.5H428v-1h6.3v0.8l-3.1,3.4c1.7,0.1,3.3,1,3.3,2.8s-1.5,3-3.3,3S428.2,415.4,427.4,414.3z"/>
	<path class="st0" d="M435.9,417c0.6-0.2,0.9-0.6,0.9-1.1v-0.1h-0.5v-1.5h1.3v1.3c0,1.1-0.5,1.7-1.6,1.9L435.9,417z"/>
	<path class="st0" d="M439.6,411.2c0-3,1.5-5.4,4.1-5.4c1.2,0,2.1,0.4,2.9,1.1l-0.6,0.9c-0.7-0.6-1.4-1-2.3-1
		c-1.8,0-2.9,1.8-2.9,4.3l0,0c0.5-0.8,1.4-1.5,2.8-1.5c1.8,0,3.4,1.2,3.4,3.1c0,1.9-1.5,3.3-3.5,3.3
		C441.2,416,439.6,414.7,439.6,411.2z M445.8,412.8c0-1.2-1-2.1-2.4-2.1c-1.5,0-2.5,1.1-2.5,2.2c0,1.3,1,2.2,2.5,2.2
		S445.8,414,445.8,412.8z"/>
</g>
<g class="st1">
	<path class="st0" d="M715.2,415l3.6-3.2c1.5-1.3,2.1-2.1,2.1-3.1c0-1.2-0.9-1.9-2-1.9s-1.9,0.6-2.6,1.7l-0.8-0.6
		c0.9-1.3,1.8-2.1,3.5-2.1c1.8,0,3.1,1.2,3.1,2.8c0,1.4-0.8,2.3-2.5,3.8l-2.6,2.3h5.2v1h-6.9L715.2,415L715.2,415z"/>
	<path class="st0" d="M729.1,407h-5.4v-1h6.7v0.8l-4.5,9h-1.2L729.1,407z"/>
	<path class="st0" d="M733.8,407l-1.8,0.6l-0.3-0.9l2.4-0.8h0.8v9.9h-1.1L733.8,407L733.8,407z"/>
	<path class="st0" d="M737,417c0.6-0.2,0.9-0.6,0.9-1.1v-0.1h-0.5v-1.5h1.3v1.3c0,1.1-0.5,1.7-1.6,1.9L737,417z"/>
	<path class="st0" d="M741.6,407l-1.9,0.6l-0.3-0.9l2.4-0.8h0.8v9.9h-1.1L741.6,407L741.6,407z"/>
</g>
<g>
	<path class="st0" d="M547.8,167h5.9V151h-5.9V167z M548.2,151.5h5.2v15.1h-5.2V151.5z"/>
	<path class="st0" d="M547.8,124.3h5.9v-16.1h-5.9V124.3z M548.2,108.5h5.2v15.3h-5.2V108.5z"/>
	<polygon class="st0" points="519.8,172.4 520.1,172.7 533.9,158.8 547.8,172.6 548.1,172.4 534.2,158.5 548,144.6 547.8,144.4 
		533.9,158.2 520,144.4 519.8,144.7 533.6,158.5 	"/>
	<polygon class="st0" points="519.9,130.5 520.2,130.8 533.9,117.1 547.7,130.8 547.9,130.5 534.2,116.8 547.9,103 547.6,102.7 
		533.9,116.5 520.2,102.8 519.9,103.1 533.6,116.8 	"/>
	<path class="st0" d="M484.2,172.2h3.2v-39h-3.2V172.2z M484.6,133.5h2.5v38.3h-2.5V133.5z"/>
	<path class="st0" d="M472.3,142.3h-11v0.4h11v4.1l-11,0l0,0.4l11,0v4.1h-11v0.4h11v4.2h-11v0.4h11v4.1h-11v0.4h11v4.1h-11v0.4h11
		v4.1h-11v0.4h11v2.9c-0.7,0.1-1.2,0.6-1.3,1.3h-9.7v0.4h9.7c0.1,0.7,0.7,1.3,1.5,1.3s1.4-0.6,1.5-1.3h8.5h0.2h6.3h0.2h21.2V174
		h-10.8l1-1.8h-0.9v-2.4h10.7v-0.4h-10.7v-4.1h10.7v-0.4h-10.7v-4.1h10.7v-0.4h-10.7v-4.1h10.7v-0.4h-10.7v-4.2h10.7v-0.4h-10.7
		v-4.1l10.7,0l0-0.4l-10.7,0v-4.1h10.7v-0.4h-10.7V142l11-3l-0.1-0.4l-10.9,3v-1.5l7.2-2h3.5v-0.4h-2.1l1.6-0.4l-0.1-0.4l-2.9,0.8
		h-7.1v-4.1h10.7v-0.4h-10.7v-11.5h-27.4v11.5h-11v0.4h11v4.1h-11.1v0.4h11.1V142.3z M472.7,138h9.8v4.2h-9.8V138z M472.7,142.7h9.8
		v4.1l-9.8,0V142.7z M472.7,147.1l9.8,0v4.1h-9.8V147.1z M472.7,151.7h9.8v4.2h-9.8V151.7z M472.7,156.3h9.8v4.1h-9.8V156.3z
		 M472.7,160.8h9.8v4.1h-9.8V160.8z M472.7,165.3h9.8v4.1h-9.8V165.3z M474,174c-0.1-0.7-0.6-1.2-1.3-1.3v-2.9h9.8v4.2H474z
		 M482.8,174v-42.5h6v11.3l-0.7,0.2l0.1,0.4l0.6-0.2V174H482.8z M489.2,138h10.1v0.4h-0.9l0.8,1.3l-8.7,2.5h-1.3V138z M490.6,142.7
		h5.1l-6.5,1.8V143L490.6,142.7z M499.3,172.2h-0.9l1,1.8h-10.2v-4.2h10.1V172.2z M499.3,169.3h-10.1v-4.1h10.1V169.3z M499.3,164.8
		h-10.1v-4.1h10.1V164.8z M499.3,160.3h-10.1v-4.1h10.1V160.3z M499.3,155.8h-10.1v-4.2h10.1V155.8z M499.3,151.3h-10.1v-4.1l10.1,0
		V151.3z M499.3,146.7l-10.1,0v-1.9l8-2.2h2.1V146.7z M499.3,142.3h-0.6l0.6-0.2V142.3z M497.2,142.3H492l7.3-2.1v1.5L497.2,142.3z
		 M505.4,138l-5.4,1.5l0.7-1.1h-0.9V138H505.4z M499.3,134.2v3.5h-10.1v-4.1h10.1V134.2z M472.7,122h26.6v11.1h-10.1V131h-6.7v2.1
		h-9.8V122z M472.7,133.5h9.8v4.1h-9.8V133.5z"/>
	<g>
		<polygon class="st0" points="608.3,108.5 614.2,108.5 614.2,101.3 654.1,101.2 654.1,139.3 614.2,139.3 614.2,134.5 614.2,123.8 
			608.3,123.8 608.3,134.5 608.3,142.7 608.3,146.8 614.4,146.8 614.4,143.8 640,143.8 640,146.8 644,146.8 644,143.8 684.9,143.8 
			684.9,139.3 675.8,139.3 658.8,139.3 658.8,101.2 703.1,101.2 703.1,115.7 712.3,115.7 712.3,101 712.3,97.3 712.3,92.5 
			754.9,92.5 754.9,109.3 769,109.3 769,92.5 951.5,92.5 951.5,90.2 712.3,90.2 709.4,90.2 674.2,90.2 674.2,79.2 646.3,79.2 
			646.3,77.2 646.3,74.3 641.3,74.3 641.3,77.2 623,77.2 623,88 593.5,88 593.5,98 608.3,98 		"/>
		<path class="st0" d="M940.7,163.8v6.3h-51.4v-6.3h-65v2.5H709.7v-4.9h-6.5v2.7h-2.7v69.2h-48.8V184v-3.5v-15.3H644v-3.7h-3.5v3.7
			h-26.1V161h-4.6v4.2h-1.5v15.3h5.9v-5.6h27.7v5.6v21.8h-27.7v-6.8h-5.9V223h5.9v-6.7h27.7v28.2h-27.7V238h-5.9v6.4h-23.8v5h-8v-5
			h-24.4l0.2-44.1h-4.7v0.2c-7.8,0-14.1-6.3-14.2-14.1h14.2v-0.1h4.7v-4.2h1.4v-15.3h-5.9v5.5h-27.7v-27.7h27.7v6.8h5.9V124h-5.9
			v6.7h-27.7v-27.5h27.7v5.4h6V100V98h14.7V88H539V77.2h-18.3V-191h2.1v-6.2v-3.3v-2.4H505v5.7h10.8v4.5v1.7V15.8h-4.5v2.9h4.5v35.5
			h-25.7V35h-23.9V18.7h32.5h0.7h1.6v-2.9h-2.2V-24h-2.4v18.8h-4.6v2.4h4.6v19h-30.2v-19h18.4v-2.4h-18.4v-29.5h30.2v2.5h2.4v-2.5
			V-37v-2.5h-2.4v2.5h-30.2v-29.5h18.4v-2.4h-18.4v-17.3h20.7V-93h9.5v24.2h-4.6v2.4h4.6v18.7h2.4V-93v-2.3h-2.4h-9.5h-19.5h-1.2
			v-23.2h-10.9V27h-10.6v20.3h10.6v9.2v19.8h2.3V56.5h6.8h1.8h16.4h7.5h25.7v21.7v1h-27.3v11h-30.9V87h-2.3v3.2h-2.7v57.2v19h-13.1
			v8h-40.2v-8h-62.5v-2.5h-65.1v6.3h-51.4v-6.3h-16.5v18.4h16.5V176h51.4v6.2h65.1v-2.5h115.8l0.1,5.8h-15v0.3c0,8.3,6.7,15,15,15
			v9.1h-237h-6.2v-10.8h-5.7V217h2.4h3.3h6.2v-2.1h54.8v69.6v17.2h2.4h68.3h60.6h1.2h20.3V298H403v-22.1h-2.3v11.8h-59.5v-3.2H323
			v-18.8h-11.5v18.8h-38.6v-69.6h179.8v38.4H403h-2.3v2.4v8.9h2.3v-8.9h49.7h0.6h2v9.7h2.3v-9.7h31.6v13.1h47.5v-13.1H580v33.7
			h-17.2h-0.6h-4.8v2.3h4.8v45.6h11.5v84.2h-1.2V485h6.8v51.2h-8.7v12.3h19.8v-12.3h-8.7V485h6.8v-63.6h-1.2v-84.2h11.5v-45.6h5.4
			v-2.3h-5.4h-16.5v-33.7H625v13.1h47.5v-13.1h2.6h29.6v9.7h2.3v-9.7h37.2v-2.4h-34.4l-0.1-54.9v-18.6h11.8v-7.9h40.3v7.9h17.1v55
			h-10.2v13.7v4.8H761v2.4h7.7v32h-10.8V298h-8.7v3.7h8.7h0.6h60.6h70.7v-2.3h23.3V297h-23.3v-12.5h-41v-18.8v-11h-4.3v11h-7.2v18.8
			h-18.2v3.2h-48v-32v-2.4v-4.8h10.2v-13.7v-6.5h63.2v9.7h4.3v-27h-4.3v14.9h-63.2v-46.1h43v2.5h20.2v15.1h4.3v-15.1h40.5V176h51.4
			v6.2h16.5v-18.4H940.7z M452.7,200.3v0.2c-8,0-14.5-6.5-14.6-14.5h14.6v-0.1h6.5v-2.6h2.7v-70.9h48.5v69.8h7.6v3.4h-14.9v0.3
			c0,8.3,6.6,14.9,14.9,15v2.5h-39.1v4.5h0.2c0,7.8-6.3,14.1-14,14.2v-14.2H465v-4.5h-5.7v-3.1H452.7z M527.3,226.2l-19.6,18v-9.8
			V234v-17.5v-0.3v-7.8L527.3,226.2z M507.7,208L507.7,208L507.7,208L507.7,208z M507.9,208h39.5l-19.7,18L507.9,208z M503.2,216.2
			v0.3V234v0.5v10h-41.3V208h2.8v14.5h0.3c8-0.1,14.5-6.6,14.5-14.6h23.7V216.2z M507.4,234h-3.8v-17.4h3.8V234z M507.7,244.5v-0.2
			l0.1,0.2H507.7z M508,244.5l19.6-17.9l19.7,17.9H508z M547.6,244.1l-19.7-17.9l19.7-18V244.1z M547.6,203.3h-25.5v-3H518v0.1
			c-8-0.1-14.4-6.5-14.5-14.5h14.6v-0.1h3.4v-3.7h26.1v3.9H533v0.2c0,8.1,6.6,14.6,14.6,14.6V203.3z"/>
	</g>
</g>
</svg>
