<?xml version="1.0" encoding="utf-8"?>
<!-- Generator: Adobe Illustrator 19.0.0, SVG Export Plug-In . SVG Version: 6.00 Build 0)  -->
<svg version="1.1" id="_x31_3-31_floor" xmlns="http://www.w3.org/2000/svg" xmlns:xlink="http://www.w3.org/1999/xlink" x="0px"
	 y="0px" viewBox="204 -203.5 753 752.7" style="enable-background:new 204 -203.5 753 752.7;" xml:space="preserve">
<style type="text/css">
	.st0{fill:#FFFFFF;}
	.st1{enable-background:new    ;}
</style>
<rect x="230.1" y="-178.4" class="st0" width="71.6" height="1"/>
<rect x="329.8" y="-178.4" class="st0" width="72.1" height="1"/>
<rect x="214" y="54.8" class="st0" width="1" height="22.6"/>
<rect x="220.8" y="54.8" class="st0" width="1" height="22.6"/>
<rect x="223.5" y="-184.6" class="st0" width="1" height="82"/>
<rect x="230.1" y="-177.9" class="st0" width="1" height="75.3"/>
<line class="st0" x1="239" y1="-101.6" x2="239" y2="-102.6"/>
<line class="st0" x1="239" y1="-104.9" x2="239" y2="-105.9"/>
<rect x="223.5" y="-76.9" class="st0" width="1" height="81.5"/>
<rect x="230.1" y="-76.9" class="st0" width="1" height="81.7"/>
<rect x="223" y="340" class="st0" width="1" height="81.5"/>
<rect x="229.6" y="340" class="st0" width="1" height="81.7"/>
<rect x="931.4" y="340" class="st0" width="1" height="81.5"/>
<rect x="937.9" y="340" class="st0" width="1" height="81.7"/>
<rect x="223.5" y="-185.1" class="st0" width="78.2" height="1"/>
<rect x="230.2" y="521.3" class="st0" width="73.6" height="1"/>
<rect x="223.5" y="446.6" class="st0" width="1" height="82"/>
<rect x="230.1" y="446.6" class="st0" width="1" height="75.8"/>
<rect x="223.5" y="528.1" class="st0" width="80.3" height="1"/>
<rect x="329.8" y="-185.1" class="st0" width="72.1" height="1"/>
<path class="st0" d="M211.8,165.1c-1.3-22.8,1.1-45.6,7-67.6l1,0.3c-5.8,21.9-8.2,44.6-6.9,67.3L211.8,165.1z"/>
<path class="st0" d="M204.4,164.8c-1.3-23.2,1-46.4,7-68.8l1,0.3c-5.9,22.3-8.3,45.4-7,68.5L204.4,164.8z"/>
<rect x="459.5" y="-194.6" class="st0" width="28.2" height="1"/>
<rect x="459.5" y="-187.9" class="st0" width="28.2" height="1"/>
<path class="st0" d="M505.6-188.7l-0.2-1c22.2-5.4,45-7.5,67.8-6.4v1C550.5-196.3,527.7-194.1,505.6-188.7z"/>
<path class="st0" d="M503.9-196l-0.2-1c22.8-5.4,46.2-7.4,69.5-6.2v1C549.9-203.5,526.6-201.4,503.9-196z"/>
<path class="st0" d="M539.6,231.4v23.5h6.1v-23.5H539.6z M545.2,254.4h-5.1v-22.5h5.1V254.4z"/>
<path class="st0" d="M539.9,100.2v20.5h8v-20.5H539.9z M547.3,120.2h-7v-19.5h7V120.2z"/>
<path class="st0" d="M539.9,143.7v20.8h8v-20.8H539.9z M547.3,164h-7v-19.8h7V164z"/>
<rect x="521" y="83.5" transform="matrix(-0.7081 0.7061 -0.7061 -0.7081 967.9385 -180.2153)" class="st0" width="0.5" height="52.9"/>
<rect x="494.7" y="109.7" transform="matrix(-0.7039 0.7103 -0.7103 -0.7039 966.1829 -182.9016)" class="st0" width="52.9" height="0.5"/>
<rect x="521" y="126.9" transform="matrix(-0.7059 0.7083 -0.7083 -0.7059 997.7426 -107.6277)" class="st0" width="0.5" height="52.8"/>
<rect x="494.8" y="153.1" transform="matrix(-0.7059 0.7083 -0.7083 -0.7059 997.7375 -107.6398)" class="st0" width="52.8" height="0.5"/>
<rect x="512.5" y="208.1" transform="matrix(-0.6732 0.7395 -0.7395 -0.6732 1038.7129 29.9565)" class="st0" width="0.5" height="72.9"/>
<rect x="476.3" y="244.2" transform="matrix(-0.7374 0.6754 -0.6754 -0.7374 1055.9797 78.3837)" class="st0" width="72.9" height="0.5"/>
<path class="st0" d="M451.8,116.3v58.3h9v-58.3H451.8z M460.4,174.1h-8v-57.3h8V174.1z"/>
<path class="st0" d="M458.5,171.7v-52.6h-4.3v52.6L458.5,171.7L458.5,171.7z M458,171.2h-3.3l0,0v-51.6h3.4V171.2z"/>
<rect x="423.2" y="119.1" class="st0" width="28.9" height="0.5"/>
<rect x="423.2" y="125.2" class="st0" width="28.9" height="0.5"/>
<rect x="423.3" y="131.4" class="st0" width="28.9" height="0.5"/>
<rect x="423.2" y="137.5" transform="matrix(-1 3.852746e-003 -3.852746e-003 -1 875.8276 273.7636)" class="st0" width="28.9" height="0.5"/>
<rect x="423.2" y="143.6" class="st0" width="28.9" height="0.5"/>
<rect x="423.2" y="149.7" class="st0" width="28.9" height="0.5"/>
<rect x="423.2" y="155.8" class="st0" width="28.9" height="0.5"/>
<rect x="423.3" y="161.9" class="st0" width="28.9" height="0.5"/>
<rect x="423.2" y="168" class="st0" width="28.9" height="0.5"/>
<rect x="423.2" y="174.1" class="st0" width="28.9" height="0.5"/>
<rect x="460.6" y="119.1" class="st0" width="28.9" height="0.5"/>
<rect x="460.6" y="125.2" class="st0" width="28.9" height="0.5"/>
<rect x="460.6" y="131.4" class="st0" width="28.9" height="0.5"/>
<rect x="460.6" y="137.5" transform="matrix(-1 3.852746e-003 -3.852746e-003 -1 950.5731 273.6116)" class="st0" width="28.9" height="0.5"/>
<rect x="460.6" y="143.6" class="st0" width="28.9" height="0.5"/>
<rect x="460.6" y="149.7" class="st0" width="28.9" height="0.5"/>
<rect x="460.6" y="155.8" class="st0" width="28.9" height="0.5"/>
<rect x="460.6" y="161.9" class="st0" width="28.9" height="0.5"/>
<rect x="460.6" y="168" class="st0" width="28.9" height="0.5"/>
<rect x="460.6" y="174.1" class="st0" width="28.9" height="0.5"/>
<polygon class="st0" points="438.6,172.9 438.1,172.9 438.1,103.7 475,103.7 475,172.2 474.5,172.2 474.5,104.2 438.6,104.2 "/>
<polygon class="st0" points="473.3,171.7 474.8,174.3 476.3,171.7 "/>
<rect x="459" y="128.2" transform="matrix(-0.9624 0.2716 -0.2716 -0.9624 965.2523 123.2793)" class="st0" width="30.3" height="0.5"/>
<rect x="460.1" y="130.4" transform="matrix(-0.9649 0.2627 -0.2627 -0.9649 968.095 131.8485)" class="st0" width="30.3" height="0.5"/>
<ellipse class="st0" cx="438.4" cy="174.3" rx="2.1" ry="2.1"/>
<rect x="474.5" y="120.5" class="st0" width="0.5" height="6.2"/>
<polygon class="st0" points="473.3,126.3 474.8,128.9 476.3,126.3 "/>
<path class="st0" d="M470,251.8v17.5h-0.5v-17.1c-9.7,0.1-17.5,7.7-17.5,17.1h-0.5c0-9.7,8.1-17.5,18.1-17.5L470,251.8L470,251.8z"
	/>
<path class="st0" d="M479.6,189.7h20.2v0.5h-19.7c0.1,10.8,8.9,19.5,19.7,19.5v0.5c-11.1,0-20.2-9.1-20.2-20.2V189.7L479.6,189.7z"
	/>
<path class="st0" d="M519.9,190.4h19.7v0.5h-19.2c0.1,10.5,8.7,19,19.2,19v0.4c-10.8,0-19.6-8.8-19.7-19.7V190.4z"/>
<path class="st0" d="M560.8,92.7V73h0.6v19.1c0,0.1,0.1,0.2,0.2,0.2l0,0l0,0c10.4-0.3,18.6-8.8,18.7-19.2h0.6c0,3.4-0.8,6.7-2.4,9.6
	c-3.5,6.4-10.2,10.3-17.4,10.4h-0.3L560.8,92.7z"/>
<path class="st0" d="M560.5,249.3v19.8h0.7v-19.3c0-0.1,0.1-0.2,0.2-0.2c10.5,0.3,18.9,8.9,18.9,19.5h0.7c0-3.4-0.8-6.7-2.4-9.7
	c-3.5-6.4-10.3-10.5-17.6-10.5h-0.3L560.5,249.3z"/>
<rect x="320.4" y="69.2" class="st0" width="21.7" height="23.8"/>
<rect x="320.4" y="251.4" class="st0" width="21.7" height="23.8"/>
<rect x="223.5" y="-105.9" class="st0" width="15.5" height="29"/>
<rect x="222.8" y="421.5" class="st0" width="15.5" height="29"/>
<path class="st0" d="M221,93.3l0.8-0.1V77.4c0,0,0,0,0,0H214v13.5c0,0.6-0.4,1.2-1.1,1.4h0c-0.5,0.1-0.9,0.5-1,1.1l-0.6,2.8
	c0,0,0,0,0,0l8.2,2.4L221,93.3z"/>
<rect x="213.5" y="267.2" class="st0" width="1" height="22.6"/>
<rect x="220.2" y="267.2" class="st0" width="1" height="22.6"/>
<path class="st0" d="M211.2,179.5c-1.3,22.8,1.1,45.6,7,67.6l1-0.3c-5.8-21.9-8.2-44.6-6.9-67.3L211.2,179.5z"/>
<path class="st0" d="M203.8,179.8c-1.3,23.2,1,46.4,7,68.8l1-0.3c-5.9-22.3-8.3-45.4-7-68.5L203.8,179.8z"/>
<path class="st0" d="M220.4,251.3l0.8,0.1v15.9h-7.8v-13.5c0-0.6-0.4-1.2-1.1-1.4l0,0c-0.5-0.1-0.9-0.5-1-1.1l-0.6-2.8l8.2-2.4
	L220.4,251.3z"/>
<polygon class="st0" points="330.5,-170 330.5,-185.1 301.7,-185.1 301.7,-170 "/>
<polygon class="st0" points="330.3,514 330.3,529.2 301.7,529.2 301.7,514 "/>
<polygon class="st0" points="342,327.7 342,339.9 223,339.9 213.5,339.9 213.5,289.8 221.2,289.8 221.2,327.7 239,327.7 "/>
<path class="st0" d="M950.3,165.1c1.3-22.8-1.1-45.6-7-67.6l-1,0.3c5.8,21.9,8.2,44.6,6.9,67.3L950.3,165.1z"/>
<path class="st0" d="M956.5,164.8c1.1-23.2-0.9-46.4-5.9-68.8l-0.8,0.3c5,22.3,7,45.4,5.9,68.5L956.5,164.8z"/>
<rect x="820" y="69.2" class="st0" width="21.7" height="23.8"/>
<rect x="820" y="251.4" class="st0" width="21.7" height="23.8"/>
<path class="st0" d="M941.2,93.3l-0.8-0.1V77.4c0,0,0,0,0,0h7.8v13.5c0,0.6,0.4,1.2,1.1,1.4l0,0c0.5,0.1,0.9,0.5,1,1.1l0.6,2.8
	c0,0,0,0,0,0l-8.2,2.4L941.2,93.3z"/>
<rect x="947.6" y="267.2" class="st0" width="1" height="22.6"/>
<rect x="940.9" y="267.2" class="st0" width="1" height="22.6"/>
<path class="st0" d="M950.9,179.5c1.3,22.8-1.1,45.6-7,67.6l-1-0.3c5.8-21.9,8.2-44.6,6.9-67.3L950.9,179.5z"/>
<path class="st0" d="M956.9,179.8c1.1,23.2-0.9,46.4-5.9,68.8l-0.8-0.3c5-22.3,7-45.4,5.9-68.5L956.9,179.8z"/>
<path class="st0" d="M941.7,251.3l-0.8,0.1v15.9h7.8v-13.5c0-0.6,0.4-1.2,1.1-1.4l0,0c0.5-0.1,0.9-0.5,1-1.1l0.6-2.8l-8.2-2.4
	L941.7,251.3z"/>
<polygon class="st0" points="820.1,327.7 820.1,339.9 939.2,339.9 948.6,339.9 948.6,289.8 940.9,289.8 940.9,327.7 923.2,327.7 "/>
<polygon class="st0" points="748.6,-96.9 748.6,-32.5 762.3,-32.5 762.3,-16.4 748.6,-16.4 748.6,11.3 708.2,11.3 708.2,34.5 
	656.8,34.5 656.8,9.5 704.7,9.5 704.7,3.5 736.1,3.5 736.1,-186.9 703.1,-186.9 703.1,-194.6 748.6,-194.6 748.6,-185.1 
	760.7,-185.1 760.7,-177.4 748.6,-177.4 748.6,-113 762.3,-113 762.3,-96.9 "/>
<rect x="461.6" y="537.7" class="st0" width="28.2" height="1"/>
<rect x="461.6" y="530.9" class="st0" width="28.2" height="1"/>
<path class="st0" d="M507.8,532.8l-0.2,1c22.2,5.4,45,7.5,67.8,6.4v-1C552.6,540.3,529.9,538.1,507.8,532.8z"/>
<path class="st0" d="M506.1,540.1l-0.2,1c22.8,5.4,46.2,7.4,69.5,6.2v-1C552.1,547.5,528.7,545.4,506.1,540.1z"/>
<polygon class="st0" points="428.6,340.6 428.6,530.9 461.6,530.9 461.6,538.7 416.1,538.7 416.1,529.2 404,529.2 404,521.4 
	416.1,521.4 416.1,457 402.4,457 402.4,440.9 416.1,440.9 416.1,376.5 402.4,376.5 402.4,360.4 416.1,360.4 416.1,332.8 
	456.5,332.8 456.5,309.6 507.9,309.6 507.9,334.5 460,334.5 460,340.6 "/>
<rect x="675.8" y="537.7" class="st0" width="29.5" height="1"/>
<rect x="675.8" y="530.9" class="st0" width="29.2" height="1"/>
<path class="st0" d="M657.8,532.8l0.2,1c-22.2,5.4-45,7.5-67.8,6.4v-1C613,540.3,635.7,538.1,657.8,532.8z"/>
<path class="st0" d="M659.6,540.1l0.2,1c-22.8,5.4-46.2,7.4-69.5,6.2v-1C613.6,547.5,636.9,545.4,659.6,540.1z"/>
<polygon class="st0" points="558.6,327.5 558.6,370.7 574.4,370.7 574.4,398.6 559.2,398.6 559.2,410.9 574.4,410.9 574.4,547.3 
	591.9,547.3 591.9,410.9 606.4,410.9 606.4,398.6 591.9,398.6 591.9,370.7 607.7,370.7 607.7,365.8 607.7,327.5 "/>
<polygon class="st0" points="496.2,530.9 501.1,530.9 501.5,530.9 507.9,532.7 505.9,541 503.1,540 503,538.7 489.9,538.7 
	489.9,530.9 493.7,530.9 "/>
<polygon class="st0" points="664.5,530.9 669.5,530.9 675.7,530.9 675.7,538.7 662.7,538.7 662.6,540 659.8,541 657.8,532.7 
	664.1,530.9 "/>
<polygon class="st0" points="505.7,9.5 505.7,34.5 454.4,34.5 454.4,11.3 413.9,11.3 413.9,-16.4 400.2,-16.4 400.2,-32.5 
	413.9,-32.5 413.9,-96.9 400.2,-96.9 400.2,-113 413.9,-113 413.9,-177.4 401.8,-177.4 401.8,-185.1 413.9,-185.1 413.9,-194.6 
	459.5,-194.6 459.5,-186.9 426.4,-186.9 426.4,3.5 457.8,3.5 457.8,9.5 "/>
<rect x="330.3" y="528.2" class="st0" width="73.9" height="1"/>
<rect x="330.3" y="521.4" class="st0" width="73.9" height="1"/>
<polygon class="st0" points="605.5,-26.7 605.5,16.6 556.5,16.6 556.5,-26.7 572.3,-26.7 572.3,-54.5 557,-54.5 557,-66.9 
	572.3,-66.9 572.3,-203.2 589.7,-203.2 589.7,-66.9 604.3,-66.9 604.3,-54.5 589.7,-54.5 589.7,-26.7 "/>
<rect x="673.6" y="-194.6" class="st0" width="29.5" height="1"/>
<rect x="673.6" y="-187.9" class="st0" width="29.5" height="1"/>
<path class="st0" d="M655.7-188.7l0.2-1c-22.2-5.4-45-7.5-67.8-6.4v1C610.8-196.3,633.6-194.1,655.7-188.7z"/>
<path class="st0" d="M657.4-196l0.2-1c-22.8-5.4-46.2-7.4-69.5-6.2v1C611.4-203.5,634.7-201.4,657.4-196z"/>
<path class="st0" d="M675.5,89.3v23.5h6.1V89.3H675.5z M681.1,112.3H676V89.8h5.1V112.3z"/>
<path class="st0" d="M613.5,223.4v20.4h8v-20.4H613.5z M621,243.2h-7v-19.4h7V243.2z"/>
<path class="st0" d="M613.5,179.7v20.9h8v-20.9H613.5z M621,200.1h-7v-19.9h7V200.1z"/>
<rect x="639.8" y="207.7" transform="matrix(0.7081 -0.7061 0.7061 0.7081 21.4665 520.3136)" class="st0" width="0.5" height="52.9"/>
<rect x="613.6" y="234" transform="matrix(0.7039 -0.7103 0.7103 0.7039 23.1584 523.9904)" class="st0" width="52.9" height="0.5"/>
<rect x="639.8" y="164.4" transform="matrix(0.7059 -0.7083 0.7083 0.7059 53.0894 509.5015)" class="st0" width="0.5" height="52.8"/>
<rect x="613.7" y="190.6" transform="matrix(0.7059 -0.7083 0.7083 0.7059 53.0844 509.5035)" class="st0" width="52.8" height="0.5"/>
<rect x="648.3" y="63.2" transform="matrix(0.6732 -0.7395 0.7395 0.6732 138.2912 512.165)" class="st0" width="0.5" height="72.9"/>
<rect x="612.1" y="99.4" transform="matrix(0.7374 -0.6754 0.6754 0.7374 102.9531 464.2245)" class="st0" width="72.9" height="0.5"/>
<path class="st0" d="M700.5,169.6v58.3h9v-58.3H700.5z M709,227.3h-8v-57.3h8V227.3z"/>
<path class="st0" d="M702.8,172.4L702.8,172.4l0,52.6h4.3v-52.6H702.8z M706.7,224.5h-3.4v-51.6h3.3l0,0V224.5z"/>
<rect x="709.2" y="224.5" class="st0" width="28.9" height="0.5"/>
<rect x="709.2" y="218.4" class="st0" width="28.9" height="0.5"/>
<rect x="709.2" y="212.3" class="st0" width="28.9" height="0.5"/>
<rect x="709.2" y="206.2" transform="matrix(1 -3.852746e-003 3.852746e-003 1 -0.7899 2.7896)" class="st0" width="28.9" height="0.5"/>
<rect x="709.2" y="200.1" class="st0" width="28.9" height="0.5"/>
<rect x="709.2" y="194" class="st0" width="28.9" height="0.5"/>
<rect x="709.2" y="187.9" class="st0" width="28.9" height="0.5"/>
<rect x="709.2" y="181.7" class="st0" width="28.9" height="0.5"/>
<rect x="709.2" y="175.7" class="st0" width="28.9" height="0.5"/>
<rect x="709.2" y="169.6" class="st0" width="28.9" height="0.5"/>
<rect x="671.8" y="224.5" class="st0" width="28.9" height="0.5"/>
<rect x="671.8" y="218.4" class="st0" width="28.9" height="0.5"/>
<rect x="671.8" y="212.3" class="st0" width="28.9" height="0.5"/>
<rect x="671.9" y="206.2" transform="matrix(1 -3.852746e-003 3.852746e-003 1 -0.7902 2.6456)" class="st0" width="28.9" height="0.5"/>
<rect x="671.8" y="200.1" class="st0" width="28.9" height="0.5"/>
<rect x="671.8" y="194" class="st0" width="28.9" height="0.5"/>
<rect x="671.8" y="187.9" class="st0" width="28.9" height="0.5"/>
<rect x="671.8" y="181.7" class="st0" width="28.9" height="0.5"/>
<rect x="671.8" y="175.7" class="st0" width="28.9" height="0.5"/>
<rect x="671.8" y="169.6" class="st0" width="28.9" height="0.5"/>
<polygon class="st0" points="722.7,171.3 723.2,171.3 723.2,240.5 686.3,240.5 686.3,172 686.8,172 686.8,240 722.7,240 "/>
<polygon class="st0" points="688,172.4 686.6,169.8 685.1,172.4 "/>
<rect x="672.1" y="215.5" transform="matrix(0.9624 -0.2716 0.2716 0.9624 -32.7531 194.754)" class="st0" width="30.3" height="0.5"/>
<rect x="670.9" y="213.3" transform="matrix(0.9649 -0.2627 0.2627 0.9649 -31.9904 187.7164)" class="st0" width="30.3" height="0.5"/>
<ellipse class="st0" cx="723" cy="169.8" rx="2.1" ry="2.1"/>
<rect x="686.3" y="217.4" class="st0" width="0.5" height="6.2"/>
<polygon class="st0" points="688,217.9 686.6,215.3 685.1,217.9 "/>
<path class="st0" d="M733.5,104.7v19.6H733v-19.1c-10.4,0.1-18.8,8.7-18.8,19.1h-0.5c0-10.8,8.7-19.6,19.5-19.6L733.5,104.7
	L733.5,104.7z"/>
<path class="st0" d="M681.7,154.5h-20.2v-0.5h19.7c-0.1-10.8-8.9-19.5-19.7-19.5v-0.5c11.1,0,20.2,9.1,20.2,20.2V154.5L681.7,154.5z
	"/>
<path class="st0" d="M641.4,153.8h-19.7v-0.5h19.2c-0.1-10.5-8.7-19-19.2-19v-0.4c10.8,0,19.6,8.8,19.7,19.7V153.8z"/>
<path class="st0" d="M600.5,92.7V73h-0.6v19.1c0,0.1-0.1,0.2-0.2,0.2h0l0,0C589.3,92,581,83.5,581,73.1h-0.6c0,3.4,0.8,6.7,2.4,9.6
	c3.5,6.4,10.2,10.3,17.4,10.4h0.3L600.5,92.7z"/>
<path class="st0" d="M600.8,249.3v19.8h-0.7v-19.3c0-0.1-0.1-0.2-0.2-0.2c-10.5,0.3-18.9,8.9-18.9,19.5h-0.7c0-3.4,0.8-6.7,2.4-9.7
	c3.5-6.4,10.3-10.5,17.6-10.5h0.3L600.8,249.3z"/>
<polygon class="st0" points="342.5,4.6 342.5,16.8 239.5,16.8 221.8,16.8 221.8,54.7 214,54.7 214,4.6 223.5,4.6 "/>
<rect x="316.5" y="-108.8" class="st0" width="25.5" height="13.8"/>
<polygon class="st0" points="494,-186.9 499,-186.9 499.4,-186.9 505.7,-188.7 503.7,-197 500.9,-196 500.8,-194.7 487.8,-194.7 
	487.8,-186.9 491.5,-186.9 "/>
<rect x="860.8" y="-178.4" class="st0" width="71.6" height="1"/>
<rect x="760.7" y="-178.4" class="st0" width="72.1" height="1"/>
<rect x="947.5" y="54.8" class="st0" width="1" height="22.6"/>
<rect x="940.8" y="54.8" class="st0" width="1" height="22.6"/>
<rect x="938" y="-184.6" class="st0" width="1" height="82"/>
<rect x="931.5" y="-177.9" class="st0" width="1" height="75.3"/>
<line class="st0" x1="923.5" y1="-101.6" x2="923.5" y2="-102.6"/>
<line class="st0" x1="923.5" y1="-104.9" x2="923.5" y2="-105.9"/>
<rect x="938" y="-76.9" class="st0" width="1" height="81.5"/>
<rect x="931.5" y="-76.9" class="st0" width="1" height="81.7"/>
<rect x="860.8" y="-185.1" class="st0" width="78.2" height="1"/>
<rect x="760.7" y="-185.1" class="st0" width="72.1" height="1"/>
<rect x="923.5" y="-105.9" class="st0" width="15.5" height="29"/>
<polygon class="st0" points="832,-170 832,-185.1 860.8,-185.1 860.8,-170 "/>
<polygon class="st0" points="820,4.6 820,16.8 923,16.8 940.8,16.8 940.8,54.7 948.5,54.7 948.5,4.6 939,4.6 "/>
<rect x="820" y="-108.8" class="st0" width="25.5" height="13.8"/>
<rect x="860.8" y="521.4" class="st0" width="71.6" height="1"/>
<rect x="760.7" y="521.4" class="st0" width="72.1" height="1"/>
<rect x="938" y="446.7" class="st0" width="1" height="82"/>
<rect x="931.5" y="446.7" class="st0" width="1" height="75.3"/>
<rect x="860.8" y="528.2" class="st0" width="78.2" height="1"/>
<rect x="760.7" y="528.2" class="st0" width="72.1" height="1"/>
<rect x="923.5" y="420.9" class="st0" width="15.5" height="29"/>
<polygon class="st0" points="832,514 832,529.2 860.8,529.2 860.8,514 "/>
<polygon class="st0" points="748.6,376.5 748.6,440.9 762.3,440.9 762.3,457 748.6,457 748.6,521.4 760.7,521.4 760.7,529.2 
	748.6,529.2 748.6,538.7 703.1,538.7 703.1,530.9 736.1,530.9 736.1,340.6 704.7,340.6 704.7,334.5 656.8,334.5 656.8,309.6 
	708.2,309.6 708.2,332.8 748.6,332.8 748.6,360.4 762.3,360.4 762.3,376.5 "/>
<rect x="820" y="439.1" class="st0" width="25.5" height="13.8"/>
<polygon class="st0" points="662.4,-186.9 667.3,-186.9 673.6,-186.9 673.6,-194.7 660.5,-194.7 660.4,-196 657.6,-197 
	655.6,-188.7 662,-186.9 "/>
<rect x="204.1" y="163.8" class="st0" width="137.9" height="16.7"/>
<rect x="424.1" y="241.6" class="st0" width="56.1" height="5.9"/>
<g>
	<path class="st0" d="M545.8,209.7h-6.2v4h-34.5v-4h-5.4v4l-20,0v55.4h-10.3v15h91.7v-15h-15.5L545.8,209.7z M539.6,269.1h-53.8
		v-49.3h53.8V269.1z M545.2,254.4h-5.1v-22.5h5.1V254.4z"/>
	<polygon class="st0" points="411.5,60.1 411.7,165.2 393.9,165.2 393.9,168.7 393.8,168.7 393.8,175.8 393.9,175.8 393.9,179.3 
		411.7,179.3 411.7,284.1 452.1,284.1 452.1,269.1 424.1,269.1 424.1,91.1 489.5,91.1 489.5,185.1 499.8,185.1 499.8,190.1 
		504.5,190.1 504.5,185.1 539.6,185.1 539.6,190.8 545.9,190.8 545.9,185.1 547.9,185.1 547.9,164.5 539.9,164.5 539.9,172 
		502.6,172 502.6,134.6 539.9,134.6 539.9,143.7 547.8,143.7 547.8,120.5 539.9,120.5 539.9,128.8 502.6,128.8 502.6,91.1 
		539.9,91.1 539.9,100.4 547.8,100.4 547.8,73 561.5,73 561.5,60 	"/>
</g>
<rect x="316.5" y="439.1" class="st0" width="25.5" height="13.8"/>
<polygon class="st0" points="239,-169 256.9,-169 256.9,-177.4 258.7,-177.4 258.7,-185.1 223.5,-185.1 223.5,-150.6 239,-150.6 "/>
<polygon class="st0" points="923.5,-150.6 939,-150.6 939,-185.1 903.8,-185.1 903.8,-177.4 905.6,-177.4 905.6,-169 923.5,-169 "/>
<polygon class="st0" points="904.5,513.7 904.5,529.2 939,529.2 939,494 931.3,494 931.3,495.7 922.9,495.7 922.9,513.7 "/>
<polygon class="st0" points="238.5,494.6 223,494.6 223,529.2 258.2,529.2 258.2,521.4 256.4,521.4 256.4,513.1 238.5,513.1 "/>
<g>
	<polygon class="st0" points="767.5,179 767.5,164.9 749.6,164.9 749.6,60 599.8,60 599.8,75 615.6,75 615.6,134.4 621.7,134.4 
		621.7,130.4 656.2,130.4 656.2,134.4 661.5,134.4 661.5,130.4 714.3,130.4 714.3,124.3 681.5,124.3 681.5,112.3 675.5,112.3 
		675.5,124.3 621.7,124.3 621.7,75 675.5,75 675.5,89.8 681.5,89.8 681.5,75 737.2,75 737.2,124.3 733,124.3 733,130.4 737.2,130.4 
		737.2,253 671.8,253 671.8,159 661.5,159 661.5,154 656.8,154 656.8,159 621.7,159 621.7,153.3 615.4,153.3 615.4,159 613.4,159 
		613.4,179.7 621.4,179.7 621.4,172.1 658.7,172.1 658.7,209.5 621.4,209.5 621.4,200.4 613.5,200.4 613.5,223.6 621.4,223.6 
		621.4,215.4 658.7,215.4 658.7,253 621.4,253 621.4,243.7 613.5,243.7 613.5,269.1 599.8,269.1 599.8,284.1 749.8,284 749.6,179 	
		"/>
	<rect x="818.9" y="163.7" class="st0" width="138.4" height="16.7"/>
</g>
<g class="st1">
	<path class="st0" d="M265.6-73.2H263v-1h6.3v1h-2.6v6.3h-1.1V-73.2z"/>
	<path class="st0" d="M270.2-70.5c0-2.1,1.5-3.8,3.5-3.8c2.2,0,3.4,1.7,3.4,3.9c0,0.1,0,0.2,0,0.4h-5.8c0.2,1.5,1.3,2.4,2.6,2.4
		c1,0,1.7-0.4,2.3-1l0.7,0.6c-0.7,0.8-1.6,1.4-3,1.4C271.8-66.7,270.2-68.2,270.2-70.5z M276-70.9c-0.1-1.3-0.9-2.5-2.3-2.5
		c-1.3,0-2.2,1-2.4,2.5H276z"/>
	<path class="st0" d="M280.9-70.6l-2.7-3.6h1.2l2.2,2.8l2.2-2.8h1.2l-2.8,3.5l2.9,3.7h-1.3l-2.3-3l-2.3,3H278L280.9-70.6z"/>
	<path class="st0" d="M286.8-74.1h1.1v3.1h4.2v-3.1h1.1v7.3H292V-70h-4.2v3.2h-1.1V-74.1z"/>
	<path class="st0" d="M295.6-74.1h1.1v5.8l4.3-5.8h1.1v7.3h-1.1v-5.8l-4.3,5.8h-1V-74.1z"/>
	<path class="st0" d="M309.1-69.9c-0.5,0.3-1.6,0.7-2.4,0.7c-1.4,0-2.4-0.7-2.4-2.2v-2.8h1.1v2.6c0,0.9,0.5,1.4,1.5,1.4
		c0.8,0,1.7-0.3,2.3-0.7v-3.3h1.1v7.3h-1.1V-69.9z"/>
	<path class="st0" d="M312.1-70.5c0-2.1,1.5-3.8,3.5-3.8c2.2,0,3.4,1.7,3.4,3.9c0,0.1,0,0.2,0,0.4h-5.8c0.2,1.5,1.3,2.4,2.6,2.4
		c1,0,1.7-0.4,2.3-1l0.7,0.6c-0.7,0.8-1.6,1.4-3,1.4C313.8-66.7,312.1-68.2,312.1-70.5z M317.9-70.9c-0.1-1.3-0.9-2.5-2.3-2.5
		c-1.3,0-2.2,1-2.4,2.5H317.9z"/>
	<path class="st0" d="M320.5-70.5c0-2.1,1.6-3.8,3.7-3.8c1.4,0,2.2,0.6,2.9,1.3l-0.7,0.7c-0.6-0.6-1.3-1.1-2.2-1.1
		c-1.5,0-2.6,1.3-2.6,2.8c0,1.6,1.2,2.8,2.7,2.8c0.9,0,1.6-0.5,2.2-1.1l0.7,0.7c-0.7,0.8-1.6,1.4-3,1.4
		C322.1-66.7,320.5-68.4,320.5-70.5z"/>
	<path class="st0" d="M329-74.1h1.1v4.2l4-4.2h1.3l-3,3.2l3.1,4.1h-1.3l-2.6-3.3l-1.5,1.6v1.8H329V-74.1z"/>
	<path class="st0" d="M336.1-70.5c0-2.1,1.6-3.8,3.8-3.8c2.2,0,3.8,1.7,3.8,3.8c0,2.1-1.6,3.8-3.8,3.8
		C337.7-66.7,336.1-68.4,336.1-70.5z M342.6-70.5c0-1.6-1.2-2.8-2.7-2.8c-1.6,0-2.7,1.3-2.7,2.8s1.2,2.8,2.7,2.8
		C341.5-67.7,342.6-68.9,342.6-70.5z"/>
	<path class="st0" d="M345.2-70.5c0-2.1,1.5-3.8,3.5-3.8c2.2,0,3.4,1.7,3.4,3.9c0,0.1,0,0.2,0,0.4h-5.8c0.2,1.5,1.3,2.4,2.6,2.4
		c1,0,1.7-0.4,2.3-1l0.7,0.6c-0.7,0.8-1.6,1.4-3,1.4C346.8-66.7,345.2-68.2,345.2-70.5z M351-70.9c-0.1-1.3-0.9-2.5-2.3-2.5
		c-1.3,0-2.2,1-2.4,2.5H351z"/>
	<path class="st0" d="M263.9-57.2h6.3v7.3h-1.1v-6.3h-4.1v6.3h-1.1V-57.2z"/>
	<path class="st0" d="M272.1-53.6c0-2.1,1.6-3.8,3.8-3.8c2.2,0,3.8,1.7,3.8,3.8c0,2.1-1.6,3.8-3.8,3.8
		C273.7-49.8,272.1-51.5,272.1-53.6z M278.6-53.6c0-1.6-1.2-2.8-2.7-2.8c-1.6,0-2.7,1.3-2.7,2.8s1.2,2.8,2.7,2.8
		C277.5-50.8,278.6-52,278.6-53.6z"/>
	<path class="st0" d="M281.7-57.2h1l2.7,3.8l2.7-3.8h1v7.3h-1.1v-5.5l-2.7,3.7l-2.7-3.7v5.5h-1.1V-57.2z"/>
	<path class="st0" d="M291.2-53.6c0-2.1,1.5-3.8,3.5-3.8c2.2,0,3.4,1.7,3.4,3.9c0,0.1,0,0.2,0,0.4h-5.8c0.2,1.5,1.3,2.4,2.6,2.4
		c1,0,1.7-0.4,2.3-1l0.7,0.6c-0.7,0.8-1.6,1.4-3,1.4C292.8-49.8,291.2-51.3,291.2-53.6z M297-54c-0.1-1.3-0.9-2.5-2.3-2.5
		c-1.3,0-2.2,1-2.4,2.5H297z"/>
	<path class="st0" d="M310.4-50H300v-7.3h1.1v6.3h3.5v-6.3h1.1v6.3h3.5v-6.3h1.1v6.3h1.1l-0.2,2.8h-0.9V-50z"/>
	<path class="st0" d="M312.5-53.6c0-2.1,1.5-3.8,3.5-3.8c2.2,0,3.4,1.7,3.4,3.9c0,0.1,0,0.2,0,0.4h-5.8c0.2,1.5,1.3,2.4,2.6,2.4
		c1,0,1.7-0.4,2.3-1l0.7,0.6c-0.7,0.8-1.6,1.4-3,1.4C314.1-49.8,312.5-51.3,312.5-53.6z M318.3-54c-0.1-1.3-0.9-2.5-2.3-2.5
		c-1.3,0-2.2,1-2.4,2.5H318.3z"/>
	<path class="st0" d="M321.3-57.2h1.1v3.1h4.2v-3.1h1.1v7.3h-1.1v-3.2h-4.2v3.2h-1.1V-57.2z"/>
	<path class="st0" d="M330.1-57.2h1.1v5.8l4.3-5.8h1.1v7.3h-1.1v-5.8l-4.3,5.8h-1V-57.2z"/>
	<path class="st0" d="M338.5-53.6c0-2.1,1.5-3.8,3.5-3.8c2.2,0,3.4,1.7,3.4,3.9c0,0.1,0,0.2,0,0.4h-5.8c0.2,1.5,1.3,2.4,2.6,2.4
		c1,0,1.7-0.4,2.3-1l0.7,0.6c-0.7,0.8-1.6,1.4-3,1.4C340.1-49.8,338.5-51.3,338.5-53.6z M344.3-54c-0.1-1.3-0.9-2.5-2.3-2.5
		c-1.3,0-2.2,1-2.4,2.5H344.3z"/>
</g>
<g class="st1">
	<path class="st0" d="M265.6,115.2H263v-1h6.3v1h-2.6v6.3h-1.1V115.2z"/>
	<path class="st0" d="M270.2,117.8c0-2.1,1.5-3.8,3.5-3.8c2.2,0,3.4,1.7,3.4,3.9c0,0.1,0,0.2,0,0.4h-5.8c0.2,1.5,1.3,2.4,2.6,2.4
		c1,0,1.7-0.4,2.3-1l0.7,0.6c-0.7,0.8-1.6,1.4-3,1.4C271.8,121.6,270.2,120.1,270.2,117.8z M276,117.4c-0.1-1.3-0.9-2.5-2.3-2.5
		c-1.3,0-2.2,1-2.4,2.5H276z"/>
	<path class="st0" d="M280.9,117.8l-2.7-3.6h1.2l2.2,2.8l2.2-2.8h1.2l-2.8,3.5l2.9,3.7h-1.3l-2.3-3l-2.3,3H278L280.9,117.8z"/>
	<path class="st0" d="M286.8,114.2h1.1v3.1h4.2v-3.1h1.1v7.3H292v-3.2h-4.2v3.2h-1.1V114.2z"/>
	<path class="st0" d="M295.6,114.2h1.1v5.8l4.3-5.8h1.1v7.3h-1.1v-5.8l-4.3,5.8h-1V114.2z"/>
	<path class="st0" d="M309.1,118.5c-0.5,0.3-1.6,0.7-2.4,0.7c-1.4,0-2.4-0.7-2.4-2.2v-2.8h1.1v2.6c0,0.9,0.5,1.4,1.5,1.4
		c0.8,0,1.7-0.3,2.3-0.7v-3.3h1.1v7.3h-1.1V118.5z"/>
	<path class="st0" d="M312.1,117.8c0-2.1,1.5-3.8,3.5-3.8c2.2,0,3.4,1.7,3.4,3.9c0,0.1,0,0.2,0,0.4h-5.8c0.2,1.5,1.3,2.4,2.6,2.4
		c1,0,1.7-0.4,2.3-1l0.7,0.6c-0.7,0.8-1.6,1.4-3,1.4C313.8,121.6,312.1,120.1,312.1,117.8z M317.9,117.4c-0.1-1.3-0.9-2.5-2.3-2.5
		c-1.3,0-2.2,1-2.4,2.5H317.9z"/>
	<path class="st0" d="M320.5,117.8c0-2.1,1.6-3.8,3.7-3.8c1.4,0,2.2,0.6,2.9,1.3l-0.7,0.7c-0.6-0.6-1.3-1.1-2.2-1.1
		c-1.5,0-2.6,1.3-2.6,2.8c0,1.6,1.2,2.8,2.7,2.8c0.9,0,1.6-0.5,2.2-1.1l0.7,0.7c-0.7,0.8-1.6,1.4-3,1.4
		C322.1,121.6,320.5,119.9,320.5,117.8z"/>
	<path class="st0" d="M329,114.2h1.1v4.2l4-4.2h1.3l-3,3.2l3.1,4.1h-1.3l-2.6-3.3l-1.5,1.6v1.8H329V114.2z"/>
	<path class="st0" d="M336.1,117.8c0-2.1,1.6-3.8,3.8-3.8c2.2,0,3.8,1.7,3.8,3.8c0,2.1-1.6,3.8-3.8,3.8
		C337.7,121.6,336.1,119.9,336.1,117.8z M342.6,117.8c0-1.6-1.2-2.8-2.7-2.8c-1.6,0-2.7,1.3-2.7,2.8s1.2,2.8,2.7,2.8
		C341.5,120.7,342.6,119.4,342.6,117.8z"/>
	<path class="st0" d="M345.2,117.8c0-2.1,1.5-3.8,3.5-3.8c2.2,0,3.4,1.7,3.4,3.9c0,0.1,0,0.2,0,0.4h-5.8c0.2,1.5,1.3,2.4,2.6,2.4
		c1,0,1.7-0.4,2.3-1l0.7,0.6c-0.7,0.8-1.6,1.4-3,1.4C346.8,121.6,345.2,120.1,345.2,117.8z M351,117.4c-0.1-1.3-0.9-2.5-2.3-2.5
		c-1.3,0-2.2,1-2.4,2.5H351z"/>
	<path class="st0" d="M263.9,131.1h6.3v7.3h-1.1v-6.3h-4.1v6.3h-1.1V131.1z"/>
	<path class="st0" d="M272.1,134.8c0-2.1,1.6-3.8,3.8-3.8c2.2,0,3.8,1.7,3.8,3.8c0,2.1-1.6,3.8-3.8,3.8
		C273.7,138.6,272.1,136.8,272.1,134.8z M278.6,134.8c0-1.6-1.2-2.8-2.7-2.8c-1.6,0-2.7,1.3-2.7,2.8s1.2,2.8,2.7,2.8
		C277.5,137.6,278.6,136.3,278.6,134.8z"/>
	<path class="st0" d="M281.7,131.1h1l2.7,3.8l2.7-3.8h1v7.3h-1.1v-5.5l-2.7,3.7l-2.7-3.7v5.5h-1.1V131.1z"/>
	<path class="st0" d="M291.2,134.8c0-2.1,1.5-3.8,3.5-3.8c2.2,0,3.4,1.7,3.4,3.9c0,0.1,0,0.2,0,0.4h-5.8c0.2,1.5,1.3,2.4,2.6,2.4
		c1,0,1.7-0.4,2.3-1l0.7,0.6c-0.7,0.8-1.6,1.4-3,1.4C292.8,138.6,291.2,137,291.2,134.8z M297,134.3c-0.1-1.3-0.9-2.5-2.3-2.5
		c-1.3,0-2.2,1-2.4,2.5H297z"/>
	<path class="st0" d="M310.4,138.4H300v-7.3h1.1v6.3h3.5v-6.3h1.1v6.3h3.5v-6.3h1.1v6.3h1.1l-0.2,2.8h-0.9V138.4z"/>
	<path class="st0" d="M312.5,134.8c0-2.1,1.5-3.8,3.5-3.8c2.2,0,3.4,1.7,3.4,3.9c0,0.1,0,0.2,0,0.4h-5.8c0.2,1.5,1.3,2.4,2.6,2.4
		c1,0,1.7-0.4,2.3-1l0.7,0.6c-0.7,0.8-1.6,1.4-3,1.4C314.1,138.6,312.5,137,312.5,134.8z M318.3,134.3c-0.1-1.3-0.9-2.5-2.3-2.5
		c-1.3,0-2.2,1-2.4,2.5H318.3z"/>
	<path class="st0" d="M321.3,131.1h1.1v3.1h4.2v-3.1h1.1v7.3h-1.1v-3.2h-4.2v3.2h-1.1V131.1z"/>
	<path class="st0" d="M330.1,131.1h1.1v5.8l4.3-5.8h1.1v7.3h-1.1v-5.8l-4.3,5.8h-1V131.1z"/>
	<path class="st0" d="M338.5,134.8c0-2.1,1.5-3.8,3.5-3.8c2.2,0,3.4,1.7,3.4,3.9c0,0.1,0,0.2,0,0.4h-5.8c0.2,1.5,1.3,2.4,2.6,2.4
		c1,0,1.7-0.4,2.3-1l0.7,0.6c-0.7,0.8-1.6,1.4-3,1.4C340.1,138.6,338.5,137,338.5,134.8z M344.3,134.3c-0.1-1.3-0.9-2.5-2.3-2.5
		c-1.3,0-2.2,1-2.4,2.5H344.3z"/>
</g>
<g class="st1">
	<path class="st0" d="M265.6,207H263v-1h6.3v1h-2.6v6.3h-1.1V207z"/>
	<path class="st0" d="M270.2,209.7c0-2.1,1.5-3.8,3.5-3.8c2.2,0,3.4,1.7,3.4,3.9c0,0.1,0,0.2,0,0.4h-5.8c0.2,1.5,1.3,2.4,2.6,2.4
		c1,0,1.7-0.4,2.3-1l0.7,0.6c-0.7,0.8-1.6,1.4-3,1.4C271.8,213.5,270.2,211.9,270.2,209.7z M276,209.2c-0.1-1.3-0.9-2.5-2.3-2.5
		c-1.3,0-2.2,1-2.4,2.5H276z"/>
	<path class="st0" d="M280.9,209.6l-2.7-3.6h1.2l2.2,2.8l2.2-2.8h1.2l-2.8,3.5l2.9,3.7h-1.3l-2.3-3l-2.3,3H278L280.9,209.6z"/>
	<path class="st0" d="M286.8,206h1.1v3.1h4.2V206h1.1v7.3H292v-3.2h-4.2v3.2h-1.1V206z"/>
	<path class="st0" d="M295.6,206h1.1v5.8l4.3-5.8h1.1v7.3h-1.1v-5.8l-4.3,5.8h-1V206z"/>
	<path class="st0" d="M309.1,210.3c-0.5,0.3-1.6,0.7-2.4,0.7c-1.4,0-2.4-0.7-2.4-2.2V206h1.1v2.6c0,0.9,0.5,1.4,1.5,1.4
		c0.8,0,1.7-0.3,2.3-0.7V206h1.1v7.3h-1.1V210.3z"/>
	<path class="st0" d="M312.1,209.7c0-2.1,1.5-3.8,3.5-3.8c2.2,0,3.4,1.7,3.4,3.9c0,0.1,0,0.2,0,0.4h-5.8c0.2,1.5,1.3,2.4,2.6,2.4
		c1,0,1.7-0.4,2.3-1l0.7,0.6c-0.7,0.8-1.6,1.4-3,1.4C313.8,213.5,312.1,211.9,312.1,209.7z M317.9,209.2c-0.1-1.3-0.9-2.5-2.3-2.5
		c-1.3,0-2.2,1-2.4,2.5H317.9z"/>
	<path class="st0" d="M320.5,209.7c0-2.1,1.6-3.8,3.7-3.8c1.4,0,2.2,0.6,2.9,1.3l-0.7,0.7c-0.6-0.6-1.3-1.1-2.2-1.1
		c-1.5,0-2.6,1.3-2.6,2.8c0,1.6,1.2,2.8,2.7,2.8c0.9,0,1.6-0.5,2.2-1.1l0.7,0.7c-0.7,0.8-1.6,1.4-3,1.4
		C322.1,213.5,320.5,211.7,320.5,209.7z"/>
	<path class="st0" d="M329,206h1.1v4.2l4-4.2h1.3l-3,3.2l3.1,4.1h-1.3l-2.6-3.3l-1.5,1.6v1.8H329V206z"/>
	<path class="st0" d="M336.1,209.7c0-2.1,1.6-3.8,3.8-3.8c2.2,0,3.8,1.7,3.8,3.8c0,2.1-1.6,3.8-3.8,3.8
		C337.7,213.5,336.1,211.7,336.1,209.7z M342.6,209.7c0-1.6-1.2-2.8-2.7-2.8c-1.6,0-2.7,1.3-2.7,2.8s1.2,2.8,2.7,2.8
		C341.5,212.5,342.6,211.2,342.6,209.7z"/>
	<path class="st0" d="M345.2,209.7c0-2.1,1.5-3.8,3.5-3.8c2.2,0,3.4,1.7,3.4,3.9c0,0.1,0,0.2,0,0.4h-5.8c0.2,1.5,1.3,2.4,2.6,2.4
		c1,0,1.7-0.4,2.3-1l0.7,0.6c-0.7,0.8-1.6,1.4-3,1.4C346.8,213.5,345.2,211.9,345.2,209.7z M351,209.2c-0.1-1.3-0.9-2.5-2.3-2.5
		c-1.3,0-2.2,1-2.4,2.5H351z"/>
	<path class="st0" d="M263.9,222.9h6.3v7.3h-1.1v-6.3h-4.1v6.3h-1.1V222.9z"/>
	<path class="st0" d="M272.1,226.6c0-2.1,1.6-3.8,3.8-3.8c2.2,0,3.8,1.7,3.8,3.8c0,2.1-1.6,3.8-3.8,3.8
		C273.7,230.4,272.1,228.6,272.1,226.6z M278.6,226.6c0-1.6-1.2-2.8-2.7-2.8c-1.6,0-2.7,1.3-2.7,2.8s1.2,2.8,2.7,2.8
		C277.5,229.4,278.6,228.1,278.6,226.6z"/>
	<path class="st0" d="M281.7,222.9h1l2.7,3.8l2.7-3.8h1v7.3h-1.1v-5.5l-2.7,3.7l-2.7-3.7v5.5h-1.1V222.9z"/>
	<path class="st0" d="M291.2,226.6c0-2.1,1.5-3.8,3.5-3.8c2.2,0,3.4,1.7,3.4,3.9c0,0.1,0,0.2,0,0.4h-5.8c0.2,1.5,1.3,2.4,2.6,2.4
		c1,0,1.7-0.4,2.3-1l0.7,0.6c-0.7,0.8-1.6,1.4-3,1.4C292.8,230.4,291.2,228.8,291.2,226.6z M297,226.1c-0.1-1.3-0.9-2.5-2.3-2.5
		c-1.3,0-2.2,1-2.4,2.5H297z"/>
	<path class="st0" d="M310.4,230.2H300v-7.3h1.1v6.3h3.5v-6.3h1.1v6.3h3.5v-6.3h1.1v6.3h1.1l-0.2,2.8h-0.9V230.2z"/>
	<path class="st0" d="M312.5,226.6c0-2.1,1.5-3.8,3.5-3.8c2.2,0,3.4,1.7,3.4,3.9c0,0.1,0,0.2,0,0.4h-5.8c0.2,1.5,1.3,2.4,2.6,2.4
		c1,0,1.7-0.4,2.3-1l0.7,0.6c-0.7,0.8-1.6,1.4-3,1.4C314.1,230.4,312.5,228.8,312.5,226.6z M318.3,226.1c-0.1-1.3-0.9-2.5-2.3-2.5
		c-1.3,0-2.2,1-2.4,2.5H318.3z"/>
	<path class="st0" d="M321.3,222.9h1.1v3.1h4.2v-3.1h1.1v7.3h-1.1V227h-4.2v3.2h-1.1V222.9z"/>
	<path class="st0" d="M330.1,222.9h1.1v5.8l4.3-5.8h1.1v7.3h-1.1v-5.8l-4.3,5.8h-1V222.9z"/>
	<path class="st0" d="M338.5,226.6c0-2.1,1.5-3.8,3.5-3.8c2.2,0,3.4,1.7,3.4,3.9c0,0.1,0,0.2,0,0.4h-5.8c0.2,1.5,1.3,2.4,2.6,2.4
		c1,0,1.7-0.4,2.3-1l0.7,0.6c-0.7,0.8-1.6,1.4-3,1.4C340.1,230.4,338.5,228.8,338.5,226.6z M344.3,226.1c-0.1-1.3-0.9-2.5-2.3-2.5
		c-1.3,0-2.2,1-2.4,2.5H344.3z"/>
</g>
<g class="st1">
	<path class="st0" d="M813.3,207h-2.6v-1h6.3v1h-2.6v6.3h-1.1V207z"/>
	<path class="st0" d="M817.8,209.7c0-2.1,1.5-3.8,3.5-3.8c2.2,0,3.4,1.7,3.4,3.9c0,0.1,0,0.2,0,0.4h-5.8c0.2,1.5,1.3,2.4,2.6,2.4
		c1,0,1.7-0.4,2.3-1l0.7,0.6c-0.7,0.8-1.6,1.4-3,1.4C819.5,213.5,817.8,211.9,817.8,209.7z M823.6,209.2c-0.1-1.3-0.9-2.5-2.3-2.5
		c-1.3,0-2.2,1-2.4,2.5H823.6z"/>
	<path class="st0" d="M828.5,209.6l-2.7-3.6h1.2l2.2,2.8l2.2-2.8h1.2l-2.8,3.5l2.9,3.7h-1.3l-2.3-3l-2.3,3h-1.2L828.5,209.6z"/>
	<path class="st0" d="M834.4,206h1.1v3.1h4.2V206h1.1v7.3h-1.1v-3.2h-4.2v3.2h-1.1V206z"/>
	<path class="st0" d="M843.2,206h1.1v5.8l4.3-5.8h1.1v7.3h-1.1v-5.8l-4.3,5.8h-1V206z"/>
	<path class="st0" d="M856.7,210.3c-0.5,0.3-1.6,0.7-2.4,0.7c-1.4,0-2.4-0.7-2.4-2.2V206h1.1v2.6c0,0.9,0.5,1.4,1.5,1.4
		c0.8,0,1.7-0.3,2.3-0.7V206h1.1v7.3h-1.1V210.3z"/>
	<path class="st0" d="M859.8,209.7c0-2.1,1.5-3.8,3.5-3.8c2.2,0,3.4,1.7,3.4,3.9c0,0.1,0,0.2,0,0.4h-5.8c0.2,1.5,1.3,2.4,2.6,2.4
		c1,0,1.7-0.4,2.3-1l0.7,0.6c-0.7,0.8-1.6,1.4-3,1.4C861.4,213.5,859.8,211.9,859.8,209.7z M865.6,209.2c-0.1-1.3-0.9-2.5-2.3-2.5
		c-1.3,0-2.2,1-2.4,2.5H865.6z"/>
	<path class="st0" d="M868.1,209.7c0-2.1,1.6-3.8,3.7-3.8c1.4,0,2.2,0.6,2.9,1.3l-0.7,0.7c-0.6-0.6-1.3-1.1-2.2-1.1
		c-1.5,0-2.6,1.3-2.6,2.8c0,1.6,1.2,2.8,2.7,2.8c0.9,0,1.6-0.5,2.2-1.1l0.7,0.7c-0.7,0.8-1.6,1.4-3,1.4
		C869.7,213.5,868.1,211.7,868.1,209.7z"/>
	<path class="st0" d="M876.6,206h1.1v4.2l4-4.2h1.3l-3,3.2l3.1,4.1h-1.3l-2.6-3.3l-1.5,1.6v1.8h-1.1V206z"/>
	<path class="st0" d="M883.7,209.7c0-2.1,1.6-3.8,3.8-3.8c2.2,0,3.8,1.7,3.8,3.8c0,2.1-1.6,3.8-3.8,3.8
		C885.3,213.5,883.7,211.7,883.7,209.7z M890.2,209.7c0-1.6-1.2-2.8-2.7-2.8c-1.6,0-2.7,1.3-2.7,2.8s1.2,2.8,2.7,2.8
		C889.1,212.5,890.2,211.2,890.2,209.7z"/>
	<path class="st0" d="M892.8,209.7c0-2.1,1.5-3.8,3.5-3.8c2.2,0,3.4,1.7,3.4,3.9c0,0.1,0,0.2,0,0.4h-5.8c0.2,1.5,1.3,2.4,2.6,2.4
		c1,0,1.7-0.4,2.3-1l0.7,0.6c-0.7,0.8-1.6,1.4-3,1.4C894.5,213.5,892.8,211.9,892.8,209.7z M898.6,209.2c-0.1-1.3-0.9-2.5-2.3-2.5
		c-1.3,0-2.2,1-2.4,2.5H898.6z"/>
	<path class="st0" d="M811.5,222.9h6.3v7.3h-1.1v-6.3h-4.1v6.3h-1.1V222.9z"/>
	<path class="st0" d="M819.8,226.6c0-2.1,1.6-3.8,3.8-3.8c2.2,0,3.8,1.7,3.8,3.8c0,2.1-1.6,3.8-3.8,3.8
		C821.4,230.4,819.8,228.6,819.8,226.6z M826.3,226.6c0-1.6-1.2-2.8-2.7-2.8c-1.6,0-2.7,1.3-2.7,2.8s1.2,2.8,2.7,2.8
		C825.2,229.4,826.3,228.1,826.3,226.6z"/>
	<path class="st0" d="M829.3,222.9h1l2.7,3.8l2.7-3.8h1v7.3h-1.1v-5.5l-2.7,3.7l-2.7-3.7v5.5h-1.1V222.9z"/>
	<path class="st0" d="M838.8,226.6c0-2.1,1.5-3.8,3.5-3.8c2.2,0,3.4,1.7,3.4,3.9c0,0.1,0,0.2,0,0.4h-5.8c0.2,1.5,1.3,2.4,2.6,2.4
		c1,0,1.7-0.4,2.3-1l0.7,0.6c-0.7,0.8-1.6,1.4-3,1.4C840.5,230.4,838.8,228.8,838.8,226.6z M844.6,226.1c-0.1-1.3-0.9-2.5-2.3-2.5
		c-1.3,0-2.2,1-2.4,2.5H844.6z"/>
	<path class="st0" d="M858,230.2h-10.4v-7.3h1.1v6.3h3.5v-6.3h1.1v6.3h3.5v-6.3h1.1v6.3h1.1l-0.2,2.8H858V230.2z"/>
	<path class="st0" d="M860.1,226.6c0-2.1,1.5-3.8,3.5-3.8c2.2,0,3.4,1.7,3.4,3.9c0,0.1,0,0.2,0,0.4h-5.8c0.2,1.5,1.3,2.4,2.6,2.4
		c1,0,1.7-0.4,2.3-1l0.7,0.6c-0.7,0.8-1.6,1.4-3,1.4C861.8,230.4,860.1,228.8,860.1,226.6z M865.9,226.1c-0.1-1.3-0.9-2.5-2.3-2.5
		c-1.3,0-2.2,1-2.4,2.5H865.9z"/>
	<path class="st0" d="M868.9,222.9h1.1v3.1h4.2v-3.1h1.1v7.3h-1.1V227H870v3.2h-1.1V222.9z"/>
	<path class="st0" d="M877.7,222.9h1.1v5.8l4.3-5.8h1.1v7.3h-1.1v-5.8l-4.3,5.8h-1V222.9z"/>
	<path class="st0" d="M886.2,226.6c0-2.1,1.5-3.8,3.5-3.8c2.2,0,3.4,1.7,3.4,3.9c0,0.1,0,0.2,0,0.4h-5.8c0.2,1.5,1.3,2.4,2.6,2.4
		c1,0,1.7-0.4,2.3-1l0.7,0.6c-0.7,0.8-1.6,1.4-3,1.4C887.8,230.4,886.2,228.8,886.2,226.6z M891.9,226.1c-0.1-1.3-0.9-2.5-2.3-2.5
		c-1.3,0-2.2,1-2.4,2.5H891.9z"/>
</g>
<g class="st1">
	<path class="st0" d="M813.3,115.2h-2.6v-1h6.3v1h-2.6v6.3h-1.1V115.2z"/>
	<path class="st0" d="M817.8,117.8c0-2.1,1.5-3.8,3.5-3.8c2.2,0,3.4,1.7,3.4,3.9c0,0.1,0,0.2,0,0.4h-5.8c0.2,1.5,1.3,2.4,2.6,2.4
		c1,0,1.7-0.4,2.3-1l0.7,0.6c-0.7,0.8-1.6,1.4-3,1.4C819.5,121.6,817.8,120.1,817.8,117.8z M823.6,117.4c-0.1-1.3-0.9-2.5-2.3-2.5
		c-1.3,0-2.2,1-2.4,2.5H823.6z"/>
	<path class="st0" d="M828.5,117.8l-2.7-3.6h1.2l2.2,2.8l2.2-2.8h1.2l-2.8,3.5l2.9,3.7h-1.3l-2.3-3l-2.3,3h-1.2L828.5,117.8z"/>
	<path class="st0" d="M834.4,114.2h1.1v3.1h4.2v-3.1h1.1v7.3h-1.1v-3.2h-4.2v3.2h-1.1V114.2z"/>
	<path class="st0" d="M843.2,114.2h1.1v5.8l4.3-5.8h1.1v7.3h-1.1v-5.8l-4.3,5.8h-1V114.2z"/>
	<path class="st0" d="M856.7,118.5c-0.5,0.3-1.6,0.7-2.4,0.7c-1.4,0-2.4-0.7-2.4-2.2v-2.8h1.1v2.6c0,0.9,0.5,1.4,1.5,1.4
		c0.8,0,1.7-0.3,2.3-0.7v-3.3h1.1v7.3h-1.1V118.5z"/>
	<path class="st0" d="M859.8,117.8c0-2.1,1.5-3.8,3.5-3.8c2.2,0,3.4,1.7,3.4,3.9c0,0.1,0,0.2,0,0.4h-5.8c0.2,1.5,1.3,2.4,2.6,2.4
		c1,0,1.7-0.4,2.3-1l0.7,0.6c-0.7,0.8-1.6,1.4-3,1.4C861.4,121.6,859.8,120.1,859.8,117.8z M865.6,117.4c-0.1-1.3-0.9-2.5-2.3-2.5
		c-1.3,0-2.2,1-2.4,2.5H865.6z"/>
	<path class="st0" d="M868.1,117.8c0-2.1,1.6-3.8,3.7-3.8c1.4,0,2.2,0.6,2.9,1.3l-0.7,0.7c-0.6-0.6-1.3-1.1-2.2-1.1
		c-1.5,0-2.6,1.3-2.6,2.8c0,1.6,1.2,2.8,2.7,2.8c0.9,0,1.6-0.5,2.2-1.1l0.7,0.7c-0.7,0.8-1.6,1.4-3,1.4
		C869.7,121.6,868.1,119.9,868.1,117.8z"/>
	<path class="st0" d="M876.6,114.2h1.1v4.2l4-4.2h1.3l-3,3.2l3.1,4.1h-1.3l-2.6-3.3l-1.5,1.6v1.8h-1.1V114.2z"/>
	<path class="st0" d="M883.7,117.8c0-2.1,1.6-3.8,3.8-3.8c2.2,0,3.8,1.7,3.8,3.8c0,2.1-1.6,3.8-3.8,3.8
		C885.3,121.6,883.7,119.9,883.7,117.8z M890.2,117.8c0-1.6-1.2-2.8-2.7-2.8c-1.6,0-2.7,1.3-2.7,2.8s1.2,2.8,2.7,2.8
		C889.1,120.7,890.2,119.4,890.2,117.8z"/>
	<path class="st0" d="M892.8,117.8c0-2.1,1.5-3.8,3.5-3.8c2.2,0,3.4,1.7,3.4,3.9c0,0.1,0,0.2,0,0.4h-5.8c0.2,1.5,1.3,2.4,2.6,2.4
		c1,0,1.7-0.4,2.3-1l0.7,0.6c-0.7,0.8-1.6,1.4-3,1.4C894.5,121.6,892.8,120.1,892.8,117.8z M898.6,117.4c-0.1-1.3-0.9-2.5-2.3-2.5
		c-1.3,0-2.2,1-2.4,2.5H898.6z"/>
	<path class="st0" d="M811.5,131.1h6.3v7.3h-1.1v-6.3h-4.1v6.3h-1.1V131.1z"/>
	<path class="st0" d="M819.8,134.8c0-2.1,1.6-3.8,3.8-3.8c2.2,0,3.8,1.7,3.8,3.8c0,2.1-1.6,3.8-3.8,3.8
		C821.4,138.6,819.8,136.8,819.8,134.8z M826.3,134.8c0-1.6-1.2-2.8-2.7-2.8c-1.6,0-2.7,1.3-2.7,2.8s1.2,2.8,2.7,2.8
		C825.2,137.6,826.3,136.3,826.3,134.8z"/>
	<path class="st0" d="M829.3,131.1h1l2.7,3.8l2.7-3.8h1v7.3h-1.1v-5.5l-2.7,3.7l-2.7-3.7v5.5h-1.1V131.1z"/>
	<path class="st0" d="M838.8,134.8c0-2.1,1.5-3.8,3.5-3.8c2.2,0,3.4,1.7,3.4,3.9c0,0.1,0,0.2,0,0.4h-5.8c0.2,1.5,1.3,2.4,2.6,2.4
		c1,0,1.7-0.4,2.3-1l0.7,0.6c-0.7,0.8-1.6,1.4-3,1.4C840.5,138.6,838.8,137,838.8,134.8z M844.6,134.3c-0.1-1.3-0.9-2.5-2.3-2.5
		c-1.3,0-2.2,1-2.4,2.5H844.6z"/>
	<path class="st0" d="M858,138.4h-10.4v-7.3h1.1v6.3h3.5v-6.3h1.1v6.3h3.5v-6.3h1.1v6.3h1.1l-0.2,2.8H858V138.4z"/>
	<path class="st0" d="M860.1,134.8c0-2.1,1.5-3.8,3.5-3.8c2.2,0,3.4,1.7,3.4,3.9c0,0.1,0,0.2,0,0.4h-5.8c0.2,1.5,1.3,2.4,2.6,2.4
		c1,0,1.7-0.4,2.3-1l0.7,0.6c-0.7,0.8-1.6,1.4-3,1.4C861.8,138.6,860.1,137,860.1,134.8z M865.9,134.3c-0.1-1.3-0.9-2.5-2.3-2.5
		c-1.3,0-2.2,1-2.4,2.5H865.9z"/>
	<path class="st0" d="M868.9,131.1h1.1v3.1h4.2v-3.1h1.1v7.3h-1.1v-3.2H870v3.2h-1.1V131.1z"/>
	<path class="st0" d="M877.7,131.1h1.1v5.8l4.3-5.8h1.1v7.3h-1.1v-5.8l-4.3,5.8h-1V131.1z"/>
	<path class="st0" d="M886.2,134.8c0-2.1,1.5-3.8,3.5-3.8c2.2,0,3.4,1.7,3.4,3.9c0,0.1,0,0.2,0,0.4h-5.8c0.2,1.5,1.3,2.4,2.6,2.4
		c1,0,1.7-0.4,2.3-1l0.7,0.6c-0.7,0.8-1.6,1.4-3,1.4C887.8,138.6,886.2,137,886.2,134.8z M891.9,134.3c-0.1-1.3-0.9-2.5-2.3-2.5
		c-1.3,0-2.2,1-2.4,2.5H891.9z"/>
</g>
<g class="st1">
	<path class="st0" d="M449.6-73.2H447v-1h6.3v1h-2.6v6.3h-1.1V-73.2z"/>
	<path class="st0" d="M454.1-70.5c0-2.1,1.5-3.8,3.5-3.8c2.2,0,3.4,1.7,3.4,3.9c0,0.1,0,0.2,0,0.4h-5.8c0.2,1.5,1.3,2.4,2.6,2.4
		c1,0,1.7-0.4,2.3-1l0.7,0.6c-0.7,0.8-1.6,1.4-3,1.4C455.8-66.7,454.1-68.2,454.1-70.5z M459.9-70.9c-0.1-1.3-0.9-2.5-2.3-2.5
		c-1.3,0-2.2,1-2.4,2.5H459.9z"/>
	<path class="st0" d="M464.9-70.6l-2.7-3.6h1.2l2.2,2.8l2.2-2.8h1.2l-2.8,3.5l2.9,3.7h-1.3l-2.3-3l-2.3,3H462L464.9-70.6z"/>
	<path class="st0" d="M470.7-74.1h1.1v3.1h4.2v-3.1h1.1v7.3H476V-70h-4.2v3.2h-1.1V-74.1z"/>
	<path class="st0" d="M479.5-74.1h1.1v5.8l4.3-5.8h1.1v7.3h-1.1v-5.8l-4.3,5.8h-1V-74.1z"/>
	<path class="st0" d="M493-69.9c-0.5,0.3-1.6,0.7-2.4,0.7c-1.4,0-2.4-0.7-2.4-2.2v-2.8h1.1v2.6c0,0.9,0.5,1.4,1.5,1.4
		c0.8,0,1.7-0.3,2.3-0.7v-3.3h1.1v7.3H493V-69.9z"/>
	<path class="st0" d="M496.1-70.5c0-2.1,1.5-3.8,3.5-3.8c2.2,0,3.4,1.7,3.4,3.9c0,0.1,0,0.2,0,0.4h-5.8c0.2,1.5,1.3,2.4,2.6,2.4
		c1,0,1.7-0.4,2.3-1l0.7,0.6c-0.7,0.8-1.6,1.4-3,1.4C497.7-66.7,496.1-68.2,496.1-70.5z M501.9-70.9c-0.1-1.3-0.9-2.5-2.3-2.5
		c-1.3,0-2.2,1-2.4,2.5H501.9z"/>
	<path class="st0" d="M504.5-70.5c0-2.1,1.6-3.8,3.7-3.8c1.4,0,2.2,0.6,2.9,1.3l-0.7,0.7c-0.6-0.6-1.3-1.1-2.2-1.1
		c-1.5,0-2.6,1.3-2.6,2.8c0,1.6,1.2,2.8,2.7,2.8c0.9,0,1.6-0.5,2.2-1.1l0.7,0.7c-0.7,0.8-1.6,1.4-3,1.4
		C506.1-66.7,504.5-68.4,504.5-70.5z"/>
	<path class="st0" d="M512.9-74.1h1.1v4.2l4-4.2h1.3l-3,3.2l3.1,4.1h-1.3l-2.6-3.3l-1.5,1.6v1.8h-1.1V-74.1z"/>
	<path class="st0" d="M520.1-70.5c0-2.1,1.6-3.8,3.8-3.8c2.2,0,3.8,1.7,3.8,3.8c0,2.1-1.6,3.8-3.8,3.8
		C521.7-66.7,520.1-68.4,520.1-70.5z M526.5-70.5c0-1.6-1.2-2.8-2.7-2.8c-1.6,0-2.7,1.3-2.7,2.8s1.2,2.8,2.7,2.8
		C525.4-67.7,526.5-68.9,526.5-70.5z"/>
	<path class="st0" d="M529.2-70.5c0-2.1,1.5-3.8,3.5-3.8c2.2,0,3.4,1.7,3.4,3.9c0,0.1,0,0.2,0,0.4h-5.8c0.2,1.5,1.3,2.4,2.6,2.4
		c1,0,1.7-0.4,2.3-1l0.7,0.6c-0.7,0.8-1.6,1.4-3,1.4C530.8-66.7,529.2-68.2,529.2-70.5z M535-70.9c-0.1-1.3-0.9-2.5-2.3-2.5
		c-1.3,0-2.2,1-2.4,2.5H535z"/>
	<path class="st0" d="M447.8-57.2h6.3v7.3h-1.1v-6.3h-4.1v6.3h-1.1V-57.2z"/>
	<path class="st0" d="M456.1-53.6c0-2.1,1.6-3.8,3.8-3.8c2.2,0,3.8,1.7,3.8,3.8c0,2.1-1.6,3.8-3.8,3.8
		C457.7-49.8,456.1-51.5,456.1-53.6z M462.6-53.6c0-1.6-1.2-2.8-2.7-2.8c-1.6,0-2.7,1.3-2.7,2.8s1.2,2.8,2.7,2.8
		C461.5-50.8,462.6-52,462.6-53.6z"/>
	<path class="st0" d="M465.7-57.2h1l2.7,3.8l2.7-3.8h1v7.3h-1.1v-5.5l-2.7,3.7l-2.7-3.7v5.5h-1.1V-57.2z"/>
	<path class="st0" d="M475.2-53.6c0-2.1,1.5-3.8,3.5-3.8c2.2,0,3.4,1.7,3.4,3.9c0,0.1,0,0.2,0,0.4h-5.8c0.2,1.5,1.3,2.4,2.6,2.4
		c1,0,1.7-0.4,2.3-1l0.7,0.6c-0.7,0.8-1.6,1.4-3,1.4C476.8-49.8,475.2-51.3,475.2-53.6z M480.9-54c-0.1-1.3-0.9-2.5-2.3-2.5
		c-1.3,0-2.2,1-2.4,2.5H480.9z"/>
	<path class="st0" d="M494.3-50h-10.4v-7.3h1.1v6.3h3.5v-6.3h1.1v6.3h3.5v-6.3h1.1v6.3h1.1l-0.2,2.8h-0.9V-50z"/>
	<path class="st0" d="M496.5-53.6c0-2.1,1.5-3.8,3.5-3.8c2.2,0,3.4,1.7,3.4,3.9c0,0.1,0,0.2,0,0.4h-5.8c0.2,1.5,1.3,2.4,2.6,2.4
		c1,0,1.7-0.4,2.3-1l0.7,0.6c-0.7,0.8-1.6,1.4-3,1.4C498.1-49.8,496.5-51.3,496.5-53.6z M502.2-54c-0.1-1.3-0.9-2.5-2.3-2.5
		c-1.3,0-2.2,1-2.4,2.5H502.2z"/>
	<path class="st0" d="M505.3-57.2h1.1v3.1h4.2v-3.1h1.1v7.3h-1.1v-3.2h-4.2v3.2h-1.1V-57.2z"/>
	<path class="st0" d="M514-57.2h1.1v5.8l4.3-5.8h1.1v7.3h-1.1v-5.8l-4.3,5.8h-1V-57.2z"/>
	<path class="st0" d="M522.5-53.6c0-2.1,1.5-3.8,3.5-3.8c2.2,0,3.4,1.7,3.4,3.9c0,0.1,0,0.2,0,0.4h-5.8c0.2,1.5,1.3,2.4,2.6,2.4
		c1,0,1.7-0.4,2.3-1l0.7,0.6c-0.7,0.8-1.6,1.4-3,1.4C524.1-49.8,522.5-51.3,522.5-53.6z M528.3-54c-0.1-1.3-0.9-2.5-2.3-2.5
		c-1.3,0-2.2,1-2.4,2.5H528.3z"/>
</g>
<g class="st1">
	<path class="st0" d="M627.5-73.2h-2.6v-1h6.3v1h-2.6v6.3h-1.1V-73.2z"/>
	<path class="st0" d="M632.1-70.5c0-2.1,1.5-3.8,3.5-3.8c2.2,0,3.4,1.7,3.4,3.9c0,0.1,0,0.2,0,0.4h-5.8c0.2,1.5,1.3,2.4,2.6,2.4
		c1,0,1.7-0.4,2.3-1l0.7,0.6c-0.7,0.8-1.6,1.4-3,1.4C633.7-66.7,632.1-68.2,632.1-70.5z M637.9-70.9c-0.1-1.3-0.9-2.5-2.3-2.5
		c-1.3,0-2.2,1-2.4,2.5H637.9z"/>
	<path class="st0" d="M642.8-70.6l-2.7-3.6h1.2l2.2,2.8l2.2-2.8h1.2l-2.8,3.5l2.9,3.7h-1.3l-2.3-3l-2.3,3h-1.2L642.8-70.6z"/>
	<path class="st0" d="M648.7-74.1h1.1v3.1h4.2v-3.1h1.1v7.3h-1.1V-70h-4.2v3.2h-1.1V-74.1z"/>
	<path class="st0" d="M657.5-74.1h1.1v5.8l4.3-5.8h1.1v7.3h-1.1v-5.8l-4.3,5.8h-1V-74.1z"/>
	<path class="st0" d="M671-69.9c-0.5,0.3-1.6,0.7-2.4,0.7c-1.4,0-2.4-0.7-2.4-2.2v-2.8h1.1v2.6c0,0.9,0.5,1.4,1.5,1.4
		c0.8,0,1.7-0.3,2.3-0.7v-3.3h1.1v7.3H671V-69.9z"/>
	<path class="st0" d="M674-70.5c0-2.1,1.5-3.8,3.5-3.8c2.2,0,3.4,1.7,3.4,3.9c0,0.1,0,0.2,0,0.4h-5.8c0.2,1.5,1.3,2.4,2.6,2.4
		c1,0,1.7-0.4,2.3-1l0.7,0.6c-0.7,0.8-1.6,1.4-3,1.4C675.7-66.7,674-68.2,674-70.5z M679.8-70.9c-0.1-1.3-0.9-2.5-2.3-2.5
		c-1.3,0-2.2,1-2.4,2.5H679.8z"/>
	<path class="st0" d="M682.4-70.5c0-2.1,1.6-3.8,3.7-3.8c1.4,0,2.2,0.6,2.9,1.3l-0.7,0.7c-0.6-0.6-1.3-1.1-2.2-1.1
		c-1.5,0-2.6,1.3-2.6,2.8c0,1.6,1.2,2.8,2.7,2.8c0.9,0,1.6-0.5,2.2-1.1l0.7,0.7c-0.7,0.8-1.6,1.4-3,1.4
		C684-66.7,682.4-68.4,682.4-70.5z"/>
	<path class="st0" d="M690.9-74.1h1.1v4.2l4-4.2h1.3l-3,3.2l3.1,4.1h-1.3l-2.6-3.3l-1.5,1.6v1.8h-1.1V-74.1z"/>
	<path class="st0" d="M698-70.5c0-2.1,1.6-3.8,3.8-3.8c2.2,0,3.8,1.7,3.8,3.8c0,2.1-1.6,3.8-3.8,3.8C699.6-66.7,698-68.4,698-70.5z
		 M704.5-70.5c0-1.6-1.2-2.8-2.7-2.8c-1.6,0-2.7,1.3-2.7,2.8s1.2,2.8,2.7,2.8C703.4-67.7,704.5-68.9,704.5-70.5z"/>
	<path class="st0" d="M707.1-70.5c0-2.1,1.5-3.8,3.5-3.8c2.2,0,3.4,1.7,3.4,3.9c0,0.1,0,0.2,0,0.4h-5.8c0.2,1.5,1.3,2.4,2.6,2.4
		c1,0,1.7-0.4,2.3-1l0.7,0.6c-0.7,0.8-1.6,1.4-3,1.4C708.7-66.7,707.1-68.2,707.1-70.5z M712.9-70.9c-0.1-1.3-0.9-2.5-2.3-2.5
		c-1.3,0-2.2,1-2.4,2.5H712.9z"/>
	<path class="st0" d="M625.8-57.2h6.3v7.3H631v-6.3h-4.1v6.3h-1.1V-57.2z"/>
	<path class="st0" d="M634-53.6c0-2.1,1.6-3.8,3.8-3.8c2.2,0,3.8,1.7,3.8,3.8c0,2.1-1.6,3.8-3.8,3.8C635.6-49.8,634-51.5,634-53.6z
		 M640.5-53.6c0-1.6-1.2-2.8-2.7-2.8c-1.6,0-2.7,1.3-2.7,2.8s1.2,2.8,2.7,2.8C639.4-50.8,640.5-52,640.5-53.6z"/>
	<path class="st0" d="M643.6-57.2h1l2.7,3.8l2.7-3.8h1v7.3H650v-5.5l-2.7,3.7l-2.7-3.7v5.5h-1.1V-57.2z"/>
	<path class="st0" d="M653.1-53.6c0-2.1,1.5-3.8,3.5-3.8c2.2,0,3.4,1.7,3.4,3.9c0,0.1,0,0.2,0,0.4h-5.8c0.2,1.5,1.3,2.4,2.6,2.4
		c1,0,1.7-0.4,2.3-1l0.7,0.6c-0.7,0.8-1.6,1.4-3,1.4C654.7-49.8,653.1-51.3,653.1-53.6z M658.9-54c-0.1-1.3-0.9-2.5-2.3-2.5
		c-1.3,0-2.2,1-2.4,2.5H658.9z"/>
	<path class="st0" d="M672.3-50h-10.4v-7.3h1.1v6.3h3.5v-6.3h1.1v6.3h3.5v-6.3h1.1v6.3h1.1l-0.2,2.8h-0.9V-50z"/>
	<path class="st0" d="M674.4-53.6c0-2.1,1.5-3.8,3.5-3.8c2.2,0,3.4,1.7,3.4,3.9c0,0.1,0,0.2,0,0.4h-5.8c0.2,1.5,1.3,2.4,2.6,2.4
		c1,0,1.7-0.4,2.3-1l0.7,0.6c-0.7,0.8-1.6,1.4-3,1.4C676-49.8,674.4-51.3,674.4-53.6z M680.2-54c-0.1-1.3-0.9-2.5-2.3-2.5
		c-1.3,0-2.2,1-2.4,2.5H680.2z"/>
	<path class="st0" d="M683.2-57.2h1.1v3.1h4.2v-3.1h1.1v7.3h-1.1v-3.2h-4.2v3.2h-1.1V-57.2z"/>
	<path class="st0" d="M692-57.2h1.1v5.8l4.3-5.8h1.1v7.3h-1.1v-5.8L693-50h-1V-57.2z"/>
	<path class="st0" d="M700.4-53.6c0-2.1,1.5-3.8,3.5-3.8c2.2,0,3.4,1.7,3.4,3.9c0,0.1,0,0.2,0,0.4h-5.8c0.2,1.5,1.3,2.4,2.6,2.4
		c1,0,1.7-0.4,2.3-1l0.7,0.6c-0.7,0.8-1.6,1.4-3,1.4C702-49.8,700.4-51.3,700.4-53.6z M706.2-54c-0.1-1.3-0.9-2.5-2.3-2.5
		c-1.3,0-2.2,1-2.4,2.5H706.2z"/>
</g>
<g class="st1">
	<path class="st0" d="M813.3-73.2h-2.6v-1h6.3v1h-2.6v6.3h-1.1V-73.2z"/>
	<path class="st0" d="M817.8-70.5c0-2.1,1.5-3.8,3.5-3.8c2.2,0,3.4,1.7,3.4,3.9c0,0.1,0,0.2,0,0.4h-5.8c0.2,1.5,1.3,2.4,2.6,2.4
		c1,0,1.7-0.4,2.3-1l0.7,0.6c-0.7,0.8-1.6,1.4-3,1.4C819.5-66.7,817.8-68.2,817.8-70.5z M823.6-70.9c-0.1-1.3-0.9-2.5-2.3-2.5
		c-1.3,0-2.2,1-2.4,2.5H823.6z"/>
	<path class="st0" d="M828.5-70.6l-2.7-3.6h1.2l2.2,2.8l2.2-2.8h1.2l-2.8,3.5l2.9,3.7h-1.3l-2.3-3l-2.3,3h-1.2L828.5-70.6z"/>
	<path class="st0" d="M834.4-74.1h1.1v3.1h4.2v-3.1h1.1v7.3h-1.1V-70h-4.2v3.2h-1.1V-74.1z"/>
	<path class="st0" d="M843.2-74.1h1.1v5.8l4.3-5.8h1.1v7.3h-1.1v-5.8l-4.3,5.8h-1V-74.1z"/>
	<path class="st0" d="M856.7-69.9c-0.5,0.3-1.6,0.7-2.4,0.7c-1.4,0-2.4-0.7-2.4-2.2v-2.8h1.1v2.6c0,0.9,0.5,1.4,1.5,1.4
		c0.8,0,1.7-0.3,2.3-0.7v-3.3h1.1v7.3h-1.1V-69.9z"/>
	<path class="st0" d="M859.8-70.5c0-2.1,1.5-3.8,3.5-3.8c2.2,0,3.4,1.7,3.4,3.9c0,0.1,0,0.2,0,0.4h-5.8c0.2,1.5,1.3,2.4,2.6,2.4
		c1,0,1.7-0.4,2.3-1l0.7,0.6c-0.7,0.8-1.6,1.4-3,1.4C861.4-66.7,859.8-68.2,859.8-70.5z M865.6-70.9c-0.1-1.3-0.9-2.5-2.3-2.5
		c-1.3,0-2.2,1-2.4,2.5H865.6z"/>
	<path class="st0" d="M868.1-70.5c0-2.1,1.6-3.8,3.7-3.8c1.4,0,2.2,0.6,2.9,1.3l-0.7,0.7c-0.6-0.6-1.3-1.1-2.2-1.1
		c-1.5,0-2.6,1.3-2.6,2.8c0,1.6,1.2,2.8,2.7,2.8c0.9,0,1.6-0.5,2.2-1.1l0.7,0.7c-0.7,0.8-1.6,1.4-3,1.4
		C869.7-66.7,868.1-68.4,868.1-70.5z"/>
	<path class="st0" d="M876.6-74.1h1.1v4.2l4-4.2h1.3l-3,3.2l3.1,4.1h-1.3l-2.6-3.3l-1.5,1.6v1.8h-1.1V-74.1z"/>
	<path class="st0" d="M883.7-70.5c0-2.1,1.6-3.8,3.8-3.8c2.2,0,3.8,1.7,3.8,3.8c0,2.1-1.6,3.8-3.8,3.8
		C885.3-66.7,883.7-68.4,883.7-70.5z M890.2-70.5c0-1.6-1.2-2.8-2.7-2.8c-1.6,0-2.7,1.3-2.7,2.8s1.2,2.8,2.7,2.8
		C889.1-67.7,890.2-68.9,890.2-70.5z"/>
	<path class="st0" d="M892.8-70.5c0-2.1,1.5-3.8,3.5-3.8c2.2,0,3.4,1.7,3.4,3.9c0,0.1,0,0.2,0,0.4h-5.8c0.2,1.5,1.3,2.4,2.6,2.4
		c1,0,1.7-0.4,2.3-1l0.7,0.6c-0.7,0.8-1.6,1.4-3,1.4C894.5-66.7,892.8-68.2,892.8-70.5z M898.6-70.9c-0.1-1.3-0.9-2.5-2.3-2.5
		c-1.3,0-2.2,1-2.4,2.5H898.6z"/>
	<path class="st0" d="M811.5-57.2h6.3v7.3h-1.1v-6.3h-4.1v6.3h-1.1V-57.2z"/>
	<path class="st0" d="M819.8-53.6c0-2.1,1.6-3.8,3.8-3.8c2.2,0,3.8,1.7,3.8,3.8c0,2.1-1.6,3.8-3.8,3.8
		C821.4-49.8,819.8-51.5,819.8-53.6z M826.3-53.6c0-1.6-1.2-2.8-2.7-2.8c-1.6,0-2.7,1.3-2.7,2.8s1.2,2.8,2.7,2.8
		C825.2-50.8,826.3-52,826.3-53.6z"/>
	<path class="st0" d="M829.3-57.2h1l2.7,3.8l2.7-3.8h1v7.3h-1.1v-5.5l-2.7,3.7l-2.7-3.7v5.5h-1.1V-57.2z"/>
	<path class="st0" d="M838.8-53.6c0-2.1,1.5-3.8,3.5-3.8c2.2,0,3.4,1.7,3.4,3.9c0,0.1,0,0.2,0,0.4h-5.8c0.2,1.5,1.3,2.4,2.6,2.4
		c1,0,1.7-0.4,2.3-1l0.7,0.6c-0.7,0.8-1.6,1.4-3,1.4C840.5-49.8,838.8-51.3,838.8-53.6z M844.6-54c-0.1-1.3-0.9-2.5-2.3-2.5
		c-1.3,0-2.2,1-2.4,2.5H844.6z"/>
	<path class="st0" d="M858-50h-10.4v-7.3h1.1v6.3h3.5v-6.3h1.1v6.3h3.5v-6.3h1.1v6.3h1.1l-0.2,2.8H858V-50z"/>
	<path class="st0" d="M860.1-53.6c0-2.1,1.5-3.8,3.5-3.8c2.2,0,3.4,1.7,3.4,3.9c0,0.1,0,0.2,0,0.4h-5.8c0.2,1.5,1.3,2.4,2.6,2.4
		c1,0,1.7-0.4,2.3-1l0.7,0.6c-0.7,0.8-1.6,1.4-3,1.4C861.8-49.8,860.1-51.3,860.1-53.6z M865.9-54c-0.1-1.3-0.9-2.5-2.3-2.5
		c-1.3,0-2.2,1-2.4,2.5H865.9z"/>
	<path class="st0" d="M868.9-57.2h1.1v3.1h4.2v-3.1h1.1v7.3h-1.1v-3.2H870v3.2h-1.1V-57.2z"/>
	<path class="st0" d="M877.7-57.2h1.1v5.8l4.3-5.8h1.1v7.3h-1.1v-5.8l-4.3,5.8h-1V-57.2z"/>
	<path class="st0" d="M886.2-53.6c0-2.1,1.5-3.8,3.5-3.8c2.2,0,3.4,1.7,3.4,3.9c0,0.1,0,0.2,0,0.4h-5.8c0.2,1.5,1.3,2.4,2.6,2.4
		c1,0,1.7-0.4,2.3-1l0.7,0.6c-0.7,0.8-1.6,1.4-3,1.4C887.8-49.8,886.2-51.3,886.2-53.6z M891.9-54c-0.1-1.3-0.9-2.5-2.3-2.5
		c-1.3,0-2.2,1-2.4,2.5H891.9z"/>
</g>
<g class="st1">
	<path class="st0" d="M265.6,394.8H263v-1h6.3v1h-2.6v6.3h-1.1V394.8z"/>
	<path class="st0" d="M270.2,397.5c0-2.1,1.5-3.8,3.5-3.8c2.2,0,3.4,1.7,3.4,3.9c0,0.1,0,0.2,0,0.4h-5.8c0.2,1.5,1.3,2.4,2.6,2.4
		c1,0,1.7-0.4,2.3-1l0.7,0.6c-0.7,0.8-1.6,1.4-3,1.4C271.8,401.3,270.2,399.8,270.2,397.5z M276,397.1c-0.1-1.3-0.9-2.5-2.3-2.5
		c-1.3,0-2.2,1-2.4,2.5H276z"/>
	<path class="st0" d="M280.9,397.4l-2.7-3.6h1.2l2.2,2.8l2.2-2.8h1.2l-2.8,3.5l2.9,3.7h-1.3l-2.3-3l-2.3,3H278L280.9,397.4z"/>
	<path class="st0" d="M286.8,393.9h1.1v3.1h4.2v-3.1h1.1v7.3H292V398h-4.2v3.2h-1.1V393.9z"/>
	<path class="st0" d="M295.6,393.9h1.1v5.8l4.3-5.8h1.1v7.3h-1.1v-5.8l-4.3,5.8h-1V393.9z"/>
	<path class="st0" d="M309.1,398.1c-0.5,0.3-1.6,0.7-2.4,0.7c-1.4,0-2.4-0.7-2.4-2.2v-2.8h1.1v2.6c0,0.9,0.5,1.4,1.5,1.4
		c0.8,0,1.7-0.3,2.3-0.7v-3.3h1.1v7.3h-1.1V398.1z"/>
	<path class="st0" d="M312.1,397.5c0-2.1,1.5-3.8,3.5-3.8c2.2,0,3.4,1.7,3.4,3.9c0,0.1,0,0.2,0,0.4h-5.8c0.2,1.5,1.3,2.4,2.6,2.4
		c1,0,1.7-0.4,2.3-1l0.7,0.6c-0.7,0.8-1.6,1.4-3,1.4C313.8,401.3,312.1,399.8,312.1,397.5z M317.9,397.1c-0.1-1.3-0.9-2.5-2.3-2.5
		c-1.3,0-2.2,1-2.4,2.5H317.9z"/>
	<path class="st0" d="M320.5,397.5c0-2.1,1.6-3.8,3.7-3.8c1.4,0,2.2,0.6,2.9,1.3l-0.7,0.7c-0.6-0.6-1.3-1.1-2.2-1.1
		c-1.5,0-2.6,1.3-2.6,2.8c0,1.6,1.2,2.8,2.7,2.8c0.9,0,1.6-0.5,2.2-1.1l0.7,0.7c-0.7,0.8-1.6,1.4-3,1.4
		C322.1,401.3,320.5,399.6,320.5,397.5z"/>
	<path class="st0" d="M329,393.9h1.1v4.2l4-4.2h1.3l-3,3.2l3.1,4.1h-1.3l-2.6-3.3l-1.5,1.6v1.8H329V393.9z"/>
	<path class="st0" d="M336.1,397.5c0-2.1,1.6-3.8,3.8-3.8c2.2,0,3.8,1.7,3.8,3.8c0,2.1-1.6,3.8-3.8,3.8
		C337.7,401.3,336.1,399.6,336.1,397.5z M342.6,397.5c0-1.6-1.2-2.8-2.7-2.8c-1.6,0-2.7,1.3-2.7,2.8s1.2,2.8,2.7,2.8
		C341.5,400.3,342.6,399.1,342.6,397.5z"/>
	<path class="st0" d="M345.2,397.5c0-2.1,1.5-3.8,3.5-3.8c2.2,0,3.4,1.7,3.4,3.9c0,0.1,0,0.2,0,0.4h-5.8c0.2,1.5,1.3,2.4,2.6,2.4
		c1,0,1.7-0.4,2.3-1l0.7,0.6c-0.7,0.8-1.6,1.4-3,1.4C346.8,401.3,345.2,399.8,345.2,397.5z M351,397.1c-0.1-1.3-0.9-2.5-2.3-2.5
		c-1.3,0-2.2,1-2.4,2.5H351z"/>
	<path class="st0" d="M263.9,410.8h6.3v7.3h-1.1v-6.3h-4.1v6.3h-1.1V410.8z"/>
	<path class="st0" d="M272.1,414.4c0-2.1,1.6-3.8,3.8-3.8c2.2,0,3.8,1.7,3.8,3.8c0,2.1-1.6,3.8-3.8,3.8
		C273.7,418.2,272.1,416.5,272.1,414.4z M278.6,414.4c0-1.6-1.2-2.8-2.7-2.8c-1.6,0-2.7,1.3-2.7,2.8s1.2,2.8,2.7,2.8
		C277.5,417.2,278.6,416,278.6,414.4z"/>
	<path class="st0" d="M281.7,410.8h1l2.7,3.8l2.7-3.8h1v7.3h-1.1v-5.5l-2.7,3.7l-2.7-3.7v5.5h-1.1V410.8z"/>
	<path class="st0" d="M291.2,414.4c0-2.1,1.5-3.8,3.5-3.8c2.2,0,3.4,1.7,3.4,3.9c0,0.1,0,0.2,0,0.4h-5.8c0.2,1.5,1.3,2.4,2.6,2.4
		c1,0,1.7-0.4,2.3-1l0.7,0.6c-0.7,0.8-1.6,1.4-3,1.4C292.8,418.2,291.2,416.7,291.2,414.4z M297,414c-0.1-1.3-0.9-2.5-2.3-2.5
		c-1.3,0-2.2,1-2.4,2.5H297z"/>
	<path class="st0" d="M310.4,418H300v-7.3h1.1v6.3h3.5v-6.3h1.1v6.3h3.5v-6.3h1.1v6.3h1.1l-0.2,2.8h-0.9V418z"/>
	<path class="st0" d="M312.5,414.4c0-2.1,1.5-3.8,3.5-3.8c2.2,0,3.4,1.7,3.4,3.9c0,0.1,0,0.2,0,0.4h-5.8c0.2,1.5,1.3,2.4,2.6,2.4
		c1,0,1.7-0.4,2.3-1l0.7,0.6c-0.7,0.8-1.6,1.4-3,1.4C314.1,418.2,312.5,416.7,312.5,414.4z M318.3,414c-0.1-1.3-0.9-2.5-2.3-2.5
		c-1.3,0-2.2,1-2.4,2.5H318.3z"/>
	<path class="st0" d="M321.3,410.8h1.1v3.1h4.2v-3.1h1.1v7.3h-1.1v-3.2h-4.2v3.2h-1.1V410.8z"/>
	<path class="st0" d="M330.1,410.8h1.1v5.8l4.3-5.8h1.1v7.3h-1.1v-5.8l-4.3,5.8h-1V410.8z"/>
	<path class="st0" d="M338.5,414.4c0-2.1,1.5-3.8,3.5-3.8c2.2,0,3.4,1.7,3.4,3.9c0,0.1,0,0.2,0,0.4h-5.8c0.2,1.5,1.3,2.4,2.6,2.4
		c1,0,1.7-0.4,2.3-1l0.7,0.6c-0.7,0.8-1.6,1.4-3,1.4C340.1,418.2,338.5,416.7,338.5,414.4z M344.3,414c-0.1-1.3-0.9-2.5-2.3-2.5
		c-1.3,0-2.2,1-2.4,2.5H344.3z"/>
</g>
<g class="st1">
	<path class="st0" d="M449.6,394.8H447v-1h6.3v1h-2.6v6.3h-1.1V394.8z"/>
	<path class="st0" d="M454.1,397.5c0-2.1,1.5-3.8,3.5-3.8c2.2,0,3.4,1.7,3.4,3.9c0,0.1,0,0.2,0,0.4h-5.8c0.2,1.5,1.3,2.4,2.6,2.4
		c1,0,1.7-0.4,2.3-1l0.7,0.6c-0.7,0.8-1.6,1.4-3,1.4C455.8,401.3,454.1,399.8,454.1,397.5z M459.9,397.1c-0.1-1.3-0.9-2.5-2.3-2.5
		c-1.3,0-2.2,1-2.4,2.5H459.9z"/>
	<path class="st0" d="M464.9,397.4l-2.7-3.6h1.2l2.2,2.8l2.2-2.8h1.2l-2.8,3.5l2.9,3.7h-1.3l-2.3-3l-2.3,3H462L464.9,397.4z"/>
	<path class="st0" d="M470.7,393.9h1.1v3.1h4.2v-3.1h1.1v7.3H476V398h-4.2v3.2h-1.1V393.9z"/>
	<path class="st0" d="M479.5,393.9h1.1v5.8l4.3-5.8h1.1v7.3h-1.1v-5.8l-4.3,5.8h-1V393.9z"/>
	<path class="st0" d="M493,398.1c-0.5,0.3-1.6,0.7-2.4,0.7c-1.4,0-2.4-0.7-2.4-2.2v-2.8h1.1v2.6c0,0.9,0.5,1.4,1.5,1.4
		c0.8,0,1.7-0.3,2.3-0.7v-3.3h1.1v7.3H493V398.1z"/>
	<path class="st0" d="M496.1,397.5c0-2.1,1.5-3.8,3.5-3.8c2.2,0,3.4,1.7,3.4,3.9c0,0.1,0,0.2,0,0.4h-5.8c0.2,1.5,1.3,2.4,2.6,2.4
		c1,0,1.7-0.4,2.3-1l0.7,0.6c-0.7,0.8-1.6,1.4-3,1.4C497.7,401.3,496.1,399.8,496.1,397.5z M501.9,397.1c-0.1-1.3-0.9-2.5-2.3-2.5
		c-1.3,0-2.2,1-2.4,2.5H501.9z"/>
	<path class="st0" d="M504.5,397.5c0-2.1,1.6-3.8,3.7-3.8c1.4,0,2.2,0.6,2.9,1.3l-0.7,0.7c-0.6-0.6-1.3-1.1-2.2-1.1
		c-1.5,0-2.6,1.3-2.6,2.8c0,1.6,1.2,2.8,2.7,2.8c0.9,0,1.6-0.5,2.2-1.1l0.7,0.7c-0.7,0.8-1.6,1.4-3,1.4
		C506.1,401.3,504.5,399.6,504.5,397.5z"/>
	<path class="st0" d="M512.9,393.9h1.1v4.2l4-4.2h1.3l-3,3.2l3.1,4.1h-1.3l-2.6-3.3l-1.5,1.6v1.8h-1.1V393.9z"/>
	<path class="st0" d="M520.1,397.5c0-2.1,1.6-3.8,3.8-3.8c2.2,0,3.8,1.7,3.8,3.8c0,2.1-1.6,3.8-3.8,3.8
		C521.7,401.3,520.1,399.6,520.1,397.5z M526.5,397.5c0-1.6-1.2-2.8-2.7-2.8c-1.6,0-2.7,1.3-2.7,2.8s1.2,2.8,2.7,2.8
		C525.4,400.3,526.5,399.1,526.5,397.5z"/>
	<path class="st0" d="M529.2,397.5c0-2.1,1.5-3.8,3.5-3.8c2.2,0,3.4,1.7,3.4,3.9c0,0.1,0,0.2,0,0.4h-5.8c0.2,1.5,1.3,2.4,2.6,2.4
		c1,0,1.7-0.4,2.3-1l0.7,0.6c-0.7,0.8-1.6,1.4-3,1.4C530.8,401.3,529.2,399.8,529.2,397.5z M535,397.1c-0.1-1.3-0.9-2.5-2.3-2.5
		c-1.3,0-2.2,1-2.4,2.5H535z"/>
	<path class="st0" d="M447.8,410.8h6.3v7.3h-1.1v-6.3h-4.1v6.3h-1.1V410.8z"/>
	<path class="st0" d="M456.1,414.4c0-2.1,1.6-3.8,3.8-3.8c2.2,0,3.8,1.7,3.8,3.8c0,2.1-1.6,3.8-3.8,3.8
		C457.7,418.2,456.1,416.5,456.1,414.4z M462.6,414.4c0-1.6-1.2-2.8-2.7-2.8c-1.6,0-2.7,1.3-2.7,2.8s1.2,2.8,2.7,2.8
		C461.5,417.2,462.6,416,462.6,414.4z"/>
	<path class="st0" d="M465.7,410.8h1l2.7,3.8l2.7-3.8h1v7.3h-1.1v-5.5l-2.7,3.7l-2.7-3.7v5.5h-1.1V410.8z"/>
	<path class="st0" d="M475.2,414.4c0-2.1,1.5-3.8,3.5-3.8c2.2,0,3.4,1.7,3.4,3.9c0,0.1,0,0.2,0,0.4h-5.8c0.2,1.5,1.3,2.4,2.6,2.4
		c1,0,1.7-0.4,2.3-1l0.7,0.6c-0.7,0.8-1.6,1.4-3,1.4C476.8,418.2,475.2,416.7,475.2,414.4z M480.9,414c-0.1-1.3-0.9-2.5-2.3-2.5
		c-1.3,0-2.2,1-2.4,2.5H480.9z"/>
	<path class="st0" d="M494.3,418h-10.4v-7.3h1.1v6.3h3.5v-6.3h1.1v6.3h3.5v-6.3h1.1v6.3h1.1l-0.2,2.8h-0.9V418z"/>
	<path class="st0" d="M496.5,414.4c0-2.1,1.5-3.8,3.5-3.8c2.2,0,3.4,1.7,3.4,3.9c0,0.1,0,0.2,0,0.4h-5.8c0.2,1.5,1.3,2.4,2.6,2.4
		c1,0,1.7-0.4,2.3-1l0.7,0.6c-0.7,0.8-1.6,1.4-3,1.4C498.1,418.2,496.5,416.7,496.5,414.4z M502.2,414c-0.1-1.3-0.9-2.5-2.3-2.5
		c-1.3,0-2.2,1-2.4,2.5H502.2z"/>
	<path class="st0" d="M505.3,410.8h1.1v3.1h4.2v-3.1h1.1v7.3h-1.1v-3.2h-4.2v3.2h-1.1V410.8z"/>
	<path class="st0" d="M514,410.8h1.1v5.8l4.3-5.8h1.1v7.3h-1.1v-5.8l-4.3,5.8h-1V410.8z"/>
	<path class="st0" d="M522.5,414.4c0-2.1,1.5-3.8,3.5-3.8c2.2,0,3.4,1.7,3.4,3.9c0,0.1,0,0.2,0,0.4h-5.8c0.2,1.5,1.3,2.4,2.6,2.4
		c1,0,1.7-0.4,2.3-1l0.7,0.6c-0.7,0.8-1.6,1.4-3,1.4C524.1,418.2,522.5,416.7,522.5,414.4z M528.3,414c-0.1-1.3-0.9-2.5-2.3-2.5
		c-1.3,0-2.2,1-2.4,2.5H528.3z"/>
</g>
<g class="st1">
	<path class="st0" d="M627.5,394.8h-2.6v-1h6.3v1h-2.6v6.3h-1.1V394.8z"/>
	<path class="st0" d="M632.1,397.5c0-2.1,1.5-3.8,3.5-3.8c2.2,0,3.4,1.7,3.4,3.9c0,0.1,0,0.2,0,0.4h-5.8c0.2,1.5,1.3,2.4,2.6,2.4
		c1,0,1.7-0.4,2.3-1l0.7,0.6c-0.7,0.8-1.6,1.4-3,1.4C633.7,401.3,632.1,399.8,632.1,397.5z M637.9,397.1c-0.1-1.3-0.9-2.5-2.3-2.5
		c-1.3,0-2.2,1-2.4,2.5H637.9z"/>
	<path class="st0" d="M642.8,397.4l-2.7-3.6h1.2l2.2,2.8l2.2-2.8h1.2l-2.8,3.5l2.9,3.7h-1.3l-2.3-3l-2.3,3h-1.2L642.8,397.4z"/>
	<path class="st0" d="M648.7,393.9h1.1v3.1h4.2v-3.1h1.1v7.3h-1.1V398h-4.2v3.2h-1.1V393.9z"/>
	<path class="st0" d="M657.5,393.9h1.1v5.8l4.3-5.8h1.1v7.3h-1.1v-5.8l-4.3,5.8h-1V393.9z"/>
	<path class="st0" d="M671,398.1c-0.5,0.3-1.6,0.7-2.4,0.7c-1.4,0-2.4-0.7-2.4-2.2v-2.8h1.1v2.6c0,0.9,0.5,1.4,1.5,1.4
		c0.8,0,1.7-0.3,2.3-0.7v-3.3h1.1v7.3H671V398.1z"/>
	<path class="st0" d="M674,397.5c0-2.1,1.5-3.8,3.5-3.8c2.2,0,3.4,1.7,3.4,3.9c0,0.1,0,0.2,0,0.4h-5.8c0.2,1.5,1.3,2.4,2.6,2.4
		c1,0,1.7-0.4,2.3-1l0.7,0.6c-0.7,0.8-1.6,1.4-3,1.4C675.7,401.3,674,399.8,674,397.5z M679.8,397.1c-0.1-1.3-0.9-2.5-2.3-2.5
		c-1.3,0-2.2,1-2.4,2.5H679.8z"/>
	<path class="st0" d="M682.4,397.5c0-2.1,1.6-3.8,3.7-3.8c1.4,0,2.2,0.6,2.9,1.3l-0.7,0.7c-0.6-0.6-1.3-1.1-2.2-1.1
		c-1.5,0-2.6,1.3-2.6,2.8c0,1.6,1.2,2.8,2.7,2.8c0.9,0,1.6-0.5,2.2-1.1l0.7,0.7c-0.7,0.8-1.6,1.4-3,1.4
		C684,401.3,682.4,399.6,682.4,397.5z"/>
	<path class="st0" d="M690.9,393.9h1.1v4.2l4-4.2h1.3l-3,3.2l3.1,4.1h-1.3l-2.6-3.3l-1.5,1.6v1.8h-1.1V393.9z"/>
	<path class="st0" d="M698,397.5c0-2.1,1.6-3.8,3.8-3.8c2.2,0,3.8,1.7,3.8,3.8c0,2.1-1.6,3.8-3.8,3.8
		C699.6,401.3,698,399.6,698,397.5z M704.5,397.5c0-1.6-1.2-2.8-2.7-2.8c-1.6,0-2.7,1.3-2.7,2.8s1.2,2.8,2.7,2.8
		C703.4,400.3,704.5,399.1,704.5,397.5z"/>
	<path class="st0" d="M707.1,397.5c0-2.1,1.5-3.8,3.5-3.8c2.2,0,3.4,1.7,3.4,3.9c0,0.1,0,0.2,0,0.4h-5.8c0.2,1.5,1.3,2.4,2.6,2.4
		c1,0,1.7-0.4,2.3-1l0.7,0.6c-0.7,0.8-1.6,1.4-3,1.4C708.7,401.3,707.1,399.8,707.1,397.5z M712.9,397.1c-0.1-1.3-0.9-2.5-2.3-2.5
		c-1.3,0-2.2,1-2.4,2.5H712.9z"/>
	<path class="st0" d="M625.8,410.8h6.3v7.3H631v-6.3h-4.1v6.3h-1.1V410.8z"/>
	<path class="st0" d="M634,414.4c0-2.1,1.6-3.8,3.8-3.8c2.2,0,3.8,1.7,3.8,3.8c0,2.1-1.6,3.8-3.8,3.8
		C635.6,418.2,634,416.5,634,414.4z M640.5,414.4c0-1.6-1.2-2.8-2.7-2.8c-1.6,0-2.7,1.3-2.7,2.8s1.2,2.8,2.7,2.8
		C639.4,417.2,640.5,416,640.5,414.4z"/>
	<path class="st0" d="M643.6,410.8h1l2.7,3.8l2.7-3.8h1v7.3H650v-5.5l-2.7,3.7l-2.7-3.7v5.5h-1.1V410.8z"/>
	<path class="st0" d="M653.1,414.4c0-2.1,1.5-3.8,3.5-3.8c2.2,0,3.4,1.7,3.4,3.9c0,0.1,0,0.2,0,0.4h-5.8c0.2,1.5,1.3,2.4,2.6,2.4
		c1,0,1.7-0.4,2.3-1l0.7,0.6c-0.7,0.8-1.6,1.4-3,1.4C654.7,418.2,653.1,416.7,653.1,414.4z M658.9,414c-0.1-1.3-0.9-2.5-2.3-2.5
		c-1.3,0-2.2,1-2.4,2.5H658.9z"/>
	<path class="st0" d="M672.3,418h-10.4v-7.3h1.1v6.3h3.5v-6.3h1.1v6.3h3.5v-6.3h1.1v6.3h1.1l-0.2,2.8h-0.9V418z"/>
	<path class="st0" d="M674.4,414.4c0-2.1,1.5-3.8,3.5-3.8c2.2,0,3.4,1.7,3.4,3.9c0,0.1,0,0.2,0,0.4h-5.8c0.2,1.5,1.3,2.4,2.6,2.4
		c1,0,1.7-0.4,2.3-1l0.7,0.6c-0.7,0.8-1.6,1.4-3,1.4C676,418.2,674.4,416.7,674.4,414.4z M680.2,414c-0.1-1.3-0.9-2.5-2.3-2.5
		c-1.3,0-2.2,1-2.4,2.5H680.2z"/>
	<path class="st0" d="M683.2,410.8h1.1v3.1h4.2v-3.1h1.1v7.3h-1.1v-3.2h-4.2v3.2h-1.1V410.8z"/>
	<path class="st0" d="M692,410.8h1.1v5.8l4.3-5.8h1.1v7.3h-1.1v-5.8L693,418h-1V410.8z"/>
	<path class="st0" d="M700.4,414.4c0-2.1,1.5-3.8,3.5-3.8c2.2,0,3.4,1.7,3.4,3.9c0,0.1,0,0.2,0,0.4h-5.8c0.2,1.5,1.3,2.4,2.6,2.4
		c1,0,1.7-0.4,2.3-1l0.7,0.6c-0.7,0.8-1.6,1.4-3,1.4C702,418.2,700.4,416.7,700.4,414.4z M706.2,414c-0.1-1.3-0.9-2.5-2.3-2.5
		c-1.3,0-2.2,1-2.4,2.5H706.2z"/>
</g>
<g class="st1">
	<path class="st0" d="M813.3,394.8h-2.6v-1h6.3v1h-2.6v6.3h-1.1V394.8z"/>
	<path class="st0" d="M817.8,397.5c0-2.1,1.5-3.8,3.5-3.8c2.2,0,3.4,1.7,3.4,3.9c0,0.1,0,0.2,0,0.4h-5.8c0.2,1.5,1.3,2.4,2.6,2.4
		c1,0,1.7-0.4,2.3-1l0.7,0.6c-0.7,0.8-1.6,1.4-3,1.4C819.5,401.3,817.8,399.8,817.8,397.5z M823.6,397.1c-0.1-1.3-0.9-2.5-2.3-2.5
		c-1.3,0-2.2,1-2.4,2.5H823.6z"/>
	<path class="st0" d="M828.5,397.4l-2.7-3.6h1.2l2.2,2.8l2.2-2.8h1.2l-2.8,3.5l2.9,3.7h-1.3l-2.3-3l-2.3,3h-1.2L828.5,397.4z"/>
	<path class="st0" d="M834.4,393.9h1.1v3.1h4.2v-3.1h1.1v7.3h-1.1V398h-4.2v3.2h-1.1V393.9z"/>
	<path class="st0" d="M843.2,393.9h1.1v5.8l4.3-5.8h1.1v7.3h-1.1v-5.8l-4.3,5.8h-1V393.9z"/>
	<path class="st0" d="M856.7,398.1c-0.5,0.3-1.6,0.7-2.4,0.7c-1.4,0-2.4-0.7-2.4-2.2v-2.8h1.1v2.6c0,0.9,0.5,1.4,1.5,1.4
		c0.8,0,1.7-0.3,2.3-0.7v-3.3h1.1v7.3h-1.1V398.1z"/>
	<path class="st0" d="M859.8,397.5c0-2.1,1.5-3.8,3.5-3.8c2.2,0,3.4,1.7,3.4,3.9c0,0.1,0,0.2,0,0.4h-5.8c0.2,1.5,1.3,2.4,2.6,2.4
		c1,0,1.7-0.4,2.3-1l0.7,0.6c-0.7,0.8-1.6,1.4-3,1.4C861.4,401.3,859.8,399.8,859.8,397.5z M865.6,397.1c-0.1-1.3-0.9-2.5-2.3-2.5
		c-1.3,0-2.2,1-2.4,2.5H865.6z"/>
	<path class="st0" d="M868.1,397.5c0-2.1,1.6-3.8,3.7-3.8c1.4,0,2.2,0.6,2.9,1.3l-0.7,0.7c-0.6-0.6-1.3-1.1-2.2-1.1
		c-1.5,0-2.6,1.3-2.6,2.8c0,1.6,1.2,2.8,2.7,2.8c0.9,0,1.6-0.5,2.2-1.1l0.7,0.7c-0.7,0.8-1.6,1.4-3,1.4
		C869.7,401.3,868.1,399.6,868.1,397.5z"/>
	<path class="st0" d="M876.6,393.9h1.1v4.2l4-4.2h1.3l-3,3.2l3.1,4.1h-1.3l-2.6-3.3l-1.5,1.6v1.8h-1.1V393.9z"/>
	<path class="st0" d="M883.7,397.5c0-2.1,1.6-3.8,3.8-3.8c2.2,0,3.8,1.7,3.8,3.8c0,2.1-1.6,3.8-3.8,3.8
		C885.3,401.3,883.7,399.6,883.7,397.5z M890.2,397.5c0-1.6-1.2-2.8-2.7-2.8c-1.6,0-2.7,1.3-2.7,2.8s1.2,2.8,2.7,2.8
		C889.1,400.3,890.2,399.1,890.2,397.5z"/>
	<path class="st0" d="M892.8,397.5c0-2.1,1.5-3.8,3.5-3.8c2.2,0,3.4,1.7,3.4,3.9c0,0.1,0,0.2,0,0.4h-5.8c0.2,1.5,1.3,2.4,2.6,2.4
		c1,0,1.7-0.4,2.3-1l0.7,0.6c-0.7,0.8-1.6,1.4-3,1.4C894.5,401.3,892.8,399.8,892.8,397.5z M898.6,397.1c-0.1-1.3-0.9-2.5-2.3-2.5
		c-1.3,0-2.2,1-2.4,2.5H898.6z"/>
	<path class="st0" d="M811.5,410.8h6.3v7.3h-1.1v-6.3h-4.1v6.3h-1.1V410.8z"/>
	<path class="st0" d="M819.8,414.4c0-2.1,1.6-3.8,3.8-3.8c2.2,0,3.8,1.7,3.8,3.8c0,2.1-1.6,3.8-3.8,3.8
		C821.4,418.2,819.8,416.5,819.8,414.4z M826.3,414.4c0-1.6-1.2-2.8-2.7-2.8c-1.6,0-2.7,1.3-2.7,2.8s1.2,2.8,2.7,2.8
		C825.2,417.2,826.3,416,826.3,414.4z"/>
	<path class="st0" d="M829.3,410.8h1l2.7,3.8l2.7-3.8h1v7.3h-1.1v-5.5l-2.7,3.7l-2.7-3.7v5.5h-1.1V410.8z"/>
	<path class="st0" d="M838.8,414.4c0-2.1,1.5-3.8,3.5-3.8c2.2,0,3.4,1.7,3.4,3.9c0,0.1,0,0.2,0,0.4h-5.8c0.2,1.5,1.3,2.4,2.6,2.4
		c1,0,1.7-0.4,2.3-1l0.7,0.6c-0.7,0.8-1.6,1.4-3,1.4C840.5,418.2,838.8,416.7,838.8,414.4z M844.6,414c-0.1-1.3-0.9-2.5-2.3-2.5
		c-1.3,0-2.2,1-2.4,2.5H844.6z"/>
	<path class="st0" d="M858,418h-10.4v-7.3h1.1v6.3h3.5v-6.3h1.1v6.3h3.5v-6.3h1.1v6.3h1.1l-0.2,2.8H858V418z"/>
	<path class="st0" d="M860.1,414.4c0-2.1,1.5-3.8,3.5-3.8c2.2,0,3.4,1.7,3.4,3.9c0,0.1,0,0.2,0,0.4h-5.8c0.2,1.5,1.3,2.4,2.6,2.4
		c1,0,1.7-0.4,2.3-1l0.7,0.6c-0.7,0.8-1.6,1.4-3,1.4C861.8,418.2,860.1,416.7,860.1,414.4z M865.9,414c-0.1-1.3-0.9-2.5-2.3-2.5
		c-1.3,0-2.2,1-2.4,2.5H865.9z"/>
	<path class="st0" d="M868.9,410.8h1.1v3.1h4.2v-3.1h1.1v7.3h-1.1v-3.2H870v3.2h-1.1V410.8z"/>
	<path class="st0" d="M877.7,410.8h1.1v5.8l4.3-5.8h1.1v7.3h-1.1v-5.8l-4.3,5.8h-1V410.8z"/>
	<path class="st0" d="M886.2,414.4c0-2.1,1.5-3.8,3.5-3.8c2.2,0,3.4,1.7,3.4,3.9c0,0.1,0,0.2,0,0.4h-5.8c0.2,1.5,1.3,2.4,2.6,2.4
		c1,0,1.7-0.4,2.3-1l0.7,0.6c-0.7,0.8-1.6,1.4-3,1.4C887.8,418.2,886.2,416.7,886.2,414.4z M891.9,414c-0.1-1.3-0.9-2.5-2.3-2.5
		c-1.3,0-2.2,1-2.4,2.5H891.9z"/>
</g>
</svg>
