<?xml version="1.0" encoding="utf-8"?>
<!-- Generator: Adobe Illustrator 19.0.0, SVG Export Plug-In . SVG Version: 6.00 Build 0)  -->
<svg version="1.1" id="_x31__commercial" xmlns="http://www.w3.org/2000/svg" xmlns:xlink="http://www.w3.org/1999/xlink" x="0px"
	 y="0px" viewBox="286 -287.7 753 752.7" style="enable-background:new 286 -287.7 753 752.7;" xml:space="preserve">
<style type="text/css">
	.st0{fill:#FFFFFF;}
	.st1{enable-background:new    ;}
</style>
<symbol  id="Doors_11_" viewBox="-8 -7.9 16.1 15.8">
	<path id="XMLID_2_" class="st0" d="M8-7.9H7.8C-1-7.9-8-0.8-8,7.9l0,0h0.5c0-8.4,6.7-15.2,15.1-15.3V7.9h0.5L8-7.9L8-7.9L8-7.9z"/>
</symbol>
<symbol  id="stairs_1_lvl_commercial" viewBox="-44.5 -42.2 88.9 84.4">
	<polygon id="XMLID_129_" class="st0" points="-33.4,-32.5 -10.8,-10.4 -11.7,-10.4 -34.5,-32.5 	"/>
	<polygon id="XMLID_128_" class="st0" points="4,-10.4 26.5,-32.5 25.6,-32.5 2.9,-10.4 	"/>
	<g id="stairs_5_">
		<polygon id="XMLID_127_" class="st0" points="-33.3,40.6 -11.7,40.6 -11.7,40.1 -33.3,40.1 		"/>
		<polygon id="XMLID_126_" class="st0" points="-33.3,34.8 -11.7,34.8 -11.7,34.3 -33.3,34.3 		"/>
		<polygon id="XMLID_125_" class="st0" points="-33.3,30.3 -11.7,30.3 -11.7,29.8 -33.3,29.8 		"/>
		<polygon id="XMLID_124_" class="st0" points="-33.3,25.8 -11.7,25.8 -11.7,25.3 -33.3,25.3 		"/>
		<polygon id="XMLID_123_" class="st0" points="-33.3,21.4 -11.7,21.4 -11.7,20.9 -33.3,20.9 		"/>
		<polygon id="XMLID_122_" class="st0" points="-33.3,16.9 -11.7,16.9 -11.7,16.4 -33.3,16.4 		"/>
		<polygon id="XMLID_121_" class="st0" points="-33.3,12.5 -11.7,12.5 -11.7,12 -33.3,12 		"/>
		<polygon id="XMLID_120_" class="st0" points="-33.3,8 -11.7,8 -11.7,7.5 -33.3,7.5 		"/>
		<polygon id="XMLID_119_" class="st0" points="-33.3,3.5 -11.7,3.5 -11.7,3 -33.3,3 		"/>
		<polygon id="XMLID_118_" class="st0" points="-33.3,-0.9 -11.7,-0.9 -11.7,-1.4 -33.3,-1.4 		"/>
		<polygon id="XMLID_117_" class="st0" points="-33.3,-5.4 -11.7,-5.4 -11.7,-5.9 -33.3,-5.9 		"/>
		<polygon id="XMLID_116_" class="st0" points="-33.3,-9.9 -11.7,-9.9 -11.7,-10.4 -33.3,-10.4 		"/>
		<polygon id="XMLID_115_" class="st0" points="4,-9.9 18.3,-9.9 18.3,-10.4 4,-10.4 		"/>
		<polygon id="XMLID_114_" class="st0" points="4,-4.9 16.5,-4.9 16.5,-5.4 4,-5.4 		"/>
		<polygon id="XMLID_113_" class="st0" points="4,0.1 11.5,0.1 11.5,-0.4 4,-0.4 		"/>
		<polygon id="XMLID_112_" class="st0" points="-10.4,-10.4 -10.4,-31.1 -10.9,-31.1 -10.9,-10.4 		"/>
		<polygon id="XMLID_111_" class="st0" points="-5.6,-10.4 -5.6,-31.1 -6.1,-31.1 -6.1,-10.4 		"/>
		<polygon id="XMLID_110_" class="st0" points="-0.9,-10.4 -0.9,-31.1 -1.4,-31.1 -1.4,-10.4 		"/>
		<polygon id="XMLID_109_" class="st0" points="3.8,-10.4 3.8,-31.1 3.3,-31.1 3.3,-10.4 		"/>
		<polygon id="XMLID_108_" class="st0" points="2.8,8.8 27.6,-16 27.3,-16.3 2.5,8.5 		"/>
		<polygon id="XMLID_107_" class="st0" points="1.3,7.3 27.2,-18.5 26.8,-18.9 1,7 		"/>
		<polygon id="XMLID_106_" class="st0" points="-33.3,19.4 -33.3,-18.2 -33.8,-18.2 -33.8,19.4 		"/>
		<polygon id="XMLID_105_" class="st0" points="-33.3,40.6 -33.3,38.5 -33.8,38.5 -33.8,40.6 		"/>
		<polygon id="XMLID_104_" class="st0" points="-10.4,-10.4 -11.7,-10.4 -11.7,40.6 -10.4,40.6 		"/>
		<polygon id="XMLID_103_" class="st0" points="-10.4,-10.4 -10.4,-9 3.8,-9 3.8,-10.4 		"/>
		<polygon id="XMLID_102_" class="st0" points="2.7,7.5 4,7.5 4,-10.4 2.7,-10.4 		"/>
		<polygon id="XMLID_101_" class="st0" points="26.7,-31.5 25.4,-31.5 25.4,18.5 26.7,18.5 		"/>
		<polygon id="XMLID_100_" class="st0" points="14.5,-21 14,-21 14,-9.3 14.5,-9.3 		"/>
		<polygon id="XMLID_99_" class="st0" points="-22.8,-21 -22.8,-20.5 14.5,-20.5 14.5,-21 		"/>
		<polygon id="XMLID_98_" class="st0" points="-22.8,38.8 -22.3,38.8 -22.3,-21 -22.8,-21 		"/>
		<polygon id="XMLID_97_" class="st0" points="15.8,-9.3 14.3,-6.8 12.8,-9.3 		"/>
		<path id="XMLID_96_" class="st0" d="M-22.5,42.2c1.1,0,2.1-0.9,2.1-2.1s-0.9-2.1-2.1-2.1s-2.1,0.9-2.1,2.1S-23.7,42.2-22.5,42.2z"
			/>
		<polygon id="XMLID_7_" class="st0" points="-33.3,19.4 -44.5,19.4 -44.5,38.5 -33.3,38.5 		"/>
		<polygon id="XMLID_6_" class="st0" points="25.4,18.5 25.4,29.7 44.5,29.7 44.5,18.5 		"/>
		<polygon id="XMLID_5_" class="st0" points="-33.3,-42.2 -44.5,-42.2 -44.5,-18.2 -33.3,-18.2 		"/>
		<polygon id="XMLID_4_" class="st0" points="-40.7,-42.2 -40.7,-31.1 44.5,-31.1 44.5,-42.2 		"/>
	</g>
</symbol>
<rect id="XMLID_272_" x="475.4" y="-253.2" transform="matrix(-0.7076 0.7066 -0.7066 -0.7076 682.8301 -788.1494)" class="st0" width="58.2" height="0.7"/>
<rect id="XMLID_271_" x="472" y="-256.8" transform="matrix(-0.7082 0.706 -0.706 -0.7082 674.8212 -791.8044)" class="st0" width="58" height="0.7"/>
<path id="XMLID_270_" class="st0" d="M655.2-281.3v1"/>
<path id="XMLID_269_" class="st0" d="M655.2-288.3v1"/>
<path id="XMLID_268_" class="st0" d="M294.3,94.4l-1.1,0"/>
<path id="XMLID_267_" class="st0" d="M286.8,94.7l-1-0.1"/>
<rect id="XMLID_266_" x="553.5" y="-283" class="st0" width="165.8" height="1"/>
<rect id="XMLID_265_" x="553.5" y="-287.8" class="st0" width="165.8" height="1"/>
<polygon id="XMLID_264_" class="st0" points="531.9,-287.8 531.6,-287.4 531.6,-287.8 "/>
<polygon id="XMLID_263_" class="st0" points="553.5,-287.8 553.5,-282 547.1,-282 547.1,-276.5 528.8,-276.5 525.3,-273.1 
	521.3,-277.2 531.6,-287.4 531.9,-287.8 "/>
<rect id="XMLID_262_" x="291.6" y="-69.1" transform="matrix(0.7066 -0.7076 0.7076 0.7066 142.7158 206.8124)" class="st0" width="58.2" height="0.7"/>
<rect id="XMLID_261_" x="288.1" y="-72.5" transform="matrix(0.706 -0.7082 0.7082 0.706 144.2985 203.3655)" class="st0" width="58" height="0.7"/>
<polygon id="XMLID_260_" class="st0" points="285.8,-19.7 291.5,-19.7 291.5,-26 297,-26 297,-44.4 300.5,-47.8 296.4,-51.9 
	286.1,-41.6 285.8,-41.2 "/>
<polygon id="XMLID_259_" class="st0" points="478.9,-181.6 478.9,-158.1 468.6,-158.1 468.6,-171 454.2,-171 454.2,-174.1 
	417,-174.1 417,-171 402.6,-171 402.6,-158.1 392.4,-158.1 392.4,-181.6 "/>
<rect id="XMLID_258_" x="392.4" y="-181.6" class="st0" width="10.2" height="0"/>
<rect id="XMLID_257_" x="392.4" y="-181.6" class="st0" width="0" height="7.5"/>
<rect id="XMLID_256_" x="392.4" y="-121.2" class="st0" width="11.9" height="20.3"/>
<rect id="XMLID_255_" x="462.4" y="-121.2" class="st0" width="20.3" height="11.9"/>
<rect id="XMLID_254_" x="843.9" y="-121.2" class="st0" width="20.3" height="11.9"/>
<polygon id="XMLID_253_" class="st0" points="481.3,-41.5 481.3,-27.7 419.5,-27.7 419.5,-25.1 403.3,-25.1 403.3,-5.9 392.8,-5.9 
	392.8,-25.1 353.2,-25.1 353.2,-41.5 "/>
<rect id="XMLID_252_" x="285.8" y="-19.7" class="st0" width="1" height="98.7"/>
<rect id="XMLID_251_" x="290.5" y="-19.7" class="st0" width="1" height="98.7"/>
<rect id="XMLID_250_" x="285.8" y="97.5" class="st0" width="1" height="35.3"/>
<rect id="XMLID_249_" x="290.5" y="97.5" class="st0" width="1" height="35"/>
<g id="XMLID_237_">
	<path id="XMLID_246_" class="st0" d="M589.7,131.6h-4.5v17.5h4.5V131.6z M589.4,148.7h-3.8V132h3.8V148.7z"/>
	<polygon id="XMLID_245_" class="st0" points="629.5,122.9 609.7,141.1 589.9,123 589.6,123.3 609.4,141.4 589.6,159.5 589.9,159.8 
		609.7,141.6 629.5,159.8 629.7,159.6 609.9,141.4 629.8,123.2 	"/>
	<path id="XMLID_242_" class="st0" d="M569.4,48.3h-3.2v39h3.2l0,0V48.3z M569.1,87h-2.5l0,0V48.7h2.5V87z"/>
	<path id="XMLID_241_" class="st0" d="M547,137.3v-14.2h-0.4v14.6h0.2c8,0,14.5-6.5,14.5-14.6H561C561,130.9,554.8,137.2,547,137.3z
		"/>
	<path id="XMLID_240_" class="st0" d="M600,100.7h-15v0.2c0,8.3,6.7,15,15,15v-0.4c-8,0-14.5-6.5-14.6-14.5H600V100.7z"/>
	<path id="XMLID_239_" class="st0" d="M629.6,101.2H615v0.2c0,8.1,6.6,14.6,14.6,14.6v-0.3c-7.8,0-14.1-6.3-14.2-14.1h14.2V101.2z"
		/>
	<rect id="XMLID_238_" x="690.3" y="153.2" class="st0" width="5.9" height="6.8"/>
</g>
<g id="XMLID_180_">
	<path id="XMLID_233_" class="st0" d="M690.3,95.7v15h5.9v-15H690.3z M690.8,96h4.9v14.4h-4.9V96z"/>
	<path id="XMLID_229_" class="st0" d="M690.3,138.2v15h5.9v-15H690.3z M690.8,138.6h4.9v14.4h-4.9V138.6z"/>
	<path id="XMLID_225_" class="st0" d="M690.3,23.7v15.4h5.9V23.7H690.3z M690.7,24.1h5.2v14.6h-5.2V24.1z"/>
	
		<rect id="XMLID_224_" x="709.9" y="84.1" transform="matrix(0.7059 0.7083 -0.7083 0.7059 282.2916 -472.4383)" class="st0" width="0.4" height="39.2"/>
	
		<rect id="XMLID_223_" x="690.5" y="103.5" transform="matrix(0.7059 0.7083 -0.7083 0.7059 282.2879 -472.4398)" class="st0" width="39.2" height="0.4"/>
	<polygon id="XMLID_222_" class="st0" points="724,131.3 723.8,131 696.1,159.8 696.4,160 	"/>
	<polygon id="XMLID_221_" class="st0" points="724,159.8 696.4,131 696.1,131.3 723.8,160 	"/>
	<polygon id="XMLID_220_" class="st0" points="736.4,16.3 736.1,16 696.2,54.4 696.5,54.7 	"/>
	<polygon id="XMLID_219_" class="st0" points="736.4,54.4 696.5,16 696.2,16.3 736.1,54.6 	"/>
	<path id="XMLID_215_" class="st0" d="M761.4,129.9V86.7h-6.7v43.3H761.4z M755.1,87h6v42.5h-6V87z"/>
	<path id="XMLID_211_" class="st0" d="M756.5,88.8v39h3.2v-39L756.5,88.8L756.5,88.8z M756.8,89.1h2.5l0,0v38.3h-2.5V89.1z"/>
	<rect id="XMLID_210_" x="761.2" y="127.4" class="st0" width="21.4" height="0.4"/>
	<rect id="XMLID_209_" x="761.2" y="122.9" class="st0" width="21.4" height="0.4"/>
	<rect id="XMLID_208_" x="761.2" y="118.3" class="st0" width="21.4" height="0.4"/>
	
		<rect id="XMLID_207_" x="761.2" y="113.8" transform="matrix(1 -3.852746e-003 3.852746e-003 1 -0.4335 2.9749)" class="st0" width="21.4" height="0.4"/>
	<rect id="XMLID_206_" x="761.2" y="109.3" class="st0" width="21.4" height="0.4"/>
	<rect id="XMLID_205_" x="761.2" y="104.8" class="st0" width="21.4" height="0.4"/>
	<rect id="XMLID_204_" x="761.2" y="100.2" class="st0" width="21.4" height="0.4"/>
	<rect id="XMLID_203_" x="761.2" y="95.7" class="st0" width="21.4" height="0.4"/>
	<rect id="XMLID_202_" x="761.2" y="91.2" class="st0" width="21.4" height="0.4"/>
	<rect id="XMLID_201_" x="761.2" y="86.7" class="st0" width="21.4" height="0.4"/>
	<rect id="XMLID_200_" x="733.5" y="127.4" class="st0" width="21.4" height="0.4"/>
	<rect id="XMLID_199_" x="733.5" y="122.9" class="st0" width="21.4" height="0.4"/>
	<rect id="XMLID_198_" x="733.5" y="118.3" class="st0" width="21.4" height="0.4"/>
	
		<rect id="XMLID_197_" x="733.5" y="113.8" transform="matrix(1 -3.852746e-003 3.852746e-003 1 -0.4337 2.8681)" class="st0" width="21.4" height="0.4"/>
	<rect id="XMLID_196_" x="733.5" y="109.3" class="st0" width="21.4" height="0.4"/>
	<rect id="XMLID_195_" x="733.5" y="104.8" class="st0" width="21.4" height="0.4"/>
	<rect id="XMLID_194_" x="733.5" y="100.2" class="st0" width="21.4" height="0.4"/>
	<rect id="XMLID_193_" x="733.5" y="95.7" class="st0" width="21.4" height="0.4"/>
	<rect id="XMLID_192_" x="733.5" y="91.2" class="st0" width="21.4" height="0.4"/>
	<rect id="XMLID_191_" x="733.5" y="86.7" class="st0" width="21.4" height="0.4"/>
	<polygon id="XMLID_190_" class="st0" points="771.2,87.9 771.6,87.9 771.6,139.3 744.2,139.3 744.2,88.4 744.6,88.4 744.6,138.9 
		771.2,138.9 	"/>
	<polygon id="XMLID_189_" class="st0" points="745.5,88.8 744.4,86.8 743.3,88.8 	"/>
	
		<rect id="XMLID_188_" x="733.7" y="120.7" transform="matrix(0.9624 -0.2716 0.2716 0.9624 -4.8359 206.8544)" class="st0" width="22.5" height="0.4"/>
	
		<rect id="XMLID_187_" x="732.8" y="119.1" transform="matrix(0.9649 -0.2627 0.2627 0.9649 -5.1999 199.6339)" class="st0" width="22.5" height="0.4"/>
	<ellipse id="XMLID_186_" class="st0" cx="771.4" cy="86.8" rx="1.5" ry="1.5"/>
	<rect id="XMLID_185_" x="744.2" y="122.2" class="st0" width="0.4" height="4.6"/>
	<polygon id="XMLID_184_" class="st0" points="745.5,122.5 744.4,120.6 743.3,122.5 	"/>
	<path id="XMLID_183_" class="st0" d="M777.4,44.8v9.8h-0.3v-9.6c-5.7,0.1-10.3,4.3-10.3,9.6h-0.3c0-5.4,4.8-9.8,10.7-9.8
		L777.4,44.8L777.4,44.8z"/>
	<path id="XMLID_182_" class="st0" d="M741,77h-15v-0.4h14.6c-0.1-8-6.6-14.5-14.6-14.5v-0.4c8.3,0,15,6.7,15,15V77L741,77z"/>
	<path id="XMLID_181_" class="st0" d="M711,76.5h-14.6v-0.4h14.2c-0.1-7.8-6.4-14.1-14.2-14.1v-0.3c8,0,14.6,6.5,14.6,14.6V76.5z"/>
</g>
<rect id="XMLID_179_" x="468" y="13.2" class="st0" width="13.3" height="13.1"/>
<rect id="XMLID_178_" x="459.3" y="150" class="st0" width="13.3" height="13.1"/>
<rect id="XMLID_177_" x="285.8" y="79" class="st0" width="16.6" height="18.4"/>
<rect id="XMLID_176_" x="1022.7" y="79" class="st0" width="16.6" height="18.4"/>
<g id="XMLID_164_">
	
		<rect id="XMLID_175_" x="291.6" y="244" transform="matrix(0.7066 0.7076 -0.7076 0.7066 267.0496 -155.2565)" class="st0" width="58.2" height="0.7"/>
	
		<rect id="XMLID_174_" x="288.1" y="247.4" transform="matrix(0.706 0.7082 -0.7082 0.706 268.732 -151.7096)" class="st0" width="58" height="0.7"/>
	<polyline id="XMLID_173_" class="st0" points="290.5,132.2 290.5,195.4 291.5,195.4 291.5,132.2 	"/>
	<polyline id="XMLID_172_" class="st0" points="285.8,132.2 285.8,195.4 286.8,195.4 286.8,132.2 	"/>
	<polygon id="XMLID_171_" class="st0" points="285.8,216.9 286.1,217.3 285.8,217.3 	"/>
	<polygon id="XMLID_170_" class="st0" points="285.8,195.4 291.5,195.4 291.5,201.7 297,201.7 297,220.1 300.5,223.5 296.4,227.6 
		286.1,217.3 285.8,216.9 	"/>
	
		<rect id="XMLID_169_" x="475.7" y="427.8" transform="matrix(-0.7076 -0.7066 0.7066 -0.7076 559.6205 1087.7966)" class="st0" width="58.2" height="0.7"/>
	
		<rect id="XMLID_168_" x="472.4" y="431.4" transform="matrix(-0.7082 -0.706 0.706 -0.7082 551.7116 1091.5508)" class="st0" width="58" height="0.7"/>
	<polygon id="XMLID_167_" class="st0" points="553.8,463.1 553.8,457.3 547.5,457.3 547.5,451.8 529.2,451.8 525.7,448.4 
		521.7,452.5 531.9,462.7 532.3,463.1 	"/>
	<rect id="XMLID_166_" x="553.8" y="462.1" class="st0" width="98.7" height="1"/>
	<rect id="XMLID_165_" x="553.8" y="457.3" class="st0" width="98.7" height="1"/>
</g>
<g id="XMLID_152_">
	
		<rect id="XMLID_163_" x="975.2" y="244" transform="matrix(-0.7066 0.7076 -0.7076 -0.7066 1886.8033 -293.6041)" class="st0" width="58.2" height="0.7"/>
	
		<rect id="XMLID_162_" x="978.9" y="247.4" transform="matrix(-0.706 0.7082 -0.7082 -0.706 1895.0184 -291.0337)" class="st0" width="58" height="0.7"/>
	<polyline id="XMLID_161_" class="st0" points="1034.5,97.5 1034.5,195.4 1033.5,195.4 1033.5,97.5 	"/>
	<polyline id="XMLID_160_" class="st0" points="1039.2,97.5 1039.2,195.4 1038.2,195.4 1038.2,97.5 	"/>
	<polygon id="XMLID_159_" class="st0" points="1039.2,216.9 1038.9,217.3 1039.2,217.3 	"/>
	<polygon id="XMLID_158_" class="st0" points="1039.2,195.4 1033.5,195.4 1033.5,201.7 1028,201.7 1028,220.1 1024.6,223.5 
		1028.6,227.6 1038.9,217.3 1039.2,216.9 	"/>
	
		<rect id="XMLID_157_" x="791" y="427.8" transform="matrix(0.7076 -0.7066 0.7066 0.7076 -62.7198 704.6608)" class="st0" width="58.2" height="0.7"/>
	
		<rect id="XMLID_156_" x="794.6" y="431.4" transform="matrix(0.7082 -0.706 0.706 0.7082 -64.5116 707.4392)" class="st0" width="58" height="0.7"/>
	<polygon id="XMLID_155_" class="st0" points="771.2,463.1 771.2,457.3 777.5,457.3 777.5,451.8 795.8,451.8 799.3,448.4 
		803.3,452.5 793.1,462.7 792.7,463.1 	"/>
	<rect id="XMLID_154_" x="672.4" y="462.1" class="st0" width="98.7" height="1"/>
	<rect id="XMLID_153_" x="672.4" y="457.3" class="st0" width="98.7" height="1"/>
</g>
<g id="XMLID_140_">
	
		<rect id="XMLID_151_" x="975" y="-69.1" transform="matrix(-0.7066 -0.7076 0.7076 -0.7066 1763.0538 593.6698)" class="st0" width="59.2" height="0.7"/>
	
		<rect id="XMLID_150_" x="978.7" y="-72.5" transform="matrix(-0.706 -0.7082 0.7082 -0.706 1771.2368 590.97)" class="st0" width="59.1" height="0.7"/>
	<polyline id="XMLID_149_" class="st0" points="1034.5,79 1034.5,-20.1 1033.5,-20.1 1033.5,79 	"/>
	<polyline id="XMLID_148_" class="st0" points="1039.2,79 1039.2,-20.1 1038.2,-20.1 1038.2,79 	"/>
	<polygon id="XMLID_147_" class="st0" points="1039.2,-41.6 1038.9,-42 1039.2,-42 	"/>
	<polygon id="XMLID_146_" class="st0" points="1039.2,-20.1 1033.5,-20.1 1033.5,-26.4 1028,-26.4 1028,-44.8 1024.6,-48.2 
		1028.6,-52.3 1038.9,-42 1039.2,-41.6 	"/>
	
		<rect id="XMLID_145_" x="791" y="-253.2" transform="matrix(0.7076 0.7066 -0.7066 0.7076 61.1523 -653.406)" class="st0" width="58.2" height="0.7"/>
	
		<rect id="XMLID_144_" x="794.6" y="-256.8" transform="matrix(0.7082 0.706 -0.706 0.7082 59.2608 -656.284)" class="st0" width="58" height="0.7"/>
	<polygon id="XMLID_143_" class="st0" points="771.2,-287.8 771.2,-282 777.5,-282 777.5,-276.5 795.8,-276.5 799.3,-273.1 
		803.3,-277.2 793.1,-287.4 792.7,-287.8 	"/>
	<rect id="XMLID_142_" x="719.2" y="-287.8" class="st0" width="51.9" height="1"/>
	<rect id="XMLID_141_" x="719.2" y="-283" class="st0" width="51.9" height="1"/>
</g>
<rect id="XMLID_139_" x="1039" y="88.6" class="st0" width="0.2" height="0.9"/>
<rect id="XMLID_138_" x="717.7" y="-287.8" class="st0" width="19.8" height="11.9"/>
<polygon id="XMLID_137_" class="st0" points="423.2,202.8 423.2,199.6 405,199.6 405,180.8 393.5,180.8 393.5,199.6 352.5,199.6 
	352.5,216.9 423.2,216.9 485,216.9 485,202.8 "/>
<rect id="XMLID_136_" x="904.9" y="108" class="st0" width="25.9" height="2.4"/>
<rect id="XMLID_135_" x="903.9" y="105.7" class="st0" width="2.4" height="10.3"/>
<rect id="XMLID_134_" x="903.9" y="122.5" class="st0" width="2.4" height="12.9"/>
<rect id="XMLID_133_" x="904.9" y="129" class="st0" width="25.9" height="2.4"/>
<polygon id="XMLID_132_" class="st0" points="664.3,170.7 662,170.7 662,204.5 639.4,204.5 639.4,206.7 644.2,206.7 644.2,252.4 
	655.7,252.4 655.7,336.7 654.5,336.7 654.5,400.3 661.3,400.3 661.3,451.5 652.6,451.5 652.6,463.8 672.4,463.8 672.4,451.5 
	663.7,451.5 663.7,400.3 670.5,400.3 670.5,336.7 669.3,336.7 669.3,252.4 680.8,252.4 680.8,206.9 686.2,206.9 686.2,204.5 
	664.3,204.5 "/>
<rect id="XMLID_131_" x="836.9" y="7.7" class="st0" width="14.1" height="16.8"/>
<use xlink:href="#stairs_1_lvl_commercial"  width="88.9" height="84.4" id="XMLID_130_" x="-44.5" y="-42.2" transform="matrix(1 0 0 -1 437.1414 314.7358)" style="overflow:visible;"/>
<use xlink:href="#stairs_1_lvl_commercial"  width="88.9" height="84.4" id="XMLID_95_" x="-44.5" y="-42.2" transform="matrix(-1 0 0 -1 887.8683 314.7358)" style="overflow:visible;"/>
<g id="Doors_10_">
	<path id="XMLID_25_" class="st0" d="M550.7,0.2V0c0-4.9-5-8.9-11.1-8.9l0,0v0.3c5.9,0,10.6,3.8,10.7,8.5l-10.7,0v0.3L550.7,0.2
		L550.7,0.2L550.7,0.2z"/>
</g>
<g id="Doors_9_">
	<path id="XMLID_24_" class="st0" d="M555,195.1v-0.2c0-8.2-6.9-14.8-15.4-14.8l0,0v0.5c8.1,0,14.8,6.3,14.9,14.1h-14.9v0.5
		L555,195.1L555,195.1L555,195.1z"/>
</g>
<g id="Doors_8_">
	<path id="XMLID_23_" class="st0" d="M771.3,180.1v0.2c0,8.2,6.9,14.8,15.4,14.8l0,0v-0.5c-8.1,0-14.8-6.3-14.9-14.1h14.9v-0.5
		L771.3,180.1L771.3,180.1L771.3,180.1z"/>
</g>
<use xlink:href="#Doors_11_"  width="16.1" height="15.8" id="XMLID_91_" x="-8" y="-7.9" transform="matrix(-0.8589 0 0 0.8475 632.8777 197.7928)" style="overflow:visible;"/>
<g id="Doors_7_">
	<path id="XMLID_22_" class="st0" d="M700.2,191.1H700c-7.9,0-14.2,6-14.2,13.4l0,0h0.4c0-7.1,6-12.9,13.6-13v13h0.4L700.2,191.1
		L700.2,191.1L700.2,191.1z"/>
</g>
<polygon id="XMLID_89_" class="st0" points="572.1,204.3 548.2,204.3 546.4,204.3 539.6,204.3 539.6,194.7 537.3,194.7 537.3,204.5 
	537.3,204.5 537.3,213 526.7,213 526.7,233.2 537.3,233.2 537.3,379.3 548.2,379.3 548.2,356.2 568.9,356.2 568.9,346.9 
	548.2,346.9 548.2,225.8 572.1,225.8 572.1,206.7 626.5,206.7 626.5,204.3 "/>
<polygon id="XMLID_88_" class="st0" points="799.7,213.2 789,213.2 789,204.5 789,194.7 786.7,194.7 786.7,204.5 780,204.5 
	778.2,204.5 754.2,204.5 699.8,204.5 699.8,206.9 754.2,206.9 754.2,226 778.2,226 778.2,347.1 757.5,347.1 757.5,356.4 
	778.2,356.4 778.2,379.5 789,379.5 789,233.4 799.7,233.4 "/>
<polygon id="XMLID_87_" class="st0" points="934.2,-41.5 934.2,-101 934.2,-101.1 934.2,-121.2 934.2,-158.1 934.2,-181.6 
	847.8,-181.6 847.8,-171 872.4,-171 872.4,-174.1 909.6,-174.1 909.6,-171 924,-171 924,-158.1 931.8,-158.1 931.8,-121.2 
	922.3,-121.2 922.3,-101 931.8,-101 931.8,-41.5 844.4,-41.5 844.4,-27.7 906.1,-27.7 906.1,-25.1 922.3,-25.1 922.3,-5.9 
	932.8,-5.9 932.8,-25.1 972.4,-25.1 972.4,-41.5 "/>
<polygon id="XMLID_86_" class="st0" points="418.8,81.5 418.8,79 353.7,79 353.7,97.5 418.8,97.5 418.8,95 481.3,95 481.3,89.5 
	481.3,81.5 "/>
<polygon id="XMLID_85_" class="st0" points="799.4,-57.8 788.8,-57.8 788.8,-203.3 777.9,-203.3 777.9,-180.4 756.2,-180.4 
	756.2,-171.1 777.9,-171.1 777.9,-49.8 754,-49.8 754,-41 680.2,-41 680.2,-72.1 669.2,-72.1 669.2,-156.3 670.4,-156.3 
	670.4,-224.3 663.6,-224.3 663.6,-275.5 672.4,-275.5 672.4,-287.8 652.5,-287.8 652.5,-275.5 661.3,-275.5 661.3,-224.3 
	654.4,-224.3 654.4,-156.3 655.7,-156.3 655.7,-72.1 643.6,-72.1 643.6,-41 572.1,-41 572.1,-50 548.1,-50 548.1,-171.1 
	568.8,-171.1 568.8,-180.4 548.1,-180.4 548.1,-203.5 537.2,-203.5 537.2,-58 526.6,-58 526.6,-37.7 537.2,-37.7 537.2,-28.5 
	537.3,-28.5 537.3,-8.5 539.6,-8.5 539.6,-28.5 546.3,-28.5 548.1,-28.5 572.1,-28.5 572.1,-38.7 643.6,-38.7 655.5,-38.7 
	655.5,-30 660.7,-30 660.7,5.2 663.1,5.2 663.1,-30 668.3,-30 668.3,-38.7 677.7,-38.7 680.2,-38.7 754,-38.7 754,-28.3 
	777.9,-28.3 779.7,-28.3 786.4,-28.3 786.4,-17.7 788.8,-17.7 788.8,-28.3 788.8,-37.2 799.4,-37.2 "/>
<path id="XMLID_29_" class="st0" d="M794.3,81.5l0-19.4h0V46.9v-2.1V16.3v-3.9V3.1h-5.4v-11h-2.4v11h-30.3v-9h-48v9h-30h-2.6H618v-9
	h-48v9h-30.3v-3.2h-2.4v3.2h-2.7l0.1,59.4l0,19h-13.1v8h0V95h13.2l0,6.1h0l0,69.7h2.6v9.8h2.4v-9.8h31.6V184h47.5v-13.2H707V184
	h47.5v-13.1h2.5v0h29.6v9.8h2.4v-9.8h5.2l0-75.9h9.2v-8v-5.5H794.3z M630.2,23.7h5.2v15.4h-5.2V23.7z M630.2,67h5.2v14.6h-5.2V67z
	 M616.2,73.7l13.6-13.6v6.5v0.1V82h0v5.4L616.2,73.7z M629.8,87.6L629.8,87.6L629.8,87.6L629.8,87.6z M629.5,59.8L616,73.5
	l-13.6-13.6H629.5z M602.4,45.9L616,32.3l13.6,13.6H602.4z M629.5,87.6h-27.1L616,74L629.5,87.6z M629.8,45.9L629.8,45.9L629.8,45.9
	L629.8,45.9z M629.8,59.8L629.8,59.8L629.8,59.8L629.8,59.8z M629.8,23.2v0.5v15.4h0v6.5L616.2,32l13.6-13.7V23.2z M629.3,18.3
	L616,31.7l-13.3-13.4H629.3z M602.1,18.4L615.7,32l-13.6,13.6V18.4z M602.1,45.9L602.1,45.9L602.1,45.9L602.1,45.9z M602.1,59.8
	L602.1,59.8L602.1,59.8L602.1,59.8z M602.1,60.1l13.6,13.6l-13.6,13.6V60.1z M543.9,27.5h48.5v26.3l-10.7,2.9v-1.5l0,0l7-2l3.8,0
	l0-0.4l-2.5,0l1.9-0.5l-0.1-0.4l-3.2,0.9l-6.9,0v-3.5v-0.7h10.7v-0.4h-10.7V36.9h-27.4v11.5h-10.4V27.5z M581.7,75.5v-4.2h10.7V71
	h-10.7v-4.2h10.7v-0.4h-10.7v-4.1l10.7,0l0-0.4l-10.7,0v-4.2l10.7,0v17.8L581.7,75.5z M592.4,76v4.2l-10.7-0.1v-4.2L592.4,76z
	 M581.7,57.4v-0.3l10.7-2.9v3.3L581.7,57.4z M581.7,53.7v-0.4l5.6,0l-5.4,1.5l0.7-1.1H581.7z M570.2,58.5l0.6-0.2v30.8h-6V46.6h6
	v11.3l-0.7,0.2L570.2,58.5z M564.5,46.2v2.1h-9.8V37.2h26.7v11.1h-10.1v-2.1H564.5z M554.7,84.6v-4.1l9.8,0.1v4H554.7z M564.5,85
	v4.2H556c-0.1-0.7-0.6-1.3-1.3-1.3V85H564.5z M554.7,80.1v-4.2l9.8,0v4.2L554.7,80.1z M554.7,75.5v-4.2h9.8v4.2L554.7,75.5z
	 M554.7,71v-4.2h9.8V71H554.7z M554.7,66.5v-4.1l9.8,0v4.2H554.7z M554.7,62v-4.2l9.8,0v4.1L554.7,62z M554.7,57.4v-4.2l9.8,0.1v4.2
	L554.7,57.4z M554.7,52.9v-4.2h9.8v4.2L554.7,52.9z M571.2,80v-4.1l10.1,0v4.2L571.2,80z M581.3,80.5v4.1h-10.1v-4.2L581.3,80.5z
	 M571.2,75.5v-4.1h10.1v4.2L571.2,75.5z M571.2,71v-4.2h10.1V71H571.2z M571.2,66.5v-4.1l10.1,0v4.1H571.2z M571.2,62v-2l8-2.2
	l2.1,0V62L571.2,62z M572.7,57.8l5.1,0l-6.6,1.8v-1.4L572.7,57.8z M571.2,57.8L571.2,57.8l0.2-0.1L571.2,57.8z M580.5,57.4l0.8-0.2
	v0.2L580.5,57.4z M579.2,57.4l-5.1,0l7.3-2.1v1.5L579.2,57.4z M581.2,55l-8.5,2.4l-1.5,0v-4.2l10.1,0.1v0.4h-0.9L581.2,55z
	 M571.2,52.8v-4.1h10.1v0.7v3.5L571.2,52.8z M571.2,85h10.1v2.4h-0.9l1,1.7h-10.2V85z M543.9,48.7h10.4v4.2l-10.4-0.1V48.7z
	 M543.9,53.2l10.4,0.1v4.2l-10.4,0V53.2z M543.9,57.8l10.4,0V62l-10.4,0V57.8z M543.9,62.4l10.4,0v4.1h-10.4V62.4z M543.9,66.8h10.4
	V71h-10.4V66.8z M543.9,71.4h10.4v4.2l-10.4-0.1V71.4z M543.9,75.9l10.4,0.1v4.2L543.9,80V75.9z M543.9,80.4l10.4,0.1v4.1h-10.4
	V80.4z M543.9,85h10.4v2.8c-0.7,0.1-1.3,0.6-1.3,1.3h-9.1V85z M785.1,44.8v2.1v7.7h-7.9v4.5h7.6v2.3h0v87.1h-51.1V99.1v-3.5h0V80.3
	H726v-3.7h-3.5v3.7h-26.1v-4.2h-4.6v4.2h-1.5v15.4h5.9v-5.7h27.7v5.6h0v21.8h-27.7v-6.9h-5.9v27.9h5.9v-7h27.7v28.3h-57.4v5h-8v-5
	h-24.4l0.1-44.1h-4.6v3h-25.6v-3h-4v3h-39.1v4.5h24.3v8.7h4.5v-8.6h39.9v36.6h-39.9V149h-4.5v10.7h-41.3v-36.6h3.2v-4.5h-3.2v-17.5
	h0V89.5h9.1c0.1,0.8,0.7,1.4,1.5,1.4c0.8,0,1.4-0.6,1.5-1.4h8.5v0h6.7v0h21.2v-0.4h-10.8l1-1.7h-0.9V85h10.7v-0.4h-10.7v-4.1
	l10.7,0.1v16.8h7.6v3.7h3.5v-3.7h26.1v4.2h4.6v-4.2h1.5V82h0V66.7v-0.1v-27h0V23.7v-0.5v-7.9h0v-2.1h39.8h2.6h12.1v10.6h5.9v-7.3
	l39.9-0.1v38.2h-39.8v-4.8v0V39.2h0.1v-0.1h-6.1v10.7v0v8.1l0,4.2h6.1v-3H722v3h4v-3h40.9v-4.5h-9.1h-16.9h0V34.4h44.3V44.8z"/>
<g id="Doors_6_">
	<path id="XMLID_20_" class="st0" d="M859.9,98.6v0.2c0,6.9-6.1,12.5-13.7,12.5l0,0v-0.4c7.3,0,13.2-5.3,13.3-11.9h-13.3v-0.4
		L859.9,98.6L859.9,98.6L859.9,98.6z"/>
</g>
<use xlink:href="#Doors_11_"  width="16.1" height="15.8" id="XMLID_27_" x="-8" y="-7.9" transform="matrix(2.259000e-011 -0.4369 -0.5032 -1.961400e-011 910.2477 102.3794)" style="overflow:visible;"/>
<g id="Doors_5_">
	<path id="XMLID_14_" class="st0" d="M914.2,115.7v0.1c0,3.8-3.6,6.9-8,6.9l0,0v-0.2c4.2,0,7.7-2.9,7.7-6.6h-7.7v-0.2L914.2,115.7
		L914.2,115.7L914.2,115.7z"/>
</g>
<g id="Doors_4_">
	<path id="XMLID_13_" class="st0" d="M914.2,135.2v0.1c0,3.8-3.6,6.9-8,6.9l0,0V142c4.2,0,7.7-2.9,7.7-6.6h-7.7v-0.2L914.2,135.2
		L914.2,135.2L914.2,135.2z"/>
</g>
<g id="Doors_3_">
	<path id="XMLID_12_" class="st0" d="M914.2,156.9v0.1c0,3.8-3.6,6.9-8,6.9l0,0v-0.2c4.2,0,7.7-2.9,7.7-6.6h-7.7v-0.2L914.2,156.9
		L914.2,156.9L914.2,156.9z"/>
</g>
<g id="Doors_2_">
	<path id="XMLID_11_" class="st0" d="M914.2,172.2v0.1c0,3.8-3.6,6.9-8,6.9l0,0V179c4.2,0,7.7-2.9,7.7-6.6h-7.7v-0.2L914.2,172.2
		L914.2,172.2L914.2,172.2z"/>
</g>
<g id="Doors_1_">
	<path id="XMLID_10_" class="st0" d="M859.9,186.6v0.2c0,6.9-6.1,12.5-13.7,12.5l0,0v-0.4c7.3,0,13.2-5.3,13.3-11.9h-13.3v-0.4
		L859.9,186.6L859.9,186.6L859.9,186.6z"/>
</g>
<polygon id="XMLID_21_" class="st0" points="930.8,199.6 930.8,191.9 930.8,180.8 930.8,171.8 930.8,169.4 930.8,151.2 930.8,148.8 
	930.8,97.5 971.3,97.5 971.3,79 906.3,79 906.3,81.5 843.8,81.5 843.8,87 843.8,95 843.8,99 846.1,99 846.1,95 903.9,95 903.9,99 
	906.3,99 906.3,95 906.3,92.9 928.4,92.9 928.4,97.5 928.4,148.8 906.3,148.8 906.3,141.9 903.9,141.9 903.9,148.8 879.9,148.8 
	879.9,108.3 877.6,108.3 877.6,148.8 846.1,148.8 846.1,110.8 843.8,110.8 843.8,148.6 843.8,150 843.8,165.1 843.8,187 846.1,187 
	846.1,165.1 863.3,165.1 863.3,151.2 877.6,151.2 877.6,187.6 879.9,187.6 879.9,151.2 903.9,151.2 903.9,157.1 906.3,157.1 
	906.3,151.2 928.4,151.2 928.4,169.4 906.3,169.4 906.3,163.7 903.9,163.7 903.9,171.8 903.9,172.4 906.3,172.4 906.3,171.8 
	928.4,171.8 928.4,180.8 919.3,180.8 919.3,199.6 906.3,199.6 906.3,179 903.9,179 903.9,199.6 901.1,199.6 901.1,202.8 
	846.1,202.8 846.1,198.7 843.8,198.7 843.8,202.8 839.9,202.8 839.9,216.9 901.1,216.9 971.8,216.9 971.8,199.6 "/>
<g id="Doors">
	<path id="XMLID_9_" class="st0" d="M774.6-7.5v-0.1c0-5.7,5.3-10.3,11.8-10.3l0,0v0.3c-6.3,0-11.4,4.4-11.5,9.8h11.5v0.3L774.6-7.5
		L774.6-7.5L774.6-7.5z"/>
</g>
<g id="XMLID_16_">
	<polygon id="XMLID_19_" class="st0" points="977.5,-103.5 977.5,-114.3 977.5,-114.3 977.5,-220.4 977.5,-226 971.9,-226 
		868.3,-226 868,-226 854.6,-226 844.3,-236.3 840.2,-232.2 852.1,-220.4 868,-220.4 868.3,-220.4 971.9,-220.4 971.9,-117.2 
		971.9,-114.3 971.9,-101 983.7,-89.1 987.8,-93.2 	"/>
	<polygon id="XMLID_18_" class="st0" points="472.9,395.6 459.1,395.6 456.7,395.6 353.1,395.6 353.1,292.5 353.1,276.3 
		341.3,264.4 337.2,268.5 347.5,278.8 347.5,292.5 347.5,292.5 347.5,401.3 347.5,401.3 353.1,401.3 456.7,401.3 459.1,401.3 
		470.5,401.3 480.7,411.6 484.8,407.5 	"/>
	<polygon id="XMLID_17_" class="st0" points="983.7,264.4 971.8,276.3 971.8,292.5 971.8,292.5 971.8,395.6 868.3,395.6 
		865.7,395.6 852.1,395.6 840.2,407.5 844.3,411.6 854.6,401.3 865.7,401.3 868.3,401.3 971.8,401.3 977.4,401.3 977.4,401.3 
		977.4,292.5 977.4,292.2 977.4,278.8 987.8,268.5 	"/>
</g>
<polygon id="XMLID_15_" class="st0" points="480.3,-236.3 470.1,-226 456.6,-226 456.3,-226 353.1,-226 347.5,-226 347.5,-220.4 
	347.5,-116.8 347.5,-116.8 347.5,-103.1 337.2,-92.8 341.3,-88.7 353.2,-100.6 353.2,-116.8 353.1,-116.8 353.1,-220.4 
	456.3,-220.4 456.6,-220.4 472.6,-220.4 484.4,-232.2 "/>
<g class="st1">
	<path class="st0" d="M393.6,36h-5.4v-1h6.7v0.8l-4.5,9h-1.2L393.6,36z"/>
	<path class="st0" d="M396.2,42.2c0-1.2,0.8-2,2-2.4c-0.9-0.4-1.7-1.1-1.7-2.3c0-1.5,1.6-2.6,3.4-2.6s3.4,1.1,3.4,2.6
		c0,1.1-0.8,1.8-1.7,2.3c1.2,0.4,2,1.2,2,2.4c0,1.7-1.6,2.8-3.7,2.8S396.2,43.8,396.2,42.2z M402.5,42.1c0-1.1-1.1-1.9-2.6-1.9
		s-2.6,0.8-2.6,1.9c0,1,1,1.8,2.6,1.8S402.5,43.2,402.5,42.1z M402.2,37.5c0-1-1-1.7-2.3-1.7s-2.3,0.7-2.3,1.7c0,1.1,1,1.8,2.3,1.8
		S402.2,38.6,402.2,37.5z"/>
	<path class="st0" d="M406.9,36.1l-1.9,0.6l-0.3-0.9l2.4-0.8h0.8v9.9h-1.1V36.1z"/>
	<path class="st0" d="M410.1,46.1c0.6-0.2,0.9-0.6,0.9-1.1v-0.1h-0.5v-1.5h1.3v1.3c0,1.1-0.5,1.7-1.6,1.9L410.1,46.1z"/>
	<path class="st0" d="M413.7,40.2c0-3,1.5-5.4,4.1-5.4c1.2,0,2.1,0.4,2.9,1.1l-0.6,0.9c-0.7-0.6-1.4-1-2.3-1c-1.8,0-2.9,1.8-2.9,4.3
		v0c0.5-0.8,1.4-1.5,2.8-1.5c1.8,0,3.4,1.2,3.4,3.1c0,1.9-1.5,3.3-3.5,3.3C415.3,45,413.7,43.7,413.7,40.2z M419.9,41.7
		c0-1.2-1-2.1-2.4-2.1c-1.5,0-2.5,1.1-2.5,2.2c0,1.3,1,2.2,2.5,2.2S419.9,43,419.9,41.7z"/>
</g>
<g class="st1">
	<path class="st0" d="M904.6,36h-5.4v-1h6.7v0.8l-4.5,9h-1.2L904.6,36z"/>
	<path class="st0" d="M907,43.3l0.8-0.7c0.8,0.9,1.7,1.5,2.9,1.5c1.2,0,2.2-0.8,2.2-1.9c0-1.2-1.1-1.9-2.8-1.9h-0.6l-0.2-0.7
		l3.1-3.5h-4.8v-1h6.3v0.8l-3.1,3.4c1.7,0.1,3.3,1,3.3,2.8c0,1.8-1.5,3-3.3,3C909,45,907.8,44.3,907,43.3z"/>
	<path class="st0" d="M921,36h-5.4v-1h6.7v0.8l-4.5,9h-1.2L921,36z"/>
	<path class="st0" d="M922.3,46.1c0.6-0.2,0.9-0.6,0.9-1.1v-0.1h-0.5v-1.5h1.3v1.3c0,1.1-0.5,1.7-1.6,1.9L922.3,46.1z"/>
	<path class="st0" d="M926.2,43.8l0.6-0.9c0.8,0.7,1.5,1.1,2.4,1.1c1.7,0,2.9-1.7,2.9-4.2v-0.1c-0.5,0.9-1.4,1.6-2.8,1.6
		c-2,0-3.4-1.3-3.4-3.1c0-1.9,1.5-3.4,3.5-3.4c2.2,0,3.8,1.3,3.8,4.9c0,3.1-1.7,5.3-4.1,5.3C927.9,45,927,44.5,926.2,43.8z M932,38
		c0-1.3-1-2.2-2.5-2.2s-2.4,1.1-2.4,2.3c0,1.3,1,2.2,2.4,2.2C931,40.3,932,39.2,932,38z"/>
</g>
<g class="st1">
	<path class="st0" d="M582.9,188.7l-1.9,0.6l-0.3-0.9l2.4-0.8h0.8v9.9h-1.1V188.7z"/>
	<path class="st0" d="M586.2,196l0.7-0.8c0.9,0.8,1.8,1.4,2.8,1.4c1.4,0,2.4-0.9,2.4-2.2c0-1.2-1-2.1-2.5-2.1
		c-0.8,0-1.5,0.3-2.1,0.6l-0.7-0.5l0.3-4.8h5.7v1h-4.7l-0.2,3.2c0.6-0.3,1.1-0.4,1.9-0.4c1.9,0,3.4,1.1,3.4,3c0,1.9-1.5,3.2-3.5,3.2
		C588.3,197.6,587.1,196.9,586.2,196z"/>
	<path class="st0" d="M594.7,198.7c0.6-0.2,0.9-0.6,0.9-1.1v-0.1h-0.5v-1.5h1.3v1.3c0,1.1-0.5,1.7-1.6,1.9L594.7,198.7z"/>
	<path class="st0" d="M603.6,188.6h-5.4v-1h6.7v0.8l-4.5,9h-1.2L603.6,188.6z"/>
</g>
<g class="st1">
	<path class="st0" d="M724.2,188.7l-1.9,0.6l-0.3-0.9l2.4-0.8h0.8v9.9h-1.1V188.7z"/>
	<path class="st0" d="M727.5,196l0.7-0.8c0.9,0.8,1.8,1.4,2.8,1.4c1.4,0,2.4-0.9,2.4-2.2c0-1.2-1-2.1-2.5-2.1
		c-0.8,0-1.5,0.3-2.1,0.6l-0.7-0.5l0.3-4.8h5.7v1h-4.7l-0.2,3.2c0.6-0.3,1.1-0.4,1.9-0.4c1.9,0,3.4,1.1,3.4,3c0,1.9-1.5,3.2-3.5,3.2
		C729.6,197.6,728.4,196.9,727.5,196z"/>
	<path class="st0" d="M736,198.7c0.6-0.2,0.9-0.6,0.9-1.1v-0.1h-0.5v-1.5h1.3v1.3c0,1.1-0.5,1.7-1.6,1.9L736,198.7z"/>
	<path class="st0" d="M740.6,188.7l-1.9,0.6l-0.3-0.9l2.4-0.8h0.8v9.9h-1.1V188.7z"/>
</g>
<g class="st1">
	<path class="st0" d="M582.9-25.3l-1.9,0.6l-0.3-0.9l2.4-0.8h0.8v9.9h-1.1V-25.3z"/>
	<path class="st0" d="M591.8-25.4h-5.4v-1h6.7v0.8l-4.5,9h-1.2L591.8-25.4z"/>
	<path class="st0" d="M593.1-15.3c0.6-0.2,0.9-0.6,0.9-1.1v-0.1h-0.5v-1.5h1.3v1.3c0,1.1-0.5,1.7-1.6,1.9L593.1-15.3z"/>
	<path class="st0" d="M597-17.6l0.6-0.9c0.8,0.7,1.5,1.1,2.4,1.1c1.7,0,2.9-1.7,2.9-4.2v-0.1c-0.5,0.9-1.4,1.6-2.8,1.6
		c-2,0-3.4-1.3-3.4-3.1c0-1.9,1.5-3.4,3.5-3.4c2.2,0,3.8,1.3,3.8,4.9c0,3.1-1.7,5.3-4.1,5.3C598.7-16.4,597.8-16.9,597-17.6z
		 M602.8-23.4c0-1.3-1-2.2-2.5-2.2c-1.5,0-2.4,1.1-2.4,2.3c0,1.3,1,2.2,2.4,2.2C601.8-21.1,602.8-22.2,602.8-23.4z"/>
</g>
<g class="st1">
	<path class="st0" d="M724.2-25.3l-1.9,0.6l-0.3-0.9l2.4-0.8h0.8v9.9h-1.1V-25.3z"/>
	<path class="st0" d="M727.5-19.2c0-1.2,0.8-2,2-2.4c-0.9-0.4-1.7-1.1-1.7-2.3c0-1.5,1.6-2.6,3.4-2.6s3.4,1.1,3.4,2.6
		c0,1.1-0.8,1.8-1.7,2.3c1.2,0.4,2,1.2,2,2.4c0,1.7-1.6,2.8-3.7,2.8S727.5-17.6,727.5-19.2z M733.7-19.3c0-1.1-1.1-1.9-2.6-1.9
		s-2.6,0.8-2.6,1.9c0,1,1,1.8,2.6,1.8C732.8-17.4,733.7-18.2,733.7-19.3z M733.4-23.9c0-1-1-1.7-2.3-1.7c-1.3,0-2.3,0.7-2.3,1.7
		c0,1.1,1,1.8,2.3,1.8C732.4-22.1,733.4-22.8,733.4-23.9z"/>
	<path class="st0" d="M736.3-15.3c0.6-0.2,0.9-0.6,0.9-1.1v-0.1h-0.5v-1.5h1.3v1.3c0,1.1-0.5,1.7-1.6,1.9L736.3-15.3z"/>
	<path class="st0" d="M739.7-21.5c0-2.8,1.6-5.1,4.2-5.1s4.1,2.3,4.1,5.1c0,2.8-1.6,5.1-4.2,5.1C741.3-16.4,739.7-18.7,739.7-21.5z
		 M746.8-21.5c0-2.2-1.2-4.1-3-4.1c-1.8,0-3,1.9-3,4.1c0,2.2,1.2,4.1,3,4.1C745.7-17.4,746.8-19.3,746.8-21.5z"/>
</g>
</svg>
