<?xml version="1.0" encoding="utf-8"?>
<!-- Generator: Adobe Illustrator 19.0.0, SVG Export Plug-In . SVG Version: 6.00 Build 0)  -->
<svg version="1.1" id="_x33_5_x2C_37_x2C_39_-_1_level_1_"
	 xmlns="http://www.w3.org/2000/svg" xmlns:xlink="http://www.w3.org/1999/xlink" x="0px" y="0px" viewBox="87 -84.7 753 752.7"
	 style="enable-background:new 87 -84.7 753 752.7;" xml:space="preserve">
<style type="text/css">
	.st0{fill:#FFFFFF;}
	.st1{fill:none;stroke:#153E28;stroke-miterlimit:10;}
	.st2{enable-background:new    ;}
</style>
<symbol  id="Doors_19_" viewBox="-8 -7.9 16.1 15.8">
	<path id="XMLID_2_" class="st0" d="M8-7.9H7.8C-1-7.9-8-0.8-8,7.9l0,0h0.5c0-8.4,6.7-15.2,15.1-15.3V7.9h0.5L8-7.9L8-7.9L8-7.9z"/>
</symbol>
<rect id="XMLID_1484_" x="113.1" y="-60.5" class="st0" width="71.6" height="1"/>
<rect id="XMLID_1483_" x="232.1" y="-60.5" class="st0" width="52.7" height="1"/>
<rect id="XMLID_1482_" x="97" y="172.7" class="st0" width="1" height="22.6"/>
<rect id="XMLID_1481_" x="103.8" y="172.7" class="st0" width="1" height="22.6"/>
<rect id="XMLID_1480_" x="106.5" y="-66.7" class="st0" width="1" height="82"/>
<rect id="XMLID_1479_" x="113.1" y="-60" class="st0" width="1" height="75.3"/>
<rect id="XMLID_1478_" x="122" y="15.3" class="st0" width="62.7" height="1"/>
<rect id="XMLID_1477_" x="122" y="12" class="st0" width="62.7" height="1"/>
<rect id="XMLID_1476_" x="184.7" y="-52.1" class="st0" width="1" height="64.1"/>
<rect id="XMLID_1475_" x="188" y="-52.1" class="st0" width="1" height="64.1"/>
<rect id="XMLID_1474_" x="121.2" y="563.6" class="st0" width="63.5" height="1"/>
<rect id="XMLID_1473_" x="121.2" y="566.9" class="st0" width="63.5" height="1"/>
<rect id="XMLID_1472_" x="184.7" y="567.9" class="st0" width="1" height="64.1"/>
<rect id="XMLID_1471_" x="188" y="567.9" class="st0" width="1" height="64.1"/>
<rect id="XMLID_1470_" x="106.5" y="41" class="st0" width="1" height="81.5"/>
<rect id="XMLID_1469_" x="113.1" y="41" class="st0" width="1" height="81.7"/>
<rect id="XMLID_1468_" x="106" y="457.4" class="st0" width="1" height="82.1"/>
<rect id="XMLID_1467_" x="112.6" y="457.4" class="st0" width="1" height="82.2"/>
<rect id="XMLID_1466_" x="106.5" y="-67.2" class="st0" width="78.2" height="1"/>
<rect id="XMLID_1465_" x="113.2" y="639.2" class="st0" width="73.6" height="1"/>
<rect id="XMLID_1464_" x="106.5" y="564.5" class="st0" width="1" height="82"/>
<rect id="XMLID_1463_" x="113.1" y="564.5" class="st0" width="1" height="75.8"/>
<rect id="XMLID_1462_" x="106.5" y="646" class="st0" width="80.3" height="1"/>
<rect id="XMLID_1461_" x="232.1" y="-67.2" class="st0" width="52.7" height="1"/>
<rect id="XMLID_1460_" x="341.2" y="650.7" class="st0" width="30.6" height="1"/>
<rect id="XMLID_1459_" x="340.3" y="657.4" class="st0" width="32.2" height="1"/>
<path id="XMLID_1458_" class="st0" d="M94.8,283c-1.3-22.8,1.1-45.6,7-67.6l1,0.3c-5.8,21.9-8.2,44.6-6.9,67.3L94.8,283z"/>
<path id="XMLID_1457_" class="st0" d="M87.4,282.7c-1.3-23.2,1-46.4,7-68.8l1,0.3c-5.9,22.3-8.3,45.4-7,68.5L87.4,282.7z"/>
<rect id="XMLID_1456_" x="342.5" y="-76.8" class="st0" width="31.4" height="1"/>
<rect id="XMLID_1455_" x="342.5" y="-70" class="st0" width="31.4" height="1"/>
<path id="XMLID_1454_" class="st0" d="M388.7-70.8l-0.2-1c22.5-5.4,45.7-7.5,68.9-6.4v1C434.2-78.4,411.1-76.2,388.7-70.8z"/>
<path id="XMLID_1453_" class="st0" d="M386.9-78.1l-0.2-1c23.1-5.4,46.9-7.4,70.6-6.2v1C433.7-85.6,410-83.5,386.9-78.1z"/>
<path id="XMLID_1452_" class="st1" d="M341.4,158"/>
<path id="XMLID_1448_" class="st0" d="M362.8,349.3v23.5h6.1v-23.5H362.8z M368.4,372.3h-5.1v-22.5h5.1V372.3z"/>
<path id="XMLID_1444_" class="st0" d="M422.9,217.4v21.8h8v-21.8H422.9z M430.3,238.7h-7V218h7V238.7z"/>
<path id="XMLID_1440_" class="st0" d="M422.9,261v22.1h8V261H422.9z M430.3,282.6h-7v-21.1h7V282.6z"/>
<rect id="XMLID_1439_" x="404" y="201.4" transform="matrix(-0.7081 0.7061 -0.7061 -0.7081 851.3274 103.7678)" class="st0" width="0.5" height="52.9"/>
<rect id="XMLID_1438_" x="377.7" y="227.6" transform="matrix(-0.7039 0.7103 -0.7103 -0.7039 850.5574 101.0762)" class="st0" width="52.9" height="0.5"/>
<rect id="XMLID_1437_" x="404" y="244.8" transform="matrix(-0.7059 0.7083 -0.7083 -0.7059 881.6532 176.3533)" class="st0" width="0.5" height="52.8"/>
<rect id="XMLID_1436_" x="377.8" y="271" transform="matrix(-0.7059 0.7083 -0.7083 -0.7059 881.6483 176.3413)" class="st0" width="52.8" height="0.5"/>
<rect id="XMLID_1435_" x="395.5" y="325.9" transform="matrix(-0.6732 0.7395 -0.7395 -0.6732 930.1269 313.7268)" class="st0" width="0.5" height="72.9"/>
<rect id="XMLID_1434_" x="359.3" y="362.1" transform="matrix(-0.7374 0.6754 -0.6754 -0.7374 932.3251 362.2338)" class="st0" width="72.9" height="0.5"/>
<path id="XMLID_1430_" class="st0" d="M334.8,234.2v58.3h9v-58.3H334.8z M343.4,292h-8v-57.3h8V292z"/>
<path id="XMLID_1426_" class="st0" d="M341.5,289.6V237h-4.3v52.6L341.5,289.6L341.5,289.6z M341,289.1h-3.3l0,0v-51.6h3.4V289.1z"
	/>
<rect id="XMLID_1425_" x="306.2" y="237" class="st0" width="28.9" height="0.5"/>
<rect id="XMLID_1424_" x="306.2" y="243.1" class="st0" width="28.9" height="0.5"/>
<rect id="XMLID_1423_" x="306.3" y="249.3" class="st0" width="28.9" height="0.5"/>
<rect id="XMLID_1422_" x="306.2" y="255.4" transform="matrix(-1 3.852746e-003 -3.852746e-003 -1 642.2827 509.9935)" class="st0" width="28.9" height="0.5"/>
<rect id="XMLID_1421_" x="306.2" y="261.4" class="st0" width="28.9" height="0.5"/>
<rect id="XMLID_1420_" x="306.2" y="267.6" class="st0" width="28.9" height="0.5"/>
<rect id="XMLID_1419_" x="306.2" y="273.7" class="st0" width="28.9" height="0.5"/>
<rect id="XMLID_1418_" x="306.3" y="279.8" class="st0" width="28.9" height="0.5"/>
<rect id="XMLID_1417_" x="306.2" y="285.9" class="st0" width="28.9" height="0.5"/>
<rect id="XMLID_1416_" x="306.2" y="292" class="st0" width="28.9" height="0.5"/>
<rect id="XMLID_1415_" x="343.6" y="237" class="st0" width="28.9" height="0.5"/>
<rect id="XMLID_1414_" x="343.6" y="243.1" class="st0" width="28.9" height="0.5"/>
<rect id="XMLID_1413_" x="343.6" y="249.3" class="st0" width="28.9" height="0.5"/>
<rect id="XMLID_1412_" x="343.6" y="255.4" transform="matrix(-1 3.852746e-003 -3.852746e-003 -1 717.0281 509.8416)" class="st0" width="28.9" height="0.5"/>
<rect id="XMLID_1411_" x="343.6" y="261.4" class="st0" width="28.9" height="0.5"/>
<rect id="XMLID_1410_" x="343.6" y="267.6" class="st0" width="28.9" height="0.5"/>
<rect id="XMLID_1409_" x="343.6" y="273.7" class="st0" width="28.9" height="0.5"/>
<rect id="XMLID_1408_" x="343.6" y="279.8" class="st0" width="28.9" height="0.5"/>
<rect id="XMLID_1407_" x="343.6" y="285.9" class="st0" width="28.9" height="0.5"/>
<rect id="XMLID_1406_" x="343.6" y="292" class="st0" width="28.9" height="0.5"/>
<polygon id="XMLID_1405_" class="st0" points="321.6,290.8 321.1,290.8 321.1,221.6 358,221.6 358,290.1 357.5,290.1 357.5,222.1 
	321.6,222.1 "/>
<polygon id="XMLID_1404_" class="st0" points="356.3,289.6 357.8,292.2 359.3,289.6 "/>
<rect id="XMLID_1403_" x="342" y="246.1" transform="matrix(-0.9624 0.2716 -0.2716 -0.9624 767.6688 386.4048)" class="st0" width="30.3" height="0.5"/>
<rect id="XMLID_1402_" x="343.1" y="248.3" transform="matrix(-0.9649 0.2627 -0.2627 -0.9649 769.171 394.2221)" class="st0" width="30.3" height="0.5"/>
<ellipse id="XMLID_1401_" class="st0" cx="321.4" cy="292.2" rx="2.1" ry="2.1"/>
<rect id="XMLID_1400_" x="357.5" y="238.4" class="st0" width="0.5" height="6.2"/>
<polygon id="XMLID_1399_" class="st0" points="356.3,244.2 357.8,246.8 359.3,244.2 "/>
<path id="XMLID_1398_" class="st0" d="M310.8,357.4v-19.6h0.5v19.1c10.4-0.1,18.8-8.7,18.8-19.1h0.5c0,10.8-8.7,19.6-19.5,19.6
	L310.8,357.4L310.8,357.4z"/>
<path id="XMLID_1397_" class="st0" d="M362.6,307.6h20.2v0.5h-19.7c0.1,10.8,8.9,19.5,19.7,19.5v0.5c-11.1,0-20.2-9.1-20.2-20.2
	V307.6L362.6,307.6z"/>
<path id="XMLID_1396_" class="st0" d="M402.9,308.3h19.7v0.5h-19.2c0.1,10.5,8.7,19,19.2,19v0.4c-10.8,0-19.6-8.8-19.7-19.7V308.3z"
	/>
<path id="XMLID_1395_" class="st0" d="M443.8,210.6v-19.6h0.6V210c0,0.1,0.1,0.2,0.2,0.2h0l0,0c10.4-0.3,18.6-8.8,18.7-19.2h0.6
	c0,3.4-0.8,6.7-2.4,9.6c-3.5,6.4-10.2,10.3-17.4,10.4h-0.3L443.8,210.6z"/>
<path id="XMLID_1394_" class="st0" d="M443.5,367.2V387h0.7v-19.3c0-0.1,0.1-0.2,0.2-0.2c10.5,0.3,18.9,8.9,18.9,19.5h0.7
	c0-3.4-0.8-6.7-2.4-9.7c-3.5-6.4-10.3-10.5-17.6-10.5h-0.3L443.5,367.2z"/>
<path id="XMLID_451_" class="st0" d="M348.5,74.7"/>
<rect id="XMLID_1392_" x="203.4" y="187.1" class="st0" width="21.7" height="23.8"/>
<rect id="XMLID_1391_" x="203.4" y="369.3" class="st0" width="21.7" height="23.8"/>
<path id="XMLID_469_" class="st0" d="M104,211.2l0.8-0.1v-15.8c0,0,0,0,0,0H97v13.5c0,0.6-0.4,1.2-1.1,1.4l0,0
	c-0.5,0.1-0.9,0.5-1,1.1l-0.6,2.8c0,0,0,0,0,0l8.2,2.4L104,211.2z"/>
<rect id="XMLID_1387_" x="96.5" y="385.1" class="st0" width="1" height="22.6"/>
<rect id="XMLID_1386_" x="103.2" y="385.1" class="st0" width="1" height="22.6"/>
<path id="XMLID_1385_" class="st0" d="M94.2,297.4c-1.3,22.8,1.1,45.6,7,67.6l1-0.3c-5.8-21.9-8.2-44.6-6.9-67.3L94.2,297.4z"/>
<path id="XMLID_1384_" class="st0" d="M87.4,297.6c-1.3,23.2,1,46.4,7,68.8l1-0.3c-5.9-22.3-8.3-45.4-7-68.5L87.4,297.6z"/>
<polygon id="XMLID_470_" class="st0" points="220.7,529.9 220.7,529.8 220.7,529.8 "/>
<polygon id="XMLID_473_" class="st0" points="283.8,18.7 283.8,22.4 254.7,22.4 254.7,65.4 251.1,65.4 251.1,47.5 241,47.5 
	241,43.9 251.1,43.9 251.1,18.7 "/>
<g id="Doors_18_">
	<path id="XMLID_45_" class="st0" d="M270.5,81v-0.2c0-8.8-7.1-15.9-15.8-15.9l0,0v0.5c8.4,0,15.2,6.7,15.3,15.1h-15.3V81L270.5,81
		L270.5,81L270.5,81z"/>
</g>
<g id="Doors_17_">
	<path id="XMLID_44_" class="st0" d="M270.5,126v-0.2c0-8.8-7.1-15.9-15.8-15.9l0,0v0.5c8.4,0,15.2,6.7,15.3,15.1h-15.3v0.5
		L270.5,126L270.5,126L270.5,126z"/>
</g>
<g id="Doors_16_">
	<path id="XMLID_43_" class="st0" d="M269.7,455.6v0.2c0,8.8-7.1,15.9-15.8,15.9l0,0v-0.5c8.4,0,15.2-6.7,15.3-15.1h-15.3v-0.5
		L269.7,455.6L269.7,455.6L269.7,455.6z"/>
</g>
<g id="stairs_8_">
	<polygon id="XMLID_133_" class="st0" points="248.1,233.7 274,260.2 272.9,260.2 246.8,233.7 	"/>
	<g id="stairs_7_">
		<rect id="XMLID_132_" x="274.3" y="207.2" class="st0" width="20.3" height="0.5"/>
		<rect id="XMLID_131_" x="274.3" y="213" class="st0" width="20.3" height="0.5"/>
		<rect id="XMLID_130_" x="274.3" y="218.8" class="st0" width="20.3" height="0.5"/>
		<rect id="XMLID_129_" x="274.3" y="224.7" class="st0" width="20.3" height="0.5"/>
		<rect id="XMLID_128_" x="274.3" y="230.5" class="st0" width="20.3" height="0.5"/>
		<rect id="XMLID_127_" x="274.3" y="236.3" class="st0" width="20.3" height="0.5"/>
		<rect id="XMLID_126_" x="274.3" y="242.2" class="st0" width="20.3" height="0.5"/>
		<rect id="XMLID_125_" x="274.3" y="248" class="st0" width="20.3" height="0.5"/>
		<rect id="XMLID_124_" x="274.3" y="253.8" class="st0" width="20.3" height="0.5"/>
		<rect id="XMLID_123_" x="274.3" y="259.7" class="st0" width="20.3" height="0.5"/>
		<rect id="XMLID_122_" x="246.8" y="259.7" class="st0" width="26.2" height="0.5"/>
		<rect id="XMLID_121_" x="246.8" y="253.8" class="st0" width="21" height="0.5"/>
		<rect id="XMLID_120_" x="246.8" y="248" class="st0" width="15.2" height="0.5"/>
		<rect id="XMLID_119_" x="246.8" y="242.2" class="st0" width="9.2" height="0.5"/>
		<rect id="XMLID_118_" x="272.9" y="207.2" class="st0" width="1.3" height="53"/>
		<rect id="XMLID_117_" x="246.8" y="233.7" class="st0" width="1.3" height="53"/>
		<path class="st0" d="M286.5,207.2c0-1.1-0.9-2.1-2.1-2.1c-1.1,0-2.1,0.9-2.1,2.1c0,1.1,0.8,1.9,1.8,2.1v65.4h-22.5V252h1.2
			l-1.5-2.6L260,252h1.2v23.2h0.1h0.4h22.5h0.5v-0.5v-65.4C285.7,209.1,286.5,208.2,286.5,207.2z"/>
	</g>
</g>
<g id="stairs_6_">
	<polygon id="XMLID_111_" class="st0" points="248.1,346.5 274,320.1 272.9,320.1 246.8,346.5 	"/>
	<g id="stairs_5_">
		<rect id="XMLID_110_" x="274.3" y="372.6" class="st0" width="20.3" height="0.5"/>
		<rect id="XMLID_109_" x="274.3" y="366.8" class="st0" width="20.3" height="0.5"/>
		<rect id="XMLID_108_" x="274.3" y="360.9" class="st0" width="20.3" height="0.5"/>
		<rect id="XMLID_107_" x="274.3" y="355.1" class="st0" width="20.3" height="0.5"/>
		<rect id="XMLID_106_" x="274.3" y="349.3" class="st0" width="20.3" height="0.5"/>
		<rect id="XMLID_105_" x="274.3" y="343.4" class="st0" width="20.3" height="0.5"/>
		<rect id="XMLID_104_" x="274.3" y="337.6" class="st0" width="20.3" height="0.5"/>
		<rect id="XMLID_103_" x="274.3" y="331.8" class="st0" width="20.3" height="0.5"/>
		<rect id="XMLID_102_" x="274.3" y="325.9" class="st0" width="20.3" height="0.5"/>
		<rect id="XMLID_101_" x="274.3" y="320.1" class="st0" width="20.3" height="0.5"/>
		<rect id="XMLID_100_" x="246.8" y="320.1" class="st0" width="26.2" height="0.5"/>
		<rect id="XMLID_99_" x="246.8" y="325.9" class="st0" width="21" height="0.5"/>
		<rect id="XMLID_98_" x="246.8" y="331.8" class="st0" width="15.2" height="0.5"/>
		<rect id="XMLID_97_" x="246.8" y="337.6" class="st0" width="9.2" height="0.5"/>
		<rect id="XMLID_96_" x="272.9" y="320.1" class="st0" width="1.3" height="53"/>
		<rect id="XMLID_95_" x="246.8" y="293.6" class="st0" width="1.3" height="53"/>
		<path class="st0" d="M284.7,371v-65.4v-0.5h-0.5h-22.5h-0.4h-0.1v23.2H260l1.5,2.6l1.5-2.6h-1.2v-22.7h22.5V371
			c-1,0.1-1.8,1-1.8,2.1c0,1.1,0.9,2.1,2.1,2.1c1.1,0,2.1-0.9,2.1-2.1C286.5,372,285.7,371.2,284.7,371z"/>
	</g>
</g>
<rect id="XMLID_1371_" x="230.7" y="646.1" class="st0" width="56.5" height="1"/>
<rect id="XMLID_1370_" x="230.7" y="639.3" class="st0" width="56.5" height="1"/>
<g id="Doors_15_">
	<path id="XMLID_42_" class="st0" d="M269.2,500.8v0.2c0,8.8-7.1,15.9-15.8,15.9l0,0v-0.5c8.4,0,15.2-6.7,15.3-15.1h-15.3v-0.5
		L269.2,500.8L269.2,500.8L269.2,500.8z"/>
</g>
<polygon id="XMLID_475_" class="st0" points="284.1,559.3 284.1,562.9 251.4,562.9 251.4,537.8 241.1,537.8 241.1,534.2 
	251.4,534.2 251.4,516.3 255,516.3 255,559.3 "/>
<path id="XMLID_1367_" class="st0" d="M337.4,421.9c-10.3,0-18.7-7.9-18.7-17.6v-0.2h18.7v0.4h-18.2c0.1,9.4,8.3,17,18.2,17l0,0
	L337.4,421.9L337.4,421.9L337.4,421.9z"/>
<path id="XMLID_1366_" class="st0" d="M388.1,652.4l-0.2,1c22.6,5.4,45.9,7.5,69.2,6.4v-1C433.9,660,410.7,657.8,388.1,652.4z"/>
<path id="XMLID_1365_" class="st0" d="M386.3,659.7l-0.2,1c23.2,5.4,47.1,7.4,71,6.2v-1C433.3,667.2,409.5,665.1,386.3,659.7z"/>
<rect id="XMLID_1364_" x="742.6" y="-60.5" class="st0" width="71.6" height="1"/>
<rect id="XMLID_1363_" x="829.3" y="172.7" class="st0" width="1" height="22.6"/>
<rect id="XMLID_1362_" x="822.6" y="172.7" class="st0" width="1" height="22.6"/>
<rect id="XMLID_1361_" x="819.8" y="-66.7" class="st0" width="1" height="82"/>
<rect id="XMLID_1360_" x="813.3" y="-60" class="st0" width="1" height="75.3"/>
<rect id="XMLID_1359_" x="742.6" y="15.3" class="st0" width="62.7" height="1"/>
<rect id="XMLID_1358_" x="742.6" y="12" class="st0" width="62.7" height="1"/>
<rect id="XMLID_1357_" x="741.6" y="-52.1" class="st0" width="1" height="64.1"/>
<rect id="XMLID_1356_" x="738.3" y="-52.1" class="st0" width="1" height="64.1"/>
<rect id="XMLID_1355_" x="742.6" y="563.6" class="st0" width="65.1" height="1"/>
<rect id="XMLID_1354_" x="742.6" y="566.9" class="st0" width="65.1" height="1"/>
<rect id="XMLID_1353_" x="741.6" y="567.9" class="st0" width="1" height="64.1"/>
<rect id="XMLID_1352_" x="738.3" y="567.9" class="st0" width="1" height="64.1"/>
<rect id="XMLID_1351_" x="819.8" y="41" class="st0" width="1" height="81.5"/>
<rect id="XMLID_1350_" x="813.3" y="41" class="st0" width="1" height="81.7"/>
<rect id="XMLID_1349_" x="820.3" y="457.9" class="st0" width="1" height="81.5"/>
<rect id="XMLID_1348_" x="813.8" y="457.9" class="st0" width="1" height="81.7"/>
<rect id="XMLID_1347_" x="742.6" y="-67.2" class="st0" width="78.2" height="1"/>
<rect id="XMLID_1346_" x="740.5" y="639.2" class="st0" width="73.6" height="1"/>
<rect id="XMLID_1345_" x="819.8" y="564.5" class="st0" width="1" height="82"/>
<rect id="XMLID_1344_" x="813.3" y="564.5" class="st0" width="1" height="75.8"/>
<rect id="XMLID_1343_" x="740.5" y="646" class="st0" width="80.3" height="1"/>
<rect id="XMLID_1342_" x="555.5" y="650.4" class="st0" width="30.8" height="1"/>
<rect id="XMLID_1341_" x="554.8" y="657.1" class="st0" width="34.5" height="1"/>
<path id="XMLID_1340_" class="st0" d="M832.5,283c1.3-22.8-1.1-45.6-7-67.6l-1,0.3c5.8,21.9,8.2,44.6,6.9,67.3L832.5,283z"/>
<path id="XMLID_1339_" class="st0" d="M840,282.7c1.3-23.2-1-46.4-7-68.8l-1,0.3c5.9,22.3,8.3,45.4,7,68.5L840,282.7z"/>
<rect id="XMLID_1338_" x="555.6" y="-76.4" class="st0" width="30.5" height="1"/>
<rect id="XMLID_1337_" x="555.6" y="-69.8" class="st0" width="31.5" height="1"/>
<path id="XMLID_1336_" class="st0" d="M538.6-70.8l0.2-1c-22.5-5.4-45.7-7.5-68.8-6.4v1C493.1-78.4,516.2-76.2,538.6-70.8z"/>
<path id="XMLID_1335_" class="st0" d="M540.4-78.1l0.2-1c-23.1-5.4-46.9-7.4-70.6-6.2v1C493.7-85.6,517.4-83.5,540.4-78.1z"/>
<path id="XMLID_1334_" class="st1" d="M585.9,158"/>
<path id="XMLID_1330_" class="st0" d="M498.6,207.2v23.5h6.1v-23.5H498.6z M504.2,230.2h-5.1v-22.5h5.1V230.2z"/>
<path id="XMLID_1326_" class="st0" d="M496.5,341.5v20.1h8v-20.1H496.5z M504,361.1h-7V342h7V361.1z"/>
<path id="XMLID_1322_" class="st0" d="M496.5,297.6v20.7h8v-20.7H496.5z M504,317.8h-7v-19.7h7V317.8z"/>
<rect id="XMLID_1321_" x="522.8" y="325.6" transform="matrix(0.7081 -0.7061 0.7061 0.7081 -95.9224 472.1106)" class="st0" width="0.5" height="52.9"/>
<rect id="XMLID_1320_" x="496.6" y="351.9" transform="matrix(0.7039 -0.7103 0.7103 0.7039 -95.2161 475.7925)" class="st0" width="52.9" height="0.5"/>
<rect id="XMLID_1319_" x="522.8" y="282.3" transform="matrix(0.7059 -0.7083 0.7083 0.7059 -64.8213 461.3004)" class="st0" width="0.5" height="52.8"/>
<rect id="XMLID_1318_" x="496.7" y="308.5" transform="matrix(0.7059 -0.7083 0.7083 0.7059 -64.8263 461.3025)" class="st0" width="52.8" height="0.5"/>
<rect id="XMLID_1317_" x="531.3" y="181.1" transform="matrix(0.6732 -0.7395 0.7395 0.6732 12.8772 464.1748)" class="st0" width="0.5" height="72.9"/>
<rect id="XMLID_1316_" x="495.1" y="217.3" transform="matrix(0.7374 -0.6754 0.6754 0.7374 -7.3921 416.1544)" class="st0" width="72.9" height="0.5"/>
<path id="XMLID_1312_" class="st0" d="M583.5,287.5v58.3h9v-58.3H583.5z M592,345.2h-8V288h8V345.2z"/>
<path id="XMLID_1308_" class="st0" d="M585.8,290.3L585.8,290.3l0,52.6h4.3v-52.6H585.8z M589.7,342.4h-3.4v-51.6h3.3l0,0V342.4z"/>
<rect id="XMLID_1307_" x="592.2" y="342.4" class="st0" width="28.9" height="0.5"/>
<rect id="XMLID_1306_" x="592.2" y="336.3" class="st0" width="28.9" height="0.5"/>
<rect id="XMLID_1305_" x="592.2" y="330.2" class="st0" width="28.9" height="0.5"/>
<rect id="XMLID_1304_" x="592.2" y="324.1" transform="matrix(1 -3.852746e-003 3.852746e-003 1 -1.245 2.3397)" class="st0" width="28.9" height="0.5"/>
<rect id="XMLID_1303_" x="592.2" y="318" class="st0" width="28.9" height="0.5"/>
<rect id="XMLID_1302_" x="592.2" y="311.9" class="st0" width="28.9" height="0.5"/>
<rect id="XMLID_1301_" x="592.2" y="305.8" class="st0" width="28.9" height="0.5"/>
<rect id="XMLID_1300_" x="592.2" y="299.6" class="st0" width="28.9" height="0.5"/>
<rect id="XMLID_1299_" x="592.2" y="293.6" class="st0" width="28.9" height="0.5"/>
<rect id="XMLID_1298_" x="592.2" y="287.5" class="st0" width="28.9" height="0.5"/>
<rect id="XMLID_1297_" x="554.8" y="342.4" class="st0" width="28.9" height="0.5"/>
<rect id="XMLID_1296_" x="554.8" y="336.3" class="st0" width="28.9" height="0.5"/>
<rect id="XMLID_1295_" x="554.8" y="330.2" class="st0" width="28.9" height="0.5"/>
<rect id="XMLID_1294_" x="554.9" y="324.1" transform="matrix(1 -3.852746e-003 3.852746e-003 1 -1.2453 2.1957)" class="st0" width="28.9" height="0.5"/>
<rect id="XMLID_1293_" x="554.8" y="318" class="st0" width="28.9" height="0.5"/>
<rect id="XMLID_1292_" x="554.8" y="311.9" class="st0" width="28.9" height="0.5"/>
<rect id="XMLID_1291_" x="554.8" y="305.8" class="st0" width="28.9" height="0.5"/>
<rect id="XMLID_1290_" x="554.8" y="299.6" class="st0" width="28.9" height="0.5"/>
<rect id="XMLID_1289_" x="554.8" y="293.6" class="st0" width="28.9" height="0.5"/>
<rect id="XMLID_1288_" x="554.8" y="287.5" class="st0" width="28.9" height="0.5"/>
<polygon id="XMLID_1287_" class="st0" points="605.7,289.2 606.2,289.2 606.2,358.4 569.3,358.4 569.3,289.9 569.8,289.9 
	569.8,357.9 605.7,357.9 "/>
<polygon id="XMLID_1286_" class="st0" points="571,290.3 569.6,287.7 568.1,290.3 "/>
<rect id="XMLID_1285_" x="555.1" y="333.3" transform="matrix(0.9624 -0.2716 0.2716 0.9624 -69.1696 167.4085)" class="st0" width="30.3" height="0.5"/>
<rect id="XMLID_1284_" x="553.9" y="331.1" transform="matrix(0.9649 -0.2627 0.2627 0.9649 -67.0664 161.1228)" class="st0" width="30.3" height="0.5"/>
<ellipse id="XMLID_1283_" class="st0" cx="606" cy="287.7" rx="2.1" ry="2.1"/>
<rect id="XMLID_1282_" x="569.3" y="335.3" class="st0" width="0.5" height="6.2"/>
<polygon id="XMLID_1281_" class="st0" points="571,335.8 569.6,333.2 568.1,335.8 "/>
<path id="XMLID_1280_" class="st0" d="M616.5,222.6v19.6H616v-19.1c-10.4,0.1-18.8,8.7-18.8,19.1h-0.5c0-10.8,8.7-19.6,19.5-19.6
	L616.5,222.6L616.5,222.6z"/>
<path id="XMLID_1279_" class="st0" d="M564.7,272.4h-20.2v-0.5h19.7c-0.1-10.8-8.9-19.5-19.7-19.5v-0.5c11.1,0,20.2,9.1,20.2,20.2
	V272.4L564.7,272.4z"/>
<path id="XMLID_1278_" class="st0" d="M524.4,271.7h-19.7v-0.5h19.2c-0.1-10.5-8.7-19-19.2-19v-0.4c10.8,0,19.6,8.8,19.7,19.7V271.7
	z"/>
<path id="XMLID_1277_" class="st0" d="M483.5,210.6v-19.6h-0.6V210c0,0.1-0.1,0.2-0.2,0.2h0l0,0c-10.4-0.3-18.6-8.8-18.7-19.2h-0.6
	c0,3.4,0.8,6.7,2.4,9.6c3.5,6.4,10.2,10.3,17.4,10.4h0.3L483.5,210.6z"/>
<path id="XMLID_1276_" class="st0" d="M483.8,367.2V387h-0.7v-19.3c0-0.1-0.1-0.2-0.2-0.2c-10.5,0.3-18.9,8.9-18.9,19.5h-0.7
	c0-3.4,0.8-6.7,2.4-9.7c3.5-6.4,10.3-10.5,17.6-10.5h0.3L483.8,367.2z"/>
<path id="XMLID_1275_" class="st0" d="M578.8,74.7"/>
<rect id="XMLID_1274_" x="702.2" y="187.1" class="st0" width="21.7" height="23.8"/>
<rect id="XMLID_1273_" x="702.2" y="369.3" class="st0" width="21.7" height="23.8"/>
<rect id="XMLID_1269_" x="829.9" y="385.1" class="st0" width="1" height="22.6"/>
<rect id="XMLID_1268_" x="823.1" y="385.1" class="st0" width="1" height="22.6"/>
<path id="XMLID_1267_" class="st0" d="M833.1,297.4c1.3,22.8-1.1,45.6-7,67.6l-1-0.3c5.8-21.9,8.2-44.6,6.9-67.3L833.1,297.4z"/>
<path id="XMLID_1266_" class="st0" d="M840.5,297.6c1.3,23.2-1,46.4-7,68.8l-1-0.3c5.9-22.3,8.3-45.4,7-68.5L840.5,297.6z"/>
<polygon id="XMLID_1264_" class="st0" points="706.6,529.9 706.6,529.8 706.6,529.8 "/>
<g id="Doors_14_">
	<path id="XMLID_41_" class="st0" d="M658.5,81v-0.2c0-8.8,7.1-15.9,15.8-15.9l0,0v0.5c-8.4,0-15.2,6.7-15.3,15.1h15.3V81L658.5,81
		L658.5,81L658.5,81z"/>
</g>
<g id="Doors_13_">
	<path id="XMLID_40_" class="st0" d="M658.5,126v-0.2c0-8.8,7.1-15.9,15.8-15.9l0,0v0.5c-8.4,0-15.2,6.7-15.3,15.1h15.3v0.5
		L658.5,126L658.5,126L658.5,126z"/>
</g>
<g id="stairs_4_">
	<polygon id="XMLID_89_" class="st0" points="679.2,233.7 653.3,260.2 654.4,260.2 680.5,233.7 	"/>
	<g id="stairs_2_">
		<rect id="XMLID_88_" x="632.7" y="207.2" class="st0" width="20.3" height="0.5"/>
		<rect id="XMLID_87_" x="632.7" y="213" class="st0" width="20.3" height="0.5"/>
		<rect id="XMLID_86_" x="632.7" y="218.8" class="st0" width="20.3" height="0.5"/>
		<rect id="XMLID_85_" x="632.7" y="224.7" class="st0" width="20.3" height="0.5"/>
		<rect id="XMLID_84_" x="632.7" y="230.5" class="st0" width="20.3" height="0.5"/>
		<rect id="XMLID_83_" x="632.7" y="236.3" class="st0" width="20.3" height="0.5"/>
		<rect id="XMLID_82_" x="632.7" y="242.2" class="st0" width="20.3" height="0.5"/>
		<rect id="XMLID_81_" x="632.7" y="248" class="st0" width="20.3" height="0.5"/>
		<rect id="XMLID_80_" x="632.7" y="253.8" class="st0" width="20.3" height="0.5"/>
		<rect id="XMLID_79_" x="632.7" y="259.7" class="st0" width="20.3" height="0.5"/>
		<rect id="XMLID_78_" x="654.4" y="259.7" class="st0" width="26.2" height="0.5"/>
		<rect id="XMLID_77_" x="659.6" y="253.8" class="st0" width="21" height="0.5"/>
		<rect id="XMLID_76_" x="665.3" y="248" class="st0" width="15.2" height="0.5"/>
		<rect id="XMLID_75_" x="671.3" y="242.2" class="st0" width="9.2" height="0.5"/>
		<rect id="XMLID_74_" x="653" y="207.2" class="st0" width="1.3" height="53"/>
		<rect id="XMLID_73_" x="679.2" y="233.7" class="st0" width="1.3" height="53"/>
		<path class="st0" d="M667.3,252l-1.5-2.6l-1.5,2.6h1.2v22.7h-22.5v-65.4c1-0.1,1.8-1,1.8-2.1c0-1.1-0.9-2.1-2.1-2.1
			c-1.1,0-2.1,0.9-2.1,2.1c0,1.1,0.8,1.9,1.8,2.1v65.4v0.5h0.5h22.5h0.4h0.1V252H667.3z"/>
	</g>
</g>
<g id="stairs">
	<polygon id="XMLID_67_" class="st0" points="679.2,345.9 653.3,319.5 654.4,319.5 680.5,345.9 	"/>
	<g id="stairs_1_">
		<rect id="XMLID_66_" x="632.7" y="372" class="st0" width="20.3" height="0.5"/>
		<rect id="XMLID_65_" x="632.7" y="366.1" class="st0" width="20.3" height="0.5"/>
		<rect id="XMLID_64_" x="632.7" y="360.3" class="st0" width="20.3" height="0.5"/>
		<rect id="XMLID_63_" x="632.7" y="354.5" class="st0" width="20.3" height="0.5"/>
		<rect id="XMLID_62_" x="632.7" y="348.6" class="st0" width="20.3" height="0.5"/>
		<rect id="XMLID_61_" x="632.7" y="342.8" class="st0" width="20.3" height="0.5"/>
		<rect id="XMLID_60_" x="632.7" y="337" class="st0" width="20.3" height="0.5"/>
		<rect id="XMLID_59_" x="632.7" y="331.1" class="st0" width="20.3" height="0.5"/>
		<rect id="XMLID_58_" x="632.7" y="325.3" class="st0" width="20.3" height="0.5"/>
		<rect id="XMLID_57_" x="632.7" y="319.5" class="st0" width="20.3" height="0.5"/>
		<rect id="XMLID_56_" x="654.4" y="319.5" class="st0" width="26.2" height="0.5"/>
		<rect id="XMLID_55_" x="659.6" y="325.3" class="st0" width="21" height="0.5"/>
		<rect id="XMLID_54_" x="665.3" y="331.1" class="st0" width="15.2" height="0.5"/>
		<rect id="XMLID_53_" x="671.3" y="337" class="st0" width="9.2" height="0.5"/>
		<rect id="XMLID_52_" x="653" y="319.5" class="st0" width="1.3" height="53"/>
		<rect id="XMLID_51_" x="679.2" y="293" class="st0" width="1.3" height="53"/>
		<path class="st0" d="M666.1,327.6v-23.2H666h-0.4h-22.5h-0.5v0.5v65.4c-1,0.1-1.8,1-1.8,2.1c0,1.1,0.9,2.1,2.1,2.1
			c1.1,0,2.1-0.9,2.1-2.1c0-1.1-0.8-1.9-1.8-2.1V305h22.5v22.7h-1.2l1.5,2.6l1.5-2.6H666.1z"/>
	</g>
</g>
<rect id="XMLID_1256_" x="640.1" y="646.1" class="st0" width="56.5" height="1"/>
<rect id="XMLID_1255_" x="640.1" y="639.3" class="st0" width="56.5" height="1"/>
<path id="XMLID_1254_" class="st0" d="M539.2,652.4l0.2,1c-22.8,5.4-46.2,7.5-69.6,6.4v-1C493.2,660,516.5,657.8,539.2,652.4z"/>
<path id="XMLID_1253_" class="st0" d="M541,659.7l0.2,1c-23.4,5.4-47.4,7.4-71.3,6.2v-1C493.8,667.2,517.7,665.1,541,659.7z"/>
<path id="XMLID_1252_" class="st0" d="M589.7,421.9c10.3,0,18.7-7.9,18.7-17.6v-0.2h-18.7v0.4h18.2c-0.1,9.4-8.3,17-18.2,17l0,0
	L589.7,421.9L589.7,421.9L589.7,421.9z"/>
<g id="Doors_12_">
	<path id="XMLID_39_" class="st0" d="M206.1,119.9v-0.2c0-7.6,7.1-13.8,15.8-13.8l0,0v0.4c-8.3,0-15.1,5.9-15.3,13.2h15.3v0.4
		L206.1,119.9L206.1,119.9L206.1,119.9z"/>
</g>
<g id="Doors_11_">
	<path id="XMLID_38_" class="st0" d="M205.5,461.4v0.2c0,7.6,7.1,13.8,15.8,13.8l0,0V475c-8.3,0-15.1-5.9-15.3-13.2h15.3v-0.4
		L205.5,461.4L205.5,461.4L205.5,461.4z"/>
</g>
<g id="Doors_10_">
	<path id="XMLID_37_" class="st0" d="M721.8,461.4v0.2c0,7.6-7.1,13.8-15.8,13.8l0,0V475c8.3,0,15.1-5.9,15.3-13.2H706v-0.4
		L721.8,461.4L721.8,461.4L721.8,461.4z"/>
</g>
<use xlink:href="#Doors_19_"  width="16.1" height="15.8" id="XMLID_1247_" x="-8" y="-7.9" transform="matrix(-8.390800e-011 0.8735 -0.9955 -8.390800e-011 713.3378 111.9556)" style="overflow:visible;"/>
<g id="Doors_9_">
	<path id="XMLID_36_" class="st0" d="M227.6,28.5h0.2c7.6,0,13.8,7.1,13.8,15.8l0,0h-0.4c0-8.4-5.9-15.2-13.2-15.3v15.3h-0.4
		L227.6,28.5L227.6,28.5L227.6,28.5z"/>
</g>
<g id="Doors_8_">
	<path id="XMLID_35_" class="st0" d="M227.6,553.1h0.2c7.6,0,13.8-7.1,13.8-15.9l0,0h-0.4c0,8.4-5.9,15.2-13.2,15.4v-15.4h-0.4
		L227.6,553.1L227.6,553.1L227.6,553.1z"/>
</g>
<g id="Doors_7_">
	<path id="XMLID_34_" class="st0" d="M699.8,553.1h-0.2c-7.6,0-13.8-7.1-13.8-15.9l0,0h0.4c0,8.4,5.9,15.2,13.2,15.4v-15.4h0.4
		L699.8,553.1L699.8,553.1L699.8,553.1z"/>
</g>
<g id="Doors_6_">
	<path id="XMLID_33_" class="st0" d="M699.8,28.5h-0.2c-7.6,0-13.8,7.1-13.8,15.8l0,0h0.4c0-8.4,5.9-15.2,13.2-15.3v15.3h0.4
		L699.8,28.5L699.8,28.5L699.8,28.5z"/>
</g>
<path id="XMLID_1237_" class="st0" d="M338,158.9c-10.3,0-18.7,7.5-18.7,16.7v0.2H338v-0.4h-18.2c0.1-8.9,8.3-16.1,18.2-16.1l0,0
	L338,158.9L338,158.9L338,158.9z"/>
<path id="XMLID_1235_" class="st0" d="M590.5,159c10.3,0,18.7,7.5,18.7,16.7v0.2h-18.7v-0.4h18.2c-0.1-8.9-8.3-16.1-18.2-16.1l0,0
	L590.5,159L590.5,159L590.5,159z"/>
<g class="st2">
	<path class="st0" d="M758.7,497.9l3.6-3.2c1.5-1.3,2.1-2.1,2.1-3.1c0-1.2-0.9-1.9-2-1.9c-1.1,0-1.9,0.6-2.6,1.7l-0.8-0.6
		c0.9-1.3,1.8-2.1,3.5-2.1c1.8,0,3.1,1.2,3.1,2.8c0,1.4-0.8,2.3-2.5,3.8l-2.6,2.3h5.2v1h-6.9V497.9z"/>
	<path class="st0" d="M767.2,497.3l0.7-0.8c0.9,0.8,1.8,1.4,2.8,1.4c1.4,0,2.4-0.9,2.4-2.2c0-1.2-1-2.1-2.5-2.1
		c-0.8,0-1.5,0.3-2.1,0.6l-0.7-0.5l0.3-4.8h5.7v1h-4.7l-0.2,3.2c0.6-0.3,1.1-0.4,1.9-0.4c1.9,0,3.4,1.1,3.4,3c0,1.9-1.5,3.2-3.5,3.2
		C769.3,498.9,768.1,498.2,767.2,497.3z"/>
	<path class="st0" d="M775.7,500c0.6-0.2,0.9-0.6,0.9-1.1v-0.1h-0.5v-1.5h1.3v1.3c0,1.1-0.5,1.7-1.6,1.9L775.7,500z"/>
	<path class="st0" d="M784.6,496.4h-5.2l-0.3-0.8l5.6-6.8h1v6.7h1.5v0.9h-1.5v2.3h-1.1V496.4z M784.6,495.5v-5.1l-4.1,5.1H784.6z"/>
</g>
<g class="st2">
	<path class="st0" d="M332.7,606.7l-1.9,0.6l-0.3-0.9l2.4-0.8h0.8v9.9h-1.1V606.7z"/>
	<path class="st0" d="M336.3,614.4l0.6-0.9c0.8,0.7,1.5,1.1,2.4,1.1c1.7,0,2.9-1.7,2.9-4.2v-0.1c-0.5,0.9-1.4,1.6-2.8,1.6
		c-2,0-3.4-1.3-3.4-3.1c0-1.9,1.5-3.4,3.5-3.4c2.2,0,3.8,1.3,3.8,4.9c0,3.1-1.7,5.3-4.1,5.3C338.1,615.7,337.1,615.1,336.3,614.4z
		 M342.1,608.7c0-1.3-1-2.2-2.5-2.2c-1.5,0-2.4,1.1-2.4,2.3c0,1.3,1,2.2,2.4,2.2C341.2,610.9,342.1,609.8,342.1,608.7z"/>
	<path class="st0" d="M344.8,616.7c0.6-0.2,0.9-0.6,0.9-1.1v-0.1h-0.5V614h1.3v1.3c0,1.1-0.5,1.7-1.6,1.9L344.8,616.7z"/>
	<path class="st0" d="M353.7,613.1h-5.2l-0.3-0.8l5.6-6.8h1v6.7h1.5v0.9h-1.5v2.3h-1.1V613.1z M353.7,612.2v-5.1l-4.1,5.1H353.7z"/>
</g>
<g class="st2">
	<path class="st0" d="M408.1,613.9l0.8-0.7c0.8,0.9,1.7,1.5,2.9,1.5c1.2,0,2.2-0.8,2.2-1.9c0-1.2-1.1-1.9-2.8-1.9h-0.6l-0.2-0.7
		l3.1-3.5h-4.8v-1h6.3v0.8l-3.1,3.4c1.7,0.1,3.3,1,3.3,2.8c0,1.8-1.5,3-3.3,3C410.2,615.7,408.9,614.9,408.1,613.9z"/>
	<path class="st0" d="M417.2,614.4l0.6-0.9c0.8,0.7,1.5,1.1,2.4,1.1c1.7,0,2.9-1.7,2.9-4.2v-0.1c-0.5,0.9-1.4,1.6-2.8,1.6
		c-2,0-3.4-1.3-3.4-3.1c0-1.9,1.5-3.4,3.5-3.4c2.2,0,3.8,1.3,3.8,4.9c0,3.1-1.7,5.3-4.1,5.3C418.9,615.7,418,615.1,417.2,614.4z
		 M423,608.7c0-1.3-1-2.2-2.5-2.2c-1.5,0-2.4,1.1-2.4,2.3c0,1.3,1,2.2,2.4,2.2C422,610.9,423,609.8,423,608.7z"/>
	<path class="st0" d="M425.7,616.7c0.6-0.2,0.9-0.6,0.9-1.1v-0.1h-0.5V614h1.3v1.3c0,1.1-0.5,1.7-1.6,1.9L425.7,616.7z"/>
	<path class="st0" d="M430.3,606.7l-1.9,0.6l-0.3-0.9l2.4-0.8h0.8v9.9h-1.1V606.7z"/>
</g>
<g class="st2">
	<path class="st0" d="M146.3,496.3l3.6-3.2c1.5-1.3,2.1-2.1,2.1-3.1c0-1.2-0.9-1.9-2-1.9c-1.1,0-1.9,0.6-2.6,1.7l-0.8-0.6
		c0.9-1.3,1.8-2.1,3.5-2.1c1.8,0,3.1,1.2,3.1,2.8c0,1.4-0.8,2.3-2.5,3.8l-2.6,2.3h5.2v1h-6.9V496.3z"/>
	<path class="st0" d="M154.8,495.7l0.7-0.8c0.9,0.8,1.8,1.4,2.8,1.4c1.4,0,2.4-0.9,2.4-2.2c0-1.2-1-2.1-2.5-2.1
		c-0.8,0-1.5,0.3-2.1,0.6l-0.7-0.5l0.3-4.8h5.7v1h-4.7l-0.2,3.2c0.6-0.3,1.1-0.4,1.9-0.4c1.9,0,3.4,1.1,3.4,3c0,1.9-1.5,3.2-3.5,3.2
		C156.9,497.3,155.7,496.6,154.8,495.7z"/>
	<path class="st0" d="M163.4,498.4c0.6-0.2,0.9-0.6,0.9-1.1v-0.1h-0.5v-1.5h1.3v1.3c0,1.1-0.5,1.7-1.6,1.9L163.4,498.4z"/>
	<path class="st0" d="M172.2,494.8H167l-0.3-0.8l5.6-6.8h1v6.7h1.5v0.9h-1.5v2.3h-1.1V494.8z M172.2,493.9v-5.1l-4.1,5.1H172.2z"/>
</g>
<g class="st2">
	<path class="st0" d="M146.4,244.6c0-1.2,0.8-2,2-2.4c-0.9-0.4-1.7-1.1-1.7-2.3c0-1.5,1.6-2.6,3.4-2.6s3.4,1.1,3.4,2.6
		c0,1.1-0.8,1.8-1.7,2.3c1.2,0.4,2,1.2,2,2.4c0,1.7-1.6,2.8-3.7,2.8S146.4,246.3,146.4,244.6z M152.7,244.6c0-1.1-1.1-1.9-2.6-1.9
		s-2.6,0.8-2.6,1.9c0,1,1,1.8,2.6,1.8S152.7,245.6,152.7,244.6z M152.3,240c0-1-1-1.7-2.3-1.7s-2.3,0.7-2.3,1.7c0,1.1,1,1.8,2.3,1.8
		S152.3,241.1,152.3,240z"/>
	<path class="st0" d="M155.2,246.5l3.6-3.2c1.5-1.3,2.1-2.1,2.1-3.1c0-1.2-0.9-1.9-2-1.9c-1.1,0-1.9,0.6-2.6,1.7l-0.8-0.6
		c0.9-1.3,1.8-2.1,3.5-2.1c1.8,0,3.1,1.2,3.1,2.8c0,1.4-0.8,2.3-2.5,3.8l-2.6,2.3h5.2v1h-6.9V246.5z"/>
	<path class="st0" d="M163.6,248.5c0.6-0.2,0.9-0.6,0.9-1.1v-0.1H164v-1.5h1.3v1.3c0,1.1-0.5,1.7-1.6,1.9L163.6,248.5z"/>
	<path class="st0" d="M167.3,242.6c0-3,1.5-5.4,4.1-5.4c1.2,0,2.1,0.4,2.9,1.1l-0.6,0.9c-0.7-0.6-1.4-1-2.3-1
		c-1.8,0-2.9,1.8-2.9,4.3v0c0.5-0.8,1.4-1.5,2.8-1.5c1.8,0,3.4,1.2,3.4,3.1c0,1.9-1.5,3.3-3.5,3.3
		C168.9,247.5,167.3,246.1,167.3,242.6z M173.5,244.2c0-1.2-1-2.1-2.4-2.1c-1.5,0-2.5,1.1-2.5,2.2c0,1.3,1,2.2,2.5,2.2
		S173.5,245.5,173.5,244.2z"/>
</g>
<g class="st2">
	<path class="st0" d="M146.4,371.9c0-1.2,0.8-2,2-2.4c-0.9-0.4-1.7-1.1-1.7-2.3c0-1.5,1.6-2.6,3.4-2.6s3.4,1.1,3.4,2.6
		c0,1.1-0.8,1.8-1.7,2.3c1.2,0.4,2,1.2,2,2.4c0,1.7-1.6,2.8-3.7,2.8S146.4,373.6,146.4,371.9z M152.7,371.9c0-1.1-1.1-1.9-2.6-1.9
		s-2.6,0.8-2.6,1.9c0,1,1,1.8,2.6,1.8S152.7,372.9,152.7,371.9z M152.3,367.2c0-1-1-1.7-2.3-1.7s-2.3,0.7-2.3,1.7
		c0,1.1,1,1.8,2.3,1.8S152.3,368.3,152.3,367.2z"/>
	<path class="st0" d="M155.2,373.7l3.6-3.2c1.5-1.3,2.1-2.1,2.1-3.1c0-1.2-0.9-1.9-2-1.9c-1.1,0-1.9,0.6-2.6,1.7l-0.8-0.6
		c0.9-1.3,1.8-2.1,3.5-2.1c1.8,0,3.1,1.2,3.1,2.8c0,1.4-0.8,2.3-2.5,3.8l-2.6,2.3h5.2v1h-6.9V373.7z"/>
	<path class="st0" d="M163.6,375.8c0.6-0.2,0.9-0.6,0.9-1.1v-0.1H164v-1.5h1.3v1.3c0,1.1-0.5,1.7-1.6,1.9L163.6,375.8z"/>
	<path class="st0" d="M167.3,369.9c0-3,1.5-5.4,4.1-5.4c1.2,0,2.1,0.4,2.9,1.1l-0.6,0.9c-0.7-0.6-1.4-1-2.3-1
		c-1.8,0-2.9,1.8-2.9,4.3v0c0.5-0.8,1.4-1.5,2.8-1.5c1.8,0,3.4,1.2,3.4,3.1c0,1.9-1.5,3.3-3.5,3.3
		C168.9,374.7,167.3,373.4,167.3,369.9z M173.5,371.5c0-1.2-1-2.1-2.4-2.1c-1.5,0-2.5,1.1-2.5,2.2c0,1.3,1,2.2,2.5,2.2
		S173.5,372.7,173.5,371.5z"/>
</g>
<g class="st2">
	<path class="st0" d="M758.7,94l3.6-3.2c1.5-1.3,2.1-2.1,2.1-3.1c0-1.2-0.9-1.9-2-1.9c-1.1,0-1.9,0.6-2.6,1.7l-0.8-0.6
		c0.9-1.3,1.8-2.1,3.5-2.1c1.8,0,3.1,1.2,3.1,2.8c0,1.4-0.8,2.3-2.5,3.8l-2.6,2.3h5.2v1h-6.9V94z"/>
	<path class="st0" d="M767.2,93.4l0.7-0.8c0.9,0.8,1.8,1.4,2.8,1.4c1.4,0,2.4-0.9,2.4-2.2c0-1.2-1-2.1-2.5-2.1
		c-0.8,0-1.5,0.3-2.1,0.6l-0.7-0.5l0.3-4.8h5.7v1h-4.7l-0.2,3.2c0.6-0.3,1.1-0.4,1.9-0.4c1.9,0,3.4,1.1,3.4,3c0,1.9-1.5,3.2-3.5,3.2
		C769.3,95,768.1,94.3,767.2,93.4z"/>
	<path class="st0" d="M775.7,96c0.6-0.2,0.9-0.6,0.9-1.1v-0.1h-0.5v-1.5h1.3v1.3c0,1.1-0.5,1.7-1.6,1.9L775.7,96z"/>
	<path class="st0" d="M784.6,92.5h-5.2l-0.3-0.8l5.6-6.8h1v6.7h1.5v0.9h-1.5v2.3h-1.1V92.5z M784.6,91.5v-5.1l-4.1,5.1H784.6z"/>
</g>
<g class="st2">
	<path class="st0" d="M146.3,94l3.6-3.2c1.5-1.3,2.1-2.1,2.1-3.1c0-1.2-0.9-1.9-2-1.9c-1.1,0-1.9,0.6-2.6,1.7l-0.8-0.6
		c0.9-1.3,1.8-2.1,3.5-2.1c1.8,0,3.1,1.2,3.1,2.8c0,1.4-0.8,2.3-2.5,3.8l-2.6,2.3h5.2v1h-6.9V94z"/>
	<path class="st0" d="M154.8,93.4l0.7-0.8c0.9,0.8,1.8,1.4,2.8,1.4c1.4,0,2.4-0.9,2.4-2.2c0-1.2-1-2.1-2.5-2.1
		c-0.8,0-1.5,0.3-2.1,0.6l-0.7-0.5l0.3-4.8h5.7v1h-4.7l-0.2,3.2c0.6-0.3,1.1-0.4,1.9-0.4c1.9,0,3.4,1.1,3.4,3c0,1.9-1.5,3.2-3.5,3.2
		C156.9,95,155.7,94.3,154.8,93.4z"/>
	<path class="st0" d="M163.4,96c0.6-0.2,0.9-0.6,0.9-1.1v-0.1h-0.5v-1.5h1.3v1.3c0,1.1-0.5,1.7-1.6,1.9L163.4,96z"/>
	<path class="st0" d="M172.2,92.5H167l-0.3-0.8l5.6-6.8h1v6.7h1.5v0.9h-1.5v2.3h-1.1V92.5z M172.2,91.5v-5.1l-4.1,5.1H172.2z"/>
</g>
<g class="st2">
	<path class="st0" d="M332.7-31.2l-1.9,0.6l-0.3-0.9l2.4-0.8h0.8v9.9h-1.1V-31.2z"/>
	<path class="st0" d="M336.3-23.5l0.6-0.9c0.8,0.7,1.5,1.1,2.4,1.1c1.7,0,2.9-1.7,2.9-4.2v-0.1c-0.5,0.9-1.4,1.6-2.8,1.6
		c-2,0-3.4-1.3-3.4-3.1c0-1.9,1.5-3.4,3.5-3.4c2.2,0,3.8,1.3,3.8,4.9c0,3.1-1.7,5.3-4.1,5.3C338.1-22.3,337.1-22.8,336.3-23.5z
		 M342.1-29.2c0-1.3-1-2.2-2.5-2.2c-1.5,0-2.4,1.1-2.4,2.3c0,1.3,1,2.2,2.4,2.2C341.2-27,342.1-28.1,342.1-29.2z"/>
	<path class="st0" d="M344.8-21.2c0.6-0.2,0.9-0.6,0.9-1.1v-0.1h-0.5v-1.5h1.3v1.3c0,1.1-0.5,1.7-1.6,1.9L344.8-21.2z"/>
	<path class="st0" d="M353.7-24.8h-5.2l-0.3-0.8l5.6-6.8h1v6.7h1.5v0.9h-1.5v2.3h-1.1V-24.8z M353.7-25.7v-5.1l-4.1,5.1H353.7z"/>
</g>
<g class="st2">
	<path class="st0" d="M570.4-31.2l-1.9,0.6l-0.3-0.9l2.4-0.8h0.8v9.9h-1.1V-31.2z"/>
	<path class="st0" d="M574.1-23.5l0.6-0.9c0.8,0.7,1.5,1.1,2.4,1.1c1.7,0,2.9-1.7,2.9-4.2v-0.1c-0.5,0.9-1.4,1.6-2.8,1.6
		c-2,0-3.4-1.3-3.4-3.1c0-1.9,1.5-3.4,3.5-3.4c2.2,0,3.8,1.3,3.8,4.9c0,3.1-1.7,5.3-4.1,5.3C575.8-22.3,574.9-22.8,574.1-23.5z
		 M579.8-29.2c0-1.3-1-2.2-2.5-2.2c-1.5,0-2.4,1.1-2.4,2.3c0,1.3,1,2.2,2.4,2.2C578.9-27,579.8-28.1,579.8-29.2z"/>
	<path class="st0" d="M582.6-21.2c0.6-0.2,0.9-0.6,0.9-1.1v-0.1H583v-1.5h1.3v1.3c0,1.1-0.5,1.7-1.6,1.9L582.6-21.2z"/>
	<path class="st0" d="M591.5-24.8h-5.2l-0.3-0.8l5.6-6.8h1v6.7h1.5v0.9h-1.5v2.3h-1.1V-24.8z M591.5-25.7v-5.1l-4.1,5.1H591.5z"/>
</g>
<g class="st2">
	<path class="st0" d="M408.1-24l0.8-0.7c0.8,0.9,1.7,1.5,2.9,1.5c1.2,0,2.2-0.8,2.2-1.9c0-1.2-1.1-1.9-2.8-1.9h-0.6l-0.2-0.7
		l3.1-3.5h-4.8v-1h6.3v0.8l-3.1,3.4c1.7,0.1,3.3,1,3.3,2.8c0,1.8-1.5,3-3.3,3C410.2-22.3,408.9-23,408.1-24z"/>
	<path class="st0" d="M417.2-23.5l0.6-0.9c0.8,0.7,1.5,1.1,2.4,1.1c1.7,0,2.9-1.7,2.9-4.2v-0.1c-0.5,0.9-1.4,1.6-2.8,1.6
		c-2,0-3.4-1.3-3.4-3.1c0-1.9,1.5-3.4,3.5-3.4c2.2,0,3.8,1.3,3.8,4.9c0,3.1-1.7,5.3-4.1,5.3C418.9-22.3,418-22.8,417.2-23.5z
		 M423-29.2c0-1.3-1-2.2-2.5-2.2c-1.5,0-2.4,1.1-2.4,2.3c0,1.3,1,2.2,2.4,2.2C422-27,423-28.1,423-29.2z"/>
	<path class="st0" d="M425.7-21.2c0.6-0.2,0.9-0.6,0.9-1.1v-0.1h-0.5v-1.5h1.3v1.3c0,1.1-0.5,1.7-1.6,1.9L425.7-21.2z"/>
	<path class="st0" d="M430.3-31.2l-1.9,0.6l-0.3-0.9l2.4-0.8h0.8v9.9h-1.1V-31.2z"/>
</g>
<g class="st2">
	<path class="st0" d="M495.2-24l0.8-0.7c0.8,0.9,1.7,1.5,2.9,1.5c1.2,0,2.2-0.8,2.2-1.9c0-1.2-1.1-1.9-2.8-1.9h-0.6l-0.2-0.7
		l3.1-3.5h-4.8v-1h6.3v0.8l-3.1,3.4c1.7,0.1,3.3,1,3.3,2.8c0,1.8-1.5,3-3.3,3C497.2-22.3,496-23,495.2-24z"/>
	<path class="st0" d="M504.2-23.5l0.6-0.9c0.8,0.7,1.5,1.1,2.4,1.1c1.7,0,2.9-1.7,2.9-4.2v-0.1c-0.5,0.9-1.4,1.6-2.8,1.6
		c-2,0-3.4-1.3-3.4-3.1c0-1.9,1.5-3.4,3.5-3.4c2.2,0,3.8,1.3,3.8,4.9c0,3.1-1.7,5.3-4.1,5.3C506-22.3,505-22.8,504.2-23.5z
		 M510-29.2c0-1.3-1-2.2-2.5-2.2s-2.4,1.1-2.4,2.3c0,1.3,1,2.2,2.4,2.2C509.1-27,510-28.1,510-29.2z"/>
	<path class="st0" d="M512.7-21.2c0.6-0.2,0.9-0.6,0.9-1.1v-0.1h-0.5v-1.5h1.3v1.3c0,1.1-0.5,1.7-1.6,1.9L512.7-21.2z"/>
	<path class="st0" d="M517.3-31.2l-1.9,0.6l-0.3-0.9l2.4-0.8h0.8v9.9h-1.1V-31.2z"/>
</g>
<g class="st2">
	<path class="st0" d="M570.4,606.4l-1.9,0.6l-0.3-0.9l2.4-0.8h0.8v9.9h-1.1V606.4z"/>
	<path class="st0" d="M574.1,614.1l0.6-0.9c0.8,0.7,1.5,1.1,2.4,1.1c1.7,0,2.9-1.7,2.9-4.2V610c-0.5,0.9-1.4,1.6-2.8,1.6
		c-2,0-3.4-1.3-3.4-3.1c0-1.9,1.5-3.4,3.5-3.4c2.2,0,3.8,1.3,3.8,4.9c0,3.1-1.7,5.3-4.1,5.3C575.8,615.3,574.9,614.8,574.1,614.1z
		 M579.8,608.3c0-1.3-1-2.2-2.5-2.2c-1.5,0-2.4,1.1-2.4,2.3c0,1.3,1,2.2,2.4,2.2C578.9,610.6,579.8,609.5,579.8,608.3z"/>
	<path class="st0" d="M582.6,616.4c0.6-0.2,0.9-0.6,0.9-1.1v-0.1H583v-1.5h1.3v1.3c0,1.1-0.5,1.7-1.6,1.9L582.6,616.4z"/>
	<path class="st0" d="M591.5,612.8h-5.2L586,612l5.6-6.8h1v6.7h1.5v0.9h-1.5v2.3h-1.1V612.8z M591.5,611.9v-5.1l-4.1,5.1H591.5z"/>
</g>
<g class="st2">
	<path class="st0" d="M495.2,613.6l0.8-0.7c0.8,0.9,1.7,1.5,2.9,1.5c1.2,0,2.2-0.8,2.2-1.9c0-1.2-1.1-1.9-2.8-1.9h-0.6l-0.2-0.7
		l3.1-3.5h-4.8v-1h6.3v0.8l-3.1,3.4c1.7,0.1,3.3,1,3.3,2.8c0,1.8-1.5,3-3.3,3C497.2,615.3,496,614.6,495.2,613.6z"/>
	<path class="st0" d="M504.2,614.1l0.6-0.9c0.8,0.7,1.5,1.1,2.4,1.1c1.7,0,2.9-1.7,2.9-4.2V610c-0.5,0.9-1.4,1.6-2.8,1.6
		c-2,0-3.4-1.3-3.4-3.1c0-1.9,1.5-3.4,3.5-3.4c2.2,0,3.8,1.3,3.8,4.9c0,3.1-1.7,5.3-4.1,5.3C506,615.3,505,614.8,504.2,614.1z
		 M510,608.3c0-1.3-1-2.2-2.5-2.2s-2.4,1.1-2.4,2.3c0,1.3,1,2.2,2.4,2.2C509.1,610.6,510,609.5,510,608.3z"/>
	<path class="st0" d="M512.7,616.4c0.6-0.2,0.9-0.6,0.9-1.1v-0.1h-0.5v-1.5h1.3v1.3c0,1.1-0.5,1.7-1.6,1.9L512.7,616.4z"/>
	<path class="st0" d="M517.3,606.4l-1.9,0.6l-0.3-0.9l2.4-0.8h0.8v9.9h-1.1V606.4z"/>
</g>
<g class="st2">
	<path class="st0" d="M662.8-23.3l3.6-3.2c1.5-1.3,2.1-2.1,2.1-3.1c0-1.2-0.9-1.9-2-1.9c-1.1,0-1.9,0.6-2.6,1.7l-0.8-0.6
		c0.9-1.3,1.8-2.1,3.5-2.1c1.8,0,3.1,1.2,3.1,2.8c0,1.4-0.8,2.3-2.5,3.8l-2.6,2.3h5.2v1h-6.9V-23.3z"/>
	<path class="st0" d="M671.3-23.3l3.6-3.2c1.5-1.3,2.1-2.1,2.1-3.1c0-1.2-0.9-1.9-2-1.9c-1.1,0-1.9,0.6-2.6,1.7l-0.8-0.6
		c0.9-1.3,1.8-2.1,3.5-2.1c1.8,0,3.1,1.2,3.1,2.8c0,1.4-0.8,2.3-2.5,3.8l-2.6,2.3h5.2v1h-6.9V-23.3z"/>
	<path class="st0" d="M679.7-21.2c0.6-0.2,0.9-0.6,0.9-1.1v-0.1h-0.5v-1.5h1.3v1.3c0,1.1-0.5,1.7-1.6,1.9L679.7-21.2z"/>
	<path class="st0" d="M688.6-24.8h-5.2l-0.3-0.8l5.6-6.8h1v6.7h1.5v0.9h-1.5v2.3h-1.1V-24.8z M688.6-25.7v-5.1l-4.1,5.1H688.6z"/>
</g>
<g class="st2">
	<path class="st0" d="M237.6-23.3l3.6-3.2c1.5-1.3,2.1-2.1,2.1-3.1c0-1.2-0.9-1.9-2-1.9c-1.1,0-1.9,0.6-2.6,1.7l-0.8-0.6
		c0.9-1.3,1.8-2.1,3.5-2.1c1.8,0,3.1,1.2,3.1,2.8c0,1.4-0.8,2.3-2.5,3.8l-2.6,2.3h5.2v1h-6.9V-23.3z"/>
	<path class="st0" d="M246-23.3l3.6-3.2c1.5-1.3,2.1-2.1,2.1-3.1c0-1.2-0.9-1.9-2-1.9c-1.1,0-1.9,0.6-2.6,1.7l-0.8-0.6
		c0.9-1.3,1.8-2.1,3.5-2.1c1.8,0,3.1,1.2,3.1,2.8c0,1.4-0.8,2.3-2.5,3.8l-2.6,2.3h5.2v1H246V-23.3z"/>
	<path class="st0" d="M254.4-21.2c0.6-0.2,0.9-0.6,0.9-1.1v-0.1h-0.5v-1.5h1.3v1.3c0,1.1-0.5,1.7-1.6,1.9L254.4-21.2z"/>
	<path class="st0" d="M263.3-24.8h-5.2l-0.3-0.8l5.6-6.8h1v6.7h1.5v0.9h-1.5v2.3h-1.1V-24.8z M263.3-25.7v-5.1l-4.1,5.1H263.3z"/>
</g>
<g class="st2">
	<path class="st0" d="M761.5,245.8c0-1.2,0.8-2,2-2.4c-0.9-0.4-1.7-1.1-1.7-2.3c0-1.5,1.6-2.6,3.4-2.6s3.4,1.1,3.4,2.6
		c0,1.1-0.8,1.8-1.7,2.3c1.2,0.4,2,1.2,2,2.4c0,1.7-1.6,2.8-3.7,2.8S761.5,247.5,761.5,245.8z M767.8,245.8c0-1.1-1.1-1.9-2.6-1.9
		s-2.6,0.8-2.6,1.9c0,1,1,1.8,2.6,1.8C766.8,247.7,767.8,246.8,767.8,245.8z M767.5,241.2c0-1-1-1.7-2.3-1.7c-1.3,0-2.3,0.7-2.3,1.7
		c0,1.1,1,1.8,2.3,1.8C766.5,243,767.5,242.3,767.5,241.2z"/>
	<path class="st0" d="M770.3,247.7l3.6-3.2c1.5-1.3,2.1-2.1,2.1-3.1c0-1.2-0.9-1.9-2-1.9c-1.1,0-1.9,0.6-2.6,1.7l-0.8-0.6
		c0.9-1.3,1.8-2.1,3.5-2.1c1.8,0,3.1,1.2,3.1,2.8c0,1.4-0.8,2.3-2.5,3.8l-2.6,2.3h5.2v1h-6.9V247.7z"/>
	<path class="st0" d="M778.7,249.7c0.6-0.2,0.9-0.6,0.9-1.1v-0.1h-0.5V247h1.3v1.3c0,1.1-0.5,1.7-1.6,1.9L778.7,249.7z"/>
	<path class="st0" d="M782.4,243.8c0-3,1.5-5.4,4.1-5.4c1.2,0,2.1,0.4,2.9,1.1l-0.6,0.9c-0.7-0.6-1.4-1-2.3-1
		c-1.8,0-2.9,1.8-2.9,4.3v0c0.5-0.8,1.4-1.5,2.8-1.5c1.8,0,3.4,1.2,3.4,3.1c0,1.9-1.5,3.3-3.5,3.3
		C784,248.7,782.4,247.3,782.4,243.8z M788.6,245.4c0-1.2-1-2.1-2.4-2.1c-1.5,0-2.5,1.1-2.5,2.2c0,1.3,1,2.2,2.5,2.2
		C787.7,247.7,788.6,246.7,788.6,245.4z"/>
</g>
<g class="st2">
	<path class="st0" d="M761.5,371.9c0-1.2,0.8-2,2-2.4c-0.9-0.4-1.7-1.1-1.7-2.3c0-1.5,1.6-2.6,3.4-2.6s3.4,1.1,3.4,2.6
		c0,1.1-0.8,1.8-1.7,2.3c1.2,0.4,2,1.2,2,2.4c0,1.7-1.6,2.8-3.7,2.8S761.5,373.6,761.5,371.9z M767.8,371.9c0-1.1-1.1-1.9-2.6-1.9
		s-2.6,0.8-2.6,1.9c0,1,1,1.8,2.6,1.8C766.8,373.7,767.8,372.9,767.8,371.9z M767.5,367.2c0-1-1-1.7-2.3-1.7c-1.3,0-2.3,0.7-2.3,1.7
		c0,1.1,1,1.8,2.3,1.8C766.5,369.1,767.5,368.3,767.5,367.2z"/>
	<path class="st0" d="M770.3,373.7l3.6-3.2c1.5-1.3,2.1-2.1,2.1-3.1c0-1.2-0.9-1.9-2-1.9c-1.1,0-1.9,0.6-2.6,1.7l-0.8-0.6
		c0.9-1.3,1.8-2.1,3.5-2.1c1.8,0,3.1,1.2,3.1,2.8c0,1.4-0.8,2.3-2.5,3.8l-2.6,2.3h5.2v1h-6.9V373.7z"/>
	<path class="st0" d="M778.7,375.8c0.6-0.2,0.9-0.6,0.9-1.1v-0.1h-0.5v-1.5h1.3v1.3c0,1.1-0.5,1.7-1.6,1.9L778.7,375.8z"/>
	<path class="st0" d="M782.4,369.9c0-3,1.5-5.4,4.1-5.4c1.2,0,2.1,0.4,2.9,1.1l-0.6,0.9c-0.7-0.6-1.4-1-2.3-1
		c-1.8,0-2.9,1.8-2.9,4.3v0c0.5-0.8,1.4-1.5,2.8-1.5c1.8,0,3.4,1.2,3.4,3.1c0,1.9-1.5,3.3-3.5,3.3
		C784,374.7,782.4,373.4,782.4,369.9z M788.6,371.5c0-1.2-1-2.1-2.4-2.1c-1.5,0-2.5,1.1-2.5,2.2c0,1.3,1,2.2,2.5,2.2
		C787.7,373.7,788.6,372.7,788.6,371.5z"/>
</g>
<g class="st2">
	<path class="st0" d="M663.9,614.3l3.6-3.2c1.5-1.3,2.1-2.1,2.1-3.1c0-1.2-0.9-1.9-2-1.9c-1.1,0-1.9,0.6-2.6,1.7l-0.8-0.6
		c0.9-1.3,1.8-2.1,3.5-2.1c1.8,0,3.1,1.2,3.1,2.8c0,1.4-0.8,2.3-2.5,3.8l-2.6,2.3h5.2v1h-6.9V614.3z"/>
	<path class="st0" d="M672.3,614.3l3.6-3.2c1.5-1.3,2.1-2.1,2.1-3.1c0-1.2-0.9-1.9-2-1.9c-1.1,0-1.9,0.6-2.6,1.7l-0.8-0.6
		c0.9-1.3,1.8-2.1,3.5-2.1c1.8,0,3.1,1.2,3.1,2.8c0,1.4-0.8,2.3-2.5,3.8l-2.6,2.3h5.2v1h-6.9V614.3z"/>
	<path class="st0" d="M680.7,616.4c0.6-0.2,0.9-0.6,0.9-1.1v-0.1h-0.5v-1.5h1.3v1.3c0,1.1-0.5,1.7-1.6,1.9L680.7,616.4z"/>
	<path class="st0" d="M689.6,612.8h-5.2l-0.3-0.8l5.6-6.8h1v6.7h1.5v0.9h-1.5v2.3h-1.1V612.8z M689.6,611.9v-5.1l-4.1,5.1H689.6z"/>
</g>
<g class="st2">
	<path class="st0" d="M237.6,614.3l3.6-3.2c1.5-1.3,2.1-2.1,2.1-3.1c0-1.2-0.9-1.9-2-1.9c-1.1,0-1.9,0.6-2.6,1.7l-0.8-0.6
		c0.9-1.3,1.8-2.1,3.5-2.1c1.8,0,3.1,1.2,3.1,2.8c0,1.4-0.8,2.3-2.5,3.8l-2.6,2.3h5.2v1h-6.9V614.3z"/>
	<path class="st0" d="M246,614.3l3.6-3.2c1.5-1.3,2.1-2.1,2.1-3.1c0-1.2-0.9-1.9-2-1.9c-1.1,0-1.9,0.6-2.6,1.7l-0.8-0.6
		c0.9-1.3,1.8-2.1,3.5-2.1c1.8,0,3.1,1.2,3.1,2.8c0,1.4-0.8,2.3-2.5,3.8l-2.6,2.3h5.2v1H246V614.3z"/>
	<path class="st0" d="M254.4,616.4c0.6-0.2,0.9-0.6,0.9-1.1v-0.1h-0.5v-1.5h1.3v1.3c0,1.1-0.5,1.7-1.6,1.9L254.4,616.4z"/>
	<path class="st0" d="M263.3,612.8h-5.2l-0.3-0.8l5.6-6.8h1v6.7h1.5v0.9h-1.5v2.3h-1.1V612.8z M263.3,611.9v-5.1l-4.1,5.1H263.3z"/>
</g>
<g id="XMLID_564_">
	<polygon id="XMLID_565_" class="st0" points="378,31.8 373.6,31.8 373.6,34.9 378,34.9 378,57.2 383,57.2 383,-69 383.4,-69 
		389.7,-70.8 387.7,-79.5 384.9,-78.5 384.8,-76.8 371.7,-76.8 371.7,-69 378,-69 378,31.8 	"/>
	<polygon id="XMLID_566_" class="st0" points="544.1,-69 544.1,57.3 549.8,57.3 549.8,34.7 553.2,34.7 553.2,30.9 549.8,30.9 
		549.8,-68.7 556,-68.7 556,-76.4 544,-76.4 544.2,-78 540.1,-79 537.7,-70.4 543,-69 	"/>
</g>
<path id="XMLID_1004_" class="st0" d="M394.3,80.2h-11.5v-0.4h11.3c-0.1-6.1-5.1-11.1-11.2-11.1l0,0v-0.4l0,0
	c6.4,0,11.6,5.2,11.6,11.6v0.2H394.3L394.3,80.2z"/>
<path id="XMLID_1003_" class="st0" d="M394.4,56.9h-11.5v0.4h11.3c-0.1,6.2-5.1,11.1-11.3,11.1l0,0v0.4l0,0
	c6.4,0,11.7-5.2,11.7-11.6v-0.2L394.4,56.9z"/>
<path id="XMLID_1006_" class="st0" d="M532.7,80.2h11.5v-0.4h-11.3c0.1-6.1,5.1-11.1,11.2-11.1l0,0v-0.4l0,0
	c-6.4,0-11.6,5.2-11.6,11.6v0.2H532.7L532.7,80.2z"/>
<path id="XMLID_1005_" class="st0" d="M532.6,56.9h11.5v0.4h-11.3c0.1,6.2,5.1,11.1,11.3,11.1l0,0v0.4l0,0
	c-6.4,0-11.7-5.2-11.7-11.6v-0.2L532.6,56.9z"/>
<g id="Doors_5_">
	<path id="XMLID_32_" class="st0" d="M369.6,110.1h-0.3c-9.6,0-17.4,7.8-17.4,17.5l0,0h0.6c0-9.3,7.4-16.8,16.6-17v17h0.6
		L369.6,110.1L369.6,110.1L369.6,110.1z"/>
</g>
<g id="Doors_4_">
	<path id="XMLID_31_" class="st0" d="M557.9,110.1h0.3c9.6,0,17.4,7.8,17.4,17.5l0,0h-0.6c0-9.3-7.4-16.8-16.6-17v17h-0.6
		L557.9,110.1L557.9,110.1L557.9,110.1z"/>
</g>
<g id="Doors_3_">
	<path id="XMLID_30_" class="st0" d="M369.6,471.7h-0.3c-9.6,0-17.4-7.8-17.4-17.5l0,0h0.6c0,9.3,7.4,16.8,16.6,17v-17h0.6
		L369.6,471.7L369.6,471.7L369.6,471.7z"/>
</g>
<g id="Doors_2_">
	<path id="XMLID_29_" class="st0" d="M560.2,471.7h0.3c9.6,0,17.4-7.8,17.4-17.5l0,0h-0.6c0,9.3-7.4,16.8-16.6,17v-17h-0.6
		L560.2,471.7L560.2,471.7L560.2,471.7z"/>
</g>
<rect id="XMLID_1199_" x="643.4" y="-60.5" class="st0" width="52.7" height="1"/>
<rect id="XMLID_1198_" x="643.4" y="-67.2" class="st0" width="52.7" height="1"/>
<path id="XMLID_1197_" class="st0" d="M349.4,75.2h-15.8V75c0-8.7,7-15.8,15.8-15.8v0.4c-8.4,0-15.2,6.7-15.3,15.1h15.3L349.4,75.2
	L349.4,75.2z"/>
<path id="XMLID_1196_" class="st0" d="M578.8,75.2h15.8V75c0-8.7-7-15.8-15.8-15.8v0.4c8.4,0,15.2,6.7,15.3,15.1h-15.3L578.8,75.2
	L578.8,75.2z"/>
<path id="XMLID_1195_" class="st0" d="M573.8,31.8h-0.5c0-11.3-8.9-20.5-20-20.6v20.6h-0.5V10.7h0.3
	C564.4,10.7,573.7,20.1,573.8,31.8z"/>
<path id="XMLID_1192_" class="st0" d="M354.6,31.8h0.5c0-10.6,8.2-19.3,18.4-19.5v19.5h0.5v-20h-0.2
	C363.2,11.8,354.6,20.8,354.6,31.8z"/>
<g id="Doors_1_">
	<path id="XMLID_28_" class="st0" d="M658.5,500.7v0.2c0,8.8,7.1,15.9,15.8,15.9l0,0v-0.5c-8.4,0-15.2-6.7-15.3-15.1h15.3v-0.5
		L658.5,500.7L658.5,500.7L658.5,500.7z"/>
</g>
<g id="Doors">
	<path id="XMLID_27_" class="st0" d="M658.5,455.7v0.2c0,8.8,7.1,15.9,15.8,15.9l0,0v-0.5c-8.4,0-15.2-6.7-15.3-15.1h15.3v-0.5
		L658.5,455.7L658.5,455.7L658.5,455.7z"/>
</g>
<path id="XMLID_1010_" class="st0" d="M394.4,501.5H383v0.4h11.3c-0.1,6.1-5.1,11.1-11.2,11.1l0,0v0.4l0,0c6.4,0,11.6-5.2,11.6-11.6
	v-0.2H394.4L394.4,501.5z"/>
<path id="XMLID_571_" class="st0" d="M394.5,524.8H383v-0.4h11.3c-0.1-6.2-5.1-11.1-11.3-11.1l0,0v-0.4l0,0
	c6.4,0,11.7,5.2,11.7,11.7v0.2L394.5,524.8z"/>
<path id="XMLID_1012_" class="st0" d="M532.7,501.5h11.5v0.4h-11.3c0.1,6.1,5.1,11.1,11.2,11.1l0,0v0.4l0,0
	c-6.4,0-11.6-5.2-11.6-11.6v-0.2H532.7L532.7,501.5z"/>
<path id="XMLID_1011_" class="st0" d="M532.6,524.8h11.5v-0.4h-11.3c0.1-6.2,5.1-11.1,11.3-11.1l0,0v-0.4l0,0
	c-6.4,0-11.7,5.2-11.7,11.7v0.2L532.6,524.8z"/>
<polygon id="XMLID_1178_" class="st0" points="349.4,521.9 352.9,521.9 352.9,546.7 355.1,546.7 355.1,549.8 349.4,549.8 
	349.4,539.6 308.9,539.6 308.9,536.1 349.4,536.1 "/>
<polygon id="XMLID_1177_" class="st0" points="579,521.9 575.6,521.9 575.6,546.7 573.3,546.7 573.3,549.8 579,549.8 579,539.6 
	619.5,539.6 619.5,536.1 579,536.1 "/>
<path id="XMLID_1176_" class="st0" d="M349.4,506.5h-15.8v0.2c0,8.7,7,15.8,15.8,15.8V522c-8.4,0-15.2-6.7-15.3-15.1h15.3
	L349.4,506.5L349.4,506.5z"/>
<path id="XMLID_1175_" class="st0" d="M578.8,506.5h15.8v0.2c0,8.7-7,15.8-15.8,15.8V522c8.4,0,15.2-6.7,15.3-15.1h-15.3
	L578.8,506.5L578.8,506.5z"/>
<path id="XMLID_1174_" class="st0" d="M573.8,549.8h-0.5c0,11.3-8.9,20.5-20,20.6v-20.6h-0.5V571h0.3
	C564.4,571,573.7,561.5,573.8,549.8z"/>
<path id="XMLID_1173_" class="st0" d="M354.6,549.8h0.5c0,10.6,8.2,19.3,18.4,19.5v-19.5h0.5v20h-0.2
	C363.2,569.8,354.6,560.9,354.6,549.8z"/>
<g>
	<rect x="106.5" y="12" class="st0" width="15.5" height="29"/>
	<rect x="105.8" y="539.4" class="st0" width="15.5" height="29"/>
	<path class="st0" d="M96.5,385.1h7.8v-15.9l-0.8-0.1L102,364l-8.2,2.4l0.6,2.8c0.1,0.5,0.5,0.9,1,1.1c0.6,0.2,1.1,0.7,1.1,1.4
		V385.1z"/>
	<polygon class="st0" points="213.3,-59.5 232.1,-59.5 232.1,-67.2 184.7,-67.2 184.7,-52.1 213.3,-52.1 	"/>
	<polygon class="st0" points="213.3,631.9 184.7,631.9 184.7,647.1 232.1,647.1 232.1,639.3 213.3,639.3 	"/>
	<polygon class="st0" points="220.4,457.8 220.4,458.8 220.4,458.8 220.4,461.8 225,461.8 225,445.6 122,445.6 104.2,445.6 
		104.2,407.7 96.5,407.7 96.5,457.8 106,457.8 	"/>
	<rect x="805.3" y="12" class="st0" width="15.5" height="29"/>
	<rect x="806" y="539.4" class="st0" width="15.5" height="29"/>
	<path class="st0" d="M830.3,195.2h-7.8v15.9l0.8,0.1l1.4,5.2c0,0,0,0,0,0l8.2-2.4c0,0,0,0,0,0l-0.6-2.8c-0.1-0.5-0.5-0.9-1-1.1
		c-0.6-0.2-1.1-0.7-1.1-1.4V195.2z"/>
	<path class="st0" d="M825.3,364l-1.4,5.2l-0.8,0.1v15.9h7.8v-13.5c0-0.6,0.4-1.2,1.1-1.4c0.5-0.1,0.9-0.5,1-1.1l0.6-2.8
		c0,0,0,0,0,0L825.3,364z"/>
	<polygon class="st0" points="714.1,-52.1 742.6,-52.1 742.6,-67.2 695.2,-67.2 695.2,-59.5 714.1,-59.5 	"/>
	<polygon class="st0" points="714.1,639.3 695.2,639.3 695.2,647.1 742.6,647.1 742.6,631.9 714.1,631.9 	"/>
	<polygon class="st0" points="823.1,445.6 805.4,445.6 702.3,445.6 702.3,461.8 706.9,461.8 706.9,457.8 821.4,457.8 830.8,457.8 
		830.8,407.7 823.1,407.7 	"/>
	<polygon class="st0" points="104.8,134.7 122.5,134.7 225.5,134.7 225.5,119.5 221,119.5 221,121.5 221,121.5 221,122.5 
		106.5,122.5 97,122.5 97,172.6 104.8,172.6 	"/>
	<polygon class="st0" points="706.3,122.5 706.3,121.5 706.3,121.5 706.3,118.6 701.8,118.6 701.8,134.7 804.8,134.7 822.5,134.7 
		822.5,172.6 830.3,172.6 830.3,122.5 820.8,122.5 	"/>
	<polygon class="st0" points="225.5,106.3 225.5,47.5 228,47.5 228,43.9 225.5,43.9 225.5,12 184.7,12 184.7,19.9 198.6,19.9 
		198.6,28.1 221,28.1 221,106.3 	"/>
	<polygon class="st0" points="221,474.9 221,551.8 198.6,551.8 198.6,560.1 184.7,560.1 184.7,567.9 225.5,567.9 225.5,537.8 
		228,537.8 228,534.2 225.5,534.2 225.5,474.9 	"/>
	<polygon class="st0" points="728.7,551.8 706.3,551.8 706.3,474.8 701.8,474.8 701.8,534.2 699.3,534.2 699.3,537.8 701.8,537.8 
		701.8,567.9 742.6,567.9 742.6,560.1 728.7,560.1 	"/>
	<polygon class="st0" points="701.8,43.9 699.3,43.9 699.3,47.5 701.8,47.5 701.8,105.4 706.3,105.4 706.3,28.1 728.7,28.1 
		728.7,19.9 742.6,19.9 742.6,12 701.8,12 	"/>
	<polygon class="st0" points="225.4,293.7 225.4,293.7 276.9,293.7 276.9,297.2 294.7,297.2 294.7,402 336.7,402 336.7,404.5 
		342.9,404.5 342.9,402 444.2,402 444.2,387 428.7,387 428.8,327.6 422.6,327.6 422.6,331.6 388.2,331.6 388.2,327.6 382.8,327.6 
		382.8,331.6 330,331.6 330,337.7 362.8,337.7 362.8,349.2 368.9,349.2 368.9,337.7 422.6,337.7 422.6,387 368.9,387 368.9,372.8 
		362.8,372.8 362.8,387 307.1,387 307.1,337.7 311.3,337.7 311.3,331.6 307.1,331.6 307.1,209 372.5,209 372.5,303 382.8,303 
		382.8,308 387.5,308 387.5,303 422.6,303 422.6,308.7 428.9,308.7 428.9,303 430.9,303 430.9,282.4 422.9,282.4 422.9,289.9 
		385.6,289.9 385.6,252.5 422.9,252.5 422.9,261.6 430.8,261.6 430.8,238.4 422.9,238.4 422.9,246.6 385.6,246.6 385.6,209 
		422.9,209 422.9,218.3 430.8,218.3 430.8,190.9 444.5,190.9 444.5,177.9 343.5,178 343.5,175.4 337.4,175.4 337.4,178 294.5,178 
		294.7,283.1 276.9,283.1 276.9,286.6 225.4,286.6 225.4,281.7 87.1,281.7 87.1,298.4 225.4,298.4 	"/>
	<path class="st0" d="M701.9,281.6v4.7l0,0h-51.4v-3.5h-17.8V177.9h-42.2v-2.4h-6.1v2.4H482.8v15h15.8l-0.2,59.4h6.2v-4h34.5v4h5.4
		v-4h52.7v-6.1h-32.7v-49.3h55.7v49.3H616v6.1h4.2v122.6h-65.4v-94h-10.3v-5h-4.7v5h-35.2v-5.7h-6.2v5.7h-2v20.6h8V290h37.3v37.4
		h-37.3v-9.1h-8v23.2h8v-8.2h37.3v37.6h-37.3v-9.3h-8V387h-13.6v15l101.3,0v2.6h6.2V402l42.5,0l-0.1-105.1h17.8v-3.5h51.4v4.9h138.4
		v-16.7H701.9z M504.2,230.2h-5.1v-22.5h5.1V230.2z M558.5,242.2h-53.8v-49.3h53.8V242.2z"/>
	<polygon class="st0" points="383,650.7 383,524.4 378,524.4 378,546.8 373.6,546.8 373.6,549.9 378,549.9 378,650.7 371.7,650.7 
		371.7,658.4 384.8,658.4 384.9,659.8 387.7,660.8 389.7,652.5 383.4,650.7 	"/>
	<polygon class="st0" points="549.8,550.7 553.2,550.7 553.2,547 549.8,547 549.8,524.4 544.1,524.4 544.1,650.7 543,650.7 
		537.7,652 540.1,661 544.3,660 544,658.1 556,658.1 556,650.4 549.8,650.4 	"/>
	<polygon class="st0" points="337.4,159.4 343.4,159.4 343.4,134.5 352.4,134.5 352.4,127.4 341.7,127.4 341.7,103.6 341.7,103.6 
		341.7,97.4 352.9,97.4 352.9,74.7 349.4,74.7 349.4,94 338.3,94 338.3,103.6 309.4,103.6 309.4,63.5 322.1,63.5 322.1,60.1 
		309.4,60.1 309.4,45.5 349.4,45.5 349.4,59.7 352.9,59.7 352.9,34.9 355.1,34.9 355.1,31.8 349.4,31.8 349.4,42.1 309.4,42.1 
		309.4,-52.8 309.4,-69 342.5,-69 342.5,-76.8 296.9,-76.8 296.9,-67.2 284.8,-67.2 284.8,-59.5 296.9,-59.5 296.9,4.9 283.2,4.9 
		283.2,18.7 283.1,18.7 283.1,22.4 294.2,22.4 294.2,84.1 254.7,84.1 254.7,80.5 251.1,80.5 251.1,110.4 254.7,110.4 254.7,87.4 
		283.2,87.4 283.2,101.5 294.2,101.5 294.2,129.2 254.7,129.2 254.7,125.5 251.1,125.5 251.1,134.5 337.4,134.5 	"/>
	<polygon class="st0" points="540.2,134.5 558.5,134.5 558.5,127.4 554.5,127.4 554.5,127.4 549.8,127.4 549.8,79.7 544.2,79.7 
		544.2,127.4 485.8,127.4 485.8,91.2 470.3,91.2 470.3,-85.3 456.5,-85.3 456.5,91.2 440.7,91.2 440.7,127.4 382.9,127.4 
		382.9,79.7 382.9,79.6 378,79.6 378,127.4 372.8,127.4 369,127.4 369,134.5 537.7,134.5 	"/>
	<polygon class="st0" points="575.6,59.7 579,59.7 579,45.5 619,45.5 619,60.1 606.4,60.1 606.4,63.5 619,63.5 619,103.6 
		590.1,103.6 590.1,94 579,94 579,74.7 575.6,74.7 575.6,97.4 586.7,97.4 586.7,103.6 586.7,103.6 586.7,127.4 575.1,127.4 
		575.1,134.5 584.8,134.5 584.8,152.3 584.9,152.3 584.9,159.4 591,159.4 591,134.5 677.3,134.5 677.3,125.5 673.7,125.5 
		673.7,129.2 634.2,129.2 634.2,101.5 645.2,101.5 645.2,87.4 673.7,87.4 673.7,110.4 677.3,110.4 677.3,80.5 673.7,80.5 
		673.7,84.1 634.2,84.1 634.2,22.4 643.6,22.4 645.3,22.4 672.6,22.4 672.6,65.4 676.3,65.4 676.3,47.5 686.3,47.5 686.3,43.9 
		676.3,43.9 676.3,18.7 645.3,18.7 645.2,18.7 645.2,4.9 631.5,4.9 631.5,-59.5 643.6,-59.5 643.6,-67.2 631.5,-67.2 631.5,-76.4 
		585.9,-76.4 585.9,-68.8 619,-68.8 619,-52.8 619,42.1 579,42.1 579,31.8 573.3,31.8 573.3,34.9 575.6,34.9 	"/>
	<polygon class="st0" points="341.7,454.2 352.4,454.2 352.4,447.2 343.5,447.2 343.5,421.4 337.4,421.4 337.4,447.2 251.1,447.2 
		251.1,456.2 254.7,456.2 254.7,452.5 294.2,452.5 294.2,480.1 283.2,480.1 283.2,494.2 254.7,494.2 254.7,471.2 251.1,471.2 
		251.1,501.2 254.7,501.2 254.7,497.6 294.2,497.6 294.2,559.3 254.7,559.3 254.7,516.3 251.1,516.3 251.1,534.2 241,534.2 
		241,537.8 251.1,537.8 251.1,562.9 283.2,562.9 283.2,576.7 296.9,576.7 296.9,639.3 284.8,639.3 284.8,647.1 296.9,647.1 
		296.9,658.4 342.5,658.4 342.5,650.7 309.4,650.7 309.4,521.6 322.1,521.6 322.1,518.1 309.4,518.1 309.4,478.1 338.3,478.1 
		338.3,487.7 349.5,487.7 349.5,506.9 352.9,506.9 352.9,484.2 341.7,484.2 	"/>
	<polygon class="st0" points="676.3,516.3 672.6,516.3 672.6,559.3 634.2,559.3 634.2,497.6 673.7,497.6 673.7,501.2 677.3,501.2 
		677.3,471.2 673.7,471.2 673.7,494.2 645.2,494.2 645.2,480.1 634.2,480.1 634.2,452.5 673.7,452.5 673.7,456.2 677.3,456.2 
		677.3,447.2 591,447.2 591,421.5 584.9,421.5 584.9,429.3 584.8,429.3 584.8,447.2 577.4,447.2 577.4,454.2 586.7,454.2 
		586.7,484.2 575.5,484.2 575.5,506.9 579,506.9 579,487.7 590.1,487.7 590.1,478.1 619,478.1 619,518.1 606.3,518.1 606.3,521.6 
		619,521.6 619,650.4 585.9,650.4 585.9,658.1 631.5,658.1 631.5,647.1 643.6,647.1 643.6,639.3 631.5,639.3 631.5,576.7 
		645.2,576.7 645.2,562.9 676.3,562.9 676.3,537.8 686.3,537.8 686.3,534.2 676.3,534.2 	"/>
	<polygon class="st0" points="369,454.2 372.8,454.2 378,454.3 378,502 382.9,502 382.9,454.2 440.7,454.2 440.7,490.4 456.5,490.4 
		456.5,667 470.3,667 470.3,490.4 485.8,490.4 485.8,454.2 544.2,454.2 544.2,501.9 549.8,501.9 549.8,454.3 554.5,454.2 
		560.8,454.2 560.8,447.2 369,447.2 	"/>
</g>
</svg>
