<?xml version="1.0" encoding="utf-8"?>
<!-- Generator: Adobe Illustrator 19.0.0, SVG Export Plug-In . SVG Version: 6.00 Build 0)  -->
<svg version="1.1" id="_x33_6_x2C_38-_2_level" xmlns="http://www.w3.org/2000/svg" xmlns:xlink="http://www.w3.org/1999/xlink"
	 x="0px" y="0px" viewBox="87 -84.7 753 752.7" style="enable-background:new 87 -84.7 753 752.7;" xml:space="preserve">
<style type="text/css">
	.st0{fill:#FFFFFF;}
	.st1{fill:none;}
	.st2{enable-background:new    ;}
</style>
<rect id="XMLID_1462_" x="112.9" y="-59.5" class="st0" width="71.6" height="1"/>
<rect id="XMLID_665_" x="231.8" y="-59.5" class="st0" width="53.3" height="1"/>
<rect id="XMLID_1460_" x="96.9" y="172.7" class="st0" width="1" height="25.9"/>
<rect id="XMLID_1459_" x="103.6" y="172.7" class="st0" width="1" height="25.9"/>
<rect id="XMLID_1458_" x="106.4" y="-65.7" class="st0" width="1" height="82"/>
<rect id="XMLID_1457_" x="112.9" y="-59" class="st0" width="1" height="75.3"/>
<rect id="XMLID_1456_" x="106.4" y="42" class="st0" width="1" height="81.5"/>
<rect id="XMLID_1455_" x="112.9" y="42" class="st0" width="1" height="81.7"/>
<rect id="XMLID_1453_" x="248.4" y="294.5" class="st0" width="1.9" height="77.7"/>
<rect id="XMLID_1452_" x="105.9" y="458.2" class="st0" width="1" height="82.2"/>
<rect id="XMLID_1451_" x="112.4" y="458.2" class="st0" width="1" height="82.4"/>
<rect id="XMLID_1450_" x="106.4" y="-66.2" class="st0" width="78.1" height="1"/>
<rect id="XMLID_1449_" x="113.1" y="640.2" class="st0" width="73.5" height="1"/>
<rect id="XMLID_1448_" x="105.6" y="565.5" class="st0" width="1" height="82"/>
<rect id="XMLID_1447_" x="112.9" y="565.5" class="st0" width="1" height="75.8"/>
<rect id="XMLID_1446_" x="105.6" y="647" class="st0" width="80.9" height="1"/>
<rect id="XMLID_569_" x="231.8" y="-66.2" class="st0" width="53.3" height="1"/>
<rect id="XMLID_664_" x="341" y="650.7" class="st0" width="30.6" height="1"/>
<rect id="XMLID_1082_" x="339.9" y="657.5" class="st0" width="32.2" height="1"/>
<path id="XMLID_1442_" class="st0" d="M94.6,284c-1.3-22.8,1.1-45.6,7-67.6l1,0.3c-5.8,21.9-8.2,44.6-6.9,67.3L94.6,284z"/>
<path id="XMLID_1441_" class="st0" d="M87.2,283.7c-1.3-23.2,1-46.4,7-68.8l1,0.3c-5.9,22.3-8.3,45.4-7,68.5L87.2,283.7z"/>
<rect id="XMLID_1440_" x="342.1" y="-75.8" class="st0" width="30" height="1"/>
<rect id="XMLID_1439_" x="342.1" y="-69" class="st0" width="30" height="1"/>
<rect id="XMLID_1438_" x="555.5" y="-75.4" class="st0" width="30" height="1"/>
<rect id="XMLID_1437_" x="555.5" y="-68.7" class="st0" width="30" height="1"/>
<path id="XMLID_1058_" class="st0" d="M388.2-69.8l-0.2-1c22.5-5.4,45.6-7.5,68.8-6.4v1C433.7-77.4,410.6-75.2,388.2-69.8z"/>
<path id="XMLID_1038_" class="st0" d="M386.4-76.6l-0.2-1c23.1-5.4,46.8-7.4,70.5-6.2v1C433.1-84.1,409.4-82,386.4-76.6z"/>
<path id="XMLID_1432_" class="st0" d="M367.9,350.2v23.6h-5.1v-23.6H367.9L367.9,350.2z M368.4,349.7h-6.1v24.6h6.1V349.7
	L368.4,349.7z"/>
<path id="XMLID_1429_" class="st0" d="M429.8,219.5v19.6h-7v-19.6H429.8L429.8,219.5z M430.3,219h-8v20.6h8V219L430.3,219z"/>
<path id="XMLID_1426_" class="st0" d="M429.8,262.5v21h-7v-21H429.8L429.8,262.5z M430.3,262h-8v22.1h8V262L430.3,262L430.3,262
	L430.3,262z"/>
<rect id="XMLID_1425_" x="403.5" y="202.4" transform="matrix(-0.7077 0.7065 -0.7065 -0.7077 851.1248 105.5629)" class="st0" width="0.5" height="52.9"/>
<rect id="XMLID_1424_" x="377.3" y="228.6" transform="matrix(-0.7035 0.7107 -0.7107 -0.7035 850.3595 102.8697)" class="st0" width="52.9" height="0.5"/>
<rect id="XMLID_1423_" x="403.5" y="245.8" transform="matrix(-0.7055 0.7087 -0.7087 -0.7055 881.471 178.1295)" class="st0" width="0.5" height="52.7"/>
<rect id="XMLID_1422_" x="377.3" y="272" transform="matrix(-0.7055 0.7087 -0.7087 -0.7055 881.4661 178.1175)" class="st0" width="52.7" height="0.5"/>
<rect id="XMLID_1421_" x="522.9" y="326.1" transform="matrix(-0.7095 -0.7047 0.7047 -0.7095 645.3975 972.5452)" class="st0" width="0.5" height="54.2"/>
<rect id="XMLID_1420_" x="496.1" y="353" transform="matrix(-0.7053 -0.7089 0.7089 -0.7053 641.6938 973.301)" class="st0" width="54.2" height="0.5"/>
<rect id="XMLID_1419_" x="522.9" y="282.8" transform="matrix(-0.7067 -0.7075 0.7075 -0.7067 673.6909 898.9007)" class="st0" width="0.5" height="54.1"/>
<rect id="XMLID_1418_" x="496.1" y="309.6" transform="matrix(-0.7067 -0.7075 0.7075 -0.7067 673.6858 898.9131)" class="st0" width="54.1" height="0.5"/>
<rect id="XMLID_1417_" x="395" y="327" transform="matrix(-0.6728 0.7399 -0.7399 -0.6728 930.0357 315.4462)" class="st0" width="0.5" height="72.9"/>
<rect id="XMLID_1416_" x="358.8" y="363.1" transform="matrix(-0.737 0.6758 -0.6758 -0.737 932.1672 363.9854)" class="st0" width="72.9" height="0.5"/>
<g id="XMLID_599_">
	<path id="XMLID_1413_" class="st0" d="M343.4,291.8h-9v-58.3h9V291.8L343.4,291.8z M334.9,291.3h8v-57.3h-8V291.3L334.9,291.3
		L334.9,291.3z"/>
	<path id="XMLID_1410_" class="st0" d="M341.1,289h-4.4v-52.6h4.3L341.1,289L341.1,289L341.1,289z M337.3,288.5h3.3v-51.6h-3.4
		L337.3,288.5L337.3,288.5L337.3,288.5z"/>
	<rect id="XMLID_1409_" x="305.9" y="236.4" class="st0" width="28.8" height="0.5"/>
	<rect id="XMLID_1408_" x="305.9" y="242.5" class="st0" width="28.8" height="0.5"/>
	<rect id="XMLID_1407_" x="305.9" y="248.6" class="st0" width="28.8" height="0.5"/>
	
		<rect id="XMLID_1406_" x="305.8" y="254.7" transform="matrix(-1 3.857263e-003 -3.857263e-003 -1 641.4962 508.757)" class="st0" width="28.8" height="0.5"/>
	<rect id="XMLID_1405_" x="305.9" y="260.8" class="st0" width="28.8" height="0.5"/>
	<rect id="XMLID_1404_" x="305.9" y="266.9" class="st0" width="28.8" height="0.5"/>
	<rect id="XMLID_1403_" x="305.9" y="273" class="st0" width="28.8" height="0.5"/>
	<rect id="XMLID_1402_" x="305.9" y="279.2" class="st0" width="28.8" height="0.5"/>
	<rect id="XMLID_1401_" x="305.9" y="285.2" class="st0" width="28.8" height="0.5"/>
	<rect id="XMLID_1400_" x="305.9" y="291.3" class="st0" width="28.8" height="0.5"/>
	<rect id="XMLID_1399_" x="343.2" y="236.4" class="st0" width="28.8" height="0.5"/>
	<rect id="XMLID_1398_" x="343.2" y="242.5" class="st0" width="28.8" height="0.5"/>
	<rect id="XMLID_1397_" x="343.2" y="248.6" class="st0" width="28.8" height="0.5"/>
	
		<rect id="XMLID_1396_" x="343.2" y="254.7" transform="matrix(-1 3.857263e-003 -3.857263e-003 -1 716.1542 508.605)" class="st0" width="28.8" height="0.5"/>
	<rect id="XMLID_1395_" x="343.2" y="260.8" class="st0" width="28.8" height="0.5"/>
	<rect id="XMLID_1394_" x="343.2" y="266.9" class="st0" width="28.8" height="0.5"/>
	<rect id="XMLID_1393_" x="343.2" y="273" class="st0" width="28.8" height="0.5"/>
	<rect id="XMLID_1392_" x="343.2" y="279.2" class="st0" width="28.8" height="0.5"/>
	<rect id="XMLID_1391_" x="343.2" y="285.2" class="st0" width="28.8" height="0.5"/>
	<rect id="XMLID_1390_" x="343.2" y="291.3" class="st0" width="28.8" height="0.5"/>
	<polygon id="XMLID_1389_" class="st0" points="321.2,290.1 320.7,290.1 320.7,221 357.6,221 357.6,289.4 357.1,289.4 357.1,221.5 
		321.2,221.5 	"/>
	<polygon id="XMLID_1388_" class="st0" points="355.8,289 357.3,291.6 358.8,289 	"/>
	
		<rect id="XMLID_1387_" x="341.5" y="245.5" transform="matrix(-0.9623 0.2719 -0.2719 -0.9623 766.6895 385.184)" class="st0" width="30.2" height="0.5"/>
	
		<rect id="XMLID_1386_" x="342.7" y="247.7" transform="matrix(-0.9648 0.263 -0.263 -0.9648 768.1938 392.9999)" class="st0" width="30.2" height="0.5"/>
	<ellipse id="XMLID_1385_" class="st0" cx="321" cy="291.4" rx="2.1" ry="2.1"/>
	<rect id="XMLID_1384_" x="357.1" y="268.8" class="st0" width="0.5" height="6.2"/>
	<polygon id="XMLID_1383_" class="st0" points="355.8,269.2 357.3,266.6 358.8,269.2 	"/>
</g>
<g id="XMLID_606_">
	<path id="XMLID_1379_" class="st0" d="M583.4,290.1h9v58.3h-9V290.1L583.4,290.1z M591.9,290.6h-8v57.3h8V290.6L591.9,290.6
		L591.9,290.6z"/>
	<path id="XMLID_1376_" class="st0" d="M585.7,292.9h4.4v52.6h-4.3L585.7,292.9L585.7,292.9L585.7,292.9z M589.5,293.4h-3.3V345h3.4
		L589.5,293.4L589.5,293.4L589.5,293.4z"/>
	<rect id="XMLID_1375_" x="592.1" y="345" class="st0" width="28.8" height="0.5"/>
	<rect id="XMLID_1374_" x="592.1" y="338.9" class="st0" width="28.8" height="0.5"/>
	<rect id="XMLID_1373_" x="592.1" y="332.8" class="st0" width="28.8" height="0.5"/>
	
		<rect id="XMLID_1372_" x="592.1" y="326.7" transform="matrix(1 -3.857263e-003 3.857263e-003 1 -1.2565 2.342)" class="st0" width="28.8" height="0.5"/>
	<rect id="XMLID_1371_" x="592.1" y="320.6" class="st0" width="28.8" height="0.5"/>
	<rect id="XMLID_1370_" x="592.1" y="314.5" class="st0" width="28.8" height="0.5"/>
	<rect id="XMLID_1369_" x="592.1" y="308.4" class="st0" width="28.8" height="0.5"/>
	<rect id="XMLID_1368_" x="592.1" y="302.3" class="st0" width="28.8" height="0.5"/>
	<rect id="XMLID_1367_" x="592.1" y="296.2" class="st0" width="28.8" height="0.5"/>
	<rect id="XMLID_1366_" x="592.1" y="290.1" class="st0" width="28.8" height="0.5"/>
	<rect id="XMLID_1365_" x="554.8" y="345" class="st0" width="28.8" height="0.5"/>
	<rect id="XMLID_1364_" x="554.8" y="338.9" class="st0" width="28.8" height="0.5"/>
	<rect id="XMLID_1363_" x="554.8" y="332.8" class="st0" width="28.8" height="0.5"/>
	
		<rect id="XMLID_1362_" x="554.8" y="326.7" transform="matrix(1 -3.857263e-003 3.857263e-003 1 -1.2568 2.198)" class="st0" width="28.8" height="0.5"/>
	<rect id="XMLID_1361_" x="554.8" y="320.6" class="st0" width="28.8" height="0.5"/>
	<rect id="XMLID_1360_" x="554.8" y="314.5" class="st0" width="28.8" height="0.5"/>
	<rect id="XMLID_1359_" x="554.8" y="308.4" class="st0" width="28.8" height="0.5"/>
	<rect id="XMLID_1358_" x="554.8" y="302.3" class="st0" width="28.8" height="0.5"/>
	<rect id="XMLID_1357_" x="554.8" y="296.2" class="st0" width="28.8" height="0.5"/>
	<rect id="XMLID_1356_" x="554.8" y="290.1" class="st0" width="28.8" height="0.5"/>
	<polygon id="XMLID_1355_" class="st0" points="605.6,291.8 606.1,291.8 606.1,361 569.2,361 569.2,292.5 569.7,292.5 569.7,360.5 
		605.6,360.5 	"/>
	<polygon id="XMLID_1354_" class="st0" points="571,292.9 569.5,290.3 568,292.9 	"/>
	
		<rect id="XMLID_1353_" x="555" y="336" transform="matrix(0.9623 -0.2719 0.2719 0.9623 -69.9369 167.6819)" class="st0" width="30.2" height="0.5"/>
	
		<rect id="XMLID_1352_" x="553.9" y="333.8" transform="matrix(0.9648 -0.263 0.263 0.9648 -67.8098 161.3839)" class="st0" width="30.2" height="0.5"/>
	<ellipse id="XMLID_1351_" class="st0" cx="605.8" cy="290.7" rx="2.1" ry="2.1"/>
	<polygon id="XMLID_1350_" class="st0" points="571,312.7 569.5,315.3 568,312.7 	"/>
</g>
<path id="XMLID_1348_" class="st0" d="M220.7,107.2c-8.5,0-15.4,6-15.4,13.5v0.2c0,0,0,0,0,0h15.4v-0.4h-14.9c0,0,0,0,0,0
	c0.1-7.1,6.8-12.8,14.9-12.8l0,0L220.7,107.2L220.7,107.2L220.7,107.2z"/>
<path id="XMLID_1347_" class="st0" d="M310.5,358.4v-19.6h0.5v19.1c10.4-0.1,18.8-8.7,18.8-19.1h0.5c0,10.8-8.7,19.6-19.5,19.6
	L310.5,358.4L310.5,358.4z"/>
<path id="XMLID_1346_" class="st0" d="M362.1,308.6h20.2v0.5h-19.7c0.1,10.8,8.9,19.5,19.7,19.5v0.5c-11.1,0-20.1-9.1-20.2-20.2
	V308.6L362.1,308.6z"/>
<path id="XMLID_1345_" class="st0" d="M402.4,309.3h19.6v0.5h-19.1c0.1,10.5,8.7,19,19.1,19v0.4c-10.8,0-19.6-8.8-19.6-19.7V309.3z"
	/>
<path id="XMLID_1344_" class="st0" d="M564.4,252.7h-20.2v0.5h19.7c-0.1,10.8-8.9,19.5-19.7,19.5v0.5c11.1,0,20.1-9.1,20.2-20.2
	V252.7L564.4,252.7z"/>
<path id="XMLID_1343_" class="st0" d="M524,253h-19.6v0.5h19.1c-0.1,10.5-8.7,19-19.1,19v0.4c10.8,0,19.6-8.8,19.6-19.7V253z"/>
<path id="XMLID_1342_" class="st0" d="M443.3,211.6v-19.6h0.6V211c0,0.1,0.1,0.2,0.2,0.2h0l0,0c10.4-0.3,18.6-8.8,18.7-19.2h0.6
	c0,3.4-0.8,6.7-2.4,9.6c-3.5,6.4-10.1,10.3-17.4,10.4h-0.3L443.3,211.6z"/>
<path id="XMLID_1341_" class="st0" d="M443,368.2V388h0.7v-19.3c0-0.1,0.1-0.2,0.2-0.2c10.5,0.3,18.9,8.9,18.9,19.5h0.7
	c0-3.4-0.8-6.7-2.4-9.7c-3.5-6.4-10.3-10.5-17.6-10.5h-0.3L443,368.2z"/>
<path id="XMLID_610_" class="st0" d="M103.8,212.2l0.8-0.1v-15.8c0,0,0,0,0,0h-7.8v13.5c0,0.6-0.4,1.2-1.1,1.4h0
	c-0.5,0.1-0.9,0.5-1,1.1l-0.6,2.8c0,0,0,0,0,0l8.2,2.4L103.8,212.2z"/>
<rect id="XMLID_1336_" x="96.3" y="383.6" class="st0" width="1" height="27.6"/>
<rect id="XMLID_1335_" x="103.1" y="383.6" class="st0" width="1" height="27.6"/>
<path id="XMLID_1334_" class="st0" d="M94.1,298.4c-1.3,22.8,1.1,45.6,7,67.6l1-0.3c-5.8-21.9-8.2-44.6-6.9-67.3L94.1,298.4z"/>
<path id="XMLID_1090_" class="st0" d="M86.9,298.7c-1.3,23.2,1,46.4,7,68.8l1-0.3c-5.9-22.3-8.3-45.4-7-68.5L86.9,298.7z"/>
<path id="XMLID_1332_" class="st0" d="M103.3,370.2l0.8,0.1v15.9h-7.8v-13.5c0-0.6-0.4-1.2-1.1-1.4l0,0c-0.5-0.1-0.9-0.5-1-1.1
	l-0.6-2.8l8.2-2.4L103.3,370.2z"/>
<polygon id="XMLID_611_" class="st0" points="220.5,530.9 220.5,530.8 220.4,530.8 "/>
<g id="Doors_19_">
	<path id="XMLID_173_" class="st0" d="M270.1,82v-0.2c0-8.8-7.1-15.9-15.8-15.9l0,0v0.5c8.3,0,15.1,6.7,15.3,15.1h-15.3V82L270.1,82
		L270.1,82L270.1,82z"/>
</g>
<g id="Doors_18_">
	<path id="XMLID_172_" class="st0" d="M270.1,127v-0.2c0-8.8-7.1-15.9-15.8-15.9l0,0v0.5c8.3,0,15.1,6.7,15.3,15.1h-15.3v0.5
		L270.1,127L270.1,127L270.1,127z"/>
</g>
<g id="Doors_17_">
	<path id="XMLID_171_" class="st0" d="M269.4,456.6v0.2c0,8.8-7.1,15.9-15.8,15.9l0,0v-0.5c8.3,0,15.1-6.7,15.3-15.1h-15.3v-0.5
		L269.4,456.6L269.4,456.6L269.4,456.6z"/>
</g>
<g id="Doors_16_">
	<path id="XMLID_170_" class="st0" d="M205.2,461.3v0.2c0,7.6,7.1,13.8,15.8,13.8l0,0v-0.4c-8.3,0-15.1-5.9-15.3-13.2H221v-0.4
		L205.2,461.3L205.2,461.3L205.2,461.3z"/>
</g>
<rect id="XMLID_1324_" x="230.4" y="647.1" class="st0" width="56.5" height="1"/>
<rect id="XMLID_1323_" x="230.4" y="640.3" class="st0" width="56.5" height="1"/>
<g id="Doors_15_">
	<path id="XMLID_169_" class="st0" d="M268.9,502v0.2c0,8.8-7.1,15.8-15.8,15.8l0,0v-0.5c8.3,0,15.1-6.7,15.3-15.1h-15.3V502
		L268.9,502L268.9,502L268.9,502z"/>
</g>
<path id="XMLID_1064_" class="st0" d="M387.6,653.4l-0.2,1c22.6,5.4,45.8,7.5,69,6.4v-1C433.3,661,410.1,658.8,387.6,653.4z"/>
<path id="XMLID_1063_" class="st0" d="M385.9,659.4l-0.2,1c23.2,5.4,47,7.4,70.8,6.2v-1C432.7,666.8,409,664.8,385.9,659.4z"/>
<path id="XMLID_1062_" class="st0" d="M540.4,659.4l0.2,1c-23.4,5.4-47.4,7.4-71.4,6.2v-1C493.2,666.8,517.1,664.8,540.4,659.4z"/>
<path id="XMLID_1318_" class="st1" d="M470.6,660.9v-1"/>
<path id="XMLID_1317_" class="st1" d="M470.6,667.9v-1"/>
<g id="Doors_14_">
	<path id="XMLID_168_" class="st0" d="M178.4-2.9h-0.2c-8.7,0-15.8,7.1-15.8,15.8l0,0h0.5c0-8.4,6.7-15.2,15.1-15.3V13h0.5
		L178.4-2.9L178.4-2.9L178.4-2.9z"/>
</g>
<path id="XMLID_1315_" class="st0" d="M125.4,14.8l-0.9-0.6c10.3-28.8,30.3-49.4,61.2-59.7l0.6,0.8
	C156.2-34.8,136.2-14.3,125.4,14.8z"/>
<path id="XMLID_1314_" class="st0" d="M131.3,15.8l-0.9-0.6c8.7-27.4,27.1-46.6,56.1-55.5l0.6,0.8C158.9-31.1,140.5-12,131.3,15.8z"
	/>
<g id="stairs_2_lvl_3_">
	<rect id="XMLID_153_" x="250.2" y="208" class="st0" width="20" height="0.5"/>
	<rect id="XMLID_152_" x="250.2" y="214.1" class="st0" width="20" height="0.5"/>
	<rect id="XMLID_151_" x="250.2" y="220.3" class="st0" width="20" height="0.5"/>
	
		<rect id="XMLID_150_" x="250.2" y="226.4" transform="matrix(-1 5.556460e-003 -5.556460e-003 -1 521.6981 451.7845)" class="st0" width="20" height="0.5"/>
	<rect id="XMLID_149_" x="250.2" y="232.4" class="st0" width="20" height="0.5"/>
	<rect id="XMLID_148_" x="250.2" y="238.6" class="st0" width="20" height="0.5"/>
	<rect id="XMLID_147_" x="250.2" y="244.7" class="st0" width="20" height="0.5"/>
	<polygon id="XMLID_146_" class="st0" points="250.2,251.2 250.2,250.7 270.2,250.9 270.2,251.4 	"/>
	<rect id="XMLID_145_" x="250.2" y="256.9" class="st0" width="20" height="0.5"/>
	<rect id="XMLID_144_" x="250.2" y="263" class="st0" width="20" height="0.5"/>
	<rect id="XMLID_143_" x="274.8" y="263" class="st0" width="20" height="0.5"/>
	<rect id="XMLID_142_" x="274.8" y="256.9" class="st0" width="20" height="0.5"/>
	<rect id="XMLID_141_" x="274.8" y="250.7" class="st0" width="20" height="0.5"/>
	
		<rect id="XMLID_140_" x="274.8" y="244.6" transform="matrix(-1 -5.563774e-003 5.563774e-003 -1 568.1916 491.3331)" class="st0" width="20" height="0.5"/>
	<rect id="XMLID_139_" x="274.8" y="238.6" class="st0" width="20" height="0.5"/>
	<rect id="XMLID_138_" x="274.8" y="232.4" class="st0" width="20" height="0.5"/>
	<rect id="XMLID_137_" x="274.8" y="226.3" class="st0" width="20" height="0.5"/>
	<polygon id="XMLID_136_" class="st0" points="274.8,220.3 274.8,220.8 294.8,220.6 294.8,220.1 	"/>
	<rect id="XMLID_135_" x="274.8" y="214.1" class="st0" width="20" height="0.5"/>
	<rect id="XMLID_134_" x="274.8" y="208" class="st0" width="20" height="0.5"/>
	<g id="XMLID_127_">
		<path id="XMLID_131_" class="st0" d="M274.8,263.5h-4.6V208h4.6V263.5L274.8,263.5z M270.5,263h4.1v-54.5h-4.1V263L270.5,263
			L270.5,263z"/>
		<path id="XMLID_128_" class="st0" d="M273.6,260.8h-2.2v-50h2.2L273.6,260.8L273.6,260.8L273.6,260.8z M271.7,260.5h1.7V211h-1.7
			L271.7,260.5L271.7,260.5L271.7,260.5z"/>
	</g>
	<ellipse id="XMLID_126_" class="st0" cx="284" cy="208" rx="2.1" ry="2.1"/>
	<polygon id="XMLID_125_" class="st0" points="283.8,208 284.1,208 284.1,277.2 258.4,277.2 258.4,210.2 258.8,210.2 258.8,276.7 
		283.8,276.7 	"/>
	<polygon id="XMLID_124_" class="st0" points="260.1,211.1 258.6,208.5 257.1,211.1 	"/>
</g>
<g id="stairs_2_lvl_2_">
	<rect id="XMLID_123_" x="250.2" y="373.6" class="st0" width="20" height="0.5"/>
	<rect id="XMLID_122_" x="250.2" y="367.5" class="st0" width="20" height="0.5"/>
	<rect id="XMLID_121_" x="250.2" y="361.4" class="st0" width="20" height="0.5"/>
	
		<rect id="XMLID_120_" x="250.2" y="355.3" transform="matrix(-1 -5.556460e-003 5.556460e-003 -1 518.4635 712.4797)" class="st0" width="20" height="0.5"/>
	<rect id="XMLID_119_" x="250.2" y="349.2" class="st0" width="20" height="0.5"/>
	<rect id="XMLID_118_" x="250.2" y="343.1" class="st0" width="20" height="0.5"/>
	<rect id="XMLID_117_" x="250.2" y="337" class="st0" width="20" height="0.5"/>
	<polygon id="XMLID_116_" class="st0" points="250.2,331 250.2,331.5 270.2,331.2 270.2,330.7 	"/>
	<rect id="XMLID_115_" x="250.2" y="324.8" class="st0" width="20" height="0.5"/>
	<rect id="XMLID_114_" x="250.2" y="318.7" class="st0" width="20" height="0.5"/>
	<rect id="XMLID_113_" x="274.8" y="318.7" class="st0" width="20" height="0.5"/>
	<rect id="XMLID_112_" x="274.8" y="324.8" class="st0" width="20" height="0.5"/>
	<rect id="XMLID_111_" x="274.8" y="330.9" class="st0" width="20" height="0.5"/>
	
		<rect id="XMLID_110_" x="274.8" y="337" transform="matrix(-1 5.563774e-003 -5.563774e-003 -1 571.4305 672.9312)" class="st0" width="20" height="0.5"/>
	<rect id="XMLID_109_" x="274.8" y="343.1" class="st0" width="20" height="0.5"/>
	<rect id="XMLID_108_" x="274.8" y="349.2" class="st0" width="20" height="0.5"/>
	<rect id="XMLID_107_" x="274.8" y="355.3" class="st0" width="20" height="0.5"/>
	<polygon id="XMLID_106_" class="st0" points="274.8,361.8 274.8,361.3 294.8,361.6 294.8,362.1 	"/>
	<rect id="XMLID_105_" x="274.8" y="367.5" class="st0" width="20" height="0.5"/>
	<rect id="XMLID_104_" x="274.8" y="373.6" class="st0" width="20" height="0.5"/>
	<g id="XMLID_97_">
		<path id="XMLID_101_" class="st0" d="M274.8,318.7v55.4h-4.6v-55.4L274.8,318.7L274.8,318.7z M270.5,319.1L270.5,319.1v54.5h4.1
			v-54.5L270.5,319.1L270.5,319.1z"/>
		<path id="XMLID_98_" class="st0" d="M273.6,321.4L273.6,321.4v50h-2.2v-50L273.6,321.4L273.6,321.4z M271.7,321.6L271.7,321.6
			v49.6h1.7v-49.5L271.7,321.6L271.7,321.6z"/>
	</g>
	<ellipse id="XMLID_96_" class="st0" cx="284" cy="374.2" rx="2.1" ry="2.1"/>
	<polygon id="XMLID_95_" class="st0" points="283.8,374.1 284.1,374.1 284.1,304.9 258.4,304.9 258.4,371.9 258.8,371.9 
		258.8,305.4 283.8,305.4 	"/>
	<polygon id="XMLID_94_" class="st0" points="260.1,371 258.6,373.6 257.1,371 	"/>
</g>
<g id="Doors_20_">
	<path id="XMLID_174_" class="st0" d="M177.7,585.3h-0.2c-8.7,0-15.8-7.1-15.8-15.9l0,0h0.5c0,8.4,6.7,15.2,15.1,15.4v-15.4h0.5
		L177.7,585.3L177.7,585.3L177.7,585.3z"/>
</g>
<path id="XMLID_1308_" class="st0" d="M124.6,567.6l-0.9,0.6c10.3,28.8,30.3,49.4,61.2,59.7l0.6-0.8
	C155.5,617.3,135.4,596.8,124.6,567.6z"/>
<path id="XMLID_1307_" class="st0" d="M130.6,566.7l-0.9,0.6c8.7,27.4,27.1,46.6,56.1,55.5l0.6-0.8
	C158.2,613.5,139.8,594.5,130.6,566.7z"/>
<rect id="XMLID_1306_" x="742.3" y="-59.5" class="st0" width="71.6" height="1"/>
<rect id="XMLID_1305_" x="642.3" y="-59.5" class="st0" width="52.7" height="1"/>
<rect id="XMLID_1304_" x="828.9" y="170.2" class="st0" width="1" height="29.6"/>
<rect id="XMLID_1303_" x="822.2" y="170.2" class="st0" width="1" height="29.6"/>
<rect id="XMLID_1302_" x="819.4" y="-65.7" class="st0" width="1" height="82"/>
<rect id="XMLID_1301_" x="812.9" y="-59" class="st0" width="1" height="75.3"/>
<rect id="XMLID_1299_" x="819.4" y="42" class="st0" width="1" height="81.5"/>
<rect id="XMLID_1298_" x="812.9" y="42" class="st0" width="1" height="81.7"/>
<rect id="XMLID_1297_" x="819.9" y="458.9" class="st0" width="1" height="81.5"/>
<rect id="XMLID_1296_" x="813.4" y="458.9" class="st0" width="1" height="81.7"/>
<rect id="XMLID_1295_" x="742.3" y="-66.2" class="st0" width="78.1" height="1"/>
<rect id="XMLID_1294_" x="740.2" y="640.2" class="st0" width="73.5" height="1"/>
<rect id="XMLID_1293_" x="819.4" y="565.5" class="st0" width="1" height="82"/>
<rect id="XMLID_1292_" x="812.9" y="565.5" class="st0" width="1" height="75.8"/>
<rect id="XMLID_1291_" x="740.2" y="647" class="st0" width="80.2" height="1"/>
<rect id="XMLID_1290_" x="642.3" y="-66.2" class="st0" width="52.7" height="1"/>
<rect id="XMLID_1083_" x="555.4" y="650.4" class="st0" width="30.6" height="1"/>
<rect id="XMLID_1084_" x="554.7" y="657.1" class="st0" width="32.2" height="1"/>
<path id="XMLID_1287_" class="st0" d="M832.1,284c1.3-22.8-1.1-45.6-7-67.6l-1,0.3c5.8,21.9,8.2,44.6,6.9,67.3L832.1,284z"/>
<path id="XMLID_1286_" class="st0" d="M839.5,283.7c1.3-23.2-1-46.4-7-68.8l-1,0.3c5.9,22.3,8.3,45.4,7,68.5L839.5,283.7z"/>
<path id="XMLID_1060_" class="st0" d="M538.6-69.8l0.2-1c-22.5-5.4-45.6-7.5-68.6-6.4v1C493.2-77.4,516.2-75.2,538.6-69.8z"/>
<path id="XMLID_1059_" class="st0" d="M540.3-77.1l0.2-1c-23-5.4-46.8-7.4-70.4-6.2v1C493.7-84.6,517.4-82.5,540.3-77.1z"/>
<path id="XMLID_1283_" class="st0" d="M483.5,211.6v-19.8h-0.6V211c0,0.1-0.1,0.2-0.2,0.2h0l0,0c-10.4-0.3-18.6-8.8-18.7-19.2h-0.6
	c0,3.4,0.8,6.7,2.4,9.6c3.5,6.4,10.1,10.3,17.4,10.4h0.3L483.5,211.6z"/>
<path id="XMLID_1282_" class="st0" d="M483.8,368.2V388h-0.7v-19.3c0-0.1-0.1-0.2-0.2-0.2c-10.5,0.3-18.9,8.9-18.9,19.5h-0.7
	c0-3.4,0.8-6.7,2.4-9.7c3.5-6.4,10.3-10.5,17.6-10.5h0.3L483.8,368.2z"/>
<polygon id="XMLID_618_" class="st0" points="713.7,186 713.7,135.1 711.8,135.1 711.8,186 701.9,186 701.9,208 678.4,208 
	676.6,208 676.6,208 676.6,287.6 678.4,287.6 678.4,209.9 701.9,209.9 706.1,209.9 723.6,209.9 723.6,186 "/>
<rect id="XMLID_1278_" x="829.5" y="384.7" class="st0" width="1" height="25.5"/>
<rect id="XMLID_1277_" x="822.7" y="384.7" class="st0" width="1" height="25.5"/>
<path id="XMLID_1276_" class="st0" d="M832.7,298.4c1.3,22.8-1.1,45.6-7,67.6l-1-0.3c5.8-21.9,8.2-44.6,6.9-67.3L832.7,298.4z"/>
<path id="XMLID_1275_" class="st0" d="M840.1,298.7c1.3,23.2-1,46.4-7,68.8l-1-0.3c5.9-22.3,8.3-45.4,7-68.5L840.1,298.7z"/>
<polygon id="XMLID_1273_" class="st0" points="706.3,530.9 706.3,530.8 706.3,530.8 "/>
<g id="Doors_13_">
	<path id="XMLID_167_" class="st0" d="M656.6,82v-0.2c0-8.8,7.1-15.9,15.8-15.9l0,0v0.5c-8.3,0-15.1,6.7-15.3,15.1h15.3V82L656.6,82
		L656.6,82L656.6,82z"/>
</g>
<g id="Doors_12_">
	<path id="XMLID_166_" class="st0" d="M656.6,127v-0.2c0-8.8,7.1-15.9,15.8-15.9l0,0v0.5c-8.3,0-15.1,6.7-15.3,15.1h15.3v0.5
		L656.6,127L656.6,127L656.6,127z"/>
</g>
<g id="Doors_11_">
	<path id="XMLID_165_" class="st0" d="M657.4,456.6v0.2c0,8.8,7.1,15.9,15.8,15.9l0,0v-0.5c-8.3,0-15.1-6.7-15.3-15.1h15.3v-0.5
		L657.4,456.6L657.4,456.6L657.4,456.6z"/>
</g>
<rect id="XMLID_1267_" x="639.9" y="647.1" class="st0" width="56.5" height="1"/>
<rect id="XMLID_1266_" x="639.9" y="640.3" class="st0" width="56.5" height="1"/>
<g id="Doors_10_">
	<path id="XMLID_164_" class="st0" d="M657.9,501.8v0.2c0,8.8,7.1,15.8,15.8,15.8l0,0v-0.5c-8.3,0-15.1-6.7-15.3-15.1h15.3v-0.5
		L657.9,501.8L657.9,501.8L657.9,501.8z"/>
</g>
<path id="XMLID_1061_" class="st0" d="M539.1,653.4l0.2,1c-22.8,5.4-46.2,7.5-69.6,6.4v-1C493.1,661,516.5,658.8,539.1,653.4z"/>
<path id="XMLID_1263_" class="st1" d="M456.2,660.9v-1"/>
<path id="XMLID_1262_" class="st1" d="M456.2,667.9v-1"/>
<g id="Doors_9_">
	<path id="XMLID_163_" class="st0" d="M748.4-2.9h0.2c8.7,0,15.8,7.1,15.8,15.8l0,0h-0.5c0-8.4-6.7-15.2-15.1-15.3V13h-0.5
		L748.4-2.9L748.4-2.9L748.4-2.9z"/>
</g>
<path id="XMLID_1260_" class="st0" d="M801.4,14.8l0.9-0.6C792-14.5,772-35.1,741.1-45.5l-0.6,0.8C770.5-34.8,790.6-14.3,801.4,14.8
	z"/>
<path id="XMLID_1259_" class="st0" d="M795.4,15.8l0.9-0.6c-8.7-27.4-27.1-46.6-56.1-55.5l-0.6,0.8C767.9-31.1,786.2-12,795.4,15.8z
	"/>
<g id="stairs_2_lvl_1_">
	<rect id="XMLID_93_" x="656.5" y="208" class="st0" width="20" height="0.5"/>
	<rect id="XMLID_92_" x="656.6" y="214.1" class="st0" width="20" height="0.5"/>
	<rect id="XMLID_91_" x="656.5" y="220.3" class="st0" width="20" height="0.5"/>
	
		<rect id="XMLID_90_" x="656.6" y="226.4" transform="matrix(1 5.556460e-003 -5.556460e-003 1 1.2695 -3.7002)" class="st0" width="20" height="0.5"/>
	<rect id="XMLID_89_" x="656.5" y="232.4" class="st0" width="20" height="0.5"/>
	<rect id="XMLID_88_" x="656.5" y="238.6" class="st0" width="20" height="0.5"/>
	<rect id="XMLID_87_" x="656.5" y="244.7" class="st0" width="20" height="0.5"/>
	<polygon id="XMLID_86_" class="st0" points="676.5,251.2 676.5,250.7 656.5,250.9 656.5,251.4 	"/>
	<rect id="XMLID_85_" x="656.5" y="256.9" class="st0" width="20" height="0.5"/>
	<rect id="XMLID_84_" x="656.5" y="263" class="st0" width="20" height="0.5"/>
	<rect id="XMLID_83_" x="632" y="263" class="st0" width="20" height="0.5"/>
	<rect id="XMLID_82_" x="632" y="256.9" class="st0" width="20" height="0.5"/>
	<rect id="XMLID_81_" x="632" y="250.7" class="st0" width="20" height="0.5"/>
	
		<rect id="XMLID_80_" x="632" y="244.6" transform="matrix(1 -5.563774e-003 5.563774e-003 1 -1.3525 3.5757)" class="st0" width="20" height="0.5"/>
	<rect id="XMLID_79_" x="632" y="238.6" class="st0" width="20" height="0.5"/>
	<rect id="XMLID_78_" x="632" y="232.4" class="st0" width="20" height="0.5"/>
	<rect id="XMLID_77_" x="632" y="226.3" class="st0" width="20" height="0.5"/>
	<polygon id="XMLID_76_" class="st0" points="652,220.3 652,220.8 632,220.6 632,220.1 	"/>
	<rect id="XMLID_75_" x="632" y="214.1" class="st0" width="20" height="0.5"/>
	<rect id="XMLID_74_" x="632" y="208" class="st0" width="20" height="0.5"/>
	<g id="XMLID_67_">
		<path id="XMLID_71_" class="st0" d="M652,263.5V208h4.6v55.4L652,263.5L652,263.5z M656.3,263L656.3,263v-54.5h-4.1V263L656.3,263
			L656.3,263z"/>
		<path id="XMLID_68_" class="st0" d="M653.2,260.7L653.2,260.7v-50h2.2v50L653.2,260.7L653.2,260.7z M655.1,260.5L655.1,260.5V211
			h-1.7v49.5L655.1,260.5L655.1,260.5z"/>
	</g>
	<ellipse id="XMLID_66_" class="st0" cx="642.7" cy="208" rx="2.1" ry="2.1"/>
	<polygon id="XMLID_65_" class="st0" points="643,208 642.7,208 642.7,277.2 668.4,277.2 668.4,210.2 668,210.2 668,276.7 
		643,276.7 	"/>
	<polygon id="XMLID_64_" class="st0" points="666.7,211.1 668.2,208.5 669.7,211.1 	"/>
</g>
<g id="stairs_2_lvl">
	<rect id="XMLID_63_" x="656.5" y="373.6" class="st0" width="20" height="0.5"/>
	<rect id="XMLID_62_" x="656.6" y="367.5" class="st0" width="20" height="0.5"/>
	<rect id="XMLID_61_" x="656.5" y="361.4" class="st0" width="20" height="0.5"/>
	
		<rect id="XMLID_60_" x="656.6" y="355.3" transform="matrix(1 -5.556460e-003 5.556460e-003 1 -1.9651 3.7092)" class="st0" width="20" height="0.5"/>
	<rect id="XMLID_59_" x="656.5" y="349.2" class="st0" width="20" height="0.5"/>
	<rect id="XMLID_58_" x="656.5" y="343.1" class="st0" width="20" height="0.5"/>
	<rect id="XMLID_57_" x="656.5" y="337" class="st0" width="20" height="0.5"/>
	<polygon id="XMLID_56_" class="st0" points="676.5,331 676.5,331.5 656.5,331.2 656.5,330.7 	"/>
	<rect id="XMLID_55_" x="656.5" y="324.8" class="st0" width="20" height="0.5"/>
	<rect id="XMLID_54_" x="656.5" y="318.7" class="st0" width="20" height="0.5"/>
	<rect id="XMLID_53_" x="632" y="318.7" class="st0" width="20" height="0.5"/>
	<rect id="XMLID_52_" x="632" y="324.8" class="st0" width="20" height="0.5"/>
	<rect id="XMLID_51_" x="632" y="330.9" class="st0" width="20" height="0.5"/>
	
		<rect id="XMLID_50_" x="632" y="337" transform="matrix(1 5.563774e-003 -5.563774e-003 1 1.8864 -3.5667)" class="st0" width="20" height="0.5"/>
	<rect id="XMLID_49_" x="632" y="343.1" class="st0" width="20" height="0.5"/>
	<rect id="XMLID_48_" x="632" y="349.2" class="st0" width="20" height="0.5"/>
	<rect id="XMLID_47_" x="632" y="355.3" class="st0" width="20" height="0.5"/>
	<polygon id="XMLID_46_" class="st0" points="652,361.8 652,361.3 632,361.6 632,362.1 	"/>
	<rect id="XMLID_45_" x="632" y="367.5" class="st0" width="20" height="0.5"/>
	<rect id="XMLID_44_" x="632" y="373.6" class="st0" width="20" height="0.5"/>
	<g id="XMLID_37_">
		<path id="XMLID_41_" class="st0" d="M652,318.7h4.6v55.4H652V318.7L652,318.7z M656.3,319.1h-4.1v54.5h4.1V319.1L656.3,319.1
			L656.3,319.1z"/>
		<path id="XMLID_38_" class="st0" d="M653.1,321.4h2.2v50h-2.2L653.1,321.4L653.1,321.4L653.1,321.4z M655.1,321.6h-1.7v49.5h1.7
			L655.1,321.6L655.1,321.6L655.1,321.6z"/>
	</g>
	<ellipse id="XMLID_36_" class="st0" cx="642.7" cy="374.2" rx="2.1" ry="2.1"/>
	<polygon id="XMLID_35_" class="st0" points="643,374.1 642.7,374.1 642.7,304.9 668.4,304.9 668.4,371.9 668,371.9 668,305.4 
		643,305.4 	"/>
	<polygon id="XMLID_34_" class="st0" points="666.7,371 668.2,373.6 669.7,371 	"/>
</g>
<g id="Doors_8_">
	<path id="XMLID_162_" class="st0" d="M749.1,585.3h0.2c8.7,0,15.8-7.1,15.8-15.9l0,0h-0.5c0,8.4-6.7,15.2-15.1,15.4v-15.4h-0.5
		L749.1,585.3L749.1,585.3L749.1,585.3z"/>
</g>
<path id="XMLID_1253_" class="st0" d="M802.1,567.6l0.9,0.6c-10.3,28.8-30.3,49.4-61.2,59.7l-0.6-0.8
	C771.3,617.3,791.3,596.8,802.1,567.6z"/>
<path id="XMLID_1252_" class="st0" d="M796.2,566.7l0.9,0.6c-8.7,27.4-27.1,46.6-56.1,55.5l-0.6-0.8
	C768.6,613.5,787,594.5,796.2,566.7z"/>
<path id="XMLID_1251_" class="st0" d="M616.3,223.6v19.6h-0.5v-19.1c-10.4,0.1-18.8,8.7-18.8,19.1h-0.5c0-10.8,8.7-19.6,19.5-19.6
	L616.3,223.6L616.3,223.6z"/>
<path id="XMLID_1247_" class="st0" d="M498.5,207.9v23.9h6.2v-23.9H498.5z M504.2,231.3H499v-22.9h5.1V231.3z"/>
<rect id="XMLID_1246_" x="531.1" y="181.3" transform="matrix(0.6728 0.7399 -0.7399 0.6728 335.4676 -321.6666)" class="st0" width="0.5" height="74.2"/>
<rect id="XMLID_1245_" x="494.2" y="218.1" transform="matrix(0.737 0.6758 -0.6758 0.737 287.2771 -301.6955)" class="st0" width="74.2" height="0.5"/>
<path id="XMLID_1242_" class="st0" d="M503.9,362.2h-7v-19.4h7V362.2L503.9,362.2z M504.4,362.7v-20.4h-8v20.4H504.4L504.4,362.7z"
	/>
<path id="XMLID_1239_" class="st0" d="M503.9,319.2h-6.9V299h6.9V319.2L503.9,319.2z M504.4,319.8L504.4,319.8L504.4,319.8v-21.3
	h-7.9v21.2L504.4,319.8L504.4,319.8z"/>
<g id="Doors_7_">
	<path id="XMLID_161_" class="st0" d="M699.5,29.5h-0.2c-7.6,0-13.8,7.1-13.8,15.8l0,0h0.4c0-8.4,5.9-15.2,13.2-15.3v15.3h0.4
		L699.5,29.5L699.5,29.5L699.5,29.5z"/>
</g>
<path id="XMLID_1237_" class="st0" d="M706.1,107.3c8.5,0,15.4,6,15.4,13.5v0.2c0,0,0,0,0,0h-15.4v-0.4l14.9,0c0,0,0,0,0,0
	c-0.1-7.1-6.8-12.8-14.9-12.8l0,0V107.3L706.1,107.3L706.1,107.3z"/>
<g id="Doors_21_">
	<path id="XMLID_175_" class="st0" d="M227.3,29.5h0.2c7.6,0,13.8,7.1,13.8,15.8l0,0h-0.4c0-8.4-5.9-15.2-13.2-15.3v15.3h-0.4
		L227.3,29.5L227.3,29.5L227.3,29.5z"/>
</g>
<g id="Doors_6_">
	<path id="XMLID_160_" class="st0" d="M227.3,554.1h0.2c7.6,0,13.8-7.1,13.8-15.8l0,0h-0.4c0,8.4-5.9,15.2-13.2,15.3v-15.3h-0.4
		L227.3,554.1L227.3,554.1L227.3,554.1z"/>
</g>
<g id="Doors_5_">
	<path id="XMLID_159_" class="st0" d="M699.5,554.1h-0.2c-7.6,0-13.8-7.1-13.8-15.8l0,0h0.4c0,8.4,5.9,15.2,13.2,15.3v-15.3h0.4
		L699.5,554.1L699.5,554.1L699.5,554.1z"/>
</g>
<g id="Doors_4_">
	<path id="XMLID_158_" class="st0" d="M721.5,462.4v0.2c0,7.6-7.1,13.8-15.8,13.8l0,0V476c8.3,0,15.1-5.9,15.3-13.2h-15.3v-0.4
		L721.5,462.4L721.5,462.4L721.5,462.4z"/>
</g>
<g class="st2">
	<path class="st0" d="M758.6,498.9l3.6-3.2c1.5-1.3,2.1-2.1,2.1-3.1c0-1.2-0.9-1.9-2-1.9c-1.1,0-1.9,0.6-2.6,1.7l-0.8-0.6
		c0.9-1.3,1.8-2.1,3.5-2.1c1.8,0,3.1,1.2,3.1,2.8c0,1.4-0.8,2.3-2.5,3.8l-2.6,2.3h5.2v1h-6.9V498.9z"/>
	<path class="st0" d="M767.1,498.3l0.7-0.8c0.9,0.8,1.8,1.4,2.8,1.4c1.4,0,2.4-0.9,2.4-2.2c0-1.2-1-2.1-2.5-2.1
		c-0.8,0-1.5,0.3-2.1,0.6l-0.7-0.5l0.3-4.8h5.7v1H769l-0.2,3.2c0.6-0.3,1.1-0.4,1.9-0.4c1.9,0,3.4,1.1,3.4,3c0,1.9-1.5,3.2-3.5,3.2
		C769.2,499.9,768,499.2,767.1,498.3z"/>
	<path class="st0" d="M775.6,501c0.6-0.2,0.9-0.6,0.9-1.1v-0.1H776v-1.5h1.3v1.3c0,1.1-0.5,1.7-1.6,1.9L775.6,501z"/>
	<path class="st0" d="M784.5,497.4h-5.2l-0.3-0.8l5.6-6.8h1v6.7h1.5v0.9h-1.5v2.3h-1.1V497.4z M784.5,496.5v-5.1l-4.1,5.1H784.5z"/>
</g>
<g class="st2">
	<path class="st0" d="M330.7,615.6l3.6-3.2c1.5-1.3,2.1-2.1,2.1-3.1c0-1.2-0.9-1.9-2-1.9c-1.1,0-1.9,0.6-2.6,1.7l-0.8-0.6
		c0.9-1.3,1.8-2.1,3.5-2.1c1.8,0,3.1,1.2,3.1,2.8c0,1.4-0.8,2.3-2.5,3.8l-2.6,2.3h5.2v1h-6.9V615.6z"/>
	<path class="st0" d="M344.7,607.6h-5.4v-1h6.7v0.8l-4.5,9h-1.2L344.7,607.6z"/>
	<path class="st0" d="M345.9,617.7c0.6-0.2,0.9-0.6,0.9-1.1v-0.1h-0.5V615h1.3v1.3c0,1.1-0.5,1.7-1.6,1.9L345.9,617.7z"/>
	<path class="st0" d="M349.4,614.9l0.8-0.7c0.8,0.9,1.7,1.5,2.9,1.5c1.2,0,2.2-0.8,2.2-1.9c0-1.2-1.1-1.9-2.8-1.9h-0.6l-0.2-0.7
		l3.1-3.5H350v-1h6.3v0.8l-3.1,3.4c1.7,0.1,3.3,1,3.3,2.8c0,1.8-1.5,3-3.3,3C351.5,616.7,350.3,615.9,349.4,614.9z"/>
</g>
<g class="st2">
	<path class="st0" d="M413.4,614.1h-5.2l-0.3-0.8l5.6-6.8h1v6.7h1.5v0.9h-1.5v2.3h-1.1V614.1z M413.4,613.2v-5.1l-4.1,5.1H413.4z"/>
	<path class="st0" d="M417.5,615.1l0.7-0.8c0.9,0.8,1.8,1.4,2.8,1.4c1.4,0,2.4-0.9,2.4-2.2c0-1.2-1-2.1-2.5-2.1
		c-0.8,0-1.5,0.3-2.1,0.6l-0.7-0.5l0.3-4.8h5.7v1h-4.7l-0.2,3.2c0.6-0.3,1.1-0.4,1.9-0.4c1.9,0,3.4,1.1,3.4,3c0,1.9-1.5,3.2-3.5,3.2
		C419.6,616.7,418.4,616,417.5,615.1z"/>
	<path class="st0" d="M426,617.7c0.6-0.2,0.9-0.6,0.9-1.1v-0.1h-0.5V615h1.3v1.3c0,1.1-0.5,1.7-1.6,1.9L426,617.7z"/>
	<path class="st0" d="M429.6,615.1l0.7-0.8c0.9,0.8,1.8,1.4,2.8,1.4c1.4,0,2.4-0.9,2.4-2.2c0-1.2-1-2.1-2.5-2.1
		c-0.8,0-1.5,0.3-2.1,0.6l-0.7-0.5l0.3-4.8h5.7v1h-4.7l-0.2,3.2c0.6-0.3,1.1-0.4,1.9-0.4c1.9,0,3.4,1.1,3.4,3c0,1.9-1.5,3.2-3.5,3.2
		C431.7,616.7,430.5,616,429.6,615.1z"/>
</g>
<g class="st2">
	<path class="st0" d="M146.2,497.3l3.6-3.2c1.5-1.3,2.1-2.1,2.1-3.1c0-1.2-0.9-1.9-2-1.9c-1.1,0-1.9,0.6-2.6,1.7l-0.8-0.6
		c0.9-1.3,1.8-2.1,3.5-2.1c1.8,0,3.1,1.2,3.1,2.8c0,1.4-0.8,2.3-2.5,3.8l-2.6,2.3h5.2v1h-6.9V497.3z"/>
	<path class="st0" d="M154.7,496.7l0.7-0.8c0.9,0.8,1.8,1.4,2.8,1.4c1.4,0,2.4-0.9,2.4-2.2c0-1.2-1-2.1-2.5-2.1
		c-0.8,0-1.5,0.3-2.1,0.6l-0.7-0.5l0.3-4.8h5.7v1h-4.7l-0.2,3.2c0.6-0.3,1.1-0.4,1.9-0.4c1.9,0,3.4,1.1,3.4,3c0,1.9-1.5,3.2-3.5,3.2
		C156.8,498.3,155.6,497.6,154.7,496.7z"/>
	<path class="st0" d="M163.2,499.4c0.6-0.2,0.9-0.6,0.9-1.1v-0.1h-0.5v-1.5h1.3v1.3c0,1.1-0.5,1.7-1.6,1.9L163.2,499.4z"/>
	<path class="st0" d="M172.1,495.8h-5.2l-0.3-0.8l5.6-6.8h1v6.7h1.5v0.9h-1.5v2.3h-1.1V495.8z M172.1,494.9v-5.1l-4.1,5.1H172.1z"/>
</g>
<g class="st2">
	<path class="st0" d="M758.6,95l3.6-3.2c1.5-1.3,2.1-2.1,2.1-3.1c0-1.2-0.9-1.9-2-1.9c-1.1,0-1.9,0.6-2.6,1.7l-0.8-0.6
		c0.9-1.3,1.8-2.1,3.5-2.1c1.8,0,3.1,1.2,3.1,2.8c0,1.4-0.8,2.3-2.5,3.8l-2.6,2.3h5.2v1h-6.9V95z"/>
	<path class="st0" d="M767.1,94.4l0.7-0.8c0.9,0.8,1.8,1.4,2.8,1.4c1.4,0,2.4-0.9,2.4-2.2c0-1.2-1-2.1-2.5-2.1
		c-0.8,0-1.5,0.3-2.1,0.6l-0.7-0.5L768,86h5.7v1H769l-0.2,3.2c0.6-0.3,1.1-0.4,1.9-0.4c1.9,0,3.4,1.1,3.4,3c0,1.9-1.5,3.2-3.5,3.2
		C769.2,96,768,95.3,767.1,94.4z"/>
	<path class="st0" d="M775.6,97c0.6-0.2,0.9-0.6,0.9-1.1v-0.1H776v-1.5h1.3v1.3c0,1.1-0.5,1.7-1.6,1.9L775.6,97z"/>
	<path class="st0" d="M784.5,93.5h-5.2l-0.3-0.8l5.6-6.8h1v6.7h1.5v0.9h-1.5v2.3h-1.1V93.5z M784.5,92.5v-5.1l-4.1,5.1H784.5z"/>
</g>
<g class="st2">
	<path class="st0" d="M759.1,234.7h3.5c1.5,0,2.4,0.7,2.4,1.8c0,1-0.6,1.4-1.2,1.7c0.9,0.2,1.6,0.8,1.6,1.8c0,1.2-1,2-2.6,2h-3.6
		V234.7z M762.4,237.8c0.9,0,1.5-0.4,1.5-1.2c0-0.6-0.5-1-1.5-1h-2.3v2.2H762.4z M762.6,241c1,0,1.7-0.5,1.7-1.2
		c0-0.7-0.6-1.1-1.8-1.1h-2.3v2.4H762.6z"/>
	<path class="st0" d="M768.8,235.6h-2.6v-1h6.3v1h-2.6v6.3h-1.1V235.6z"/>
	<path class="st0" d="M773.4,238.3c0-2.1,1.6-3.8,3.8-3.8c2.2,0,3.8,1.7,3.8,3.8c0,2.1-1.6,3.8-3.8,3.8
		C775,242.1,773.4,240.4,773.4,238.3z M779.9,238.3c0-1.6-1.2-2.8-2.7-2.8c-1.6,0-2.7,1.3-2.7,2.8s1.2,2.8,2.7,2.8
		C778.8,241.2,779.9,239.9,779.9,238.3z"/>
	<path class="st0" d="M782.9,234.7h1.1v1.5c0.6-0.9,1.5-1.6,2.8-1.6c1.7,0,3.5,1.4,3.5,3.8c0,2.4-1.7,3.8-3.5,3.8
		c-1.4,0-2.2-0.7-2.8-1.5v3.6h-1.1V234.7z M789.2,238.3c0-1.7-1.2-2.8-2.6-2.8c-1.4,0-2.6,1.1-2.6,2.8c0,1.7,1.3,2.8,2.6,2.8
		C788,241.2,789.2,240.1,789.2,238.3z"/>
	<path class="st0" d="M791.8,238.3c0-2.1,1.6-3.8,3.8-3.8c2.2,0,3.8,1.7,3.8,3.8c0,2.1-1.6,3.8-3.8,3.8
		C793.4,242.1,791.8,240.4,791.8,238.3z M798.3,238.3c0-1.6-1.2-2.8-2.7-2.8c-1.6,0-2.7,1.3-2.7,2.8s1.2,2.8,2.7,2.8
		C797.2,241.2,798.3,239.9,798.3,238.3z"/>
	<path class="st0" d="M801.4,234.7h1.1v5.8l4.3-5.8h1.1v7.3h-1.1v-5.8l-4.3,5.8h-1V234.7z M802.6,231.9l0.7-0.2c0.2,0.6,0.5,1,1.2,1
		c0.7,0,1.1-0.4,1.2-1l0.7,0.2c-0.2,1-0.9,1.7-2,1.7C803.5,233.6,802.8,232.9,802.6,231.9z"/>
	<path class="st0" d="M758.6,255.2c0-2.1,1.6-3.8,3.7-3.8c1.4,0,2.2,0.6,2.9,1.3l-0.7,0.7c-0.6-0.6-1.3-1.1-2.2-1.1
		c-1.5,0-2.6,1.3-2.6,2.8c0,1.6,1.2,2.8,2.7,2.8c0.9,0,1.6-0.5,2.2-1.1l0.7,0.7c-0.7,0.8-1.6,1.4-3,1.4
		C760.2,259,758.6,257.3,758.6,255.2z"/>
	<path class="st0" d="M767.1,251.6h3.5c1.5,0,2.4,0.7,2.4,1.8c0,1-0.6,1.4-1.2,1.7c0.9,0.2,1.6,0.8,1.6,1.8c0,1.2-1,2-2.6,2h-3.6
		V251.6z M770.5,254.7c0.9,0,1.5-0.4,1.5-1.2c0-0.6-0.5-1-1.5-1h-2.3v2.2H770.5z M770.6,257.9c1,0,1.7-0.5,1.7-1.2
		c0-0.7-0.6-1.1-1.8-1.1h-2.3v2.4H770.6z"/>
	<path class="st0" d="M774.9,255.2c0-2.1,1.5-3.8,3.5-3.8c2.2,0,3.4,1.7,3.4,3.9c0,0.1,0,0.2,0,0.4H776c0.2,1.5,1.3,2.4,2.6,2.4
		c1,0,1.7-0.4,2.3-1l0.7,0.6c-0.7,0.8-1.6,1.4-3,1.4C776.6,259,774.9,257.5,774.9,255.2z M780.7,254.8c-0.1-1.3-0.9-2.5-2.3-2.5
		c-1.3,0-2.2,1-2.4,2.5H780.7z"/>
	<path class="st0" d="M785.2,252.6h-2.6v-1h6.3v1h-2.6v6.3h-1.1V252.6z"/>
</g>
<g class="st2">
	<path class="st0" d="M146.2,95l3.6-3.2c1.5-1.3,2.1-2.1,2.1-3.1c0-1.2-0.9-1.9-2-1.9c-1.1,0-1.9,0.6-2.6,1.7l-0.8-0.6
		c0.9-1.3,1.8-2.1,3.5-2.1c1.8,0,3.1,1.2,3.1,2.8c0,1.4-0.8,2.3-2.5,3.8l-2.6,2.3h5.2v1h-6.9V95z"/>
	<path class="st0" d="M154.7,94.4l0.7-0.8c0.9,0.8,1.8,1.4,2.8,1.4c1.4,0,2.4-0.9,2.4-2.2c0-1.2-1-2.1-2.5-2.1
		c-0.8,0-1.5,0.3-2.1,0.6l-0.7-0.5l0.3-4.8h5.7v1h-4.7l-0.2,3.2c0.6-0.3,1.1-0.4,1.9-0.4c1.9,0,3.4,1.1,3.4,3c0,1.9-1.5,3.2-3.5,3.2
		C156.8,96,155.6,95.3,154.7,94.4z"/>
	<path class="st0" d="M163.2,97c0.6-0.2,0.9-0.6,0.9-1.1v-0.1h-0.5v-1.5h1.3v1.3c0,1.1-0.5,1.7-1.6,1.9L163.2,97z"/>
	<path class="st0" d="M172.1,93.5h-5.2l-0.3-0.8l5.6-6.8h1v6.7h1.5v0.9h-1.5v2.3h-1.1V93.5z M172.1,92.5v-5.1l-4.1,5.1H172.1z"/>
</g>
<g class="st2">
	<path class="st0" d="M146.7,234.7h3.5c1.5,0,2.4,0.7,2.4,1.8c0,1-0.6,1.4-1.2,1.7c0.9,0.2,1.6,0.8,1.6,1.8c0,1.2-1,2-2.6,2h-3.6
		V234.7z M150.1,237.8c0.9,0,1.5-0.4,1.5-1.2c0-0.6-0.5-1-1.5-1h-2.3v2.2H150.1z M150.2,241c1,0,1.7-0.5,1.7-1.2
		c0-0.7-0.6-1.1-1.8-1.1h-2.3v2.4H150.2z"/>
	<path class="st0" d="M156.5,235.6h-2.6v-1h6.3v1h-2.6v6.3h-1.1V235.6z"/>
	<path class="st0" d="M161,238.3c0-2.1,1.6-3.8,3.8-3.8c2.2,0,3.8,1.7,3.8,3.8c0,2.1-1.6,3.8-3.8,3.8
		C162.6,242.1,161,240.4,161,238.3z M167.5,238.3c0-1.6-1.2-2.8-2.7-2.8c-1.6,0-2.7,1.3-2.7,2.8s1.2,2.8,2.7,2.8
		C166.4,241.2,167.5,239.9,167.5,238.3z"/>
	<path class="st0" d="M170.6,234.7h1.1v1.5c0.6-0.9,1.5-1.6,2.8-1.6c1.7,0,3.5,1.4,3.5,3.8c0,2.4-1.7,3.8-3.5,3.8
		c-1.4,0-2.2-0.7-2.8-1.5v3.6h-1.1V234.7z M176.8,238.3c0-1.7-1.2-2.8-2.6-2.8c-1.4,0-2.6,1.1-2.6,2.8c0,1.7,1.3,2.8,2.6,2.8
		C175.7,241.2,176.8,240.1,176.8,238.3z"/>
	<path class="st0" d="M179.5,238.3c0-2.1,1.6-3.8,3.8-3.8c2.2,0,3.8,1.7,3.8,3.8c0,2.1-1.6,3.8-3.8,3.8
		C181.1,242.1,179.5,240.4,179.5,238.3z M186,238.3c0-1.6-1.2-2.8-2.7-2.8c-1.6,0-2.7,1.3-2.7,2.8s1.2,2.8,2.7,2.8
		C184.9,241.2,186,239.9,186,238.3z"/>
	<path class="st0" d="M189,234.7h1.1v5.8l4.3-5.8h1.1v7.3h-1.1v-5.8l-4.3,5.8h-1V234.7z M190.2,231.9l0.7-0.2c0.2,0.6,0.5,1,1.2,1
		s1.1-0.4,1.2-1l0.7,0.2c-0.2,1-0.9,1.7-2,1.7S190.4,232.9,190.2,231.9z"/>
	<path class="st0" d="M146.3,255.2c0-2.1,1.6-3.8,3.7-3.8c1.4,0,2.2,0.6,2.9,1.3l-0.7,0.7c-0.6-0.6-1.3-1.1-2.2-1.1
		c-1.5,0-2.6,1.3-2.6,2.8c0,1.6,1.2,2.8,2.7,2.8c0.9,0,1.6-0.5,2.2-1.1l0.7,0.7c-0.7,0.8-1.6,1.4-3,1.4
		C147.9,259,146.3,257.3,146.3,255.2z"/>
	<path class="st0" d="M154.8,251.6h3.5c1.5,0,2.4,0.7,2.4,1.8c0,1-0.6,1.4-1.2,1.7c0.9,0.2,1.6,0.8,1.6,1.8c0,1.2-1,2-2.6,2h-3.6
		V251.6z M158.1,254.7c0.9,0,1.5-0.4,1.5-1.2c0-0.6-0.5-1-1.5-1h-2.3v2.2H158.1z M158.3,257.9c1,0,1.7-0.5,1.7-1.2
		c0-0.7-0.6-1.1-1.8-1.1h-2.3v2.4H158.3z"/>
	<path class="st0" d="M162.6,255.2c0-2.1,1.5-3.8,3.5-3.8c2.2,0,3.4,1.7,3.4,3.9c0,0.1,0,0.2,0,0.4h-5.8c0.2,1.5,1.3,2.4,2.6,2.4
		c1,0,1.7-0.4,2.3-1l0.7,0.6c-0.7,0.8-1.6,1.4-3,1.4C164.2,259,162.6,257.5,162.6,255.2z M168.4,254.8c-0.1-1.3-0.9-2.5-2.3-2.5
		c-1.3,0-2.2,1-2.4,2.5H168.4z"/>
	<path class="st0" d="M172.9,252.6h-2.6v-1h6.3v1H174v6.3h-1.1V252.6z"/>
</g>
<g class="st2">
	<path class="st0" d="M759.1,326h3.5c1.5,0,2.4,0.7,2.4,1.8c0,1-0.6,1.4-1.2,1.7c0.9,0.2,1.6,0.8,1.6,1.8c0,1.2-1,2-2.6,2h-3.6V326z
		 M762.4,329.2c0.9,0,1.5-0.4,1.5-1.2c0-0.6-0.5-1-1.5-1h-2.3v2.2H762.4z M762.6,332.4c1,0,1.7-0.5,1.7-1.2c0-0.7-0.6-1.1-1.8-1.1
		h-2.3v2.4H762.6z"/>
	<path class="st0" d="M768.8,327h-2.6v-1h6.3v1h-2.6v6.3h-1.1V327z"/>
	<path class="st0" d="M773.4,329.7c0-2.1,1.6-3.8,3.8-3.8c2.2,0,3.8,1.7,3.8,3.8c0,2.1-1.6,3.8-3.8,3.8
		C775,333.5,773.4,331.8,773.4,329.7z M779.9,329.7c0-1.6-1.2-2.8-2.7-2.8c-1.6,0-2.7,1.3-2.7,2.8s1.2,2.8,2.7,2.8
		C778.8,332.5,779.9,331.2,779.9,329.7z"/>
	<path class="st0" d="M782.9,326h1.1v1.5c0.6-0.9,1.5-1.6,2.8-1.6c1.7,0,3.5,1.4,3.5,3.8c0,2.4-1.7,3.8-3.5,3.8
		c-1.4,0-2.2-0.7-2.8-1.5v3.6h-1.1V326z M789.2,329.7c0-1.7-1.2-2.8-2.6-2.8c-1.4,0-2.6,1.1-2.6,2.8c0,1.7,1.3,2.8,2.6,2.8
		C788,332.5,789.2,331.5,789.2,329.7z"/>
	<path class="st0" d="M791.8,329.7c0-2.1,1.6-3.8,3.8-3.8c2.2,0,3.8,1.7,3.8,3.8c0,2.1-1.6,3.8-3.8,3.8
		C793.4,333.5,791.8,331.8,791.8,329.7z M798.3,329.7c0-1.6-1.2-2.8-2.7-2.8c-1.6,0-2.7,1.3-2.7,2.8s1.2,2.8,2.7,2.8
		C797.2,332.5,798.3,331.2,798.3,329.7z"/>
	<path class="st0" d="M801.4,326h1.1v5.8l4.3-5.8h1.1v7.3h-1.1v-5.8l-4.3,5.8h-1V326z M802.6,323.3l0.7-0.2c0.2,0.6,0.5,1,1.2,1
		c0.7,0,1.1-0.4,1.2-1l0.7,0.2c-0.2,1-0.9,1.7-2,1.7C803.5,325,802.8,324.3,802.6,323.3z"/>
	<path class="st0" d="M758.6,346.6c0-2.1,1.6-3.8,3.7-3.8c1.4,0,2.2,0.6,2.9,1.3l-0.7,0.7c-0.6-0.6-1.3-1.1-2.2-1.1
		c-1.5,0-2.6,1.3-2.6,2.8c0,1.6,1.2,2.8,2.7,2.8c0.9,0,1.6-0.5,2.2-1.1l0.7,0.7c-0.7,0.8-1.6,1.4-3,1.4
		C760.2,350.4,758.6,348.7,758.6,346.6z"/>
	<path class="st0" d="M767.1,342.9h3.5c1.5,0,2.4,0.7,2.4,1.8c0,1-0.6,1.4-1.2,1.7c0.9,0.2,1.6,0.8,1.6,1.8c0,1.2-1,2-2.6,2h-3.6
		V342.9z M770.5,346.1c0.9,0,1.5-0.4,1.5-1.2c0-0.6-0.5-1-1.5-1h-2.3v2.2H770.5z M770.6,349.3c1,0,1.7-0.5,1.7-1.2
		c0-0.7-0.6-1.1-1.8-1.1h-2.3v2.4H770.6z"/>
	<path class="st0" d="M774.9,346.6c0-2.1,1.5-3.8,3.5-3.8c2.2,0,3.4,1.7,3.4,3.9c0,0.1,0,0.2,0,0.4H776c0.2,1.5,1.3,2.4,2.6,2.4
		c1,0,1.7-0.4,2.3-1l0.7,0.6c-0.7,0.8-1.6,1.4-3,1.4C776.6,350.4,774.9,348.9,774.9,346.6z M780.7,346.2c-0.1-1.3-0.9-2.5-2.3-2.5
		c-1.3,0-2.2,1-2.4,2.5H780.7z"/>
	<path class="st0" d="M785.2,343.9h-2.6v-1h6.3v1h-2.6v6.3h-1.1V343.9z"/>
</g>
<g class="st2">
	<path class="st0" d="M146.7,326h3.5c1.5,0,2.4,0.7,2.4,1.8c0,1-0.6,1.4-1.2,1.7c0.9,0.2,1.6,0.8,1.6,1.8c0,1.2-1,2-2.6,2h-3.6V326z
		 M150.1,329.2c0.9,0,1.5-0.4,1.5-1.2c0-0.6-0.5-1-1.5-1h-2.3v2.2H150.1z M150.2,332.4c1,0,1.7-0.5,1.7-1.2c0-0.7-0.6-1.1-1.8-1.1
		h-2.3v2.4H150.2z"/>
	<path class="st0" d="M156.5,327h-2.6v-1h6.3v1h-2.6v6.3h-1.1V327z"/>
	<path class="st0" d="M161,329.7c0-2.1,1.6-3.8,3.8-3.8c2.2,0,3.8,1.7,3.8,3.8c0,2.1-1.6,3.8-3.8,3.8
		C162.6,333.5,161,331.8,161,329.7z M167.5,329.7c0-1.6-1.2-2.8-2.7-2.8c-1.6,0-2.7,1.3-2.7,2.8s1.2,2.8,2.7,2.8
		C166.4,332.5,167.5,331.2,167.5,329.7z"/>
	<path class="st0" d="M170.6,326h1.1v1.5c0.6-0.9,1.5-1.6,2.8-1.6c1.7,0,3.5,1.4,3.5,3.8c0,2.4-1.7,3.8-3.5,3.8
		c-1.4,0-2.2-0.7-2.8-1.5v3.6h-1.1V326z M176.8,329.7c0-1.7-1.2-2.8-2.6-2.8c-1.4,0-2.6,1.1-2.6,2.8c0,1.7,1.3,2.8,2.6,2.8
		C175.7,332.5,176.8,331.5,176.8,329.7z"/>
	<path class="st0" d="M179.5,329.7c0-2.1,1.6-3.8,3.8-3.8c2.2,0,3.8,1.7,3.8,3.8c0,2.1-1.6,3.8-3.8,3.8
		C181.1,333.5,179.5,331.8,179.5,329.7z M186,329.7c0-1.6-1.2-2.8-2.7-2.8c-1.6,0-2.7,1.3-2.7,2.8s1.2,2.8,2.7,2.8
		C184.9,332.5,186,331.2,186,329.7z"/>
	<path class="st0" d="M189,326h1.1v5.8l4.3-5.8h1.1v7.3h-1.1v-5.8l-4.3,5.8h-1V326z M190.2,323.3l0.7-0.2c0.2,0.6,0.5,1,1.2,1
		s1.1-0.4,1.2-1l0.7,0.2c-0.2,1-0.9,1.7-2,1.7S190.4,324.3,190.2,323.3z"/>
	<path class="st0" d="M146.3,346.6c0-2.1,1.6-3.8,3.7-3.8c1.4,0,2.2,0.6,2.9,1.3l-0.7,0.7c-0.6-0.6-1.3-1.1-2.2-1.1
		c-1.5,0-2.6,1.3-2.6,2.8c0,1.6,1.2,2.8,2.7,2.8c0.9,0,1.6-0.5,2.2-1.1l0.7,0.7c-0.7,0.8-1.6,1.4-3,1.4
		C147.9,350.4,146.3,348.7,146.3,346.6z"/>
	<path class="st0" d="M154.8,342.9h3.5c1.5,0,2.4,0.7,2.4,1.8c0,1-0.6,1.4-1.2,1.7c0.9,0.2,1.6,0.8,1.6,1.8c0,1.2-1,2-2.6,2h-3.6
		V342.9z M158.1,346.1c0.9,0,1.5-0.4,1.5-1.2c0-0.6-0.5-1-1.5-1h-2.3v2.2H158.1z M158.3,349.3c1,0,1.7-0.5,1.7-1.2
		c0-0.7-0.6-1.1-1.8-1.1h-2.3v2.4H158.3z"/>
	<path class="st0" d="M162.6,346.6c0-2.1,1.5-3.8,3.5-3.8c2.2,0,3.4,1.7,3.4,3.9c0,0.1,0,0.2,0,0.4h-5.8c0.2,1.5,1.3,2.4,2.6,2.4
		c1,0,1.7-0.4,2.3-1l0.7,0.6c-0.7,0.8-1.6,1.4-3,1.4C164.2,350.4,162.6,348.9,162.6,346.6z M168.4,346.2c-0.1-1.3-0.9-2.5-2.3-2.5
		c-1.3,0-2.2,1-2.4,2.5H168.4z"/>
	<path class="st0" d="M172.9,343.9h-2.6v-1h6.3v1H174v6.3h-1.1V343.9z"/>
</g>
<g class="st2">
	<path class="st0" d="M330.7-22.3l3.6-3.2c1.5-1.3,2.1-2.1,2.1-3.1c0-1.2-0.9-1.9-2-1.9c-1.1,0-1.9,0.6-2.6,1.7l-0.8-0.6
		c0.9-1.3,1.8-2.1,3.5-2.1c1.8,0,3.1,1.2,3.1,2.8c0,1.4-0.8,2.3-2.5,3.8l-2.6,2.3h5.2v1h-6.9V-22.3z"/>
	<path class="st0" d="M344.7-30.3h-5.4v-1h6.7v0.8l-4.5,9h-1.2L344.7-30.3z"/>
	<path class="st0" d="M345.9-20.2c0.6-0.2,0.9-0.6,0.9-1.1v-0.1h-0.5v-1.5h1.3v1.3c0,1.1-0.5,1.7-1.6,1.9L345.9-20.2z"/>
	<path class="st0" d="M349.4-23l0.8-0.7c0.8,0.9,1.7,1.5,2.9,1.5c1.2,0,2.2-0.8,2.2-1.9c0-1.2-1.1-1.9-2.8-1.9h-0.6l-0.2-0.7
		l3.1-3.5H350v-1h6.3v0.8l-3.1,3.4c1.7,0.1,3.3,1,3.3,2.8c0,1.8-1.5,3-3.3,3C351.5-21.3,350.3-22,349.4-23z"/>
</g>
<g class="st2">
	<path class="st0" d="M568.5-22.3l3.6-3.2c1.5-1.3,2.1-2.1,2.1-3.1c0-1.2-0.9-1.9-2-1.9c-1.1,0-1.9,0.6-2.6,1.7l-0.8-0.6
		c0.9-1.3,1.8-2.1,3.5-2.1c1.8,0,3.1,1.2,3.1,2.8c0,1.4-0.8,2.3-2.5,3.8l-2.6,2.3h5.2v1h-6.9V-22.3z"/>
	<path class="st0" d="M582.4-30.3H577v-1h6.7v0.8l-4.5,9H578L582.4-30.3z"/>
	<path class="st0" d="M583.7-20.2c0.6-0.2,0.9-0.6,0.9-1.1v-0.1h-0.5v-1.5h1.3v1.3c0,1.1-0.5,1.7-1.6,1.9L583.7-20.2z"/>
	<path class="st0" d="M587.2-23l0.8-0.7c0.8,0.9,1.7,1.5,2.9,1.5c1.2,0,2.2-0.8,2.2-1.9c0-1.2-1.1-1.9-2.8-1.9h-0.6l-0.2-0.7
		l3.1-3.5h-4.8v-1h6.3v0.8l-3.1,3.4c1.7,0.1,3.3,1,3.3,2.8c0,1.8-1.5,3-3.3,3C589.2-21.3,588-22,587.2-23z"/>
</g>
<g class="st2">
	<path class="st0" d="M413.4-23.8h-5.2l-0.3-0.8l5.6-6.8h1v6.7h1.5v0.9h-1.5v2.3h-1.1V-23.8z M413.4-24.7v-5.1l-4.1,5.1H413.4z"/>
	<path class="st0" d="M417.5-22.8l0.7-0.8c0.9,0.8,1.8,1.4,2.8,1.4c1.4,0,2.4-0.9,2.4-2.2c0-1.2-1-2.1-2.5-2.1
		c-0.8,0-1.5,0.3-2.1,0.6l-0.7-0.5l0.3-4.8h5.7v1h-4.7l-0.2,3.2c0.6-0.3,1.1-0.4,1.9-0.4c1.9,0,3.4,1.1,3.4,3c0,1.9-1.5,3.2-3.5,3.2
		C419.6-21.3,418.4-21.9,417.5-22.8z"/>
	<path class="st0" d="M426-20.2c0.6-0.2,0.9-0.6,0.9-1.1v-0.1h-0.5v-1.5h1.3v1.3c0,1.1-0.5,1.7-1.6,1.9L426-20.2z"/>
	<path class="st0" d="M429.6-22.8l0.7-0.8c0.9,0.8,1.8,1.4,2.8,1.4c1.4,0,2.4-0.9,2.4-2.2c0-1.2-1-2.1-2.5-2.1
		c-0.8,0-1.5,0.3-2.1,0.6l-0.7-0.5l0.3-4.8h5.7v1h-4.7l-0.2,3.2c0.6-0.3,1.1-0.4,1.9-0.4c1.9,0,3.4,1.1,3.4,3c0,1.9-1.5,3.2-3.5,3.2
		C431.7-21.3,430.5-21.9,429.6-22.8z"/>
</g>
<g class="st2">
	<path class="st0" d="M500.4-23.8h-5.2l-0.3-0.8l5.6-6.8h1v6.7h1.5v0.9h-1.5v2.3h-1.1V-23.8z M500.4-24.7v-5.1l-4.1,5.1H500.4z"/>
	<path class="st0" d="M504.5-22.8l0.7-0.8c0.9,0.8,1.8,1.4,2.8,1.4c1.4,0,2.4-0.9,2.4-2.2c0-1.2-1-2.1-2.5-2.1
		c-0.8,0-1.5,0.3-2.1,0.6l-0.7-0.5l0.3-4.8h5.7v1h-4.7l-0.2,3.2c0.6-0.3,1.1-0.4,1.9-0.4c1.9,0,3.4,1.1,3.4,3c0,1.9-1.5,3.2-3.5,3.2
		C506.7-21.3,505.4-21.9,504.5-22.8z"/>
	<path class="st0" d="M513.1-20.2c0.6-0.2,0.9-0.6,0.9-1.1v-0.1h-0.5v-1.5h1.3v1.3c0,1.1-0.5,1.7-1.6,1.9L513.1-20.2z"/>
	<path class="st0" d="M516.6-22.8l0.7-0.8c0.9,0.8,1.8,1.4,2.8,1.4c1.4,0,2.4-0.9,2.4-2.2c0-1.2-1-2.1-2.5-2.1
		c-0.8,0-1.5,0.3-2.1,0.6l-0.7-0.5l0.3-4.8h5.7v1h-4.7l-0.2,3.2c0.6-0.3,1.1-0.4,1.9-0.4c1.9,0,3.4,1.1,3.4,3c0,1.9-1.5,3.2-3.5,3.2
		C518.7-21.3,517.5-21.9,516.6-22.8z"/>
</g>
<g class="st2">
	<path class="st0" d="M568.5,615.3l3.6-3.2c1.5-1.3,2.1-2.1,2.1-3.1c0-1.2-0.9-1.9-2-1.9c-1.1,0-1.9,0.6-2.6,1.7l-0.8-0.6
		c0.9-1.3,1.8-2.1,3.5-2.1c1.8,0,3.1,1.2,3.1,2.8c0,1.4-0.8,2.3-2.5,3.8l-2.6,2.3h5.2v1h-6.9V615.3z"/>
	<path class="st0" d="M582.4,607.3H577v-1h6.7v0.8l-4.5,9H578L582.4,607.3z"/>
	<path class="st0" d="M583.7,617.4c0.6-0.2,0.9-0.6,0.9-1.1v-0.1h-0.5v-1.5h1.3v1.3c0,1.1-0.5,1.7-1.6,1.9L583.7,617.4z"/>
	<path class="st0" d="M587.2,614.6l0.8-0.7c0.8,0.9,1.7,1.5,2.9,1.5c1.2,0,2.2-0.8,2.2-1.9c0-1.2-1.1-1.9-2.8-1.9h-0.6l-0.2-0.7
		l3.1-3.5h-4.8v-1h6.3v0.8l-3.1,3.4c1.7,0.1,3.3,1,3.3,2.8c0,1.8-1.5,3-3.3,3C589.2,616.3,588,615.6,587.2,614.6z"/>
</g>
<g class="st2">
	<path class="st0" d="M500.4,613.8h-5.2l-0.3-0.8l5.6-6.8h1v6.7h1.5v0.9h-1.5v2.3h-1.1V613.8z M500.4,612.9v-5.1l-4.1,5.1H500.4z"/>
	<path class="st0" d="M504.5,614.8l0.7-0.8c0.9,0.8,1.8,1.4,2.8,1.4c1.4,0,2.4-0.9,2.4-2.2c0-1.2-1-2.1-2.5-2.1
		c-0.8,0-1.5,0.3-2.1,0.6l-0.7-0.5l0.3-4.8h5.7v1h-4.7l-0.2,3.2c0.6-0.3,1.1-0.4,1.9-0.4c1.9,0,3.4,1.1,3.4,3c0,1.9-1.5,3.2-3.5,3.2
		C506.7,616.3,505.4,615.6,504.5,614.8z"/>
	<path class="st0" d="M513.1,617.4c0.6-0.2,0.9-0.6,0.9-1.1v-0.1h-0.5v-1.5h1.3v1.3c0,1.1-0.5,1.7-1.6,1.9L513.1,617.4z"/>
	<path class="st0" d="M516.6,614.8l0.7-0.8c0.9,0.8,1.8,1.4,2.8,1.4c1.4,0,2.4-0.9,2.4-2.2c0-1.2-1-2.1-2.5-2.1
		c-0.8,0-1.5,0.3-2.1,0.6l-0.7-0.5l0.3-4.8h5.7v1h-4.7l-0.2,3.2c0.6-0.3,1.1-0.4,1.9-0.4c1.9,0,3.4,1.1,3.4,3c0,1.9-1.5,3.2-3.5,3.2
		C518.7,616.3,517.5,615.6,516.6,614.8z"/>
</g>
<g class="st2">
	<path class="st0" d="M662.7-22.3l3.6-3.2c1.5-1.3,2.1-2.1,2.1-3.1c0-1.2-0.9-1.9-2-1.9c-1.1,0-1.9,0.6-2.6,1.7l-0.8-0.6
		c0.9-1.3,1.8-2.1,3.5-2.1c1.8,0,3.1,1.2,3.1,2.8c0,1.4-0.8,2.3-2.5,3.8l-2.6,2.3h5.2v1h-6.9V-22.3z"/>
	<path class="st0" d="M671.2-22.3l3.6-3.2c1.5-1.3,2.1-2.1,2.1-3.1c0-1.2-0.9-1.9-2-1.9c-1.1,0-1.9,0.6-2.6,1.7l-0.8-0.6
		c0.9-1.3,1.8-2.1,3.5-2.1c1.8,0,3.1,1.2,3.1,2.8c0,1.4-0.8,2.3-2.5,3.8l-2.6,2.3h5.2v1h-6.9V-22.3z"/>
	<path class="st0" d="M679.6-20.2c0.6-0.2,0.9-0.6,0.9-1.1v-0.1H680v-1.5h1.3v1.3c0,1.1-0.5,1.7-1.6,1.9L679.6-20.2z"/>
	<path class="st0" d="M688.5-23.8h-5.2l-0.3-0.8l5.6-6.8h1v6.7h1.5v0.9h-1.5v2.3h-1.1V-23.8z M688.5-24.7v-5.1l-4.1,5.1H688.5z"/>
</g>
<g class="st2">
	<path class="st0" d="M237.5-22.3l3.6-3.2c1.5-1.3,2.1-2.1,2.1-3.1c0-1.2-0.9-1.9-2-1.9c-1.1,0-1.9,0.6-2.6,1.7l-0.8-0.6
		c0.9-1.3,1.8-2.1,3.5-2.1c1.8,0,3.1,1.2,3.1,2.8c0,1.4-0.8,2.3-2.5,3.8l-2.6,2.3h5.2v1h-6.9V-22.3z"/>
	<path class="st0" d="M245.9-22.3l3.6-3.2c1.5-1.3,2.1-2.1,2.1-3.1c0-1.2-0.9-1.9-2-1.9c-1.1,0-1.9,0.6-2.6,1.7l-0.8-0.6
		c0.9-1.3,1.8-2.1,3.5-2.1c1.8,0,3.1,1.2,3.1,2.8c0,1.4-0.8,2.3-2.5,3.8l-2.6,2.3h5.2v1h-6.9V-22.3z"/>
	<path class="st0" d="M254.3-20.2c0.6-0.2,0.9-0.6,0.9-1.1v-0.1h-0.5v-1.5h1.3v1.3c0,1.1-0.5,1.7-1.6,1.9L254.3-20.2z"/>
	<path class="st0" d="M263.2-23.8H258l-0.3-0.8l5.6-6.8h1v6.7h1.5v0.9h-1.5v2.3h-1.1V-23.8z M263.2-24.7v-5.1l-4.1,5.1H263.2z"/>
</g>
<g class="st2">
	<path class="st0" d="M663.8,615.3l3.6-3.2c1.5-1.3,2.1-2.1,2.1-3.1c0-1.2-0.9-1.9-2-1.9c-1.1,0-1.9,0.6-2.6,1.7l-0.8-0.6
		c0.9-1.3,1.8-2.1,3.5-2.1c1.8,0,3.1,1.2,3.1,2.8c0,1.4-0.8,2.3-2.5,3.8l-2.6,2.3h5.2v1h-6.9V615.3z"/>
	<path class="st0" d="M672.2,615.3l3.6-3.2c1.5-1.3,2.1-2.1,2.1-3.1c0-1.2-0.9-1.9-2-1.9c-1.1,0-1.9,0.6-2.6,1.7l-0.8-0.6
		c0.9-1.3,1.8-2.1,3.5-2.1c1.8,0,3.1,1.2,3.1,2.8c0,1.4-0.8,2.3-2.5,3.8l-2.6,2.3h5.2v1h-6.9V615.3z"/>
	<path class="st0" d="M680.6,617.4c0.6-0.2,0.9-0.6,0.9-1.1v-0.1h-0.5v-1.5h1.3v1.3c0,1.1-0.5,1.7-1.6,1.9L680.6,617.4z"/>
	<path class="st0" d="M689.5,613.8h-5.2L684,613l5.6-6.8h1v6.7h1.5v0.9h-1.5v2.3h-1.1V613.8z M689.5,612.9v-5.1l-4.1,5.1H689.5z"/>
</g>
<g class="st2">
	<path class="st0" d="M237.5,615.3l3.6-3.2c1.5-1.3,2.1-2.1,2.1-3.1c0-1.2-0.9-1.9-2-1.9c-1.1,0-1.9,0.6-2.6,1.7l-0.8-0.6
		c0.9-1.3,1.8-2.1,3.5-2.1c1.8,0,3.1,1.2,3.1,2.8c0,1.4-0.8,2.3-2.5,3.8l-2.6,2.3h5.2v1h-6.9V615.3z"/>
	<path class="st0" d="M245.9,615.3l3.6-3.2c1.5-1.3,2.1-2.1,2.1-3.1c0-1.2-0.9-1.9-2-1.9c-1.1,0-1.9,0.6-2.6,1.7l-0.8-0.6
		c0.9-1.3,1.8-2.1,3.5-2.1c1.8,0,3.1,1.2,3.1,2.8c0,1.4-0.8,2.3-2.5,3.8l-2.6,2.3h5.2v1h-6.9V615.3z"/>
	<path class="st0" d="M254.3,617.4c0.6-0.2,0.9-0.6,0.9-1.1v-0.1h-0.5v-1.5h1.3v1.3c0,1.1-0.5,1.7-1.6,1.9L254.3,617.4z"/>
	<path class="st0" d="M263.2,613.8H258l-0.3-0.8l5.6-6.8h1v6.7h1.5v0.9h-1.5v2.3h-1.1V613.8z M263.2,612.9v-5.1l-4.1,5.1H263.2z"/>
</g>
<path id="XMLID_1207_" class="st0" d="M349.3,76.2h-15.8V76c0-8.7,7-15.8,15.7-15.8v0.4c-8.4,0-15.2,6.7-15.3,15.1h15.3L349.3,76.2
	L349.3,76.2z"/>
<path id="XMLID_1206_" class="st0" d="M578.7,76.2h15.8V76c0-8.7-7-15.8-15.8-15.8v0.4c8.4,0,15.2,6.7,15.3,15.1h-15.3V76.2
	L578.7,76.2z"/>
<path id="XMLID_1205_" class="st0" d="M573.6,32.8h-0.5c0-11.3-8.9-20.5-20-20.6v20.6h-0.5V11.7h0.3
	C564.3,11.7,573.6,21.1,573.6,32.8z"/>
<path id="XMLID_1204_" class="st0" d="M354.4,32.8h0.5c0-10.6,8.2-19.3,18.4-19.5v19.5h0.5v-20h-0.2C363,12.8,354.5,21.8,354.4,32.8
	z"/>
<path id="XMLID_1086_" class="st0" d="M394.3,81.2h-11.5v-0.4h11.3c-0.1-6.1-5.1-11.1-11.2-11.1l0,0v-0.4l0,0
	c6.4,0,11.6,5.2,11.6,11.6v0.2H394.3L394.3,81.2z"/>
<path id="XMLID_1085_" class="st0" d="M394.4,57.9h-11.5v0.4h11.3c-0.1,6.2-5.1,11.1-11.3,11.1l0,0v0.4l0,0
	c6.4,0,11.7-5.2,11.7-11.6v-0.2L394.4,57.9z"/>
<path id="XMLID_1088_" class="st0" d="M532.7,81.2h11.5v-0.4h-11.3c0.1-6.1,5.1-11.1,11.2-11.1l0,0v-0.4l0,0
	c-6.4,0-11.6,5.2-11.6,11.6v0.2H532.7L532.7,81.2z"/>
<path id="XMLID_1087_" class="st0" d="M532.7,57.9h11.5v0.4h-11.3c0.1,6.2,5.1,11.1,11.3,11.1l0,0v0.4l0,0
	c-6.4,0-11.7-5.2-11.7-11.6v-0.2L532.7,57.9z"/>
<g id="XMLID_653_">
	<polygon id="XMLID_1199_" class="st0" points="377.9,549.9 377.9,650.7 371.6,650.7 371.6,658.5 384.7,658.5 384.8,660.2 
		387.6,660.8 389.6,652.5 383.2,650.7 382.8,650.7 382.8,524.5 377.9,524.5 377.9,546.8 373.5,546.8 373.5,549.9 377.9,549.9 	"/>
	<polygon id="XMLID_1089_" class="st0" points="542.9,650.7 537.6,652.1 539.8,660.6 544,659.6 543.9,658.1 555.9,658.1 
		555.9,650.5 549.6,650.5 549.6,550.8 553.1,550.8 553.1,547 549.6,547 549.6,524.5 544.9,524.5 544.9,650.7 	"/>
</g>
<path id="XMLID_1196_" class="st0" d="M349.6,507.7h-15.8v0.2c0,8.7,7,15.8,15.7,15.8v-0.4c-8.4,0-15.2-6.7-15.3-15.1h15.3
	L349.6,507.7L349.6,507.7z"/>
<path id="XMLID_1195_" class="st0" d="M578.7,507.7h15.8v0.2c0,8.7-7,15.8-15.8,15.8v-0.4c8.4,0,15.2-6.7,15.3-15.1h-15.3V507.7
	L578.7,507.7z"/>
<path id="XMLID_1192_" class="st0" d="M573.6,549.9h-0.5c0,11.3-8.9,20.5-20,20.6v-20.6h-0.5v21.2h0.3
	C564.3,571.1,573.6,561.6,573.6,549.9z"/>
<path id="XMLID_1190_" class="st0" d="M354.4,549.9h0.5c0,10.6,8.2,19.3,18.4,19.5v-19.5h0.5v20h-0.2
	C363,569.9,354.5,560.9,354.4,549.9z"/>
<path id="XMLID_657_" class="st0" d="M394.3,501.5h-11.5v0.4h11.3c-0.1,6.1-5.1,11.1-11.2,11.1l0,0v0.4l0,0
	c6.4,0,11.6-5.2,11.6-11.6v-0.2H394.3L394.3,501.5z"/>
<path id="XMLID_655_" class="st0" d="M394.3,524.8h-11.5v-0.4h11.3c-0.1-6.2-5.1-11.1-11.3-11.1l0,0V513l0,0
	c6.4,0,11.7,5.2,11.7,11.6v0.2L394.3,524.8z"/>
<path id="XMLID_1022_" class="st0" d="M533.5,501.5h11.5v0.4h-11.3c0.1,6.1,5.1,11.1,11.2,11.1l0,0v0.4l0,0
	c-6.4,0-11.6-5.2-11.6-11.6v-0.2H533.5L533.5,501.5z"/>
<path id="XMLID_654_" class="st0" d="M533.4,524.8h11.5v-0.4h-11.3c0.1-6.2,5.1-11.1,11.3-11.1l0,0V513l0,0
	c-6.4,0-11.7,5.2-11.7,11.6v0.2L533.4,524.8z"/>
<g id="Doors_3_">
	<path id="XMLID_157_" class="st0" d="M369.4,111.1h-0.3c-9.6,0-17.4,7.8-17.4,17.5l0,0h0.6c0-9.3,7.4-16.8,16.6-17v17h0.6
		L369.4,111.1L369.4,111.1L369.4,111.1z"/>
</g>
<g id="Doors_2_">
	<path id="XMLID_156_" class="st0" d="M557.8,111.1h0.3c9.6,0,17.4,7.8,17.4,17.5l0,0h-0.6c0-9.3-7.4-16.8-16.6-17v17h-0.6
		L557.8,111.1L557.8,111.1L557.8,111.1z"/>
</g>
<g id="Doors_1_">
	<path id="XMLID_155_" class="st0" d="M369.4,472.5h-0.3c-9.6,0-17.4-7.8-17.4-17.5l0,0h0.6c0,9.3,7.4,16.8,16.6,17v-17h0.6
		L369.4,472.5L369.4,472.5L369.4,472.5z"/>
</g>
<g id="Doors">
	<path id="XMLID_154_" class="st0" d="M557.8,472.5h0.3c9.6,0,17.4-7.8,17.4-17.5l0,0h-0.6c0,9.3-7.4,16.8-16.6,17v-17h-0.6
		L557.8,472.5L557.8,472.5L557.8,472.5z"/>
</g>
<g>
	<polygon class="st0" points="121.9,16.7 162.9,16.7 162.9,13 121.9,13 121.4,13 106.4,13 106.4,42 121.9,42 	"/>
	<polygon class="st0" points="184.5,20.9 198.4,20.9 198.4,29.1 220.7,29.1 220.7,107.7 225.3,107.7 225.3,48.5 227.7,48.5 
		227.7,44.9 225.3,44.9 225.3,13 187.5,13 187.5,-51.1 213,-51.1 213,-58.5 231.9,-58.5 231.9,-66.2 184.5,-66.2 184.5,13 184.5,13 
		177.7,13 177.7,16.7 184.5,16.7 	"/>
	<polygon class="st0" points="104.6,135.7 122.3,135.7 213.1,135.7 213.1,186.1 203.2,186.1 203.2,209.9 220.7,209.9 224.8,209.9 
		248.4,209.9 248.4,287.6 250.2,287.6 250.2,209.9 250.2,209.9 250.2,208 224.8,208 224.8,186.1 215,186.1 215,135.7 225.3,135.7 
		225.3,125.3 225.3,123.5 225.3,120.5 220.7,120.5 220.7,123.5 213.7,123.5 106.4,123.5 96.9,123.5 96.9,173.6 104.6,173.6 	"/>
	<polygon class="st0" points="121.2,540.4 105.6,540.4 105.6,569.4 121.2,569.4 121.2,569.5 162.1,569.5 162.1,565.7 121.2,565.7 	
		"/>
	<polygon class="st0" points="213,632.9 186.8,632.9 186.8,568.9 225.3,568.9 225.3,538.8 227.7,538.8 227.7,535.2 225.3,535.2 
		225.3,474.8 220.7,474.8 220.7,552.8 198.4,552.8 198.4,561.1 184.5,561.1 184.5,565.7 177,565.7 177,569.5 183.8,569.5 
		183.8,632.9 183.7,632.9 183.7,648.1 231.9,648.1 231.9,640.3 213,640.3 	"/>
	<polygon class="st0" points="804.9,42 820.4,42 820.4,13 763.9,13 763.9,16.7 804.9,16.7 	"/>
	<path class="st0" d="M829.9,196.2h-7.8v15.9l0.8,0.1l1.4,5.2c0,0,0,0,0,0l8.1-2.4c0,0,0,0,0,0l-0.6-2.8c-0.1-0.5-0.5-0.9-1-1.1
		c-0.6-0.2-1.1-0.7-1.1-1.4V196.2z"/>
	<path class="st0" d="M825,365l-1.4,5.2l-0.8,0.1v15.9h7.8v-13.5c0-0.6,0.4-1.2,1.1-1.4c0.5-0.1,0.9-0.5,1-1.1l0.6-2.8c0,0,0,0,0,0
		L825,365z"/>
	<polygon class="st0" points="713.8,-51.1 739.2,-51.1 739.2,13 701.5,13 701.5,44.9 699.1,44.9 699.1,48.5 701.5,48.5 701.5,107.7 
		706.1,107.7 706.1,29.1 728.4,29.1 728.4,20.9 742.3,20.9 742.3,16.7 749.1,16.7 749.1,13 742.3,13 742.3,13 742.3,13 742.3,-66.2 
		694.9,-66.2 694.9,-58.5 713.8,-58.5 	"/>
	<polygon class="st0" points="706.1,123.5 706.1,120.6 701.5,120.6 701.5,135.7 804.4,135.7 822.2,135.7 822.2,173.6 829.9,173.6 
		829.9,123.5 820.4,123.5 	"/>
	<polygon class="st0" points="805.6,565.7 764.7,565.7 764.7,569.5 805.6,569.5 805.6,569.4 821.1,569.4 821.1,540.4 805.6,540.4 	
		"/>
	<polygon class="st0" points="742.3,561.1 728.4,561.1 728.4,552.8 706.1,552.8 706.1,475.9 701.5,475.9 701.5,535.2 699.1,535.2 
		699.1,538.8 701.5,538.8 701.5,568.9 740,568.9 740,632.9 713.8,632.9 713.8,640.3 694.9,640.3 694.9,648.1 743,648.1 743,633.5 
		743,633.5 743,569.5 749.8,569.5 749.8,565.7 742.3,565.7 	"/>
	<polygon class="st0" points="96.3,408.7 96.3,458.8 105.8,458.8 220.1,458.8 220.1,461.8 224.7,461.8 224.7,446.6 215,446.6 
		215,396 224.8,396 224.8,374 250.2,374 250.2,372.2 224.8,372.2 220.7,372.2 203.2,372.2 203.2,396 213.1,396 213.1,446.6 
		121.8,446.6 104.1,446.6 104.1,408.7 	"/>
	<polygon class="st0" points="377.9,32.8 373.5,32.8 373.5,35.9 377.9,35.9 377.9,58.2 382.8,58.2 382.8,-68 383.2,-68 389.6,-69.8 
		387.6,-78.1 384.8,-77.2 384.7,-75.8 371.6,-75.8 371.6,-68 377.9,-68 	"/>
	<polygon class="st0" points="544,-68 544,58.3 549.1,58.3 549.1,35.7 553.1,35.7 553.1,31.9 549.1,31.9 549.1,-67.7 555.9,-67.7 
		555.9,-75.4 543.9,-75.4 544.1,-77.3 540,-78.3 537.6,-69.4 542.9,-68 	"/>
	<path class="st0" d="M701.6,282.6v4.7l0,0h-51.4v-3.5h-17.8V178.9l-5,0v-43.4l48.6,0v-1.9v-3.4v-3.7h-3.6v3.7h-39.4v-27.6h11V88.4
		h28.5v0.1v22.9h3.6V88.6v-3.5v-3.6h-3.6v3.6h-39.4V23.4h10.4h0.7h28.3v43h3.6V48.5h10v-3.6h-10V19.7h-31.9h-0.1V5.9h-13.7v-64.4h12
		v-7.8h-12v-9.2h-45.5v7.7h33v15.9v94.9h-38.9V32.8h-5.7v3.1h2.3v24.8h3.4V46.5h38.9v14.6h-11.5v3.4h11.5v40H590V95h-11.1V75.7h-3.4
		v22.7h11.2v30l-11.8,0v7.1h9.9v0l33.6,0v43.4l-135.5,0v13l15.8,0l0,16l0,12.6l-0.1,32.8h6.2v-4h34.4v4h5.4v-4h52.7v-6.1h-32.7
		v-49.3h55.6v49.3h-4.2v6.1h4.2v122.6h-65.3v-94h-10.3v-5.3h-4.7v5.3h-35.1v-5.7h-6.2v5.7h-2v20.6h8V291h37.3v37.4h-37.2v-9.1h-8
		v23.2h8v-8.2h37.2v37.6h-37.2v-9.3h-8V388h-13.6v15l135.5-0.1v45.3h-43.5v7h11.8v30.3h-11.2v22.7h3.4v-19.3H590v-9.6h27.7v40h-11.5
		v3.4h11.5v14.6h-38.9v-14.2h-3.4V548h-2.3v3.1h5.7v-10.3h38.9v94.9v14.7h-33v7.7h45.5v-10.1h12v-7.8h-12V578h13.7v-13.8h0.1H676
		v-25.1h10v-3.6h-10v-17.9h-3.6v43h-28.3h-0.7h-10.4v-61.7h39.4v3.6h3.6v-3.6v-3.5v-22.9h-3.6v22.9v0.1h-28.5v-14.1h-11v-27.6h39.4
		v3.7h3.6v-3.7v-3.4v-1.9l-48.6,0v-45.5l5.1,0l-0.1-105.1h17.8v-3.5h26.3v79.8h0h1.9h23.5v22h9.8v50.5h-9.7v16.2h4.6v-4H821h9.5
		v-50.1h-7.7v37.9H805h-91.3v-50.5h9.9v-23.8h-17.5h-4.1h-23.5v-77.9h23.2v4.9h138.2v-16.7H701.6z M504.2,231.3H499v-22.9h5.1V231.3
		z M558.4,243.2h-53.7v-49.3h53.7V243.2z"/>
	<polygon class="st0" points="352.9,523.2 349.5,523.2 349.5,537.4 309.2,537.4 309.2,522.8 322.1,522.8 322.1,519.4 309.2,519.4 
		309.2,479.4 338.3,479.4 338.3,488.9 349.5,488.9 349.5,508.2 352.9,508.2 352.9,485.5 341.7,485.5 341.7,479.4 341.7,479.4 
		341.7,455.5 352.3,455.5 352.3,448.2 308.6,448.2 308.6,403 443.7,403 443.7,388 428.2,388 428.3,328.6 422.1,328.6 422.1,332.6 
		387.7,332.6 387.7,328.6 382.3,328.6 382.3,332.6 329.6,332.6 329.6,338.7 362.3,338.7 362.3,350.2 368.4,350.2 368.4,338.7 
		422.1,338.7 422.1,388 368.4,388 368.4,373.8 362.3,373.8 362.3,388 306.7,388 306.7,338.7 311,338.7 311,332.6 306.7,332.6 
		306.7,210 372,210 372,304 382.3,304 382.3,309 387,309 387,304 422.1,304 422.1,309.7 428.4,309.7 428.4,304 430.3,304 
		430.3,283.4 422.4,283.4 422.4,290.9 385.1,290.9 385.1,253.5 422.4,253.5 422.4,262.6 430.3,262.6 430.3,239.4 422.4,239.4 
		422.4,247.6 385.1,247.6 385.1,210 422.4,210 422.4,219.3 430.3,219.3 430.3,191.9 443.9,191.9 443.9,178.9 308.6,179 308.6,135.5 
		342.2,135.5 342.2,135.5 352.3,135.5 352.3,128.4 341.7,128.4 341.7,104.6 341.7,104.6 341.7,98.4 352.9,98.4 352.9,75.7 
		349.5,75.7 349.5,95 338.3,95 338.3,104.6 309.2,104.6 309.2,64.5 322.1,64.5 322.1,61.1 309.2,61.1 309.2,46.5 349.5,46.5 
		349.5,60.7 352.9,60.7 352.9,35.9 355.2,35.9 355.2,32.8 349.5,32.8 349.5,43.1 309.2,43.1 309.2,-51.8 309.2,-68 342.2,-68 
		342.2,-75.8 296.7,-75.8 296.7,-66.2 284.6,-66.2 284.6,-58.5 296.7,-58.5 296.7,5.9 283,5.9 283,19.7 282.9,19.7 250.9,19.7 
		250.9,44.9 240.9,44.9 240.9,48.5 250.9,48.5 250.9,66.4 254.6,66.4 254.6,23.4 282.9,23.4 283.6,23.4 294,23.4 294,85.1 
		254.6,85.1 254.6,81.5 250.9,81.5 250.9,111.4 254.6,111.4 254.6,88.4 283,88.4 283,102.5 294,102.5 294,130.2 254.6,130.2 
		254.6,126.5 250.9,126.5 250.9,135.5 299.5,135.5 299.5,179 294.2,179 294.3,284.1 276.5,284.1 276.5,287.6 225.1,287.6 
		225.1,282.7 86.9,282.7 86.9,299.4 225.1,299.4 225.1,294.7 225.2,294.7 276.5,294.7 276.5,298.2 294.3,298.2 294.3,403 299.5,403 
		299.5,448.5 250.9,448.4 250.9,457.4 254.6,457.4 254.6,453.8 294,453.8 294,481.4 283,481.4 283,495.5 254.6,495.5 254.6,472.5 
		250.9,472.5 250.9,502.5 254.6,502.5 254.6,498.8 294,498.8 294,560.6 283.6,560.6 282.9,560.6 254.6,560.6 254.6,517.6 
		250.9,517.6 250.9,535.4 240.9,535.4 240.9,539.1 250.9,539.1 250.9,564.2 282.9,564.2 283,564.2 283,578 296.7,578 296.7,640.3 
		284.6,640.3 284.6,648.1 296.7,648.1 296.7,658.5 342.2,658.5 342.2,650.7 309.2,650.7 309.2,635.7 309.2,540.8 349.5,540.8 
		349.5,551.1 355.2,551.1 355.2,548 352.9,548 	"/>
	<polygon class="st0" points="540,135.5 558.3,135.5 558.3,128.4 554.4,128.4 554.4,128.4 549.7,128.4 549.7,80.7 544.1,80.7 
		544.1,128.4 485.7,128.4 485.7,92.2 470.2,92.2 470.2,-84.3 456.4,-84.3 456.4,92.2 440.6,92.2 440.6,128.4 382.8,128.4 
		382.8,80.7 382.8,80.6 377.9,80.6 377.9,128.4 372.7,128.4 368.9,128.4 368.9,135.5 537.6,135.5 	"/>
	<polygon class="st0" points="369,455.2 372.7,455.2 378,455.3 378,503 382.9,503 382.9,455.2 440.6,455.2 440.6,491.4 456.5,491.4 
		456.5,668 470.3,668 470.3,491.4 485.8,491.4 485.8,455.2 544.1,455.2 544.1,502.9 549.8,502.9 549.8,455.2 558.3,455.2 
		558.3,448.2 369,448.2 	"/>
</g>
</svg>
