<?xml version="1.0" encoding="iso-8859-1"?>
<!-- Generator: Adobe Illustrator 19.0.0, SVG Export Plug-In . SVG Version: 6.00 Build 0)  -->
<svg version="1.1" id="Layer_1" xmlns="http://www.w3.org/2000/svg" xmlns:xlink="http://www.w3.org/1999/xlink" x="0px" y="0px"
	 viewBox="0 0 107.99 108" style="enable-background:new 0 0 107.99 108;" xml:space="preserve">
<path id="XMLID_33_" style="fill:#FFFFFF;" d="M47.55,108C21.289,108,0,86.711,0,60.45S21.289,12.9,47.55,12.9
	S95.1,34.189,95.1,60.45v0l0,0C95.072,86.7,73.8,107.972,47.55,108z M47.55,13.9C21.841,13.9,1,34.741,1,60.45S21.841,107,47.55,107
	S94.1,86.159,94.1,60.45l0,0C94.1,34.741,73.259,13.9,47.55,13.9z"/>
<rect id="XMLID_32_" x="47.29" y="16.14" style="fill:#FFFFFF;" width="0.5" height="7.5"/>
<circle id="XMLID_31_" style="opacity:0.3;fill:#010101;enable-background:new    ;" cx="47.54" cy="60.45" r="31"/>
<path id="XMLID_28_" style="fill:#FFFFFF;" d="M51.12,49.3h-6.69c-3.067,0.08-5.527,2.562-5.58,5.63v7c0,2.39,1.48,7.47,4.88,8.95
	c2.619,1.068,5.551,1.068,8.17,0c3.38-1.47,4.83-6.55,4.86-9v-6.93C56.712,51.854,54.216,49.354,51.12,49.3z M54.75,61.86
	C54.72,64.13,53.31,68,51.11,69c-2.121,0.85-4.489,0.85-6.61,0c-2.19-1-3.63-4.86-3.65-7.12v-7c0.077-1.968,1.661-3.543,3.63-3.61
	h2.18v4.2c0,0.552,0.448,1,1,1s1-0.448,1-1V51.3h2.43c1.99,0.051,3.597,1.641,3.67,3.63v6.93H54.75z"/>
</svg>
