<?xml version="1.0" encoding="utf-8"?>
<!-- Generator: Adobe Illustrator 19.0.0, SVG Export Plug-In . SVG Version: 6.00 Build 0)  -->
<svg version="1.1" id="_x34_0_floor" xmlns="http://www.w3.org/2000/svg" xmlns:xlink="http://www.w3.org/1999/xlink" x="0px"
	 y="0px" viewBox="17 104.3 753 752.7" style="enable-background:new 17 104.3 753 752.7;" xml:space="preserve">
<style type="text/css">
	.st0{fill:#FFFFFF;}
	.st1{enable-background:new    ;}
</style>
<symbol  id="Doors_10_" viewBox="-8 -7.9 16.1 15.8">
	<path class="st0" d="M8-7.9H7.8C-1-7.9-8-0.8-8,7.9l0,0h0.5c0-8.4,6.7-15.2,15.1-15.3V7.9h0.5L8-7.9L8-7.9L8-7.9z"/>
</symbol>
<rect x="46.1" y="130.5" class="st0" width="104.7" height="1"/>
<rect x="161.9" y="130.5" class="st0" width="52.7" height="1"/>
<rect x="36.5" y="124.3" class="st0" width="1" height="82"/>
<rect x="43" y="131" class="st0" width="1" height="75.3"/>
<rect x="36.5" y="232" class="st0" width="1" height="67.3"/>
<rect x="43" y="232" class="st0" width="1" height="67.5"/>
<rect x="36.5" y="376.1" class="st0" width="1" height="39.1"/>
<rect x="43" y="376.1" class="st0" width="1" height="39.1"/>
<rect x="178.5" y="398" class="st0" width="1.9" height="80.7"/>
<rect x="178.5" y="484.5" class="st0" width="1.9" height="79.6"/>
<rect x="36.5" y="123.8" class="st0" width="114.3" height="1"/>
<rect x="184.8" y="130.5" class="st0" width="104.7" height="1"/>
<rect x="184.3" y="123.8" class="st0" width="105.2" height="1"/>
<rect x="312.2" y="130.5" class="st0" width="73.1" height="1"/>
<rect x="311.8" y="123.8" class="st0" width="73.4" height="1"/>
<rect x="161.9" y="123.8" class="st0" width="52.7" height="1"/>
<path class="st0" d="M298,540.8v23.5h-5.1v-23.5H298L298,540.8z M298.5,540.3h-6.1v24.6h6.1V540.3L298.5,540.3z"/>
<path class="st0" d="M359.9,409.8v20.4h-7v-20.4H359.9L359.9,409.8z M360.4,409.3h-8v21.5h8V409.3L360.4,409.3z"/>
<path class="st0" d="M359.9,453.2v19.7h-7v-19.7H359.9L359.9,453.2z M360.4,452.7h-8v20.7h8V452.7L360.4,452.7L360.4,452.7
	L360.4,452.7z"/>
<rect x="333.6" y="393.4" transform="matrix(-0.7077 0.7065 -0.7065 -0.7077 866.7265 481.105)" class="st0" width="0.5" height="52.9"/>
<rect x="307.4" y="419.6" transform="matrix(-0.7035 0.7107 -0.7107 -0.7035 867.0547 477.9013)" class="st0" width="52.9" height="0.5"/>
<rect x="333.6" y="436.8" transform="matrix(-0.7055 0.7087 -0.7087 -0.7055 897.652 553.4022)" class="st0" width="0.5" height="52.7"/>
<rect x="307.5" y="463" transform="matrix(-0.7055 0.7087 -0.7087 -0.7055 897.6471 553.3901)" class="st0" width="52.7" height="0.5"/>
<rect x="453" y="517.1" transform="matrix(-0.7095 -0.7047 0.7047 -0.7095 391.332 1249.7999)" class="st0" width="0.5" height="54.2"/>
<rect x="426.2" y="544" transform="matrix(-0.7053 -0.7089 0.7089 -0.7053 387.1198 1249.4612)" class="st0" width="54.2" height="0.5"/>
<rect x="453" y="473.8" transform="matrix(-0.7067 -0.7075 0.7075 -0.7067 419.2895 1175.4344)" class="st0" width="0.5" height="54.1"/>
<rect x="426.2" y="500.6" transform="matrix(-0.7067 -0.7075 0.7075 -0.7067 419.2844 1175.4468)" class="st0" width="54.1" height="0.5"/>
<rect x="325.1" y="518" transform="matrix(-0.6728 0.7399 -0.7399 -0.6728 954.4542 686.6425)" class="st0" width="0.5" height="72.9"/>
<rect x="289" y="554.1" transform="matrix(-0.737 0.6758 -0.6758 -0.737 939.8658 742.9866)" class="st0" width="72.9" height="0.5"/>
<g>
	<path class="st0" d="M273.6,481.8h-9v-58.3h9V481.8L273.6,481.8z M265.1,481.3h8v-57.3h-8V481.3L265.1,481.3L265.1,481.3z"/>
	<path class="st0" d="M271.2,479h-4.4v-52.6h4.3L271.2,479L271.2,479L271.2,479z M267.4,478.5h3.3v-51.6h-3.4L267.4,478.5
		L267.4,478.5L267.4,478.5z"/>
	<rect x="236" y="426.4" class="st0" width="28.8" height="0.5"/>
	<rect x="236" y="432.5" class="st0" width="28.8" height="0.5"/>
	<rect x="236" y="438.6" class="st0" width="28.8" height="0.5"/>
	
		<rect x="236" y="444.7" transform="matrix(-1 3.857263e-003 -3.857263e-003 -1 502.4662 889.0218)" class="st0" width="28.8" height="0.5"/>
	<rect x="236" y="450.8" class="st0" width="28.8" height="0.5"/>
	<rect x="236" y="456.9" class="st0" width="28.8" height="0.5"/>
	<rect x="236" y="463" class="st0" width="28.8" height="0.5"/>
	<rect x="236" y="469.2" class="st0" width="28.8" height="0.5"/>
	<rect x="236" y="475.2" class="st0" width="28.8" height="0.5"/>
	<rect x="236" y="481.3" class="st0" width="28.8" height="0.5"/>
	<rect x="273.3" y="426.4" class="st0" width="28.8" height="0.5"/>
	<rect x="273.3" y="432.5" class="st0" width="28.8" height="0.5"/>
	<rect x="273.3" y="438.6" class="st0" width="28.8" height="0.5"/>
	
		<rect x="273.3" y="444.7" transform="matrix(-1 3.857263e-003 -3.857263e-003 -1 577.1242 888.8698)" class="st0" width="28.8" height="0.5"/>
	<rect x="273.3" y="450.8" class="st0" width="28.8" height="0.5"/>
	<rect x="273.3" y="456.9" class="st0" width="28.8" height="0.5"/>
	<rect x="273.3" y="463" class="st0" width="28.8" height="0.5"/>
	<rect x="273.3" y="469.2" class="st0" width="28.8" height="0.5"/>
	<rect x="273.3" y="475.2" class="st0" width="28.8" height="0.5"/>
	<rect x="273.3" y="481.3" class="st0" width="28.8" height="0.5"/>
	<polygon class="st0" points="251.3,480.1 250.8,480.1 250.8,411 287.7,411 287.7,479.4 287.2,479.4 287.2,411.5 251.3,411.5 	"/>
	<polygon class="st0" points="285.9,479 287.4,481.6 288.9,479 	"/>
	
		<rect x="271.7" y="435.5" transform="matrix(-0.9623 0.2719 -0.2719 -0.9623 681.2176 777.0233)" class="st0" width="30.2" height="0.5"/>
	
		<rect x="272.8" y="437.7" transform="matrix(-0.9648 0.263 -0.263 -0.9648 680.8531 784.6862)" class="st0" width="30.2" height="0.5"/>
	<ellipse class="st0" cx="251.1" cy="481.4" rx="2.1" ry="2.1"/>
	<rect x="287.2" y="458.8" class="st0" width="0.5" height="6.2"/>
	<polygon class="st0" points="285.9,459.2 287.4,456.6 288.9,459.2 	"/>
</g>
<g>
	<path class="st0" d="M513.5,480.1h9v58.3h-9V480.1L513.5,480.1z M522,480.6h-8v57.3h8V480.6L522,480.6L522,480.6z"/>
	<path class="st0" d="M515.8,482.9h4.4v52.6h-4.3L515.8,482.9L515.8,482.9L515.8,482.9z M519.6,483.4h-3.3V535h3.4L519.6,483.4
		L519.6,483.4L519.6,483.4z"/>
	<rect x="522.2" y="535" class="st0" width="28.8" height="0.5"/>
	<rect x="522.2" y="528.9" class="st0" width="28.8" height="0.5"/>
	<rect x="522.2" y="522.8" class="st0" width="28.8" height="0.5"/>
	
		<rect x="522.2" y="516.7" transform="matrix(1 -3.857263e-003 3.857263e-003 1 -1.9899 2.0739)" class="st0" width="28.8" height="0.5"/>
	<rect x="522.2" y="510.6" class="st0" width="28.8" height="0.5"/>
	<rect x="522.2" y="504.5" class="st0" width="28.8" height="0.5"/>
	<rect x="522.2" y="498.4" class="st0" width="28.8" height="0.5"/>
	<rect x="522.2" y="492.3" class="st0" width="28.8" height="0.5"/>
	<rect x="522.2" y="486.2" class="st0" width="28.8" height="0.5"/>
	<rect x="522.2" y="480.1" class="st0" width="28.8" height="0.5"/>
	<rect x="484.9" y="535" class="st0" width="28.8" height="0.5"/>
	<rect x="484.9" y="528.9" class="st0" width="28.8" height="0.5"/>
	<rect x="484.9" y="522.8" class="st0" width="28.8" height="0.5"/>
	
		<rect x="484.9" y="516.7" transform="matrix(1 -3.857263e-003 3.857263e-003 1 -1.9902 1.9299)" class="st0" width="28.8" height="0.5"/>
	<rect x="484.9" y="510.6" class="st0" width="28.8" height="0.5"/>
	<rect x="484.9" y="504.5" class="st0" width="28.8" height="0.5"/>
	<rect x="484.9" y="498.4" class="st0" width="28.8" height="0.5"/>
	<rect x="484.9" y="492.3" class="st0" width="28.8" height="0.5"/>
	<rect x="484.9" y="486.2" class="st0" width="28.8" height="0.5"/>
	<rect x="484.9" y="480.1" class="st0" width="28.8" height="0.5"/>
	<polygon class="st0" points="535.7,481.8 536.2,481.8 536.2,551 499.3,551 499.3,482.5 499.8,482.5 499.8,550.5 535.7,550.5 	"/>
	<polygon class="st0" points="501.1,482.9 499.6,480.3 498.1,482.9 	"/>
	
		<rect x="485.1" y="526" transform="matrix(0.9623 -0.2719 0.2719 0.9623 -124.2284 155.8393)" class="st0" width="30.2" height="0.5"/>
	
		<rect x="484" y="523.8" transform="matrix(0.9648 -0.263 0.263 0.9648 -120.2324 149.6943)" class="st0" width="30.2" height="0.5"/>
	<ellipse class="st0" cx="536" cy="480.7" rx="2.1" ry="2.1"/>
	<polygon class="st0" points="501.1,502.7 499.6,505.3 498.1,502.7 	"/>
</g>
<path class="st0" d="M309.4,325.1c10.3,0,18.7-7.5,18.7-16.8V308h-18.7v0.4h18.2c-0.1,9-8.2,16.2-18.2,16.2l0,0L309.4,325.1
	L309.4,325.1L309.4,325.1z"/>
<path class="st0" d="M240.6,548.4v-19.6h0.5v19.1c10.4-0.1,18.8-8.7,18.8-19.1h0.5c0,10.8-8.7,19.6-19.5,19.6L240.6,548.4
	L240.6,548.4z"/>
<path class="st0" d="M292.2,498.6h20.2v0.5h-19.7c0.1,10.8,8.9,19.5,19.7,19.5v0.5c-11.1,0-20.1-9.1-20.2-20.2V498.6L292.2,498.6z"
	/>
<path class="st0" d="M332.6,499.3h19.6v0.5h-19.1c0.1,10.5,8.7,19,19.1,19v0.4c-10.8,0-19.6-8.8-19.6-19.7V499.3z"/>
<path class="st0" d="M494.5,442.7h-20.2v0.5H494c-0.1,10.8-8.9,19.5-19.7,19.5v0.5c11.1,0,20.1-9.1,20.2-20.2V442.7L494.5,442.7z"/>
<path class="st0" d="M454.1,443h-19.6v0.5h19.1c-0.1,10.5-8.7,19-19.1,19v0.4c10.8,0,19.6-8.8,19.6-19.7V443z"/>
<rect x="36.5" y="203" class="st0" width="7.5" height="29"/>
<g id="stairs_2_lvl_3_">
	<rect x="180.4" y="398" class="st0" width="20" height="0.5"/>
	<rect x="180.3" y="404.1" class="st0" width="20" height="0.5"/>
	<rect x="180.4" y="410.3" class="st0" width="20" height="0.5"/>
	
		<rect x="180.3" y="416.4" transform="matrix(-1 5.556460e-003 -5.556460e-003 -1 382.9915 832.1666)" class="st0" width="20" height="0.5"/>
	<rect x="180.4" y="422.4" class="st0" width="20" height="0.5"/>
	<rect x="180.4" y="428.5" class="st0" width="20" height="0.5"/>
	<rect x="180.4" y="434.7" class="st0" width="20" height="0.5"/>
	<polygon class="st0" points="180.4,441.2 180.4,440.7 200.4,440.9 200.4,441.4 	"/>
	<rect x="180.4" y="446.8" class="st0" width="20" height="0.5"/>
	<rect x="180.4" y="453" class="st0" width="20" height="0.5"/>
	<rect x="204.9" y="453" class="st0" width="20" height="0.5"/>
	<rect x="204.9" y="446.9" class="st0" width="20" height="0.5"/>
	<rect x="204.9" y="440.7" class="st0" width="20" height="0.5"/>
	
		<rect x="204.9" y="434.6" transform="matrix(-1 -5.563774e-003 5.563774e-003 -1 427.3722 870.938)" class="st0" width="20" height="0.5"/>
	<rect x="204.9" y="428.5" class="st0" width="20" height="0.5"/>
	<rect x="204.9" y="422.4" class="st0" width="20" height="0.5"/>
	<rect x="204.9" y="416.3" class="st0" width="20" height="0.5"/>
	<polygon class="st0" points="204.9,410.3 204.9,410.8 224.9,410.6 224.9,410.1 	"/>
	<rect x="204.9" y="404.1" class="st0" width="20" height="0.5"/>
	<rect x="204.9" y="398" class="st0" width="20" height="0.5"/>
	<g>
		<path class="st0" d="M204.9,453.5h-4.6V398h4.6V453.5L204.9,453.5z M200.6,453h4.1v-54.5h-4.1V453L200.6,453L200.6,453z"/>
		<path class="st0" d="M203.8,450.8h-2.2v-50h2.2L203.8,450.8L203.8,450.8L203.8,450.8z M201.8,450.5h1.7V401h-1.7L201.8,450.5
			L201.8,450.5L201.8,450.5z"/>
	</g>
	<ellipse class="st0" cx="214.2" cy="398" rx="2.1" ry="2.1"/>
	<polygon class="st0" points="213.9,398 214.2,398 214.2,467.2 188.5,467.2 188.5,400.2 188.9,400.2 188.9,466.7 213.9,466.7 	"/>
	<polygon class="st0" points="190.2,401.1 188.7,398.5 187.2,401.1 	"/>
</g>
<g id="stairs_2_lvl_2_">
	<rect x="180.3" y="563.6" class="st0" width="20" height="0.5"/>
	<rect x="180.3" y="557.5" class="st0" width="20" height="0.5"/>
	<rect x="180.3" y="551.4" class="st0" width="20" height="0.5"/>
	
		<rect x="180.3" y="545.3" transform="matrix(-1 -5.556460e-003 5.556460e-003 -1 377.4984 1092.0848)" class="st0" width="20" height="0.5"/>
	<rect x="180.3" y="539.2" class="st0" width="20" height="0.5"/>
	<rect x="180.3" y="533.1" class="st0" width="20" height="0.5"/>
	<rect x="180.3" y="527" class="st0" width="20" height="0.5"/>
	<polygon class="st0" points="180.3,521 180.3,521.5 200.3,521.2 200.3,520.7 	"/>
	<rect x="180.3" y="514.8" class="st0" width="20" height="0.5"/>
	<rect x="180.3" y="508.7" class="st0" width="20" height="0.5"/>
	<rect x="204.8" y="508.7" class="st0" width="20" height="0.5"/>
	<rect x="204.8" y="514.8" class="st0" width="20" height="0.5"/>
	<rect x="204.9" y="520.9" class="st0" width="20" height="0.5"/>
	
		<rect x="204.8" y="527" transform="matrix(-1 5.563774e-003 -5.563774e-003 -1 432.5782 1053.3141)" class="st0" width="20" height="0.5"/>
	<rect x="204.8" y="533.1" class="st0" width="20" height="0.5"/>
	<rect x="204.8" y="539.2" class="st0" width="20" height="0.5"/>
	<rect x="204.9" y="545.3" class="st0" width="20" height="0.5"/>
	<polygon class="st0" points="204.9,551.8 204.9,551.3 224.8,551.6 224.8,552.1 	"/>
	<rect x="204.8" y="557.5" class="st0" width="20" height="0.5"/>
	<rect x="204.8" y="563.6" class="st0" width="20" height="0.5"/>
	<g>
		<path class="st0" d="M204.9,508.7v55.4h-4.6v-55.4L204.9,508.7L204.9,508.7z M200.5,509.1L200.5,509.1v54.5h4.1v-54.5L200.5,509.1
			L200.5,509.1z"/>
		<path class="st0" d="M203.7,511.4L203.7,511.4v50h-2.2v-50L203.7,511.4L203.7,511.4z M201.7,511.6L201.7,511.6v49.6h1.7v-49.5
			L201.7,511.6L201.7,511.6z"/>
	</g>
	<ellipse class="st0" cx="214.1" cy="564.2" rx="2.1" ry="2.1"/>
	<polygon class="st0" points="213.8,564.1 214.2,564.1 214.2,494.9 188.5,494.9 188.5,561.9 188.8,561.9 188.8,495.4 213.8,495.4 	
		"/>
	<polygon class="st0" points="190.1,561 188.6,563.6 187.1,561 	"/>
</g>
<rect x="606.7" y="398" class="st0" width="1.9" height="80.6"/>
<rect x="606.7" y="484.5" class="st0" width="1.9" height="79.7"/>
<g id="stairs_2_lvl_1_">
	<rect x="586.7" y="398" class="st0" width="20" height="0.5"/>
	<rect x="586.7" y="404.1" class="st0" width="20" height="0.5"/>
	<rect x="586.6" y="410.3" class="st0" width="20" height="0.5"/>
	
		<rect x="586.7" y="416.4" transform="matrix(1 5.556460e-003 -5.556460e-003 1 2.3241 -3.309)" class="st0" width="20" height="0.5"/>
	<rect x="586.7" y="422.4" class="st0" width="20" height="0.5"/>
	<rect x="586.7" y="428.5" class="st0" width="20" height="0.5"/>
	<rect x="586.7" y="434.7" class="st0" width="20" height="0.5"/>
	<polygon class="st0" points="606.7,441.2 606.7,440.7 586.7,440.9 586.7,441.4 	"/>
	<rect x="586.7" y="446.8" class="st0" width="20" height="0.5"/>
	<rect x="586.7" y="453" class="st0" width="20" height="0.5"/>
	<rect x="562.1" y="453" class="st0" width="20" height="0.5"/>
	<rect x="562.1" y="446.9" class="st0" width="20" height="0.5"/>
	<rect x="562.1" y="440.7" class="st0" width="20" height="0.5"/>
	
		<rect x="562.1" y="434.6" transform="matrix(1 -5.563774e-003 5.563774e-003 1 -2.4107 3.1899)" class="st0" width="20" height="0.5"/>
	<rect x="562.1" y="428.5" class="st0" width="20" height="0.5"/>
	<rect x="562.1" y="422.4" class="st0" width="20" height="0.5"/>
	<rect x="562.1" y="416.3" class="st0" width="20" height="0.5"/>
	<polygon class="st0" points="582.1,410.3 582.1,410.8 562.1,410.6 562.1,410.1 	"/>
	<rect x="562.1" y="404.1" class="st0" width="20" height="0.5"/>
	<rect x="562.1" y="398" class="st0" width="20" height="0.5"/>
	<g>
		<path class="st0" d="M582.1,453.5V398h4.6v55.4L582.1,453.5L582.1,453.5z M586.4,453L586.4,453v-54.5h-4.1V453L586.4,453
			L586.4,453z"/>
		<path class="st0" d="M583.3,450.7L583.3,450.7v-50h2.2v50L583.3,450.7L583.3,450.7z M585.2,450.5L585.2,450.5V401h-1.7v49.5
			L585.2,450.5L585.2,450.5z"/>
	</g>
	<ellipse class="st0" cx="572.9" cy="398" rx="2.1" ry="2.1"/>
	<polygon class="st0" points="573.1,398 572.8,398 572.8,467.2 598.5,467.2 598.5,400.2 598.1,400.2 598.1,466.7 573.1,466.7 	"/>
	<polygon class="st0" points="596.8,401.1 598.3,398.5 599.8,401.1 	"/>
</g>
<g id="stairs_2_lvl">
	<rect x="586.7" y="563.6" class="st0" width="20" height="0.5"/>
	<rect x="586.7" y="557.5" class="st0" width="20" height="0.5"/>
	<rect x="586.6" y="551.4" class="st0" width="20" height="0.5"/>
	
		<rect x="586.7" y="545.3" transform="matrix(1 -5.556460e-003 5.556460e-003 1 -3.0219 3.3238)" class="st0" width="20" height="0.5"/>
	<rect x="586.7" y="539.2" class="st0" width="20" height="0.5"/>
	<rect x="586.7" y="533.1" class="st0" width="20" height="0.5"/>
	<rect x="586.7" y="527" class="st0" width="20" height="0.5"/>
	<polygon class="st0" points="606.7,521 606.7,521.5 586.7,521.2 586.7,520.7 	"/>
	<rect x="586.7" y="514.8" class="st0" width="20" height="0.5"/>
	<rect x="586.7" y="508.7" class="st0" width="20" height="0.5"/>
	<rect x="562.1" y="508.7" class="st0" width="20" height="0.5"/>
	<rect x="562.1" y="514.8" class="st0" width="20" height="0.5"/>
	<rect x="562.1" y="520.9" class="st0" width="20" height="0.5"/>
	
		<rect x="562.1" y="527" transform="matrix(1 5.563774e-003 -5.563774e-003 1 2.9424 -3.175)" class="st0" width="20" height="0.5"/>
	<rect x="562.1" y="533.1" class="st0" width="20" height="0.5"/>
	<rect x="562.1" y="539.2" class="st0" width="20" height="0.5"/>
	<rect x="562.1" y="545.3" class="st0" width="20" height="0.5"/>
	<polygon class="st0" points="582.1,551.8 582.1,551.3 562.1,551.6 562.1,552.1 	"/>
	<rect x="562.1" y="557.5" class="st0" width="20" height="0.5"/>
	<rect x="562.1" y="563.6" class="st0" width="20" height="0.5"/>
	<g>
		<path class="st0" d="M582.1,508.7h4.6v55.4h-4.6V508.7L582.1,508.7z M586.4,509.1h-4.1v54.5h4.1V509.1L586.4,509.1L586.4,509.1z"
			/>
		<path class="st0" d="M583.3,511.4h2.2v50h-2.2L583.3,511.4L583.3,511.4L583.3,511.4z M585.2,511.6h-1.7v49.5h1.7L585.2,511.6
			L585.2,511.6L585.2,511.6z"/>
	</g>
	<ellipse class="st0" cx="572.9" cy="564.2" rx="2.1" ry="2.1"/>
	<polygon class="st0" points="573.1,564.1 572.8,564.1 572.8,494.9 598.5,494.9 598.5,561.9 598.1,561.9 598.1,495.4 573.1,495.4 	
		"/>
	<polygon class="st0" points="596.8,561 598.3,563.6 599.8,561 	"/>
</g>
<path class="st0" d="M546.4,414.6v19.6h-0.5v-19.1c-10.4,0.1-18.8,8.7-18.8,19.1h-0.5c0-10.8,8.7-19.6,19.5-19.6L546.4,414.6
	L546.4,414.6z"/>
<rect x="461.2" y="372.3" transform="matrix(0.6728 0.7399 -0.7399 0.6728 453.9124 -207.4599)" class="st0" width="0.5" height="74.2"/>
<rect x="424.4" y="409.1" transform="matrix(0.737 0.6758 -0.6758 0.737 397.9871 -204.2411)" class="st0" width="74.2" height="0.5"/>
<path class="st0" d="M434,553.7h-7v-20.8h7V553.7L434,553.7z M434.5,554.2v-21.9h-8v21.9H434.5L434.5,554.2z"/>
<path class="st0" d="M434,510.3h-6.9V489h6.9V510.3L434,510.3z M434.5,510.9L434.5,510.9L434.5,510.9v-22.4h-7.9v22.4L434.5,510.9
	L434.5,510.9z"/>
<polygon class="st0" points="36.5,123.8 36.5,138.8 65,138.9 65,131.5 83.9,131.5 83.9,123.8 "/>
<rect x="287.7" y="123.8" class="st0" width="27.3" height="7.8"/>
<polygon class="st0" points="59.9,292 59.9,287.2 51.6,287.2 51.6,265.6 44.2,265.6 44.2,257.8 36.5,257.8 36.5,299.5 36.5,299.5 
	36.5,376.1 44,376.1 44,299.5 51.5,299.5 51.5,295.7 59.9,295.7 113.4,295.7 113.4,317.3 117.1,317.3 117.1,295.7 136,295.7 
	136,292 "/>
<g id="Doors_9_">
	<path class="st0" d="M97.5,316.9v0.2c0,8.8,7.1,15.9,15.8,15.9l0,0v-0.5c-8.4,0-15.2-6.7-15.3-15.1h15.3v-0.5L97.5,316.9
		L97.5,316.9L97.5,316.9z"/>
</g>
<polygon class="st0" points="229.5,282.2 229.5,257 184.3,257 184.3,131.5 214.6,131.5 214.6,123.8 150.8,123.8 150.8,131.5 
	180.5,131.5 180.5,249.3 161.8,249.3 161.8,282.3 180.5,282.3 180.5,292 151.1,292 151.1,295.7 180.5,295.7 184.3,295.7 184.3,286 
	255,286 255,282.2 "/>
<g id="Doors_8_">
	<path class="st0" d="M270.5,266.4h-0.2c-8.8,0-15.8,7.1-15.8,15.9l0,0h0.5c0-8.4,6.7-15.2,15.1-15.4v15.4h0.5L270.5,266.4
		L270.5,266.4L270.5,266.4z"/>
</g>
<g id="Doors_7_">
	<path class="st0" d="M135.5,276.2h0.2c8.8,0,15.9,7.1,15.9,15.8l0,0H151c0-8.4-6.7-15.2-15.1-15.3V292h-0.5L135.5,276.2
		L135.5,276.2L135.5,276.2z"/>
</g>
<rect x="636.3" y="130.5" class="st0" width="104.7" height="1"/>
<rect x="572.4" y="130.5" class="st0" width="52.7" height="1"/>
<rect x="749.5" y="124.3" class="st0" width="1" height="82"/>
<rect x="743" y="131" class="st0" width="1" height="75.3"/>
<rect x="749.5" y="232" class="st0" width="1" height="67.3"/>
<rect x="743" y="232" class="st0" width="1" height="67.5"/>
<rect x="749.5" y="376.1" class="st0" width="1" height="42"/>
<rect x="743" y="376.1" class="st0" width="1" height="42.1"/>
<rect x="636.3" y="123.8" class="st0" width="114.3" height="1"/>
<rect x="497.5" y="130.5" class="st0" width="104.7" height="1"/>
<rect x="497.5" y="123.8" class="st0" width="105.2" height="1"/>
<rect x="401.8" y="130.5" class="st0" width="73.1" height="1"/>
<rect x="401.8" y="123.8" class="st0" width="73.4" height="1"/>
<rect x="572.4" y="123.8" class="st0" width="52.7" height="1"/>
<path class="st0" d="M477.7,325.1c-10.3,0-18.7-7.5-18.7-16.8V308h18.7v0.4h-18.2c0.1,9,8.2,16.2,18.2,16.2l0,0L477.7,325.1
	L477.7,325.1L477.7,325.1z"/>
<rect x="743" y="203" class="st0" width="7.5" height="29"/>
<polygon class="st0" points="750.5,123.8 750.5,138.8 722,138.9 722,131.5 703.1,131.5 703.1,123.8 "/>
<rect x="471.9" y="123.8" class="st0" width="27.3" height="7.8"/>
<polygon class="st0" points="750.6,257.8 742.8,257.8 742.8,265.6 735.4,265.6 735.5,287.2 727.1,287.2 727.1,292 651,292 
	651,295.7 669.9,295.7 669.9,317.3 673.6,317.3 673.6,295.7 727.1,295.7 735.5,295.7 735.5,299.5 743,299.5 743,376.1 750.5,376.1 
	750.5,299.5 750.6,299.5 "/>
<use xlink:href="#Doors_10_"  width="16.1" height="15.8" x="-8" y="-7.9" transform="matrix(0 -1 -1 0 681.5477 324.8901)" style="overflow:visible;"/>
<polygon class="st0" points="636.3,131.5 636.3,123.8 572.4,123.8 572.4,131.5 602.7,131.5 602.7,257 557.6,257 557.6,282.2 
	532,282.2 532,286 602.7,286 602.7,295.7 606.5,295.7 635.9,295.7 635.9,292 606.5,292 606.5,282.3 625.3,282.3 625.3,249.3 
	606.5,249.3 606.5,131.5 "/>
<g id="Doors_6_">
	<path class="st0" d="M516.5,267.4h0.2c8.8,0,15.8,7.1,15.8,15.9l0,0h-0.5c0-8.4-6.7-15.2-15.1-15.4v15.4h-0.5L516.5,267.4
		L516.5,267.4L516.5,267.4z"/>
</g>
<g id="Doors_5_">
	<path class="st0" d="M651.5,276.2h-0.2c-8.8,0-15.9,7.1-15.9,15.8l0,0h0.5c0-8.4,6.7-15.2,15.1-15.3V292h0.5L651.5,276.2
		L651.5,276.2L651.5,276.2z"/>
</g>
<rect x="46" y="830.5" class="st0" width="104.7" height="1"/>
<rect x="161.8" y="830.5" class="st0" width="52.7" height="1"/>
<rect x="36.4" y="755.7" class="st0" width="1" height="82"/>
<rect x="42.9" y="755.7" class="st0" width="1" height="75.3"/>
<rect x="36.4" y="662.7" class="st0" width="1" height="67.3"/>
<rect x="42.9" y="662.6" class="st0" width="1" height="67.5"/>
<rect x="36.4" y="548.7" class="st0" width="1" height="37.3"/>
<rect x="42.9" y="548.6" class="st0" width="1" height="37.3"/>
<rect x="36.4" y="837.3" class="st0" width="114.3" height="1"/>
<rect x="184.7" y="830.5" class="st0" width="104.7" height="1"/>
<rect x="184.2" y="837.3" class="st0" width="105.2" height="1"/>
<rect x="312.1" y="830.5" class="st0" width="73.1" height="1"/>
<rect x="311.7" y="837.3" class="st0" width="73.4" height="1"/>
<rect x="161.8" y="837.3" class="st0" width="52.7" height="1"/>
<path class="st0" d="M309.3,637.9c10.3,0,18.7,7.5,18.7,16.8v0.2h-18.7v-0.4h18.2c-0.1-9-8.2-16.2-18.2-16.2l0,0L309.3,637.9
	L309.3,637.9L309.3,637.9z"/>
<rect x="36.4" y="730" class="st0" width="7.5" height="29"/>
<polygon class="st0" points="36.4,838.3 36.4,823.2 64.9,823.1 64.9,830.5 83.8,830.5 83.8,838.3 "/>
<rect x="287.6" y="830.5" class="st0" width="27.3" height="7.8"/>
<polygon class="st0" points="135.9,666.3 117,666.3 117,644.7 113.3,644.7 113.3,666.3 59.8,666.3 51.4,666.3 51.4,662.6 
	43.9,662.6 43.9,586 36.4,586 36.4,662.6 36.4,662.6 36.4,704.3 44.1,704.3 44.1,696.4 51.5,696.4 51.5,674.8 59.8,674.8 
	59.8,670.1 135.9,670.1 "/>
<g id="Doors_4_">
	<path class="st0" d="M97.4,645.2v-0.2c0-8.8,7.1-15.9,15.8-15.9l0,0v0.5c-8.4,0-15.2,6.7-15.3,15.1h15.3v0.5L97.4,645.2L97.4,645.2
		L97.4,645.2z"/>
</g>
<g id="Doors_3_">
	<path class="st0" d="M270.4,695.6h-0.2c-8.8,0-15.9-7.1-15.9-15.8l0,0h0.5c0,8.4,6.7,15.2,15.1,15.3v-15.3h0.5L270.4,695.6
		L270.4,695.6L270.4,695.6z"/>
</g>
<g id="Doors_2_">
	<path class="st0" d="M135.4,685.8h0.2c8.8,0,15.9-7.1,15.9-15.8l0,0h-0.5c0,8.4-6.7,15.2-15.1,15.3V670h-0.5L135.4,685.8
		L135.4,685.8L135.4,685.8z"/>
</g>
<rect x="636.3" y="830.5" class="st0" width="104.7" height="1"/>
<rect x="572.4" y="830.5" class="st0" width="52.7" height="1"/>
<rect x="749.5" y="755.7" class="st0" width="1" height="82"/>
<rect x="743" y="755.7" class="st0" width="1" height="75.3"/>
<rect x="749.5" y="662.7" class="st0" width="1" height="67.3"/>
<rect x="743" y="662.6" class="st0" width="1" height="67.5"/>
<rect x="749.5" y="548.7" class="st0" width="1" height="37.3"/>
<rect x="743" y="548.6" class="st0" width="1" height="37.3"/>
<rect x="636.3" y="837.3" class="st0" width="114.3" height="1"/>
<rect x="497.5" y="830.5" class="st0" width="104.7" height="1"/>
<rect x="497.5" y="837.3" class="st0" width="105.2" height="1"/>
<rect x="401.8" y="830.5" class="st0" width="73.1" height="1"/>
<rect x="401.8" y="837.3" class="st0" width="73.4" height="1"/>
<rect x="572.4" y="837.3" class="st0" width="52.7" height="1"/>
<path class="st0" d="M477.7,636.9c-10.3,0-18.7,7.5-18.7,16.8v0.2h18.7v-0.4h-18.2c0.1-9,8.2-16.2,18.2-16.2l0,0L477.7,636.9
	L477.7,636.9L477.7,636.9z"/>
<rect x="743" y="730" class="st0" width="7.5" height="29"/>
<rect x="477.7" y="593.1" class="st0" width="3.8" height="44.3"/>
<polygon class="st0" points="750.5,838.3 750.5,823.2 722,823.1 722,830.5 703.1,830.5 703.1,838.3 "/>
<rect x="471.9" y="830.5" class="st0" width="27.3" height="7.8"/>
<polygon class="st0" points="750.5,662.6 750.5,586 743,586 743,662.6 735.5,662.6 735.5,666.3 727.1,666.3 673.6,666.3 
	673.6,644.7 669.9,644.7 669.9,666.3 651,666.3 651,670.1 727.1,670.1 727.1,674.8 735.5,674.8 735.4,696.4 742.8,696.4 
	742.8,704.3 750.6,704.3 750.6,662.6 "/>
<g id="Doors_1_">
	<path class="st0" d="M689.5,645.2v-0.2c0-8.8-7.1-15.9-15.8-15.9l0,0v0.5c8.4,0,15.2,6.7,15.3,15.1h-15.3v0.5L689.5,645.2
		L689.5,645.2L689.5,645.2z"/>
</g>
<polygon class="st0" points="606.5,830.5 606.5,712.7 625.3,712.7 625.3,679.8 606.5,679.8 606.5,670.1 635.9,670.1 635.9,666.3 
	606.5,666.3 602.7,666.3 602.7,676 532,676 532,679.8 557.6,679.8 557.6,705 602.7,705 602.7,830.5 572.4,830.5 572.4,838.3 
	636.3,838.3 636.3,830.5 "/>
<g id="Doors">
	<path class="st0" d="M516.5,695.6h0.2c8.8,0,15.8-7.1,15.8-15.8l0,0h-0.5c0,8.4-6.7,15.2-15.1,15.3v-15.3h-0.5L516.5,695.6
		L516.5,695.6L516.5,695.6z"/>
</g>
<use xlink:href="#Doors_10_"  width="16.1" height="15.8" x="-8" y="-7.9" transform="matrix(1 0 0 -1 643.5137 677.908)" style="overflow:visible;"/>
<g>
	<polygon class="st0" points="184.2,666.3 180.4,666.3 151,666.3 151,670.1 180.4,670.1 180.4,679.8 161.7,679.8 161.7,712.7 
		180.4,712.7 180.4,830.5 150.7,830.5 150.7,838.3 214.5,838.3 214.5,830.5 184.2,830.5 184.2,705 229.4,705 229.4,679.8 
		254.9,679.8 254.9,676 184.2,676 	"/>
	<polygon class="st0" points="673.6,489.4 669.9,489.4 669.9,629.7 673.6,629.7 673.6,586 695.3,586 695.3,562.1 673.6,562.1 	"/>
	<path class="st0" d="M743,414.4v59.2h-69.4V401h21.7v-23.8h-21.7v-44.7h-3.8v141.2h-38.1v4.7l0,0h-51.4v-3.5h-17.8V370l-81.2,0
		v-44.3h-3.8V370l-64.3,0v8.1h-16.1v-82.9h16.1v-7.6h64.3v22.1h3.8v-22.1H517v-4.3H413.3v-16.1h-16.1V131.5h28.1v-7.8h-63.7v7.8
		h28.1v135.7h-16.1v16.1H270v4.3h35.6v22.1h3.8v-22.1h64.3v7.6h16.1v82.9h-16.1V370l-64.3,0v-45.4h-3.8V370l-81.3,0l0.1,105.1h-17.8
		v3.5h-51.4v-4.9h-38.1V332.4h-3.8v44.7H91.7V401h21.7v72.8H44v-59.4h-7.5v59.3h-0.1v76h7.5v-59.3H44h69.3v72.8H91.6V587h21.7v42.7
		h3.8V490.4h38.2v-4.7l0,0h51.4v3.5h17.8v104.8h81.1v44.4h3.8v-44.4h64.3V584h16.2v9.8v0.3l-0.1,75h-16.1v7.6h-64.3v-22.1h-3.8v22.1
		h-35.6v4.3h103.7V697h16.1l0.1,133.5h-28.1v7.8h63.7v-7.8h-28.1V697h16.1v-16.1H517v-4.3h-35.6v-23h-3.8v23h-64.3V669h-16.1v-75
		v-0.3V584h16.1v10.1l149.4-0.1l-0.1-105.1h17.8v-3.5h51.4v4.9H743v0.1v59.3h7.5v-59.3v-16.7v-59.3H743z M434.8,385h53.7v49.3h-53.7
		V385z M429.2,399.5h5.1v22.9h-5.1V399.5z M550.2,434.2h-4.2v6.1h4.2V563h-65.3v-94h-10.3v-6.4h-4.7v6.4h-35.1v-6.6h-6.2v6.6h-2
		v20.6h8v-7.5h37.3v37.4h-37.2v-9.1h-8v23.2h8v-8.2h37.2V563h-37.2v-9.3h-8v25.4H393h-34.7l0.1-60.4h-6.2v5h-34.4v-5.1h-5.4v5.1
		h-52.7v6.1h32.7v11.5h6.1v-11.5h53.7v49.3h-53.7v-14.2h-6.1v14.2h-55.6v-49.3h4.2v-6.1h-4.2V401.1h65.3v94h10.3v5h4.7v-5h35.1v5.7
		h6.2v-5.7h2v-22.2h-8v9.1h-37.3v-37.4h37.2v9.1h8v-23.2h-8v8.2h-37.2v-37.6h37.2v9.3h8V383H393v0l35.7,0l0,16l0,12.6l-0.1,31.9h6.2
		v-3.2h34.4v2.9h5.4v-2.9h52.7v-6.1h-32.7V385h55.6V434.2z"/>
</g>
<g class="st1">
	<path class="st0" d="M76.3,216.6l3.6-3.2c1.5-1.3,2.1-2.1,2.1-3.1c0-1.2-0.9-1.9-2-1.9c-1.1,0-1.9,0.6-2.6,1.7l-0.8-0.6
		c0.9-1.3,1.8-2.1,3.5-2.1c1.8,0,3.1,1.2,3.1,2.8c0,1.4-0.8,2.3-2.5,3.8l-2.6,2.3h5.2v1h-6.9V216.6z"/>
	<path class="st0" d="M90.3,208.7h-5.4v-1h6.7v0.8l-4.5,9h-1.2L90.3,208.7z"/>
	<path class="st0" d="M91.5,218.7c0.6-0.2,0.9-0.6,0.9-1.1v-0.1H92V216h1.3v1.3c0,1.1-0.5,1.7-1.6,1.9L91.5,218.7z"/>
	<path class="st0" d="M95,216.6l3.6-3.2c1.5-1.3,2.1-2.1,2.1-3.1c0-1.2-0.9-1.9-2-1.9c-1.1,0-1.9,0.6-2.6,1.7l-0.8-0.6
		c0.9-1.3,1.8-2.1,3.5-2.1c1.8,0,3.1,1.2,3.1,2.8c0,1.4-0.8,2.3-2.5,3.8l-2.6,2.3h5.2v1H95V216.6z"/>
</g>
<g class="st1">
	<path class="st0" d="M78.2,345.7l-1.9,0.6l-0.3-0.9l2.4-0.8h0.8v9.9h-1.1V345.7z"/>
	<path class="st0" d="M81.8,353.5l0.6-0.9c0.8,0.7,1.5,1.1,2.4,1.1c1.7,0,2.9-1.7,2.9-4.2v-0.1c-0.5,0.9-1.4,1.6-2.8,1.6
		c-2,0-3.4-1.3-3.4-3.1c0-1.9,1.5-3.4,3.5-3.4c2.2,0,3.8,1.3,3.8,4.9c0,3.1-1.7,5.3-4.1,5.3C83.6,354.7,82.6,354.1,81.8,353.5z
		 M87.6,347.7c0-1.3-1-2.2-2.5-2.2c-1.5,0-2.4,1.1-2.4,2.3c0,1.3,1,2.2,2.4,2.2C86.6,349.9,87.6,348.8,87.6,347.7z"/>
	<path class="st0" d="M90.3,355.7c0.6-0.2,0.9-0.6,0.9-1.1v-0.1h-0.5V353H92v1.3c0,1.1-0.5,1.7-1.6,1.9L90.3,355.7z"/>
	<path class="st0" d="M99.2,352.2H94l-0.3-0.8l5.6-6.8h1v6.7h1.5v0.9h-1.5v2.3h-1.1V352.2z M99.2,351.2v-5.1l-4.1,5.1H99.2z"/>
</g>
<g class="st1">
	<path class="st0" d="M189.7,345.7l-1.9,0.6l-0.3-0.9l2.4-0.8h0.8v9.9h-1.1V345.7z"/>
	<path class="st0" d="M193.1,349.8c0-3,1.5-5.4,4.1-5.4c1.2,0,2.1,0.4,2.9,1.1l-0.6,0.9c-0.7-0.6-1.4-1-2.3-1
		c-1.8,0-2.9,1.8-2.9,4.3v0c0.5-0.8,1.4-1.5,2.8-1.5c1.8,0,3.4,1.2,3.4,3.1c0,1.9-1.5,3.3-3.5,3.3
		C194.7,354.7,193.1,353.3,193.1,349.8z M199.3,351.4c0-1.2-1-2.1-2.4-2.1c-1.5,0-2.5,1.1-2.5,2.2c0,1.3,1,2.2,2.5,2.2
		S199.3,352.7,199.3,351.4z"/>
	<path class="st0" d="M202,355.7c0.6-0.2,0.9-0.6,0.9-1.1v-0.1h-0.5V353h1.3v1.3c0,1.1-0.5,1.7-1.6,1.9L202,355.7z"/>
	<path class="st0" d="M205.6,353.1l0.7-0.8c0.9,0.8,1.8,1.4,2.8,1.4c1.4,0,2.4-0.9,2.4-2.2c0-1.2-1-2.1-2.5-2.1
		c-0.8,0-1.5,0.3-2.1,0.6l-0.7-0.5l0.3-4.8h5.7v1h-4.7l-0.2,3.2c0.6-0.3,1.1-0.4,1.9-0.4c1.9,0,3.4,1.1,3.4,3c0,1.9-1.5,3.2-3.5,3.2
		C207.7,354.7,206.5,354,205.6,353.1z"/>
</g>
<g class="st1">
	<path class="st0" d="M333.4,349.8c0-3,1.5-5.4,4.1-5.4c1.2,0,2.1,0.4,2.9,1.1l-0.6,0.9c-0.7-0.6-1.4-1-2.3-1
		c-1.8,0-2.9,1.8-2.9,4.3v0c0.5-0.8,1.4-1.5,2.8-1.5c1.8,0,3.4,1.2,3.4,3.1c0,1.9-1.5,3.3-3.5,3.3
		C335,354.7,333.4,353.3,333.4,349.8z M339.6,351.4c0-1.2-1-2.1-2.4-2.1c-1.5,0-2.5,1.1-2.5,2.2c0,1.3,1,2.2,2.5,2.2
		S339.6,352.7,339.6,351.4z"/>
	<path class="st0" d="M342.3,355.7c0.6-0.2,0.9-0.6,0.9-1.1v-0.1h-0.5V353h1.3v1.3c0,1.1-0.5,1.7-1.6,1.9L342.3,355.7z"/>
	<path class="st0" d="M345.9,353.1l0.7-0.8c0.9,0.8,1.8,1.4,2.8,1.4c1.4,0,2.4-0.9,2.4-2.2c0-1.2-1-2.1-2.5-2.1
		c-0.8,0-1.5,0.3-2.1,0.6l-0.7-0.5l0.3-4.8h5.7v1h-4.7l-0.2,3.2c0.6-0.3,1.1-0.4,1.9-0.4c1.9,0,3.4,1.1,3.4,3c0,1.9-1.5,3.2-3.5,3.2
		C348,354.7,346.8,354,345.9,353.1z"/>
</g>
<g class="st1">
	<path class="st0" d="M433.8,349.8c0-3,1.5-5.4,4.1-5.4c1.2,0,2.1,0.4,2.9,1.1l-0.6,0.9c-0.7-0.6-1.4-1-2.3-1
		c-1.8,0-2.9,1.8-2.9,4.3v0c0.5-0.8,1.4-1.5,2.8-1.5c1.8,0,3.4,1.2,3.4,3.1c0,1.9-1.5,3.3-3.5,3.3
		C435.4,354.7,433.8,353.3,433.8,349.8z M440,351.4c0-1.2-1-2.1-2.4-2.1c-1.5,0-2.5,1.1-2.5,2.2c0,1.3,1,2.2,2.5,2.2
		C439.1,353.7,440,352.7,440,351.4z"/>
	<path class="st0" d="M442.7,355.7c0.6-0.2,0.9-0.6,0.9-1.1v-0.1h-0.5V353h1.3v1.3c0,1.1-0.5,1.7-1.6,1.9L442.7,355.7z"/>
	<path class="st0" d="M446.2,353.1l0.7-0.8c0.9,0.8,1.8,1.4,2.8,1.4c1.4,0,2.4-0.9,2.4-2.2c0-1.2-1-2.1-2.5-2.1
		c-0.8,0-1.5,0.3-2.1,0.6l-0.7-0.5l0.3-4.8h5.7v1h-4.7l-0.2,3.2c0.6-0.3,1.1-0.4,1.9-0.4c1.9,0,3.4,1.1,3.4,3c0,1.9-1.5,3.2-3.5,3.2
		C448.4,354.7,447.1,354,446.2,353.1z"/>
</g>
<g class="st1">
	<path class="st0" d="M333.4,613c0-3,1.5-5.4,4.1-5.4c1.2,0,2.1,0.4,2.9,1.1l-0.6,0.9c-0.7-0.6-1.4-1-2.3-1c-1.8,0-2.9,1.8-2.9,4.3
		v0c0.5-0.8,1.4-1.5,2.8-1.5c1.8,0,3.4,1.2,3.4,3.1c0,1.9-1.5,3.3-3.5,3.3C335,617.8,333.4,616.5,333.4,613z M339.6,614.6
		c0-1.2-1-2.1-2.4-2.1c-1.5,0-2.5,1.1-2.5,2.2c0,1.3,1,2.2,2.5,2.2S339.6,615.9,339.6,614.6z"/>
	<path class="st0" d="M342.3,618.9c0.6-0.2,0.9-0.6,0.9-1.1v-0.1h-0.5v-1.5h1.3v1.3c0,1.1-0.5,1.7-1.6,1.9L342.3,618.9z"/>
	<path class="st0" d="M345.9,616.3l0.7-0.8c0.9,0.8,1.8,1.4,2.8,1.4c1.4,0,2.4-0.9,2.4-2.2c0-1.2-1-2.1-2.5-2.1
		c-0.8,0-1.5,0.3-2.1,0.6l-0.7-0.5l0.3-4.8h5.7v1h-4.7l-0.2,3.2c0.6-0.3,1.1-0.4,1.9-0.4c1.9,0,3.4,1.1,3.4,3c0,1.9-1.5,3.2-3.5,3.2
		C348,617.8,346.8,617.2,345.9,616.3z"/>
</g>
<g class="st1">
	<path class="st0" d="M433.8,613c0-3,1.5-5.4,4.1-5.4c1.2,0,2.1,0.4,2.9,1.1l-0.6,0.9c-0.7-0.6-1.4-1-2.3-1c-1.8,0-2.9,1.8-2.9,4.3
		v0c0.5-0.8,1.4-1.5,2.8-1.5c1.8,0,3.4,1.2,3.4,3.1c0,1.9-1.5,3.3-3.5,3.3C435.4,617.8,433.8,616.5,433.8,613z M440,614.6
		c0-1.2-1-2.1-2.4-2.1c-1.5,0-2.5,1.1-2.5,2.2c0,1.3,1,2.2,2.5,2.2C439.1,616.9,440,615.9,440,614.6z"/>
	<path class="st0" d="M442.7,618.9c0.6-0.2,0.9-0.6,0.9-1.1v-0.1h-0.5v-1.5h1.3v1.3c0,1.1-0.5,1.7-1.6,1.9L442.7,618.9z"/>
	<path class="st0" d="M446.2,616.3l0.7-0.8c0.9,0.8,1.8,1.4,2.8,1.4c1.4,0,2.4-0.9,2.4-2.2c0-1.2-1-2.1-2.5-2.1
		c-0.8,0-1.5,0.3-2.1,0.6l-0.7-0.5l0.3-4.8h5.7v1h-4.7l-0.2,3.2c0.6-0.3,1.1-0.4,1.9-0.4c1.9,0,3.4,1.1,3.4,3c0,1.9-1.5,3.2-3.5,3.2
		C448.4,617.8,447.1,617.2,446.2,616.3z"/>
</g>
<g class="st1">
	<path class="st0" d="M269.7,215.9l0.8-0.7c0.8,0.9,1.7,1.5,2.9,1.5c1.2,0,2.2-0.8,2.2-1.9c0-1.2-1.1-1.9-2.8-1.9h-0.6l-0.2-0.7
		l3.1-3.5h-4.8v-1h6.3v0.8l-3.1,3.4c1.7,0.1,3.3,1,3.3,2.8c0,1.8-1.5,3-3.3,3C271.8,217.7,270.6,216.9,269.7,215.9z"/>
	<path class="st0" d="M283.7,208.7h-5.4v-1h6.7v0.8l-4.5,9h-1.2L283.7,208.7z"/>
	<path class="st0" d="M285,218.7c0.6-0.2,0.9-0.6,0.9-1.1v-0.1h-0.5V216h1.3v1.3c0,1.1-0.5,1.7-1.6,1.9L285,218.7z"/>
	<path class="st0" d="M288.5,215.9l0.8-0.7c0.8,0.9,1.7,1.5,2.9,1.5c1.2,0,2.2-0.8,2.2-1.9c0-1.2-1.1-1.9-2.8-1.9h-0.6l-0.2-0.7
		l3.1-3.5H289v-1h6.3v0.8l-3.1,3.4c1.7,0.1,3.3,1,3.3,2.8c0,1.8-1.5,3-3.3,3C290.5,217.7,289.3,216.9,288.5,215.9z"/>
</g>
<g class="st1">
	<path class="st0" d="M684.7,216.6l3.6-3.2c1.5-1.3,2.1-2.1,2.1-3.1c0-1.2-0.9-1.9-2-1.9c-1.1,0-1.9,0.6-2.6,1.7l-0.8-0.6
		c0.9-1.3,1.8-2.1,3.5-2.1c1.8,0,3.1,1.2,3.1,2.8c0,1.4-0.8,2.3-2.5,3.8l-2.6,2.3h5.2v1h-6.9V216.6z"/>
	<path class="st0" d="M698.7,208.7h-5.4v-1h6.7v0.8l-4.5,9h-1.2L698.7,208.7z"/>
	<path class="st0" d="M700,218.7c0.6-0.2,0.9-0.6,0.9-1.1v-0.1h-0.5V216h1.3v1.3c0,1.1-0.5,1.7-1.6,1.9L700,218.7z"/>
	<path class="st0" d="M703.4,216.6l3.6-3.2c1.5-1.3,2.1-2.1,2.1-3.1c0-1.2-0.9-1.9-2-1.9c-1.1,0-1.9,0.6-2.6,1.7l-0.8-0.6
		c0.9-1.3,1.8-2.1,3.5-2.1c1.8,0,3.1,1.2,3.1,2.8c0,1.4-0.8,2.3-2.5,3.8l-2.6,2.3h5.2v1h-6.9V216.6z"/>
</g>
<g class="st1">
	<path class="st0" d="M686.6,345.7l-1.9,0.6l-0.3-0.9l2.4-0.8h0.8v9.9h-1.1V345.7z"/>
	<path class="st0" d="M690.2,353.5l0.6-0.9c0.8,0.7,1.5,1.1,2.4,1.1c1.7,0,2.9-1.7,2.9-4.2v-0.1c-0.5,0.9-1.4,1.6-2.8,1.6
		c-2,0-3.4-1.3-3.4-3.1c0-1.9,1.5-3.4,3.5-3.4c2.2,0,3.8,1.3,3.8,4.9c0,3.1-1.7,5.3-4.1,5.3C692,354.7,691,354.1,690.2,353.5z
		 M696,347.7c0-1.3-1-2.2-2.5-2.2s-2.4,1.1-2.4,2.3c0,1.3,1,2.2,2.4,2.2C695,349.9,696,348.8,696,347.7z"/>
	<path class="st0" d="M698.7,355.7c0.6-0.2,0.9-0.6,0.9-1.1v-0.1h-0.5V353h1.3v1.3c0,1.1-0.5,1.7-1.6,1.9L698.7,355.7z"/>
	<path class="st0" d="M707.6,352.2h-5.2l-0.3-0.8l5.6-6.8h1v6.7h1.5v0.9h-1.5v2.3h-1.1V352.2z M707.6,351.2v-5.1l-4.1,5.1H707.6z"/>
</g>
<g class="st1">
	<path class="st0" d="M575,345.7l-1.9,0.6l-0.3-0.9l2.4-0.8h0.8v9.9H575V345.7z"/>
	<path class="st0" d="M578.4,349.8c0-3,1.5-5.4,4.1-5.4c1.2,0,2.1,0.4,2.9,1.1l-0.6,0.9c-0.7-0.6-1.4-1-2.3-1
		c-1.8,0-2.9,1.8-2.9,4.3v0c0.5-0.8,1.4-1.5,2.8-1.5c1.8,0,3.4,1.2,3.4,3.1c0,1.9-1.5,3.3-3.5,3.3
		C580,354.7,578.4,353.3,578.4,349.8z M584.6,351.4c0-1.2-1-2.1-2.4-2.1c-1.5,0-2.5,1.1-2.5,2.2c0,1.3,1,2.2,2.5,2.2
		S584.6,352.7,584.6,351.4z"/>
	<path class="st0" d="M587.3,355.7c0.6-0.2,0.9-0.6,0.9-1.1v-0.1h-0.5V353h1.3v1.3c0,1.1-0.5,1.7-1.6,1.9L587.3,355.7z"/>
	<path class="st0" d="M590.8,353.1l0.7-0.8c0.9,0.8,1.8,1.4,2.8,1.4c1.4,0,2.4-0.9,2.4-2.2c0-1.2-1-2.1-2.5-2.1
		c-0.8,0-1.5,0.3-2.1,0.6l-0.7-0.5l0.3-4.8h5.7v1h-4.7l-0.2,3.2c0.6-0.3,1.1-0.4,1.9-0.4c1.9,0,3.4,1.1,3.4,3c0,1.9-1.5,3.2-3.5,3.2
		C592.9,354.7,591.7,354,590.8,353.1z"/>
</g>
<g class="st1">
	<path class="st0" d="M491.3,215.9l0.8-0.7c0.8,0.9,1.7,1.5,2.9,1.5c1.2,0,2.2-0.8,2.2-1.9c0-1.2-1.1-1.9-2.8-1.9h-0.6l-0.2-0.7
		l3.1-3.5h-4.8v-1h6.3v0.8l-3.1,3.4c1.7,0.1,3.3,1,3.3,2.8c0,1.8-1.5,3-3.3,3C493.4,217.7,492.1,216.9,491.3,215.9z"/>
	<path class="st0" d="M505.3,208.7h-5.4v-1h6.7v0.8l-4.5,9h-1.2L505.3,208.7z"/>
	<path class="st0" d="M506.6,218.7c0.6-0.2,0.9-0.6,0.9-1.1v-0.1H507V216h1.3v1.3c0,1.1-0.5,1.7-1.6,1.9L506.6,218.7z"/>
	<path class="st0" d="M510.1,215.9l0.8-0.7c0.8,0.9,1.7,1.5,2.9,1.5c1.2,0,2.2-0.8,2.2-1.9c0-1.2-1.1-1.9-2.8-1.9h-0.6l-0.2-0.7
		l3.1-3.5h-4.8v-1h6.3v0.8l-3.1,3.4c1.7,0.1,3.3,1,3.3,2.8c0,1.8-1.5,3-3.3,3C512.1,217.7,510.9,216.9,510.1,215.9z"/>
</g>
<g class="st1">
	<path class="st0" d="M76.3,753.8l3.6-3.2c1.5-1.3,2.1-2.1,2.1-3.1c0-1.2-0.9-1.9-2-1.9c-1.1,0-1.9,0.6-2.6,1.7l-0.8-0.6
		c0.9-1.3,1.8-2.1,3.5-2.1c1.8,0,3.1,1.2,3.1,2.8c0,1.4-0.8,2.3-2.5,3.8l-2.6,2.3h5.2v1h-6.9V753.8z"/>
	<path class="st0" d="M90.3,745.8h-5.4v-1h6.7v0.8l-4.5,9h-1.2L90.3,745.8z"/>
	<path class="st0" d="M91.5,755.9c0.6-0.2,0.9-0.6,0.9-1.1v-0.1H92v-1.5h1.3v1.3c0,1.1-0.5,1.7-1.6,1.9L91.5,755.9z"/>
	<path class="st0" d="M95,753.8l3.6-3.2c1.5-1.3,2.1-2.1,2.1-3.1c0-1.2-0.9-1.9-2-1.9c-1.1,0-1.9,0.6-2.6,1.7l-0.8-0.6
		c0.9-1.3,1.8-2.1,3.5-2.1c1.8,0,3.1,1.2,3.1,2.8c0,1.4-0.8,2.3-2.5,3.8l-2.6,2.3h5.2v1H95V753.8z"/>
</g>
<g class="st1">
	<path class="st0" d="M78.2,608.9l-1.9,0.6l-0.3-0.9l2.4-0.8h0.8v9.9h-1.1V608.9z"/>
	<path class="st0" d="M81.8,616.6l0.6-0.9c0.8,0.7,1.5,1.1,2.4,1.1c1.7,0,2.9-1.7,2.9-4.2v-0.1c-0.5,0.9-1.4,1.6-2.8,1.6
		c-2,0-3.4-1.3-3.4-3.1c0-1.9,1.5-3.4,3.5-3.4c2.2,0,3.8,1.3,3.8,4.9c0,3.1-1.7,5.3-4.1,5.3C83.6,617.8,82.6,617.3,81.8,616.6z
		 M87.6,610.9c0-1.3-1-2.2-2.5-2.2c-1.5,0-2.4,1.1-2.4,2.3c0,1.3,1,2.2,2.4,2.2C86.6,613.1,87.6,612,87.6,610.9z"/>
	<path class="st0" d="M90.3,618.9c0.6-0.2,0.9-0.6,0.9-1.1v-0.1h-0.5v-1.5H92v1.3c0,1.1-0.5,1.7-1.6,1.9L90.3,618.9z"/>
	<path class="st0" d="M99.2,615.3H94l-0.3-0.8l5.6-6.8h1v6.7h1.5v0.9h-1.5v2.3h-1.1V615.3z M99.2,614.4v-5.1l-4.1,5.1H99.2z"/>
</g>
<g class="st1">
	<path class="st0" d="M189.7,608.9l-1.9,0.6l-0.3-0.9l2.4-0.8h0.8v9.9h-1.1V608.9z"/>
	<path class="st0" d="M193.1,613c0-3,1.5-5.4,4.1-5.4c1.2,0,2.1,0.4,2.9,1.1l-0.6,0.9c-0.7-0.6-1.4-1-2.3-1c-1.8,0-2.9,1.8-2.9,4.3
		v0c0.5-0.8,1.4-1.5,2.8-1.5c1.8,0,3.4,1.2,3.4,3.1c0,1.9-1.5,3.3-3.5,3.3C194.7,617.8,193.1,616.5,193.1,613z M199.3,614.6
		c0-1.2-1-2.1-2.4-2.1c-1.5,0-2.5,1.1-2.5,2.2c0,1.3,1,2.2,2.5,2.2S199.3,615.9,199.3,614.6z"/>
	<path class="st0" d="M202,618.9c0.6-0.2,0.9-0.6,0.9-1.1v-0.1h-0.5v-1.5h1.3v1.3c0,1.1-0.5,1.7-1.6,1.9L202,618.9z"/>
	<path class="st0" d="M205.6,616.3l0.7-0.8c0.9,0.8,1.8,1.4,2.8,1.4c1.4,0,2.4-0.9,2.4-2.2c0-1.2-1-2.1-2.5-2.1
		c-0.8,0-1.5,0.3-2.1,0.6l-0.7-0.5l0.3-4.8h5.7v1h-4.7l-0.2,3.2c0.6-0.3,1.1-0.4,1.9-0.4c1.9,0,3.4,1.1,3.4,3c0,1.9-1.5,3.2-3.5,3.2
		C207.7,617.8,206.5,617.2,205.6,616.3z"/>
</g>
<g class="st1">
	<path class="st0" d="M269.7,753.1l0.8-0.7c0.8,0.9,1.7,1.5,2.9,1.5c1.2,0,2.2-0.8,2.2-1.9c0-1.2-1.1-1.9-2.8-1.9h-0.6l-0.2-0.7
		l3.1-3.5h-4.8v-1h6.3v0.8l-3.1,3.4c1.7,0.1,3.3,1,3.3,2.8c0,1.8-1.5,3-3.3,3C271.8,754.8,270.6,754.1,269.7,753.1z"/>
	<path class="st0" d="M283.7,745.8h-5.4v-1h6.7v0.8l-4.5,9h-1.2L283.7,745.8z"/>
	<path class="st0" d="M285,755.9c0.6-0.2,0.9-0.6,0.9-1.1v-0.1h-0.5v-1.5h1.3v1.3c0,1.1-0.5,1.7-1.6,1.9L285,755.9z"/>
	<path class="st0" d="M288.5,753.1l0.8-0.7c0.8,0.9,1.7,1.5,2.9,1.5c1.2,0,2.2-0.8,2.2-1.9c0-1.2-1.1-1.9-2.8-1.9h-0.6l-0.2-0.7
		l3.1-3.5H289v-1h6.3v0.8l-3.1,3.4c1.7,0.1,3.3,1,3.3,2.8c0,1.8-1.5,3-3.3,3C290.5,754.8,289.3,754.1,288.5,753.1z"/>
</g>
<g class="st1">
	<path class="st0" d="M684.7,753.8l3.6-3.2c1.5-1.3,2.1-2.1,2.1-3.1c0-1.2-0.9-1.9-2-1.9c-1.1,0-1.9,0.6-2.6,1.7l-0.8-0.6
		c0.9-1.3,1.8-2.1,3.5-2.1c1.8,0,3.1,1.2,3.1,2.8c0,1.4-0.8,2.3-2.5,3.8l-2.6,2.3h5.2v1h-6.9V753.8z"/>
	<path class="st0" d="M698.7,745.8h-5.4v-1h6.7v0.8l-4.5,9h-1.2L698.7,745.8z"/>
	<path class="st0" d="M700,755.9c0.6-0.2,0.9-0.6,0.9-1.1v-0.1h-0.5v-1.5h1.3v1.3c0,1.1-0.5,1.7-1.6,1.9L700,755.9z"/>
	<path class="st0" d="M703.4,753.8l3.6-3.2c1.5-1.3,2.1-2.1,2.1-3.1c0-1.2-0.9-1.9-2-1.9c-1.1,0-1.9,0.6-2.6,1.7l-0.8-0.6
		c0.9-1.3,1.8-2.1,3.5-2.1c1.8,0,3.1,1.2,3.1,2.8c0,1.4-0.8,2.3-2.5,3.8l-2.6,2.3h5.2v1h-6.9V753.8z"/>
</g>
<g class="st1">
	<path class="st0" d="M686.6,608.9l-1.9,0.6l-0.3-0.9l2.4-0.8h0.8v9.9h-1.1V608.9z"/>
	<path class="st0" d="M690.2,616.6l0.6-0.9c0.8,0.7,1.5,1.1,2.4,1.1c1.7,0,2.9-1.7,2.9-4.2v-0.1c-0.5,0.9-1.4,1.6-2.8,1.6
		c-2,0-3.4-1.3-3.4-3.1c0-1.9,1.5-3.4,3.5-3.4c2.2,0,3.8,1.3,3.8,4.9c0,3.1-1.7,5.3-4.1,5.3C692,617.8,691,617.3,690.2,616.6z
		 M696,610.9c0-1.3-1-2.2-2.5-2.2s-2.4,1.1-2.4,2.3c0,1.3,1,2.2,2.4,2.2C695,613.1,696,612,696,610.9z"/>
	<path class="st0" d="M698.7,618.9c0.6-0.2,0.9-0.6,0.9-1.1v-0.1h-0.5v-1.5h1.3v1.3c0,1.1-0.5,1.7-1.6,1.9L698.7,618.9z"/>
	<path class="st0" d="M707.6,615.3h-5.2l-0.3-0.8l5.6-6.8h1v6.7h1.5v0.9h-1.5v2.3h-1.1V615.3z M707.6,614.4v-5.1l-4.1,5.1H707.6z"/>
</g>
<g class="st1">
	<path class="st0" d="M575,608.9l-1.9,0.6l-0.3-0.9l2.4-0.8h0.8v9.9H575V608.9z"/>
	<path class="st0" d="M578.4,613c0-3,1.5-5.4,4.1-5.4c1.2,0,2.1,0.4,2.9,1.1l-0.6,0.9c-0.7-0.6-1.4-1-2.3-1c-1.8,0-2.9,1.8-2.9,4.3
		v0c0.5-0.8,1.4-1.5,2.8-1.5c1.8,0,3.4,1.2,3.4,3.1c0,1.9-1.5,3.3-3.5,3.3C580,617.8,578.4,616.5,578.4,613z M584.6,614.6
		c0-1.2-1-2.1-2.4-2.1c-1.5,0-2.5,1.1-2.5,2.2c0,1.3,1,2.2,2.5,2.2S584.6,615.9,584.6,614.6z"/>
	<path class="st0" d="M587.3,618.9c0.6-0.2,0.9-0.6,0.9-1.1v-0.1h-0.5v-1.5h1.3v1.3c0,1.1-0.5,1.7-1.6,1.9L587.3,618.9z"/>
	<path class="st0" d="M590.8,616.3l0.7-0.8c0.9,0.8,1.8,1.4,2.8,1.4c1.4,0,2.4-0.9,2.4-2.2c0-1.2-1-2.1-2.5-2.1
		c-0.8,0-1.5,0.3-2.1,0.6l-0.7-0.5l0.3-4.8h5.7v1h-4.7l-0.2,3.2c0.6-0.3,1.1-0.4,1.9-0.4c1.9,0,3.4,1.1,3.4,3c0,1.9-1.5,3.2-3.5,3.2
		C592.9,617.8,591.7,617.2,590.8,616.3z"/>
</g>
<g class="st1">
	<path class="st0" d="M491.3,753.1l0.8-0.7c0.8,0.9,1.7,1.5,2.9,1.5c1.2,0,2.2-0.8,2.2-1.9c0-1.2-1.1-1.9-2.8-1.9h-0.6l-0.2-0.7
		l3.1-3.5h-4.8v-1h6.3v0.8l-3.1,3.4c1.7,0.1,3.3,1,3.3,2.8c0,1.8-1.5,3-3.3,3C493.4,754.8,492.1,754.1,491.3,753.1z"/>
	<path class="st0" d="M505.3,745.8h-5.4v-1h6.7v0.8l-4.5,9h-1.2L505.3,745.8z"/>
	<path class="st0" d="M506.6,755.9c0.6-0.2,0.9-0.6,0.9-1.1v-0.1H507v-1.5h1.3v1.3c0,1.1-0.5,1.7-1.6,1.9L506.6,755.9z"/>
	<path class="st0" d="M510.1,753.1l0.8-0.7c0.8,0.9,1.7,1.5,2.9,1.5c1.2,0,2.2-0.8,2.2-1.9c0-1.2-1.1-1.9-2.8-1.9h-0.6l-0.2-0.7
		l3.1-3.5h-4.8v-1h6.3v0.8l-3.1,3.4c1.7,0.1,3.3,1,3.3,2.8c0,1.8-1.5,3-3.3,3C512.1,754.8,510.9,754.1,510.1,753.1z"/>
</g>
</svg>
