<?xml version="1.0" encoding="utf-8"?>
<!-- Generator: Adobe Illustrator 19.0.0, SVG Export Plug-In . SVG Version: 6.00 Build 0)  -->
<svg version="1.1" id="_x34_1_commercial" xmlns="http://www.w3.org/2000/svg" xmlns:xlink="http://www.w3.org/1999/xlink" x="0px"
	 y="0px" viewBox="286 -287.7 753 752.7" style="enable-background:new 286 -287.7 753 752.7;" xml:space="preserve">
<style type="text/css">
	.st0{fill:#FFFFFF;}
	.st1{enable-background:new    ;}
</style>
<g id="Doors">
</g>
<path id="XMLID_4_" class="st0" d="M382.2,107.5h0.3c9.9,0,18,7.8,18,17.5l0,0h-0.6c0-9.2-7.6-16.8-17.1-16.9V125h-0.6L382.2,107.5
	L382.2,107.5L382.2,107.5z"/>
<path id="XMLID_124_" class="st0" d="M568.3,144.5V167h-5.1v-22.5H568.3 M568.8,144h-6.1v23.5h6.1V144L568.8,144z"/>
<path id="XMLID_121_" class="st0" d="M701.7,135.8v20.5h-6.9v-20.5H701.7 M702.2,135.3h-7.9v21.5h7.9V135.3L702.2,135.3z"/>
<path id="XMLID_118_" class="st0" d="M701.5,91.6v20.5h-6.8V91.6H701.5 M702,91.1h-7.8v21.5h7.8L702,91.1L702,91.1L702,91.1z"/>
<path id="XMLID_115_" class="st0" d="M701.5,1.2v19.7h-4.9V1.2H701.5 M702,0.7h-5.9v20.7h5.9V0.7L702,0.7L702,0.7z"/>
<path id="XMLID_112_" class="st0" d="M630.5,13.6v19.1h-7V13.6H630.5 M631,13.1h-8v20.1h8V13.1L631,13.1z"/>
<path id="XMLID_109_" class="st0" d="M630.5,56.9v19.7h-7V56.9H630.5 M631,56.4h-8v20.7h8V56.4L631,56.4L631,56.4L631,56.4z"/>
<polygon id="XMLID_108_" class="st0" points="585.4,4 585.8,3.6 623.2,41.6 622.8,42 "/>
<polygon id="XMLID_107_" class="st0" points="585.4,41.6 622.8,3.6 623.2,4 585.8,41.9 "/>
<polygon id="XMLID_106_" class="st0" points="585.4,47.5 585.8,47.1 623.2,85 622.8,85.4 "/>
<polygon id="XMLID_105_" class="st0" points="585.4,85 622.8,47.1 623.2,47.5 585.8,85.3 "/>
<rect id="XMLID_104_" x="595.5" y="120.7" transform="matrix(-0.6744 0.7383 -0.7383 -0.6744 1113.641 -176.7141)" class="st0" width="0.5" height="73"/>
<rect id="XMLID_103_" x="559.3" y="156.9" transform="matrix(-0.7386 0.6742 -0.6742 -0.7386 1141.7568 -128.5313)" class="st0" width="73" height="0.5"/>
<polygon id="XMLID_102_" class="st0" points="739.6,164.1 702,126.3 702.3,126 739.9,163.7 "/>
<polygon id="XMLID_101_" class="st0" points="702.3,164.1 702,163.7 739.6,126 739.9,126.3 "/>
<rect id="XMLID_100_" x="694.4" y="100.8" transform="matrix(-0.7148 0.6993 -0.6993 -0.7148 1306.8684 -330.7997)" class="st0" width="53" height="0.5"/>
<rect id="XMLID_99_" x="720.6" y="74.6" transform="matrix(-0.7004 0.7137 -0.7137 -0.7004 1297.8966 -342.6697)" class="st0" width="0.5" height="53"/>
<rect id="XMLID_98_" x="728.5" y="-26" transform="matrix(-0.6807 0.7325 -0.7325 -0.6807 1232.6381 -516.0702)" class="st0" width="0.5" height="73.2"/>
<rect id="XMLID_97_" x="692.2" y="10.4" transform="matrix(-0.733 0.6802 -0.6802 -0.733 1270.2416 -477.3246)" class="st0" width="73.2" height="0.5"/>
<path id="XMLID_94_" class="st0" d="M543.7,87.2h-9V28.9h9V87.2L543.7,87.2z M535.2,86.7h8V29.5h-8V86.7L535.2,86.7L535.2,86.7z"/>
<path id="XMLID_91_" class="st0" d="M541.4,84.4H537V31.8h4.3L541.4,84.4L541.4,84.4L541.4,84.4z M537.5,83.9h3.4V32.3h-3.4
	L537.5,83.9L537.5,83.9L537.5,83.9z"/>
<rect id="XMLID_90_" x="506" y="31.8" class="st0" width="28.9" height="0.5"/>
<rect id="XMLID_89_" x="506" y="37.9" class="st0" width="29" height="0.5"/>
<rect id="XMLID_88_" x="506" y="44" class="st0" width="29" height="0.5"/>
<rect id="XMLID_87_" x="506" y="50.1" transform="matrix(-1 3.839715e-003 -3.839715e-003 -1 1041.0696 98.7741)" class="st0" width="28.9" height="0.5"/>
<rect id="XMLID_86_" x="506" y="56.2" class="st0" width="28.9" height="0.5"/>
<rect id="XMLID_85_" x="506" y="62.3" class="st0" width="28.9" height="0.5"/>
<rect id="XMLID_84_" x="506" y="68.4" class="st0" width="29" height="0.5"/>
<rect id="XMLID_83_" x="506" y="74.6" class="st0" width="29" height="0.5"/>
<rect id="XMLID_82_" x="506" y="80.6" class="st0" width="28.9" height="0.5"/>
<rect id="XMLID_81_" x="506" y="86.7" class="st0" width="28.9" height="0.5"/>
<rect id="XMLID_80_" x="543.5" y="31.8" class="st0" width="29" height="0.5"/>
<rect id="XMLID_79_" x="543.5" y="37.9" class="st0" width="29" height="0.5"/>
<rect id="XMLID_78_" x="543.5" y="44" class="st0" width="29" height="0.5"/>
<rect id="XMLID_77_" x="543.5" y="50.1" transform="matrix(-1 3.839715e-003 -3.839715e-003 -1 1116.0687 98.6221)" class="st0" width="29" height="0.5"/>
<rect id="XMLID_76_" x="543.5" y="56.2" class="st0" width="29" height="0.5"/>
<rect id="XMLID_75_" x="543.5" y="62.3" class="st0" width="29" height="0.5"/>
<rect id="XMLID_74_" x="543.5" y="68.4" class="st0" width="29" height="0.5"/>
<rect id="XMLID_73_" x="543.5" y="74.6" class="st0" width="29" height="0.5"/>
<rect id="XMLID_72_" x="543.5" y="80.6" class="st0" width="29" height="0.5"/>
<rect id="XMLID_71_" x="543.5" y="86.7" class="st0" width="29" height="0.5"/>
<polygon id="XMLID_70_" class="st0" points="521.4,85.5 520.9,85.5 520.9,16.3 557.9,16.3 557.9,84.8 557.4,84.8 557.4,16.8 
	521.4,16.8 "/>
<polygon id="XMLID_69_" class="st0" points="556.2,84.4 557.7,87 559.2,84.4 "/>
<rect id="XMLID_68_" x="541.8" y="40.8" transform="matrix(-0.9627 0.2707 -0.2707 -0.9627 1104.3403 -70.1508)" class="st0" width="30.4" height="0.5"/>
<rect id="XMLID_67_" x="543" y="43" transform="matrix(-0.9651 0.2619 -0.2619 -0.9651 1108.1655 -61.0716)" class="st0" width="30.4" height="0.5"/>
<circle id="XMLID_66_" class="st0" cx="521.1" cy="87" r="2.1"/>
<rect id="XMLID_65_" x="557.4" y="33.2" class="st0" width="0.5" height="6.2"/>
<polygon id="XMLID_64_" class="st0" points="556.2,38.9 557.7,41.5 559.2,38.9 "/>
<path id="XMLID_61_" class="st0" d="M789.5,139.9h-9V81.7h9V139.9z M781,139.4h8.1V82.2h-8L781,139.4L781,139.4z"/>
<path id="XMLID_58_" class="st0" d="M787.1,137.1h-4.4V84.5h4.4V137.1L787.1,137.1L787.1,137.1z M783.3,136.6h3.4V85h-3.4V136.6
	L783.3,136.6L783.3,136.6z"/>
<rect id="XMLID_57_" x="751.7" y="136.6" class="st0" width="29" height="0.5"/>
<polygon id="XMLID_56_" class="st0" points="751.7,131.1 751.7,130.6 780.7,130.4 780.7,130.9 "/>
<rect id="XMLID_55_" x="751.7" y="124.4" transform="matrix(-1 3.839715e-003 -3.839715e-003 -1 1532.84 246.4218)" class="st0" width="29" height="0.5"/>
<rect id="XMLID_54_" x="751.7" y="118.3" class="st0" width="29" height="0.5"/>
<rect id="XMLID_53_" x="751.7" y="112.2" class="st0" width="29" height="0.5"/>
<rect id="XMLID_52_" x="751.7" y="106.1" class="st0" width="29" height="0.5"/>
<rect id="XMLID_51_" x="751.7" y="100" transform="matrix(-1 3.839715e-003 -3.839715e-003 -1 1532.7588 197.6022)" class="st0" width="29" height="0.5"/>
<polygon id="XMLID_50_" class="st0" points="751.7,94.5 751.7,94 780.7,93.8 780.7,94.3 "/>
<rect id="XMLID_49_" x="751.7" y="87.8" class="st0" width="29" height="0.5"/>
<rect id="XMLID_48_" x="751.7" y="81.7" class="st0" width="29" height="0.5"/>
<rect id="XMLID_47_" x="789.2" y="136.6" class="st0" width="29" height="0.5"/>
<polygon id="XMLID_46_" class="st0" points="789.2,131.1 789.2,130.6 818.2,130.4 818.2,130.9 "/>
<rect id="XMLID_45_" x="789.2" y="124.4" transform="matrix(-1 3.839715e-003 -3.839715e-003 -1 1607.8392 246.3098)" class="st0" width="29" height="0.5"/>
<rect id="XMLID_44_" x="789.2" y="118.3" class="st0" width="29" height="0.5"/>
<rect id="XMLID_43_" x="789.2" y="112.2" class="st0" width="29" height="0.5"/>
<rect id="XMLID_42_" x="789.2" y="106.1" class="st0" width="29" height="0.5"/>
<rect id="XMLID_41_" x="789.2" y="100" transform="matrix(-1 3.839715e-003 -3.839715e-003 -1 1607.7581 197.4902)" class="st0" width="28.9" height="0.5"/>
<polygon id="XMLID_40_" class="st0" points="789.2,94.5 789.2,94 818.2,93.8 818.2,94.3 "/>
<rect id="XMLID_39_" x="789.2" y="87.8" class="st0" width="29" height="0.5"/>
<rect id="XMLID_38_" x="789.2" y="81.7" class="st0" width="29" height="0.5"/>
<polygon id="XMLID_37_" class="st0" points="803.7,152.6 766.6,152.6 766.6,83.4 767.1,83.4 767.1,152.1 803.2,152.1 803.2,84.1 
	803.7,84.1 "/>
<polygon id="XMLID_36_" class="st0" points="804.9,84.5 803.4,81.9 801.9,84.5 "/>
<polygon id="XMLID_35_" class="st0" points="818.5,131.8 789.2,123.5 789.3,123 818.6,131.3 "/>
<rect id="XMLID_34_" x="803.6" y="110.4" transform="matrix(-0.2608 0.9654 -0.9654 -0.2608 1134.8174 -617.7104)" class="st0" width="0.5" height="30.4"/>
<circle id="XMLID_33_" class="st0" cx="766.9" cy="81.9" r="2.1"/>
<rect id="XMLID_32_" x="803.2" y="129.5" class="st0" width="0.5" height="6.2"/>
<polygon id="XMLID_31_" class="st0" points="804.9,130 803.4,127.4 801.9,130 "/>
<path id="XMLID_30_" class="st0" d="M814.5,14.6v20.9H814V15.1c-11.2,0.2-20.1,9.2-20.1,20.4h-0.5c0-11.5,9.4-20.9,20.9-20.9
	L814.5,14.6L814.5,14.6z"/>
<path id="XMLID_29_" class="st0" d="M762.4,65.1h-19.8v-0.5h19.3c-0.2-10.5-8.7-19-19.3-19v-0.5c10.9,0,19.8,8.8,19.8,19.8V65.1
	L762.4,65.1L762.4,65.1z"/>
<path id="XMLID_28_" class="st0" d="M722.6,64.3H702v-0.5h20.1C722,52.8,713,44,702,43.9v-0.5c11.4,0,20.6,9.2,20.7,20.6L722.6,64.3
	L722.6,64.3L722.6,64.3z"/>
<path id="XMLID_27_" class="st0" d="M510.6,152.1v-19.6h0.5v19.1c10.5-0.1,18.9-8.7,18.9-19.1h0.5c0,10.8-8.8,19.6-19.6,19.6
	L510.6,152.1L510.6,152.1z"/>
<path id="XMLID_26_" class="st0" d="M562.5,102.3h20.3v0.5H563c0.1,10.8,8.9,19.5,19.8,19.5v0.5c-11.2,0-20.2-9.1-20.3-20.2V102.3
	L562.5,102.3z"/>
<path id="XMLID_25_" class="st0" d="M603,103h19.7v0.5h-19.2c0.1,10.5,8.7,19,19.2,19v0.4c-10.9,0-19.7-8.8-19.7-19.7V103z"/>
<path id="XMLID_24_" class="st0" d="M644,5.3v-19.6h0.6V4.8c0,0.1,0.1,0.2,0.2,0.2l0,0l0,0c10.4-0.3,18.7-8.8,18.8-19.2h0.6
	c0,3.4-0.8,6.7-2.4,9.6c-3.5,6.4-10.2,10.3-17.5,10.4h-0.3L644,5.3z"/>
<path id="XMLID_23_" class="st0" d="M684,5.4v-19.7h-0.7V4.9c0,0.1-0.1,0.2-0.2,0.2h0l0,0c-10.5-0.3-18.8-8.8-18.8-19.3h-0.7
	c0,3.4,0.8,6.7,2.4,9.7c3.5,6.4,10.3,10.3,17.5,10.3h0.3L684,5.4z"/>
<path id="XMLID_22_" class="st0" d="M641.1,161.9v19.8h0.7v-19.3c0-0.1,0.1-0.2,0.2-0.2c10.6,0.3,19,8.9,19,19.5h0.7
	c0-3.4-0.8-6.7-2.4-9.7c-3.6-6.4-10.3-10.5-17.7-10.5h-0.3L641.1,161.9z"/>
<path id="XMLID_21_" class="st0" d="M681.5,161.8v20h-0.7v-19.4c0-0.1-0.1-0.2-0.2-0.2c-10.6,0.3-19,9-19,19.6h-0.7
	c0-3.4,0.8-6.8,2.4-9.8c3.6-6.5,10.4-10.5,17.7-10.5h0.3L681.5,161.8z"/>
<polygon id="XMLID_20_" class="st0" points="631,13.3 631,-14.1 644.7,-14.1 644.7,-27.1 602.9,-27.1 602.9,-47.3 531.9,-47.3 
	531.9,-27 494.4,-27 494.3,84.4 472,84.4 472,91.9 494.3,91.9 494.3,196.3 531.9,196.3 531.9,216.5 602.9,216.5 602.9,196.3 
	641.8,196.3 641.8,182 628.8,182 629,122.6 622.8,122.6 622.8,126.6 588.2,126.6 588.2,122.6 582.8,122.6 582.8,126.6 529.9,126.6 
	529.9,132.7 562.7,132.7 562.7,144.4 568.8,144.4 568.8,132.7 622.7,132.7 622.7,182 568.8,182 568.8,167.5 562.7,167.5 562.7,182 
	506.8,182 506.8,132.7 511.1,132.7 511.1,126.6 506.8,126.6 506.8,4 572.4,4 572.4,98 582.8,98 582.8,103 587.5,103 587.5,98 
	622.8,98 622.8,103.7 629,103.7 629,98 631,98 631,77 623,77 623,84.9 585.6,84.9 585.6,47.5 623,47.5 623,56.6 631,56.6 631,32.9 
	623,32.9 623,41.6 585.6,41.6 585.6,4 623,4 623,13.3 "/>
<polygon id="XMLID_19_" class="st0" points="853.2,84.4 830.9,84.4 830.9,-27.4 793.3,-27.4 793.3,-47.6 722.4,-47.6 722.4,-27.4 
	683.6,-27.4 683.6,-14.4 696.1,-14.4 696.1,0.6 702,0.6 702,-14.4 755.6,-14.4 755.6,35.5 702,35.5 702,21.4 696.1,21.4 696.1,44 
	702,44 702,41.4 736.8,41.4 736.8,45.6 742.7,45.6 742.7,41.4 793.9,41.4 793.9,35.5 768,35.5 768,-14.3 817.1,-14.3 817.1,35.5 
	814,35.5 814,41.4 817.1,41.4 817.1,163.9 752.8,163.9 752.8,69.5 742.7,69.5 742.7,64.7 736.8,64.7 736.8,69.5 702,69.5 702,63.9 
	696.1,63.9 696.1,68.9 694.2,68.9 694.2,91.4 702,91.4 702,82.6 739.8,82.6 739.8,119.6 702,119.6 702,112.6 694.2,112.6 
	694.2,135.4 702.2,135.4 702.2,126.2 739.8,126.2 739.8,163.9 702.2,163.9 702.2,156.7 694.2,156.7 694.2,181.8 680.8,181.8 
	680.8,196.1 722.4,196.1 722.4,216.3 793.3,216.3 793.3,196.1 830.9,196.1 830.9,91.9 853.2,91.9 "/>
<rect id="XMLID_18_" x="400.7" y="174.1" class="st0" width="17.5" height="24.5"/>
<rect id="XMLID_17_" x="906.8" y="-14.5" class="st0" width="17.5" height="24.5"/>
<rect id="XMLID_16_" x="906.8" y="174.1" class="st0" width="17.5" height="24.5"/>
<g id="XMLID_11_">
	<path id="XMLID_13_" class="st0" d="M951.8-210.1H373.2H367v6.2v585.1v6.2h6.2h578.7h6.2v-6.2v-585.1v-6.2H951.8z M951.8-87.7
		h-36.7v6.2h36.7V84.4h-36.2v7.5h36.2v164.8h-36.2v7.5l36.2,0v117.1h-9.2v-11.7H915v11.7h-77.8v-84H855v-27.5h-17.8v-11.5H831h-44.8
		v33.8H831v89.3H665.6v-75.7h17.8V265h-17.8v-6.8h-6.2v6.8h-17.8v40.5h17.8v75.7H492.2v-89.3H537v-33.8h-44.8H486v11.5h-17.8v27.5
		H486v84h-76v-11.7h-27.7v11.7h-9.2V264.1h36.2v-7.5h-36.2V128.4h9.5v-3.5h-9.5V91.9h32.7v33.1h-6v3.5h6h3.5v-3.5V91.9v-7.5h-3.5
		h-32.7V-81.5h36.7v-6.2h-36.7v-116.2h9.2v11.7H410v-11.7h76v84h-17.8v27.5H486v11.5h6.2H537v-33.8h-44.8v-89.3h167.2v75.7h-17.8
		v40.5h17.8v6.8h6.2v-6.8h17.8v-40.5h-17.8v-75.7H831v89.3h-44.8v33.8H831h6.2v-11.5H855v-27.5h-17.8v-84H915v11.7h27.7v-11.7h9.2
		V-87.7z"/>
	<rect id="XMLID_12_" x="397.2" y="-18.1" class="st0" width="24.5" height="17.5"/>
</g>
<g class="st1">
	<path class="st0" d="M650.8,92.2h-5.2l-0.3-0.8l5.6-6.8h1v6.7h1.5v0.9h-1.5v2.3h-1.1V92.2z M650.8,91.3v-5.1l-4.1,5.1H650.8z"/>
	<path class="st0" d="M660,85.7h-5.4v-1h6.7v0.8l-4.5,9h-1.2L660,85.7z"/>
	<path class="st0" d="M662.6,91.8c0-1.2,0.8-2,2-2.4c-0.9-0.4-1.7-1.1-1.7-2.3c0-1.5,1.6-2.6,3.4-2.6s3.4,1.1,3.4,2.6
		c0,1.1-0.8,1.8-1.7,2.3c1.2,0.4,2,1.2,2,2.4c0,1.7-1.6,2.8-3.7,2.8C664.2,94.7,662.6,93.5,662.6,91.8z M668.9,91.8
		c0-1.1-1.1-1.9-2.6-1.9c-1.4,0-2.6,0.8-2.6,1.9c0,1,1,1.8,2.6,1.8C667.9,93.7,668.9,92.8,668.9,91.8z M668.6,87.2
		c0-1-1-1.7-2.3-1.7c-1.3,0-2.3,0.7-2.3,1.7c0,1.1,1,1.8,2.3,1.8C667.6,89,668.6,88.3,668.6,87.2z"/>
	<path class="st0" d="M671.4,95.7c0.6-0.2,0.9-0.6,0.9-1.1v-0.1h-0.5V93h1.3v1.3c0,1.1-0.5,1.7-1.6,1.9L671.4,95.7z"/>
	<path class="st0" d="M680.3,85.7h-5.4v-1h6.7v0.8l-4.5,9h-1.2L680.3,85.7z"/>
</g>
</svg>
