<?xml version="1.0" encoding="utf-8"?>
<!-- Generator: Adobe Illustrator 19.0.0, SVG Export Plug-In . SVG Version: 6.00 Build 0)  -->
<svg version="1.1" id="_x34_2_helicopter" xmlns="http://www.w3.org/2000/svg" xmlns:xlink="http://www.w3.org/1999/xlink" x="0px"
	 y="0px" viewBox="204 -203.5 753 752.7" style="enable-background:new 204 -203.5 753 752.7;" xml:space="preserve">
<style type="text/css">
	.st0{fill:#FFFFFF;}
</style>
<rect x="664.6" y="-65.8" class="st0" width="0.5" height="38.4"/>
<rect x="670.5" y="-65.8" class="st0" width="0.5" height="38.4"/>
<rect x="676.3" y="-65.8" class="st0" width="0.5" height="38.4"/>
<rect x="682.1" y="-65.8" class="st0" width="0.5" height="38.4"/>
<rect x="688" y="-65.8" class="st0" width="0.5" height="38.4"/>
<rect x="693.8" y="-65.8" class="st0" width="0.5" height="38.4"/>
<rect x="699.6" y="-65.8" class="st0" width="0.5" height="38.4"/>
<rect x="705.5" y="-65.8" class="st0" width="0.5" height="38.4"/>
<rect x="711.3" y="-65.8" class="st0" width="0.5" height="38.4"/>
<rect x="717.1" y="-65.8" class="st0" width="0.5" height="38.4"/>
<rect x="723" y="-65.8" class="st0" width="0.5" height="38.4"/>
<rect x="728.8" y="-65.8" class="st0" width="0.5" height="38.4"/>
<rect x="734.6" y="-65.8" class="st0" width="0.5" height="38.4"/>
<rect x="740.5" y="-65.8" class="st0" width="0.5" height="38.4"/>
<rect x="746.3" y="-65.8" class="st0" width="0.5" height="38.4"/>
<rect x="752.1" y="-65.8" class="st0" width="0.5" height="38.4"/>
<rect x="758" y="-65.8" class="st0" width="0.5" height="38.4"/>
<rect x="763.8" y="-65.8" class="st0" width="0.5" height="38.4"/>
<polygon class="st0" points="765.3,-28 664.6,-28 664.6,-25.1 765.3,-25.1 765.3,7.5 768.2,7.5 768.2,-25.1 768.2,-28 "/>
<polygon class="st0" points="807.2,-65.8 807.2,-65.8 804.2,-65.8 664.6,-65.8 664.6,-62.9 804.2,-62.9 804.2,7.5 807.2,7.5 
	807.2,-62.9 807.2,-62.9 "/>
<rect x="664.7" y="-45.7" class="st0" width="67.9" height="0.5"/>
<rect x="731.3" y="-45.7" class="st0" width="30.7" height="0.5"/>
<polygon class="st0" points="761.5,-44 764.1,-45.5 761.5,-47 "/>
<circle class="st0" cx="664.6" cy="-45.5" r="2.1"/>
<rect x="768.2" y="-22.2" class="st0" width="36" height="0.5"/>
<rect x="768.2" y="-28" class="st0" width="36" height="0.5"/>
<rect x="768.2" y="-16.4" class="st0" width="36" height="0.5"/>
<rect x="768.2" y="-10.5" class="st0" width="36" height="0.5"/>
<rect x="768.2" y="-4.7" class="st0" width="36" height="0.5"/>
<rect x="768.2" y="1.1" class="st0" width="36" height="0.5"/>
<rect x="768.2" y="7" class="st0" width="36" height="0.5"/>
<rect x="495.2" y="371.3" class="st0" width="0.5" height="38.4"/>
<rect x="489.3" y="371.3" class="st0" width="0.5" height="38.4"/>
<rect x="483.5" y="371.3" class="st0" width="0.5" height="38.4"/>
<rect x="477.7" y="371.3" class="st0" width="0.5" height="38.4"/>
<rect x="471.8" y="371.3" class="st0" width="0.5" height="38.4"/>
<rect x="466" y="371.3" class="st0" width="0.5" height="38.4"/>
<rect x="460.2" y="371.3" class="st0" width="0.5" height="38.4"/>
<rect x="454.3" y="371.3" class="st0" width="0.5" height="38.4"/>
<rect x="448.5" y="371.3" class="st0" width="0.5" height="38.4"/>
<rect x="442.7" y="371.3" class="st0" width="0.5" height="38.4"/>
<rect x="436.8" y="371.3" class="st0" width="0.5" height="38.4"/>
<rect x="431" y="371.3" class="st0" width="0.5" height="38.4"/>
<rect x="425.2" y="371.3" class="st0" width="0.5" height="38.4"/>
<rect x="419.3" y="371.3" class="st0" width="0.5" height="38.4"/>
<rect x="413.5" y="371.3" class="st0" width="0.5" height="38.4"/>
<rect x="407.7" y="371.3" class="st0" width="0.5" height="38.4"/>
<rect x="401.8" y="371.3" class="st0" width="0.5" height="38.4"/>
<rect x="396" y="371.3" class="st0" width="0.5" height="38.4"/>
<g>
	<polygon class="st0" points="395,369 395,336.5 392.1,336.5 392.1,369 392.1,372 395,372 495.7,372 495.7,369 	"/>
	<polygon class="st0" points="356.1,336.5 353.1,336.5 353.1,406.9 353.1,409.8 356.1,409.8 495.7,409.8 495.7,406.9 356.1,406.9 	
		"/>
</g>
<rect x="427.7" y="389.1" class="st0" width="67.9" height="0.5"/>
<rect x="398.2" y="389.1" class="st0" width="30.7" height="0.5"/>
<polygon class="st0" points="398.8,387.9 396.2,389.4 398.8,390.9 "/>
<circle class="st0" cx="495.7" cy="389.4" r="2.1"/>
<rect x="356.1" y="365.6" class="st0" width="36" height="0.5"/>
<rect x="356.1" y="371.5" class="st0" width="36" height="0.5"/>
<rect x="356.1" y="359.8" class="st0" width="36" height="0.5"/>
<rect x="356.1" y="354" class="st0" width="36" height="0.5"/>
<rect x="356.1" y="348.1" class="st0" width="36" height="0.5"/>
<rect x="356.1" y="342.3" class="st0" width="36" height="0.5"/>
<rect x="356.1" y="336.5" class="st0" width="36" height="0.5"/>
<g>
	<path class="st0" d="M463.8-194.6h-9.9h-1h0v9.5H306.6v1v78.5h-83.5h-1v1V37.9H213v0v1v9.9v32.3v4.4c-8.1,43.6-11.6,82.6,0,162.6
		v4.4v32.3v9.9v1v0h9.1v152.9v1h1h83.5v80h0v1h0h1h145.3v9.5h0h1h9.9h32.3h4.4v-1h-46.6v-8.5v-1h-1H307.6v-81h-1v0h-83.5V295.7v-1
		h-1H214v-46.6c-11.9-84.3-7.2-123.8,0-162.6l0,0V38.9h8.1h1v-1v-142.5h83.5h0.5h0.5v-79.5h145.3h1v-1v-8.5h46.6v-1h-4.4H463.8z"/>
	<path class="st0" d="M948,85.5v-4.4V48.8v-9.9v-1v0h-9.1v-142.5v-1h-1h-83.7v-78.5v-1h-1H710.7v-9.5h0h-1h-9.9h-32.3h-4.4
		c-43.6-8.1-82.6-11.6-162.6,0v1c84.3-11.9,123.8-7.2,162.6,0l0,0h46.6v8.5v1h1h142.5v79.5h0.5h0.5h83.7V37.9v1h1h8.1v46.6l0,0
		c7.2,38.8,11.9,78.3,0,162.6v46.6h-8.1h-1v1v152.9h-83.7h-0.5h-0.5v81H710.7h-1v1v8.5h-46.6l0,0c-38.8,7.2-78.3,11.9-162.6,0v1
		c80,11.6,119,8.1,162.6,0h4.4h32.3h9.9h1h0v-9.5h142.5h1v-1v-80h83.7h1v-1V295.7h9.1v0v-1v-9.9v-32.3v-4.4
		C959.6,168.2,956.1,129.1,948,85.5z"/>
</g>
<path class="st0" d="M307.6-103.7v551.4h545.6v-551.4H307.6z M846.6,441.1H314.3V-97h532.4V441.1z"/>
<rect x="606.5" y="362" class="st0" width="226.2" height="1"/>
<rect x="395" y="362" class="st0" width="216.3" height="1"/>
<rect x="807.2" y="-19" class="st0" width="25.5" height="1"/>
<rect x="831.7" y="-19" class="st0" width="1" height="382.1"/>
<polygon class="st0" points="806.2,7.5 806.2,336.5 392.2,336.5 392.2,337.5 807.2,337.5 807.2,337.5 807.2,7.5 "/>
<polygon class="st0" points="612.4,-19 606.5,-19 328.6,-19 327.6,-19 327.6,-18 327.6,363 328.6,363 328.6,363 353.1,363 
	353.1,362 328.6,362 328.6,-18 606.5,-18 612.4,-18 765.3,-18 765.3,-19 "/>
<polygon class="st0" points="353.1,6.5 353.1,337.5 354.1,337.5 354.1,7.5 768.1,7.5 768.1,6.5 "/>
<g>
	<path class="st0" d="M584,316.5c-79.2,0-143.7-64.5-143.7-143.7S504.8,29.1,584,29.1s143.7,64.5,143.7,143.7S663.2,316.5,584,316.5
		z M584,37.1c-74.8,0-135.7,60.9-135.7,135.7S509.2,308.5,584,308.5s135.7-60.9,135.7-135.7S658.8,37.1,584,37.1z"/>
	<path class="st0" d="M584,277.1c-57.5,0-104.3-46.8-104.3-104.3c0-57.5,46.8-104.3,104.3-104.3c57.5,0,104.3,46.8,104.3,104.3
		C688.3,230.3,641.5,277.1,584,277.1z M584,76.5c-53.1,0-96.3,43.2-96.3,96.3c0,53.1,43.2,96.3,96.3,96.3
		c53.1,0,96.3-43.2,96.3-96.3C680.3,119.7,637.1,76.5,584,76.5z"/>
	<g>
		<path class="st0" d="M549.7,215.7v-85.9H567v33.8h34v-33.8h17.3v85.9H601v-37.6h-34v37.6H549.7z"/>
	</g>
</g>
</svg>
