<svg id="Layer_1" data-name="Layer 1" xmlns="http://www.w3.org/2000/svg" viewBox="0 0 437.4 437.4"><defs><style>.cls-1{fill:#153e28;}.cls-2{fill:#1d422d;}</style></defs><title>circle</title><circle class="cls-1" cx="218.7" cy="218.7" r="218.7"/><path class="cls-2" d="M595.6,345.4l-8.4-22.5c-1.3-3.4-2.7-8.8-2.6-11a25.87,25.87,0,0,1,1.4-5.7l0.1-.4,0.1-.4c2.7-9.3,2.6-28.1-14.3-38.6,10.6-16.9,2.6-33.8-3.8-41l-0.3-.3-0.3-.3a20,20,0,0,1-3.7-4.5h0c-0.9-1.7-2-7-2.4-11.1l-2.1-24-0.8-8.5-8.1-2.6-22.8-7.4c-3.4-1.1-8.6-3.4-10.2-4.8a20.57,20.57,0,0,1-3.5-4.7l-0.2-.4-0.2-.4c-1.1-1.5-10.9-14.8-28-14.8a33.22,33.22,0,0,0-11.1,1.9c-5.5-15.6-19.9-22.7-33-22.7h-2.1a24.84,24.84,0,0,1-3.8.2c-1.1,0-1.8-.1-2-0.1h0c-1.9-.4-6.7-2.8-10.1-5l-20-13.3-7.1-4.7-7.1,4.7-20,13.3c-3,2-8,4.6-10.1,5-0.2,0-.9.1-2,0.1s-2.4-.1-3.8-0.2l-0.8-.1h-1.4c-13.1,0-27.5,7.1-33,22.7a33.22,33.22,0,0,0-11.1-1.9c-17.1,0-26.9,13.3-28,14.7l-0.2.3-0.2.4a30,30,0,0,1-3.5,4.6h0c-1.4,1.2-6.3,3.5-10.2,4.8l-22.8,7.4-8.1,2.6-0.8,8.5-2.1,24c-0.3,3.6-1.4,9.1-2.4,11.1a26.36,26.36,0,0,1-3.7,4.5l-0.3.3-0.3.3c-6.4,7.2-14.5,24.2-3.8,41-16.9,10.6-17,29.4-14.3,38.6l0.1,0.4,0.1,0.4a25.73,25.73,0,0,1,1.4,5.6h0c0.1,1.9-1.2,7.2-2.6,11l-8.4,22.5-3,8,6.1,5.9,17.4,16.6c2.6,2.5,6.2,6.8,7.1,8.8a27.66,27.66,0,0,1,1.2,5.7v0.5l0.1,0.4c1.6,9.3,9.8,26.3,29.6,28.6-2.3,19.8,12.3,31.6,21.2,35.3l0.4,0.2,0.4,0.1a25.61,25.61,0,0,1,5.3,2.4h0c1.5,1.1,4.8,5.4,7,8.9L302,487l4.3,7.3,8.4-1.1,23.8-3.2a57.28,57.28,0,0,1,7.1-.5,18.77,18.77,0,0,1,4.2.3,21.89,21.89,0,0,1,5.2,2.7l0.4,0.2,0.4,0.2a38.08,38.08,0,0,0,17.4,4.3,32.52,32.52,0,0,0,23.4-9.8,32.93,32.93,0,0,0,23.4,9.8,38.53,38.53,0,0,0,17.4-4.3l0.4-.2,0.3-.2a21.76,21.76,0,0,1,5.2-2.6h0a23,23,0,0,1,4.3-.3,42.36,42.36,0,0,1,7.1.5l23.8,3.2,8.4,1.1,4.3-7.3,12.3-20.7c1.8-3.1,5.2-7.6,6.9-8.9a25.55,25.55,0,0,1,5.3-2.4l0.4-.1,0.4-.2c8.9-3.7,23.5-15.5,21.2-35.3,19.9-2.2,28-19.3,29.6-28.6l0.1-.4v-0.4a24.39,24.39,0,0,1,1.2-5.7h0c0.8-1.7,4.2-5.9,7.1-8.8L593.1,359l6.1-5.9Zm-23.4,11.8,15.5-3.1-17.4,16.7c-2.6,2.5-7.3,7.7-8.7,11.1l-0.1.1h0a30.16,30.16,0,0,0-1.6,7.6V390c-1.3,7.5-7.9,21.3-24.1,22.8-1,.1-2,0.1-3,0.1h0a14.08,14.08,0,0,1-2-.1h-0.3a22.31,22.31,0,0,1-2.3-.4,12.78,12.78,0,0,1,.9,2.2l0.1,0.3a30.47,30.47,0,0,1,1,4.9c2.1,16.1-9.7,25.7-16.8,28.7l-0.2.1-0.2.1c-4.8,1.6-7.1,3.3-7.1,3.4-3.1,2.3-7.3,8.4-8.9,11l-12.3,20.7L484.3,468a19.52,19.52,0,0,1-9.5,2.5,19.16,19.16,0,0,1-7.9,5.9l12,10.2-23.8-3.3a71.53,71.53,0,0,0-8-.5,25,25,0,0,0-6.1.6h-0.2a29.59,29.59,0,0,0-7,3.5l-0.2.1-0.2.1a29.75,29.75,0,0,1-14,3.5,27.29,27.29,0,0,1-22.1-12l-0.1-.1-0.1-.1a10.35,10.35,0,0,1-1.1-2.1,20.14,20.14,0,0,1-1.1,2.1l-0.1.1-0.1.1a31.73,31.73,0,0,1-3.2,3.9,25.68,25.68,0,0,1-18.9,8.1,29.75,29.75,0,0,1-14-3.5l-0.2-.1-0.2-.1a27.17,27.17,0,0,0-7.1-3.5,25.75,25.75,0,0,0-6.1-.6,71.53,71.53,0,0,0-8,.5l-23.8,3.2,12-10.1a20.8,20.8,0,0,1-7.9-5.9,19.52,19.52,0,0,1-9.5-2.5l-0.4,15.8-12.3-20.7c-1.8-3.1-5.9-8.8-8.8-11l-0.1-.1h0a27.82,27.82,0,0,0-7-3.3l-0.2-.1-0.2-.1c-7.2-3-19-12.5-16.8-28.7a30.47,30.47,0,0,1,1-4.9l0.1-.3a12.78,12.78,0,0,1,.9-2.2,22.3,22.3,0,0,1-2.3.4h-0.3c-0.7,0-1.3.1-2,.1-1.1,0-2.1-.1-3-0.1-16.2-1.5-22.9-15.3-24.1-22.8v-0.4a27.4,27.4,0,0,0-1.7-7.7c-1.6-3.6-6.6-9-8.8-11.1l-17.4-16.7,15.5,3.1a20.3,20.3,0,0,1-.3-9.8,20.33,20.33,0,0,1-4-9L203,347.9l8.5-22.6c1.3-3.4,3.2-10.1,3.1-13.8v-0.2h0a33.39,33.39,0,0,0-1.8-7.6l-0.1-.2-0.1-.2c-2.2-7.5-2-22.7,11.9-31.1a37.74,37.74,0,0,1,4.5-2.3l0.3-.1a13.32,13.32,0,0,1,2.3-.6,21.05,21.05,0,0,1-1.8-1.6l-0.2-.2a36,36,0,0,1-3.1-4c-8.9-13.6-2.4-27.4,2.8-33.2l0.1-.2,0.2-.1a28.59,28.59,0,0,0,5-6.1c1.8-3.4,2.9-10.8,3.2-13.8l2.1-24,7.2,14.1a19.47,19.47,0,0,1,7.5-6.4,20.33,20.33,0,0,1,4.6-8.7l-15.3-3.9,22.9-7.4c3.4-1.1,9.9-3.8,12.6-6.2l0.1-.1h0a27.62,27.62,0,0,0,4.8-6.2l0.1-.2,0.1-.2c0.3-.5,8.5-11.8,22.3-11.8a27.73,27.73,0,0,1,9.3,1.7c1.5,0.6,3,1.3,4.6,2.1L321,153a11.55,11.55,0,0,1,1.9,1.4,19.27,19.27,0,0,1,.1-2.4v-0.3a38.94,38.94,0,0,1,1.2-4.9c4.5-13.6,16.7-18.6,26.6-18.6h1.3a38,38,0,0,0,4.6.3,24,24,0,0,0,3.3-.2c3.8-.7,10.2-4.4,12.8-6.1l20.1-13.3-6.5,14.4h1.2a19.2,19.2,0,0,1,8.5,1.9,19.09,19.09,0,0,1,8.4-1.9h1.2l-6.5-14.4,20.1,13.3c3,2,9.1,5.4,12.7,6.1h0.2a21.52,21.52,0,0,0,3.2.2,38,38,0,0,0,4.6-.3h1.3c9.9,0,22.1,5,26.6,18.6a32,32,0,0,1,1.2,4.9V152a17.72,17.72,0,0,1,.1,2.4c0.7-.5,1.3-1,1.9-1.4l0.3-.2a38.18,38.18,0,0,1,4.6-2.1,27.73,27.73,0,0,1,9.3-1.7c13.8,0,21.9,11.3,22.3,11.8l0.1,0.2,0.1,0.2a31.73,31.73,0,0,0,4.8,6.2c2.9,2.5,9.8,5.3,12.7,6.2l22.9,7.4-15.3,3.9a20.33,20.33,0,0,1,4.6,8.7A18.66,18.66,0,0,1,545,200l7.2-14,2.1,24c0.3,3.6,1.5,10.5,3.2,13.7l0.1,0.1h0a31.25,31.25,0,0,0,4.9,6l0.2,0.1,0.1,0.2c5.2,5.8,11.6,19.6,2.8,33.2a36,36,0,0,1-3.1,4l-0.2.2a21.06,21.06,0,0,1-1.8,1.6c1.2,0.3,2.1.5,2.3,0.6l0.3,0.1a31.68,31.68,0,0,1,4.5,2.3c13.9,8.4,14,23.6,11.9,31.1l-0.1.2-0.1.2a27.88,27.88,0,0,0-1.8,7.7c-0.1,3.9,2,11,3.1,13.8l8.5,22.6-12.6-9.5a19.27,19.27,0,0,1-4,9A21,21,0,0,1,572.2,357.2Z" transform="translate(-177.3 -87.4)"/><path class="cls-2" d="M532.1,271.4c-3.9-2-13-8.3-12.9-24.8-3.3-1.6-7.2-4.7-11-10.5l3.5-3.7a20.16,20.16,0,0,1-3.8-5,10.55,10.55,0,0,1-7.3-4,10.91,10.91,0,0,1-2.3-8.1,20.77,20.77,0,0,1-4.1-4.9l-4.4,2.6c-4.9-5-7-9.5-7.8-13.1-16-3.6-20.2-13.8-21.2-18.1a7.38,7.38,0,0,1-.2-1.2,33.42,33.42,0,0,1-.7-6.8,34,34,0,0,1-5.6,3.7,6.66,6.66,0,0,1-1.2.6,20.33,20.33,0,0,1-8.9,1.9c-4.5,0-11.1-1.4-18.4-7.3a24.38,24.38,0,0,1-11,2.3c-1.3,0-2.7-.1-4.1-0.2l-0.7-5a18.09,18.09,0,0,1-2.5.2,25.31,25.31,0,0,1-3.8-.3A10.9,10.9,0,0,1,396,173a11.24,11.24,0,0,1-7.7-3.2,24.33,24.33,0,0,1-3.8.3,16.86,16.86,0,0,1-2.5-.2l-0.7,5c-1.4.1-2.8,0.2-4.1,0.2a24.38,24.38,0,0,1-11-2.3c-7.3,5.9-13.9,7.3-18.4,7.3a21.47,21.47,0,0,1-8.9-1.9,6.66,6.66,0,0,1-1.2-.6,25.92,25.92,0,0,1-5.6-3.7,27.58,27.58,0,0,1-.7,6.8c-0.1.3-.1,0.7-0.2,1.2-1,4.3-5.2,14.5-21.2,18.1-0.8,3.6-2.9,8.1-7.8,13.1l-4.4-2.6a20.3,20.3,0,0,1-4.1,4.9,11,11,0,0,1-2.3,8.1,10.75,10.75,0,0,1-7.3,4,20.16,20.16,0,0,1-3.8,5l3.5,3.7c-3.8,5.9-7.7,9-11,10.5,0.1,16.5-8.9,22.8-12.9,24.8a9.74,9.74,0,0,1-1.1.5,31.13,31.13,0,0,1-6.5,2.2,27.75,27.75,0,0,1,4.9,4.8,8.17,8.17,0,0,1,.8.9c2.7,3.5,8.1,13.1.9,27.9,2.3,2.9,4.5,7.4,5.4,14.3l-4.7,1.8a18.87,18.87,0,0,1,1.2,6.2,11.07,11.07,0,0,1,4.9,6.8,10.21,10.21,0,0,1-1.5,8.2,23,23,0,0,1,1.6,6.1l5-.4c2.2,6.6,2.2,11.6,1.4,15.2,12.9,10.2,12.2,21.2,11.3,25.5a10.39,10.39,0,0,1-.3,1.2,34.18,34.18,0,0,1-2.3,6.4,32.91,32.91,0,0,1,6.7-.9h1.3c3.8,0,15.1,1.4,22.3,16.7h0.2c4.4,0,9.2,1.6,14.3,4.7l-1.5,4.8a21.47,21.47,0,0,1,5.6,2.9,11.48,11.48,0,0,1,3.7-.6,11.16,11.16,0,0,1,4.7,1.1,10.51,10.51,0,0,1,5.6,6.3,19.09,19.09,0,0,1,5.7,2.6l2.8-4.2c6.6,2.4,10.4,5.5,12.7,8.4a35.63,35.63,0,0,1,8.4-1c10.6,0,16.3,5.3,18.6,8.1a11.49,11.49,0,0,0,.8,1,29.23,29.23,0,0,1,3.5,5.7,29.23,29.23,0,0,1,3.5-5.7,5.77,5.77,0,0,1,.8-1c2.2-2.8,7.9-8.1,18.6-8.1a35.63,35.63,0,0,1,8.4,1c2.3-2.9,6.2-6,12.7-8.4l2.8,4.2a19.09,19.09,0,0,1,5.7-2.6,10.51,10.51,0,0,1,5.6-6.3,11.16,11.16,0,0,1,4.7-1.1,11.48,11.48,0,0,1,3.7.6,21.47,21.47,0,0,1,5.6-2.9l-1.5-4.8c5.1-3.1,9.9-4.7,14.3-4.7h0.2c7.2-15.3,18.6-16.7,22.3-16.7H505a28.53,28.53,0,0,1,6.7.9,24.2,24.2,0,0,1-2.3-6.4,10.37,10.37,0,0,1-.3-1.2c-0.9-4.3-1.6-15.3,11.3-25.5-0.9-3.6-.9-8.6,1.4-15.2l5,0.4a19.7,19.7,0,0,1,1.6-6.1,11.15,11.15,0,0,1-1.5-8.2,10.54,10.54,0,0,1,4.9-6.8,21.89,21.89,0,0,1,1.2-6.2l-4.7-1.8c0.9-6.9,3-11.4,5.4-14.3-7.2-14.8-1.8-24.4.9-27.9a8.17,8.17,0,0,1,.8-0.9,31.73,31.73,0,0,1,4.9-4.8,33.22,33.22,0,0,1-6.5-2.2A6.29,6.29,0,0,1,532.1,271.4ZM396,432.8c-69.4,0-125.7-56.4-125.7-126a125.87,125.87,0,0,1,18-65c0.4-.6.9-1.2,1.3-1.9l2.9-4.6h0a126.83,126.83,0,0,1,10.7-13.5h0l3.8-3.9c0.6-.6,1.2-1.3,1.7-1.9a126,126,0,0,1,69.9-34.1c1.1,0,2.1-.1,3.2-0.2l5.4-.6V181c2.8-.2,5.7-0.3,8.6-0.3s5.8,0.1,8.6.3v0.1l5.4,0.6c1.1,0.1,2.2.2,3.2,0.2A124.69,124.69,0,0,1,482.9,216c0.6,0.6,1.1,1.2,1.7,1.9l3.8,3.9h0a115.29,115.29,0,0,1,10.7,13.5h0l2.9,4.6a21.41,21.41,0,0,0,1.3,1.9A126.08,126.08,0,0,1,396,432.8Z" transform="translate(-177.3 -87.4)"/><path class="cls-2" d="M462.2,152.9c-3.1-18.6-21.5-17.6-21.5-17.6a33.14,33.14,0,0,1-10.1,0c-6.3-1.2-15.2-7.1-15.2-7.1,7.3,16.4,15.7,15.5,15.7,15.5-0.1,13.3,10.8,12.9,10.8,12.9-2.9-3-3.3-13.9,5.5-11.3s5.4,11,5.4,11c-3,8.6-12.6,5.7-12.6,5.7-10.6-3-15.2-14.1-15.2-14.1-4.4-10.8-17.5-23.4-29-14.3-11.5-9.1-24.6,3.5-29,14.3,0,0-4.6,11.1-15.2,14.1,0,0-9.6,2.9-12.6-5.7,0,0-3.4-8.4,5.4-11s8.4,8.3,5.5,11.3c0,0,10.9.4,10.8-12.9,0,0,8.4.9,15.7-15.5,0,0-8.9,5.9-15.2,7.1a32.84,32.84,0,0,1-10.1,0s-18.3-1.1-21.5,17.6c0,0-1.5,12.2,11.2,18.4,0,0,10.6,7.1,24.8-7.9,0,0,2.6,5.6,14.7,4.3,0,0-3-1.2-6.5-6.3,0,0-8.3-12.2,6.2-18.6,0,0,9.2-3.5,11.3,6,0,0,1.8,7-4.7,7.9,0,0-5.5,1.4-4.4-4a10.3,10.3,0,0,1,5.1-5s-11.2-2.1-11.5,6.8a8.2,8.2,0,0,0,5.5,7.8s4,1.7,10.8-1.4c0.1-.1.2-0.1,0.3-0.2a3.34,3.34,0,0,0-.3,1.5,3.71,3.71,0,0,0,7.4,0,4,4,0,0,0-.3-1.5c0.1,0.1.2,0.1,0.3,0.2,6.7,3.1,10.8,1.4,10.8,1.4a8,8,0,0,0,5.5-7.8c-0.4-8.9-11.5-6.8-11.5-6.8a10.89,10.89,0,0,1,5.1,5c1.1,5.4-4.4,4-4.4,4-6.5-1-4.7-7.9-4.7-7.9,2.1-9.4,11.3-6,11.3-6,14.5,6.5,6.2,18.6,6.2,18.6-3.5,5.1-6.5,6.3-6.5,6.3,12.1,1.2,14.7-4.3,14.7-4.3,14.3,15,24.8,7.9,24.8,7.9C463.6,165.1,462.2,152.9,462.2,152.9Z" transform="translate(-177.3 -87.4)"/><path class="cls-2" d="M317.1,159c-16.5-9.2-27.1,5.9-27.1,5.9a34.35,34.35,0,0,1-6.3,7.9c-4.9,4.2-15,7.5-15,7.5,17.3,4.5,21.9-2.7,21.9-2.7,10.3,8.4,16.7-.4,16.7-0.4-4.1.4-12.9-6.1-5.4-11.4s11.9,2.6,11.9,2.6c4.8,7.7-3.4,13.4-3.4,13.4-8.9,6.4-20.5,3.1-20.5,3.1-11.1-3.3-29.1-.9-29.2,13.8-14.3,3.3-12.6,21.5-6.9,31.6,0,0,5.8,10.6,1.5,20.7,0,0-3.7,9.3-12.3,6.3,0,0-8.6-2.6-5.2-11.1s11.8-1.4,12.3,2.7c0,0,7.1-8.3-3.3-16.5,0,0,5.9-6-2.3-22,0,0-1,10.7-4,16.4a36.18,36.18,0,0,1-6.3,7.9s-12.3,13.7.3,27.8c0,0,8.6,8.7,21.3,2.7,0,0,12.1-3.9,9.4-24.4,0,0,6,1.5,12.5-8.8,0,0-2.8,1.6-8.9,1.1,0,0-14.7-1.1-10.7-16.5,0,0,3-9.3,11.7-5.1,0,0,6.5,3,3.2,8.7,0,0-2.3,5.2-5.8,1a10.74,10.74,0,0,1-.7-7.1s-8.6,7.4-1.9,13.3a8,8,0,0,0,9.5.5s3.8-2.1,5.6-9.3a2.27,2.27,0,0,0,.1-0.4,3.13,3.13,0,0,0,.9,1.1,3.76,3.76,0,0,0,5.1-.7,3.62,3.62,0,0,0-.4-5.1,3.29,3.29,0,0,0-1.3-.7c0.1,0,.2-0.1.3-0.1,6.6-3.4,7.8-7.5,7.8-7.5a8,8,0,0,0-2.6-9.2c-7.2-5.2-12.5,4.8-12.5,4.8a10,10,0,0,1,7-.9c4.9,2.5.3,5.9,0.3,5.9-4.8,4.5-9.1-1.2-9.1-1.2-6.1-7.5,2.4-12.6,2.4-12.6,14.1-7.3,18.4,6.8,18.4,6.8,1.8,5.9.9,9,.9,9,8.5-8.7,5.8-14.2,5.8-14.2,20.6-1.9,21.6-14.6,21.6-14.6A18.45,18.45,0,0,0,317.1,159Z" transform="translate(-177.3 -87.4)"/><path class="cls-2" d="M231.5,276.5c-17.4,7.2-12.3,24.9-12.3,24.9a32.16,32.16,0,0,1,2.2,9.8c0.2,6.5-3.5,16.5-3.5,16.5,14.3-10.8,11.6-18.8,11.6-18.8,12.9-2.8,10.1-13.4,10.1-13.4-2.2,3.5-12.8,6.3-12.2-2.9s9.5-7.7,9.5-7.7c9,1,8.3,11.1,8.3,11.1-0.6,11-10.3,18-10.3,18-9.5,6.7-18.8,22.3-7.4,31.5-6.3,13.2,8.9,23.3,20.3,25.2,0,0,11.8,2.1,17.1,11.7,0,0,5,8.8-2.7,13.6,0,0-7.4,5.2-11.9-2.8s6.2-10.1,9.7-7.9c0,0-2-10.8-14.9-7.7,0,0-1-8.4-18.6-11.9,0,0,7.7,7.4,10.3,13.3a32.09,32.09,0,0,1,2.2,9.8s3.1,18.2,21.9,17.1c0,0,12.2-1.3,15.4-15.1,0,0,4.6-11.9-13.2-22.5,0,0,4.9-3.8.9-15.3,0,0-.5,3.2-4.7,7.7,0,0-10,10.9-19.5-1.9,0,0-5.4-8.2,3.3-12.3,0,0,6.4-3.3,8.8,2.9,0,0,2.6,5.1-2.9,5.2a10.1,10.1,0,0,1-6-3.9s0.5,11.4,9.2,9.8a8.21,8.21,0,0,0,6.4-7.2s0.7-4.3-3.8-10.2a0.53,0.53,0,0,1-.2-0.3,3.79,3.79,0,0,0,1.5,0,3.74,3.74,0,0,0,2.6-4.4,3.6,3.6,0,0,0-4.2-2.9,2.62,2.62,0,0,0-1.3.6,2.27,2.27,0,0,0,.1-0.4c1.5-7.3-1-10.8-1-10.8a8.19,8.19,0,0,0-8.8-3.7c-8.6,2.3-4.1,12.8-4.1,12.8a10.32,10.32,0,0,1,3.7-6.1c5-2.3,4.8,3.4,4.8,3.4,0.5,6.6-6.7,6.4-6.7,6.4-9.6.1-8.3-9.7-8.3-9.7,3-15.6,16.7-10.2,16.7-10.2,5.7,2.3,7.6,4.9,7.6,4.9-1.5-12.1-7.5-13.4-7.5-13.4,11.4-17.3,2.1-26,2.1-26C243,272.4,231.5,276.5,231.5,276.5Z" transform="translate(-177.3 -87.4)"/><path class="cls-2" d="M269.7,416.9c-5.2,18.2,11.8,25.2,11.8,25.2a34.7,34.7,0,0,1,9.1,4.4c5.2,3.8,10.7,13,10.7,13,0.5-17.9-7.5-20.8-7.5-20.8,5.9-11.9-4.1-16.3-4.1-16.3,1.3,3.9-3.1,13.9-9.9,7.8s-0.1-12.3-.1-12.3c6.4-6.4,13.8.4,13.8,0.4,8.2,7.3,7.6,19.3,7.6,19.3-0.7,11.6,5.7,28.7,19.9,25.4,6.4,13.2,23.7,7.5,32.3-.2,0,0,9-8,19.8-6.1,0,0,9.9,1.6,8.9,10.6,0,0-.6,9-9.6,7.6s-4-11.2-.1-12.6c0,0-9.6-5.1-15.3,6.9,0,0-7.2-4.4-20.9,7.1,0,0,10.6-1.4,16.8.2a34.84,34.84,0,0,1,9.1,4.4s16.1,8.9,27-6.5c0,0,6.6-10.3-2.2-21.4,0,0-6.4-11-25.8-3.7,0,0,.1-6.1-11.4-10.3,0,0,2.2,2.4,3.1,8.5,0,0,2.2,14.6-13.6,14.1,0,0-9.8-.9-7.6-10.3,0,0,1.4-7.1,7.7-5.1,0,0,5.6,1.1,2.3,5.5a10.44,10.44,0,0,1-6.7,2.3s9.2,6.7,13.3-1.1a8.15,8.15,0,0,0-1.6-9.4s-2.9-3.2-10.3-3.4h-0.4a2.73,2.73,0,0,0,.9-1.2,3.73,3.73,0,1,0-7.1-1.9c-0.1-.1-0.1-0.2-0.2-0.3-4.7-5.7-9.1-6-9.1-6a8.19,8.19,0,0,0-8.4,4.6c-3.5,8.2,7.4,11.2,7.4,11.2a10.34,10.34,0,0,1-2.4-6.7c1.3-5.3,5.7-1.6,5.7-1.6,5.4,3.7.8,9.2,0.8,9.2-6,7.6-12.7.5-12.7,0.5-10.3-12.1,2.5-19.5,2.5-19.5,5.3-3.1,8.5-2.9,8.5-2.9-10.4-6.4-15.1-2.5-15.1-2.5-6.4-19.7-19-17.9-19-17.9C273.6,405.3,269.7,416.9,269.7,416.9Z" transform="translate(-177.3 -87.4)"/><path class="cls-2" d="M403,474.5c10.9,15.4,27,6.5,27,6.5a34.84,34.84,0,0,1,9.1-4.4c6.2-1.7,16.8-.2,16.8-0.2-13.7-11.6-20.9-7.1-20.9-7.1-5.6-12-15.3-6.9-15.3-6.9,3.9,1.4,8.9,11.1-.1,12.6s-9.6-7.6-9.6-7.6c-1-9,8.9-10.6,8.9-10.6,10.8-1.9,19.8,6.1,19.8,6.1,8.6,7.8,25.9,13.4,32.3.2,14.3,3.2,20.6-13.8,19.9-25.4,0,0-.6-12,7.6-19.3,0,0,7.4-6.8,13.8-.4,0,0,6.7,6.1-.1,12.3s-11.2-3.8-9.9-7.8c0,0-10,4.4-4.1,16.3,0,0-7.9,2.9-7.5,20.8,0,0,5.5-9.2,10.7-13a32.59,32.59,0,0,1,9.1-4.4s17-7,11.8-25.2c0,0-3.9-11.6-18.1-11.7,0,0-12.6-1.8-19,17.9,0,0-4.7-3.9-15.1,2.5,0,0,3.2-.2,8.5,2.9,0,0,12.8,7.3,2.5,19.5,0,0-6.8,7.1-12.7-.5,0,0-4.6-5.5.8-9.2,0,0,4.4-3.7,5.7,1.6a10.34,10.34,0,0,1-2.4,6.7s11-3,7.4-11.1a8.07,8.07,0,0,0-8.4-4.6s-4.3.3-9.1,6c-0.1.1-.1,0.2-0.2,0.3a2.3,2.3,0,0,0-.4-1.4,3.74,3.74,0,0,0-6.7,3.3,2.73,2.73,0,0,0,.9,1.2h-0.4c-7.4.2-10.3,3.4-10.3,3.4a8.15,8.15,0,0,0-1.6,9.4c4.2,7.8,13.3,1.1,13.3,1.1a9.83,9.83,0,0,1-6.7-2.3c-3.3-4.4,2.3-5.5,2.3-5.5,6.3-2,7.7,5.1,7.7,5.1,2.2,9.4-7.6,10.3-7.6,10.3-15.9.5-13.6-14.1-13.6-14.1,0.9-6.1,3.1-8.5,3.1-8.5-11.4,4.1-11.4,10.3-11.4,10.3-19.3-7.3-25.8,3.7-25.8,3.7C396.4,464.2,403,474.5,403,474.5Z" transform="translate(-177.3 -87.4)"/><path class="cls-2" d="M531,406c18.8,1.1,21.9-17.1,21.9-17.1a34.94,34.94,0,0,1,2.2-9.8c2.6-5.9,10.3-13.3,10.3-13.3-17.5,3.5-18.6,11.9-18.6,11.9-12.9-3.1-14.9,7.7-14.9,7.7,3.5-2.2,14.2-.1,9.7,7.9s-11.9,2.8-11.9,2.8c-7.7-4.8-2.7-13.6-2.7-13.6,5.3-9.7,17.1-11.7,17.1-11.7,11.4-1.9,26.6-11.9,20.3-25.2,11.4-9.2,2.1-24.8-7.4-31.5,0,0-9.8-7-10.3-18,0,0-.7-10,8.3-11.1,0,0,8.9-1.4,9.5,7.7s-10,6.4-12.2,2.9c0,0-2.8,10.6,10.1,13.4,0,0-2.7,8,11.6,18.8,0,0-3.8-10-3.5-16.5a36.57,36.57,0,0,1,2.2-9.8s5.1-17.7-12.3-24.9c0,0-11.5-4.2-20.4,6.9,0,0-9.3,8.7,2.1,26,0,0-6,1.3-7.5,13.4,0,0,1.9-2.6,7.6-4.9,0,0,13.7-5.4,16.7,10.2,0,0,1.3,9.7-8.3,9.7,0,0-7.2.2-6.7-6.4,0,0-.2-5.7,4.8-3.4a10.32,10.32,0,0,1,3.7,6.1s4.5-10.4-4.1-12.8a8,8,0,0,0-8.8,3.7s-2.5,3.6-1,10.8a2.27,2.27,0,0,1,.1.4,3.1,3.1,0,0,0-1.3-.6,3.6,3.6,0,0,0-4.2,2.9,3.69,3.69,0,0,0,2.6,4.4,3.79,3.79,0,0,0,1.5,0,0.53,0.53,0,0,0-.2.3c-4.5,5.9-3.8,10.2-3.8,10.2a8.25,8.25,0,0,0,6.4,7.2c8.7,1.6,9.2-9.8,9.2-9.8a10.75,10.75,0,0,1-6,3.9c-5.5-.1-2.9-5.2-2.9-5.2,2.4-6.1,8.8-2.9,8.8-2.9,8.7,4.1,3.3,12.3,3.3,12.3-9.5,12.7-19.5,1.9-19.5,1.9-4.2-4.5-4.7-7.7-4.7-7.7-3.9,11.6.9,15.3,0.9,15.3C511,379.1,515.5,391,515.5,391,518.8,404.7,531,406,531,406Z" transform="translate(-177.3 -87.4)"/><path class="cls-2" d="M557.3,262.8c12.6-14.1.3-27.8,0.3-27.8a36.19,36.19,0,0,1-6.3-7.9c-3-5.7-4-16.4-4-16.4-8.2,16-2.3,22-2.3,22-10.4,8.2-3.3,16.5-3.3,16.5,0.5-4.1,8.8-11.2,12.2-2.7s-5.2,11.1-5.2,11.1c-8.6,3-12.3-6.3-12.3-6.3-4.3-10.2,1.5-20.7,1.5-20.7,5.7-10.1,7.3-28.3-6.9-31.6,0-14.7-18.1-17.1-29.2-13.8,0,0-11.6,3.3-20.5-3.1,0,0-8.3-5.7-3.4-13.4,0,0,4.4-7.9,11.9-2.6s-1.2,11.8-5.4,11.4c0,0,6.5,8.8,16.7.4,0,0,4.5,7.1,21.9,2.7,0,0-10.2-3.3-15-7.5a34.35,34.35,0,0,1-6.3-7.9s-10.6-15-27.1-5.9c0,0-10.4,6.4-7.3,20.2,0,0,1,12.7,21.6,14.6,0,0-2.7,5.5,5.8,14.2,0,0-.9-3.1.9-9,0,0,4.3-14.1,18.4-6.8,0,0,8.4,5,2.4,12.6,0,0-4.3,5.7-9.1,1.2,0,0-4.6-3.4.3-5.9a10,10,0,0,1,7,.9s-5.3-10-12.5-4.8a8.13,8.13,0,0,0-2.6,9.2s1.2,4.2,7.8,7.5a0.37,0.37,0,0,0,.3.1,2.39,2.39,0,0,0-1.3.7,3.63,3.63,0,0,0-.4,5.1,3.67,3.67,0,0,0,5.1.7,3.13,3.13,0,0,0,.9-1.1,0.76,0.76,0,0,0,.1.4c1.8,7.2,5.6,9.3,5.6,9.3a8.09,8.09,0,0,0,9.5-.5c6.7-5.8-1.9-13.3-1.9-13.3a10.74,10.74,0,0,1-.7,7.1c-3.5,4.2-5.8-1-5.8-1-3.3-5.7,3.2-8.7,3.2-8.7,8.7-4.3,11.7,5.1,11.7,5.1,4,15.4-10.7,16.5-10.7,16.5-6.1.4-8.9-1.1-8.9-1.1,6.6,10.3,12.5,8.8,12.5,8.8-2.8,20.5,9.4,24.4,9.4,24.4C548.8,271.6,557.3,262.8,557.3,262.8Z" transform="translate(-177.3 -87.4)"/><path class="cls-2" d="M396,187.3c-65.8,0-119.1,53.5-119.1,119.5S330.2,426.2,396,426.2s119.1-53.5,119.1-119.5S461.8,187.3,396,187.3ZM506.6,290c-8.4,5-21.8,10.7-24,10.8a87.26,87.26,0,0,0,22.3-21.3C505.6,282.9,506.2,286.4,506.6,290Zm-4.1-24.2c-5.3,10.9-13.6,30.6-29.7,30.3-1.2,0-3.7-.8-6.5.1a11.44,11.44,0,0,0-6.3,4.9c-1.2,2.2-1,5.3-.3,7.8a10.54,10.54,0,0,1-2.7-7.8,13.91,13.91,0,0,1,2.3-7.1,8.61,8.61,0,0,1,3-2.7c-3.5-8.8,8.9-24.2,19.6-12.1,0,0-7.9-2.6-11.1,2.8-3.3,5.7,2.1,10.3,10.6,7.2,5.6-2.1,15.9-13.9,16.1-34A102.5,102.5,0,0,1,502.5,265.8Zm-16.8-29.6c2.3,3.7,4.5,7.6,6.5,11.6-5.4,11.1-14.1,21.6-14.1,21.6A83.93,83.93,0,0,0,485.7,236.2Zm-11.9-13.3a79.51,79.51,0,0,1-.1,20.1,300.57,300.57,0,0,0-15.2-32.6A108.37,108.37,0,0,1,473.8,222.9Zm-69.5,45.7s5.6,18,28.5,16.7,30.8-27.9,26.3-40.4c-3.3-9.1-18.7-28.9-25.3-47.2,1.2,0.4,2.5.9,3.7,1.4a128.73,128.73,0,0,0,16.7,24.6c23.8,28.3,8.8,65.9-19.3,66.8S403.9,276.3,404.3,268.6Zm-2.1,71.2s3.8,0.8,2.8-3.2a7.63,7.63,0,0,0-3.5-3.4s6.9-2.2,7.9,4.3a5.88,5.88,0,0,1-3.2,6.2s-2.8,1.6-7.6-.6a0.35,0.35,0,0,1-.2-0.1,3.59,3.59,0,0,1,.2,1.1,2.6,2.6,0,1,1-5.2,0,4.25,4.25,0,0,1,.2-1.1,0.35,0.35,0,0,0-.2.1c-4.8,2.2-7.6.6-7.6,0.6a5.88,5.88,0,0,1-3.2-6.2c1-6.5,7.9-4.3,7.9-4.3a7.63,7.63,0,0,0-3.5,3.4c-1,3.9,2.8,3.2,2.8,3.2,4.4-.4,3.4-5.7,3.4-5.7-1.2-7-6.9-4.9-6.9-4.9-3.1,1.3-4.1,3.8-5.3,6-0.7,1.2-1.7,2.7-3.4,2.7H364.7c13.7-4,14-12.4,21.9-16.4a7.39,7.39,0,0,1,9.5,1.4,7.39,7.39,0,0,1,9.5-1.4c7.9,4.1,8.2,12.4,21.9,16.4H414.6c-1.6-.1-2.6-1.6-3.4-2.7-1.2-2.2-2.2-4.7-5.3-6,0,0-5.7-2.1-6.9,4.9C398.9,334,397.8,339.3,402.2,339.8Zm-2.3,15.6a4,4,0,1,1-4-4A4,4,0,0,1,399.9,355.4Zm-11.4-56.9,7.6-16.4,7.3,16.4-7.3,16.4Zm7.5-57.3s14.2,12,4.3,24.6a5.8,5.8,0,0,1-4.3,2.1,5.33,5.33,0,0,1-4.3-2.1C381.7,253.2,396,241.2,396,241.2Zm-41.4-42.1c1.2-.5,2.4-0.9,3.6-1.4-6.5,18.4-22.1,38.3-25.4,47.5-4.5,12.5,3.4,39.1,26.3,40.4s28.5-16.7,28.5-16.7c0.4,7.7-2.6,22.8-30.6,21.9s-43-38.4-19.3-66.8C345.9,214.2,351.2,205.9,354.6,199.1Zm-36.4,23.8a104.1,104.1,0,0,1,15.5-12.6c-8.3,14.7-15.4,33.1-15.4,33.1A78,78,0,0,1,318.2,222.9ZM307.5,235a80.26,80.26,0,0,0,7.7,33.1s-8.7-10.5-14.1-21.6A116.64,116.64,0,0,1,307.5,235Zm-11.9,19c0.2,20.1,10.4,32,16.1,34,8.5,3.1,13.9-1.5,10.6-7.2-3.2-5.5-11.1-2.8-11.1-2.8,10.7-12.1,23.1,3.3,19.6,12.1a9.72,9.72,0,0,1,3,2.7,14.92,14.92,0,0,1,2.3,7.1,10.54,10.54,0,0,1-2.7,7.8c0.7-2.5.9-5.6-.3-7.8a11.44,11.44,0,0,0-6.3-4.9c-2.8-.9-5.3-0.1-6.5-0.1-16.1.3-24.4-19.4-29.7-30.3A114.72,114.72,0,0,1,295.6,254ZM287,279.7a88.73,88.73,0,0,0,22.3,21.4c-2.2-.2-15.6-5.9-24-10.8A86.89,86.89,0,0,1,287,279.7Zm-2,33c-0.3-3.2-.4-6.5-0.4-9.8v-2.6c16.5,7.3,40.5,11.9,40.5,11.9S291.6,312.8,285,312.7Zm25.1,18.6c-4.5,0-19.7-10.3-19.7-10.3l60.6,3.4S314.6,331.3,310.1,331.3Zm61.2-15.5a12.89,12.89,0,0,0,1-7.5c-0.4-2.5-1.6-7.1-8-8.9,0,0-7.7-2.5-11.5,3.2s6.3,8.6,9.6,7.1c0,0-2.3,8.7-14.5,4.2,0,0-1.6,6.9-18.5,5,0,0,8-3.5,10.7-7.5,0,0,1.7-2.2,2.2-6.9,0,0,1.5-12.5,19.4-11.2,0,0,12.3.7,16.4,12.4a12.91,12.91,0,0,1,.5,5.5c-2.1,17.3-22.5,25.9-22.5,25.9-7.7,1-27-2.9-27-2.9C362.5,328.8,366.8,325.1,371.3,315.8ZM360.1,417.3a127.5,127.5,0,0,1-12.1-4.9c42.5-12.1,36.1-41.9,36.1-41.9C390.2,388.1,372.6,406.8,360.1,417.3Zm7.6,2.3c17.4-17.2,21.8-36.9,22.2-45.5a22,22,0,0,0-6.5-15.8s-4.2-4.5-9.2-4.5c0,0-4.6.1-4.6,4.7,0,0-.2,4.4,3.6,4.4s2.5-5.2.9-6.2c0,0,4.7-1.6,5.8,5,0,0,3.7-1.3,7.2,6.5,0,0-3.8-2.4-6.4-2.4a8.44,8.44,0,0,0-3.9,1.1s-7.3,3.3-11.4-4.8a9.36,9.36,0,0,1,1.6-10.9c5.3-4.5,9.7-3,14.1.3a25.23,25.23,0,0,1,5.6,5.8,22,22,0,0,1,4,9c3.2,17.4-7.5,41.7-14.1,55.4C373.7,421,370.7,420.3,367.7,419.6Zm28.2,3.6c-2.8,0-5.7-.1-8.5-0.3,2.3-6.8,5.1-17.5,7.4-33.7l1.2-18.3h0l1.2,18.4c2.3,15.7,5,27,7.3,33.5A83.79,83.79,0,0,1,395.9,423.2Zm19.4-1.7c-6.5-13.7-17.3-38-14.1-55.4a22,22,0,0,1,4-9,25.23,25.23,0,0,1,5.6-5.8c4.4-3.2,8.8-4.7,14.1-.3a9.36,9.36,0,0,1,1.6,10.9c-4.1,8.1-11.4,4.8-11.4,4.8a10.43,10.43,0,0,0-3.9-1.1c-2.6,0-6.4,2.4-6.4,2.4,3.5-7.8,7.2-6.5,7.2-6.5,1-6.6,5.8-5,5.8-5-1.6,1-2.8,6.2.9,6.2s3.6-4.4,3.6-4.4c0-4.6-4.6-4.7-4.6-4.7-5,0-9.2,4.5-9.2,4.5a21.62,21.62,0,0,0-6.5,15.8c0.4,8.6,4.8,28.3,22.2,45.5A88.57,88.57,0,0,1,415.3,421.5Zm16.6-4.3c-12.5-10.5-30.1-29.2-24-46.9,0,0-6.4,29.8,36.1,41.9A96.51,96.51,0,0,1,431.9,417.2Zm3.9-79.9s-20.3-8.6-22.5-25.9a15.09,15.09,0,0,1,.5-5.5c4.1-11.7,16.4-12.4,16.4-12.4,17.9-1.3,19.4,11.2,19.4,11.2,0.5,4.7,2.2,6.9,2.2,6.9,2.6,3.9,10.7,7.5,10.7,7.5-16.9,1.9-18.5-5-18.5-5-12.2,4.5-14.5-4.2-14.5-4.2,3.4,1.5,13.5-1.4,9.6-7.1s-11.5-3.2-11.5-3.2c-6.4,1.8-7.6,6.4-8,8.9a12.89,12.89,0,0,0,1,7.5c4.5,9.3,8.8,13,42.2,18.6C462.8,334.4,443.5,338.3,435.8,337.3Zm46-6.3c-4.5,0-40.9-6.9-40.9-6.9l60.6-3.4S486.3,331,481.8,331Zm-15-19.1s24-4.6,40.5-11.9v2.8c0,3.2-.1,6.4-0.4,9.6C500.4,312.6,466.8,311.9,466.8,311.9Z" transform="translate(-177.3 -87.4)"/></svg>