<svg id="Слой_1" data-name="Слой 1" xmlns="http://www.w3.org/2000/svg" viewBox="0 0 98.01 98.01"><defs><style>.cls-1,.cls-3{fill:#fff;}.cls-2{opacity:0.5;}.cls-3{opacity:0.05;isolation:isolate;}.cls-4{fill:none;stroke:#fff;stroke-miterlimit:10;}.cls-5{fill:#e7d780;}</style></defs><title>compass-side-b</title><path class="cls-1" d="M43.15,86.29A43.15,43.15,0,1,1,86.29,43.13v0h0A43.19,43.19,0,0,1,43.15,86.29Zm0-85.39A42.24,42.24,0,1,0,85.39,43.15,42.24,42.24,0,0,0,43.15.9h0Z" transform="translate(0.01 0.01)"/><g class="cls-2"><rect class="cls-1" x="42.7" y="15.91" width="0.91" height="54.5"/></g><g class="cls-2"><rect class="cls-1" x="15.91" y="42.7" width="54.5" height="0.91"/></g><circle class="cls-3" cx="43.16" cy="43.16" r="15.9"/><line class="cls-4" x1="43.16" y1="37.25" x2="43.16" y2="49.06"/><line class="cls-4" x1="49.06" y1="43.16" x2="37.25" y2="43.16"/><path class="cls-1" d="M39.66,9.07a3.86,3.86,0,0,1,3.76-3.95h0.17a4,4,0,0,1,3,1.19l-0.86,1A3,3,0,0,0,43.6,6.4,2.57,2.57,0,0,0,41.08,9h0v0.1a2.58,2.58,0,0,0,2.43,2.72H43.6a3,3,0,0,0,2.19-1l0.86,0.91a3.94,3.94,0,0,1-3.09,1.35,3.84,3.84,0,0,1-3.88-3.79A0.64,0.64,0,0,1,39.66,9.07Z" transform="translate(0.01 0.01)"/><path class="cls-1" d="M40.79,78.25H39.54v3.24H38.2V73.86h1.34v3.19H40.8a3.63,3.63,0,0,1,3.63-3.32,4,4,0,0,1,0,7.89A3.63,3.63,0,0,1,40.79,78.25Zm5.93-.58A2.48,2.48,0,0,0,44.51,75h-0.1a2.45,2.45,0,0,0-2.29,2.6s0,0.08,0,.12a2.49,2.49,0,0,0,2.23,2.72h0.06a2.43,2.43,0,0,0,2.31-2.54q0-.08,0-0.17h0V77.67Z" transform="translate(0.01 0.01)"/><path class="cls-1" d="M11.64,41.25a1.81,1.81,0,0,1-1.3,1.81,1.87,1.87,0,0,1,1.49,1.81c0,1.26-1.1,2.23-2.8,2.23a4.37,4.37,0,0,1-3.3-1.25L6.45,45A3.52,3.52,0,0,0,9,46a1.31,1.31,0,0,0,1.48-1.1h0c0-.79-0.75-1.11-1.74-1.11H7.89V42.56H8.75c1,0,1.57-.39,1.57-1.11A1.23,1.23,0,0,0,9,40.37H8.88a2.89,2.89,0,0,0-2.13.85L6,40.33a4,4,0,0,1,3-1.16C10.54,39.21,11.64,40.06,11.64,41.25Z" transform="translate(0.01 0.01)"/><path class="cls-1" d="M75.29,39.34h3.42a2.72,2.72,0,0,1,2,.67,1.72,1.72,0,0,1,.51,1.29,1.81,1.81,0,0,1-1.1,1.7,1.88,1.88,0,0,1,1.52,1.87c0,1.36-1.13,2.1-2.82,2.1H75.29V39.34Zm3.15,3.21c0.86,0,1.43-.34,1.43-1s-0.48-1-1.34-1H76.61v2h1.82v0Zm0.39,3.22c0.91,0,1.47-.36,1.47-1.07s-0.51-1-1.56-1H76.61v2.1h2.22v0Z" transform="translate(0.01 0.01)"/><path class="cls-5" d="M98,43.15H94.37A51.22,51.22,0,0,1,43.15,94.37h0V98A54.92,54.92,0,0,0,98,43.15Z" transform="translate(0.01 0.01)"/></svg>