<svg id="Слой_1" data-name="Слой 1" xmlns="http://www.w3.org/2000/svg" viewBox="0 0 98 98"><defs><style>.cls-1,.cls-3{fill:#fff;}.cls-2{opacity:0.5;}.cls-3{opacity:0.05;isolation:isolate;}.cls-4{fill:none;stroke:#fff;stroke-miterlimit:10;}.cls-5{fill:#e7d780;}</style></defs><title>compass-side-a</title><path class="cls-1" d="M54.85,98A43.15,43.15,0,1,1,98,54.85h0A43.19,43.19,0,0,1,54.85,98Zm0-85.39A42.24,42.24,0,1,0,97.09,54.85,42.24,42.24,0,0,0,54.85,12.61Z"/><g class="cls-2"><rect class="cls-1" x="54.4" y="27.6" width="0.91" height="54.5"/></g><g class="cls-2"><rect class="cls-1" x="27.6" y="54.4" width="54.5" height="0.91"/></g><circle class="cls-3" cx="54.85" cy="54.85" r="15.9"/><line class="cls-4" x1="54.85" y1="48.95" x2="54.85" y2="60.76"/><line class="cls-4" x1="60.76" y1="54.85" x2="48.95" y2="54.85"/><path class="cls-1" d="M51.37,20.78a3.86,3.86,0,0,1,3.76-3.95H55.3a4,4,0,0,1,3,1.19l-0.86,1a3,3,0,0,0-2.13-.91,2.57,2.57,0,0,0-2.52,2.62s0,0.07,0,.1a2.58,2.58,0,0,0,2.43,2.72h0.09a3,3,0,0,0,2.19-1l0.86,0.91a3.94,3.94,0,0,1-3.09,1.35,3.84,3.84,0,0,1-3.88-3.79Q51.36,20.92,51.37,20.78Z"/><path class="cls-1" d="M52.49,90H51.24v3.24H49.91V85.57h1.34v3.19h1.26a3.63,3.63,0,0,1,3.63-3.32,4,4,0,0,1,0,7.89A3.63,3.63,0,0,1,52.49,90Zm5.93-.58a2.48,2.48,0,0,0-2.22-2.71h-0.1a2.45,2.45,0,0,0-2.28,2.72,2.49,2.49,0,0,0,2.23,2.72h0.06a2.43,2.43,0,0,0,2.3-2.71h0Z"/><path class="cls-1" d="M23.35,53A1.81,1.81,0,0,1,22,54.77a1.87,1.87,0,0,1,1.49,1.81c0,1.26-1.1,2.23-2.8,2.23a4.37,4.37,0,0,1-3.3-1.25l0.73-.91a3.52,3.52,0,0,0,2.54,1,1.31,1.31,0,0,0,1.48-1.1v0c0-.79-0.75-1.11-1.74-1.11H19.6V54.26h0.85c1,0,1.57-.39,1.57-1.11a1.23,1.23,0,0,0-1.35-1.08H20.59a2.89,2.89,0,0,0-2.13.85L17.74,52a4,4,0,0,1,2.94-1.15C22.25,50.91,23.35,51.77,23.35,53Z"/><path class="cls-1" d="M87,51h3.42a2.72,2.72,0,0,1,2,.67A1.72,1.72,0,0,1,92.92,53a1.81,1.81,0,0,1-1.09,1.7,1.88,1.88,0,0,1,1.52,1.87c0,1.36-1.13,2.1-2.82,2.1H87V51Zm3.15,3.21c0.86,0,1.43-.34,1.43-1.05s-0.48-1-1.34-1H88.32v2h1.82Zm0.39,3.22c0.91,0,1.47-.36,1.47-1.07s-0.51-1.05-1.56-1.05H88.32v2.1h2.22v0Z"/><path class="cls-5" d="M0,54.85H3.63A51.22,51.22,0,0,1,54.85,3.63h0V0A54.92,54.92,0,0,0,0,54.85Z"/></svg>