<?xml version="1.0" encoding="utf-8"?>
<!-- Generator: Adobe Illustrator 19.0.0, SVG Export Plug-In . SVG Version: 6.00 Build 0)  -->
<svg version="1.1" id="Layer_1" xmlns="http://www.w3.org/2000/svg" xmlns:xlink="http://www.w3.org/1999/xlink" x="0px" y="0px"
	 viewBox="-355.8 430.25 106 102" enable-background="new -355.8 430.25 106 102" xml:space="preserve">
<g>
	<g id="XMLID_98_">
		<path id="XMLID_99_" fill="#E9D877" d="M-251.867,452.755l-19.734-20.552c-1.316-1.332-3.007-1.903-4.699-1.903h-69.539
			c-5.45,0-9.961,4.567-9.961,10.276v81.448c0,5.709,4.511,10.276,9.961,10.276h86.078c5.45,0,9.961-4.567,9.961-10.276v-64.511
			C-249.8,455.61-250.552,453.897-251.867,452.755z M-256.378,522.024c0,1.903-1.504,3.425-3.383,3.425h-86.078
			c-1.879,0-3.383-1.522-3.383-3.425v-81.448c0-1.903,1.504-3.425,3.383-3.425h66.156v13.511l0,0c0,5.709,4.511,10.276,9.961,10.276
			h13.344C-256.378,460.938-256.378,522.024-256.378,522.024z M-269.722,457.513c-3.571,0-6.578-3.045-6.578-6.851l0,0v-13.511
			l19.922,20.362C-256.378,457.513-269.722,457.513-269.722,457.513z M-304.491,454.087h16.539c0.94,0,1.691-0.761,1.691-1.713
			c0-0.952-0.752-1.713-1.691-1.713h-16.539c-0.94,0-1.691,0.761-1.691,1.713C-306.183,453.326-305.431,454.087-304.491,454.087z
			 M-304.491,464.173h16.539c0.94,0,1.691-0.761,1.691-1.713c0-0.952-0.752-1.713-1.691-1.713h-16.539
			c-0.94,0-1.691,0.761-1.691,1.713C-306.183,463.412-305.431,464.173-304.491,464.173z M-306.183,472.737
			c0,0.951,0.752,1.713,1.691,1.713h39.656c0.94,0,1.691-0.761,1.691-1.713c0-0.952-0.752-1.713-1.691-1.713h-39.656
			C-305.431,471.024-306.183,471.785-306.183,472.737z M-264.835,491.386h-76.117c-0.94,0-1.691,0.761-1.691,1.713
			c0,0.951,0.752,1.713,1.691,1.713h76.117c0.94,0,1.691-0.761,1.691-1.713C-263.144,492.147-263.896,491.386-264.835,491.386z
			 M-264.835,501.662h-76.117c-0.94,0-1.691,0.761-1.691,1.713c0,0.951,0.752,1.713,1.691,1.713h76.117
			c0.94,0,1.691-0.761,1.691-1.713C-263.144,502.423-263.896,501.662-264.835,501.662z M-264.835,511.748h-76.117
			c-0.94,0-1.691,0.761-1.691,1.713s0.752,1.713,1.691,1.713h76.117c0.94,0,1.691-0.761,1.691-1.713
			S-263.896,511.748-264.835,511.748z M-264.835,481.3h-76.117c-0.94,0-1.691,0.761-1.691,1.713c0,0.951,0.752,1.713,1.691,1.713
			h76.117c0.94,0,1.691-0.761,1.691-1.713C-263.144,482.061-263.896,481.3-264.835,481.3z M-339.261,474.449h23.117
			c1.879,0,3.383-1.522,3.383-3.425v-20.362c0-1.903-1.504-3.425-3.383-3.425h-23.117c-1.879,0-3.383,1.522-3.383,3.425v20.362
			C-342.644,472.927-341.14,474.449-339.261,474.449z M-335.878,454.087h16.539v13.511h-16.539
			C-335.878,467.599-335.878,454.087-335.878,454.087z"/>
	</g>
</g>
</svg>
