<svg id="Layer_1" data-name="Layer 1" xmlns="http://www.w3.org/2000/svg" viewBox="0 0 91 102"><defs><style>.cls-1{fill:#fff;}</style></defs><title>footer-logo</title><path class="cls-1" d="M78.71,42.33l-1.46-3.86a7.39,7.39,0,0,1-.46-1.89,4.35,4.35,0,0,1,.25-1l0-.07,0-.07a5.88,5.88,0,0,0-2.48-6.63,5.87,5.87,0,0,0-.66-7l0-.05-0.05-.05a4.46,4.46,0,0,1-.64-0.76h0a7.06,7.06,0,0,1-.42-1.9l-0.37-4.11-0.13-1.45L70.89,13l-4-1.27a7.48,7.48,0,0,1-1.77-.82,4.38,4.38,0,0,1-.61-0.8l0-.06,0-.06a6.25,6.25,0,0,0-4.84-2.53,5.86,5.86,0,0,0-1.92.33A5.94,5.94,0,0,0,52,3.9H51.62A5.69,5.69,0,0,1,51,4l-0.35,0h0a7.16,7.16,0,0,1-1.75-.86L45.4,0.8,44.17,0l-1.22.8L39.48,3.08a7.49,7.49,0,0,1-1.75.86,2.89,2.89,0,0,1-.35,0,5.69,5.69,0,0,1-.66,0H36.35a5.94,5.94,0,0,0-5.71,3.89,5.86,5.86,0,0,0-1.92-.33A6.24,6.24,0,0,0,23.87,10l0,0.06,0,0.06a4.45,4.45,0,0,1-.61.79h0a7.17,7.17,0,0,1-1.77.83L17.46,13l-1.4.45-0.13,1.45L15.56,19a7.39,7.39,0,0,1-.41,1.9,4.4,4.4,0,0,1-.65.77l-0.05,0,0,0.05a5.87,5.87,0,0,0-.66,7,5.88,5.88,0,0,0-2.48,6.63l0,0.07,0,0.07a4.44,4.44,0,0,1,.25,1h0a7.07,7.07,0,0,1-.46,1.89L9.64,42.33,9.12,43.69l1.06,1,3,2.85a7.43,7.43,0,0,1,1.23,1.5,4.33,4.33,0,0,1,.2,1v0.15a5.94,5.94,0,0,0,5.12,4.9,5.9,5.9,0,0,0,3.67,6.06l0.07,0,0.07,0a4.49,4.49,0,0,1,.91.41h0a7.1,7.1,0,0,1,1.2,1.53l2.13,3.55,0.75,1.24,1.46-.2,4.11-.55a10.75,10.75,0,0,1,1.22-.08,3.45,3.45,0,0,1,.73.06,4.44,4.44,0,0,1,.9.46l0.06,0,0.06,0a6.58,6.58,0,0,0,3,.74,5.67,5.67,0,0,0,4-1.68,5.67,5.67,0,0,0,4,1.68,6.59,6.59,0,0,0,3-.74l0.06,0,0.06,0a4.5,4.5,0,0,1,.89-0.45h0A3.26,3.26,0,0,1,53,67.11a10.72,10.72,0,0,1,1.22.08l4.11,0.56,1.45,0.2,0.75-1.25,2.13-3.54a7.44,7.44,0,0,1,1.2-1.53,4.41,4.41,0,0,1,.92-0.42l0.07,0,0.07,0a5.9,5.9,0,0,0,3.67-6.06,5.94,5.94,0,0,0,5.12-4.9V50a4.45,4.45,0,0,1,.2-1h0a7.12,7.12,0,0,1,1.24-1.51l3-2.85,1.06-1Zm-4,2,2.67-.53-3,2.86a8,8,0,0,0-1.51,1.9v0h0a5.1,5.1,0,0,0-.28,1.31V50a4.73,4.73,0,0,1-4.18,3.92l-0.53,0h-0.4L67,53.84a3.31,3.31,0,0,1,.16.37l0,0.05a5.71,5.71,0,0,1,.18.84A4.7,4.7,0,0,1,64.45,60H64.38a5.09,5.09,0,0,0-1.23.58,8.18,8.18,0,0,0-1.53,1.89l-2.13,3.55-0.07-2.71a3.4,3.4,0,0,1-1.64.43,3.36,3.36,0,0,1-1.36,1l2.08,1.75L54.37,66A11.9,11.9,0,0,0,53,65.91a4.24,4.24,0,0,0-1,.1h0a5.16,5.16,0,0,0-1.21.6l0,0,0,0a5.39,5.39,0,0,1-2.42.59A4.45,4.45,0,0,1,45,65.84a5.68,5.68,0,0,1-.55-0.66l0,0v0a3.28,3.28,0,0,1-.2-0.35,3.28,3.28,0,0,1-.2.35v0l0,0a5.68,5.68,0,0,1-.55.66,4.45,4.45,0,0,1-3.26,1.4,5.39,5.39,0,0,1-2.42-.59l0,0,0,0a5.1,5.1,0,0,0-1.22-.6,4.23,4.23,0,0,0-1.06-.1A11.9,11.9,0,0,0,34,66l-4.11.55,2.08-1.74a3.36,3.36,0,0,1-1.36-1,3.4,3.4,0,0,1-1.64-.43l-0.07,2.71-2.13-3.55a8,8,0,0,0-1.52-1.88l0,0h0A5.17,5.17,0,0,0,24,60.06H23.9A4.7,4.7,0,0,1,21,55.11a5.7,5.7,0,0,1,.18-0.84l0-.05a3.3,3.3,0,0,1,.16-0.37l-0.4.07h-0.4L20,53.9A4.73,4.73,0,0,1,15.83,50V49.91a5,5,0,0,0-.29-1.32A8.18,8.18,0,0,0,14,46.68l-3-2.86,2.67,0.53a3.31,3.31,0,0,1-.05-1.69,3.32,3.32,0,0,1-.69-1.54l-2.18,1.63,1.47-3.87a8,8,0,0,0,.53-2.36v0h0a5.1,5.1,0,0,0-.32-1.3V35.13a4.69,4.69,0,0,1,2.05-5.33,5.78,5.78,0,0,1,.77-0.39l0.05,0a3.24,3.24,0,0,1,.4-0.11A3.25,3.25,0,0,1,15.39,29l0,0a5.74,5.74,0,0,1-.53-0.68,4.68,4.68,0,0,1,.48-5.69l0,0,0,0a5.05,5.05,0,0,0,.86-1,8.12,8.12,0,0,0,.56-2.37L17.14,15l1.25,2.41a3.34,3.34,0,0,1,1.3-1.09,3.38,3.38,0,0,1,.79-1.49l-2.65-.68,4-1.28A8.09,8.09,0,0,0,24,11.82l0,0h0a5.13,5.13,0,0,0,.83-1.06l0,0,0,0a5.08,5.08,0,0,1,3.86-2,4.69,4.69,0,0,1,1.62.3,5.7,5.7,0,0,1,.79.36l0,0a3.33,3.33,0,0,1,.33.23,3.3,3.3,0,0,1,0-.4V9.12a5.56,5.56,0,0,1,.21-0.83A4.71,4.71,0,0,1,36.35,5.1h0.23a6.88,6.88,0,0,0,.8,0,3.51,3.51,0,0,0,.56,0,8.24,8.24,0,0,0,2.21-1L43.62,1.8,42.5,4.28h0.21a3.39,3.39,0,0,1,1.46.33,3.39,3.39,0,0,1,1.46-.33h0.21L44.72,1.8l3.47,2.28a8.08,8.08,0,0,0,2.2,1h0a3.73,3.73,0,0,0,.55,0,6.88,6.88,0,0,0,.8,0H52A4.71,4.71,0,0,1,56.6,8.29a5.56,5.56,0,0,1,.21.83V9.18a3.29,3.29,0,0,1,0,.4,3.34,3.34,0,0,1,.33-0.23l0,0A5.7,5.7,0,0,1,58,9a4.69,4.69,0,0,1,1.62-.3,5.08,5.08,0,0,1,3.86,2l0,0,0,0a5.06,5.06,0,0,0,.84,1.07,8.23,8.23,0,0,0,2.2,1.06l4,1.28-2.65.68a3.37,3.37,0,0,1,.79,1.49A3.35,3.35,0,0,1,70,17.42L71.21,15l0.37,4.12a8,8,0,0,0,.55,2.36v0h0a5.13,5.13,0,0,0,.85,1l0,0,0,0a4.68,4.68,0,0,1,.48,5.69A5.74,5.74,0,0,1,73,29l0,0a3.25,3.25,0,0,1-.31.27,3.22,3.22,0,0,1,.4.11l0.05,0a5.78,5.78,0,0,1,.77.39,4.69,4.69,0,0,1,2.05,5.33V35.2a5,5,0,0,0-.32,1.32,8.13,8.13,0,0,0,.53,2.37l1.46,3.87L75.4,41.13a3.32,3.32,0,0,1-.69,1.54A3.31,3.31,0,0,1,74.66,44.36Z"/><path class="cls-1" d="M67.73,29.64c-0.68-.34-2.25-1.42-2.23-4.25a4.72,4.72,0,0,1-1.91-1.81l0.6-.63a3.54,3.54,0,0,1-.66-0.86A1.86,1.86,0,0,1,61.88,20a3.54,3.54,0,0,1-.7-0.83l-0.76.44a4.69,4.69,0,0,1-1.35-2.25c-2.77-.61-3.49-2.37-3.67-3.1,0-.08,0-0.15,0-0.2a5,5,0,0,1-.12-1.17,5.09,5.09,0,0,1-1,.63l-0.2.1a3.62,3.62,0,0,1-1.54.33,5.08,5.08,0,0,1-3.18-1.25,4.28,4.28,0,0,1-1.91.39,7,7,0,0,1-.71,0L46.6,12.2a3.25,3.25,0,0,1-.44,0,3.85,3.85,0,0,1-.66-0.06,1.87,1.87,0,0,1-2.66,0,3.85,3.85,0,0,1-.66.06,3.24,3.24,0,0,1-.44,0l-0.13.86a7,7,0,0,1-.71,0A4.27,4.27,0,0,1,39,12.71,5.08,5.08,0,0,1,35.82,14a3.62,3.62,0,0,1-1.54-.33l-0.2-.1a5.09,5.09,0,0,1-1-.63A5,5,0,0,1,33,14.07c0,0.05,0,.12,0,0.2-0.18.74-.9,2.49-3.67,3.1a4.7,4.7,0,0,1-1.35,2.25l-0.76-.44a3.55,3.55,0,0,1-.7.83,1.86,1.86,0,0,1-1.66,2.07,3.53,3.53,0,0,1-.66.86l0.6,0.63a4.71,4.71,0,0,1-1.91,1.81c0,2.83-1.55,3.91-2.23,4.25l-0.19.08a5.11,5.11,0,0,1-1.12.37,5,5,0,0,1,.85.82l0.13,0.16c0.47,0.6,1.4,2.25.15,4.79a4.69,4.69,0,0,1,.93,2.45l-0.82.31a3.52,3.52,0,0,1,.21,1.06,1.85,1.85,0,0,1,.59,2.59,3.52,3.52,0,0,1,.27,1.05l0.87-.07a4.68,4.68,0,0,1,.24,2.61c2.23,1.74,2.11,3.64,2,4.38,0,0.08,0,.15,0,0.2a5,5,0,0,1-.41,1.11,5.11,5.11,0,0,1,1.15-.15h0.23c0.65,0,2.61.25,3.86,2.87h0a4.82,4.82,0,0,1,2.48.81l-0.26.83a3.57,3.57,0,0,1,1,.49,1.87,1.87,0,0,1,.63-0.11,1.89,1.89,0,0,1,.81.18,1.85,1.85,0,0,1,1,1.08,3.57,3.57,0,0,1,1,.44l0.49-.72a4.73,4.73,0,0,1,2.2,1.44,6.42,6.42,0,0,1,1.45-.18,4,4,0,0,1,3.21,1.39l0.13,0.18a5.08,5.08,0,0,1,.61,1,5.08,5.08,0,0,1,.61-1l0.13-.18a4,4,0,0,1,3.21-1.39,6.42,6.42,0,0,1,1.45.18,4.73,4.73,0,0,1,2.2-1.44L52.26,58a3.57,3.57,0,0,1,1-.44,1.85,1.85,0,0,1,1-1.08A1.89,1.89,0,0,1,55,56.29a1.87,1.87,0,0,1,.63.11,3.57,3.57,0,0,1,1-.49l-0.26-.83a4.82,4.82,0,0,1,2.48-.81h0c1.25-2.62,3.21-2.87,3.86-2.87H63a5.11,5.11,0,0,1,1.15.15,5,5,0,0,1-.41-1.1c0-.05,0-0.12-0.05-0.2-0.16-.74-0.28-2.63,2-4.38a4.68,4.68,0,0,1,.24-2.61l0.87,0.07A3.53,3.53,0,0,1,67,42.27a1.85,1.85,0,0,1,.59-2.59,3.52,3.52,0,0,1,.21-1.06L67,38.32a4.69,4.69,0,0,1,.93-2.45c-1.25-2.53-.31-4.19.15-4.79l0.13-.16A5,5,0,0,1,69,30.1a5.1,5.1,0,0,1-1.12-.37ZM44.17,57.32A21.68,21.68,0,0,1,22.43,35.7a21.42,21.42,0,0,1,3.11-11.15l0.22-.33,0.51-.79h0a21.73,21.73,0,0,1,1.85-2.32h0l0.66-.67,0.3-.32a21.73,21.73,0,0,1,12.09-5.84l0.56,0,0.94-.1v0c0.49,0,1-.05,1.49-0.05s1,0,1.49.05v0l0.94,0.1,0.56,0a21.73,21.73,0,0,1,12.1,5.85l0.3,0.32,0.66,0.67h0a21.73,21.73,0,0,1,1.85,2.32h0l0.51,0.79,0.22,0.32A21.42,21.42,0,0,1,65.91,35.7,21.68,21.68,0,0,1,44.17,57.32Z"/><path class="cls-1" d="M55.62,9.32a3.57,3.57,0,0,0-3.72-3,5.92,5.92,0,0,1-1.74,0,9.58,9.58,0,0,1-2.64-1.22c1.27,2.81,2.72,2.66,2.72,2.66a1.88,1.88,0,0,0,1.86,2.21c-0.5-.51-0.56-2.39,1-1.94A1.36,1.36,0,0,1,54,9.9a1.75,1.75,0,0,1-2.18,1,4.54,4.54,0,0,1-2.63-2.42c-0.76-1.85-3-4-5-2.44-2-1.56-4.25.6-5,2.44a4.54,4.54,0,0,1-2.63,2.42,1.75,1.75,0,0,1-2.18-1A1.36,1.36,0,0,1,35.28,8c1.52-.45,1.46,1.43,1,1.94A1.88,1.88,0,0,0,38.1,7.74s1.45,0.15,2.72-2.66A9.58,9.58,0,0,1,38.18,6.3a5.92,5.92,0,0,1-1.74,0,3.57,3.57,0,0,0-3.72,3,3.21,3.21,0,0,0,1.94,3.15s1.83,1.22,4.3-1.35c0,0,.45,1,2.54.74a3,3,0,0,1-1.12-1.08,2.05,2.05,0,0,1,1.07-3.2,1.4,1.4,0,0,1,1.95,1A1,1,0,0,1,42.58,10s-1,.25-0.76-0.68a1.78,1.78,0,0,1,.88-0.85s-1.93-.36-2,1.17a1.4,1.4,0,0,0,1,1.34,2.51,2.51,0,0,0,1.86-.25l0.06,0a0.57,0.57,0,0,0-.05.25,0.65,0.65,0,0,0,1.29,0,0.57,0.57,0,0,0-.05-0.25l0.06,0a2.51,2.51,0,0,0,1.86.25,1.4,1.4,0,0,0,1-1.34c-0.06-1.52-2-1.17-2-1.17a1.78,1.78,0,0,1,.88.85c0.19,0.92-.76.68-0.76,0.68a1,1,0,0,1-.82-1.36,1.4,1.4,0,0,1,1.95-1A2.05,2.05,0,0,1,48,10.79a3,3,0,0,1-1.12,1.08c2.09,0.21,2.54-.74,2.54-0.74,2.47,2.57,4.3,1.35,4.3,1.35A3.21,3.21,0,0,0,55.62,9.32Z"/><path class="cls-1" d="M30.53,10.37a3.58,3.58,0,0,0-4.69,1,5.86,5.86,0,0,1-1.09,1.35A9.58,9.58,0,0,1,22.15,14c3,0.77,3.79-.46,3.79-0.46,1.78,1.44,2.9-.07,2.9-0.07-0.71.07-2.23-1-.93-2A1.38,1.38,0,0,1,30,12a1.73,1.73,0,0,1-.59,2.3,4.58,4.58,0,0,1-3.54.54c-1.92-.56-5-0.15-5,2.37-2.47.57-2.18,3.68-1.2,5.42a4.5,4.5,0,0,1,.26,3.55,1.75,1.75,0,0,1-2.13,1.09,1.36,1.36,0,0,1-.9-1.9c0.59-1.46,2-.24,2.12.46,0,0,1.23-1.42-.57-2.82,0,0,1-1-.39-3.77A9.45,9.45,0,0,1,17.28,22,5.86,5.86,0,0,1,16.2,23.4a3.54,3.54,0,0,0,.05,4.77,3.25,3.25,0,0,0,3.69.45S22,28,21.56,24.44c0,0,1,.25,2.17-1.51a3,3,0,0,1-1.55.19,2.06,2.06,0,0,1-1.85-2.82,1.4,1.4,0,0,1,2-.87,1,1,0,0,1,.56,1.49s-0.4.9-1,.17a1.77,1.77,0,0,1-.12-1.21s-1.48,1.28-.33,2.28a1.41,1.41,0,0,0,1.65.09,2.48,2.48,0,0,0,1-1.6V20.58a0.58,0.58,0,0,0,.16.19,0.64,0.64,0,0,0,.88-0.13,0.63,0.63,0,0,0-.07-0.88,0.58,0.58,0,0,0-.23-0.12l0.06,0a2.49,2.49,0,0,0,1.35-1.29,1.39,1.39,0,0,0-.46-1.58c-1.24-.9-2.16.82-2.16,0.82a1.8,1.8,0,0,1,1.22-.15c0.85,0.43.06,1,.06,1a1.06,1.06,0,0,1-1.58-.21,1.39,1.39,0,0,1,.41-2.16,2.07,2.07,0,0,1,3.18,1.16,3,3,0,0,1,.15,1.54c1.47-1.49,1-2.44,1-2.44,3.56-.32,3.74-2.5,3.74-2.5A3.21,3.21,0,0,0,30.53,10.37Z"/><path class="cls-1" d="M15.71,30.52a3.54,3.54,0,0,0-2.13,4.28A5.82,5.82,0,0,1,14,36.48a9.45,9.45,0,0,1-.61,2.83c2.47-1.85,2-3.23,2-3.23,2.24-.48,1.75-2.29,1.75-2.29-0.39.6-2.21,1.08-2.11-.5A1.37,1.37,0,0,1,16.64,32a1.74,1.74,0,0,1,1.44,1.9A4.52,4.52,0,0,1,16.3,37C14.65,38.1,13,40.78,15,42.36c-1.09,2.27,1.53,4,3.51,4.31a4.56,4.56,0,0,1,3,2A1.73,1.73,0,0,1,21,51,1.38,1.38,0,0,1,19,50.53c-0.78-1.37,1.08-1.73,1.69-1.36,0,0-.35-1.84-2.58-1.31,0,0-.18-1.44-3.21-2a9.51,9.51,0,0,1,1.78,2.28A5.82,5.82,0,0,1,17,49.78a3.57,3.57,0,0,0,3.79,2.93,3.23,3.23,0,0,0,2.66-2.58s0.79-2-2.28-3.87c0,0,.84-0.65.16-2.63A3,3,0,0,1,20.54,45a2.08,2.08,0,0,1-3.37-.32,1.39,1.39,0,0,1,.57-2.12,1.06,1.06,0,0,1,1.52.49s0.45,0.87-.5.89a1.79,1.79,0,0,1-1-.66s0.08,2,1.59,1.67a1.4,1.4,0,0,0,1.1-1.23,2.47,2.47,0,0,0-.66-1.75l0,0a0.58,0.58,0,0,0,.26,0,0.64,0.64,0,0,0-.29-1.25,0.58,0.58,0,0,0-.23.1l0-.06a2.47,2.47,0,0,0-.17-1.86,1.41,1.41,0,0,0-1.53-.63c-1.48.4-.7,2.19-0.7,2.19a1.78,1.78,0,0,1,.64-1c0.86-.39.83,0.59,0.83,0.59A1.05,1.05,0,0,1,17.4,41,1.4,1.4,0,0,1,16,39.37a2.07,2.07,0,0,1,2.9-1.75,3,3,0,0,1,1.31.84c-0.26-2.08-1.29-2.3-1.29-2.3,2-3,.37-4.46.37-4.46A3.25,3.25,0,0,0,15.71,30.52Z"/><path class="cls-1" d="M22.32,54.6a3.55,3.55,0,0,0,2,4.32,5.9,5.9,0,0,1,1.57.75,9.51,9.51,0,0,1,1.84,2.24c0.08-3.08-1.29-3.57-1.29-3.57,1-2-.71-2.79-0.71-2.79,0.23,0.67-.53,2.39-1.71,1.33a1.36,1.36,0,0,1,0-2.1,1.75,1.75,0,0,1,2.39.06,4.51,4.51,0,0,1,1.32,3.31c-0.12,2,1,4.92,3.45,4.36,1.11,2.27,4.09,1.29,5.58,0a4.57,4.57,0,0,1,3.43-1,1.74,1.74,0,0,1,1.54,1.82,1.37,1.37,0,0,1-1.66,1.3c-1.56-.25-0.69-1.92,0-2.16,0,0-1.67-.88-2.64,1.18,0,0-1.24-.76-3.61,1.22a9.61,9.61,0,0,1,2.91,0,5.9,5.9,0,0,1,1.57.75A3.59,3.59,0,0,0,43,64.48a3.2,3.2,0,0,0-.37-3.68s-1.11-1.89-4.46-.64c0,0,0-1.05-2-1.77a3,3,0,0,1,.53,1.46,2.06,2.06,0,0,1-2.36,2.42A1.4,1.4,0,0,1,33,60.51a1.05,1.05,0,0,1,1.33-.87s1,0.19.39,0.94a1.79,1.79,0,0,1-1.16.39s1.58,1.15,2.31-.19a1.39,1.39,0,0,0-.28-1.62,2.5,2.5,0,0,0-1.79-.58H33.77a0.58,0.58,0,0,0,.15-0.2,0.63,0.63,0,0,0-.32-0.82,0.64,0.64,0,0,0-.84.26,0.57,0.57,0,0,0-.06.25l0-.05a2.5,2.5,0,0,0-1.57-1,1.41,1.41,0,0,0-1.45.79c-0.61,1.4,1.29,1.91,1.29,1.91a1.77,1.77,0,0,1-.42-1.15c0.23-.92,1-0.28,1-0.28a1,1,0,0,1,.14,1.58,1.41,1.41,0,0,1-2.2.08,2.05,2.05,0,0,1,.43-3.34,3,3,0,0,1,1.48-.49c-1.79-1.1-2.61-.43-2.61-0.43-1.11-3.38-3.28-3.07-3.28-3.07A3.23,3.23,0,0,0,22.32,54.6Z"/><path class="cls-1" d="M45.38,64.48a3.59,3.59,0,0,0,4.67,1.11,5.9,5.9,0,0,1,1.57-.75,9.61,9.61,0,0,1,2.91,0c-2.37-2-3.61-1.22-3.61-1.22-1-2.06-2.64-1.18-2.64-1.18,0.67,0.24,1.55,1.91,0,2.16a1.37,1.37,0,0,1-1.66-1.3,1.74,1.74,0,0,1,1.54-1.82,4.57,4.57,0,0,1,3.43,1c1.49,1.33,4.48,2.31,5.58,0,2.47,0.55,3.57-2.37,3.45-4.36a4.51,4.51,0,0,1,1.32-3.31,1.75,1.75,0,0,1,2.39-.06,1.36,1.36,0,0,1,0,2.1c-1.17,1.06-1.94-.66-1.71-1.33,0,0-1.73.75-.71,2.79,0,0-1.37.49-1.29,3.57a9.51,9.51,0,0,1,1.84-2.24A5.9,5.9,0,0,1,64,58.92a3.55,3.55,0,0,0,2-4.32,3.23,3.23,0,0,0-3.12-2s-2.18-.31-3.28,3.07c0,0-.82-0.67-2.61.43a3,3,0,0,1,1.48.49,2.05,2.05,0,0,1,.43,3.34,1.41,1.41,0,0,1-2.2-.09,1,1,0,0,1,.14-1.58s0.75-.63,1,0.28a1.77,1.77,0,0,1-.42,1.15s1.9-.51,1.29-1.91A1.41,1.41,0,0,0,57.25,57a2.5,2.5,0,0,0-1.57,1l0,0.05a0.57,0.57,0,0,0-.06-0.25,0.64,0.64,0,0,0-.84-0.26,0.63,0.63,0,0,0-.32.82,0.58,0.58,0,0,0,.15.2H54.51a2.51,2.51,0,0,0-1.79.58,1.39,1.39,0,0,0-.28,1.62c0.72,1.35,2.31.19,2.31,0.19a1.79,1.79,0,0,1-1.16-.39C53,59.83,54,59.64,54,59.64a1.05,1.05,0,0,1,1.33.87A1.4,1.4,0,0,1,54,62.28a2.06,2.06,0,0,1-2.36-2.42,3,3,0,0,1,.53-1.46c-2,.71-2,1.77-2,1.77-3.35-1.25-4.46.64-4.46,0.64A3.2,3.2,0,0,0,45.38,64.48Z"/><path class="cls-1" d="M67.53,52.72a3.56,3.56,0,0,0,3.79-2.93,5.82,5.82,0,0,1,.39-1.69,9.51,9.51,0,0,1,1.78-2.28c-3,.6-3.21,2-3.21,2-2.23-.53-2.58,1.31-2.58,1.31,0.61-.37,2.46,0,1.69,1.36a1.38,1.38,0,0,1-2.06.49,1.73,1.73,0,0,1-.47-2.33,4.56,4.56,0,0,1,3-2c2-.33,4.61-2,3.51-4.31,2-1.58.36-4.26-1.28-5.4a4.52,4.52,0,0,1-1.79-3.09A1.74,1.74,0,0,1,71.7,32a1.37,1.37,0,0,1,1.64,1.33c0.1,1.57-1.73,1.09-2.11.5,0,0-.49,1.81,1.75,2.29,0,0-.47,1.37,2,3.23a9.45,9.45,0,0,1-.61-2.83,5.82,5.82,0,0,1,.39-1.69,3.54,3.54,0,0,0-2.13-4.28,3.25,3.25,0,0,0-3.52,1.18s-1.6,1.5.37,4.46c0,0-1,.22-1.29,2.3a3,3,0,0,1,1.31-.84,2.07,2.07,0,0,1,2.9,1.75A1.4,1.4,0,0,1,70.95,41a1.05,1.05,0,0,1-1.15-1.1s0-1,.83-0.59a1.78,1.78,0,0,1,.64,1s0.78-1.79-.7-2.19a1.41,1.41,0,0,0-1.53.63,2.47,2.47,0,0,0-.17,1.86l0,0.06a0.58,0.58,0,0,0-.23-0.1,0.64,0.64,0,0,0-.29,1.25,0.58,0.58,0,0,0,.26,0l0,0a2.47,2.47,0,0,0-.66,1.75A1.4,1.4,0,0,0,69,44.92c1.51,0.28,1.59-1.67,1.59-1.67a1.79,1.79,0,0,1-1,.66c-0.95,0-.5-0.89-0.5-0.89a1.06,1.06,0,0,1,1.52-.49,1.39,1.39,0,0,1,.57,2.12A2.08,2.08,0,0,1,67.8,45,3,3,0,0,1,67,43.64c-0.68,2,.16,2.63.16,2.63-3.07,1.82-2.28,3.87-2.28,3.87A3.23,3.23,0,0,0,67.53,52.72Z"/><path class="cls-1" d="M72.09,28.17a3.54,3.54,0,0,0,.05-4.77A5.86,5.86,0,0,1,71.06,22a9.45,9.45,0,0,1-.69-2.81C69,22,70,23,70,23c-1.81,1.4-.57,2.82-0.57,2.82,0.09-.71,1.53-1.92,2.12-0.46a1.36,1.36,0,0,1-.9,1.9,1.75,1.75,0,0,1-2.13-1.09,4.5,4.5,0,0,1,.26-3.55c1-1.74,1.27-4.85-1.2-5.42,0-2.52-3.12-2.93-5-2.37A4.58,4.58,0,0,1,59,14.29a1.73,1.73,0,0,1-.59-2.3,1.38,1.38,0,0,1,2.07-.45c1.3,0.9-.22,2-0.93,2,0,0,1.12,1.51,2.9.07,0,0,.79,1.22,3.79.46a9.58,9.58,0,0,1-2.6-1.29,5.86,5.86,0,0,1-1.09-1.35,3.58,3.58,0,0,0-4.69-1,3.21,3.21,0,0,0-1.27,3.47s0.18,2.18,3.74,2.5c0,0-.47.94,1,2.44a3,3,0,0,1,.15-1.54,2.07,2.07,0,0,1,3.18-1.16A1.39,1.39,0,0,1,65,18.23a1.06,1.06,0,0,1-1.58.21s-0.79-.59.06-1a1.8,1.8,0,0,1,1.22.15s-0.92-1.72-2.16-.82a1.39,1.39,0,0,0-.46,1.58,2.49,2.49,0,0,0,1.35,1.29l0.06,0a0.58,0.58,0,0,0-.23.12,0.63,0.63,0,0,0-.07.88,0.64,0.64,0,0,0,.88.13,0.58,0.58,0,0,0,.16-0.19v0.06a2.48,2.48,0,0,0,1,1.6,1.41,1.41,0,0,0,1.65-.09c1.16-1-.33-2.28-0.33-2.28a1.77,1.77,0,0,1-.12,1.21c-0.61.73-1-.17-1-0.17A1,1,0,0,1,66,19.43a1.4,1.4,0,0,1,2,.87,2.06,2.06,0,0,1-1.85,2.82,3,3,0,0,1-1.55-.19c1.14,1.76,2.17,1.51,2.17,1.51C66.31,28,68.4,28.62,68.4,28.62A3.25,3.25,0,0,0,72.09,28.17Z"/><polygon class="cls-1" points="77.98 13.07 78.01 13.05 78.01 13.05 77.98 13.07"/><path class="cls-1" d="M44.17,15.21A20.49,20.49,0,1,0,64.79,35.7,20.55,20.55,0,0,0,44.17,15.21ZM63.32,32.82a21.37,21.37,0,0,1-4.15,1.86A15.09,15.09,0,0,0,63,31Q63.21,31.91,63.32,32.82Zm-0.71-4.14c-0.91,1.86-2.35,5.25-5.13,5.19a2.65,2.65,0,0,0-1.12,0,2,2,0,0,0-1.09.84,1.82,1.82,0,0,0-.05,1.34,1.85,1.85,0,0,1-.47-1.35,2.39,2.39,0,0,1,.39-1.22,1.6,1.6,0,0,1,.52-0.47c-0.6-1.5,1.54-4.15,3.39-2.07,0,0-1.37-.45-1.92.48S57.5,33.23,59,32.7c1-.35,2.76-2.39,2.78-5.83Q62.23,27.75,62.61,28.69ZM59.7,23.6a22.57,22.57,0,0,1,1.12,2,21.71,21.71,0,0,1-2.44,3.7A13.91,13.91,0,0,0,59.7,23.6Zm-2.06-2.28a13.75,13.75,0,0,1,0,3.45A51.38,51.38,0,0,0,55,19.18,19.34,19.34,0,0,1,57.63,21.32Zm-12,7.84A4.6,4.6,0,0,0,50.54,32c4-.22,5.33-4.79,4.56-6.92-0.57-1.56-3.24-5-4.37-8.1l0.64,0.24a22.24,22.24,0,0,0,2.88,4.21c4.11,4.86,1.52,11.3-3.33,11.45S45.54,30.48,45.62,29.16ZM45.25,41.37a0.39,0.39,0,0,0,.48-0.54,1.33,1.33,0,0,0-.61-0.59,1,1,0,0,1,1.37.74A1,1,0,0,1,45.94,42a1.53,1.53,0,0,1-1.31-.1l0,0a0.45,0.45,0,0,1,0,.18,0.45,0.45,0,0,1-.91,0,0.45,0.45,0,0,1,0-.18l0,0a1.53,1.53,0,0,1-1.31.1A1,1,0,0,1,41.85,41a1,1,0,0,1,1.37-.74,1.33,1.33,0,0,0-.61.59,0.39,0.39,0,0,0,.48.54,0.77,0.77,0,0,0,.58-1,0.89,0.89,0,0,0-1.2-.84,1.9,1.9,0,0,0-.92,1A0.82,0.82,0,0,1,41,41H38.74c2.36-.69,2.43-2.12,3.79-2.82a1.3,1.3,0,0,1,1.65.24,1.3,1.3,0,0,1,1.65-.24c1.36,0.7,1.42,2.13,3.79,2.82H47.37a0.82,0.82,0,0,1-.58-0.47,1.9,1.9,0,0,0-.92-1,0.89,0.89,0,0,0-1.2.84A0.77,0.77,0,0,0,45.25,41.37ZM44.86,44a0.68,0.68,0,1,1-.68-0.68A0.68,0.68,0,0,1,44.86,44Zm-2-9.76,1.31-2.81,1.26,2.81-1.26,2.81Zm1.29-9.82s2.47,2.06.75,4.23a1,1,0,0,1-.75.37,1,1,0,0,1-.75-0.37C41.71,26.52,44.17,24.46,44.17,24.46ZM37,17.24L37.63,17c-1.12,3.15-3.82,6.58-4.39,8.15-0.78,2.14.59,6.7,4.56,6.92a4.6,4.6,0,0,0,4.93-2.87c0.07,1.33-.44,3.9-5.3,3.76S30,26.37,34.1,21.51A22.14,22.14,0,0,0,37,17.24Zm-6.29,4.08a19.34,19.34,0,0,1,2.67-2.17,51.09,51.09,0,0,0-2.66,5.67A13.68,13.68,0,0,1,30.71,21.32Zm-1.85,2.08a13.91,13.91,0,0,0,1.32,5.69,21.71,21.71,0,0,1-2.44-3.7A22.57,22.57,0,0,1,28.86,23.39ZM26.8,26.65c0,3.44,1.81,5.48,2.78,5.83,1.47,0.53,2.4-.26,1.83-1.23s-1.92-.48-1.92-0.48c1.86-2.08,4,.57,3.39,2.07a1.6,1.6,0,0,1,.52.47,2.39,2.39,0,0,1,.39,1.22,1.85,1.85,0,0,1-.47,1.35,1.82,1.82,0,0,0-.05-1.34,2,2,0,0,0-1.09-.84,2.65,2.65,0,0,0-1.12,0c-2.78.05-4.22-3.33-5.13-5.19Q26.33,27.53,26.8,26.65Zm-1.49,4.41a15.09,15.09,0,0,0,3.86,3.66A21.38,21.38,0,0,1,25,32.86Q25.12,31.95,25.31,31.06ZM25,36.72c0-.56-0.07-1.12-0.07-1.68,0-.15,0-0.29,0-0.44a40.15,40.15,0,0,0,7,2S26.12,36.74,25,36.72Zm4.35,3.19c-0.78,0-3.41-1.77-3.41-1.77l10.48,0.59S30.1,39.91,29.32,39.91ZM39.9,37.25A2.21,2.21,0,0,0,40.07,36a1.78,1.78,0,0,0-1.39-1.52,1.84,1.84,0,0,0-2,.55c-0.67,1,1.08,1.48,1.67,1.22,0,0-.39,1.49-2.5.72,0,0-.28,1.18-3.2.86a5.45,5.45,0,0,0,1.85-1.28,2.56,2.56,0,0,0,.38-1.19s0.26-2.14,3.36-1.92a3.32,3.32,0,0,1,2.83,2.12,2.37,2.37,0,0,1,.09,1c-0.37,3-3.89,4.44-3.89,4.44a23.16,23.16,0,0,1-4.67-.49C38.38,39.48,39.13,38.84,39.9,37.25ZM38,54.66a19.21,19.21,0,0,1-2.09-.85c7.36-2.07,6.25-7.19,6.25-7.19C43.18,49.66,40.12,52.86,38,54.66Zm1.33,0.39a12.37,12.37,0,0,0,3.84-7.8A3.72,3.72,0,0,0,42,44.54a2.54,2.54,0,0,0-1.59-.77,0.79,0.79,0,0,0-.79.8,0.68,0.68,0,0,0,.62.76c0.65,0,.43-0.89.16-1.07,0,0,.82-0.27,1,0.86,0,0,.64-0.22,1.25,1.12a2.76,2.76,0,0,0-1.1-.42,1.57,1.57,0,0,0-.68.18,1.49,1.49,0,0,1-2-.82,1.6,1.6,0,0,1,.28-1.87,1.75,1.75,0,0,1,2.44,0,4.49,4.49,0,0,1,1,1,3.61,3.61,0,0,1,.69,1.54c0.56,3-1.3,7.15-2.43,9.5Q40.06,55.25,39.29,55.05Zm4.86,0.62q-0.74,0-1.46-.05A31.81,31.81,0,0,0,44,49.84l0.21-3.13h0l0.2,3.15a33.52,33.52,0,0,0,1.26,5.75Q44.9,55.67,44.15,55.67Zm3.36-.29c-1.13-2.34-3-6.51-2.43-9.5a3.61,3.61,0,0,1,.69-1.54,4.49,4.49,0,0,1,1-1,1.75,1.75,0,0,1,2.44,0,1.6,1.6,0,0,1,.28,1.87,1.49,1.49,0,0,1-2,.82,1.57,1.57,0,0,0-.68-0.18,2.76,2.76,0,0,0-1.1.42C46.31,44.89,47,45.11,47,45.11c0.18-1.13,1-.86,1-0.86-0.27.18-.49,1.07,0.16,1.07a0.68,0.68,0,0,0,.62-0.76,0.79,0.79,0,0,0-.79-0.8,2.54,2.54,0,0,0-1.59.77,3.72,3.72,0,0,0-1.13,2.71A12.37,12.37,0,0,0,49.07,55Q48.3,55.24,47.51,55.38Zm2.87-.73c-2.16-1.8-5.21-5-4.16-8,0,0-1.11,5.12,6.25,7.19A19.21,19.21,0,0,1,50.38,54.65Zm0.69-13.71s-3.52-1.48-3.89-4.44a2.37,2.37,0,0,1,.09-1,3.32,3.32,0,0,1,2.83-2.12c3.1-.22,3.36,1.92,3.36,1.92a2.56,2.56,0,0,0,.38,1.19,5.45,5.45,0,0,0,1.85,1.28c-2.92.32-3.2-.86-3.2-0.86-2.11.77-2.5-.72-2.5-0.72,0.58,0.25,2.34-.24,1.67-1.22a1.84,1.84,0,0,0-2-.55A1.78,1.78,0,0,0,48.27,36a2.21,2.21,0,0,0,.17,1.28c0.77,1.59,1.52,2.23,7.3,3.18A23.16,23.16,0,0,1,51.07,40.94Zm8-1.08c-0.78,0-7.07-1.18-7.07-1.18l10.48-.59S59.8,39.86,59,39.86Zm-2.59-3.27a40.14,40.14,0,0,0,7-2q0,0.24,0,.48c0,0.55,0,1.1-.07,1.64C62.24,36.7,56.43,36.59,56.43,36.59Z"/><path class="cls-1" d="M5.32,87.61l0.15-.48,2.33,0,2.5,0-0.13.5-1.48.56v0.6c3,0.15,6.85,1,6.85,5.53,0,4.24-3.76,5.36-6.85,5.44v0.74l1.89,0.6-0.13.5-2.63,0-2.74,0,0.13-.5,1.67-.6V99.77c-3-.09-6.87-1-6.87-5.34S3.82,89,6.88,88.8V88.15Zm1.54,1.94C4,89.81,2.1,91.07,2.1,94.24S3.9,98.76,6.86,99V89.55ZM8.69,99c2.89-.24,4.76-1.45,4.76-4.69s-1.89-4.56-4.76-4.8V99Z"/><path class="cls-1" d="M17.41,87.33c0.87,0,1.78,0,2.65,0h5.39a12.41,12.41,0,0,1,1.82-.28l0,0.09c0,0.58-.39,2.46-0.54,3.13l-0.37.19c-0.22-.52-0.76-1.86-0.93-2.33l-4.41.17v5.38c2,0,4.17-.11,5.52-0.26l0.09,0.2a4,4,0,0,1-1.3,1.25c-0.32,0-3.67-.22-4.3-0.22,0,1.43,0,4.08.09,5.88l4.61,0.19c0.48-.63,1.41-2,1.91-2.57l0.43,0a33.62,33.62,0,0,1-.76,3.48c-1.44-.06-2.67-0.06-3.93-0.06H20l-3,0,0.17-.5,1.85-.65c0.07-.26.13-2.66,0.13-6.31V88.43l-1.87-.58Z"/><path class="cls-1" d="M30.1,87.35l2.5,0,2,0-0.15.52-0.93.67v4.9h7.56V88.56L40,87.8l0.2-.45,1.87,0,2.87,0-0.2.54L43,88.54v5.68c0,2.44.07,5.9,0.17,6.16l2,0.69-0.2.54-2.91,0-2,0,0.15-.54,0.85-.67c0.09-2.12,0-4,0-6a22.32,22.32,0,0,1-2.8.13H33.56c0,1.77,0,3.59,0,5.81l1,0.8-0.15.5-1.91,0-2.83,0,0.2-.52,1.61-.65c0-.54.13-3.72,0.13-6.35V88.5l-1.72-.63Z"/><path class="cls-1" d="M48.48,88.47l-1.72-.65,0.2-.48,2.54,0,2.41,0-0.17.52-1.41.63v6.12c0,1.49,0,3.31-.15,5.16h0.11c2.5-3.89,5-7.69,7.46-11.6l-0.07-.8h1.39l2.76,0-0.17.52L60,88.5v5.68c0,3.33.07,5.92,0.11,6.29l2,0.63-0.15.52-2.89,0-2.67,0,0.15-.52,1.48-.63c0.09-1.17.13-2.9,0.13-6.24,0-1.56,0-3.2.15-5.1H58.17c-2.48,3.91-5,7.74-7.41,11.62l0.06,0.84H49.48l-2.89,0,0.17-.52,1.59-.63c0.07-.56.13-3.31,0.13-6.35V88.47Z"/><path class="cls-1" d="M65.47,88.45l-1.72-.63L64,87.35l2.48,0,2.7,0L69,87.87l-1.57.63v5.64a3.71,3.71,0,0,0,1.74-.91c1.22-1.34,2.8-3.13,4-4.82l0-1.06,1.54,0,2.09,0-0.17.52-2.37.84c-1.41,1.43-3.74,4.08-4.3,4.78v0a11.23,11.23,0,0,0,.69.93c2.11,2.7,5.09,6.14,6.11,7.24l-0.24.22a4.29,4.29,0,0,1-3.35-1.45c-1-1-2.37-2.72-4.56-5.34a0.9,0.9,0,0,0-1.24-.3c0,3,.07,5.38.11,5.64l2,0.63-0.2.52-2.85,0-3,0,0.13-.52,1.72-.63c0.09-.37.13-2.7,0.13-6.29V88.45Z"/><path class="cls-1" d="M89.2,87.78a5.15,5.15,0,0,1,1.67-.63L91,87.24a18.35,18.35,0,0,1-.87,3.48l-0.39.22a14.63,14.63,0,0,1-.74-2.4,5.72,5.72,0,0,0-2.76-.65c-4.07,0-6.46,2.83-6.46,6.59s2.52,6.5,6.72,6.5a4.12,4.12,0,0,0,1.41-.17c0.93-1,2-2,2.54-2.44L91,98.48a11,11,0,0,1-1.48,2.83,11.42,11.42,0,0,1-3.76.69c-4.07,0-8.17-2.25-8.17-7.41S82.07,87,85.78,87A6.44,6.44,0,0,1,89.2,87.78Z"/><path class="cls-1" d="M24.2,79.32a3.12,3.12,0,0,1,.86.12,2.07,2.07,0,0,1,.7.35,1.67,1.67,0,0,1,.48.58,2,2,0,0,1,0,1.65,1.66,1.66,0,0,1-.48.58,1.92,1.92,0,0,1-.7.34,3.65,3.65,0,0,1-1.73,0,1.91,1.91,0,0,1-.7-0.34A1.66,1.66,0,0,1,22.16,82a2,2,0,0,1,0-1.65,1.67,1.67,0,0,1,.48-0.58,2.07,2.07,0,0,1,.7-0.35A3.12,3.12,0,0,1,24.2,79.32Zm0,0.61a1.61,1.61,0,0,0-.52.09,1.48,1.48,0,0,0-.45.25,1.23,1.23,0,0,0-.32.39,1.23,1.23,0,0,0,0,1.06,1.23,1.23,0,0,0,.32.39,1.48,1.48,0,0,0,.45.25,1.61,1.61,0,0,0,1,0,1.48,1.48,0,0,0,.45-0.25,1.23,1.23,0,0,0,.32-0.39,1.22,1.22,0,0,0,0-1.06,1.23,1.23,0,0,0-.32-0.39A1.48,1.48,0,0,0,24.72,80,1.61,1.61,0,0,0,24.2,79.93Z"/><path class="cls-1" d="M32.58,77.75a1.43,1.43,0,0,1-.13.5,1.15,1.15,0,0,1-.29.38,1.29,1.29,0,0,1-.42.24,1.63,1.63,0,0,1-1,0,1.29,1.29,0,0,1-.42-0.24A1.15,1.15,0,0,1,30,78.25a1.43,1.43,0,0,1-.13-0.5h0.48a0.91,0.91,0,0,0,.13.32,0.59,0.59,0,0,0,.2.19,0.78,0.78,0,0,0,.25.09l0.29,0,0.29,0a0.78,0.78,0,0,0,.25-0.09,0.59,0.59,0,0,0,.2-0.19,0.92,0.92,0,0,0,.13-0.32h0.48Z"/><path class="cls-1" d="M48.7,79.32a3.12,3.12,0,0,1,.86.12,2.07,2.07,0,0,1,.7.35,1.67,1.67,0,0,1,.48.58,2,2,0,0,1,0,1.65,1.66,1.66,0,0,1-.48.58,1.91,1.91,0,0,1-.7.34,3.65,3.65,0,0,1-1.73,0,1.92,1.92,0,0,1-.7-0.34A1.66,1.66,0,0,1,46.66,82a2,2,0,0,1,0-1.65,1.67,1.67,0,0,1,.48-0.58,2.08,2.08,0,0,1,.7-0.35A3.12,3.12,0,0,1,48.7,79.32Zm0,0.61a1.61,1.61,0,0,0-.52.09,1.48,1.48,0,0,0-.45.25,1.23,1.23,0,0,0-.32.39,1.22,1.22,0,0,0,0,1.06,1.23,1.23,0,0,0,.32.39,1.48,1.48,0,0,0,.45.25,1.61,1.61,0,0,0,1,0,1.47,1.47,0,0,0,.45-0.25A1.23,1.23,0,0,0,50,81.72a1.22,1.22,0,0,0,0-1.06,1.23,1.23,0,0,0-.32-0.39A1.47,1.47,0,0,0,49.22,80,1.61,1.61,0,0,0,48.7,79.93Z"/><path class="cls-1" d="M90.16,80.23a1.32,1.32,0,0,0-.25-0.15A2,2,0,0,0,89.55,80a2.17,2.17,0,0,0-.46,0,1.78,1.78,0,0,0-.55.08,1.22,1.22,0,0,0-.43.24,1.06,1.06,0,0,0-.28.39,1.33,1.33,0,0,0-.1.53,1.23,1.23,0,0,0,.11.53,1.32,1.32,0,0,0,.3.41,1.25,1.25,0,0,0,.42.26,1.36,1.36,0,0,0,.48.09,1.9,1.9,0,0,0,.46-0.06,3.09,3.09,0,0,0,.43-0.14,2.2,2.2,0,0,0,.32-0.18l0.32-.22L91,82.42l-0.34.21c-0.1.05-.23,0.11-0.38,0.17a3.13,3.13,0,0,1-.53.16A3.19,3.19,0,0,1,89,83a2.73,2.73,0,0,1-.76-0.11,1.86,1.86,0,0,1-.67-0.34A1.83,1.83,0,0,1,87.11,82a1.74,1.74,0,0,1-.18-0.82,1.72,1.72,0,0,1,.18-0.81,1.8,1.8,0,0,1,.48-0.58,2,2,0,0,1,.69-0.35,2.76,2.76,0,0,1,.8-0.12,2.69,2.69,0,0,1,.58.06,3.49,3.49,0,0,1,.46.13l0.33,0.13,0.32,0.19-0.39.57Z"/><path class="cls-1" d="M5.11,80.42l1.32-1.06h-1L3.59,80.82V79.36H2.81v1.4l-0.51-.41-1.23-1H0l0.54,0.42,1.32,1L0.1,83H1l1.44-1.75,0.41,0.32V83H3.59V81.64L4,81.3,5.44,83H6.37L4.61,80.82Z"/><polygon class="cls-1" points="12.03 79.36 9.65 81.97 9.65 79.36 8.95 79.36 8.95 82.74 8.95 83.01 9.63 83.01 12.15 80.24 12.15 83.01 12.85 83.01 12.85 79.36 12.03 79.36"/><polygon class="cls-1" points="32.32 79.36 29.95 81.97 29.95 79.36 29.24 79.36 29.24 82.74 29.24 83.01 29.93 83.01 32.45 80.24 32.45 83.01 33.15 83.01 33.15 79.36 32.32 79.36"/><polygon class="cls-1" points="18.06 79.36 17.24 79.36 15.56 83.01 16.36 83.01 17.61 80.14 18.96 83.01 19.81 83.01 18.06 79.36"/><polygon class="cls-1" points="70.45 79.36 69.63 79.36 67.94 83.01 68.75 83.01 69.99 80.14 71.35 83.01 72.2 83.01 70.45 79.36"/><path class="cls-1" d="M44.46,79.36"/><path class="cls-1" d="M42.64,80.82l1.82-1.46h-1l-2,1.62V79.36h-0.8V83h0.8v-1.2l0.65-.51L43.47,83h0.94Z"/><path class="cls-1" d="M83.16,80.82L85,79.36h-1l-2,1.62V79.36h-0.8V83h0.8v-1.2l0.65-.51L84,83h0.94Z"/><polygon class="cls-1" points="57.2 79.36 55.91 81.69 54.63 79.36 53.8 79.36 53.8 83.01 54.5 83.01 54.5 80.41 54.51 80.41 55.85 83.01 55.91 83.01 57.33 80.41 57.35 80.41 57.35 83.01 58.05 83.01 58.05 79.36 57.2 79.36"/><polygon class="cls-1" points="61.47 79.36 61.47 83.01 62.27 83.01 62.27 79.98 64.42 79.98 64.42 83.01 65.22 83.01 65.22 79.36 61.47 79.36"/><polygon class="cls-1" points="77.38 81.42 77.38 80.81 75.67 80.81 75.67 79.98 78.11 79.98 78.11 79.36 74.86 79.36 74.86 83.01 78.18 83.01 78.18 82.4 75.67 82.4 75.67 81.42 77.38 81.42"/></svg>