<svg xmlns="http://www.w3.org/2000/svg" style="display: none;">
  
    <symbol id="if-3d" viewBox="0 0 512 512">
      <path d="m256 0c-142 0-256 114-256 256 0 142 114 256 256 256 142 0 256-114 256-256 0-142-114-256-256-256z m0 475c-120 0-219-99-219-219 0-120 99-219 219-219 120 0 219 99 219 219 0 120-99 219-219 219z m83-363c-6-2-12 0-14 4l-108 114c-2 2-2 4-2 4l-50 148c-2 6 0 14 8 16 6 2 12 0 14-4l108-114c2-2 2-2 2-4l52-148c0-6-4-14-10-16z m-61 150c-4 12-16 18-28 16-12-4-18-16-16-28 4-12 16-18 28-16 12 4 18 16 16 28z"/>
    </symbol>
  
    <symbol id="if-arrow-left" viewBox="0 0 512 512">
      <path d="m359 0l10 8-210 248 210 248-10 8-216-256z"/>
    </symbol>
  
    <symbol id="if-arrow-right" viewBox="0 0 512 512">
      <path d="m153 512l-10-8 210-248-210-248 10-8 216 256z"/>
    </symbol>
  
    <symbol id="if-back" viewBox="0 0 512 512">
      <path d="m512 305c0 88-71 161-159 161l-331 0c-13 0-22-9-22-22 0-12 9-22 22-22l331 0c64 0 115-53 115-117 0-64-51-117-115-117l-280 0 64 64c9 9 9 22 0 31-4 4-9 6-14 6-6 0-11-2-15-6l-103-100c-9-9-9-22 0-31l99-101c9-9 22-9 31 0 9 9 9 22 0 31l-60 62 278 0c88 0 159 74 159 161z"/>
    </symbol>
  
    <symbol id="if-uparrow" viewBox="0 0 512 512">
      <path d="m256 0c-142 0-256 114-256 256 0 142 114 256 256 256 142 0 256-114 256-256 0-142-114-256-256-256z m0 467c-116 0-211-95-211-211 0-116 95-211 211-211 116 0 211 95 211 211 0 116-95 211-211 211z m16-302c-8-7-24-7-32 0l-88 89c-8 8-8 24 0 32 8 7 23 7 31 0l49-50 0 126c0 12 10 24 24 24 12 0 24-10 24-24l0-126 49 50c4 3 10 5 16 5 6 0 11-2 15-5 8-8 8-24 0-32z"/>
    </symbol>
  
    <symbol id="if-circlearrow" viewBox="0 0 512 512">
      <path d="m280 144c-2-2-6-4-8-4-4 0-6 2-8 4-4 4-4 12 0 17l81 81-207 0c-6 0-12 6-12 12 0 6 6 12 12 12l209 0-85 85c-4 3-4 11 0 17 4 4 12 4 18 0l102-102c2-2 4-6 4-8 0-4-2-6-4-8z m-24-144c-138 0-256 118-256 256 0 138 118 256 256 256 138 0 256-118 256-256 0-138-118-256-256-256z m0 488c-126 0-232-106-232-232 0-126 106-232 232-232 126 0 232 106 232 232 0 126-106 232-232 232z"/>
    </symbol>
  
    <symbol id="if-up-arrow" viewBox="0 0 512 512">
      <path d="m256 205l-205 205-51-52 256-256 256 256-51 52z"/>
    </symbol>
  
    <symbol id="if-cross" viewBox="0 0 512 512">
      <path d="m501 503c-13 13-33 13-44 0l-201-201-201 203c-13 12-33 12-46 0-13-13-13-33 0-44l201-203-201-205c-13-13-13-33 0-46 13-12 33-12 44 0l201 203 203-201c13-13 33-13 46 0 13 13 13 33 0 44l-203 203 201 203c13 11 13 31 0 44z"/>
    </symbol>
  
    <symbol id="if-digits" viewBox="0 0 512 512">
      <path d="m256 512c-142 0-256-114-256-256 0-65 26-130 71-177 6-10 18-14 27-8 10 6 14 18 8 27-2 2-4 4-6 6-82 85-82 223 2 306 85 82 223 82 308-2 84-85 82-223-2-306-40-39-95-63-152-63-12 0-20-7-20-19 0-12 8-20 20-20 142 0 256 114 256 256 0 142-114 256-256 256z m0-315c-12 0-20-8-20-20 0-12 8-19 20-19 55 0 98 43 98 98 0 55-43 98-98 98-12 0-20-7-20-19 0-12 8-20 20-20 33 0 59-26 59-59 0-33-26-59-59-59z m138 59c0-77-61-138-138-138-12 0-20-8-20-20 0-11 8-19 20-19 98 0 177 79 177 177 0 98-79 177-177 177-98 0-177-79-177-177 0-12 8-20 19-20 12 0 20 8 20 20 0 77 61 138 138 138 77 0 138-61 138-138z"/>
    </symbol>
  
    <symbol id="if-downarrow" viewBox="0 0 512 512">
      <path d="m256 512c142 0 256-114 256-256 0-142-114-256-256-256-142 0-256 114-256 256 0 142 114 256 256 256z m0-467c116 0 211 95 211 211 0 116-95 211-211 211-116 0-211-95-211-211 0-116 95-211 211-211z m-16 302c8 7 24 7 32 0l88-89c8-8 8-24 0-32-8-7-23-7-31 0l-49 50 0-126c0-12-10-24-24-24-12 0-24 10-24 24l0 126-49-50c-4-3-10-5-16-5-6 0-11 2-15 5-8 8-8 24 0 32z"/>
    </symbol>
  
    <symbol id="if-menu-icon" viewBox="0 0 512 512">
      <path d="m32 27l448 0c18 0 32 16 32 35 0 18-14 32-32 32l-448 0c-18-3-32-16-32-35 0-18 14-32 32-32z m0 391l448 0c18 0 32 16 32 35 0 18-14 32-32 32l-448 0c-18 0-32-16-32-35 0-16 14-29 32-32z m0-194l448 0c18 0 32 16 32 34 0 19-14 32-32 32l-448 0c-18-2-32-16-32-34 0-18 14-32 32-32z"/>
    </symbol>
  
    <symbol id="if-scroll" viewBox="0 0 512 512">
      <path d="m303 0l-94 0c-65 0-116 51-116 116l0 235c0 88 72 161 163 161 91 0 163-73 163-163l0-233c0-65-51-116-116-116z m83 349c0 72-59 130-130 130-71 0-130-60-130-130l0-233c0-45 37-83 83-83l94 0c46 0 83 38 83 83z m-87-132l-43 31-45-31c-4-4-10-2-14 2-4 4-2 9 2 13l51 36c2 2 4 2 6 2 2 0 4-2 6-2l49-36c0 0 0 0 2-2 4-4 4-9 2-13-4-4-12-4-16 0z m0 76l-43 32-43-32c0 0 0 0-2-2-4-2-10-2-14 4-2 4-2 10 4 14l49 36c2 2 4 2 6 2 2 0 4 0 6-2l49-36c0 0 0 0 2-2 4-4 4-10 2-14-4-4-12-4-16 0z m0 73l-43 32-45-32c0 0 0 0-2-2-4-2-10-2-14 4-2 4-2 10 4 14l51 35c2 2 4 2 6 2 2 0 4 0 6-2l49-35c0 0 0 0 2-2 4-4 4-10 2-14-4-2-12-2-16 0z m-43-189c10 0 20-8 20-17l0-44c0-12-8-20-20-20-12 0-20 8-20 20l0 42c0 11 8 19 20 19z"/>
    </symbol>
  
    <symbol id="if-two-levels" viewBox="0 0 512 512">
      <path d="m501 335l-91-50-42 22 82 44-194 104-194-104 82-44-42-22-91 50c-7 3-11 10-11 16 0 7 4 14 11 17l237 127c2 2 7 3 9 3 3 0 7-1 10-3l235-126c7-2 11-9 11-16-1-8-5-14-12-18z m-490-158l91 50 42 22 104 55c2 2 7 3 9 3 3 0 7-1 10-3l102-55 42-22 91-50c7-3 11-10 11-16 0-7-4-14-11-17l-236-127c-6-3-14-3-20 0l-235 126c-7 4-11 9-11 18 0 8 4 12 11 16z m244-122l195 106-82 44-41 22-71 37-72-38-41-23-82-44z"/>
    </symbol>
  
    <symbol id="if-filter" viewBox="0 0 512 512">
      <path d="m20 140l297 0c8 21 30 39 55 39 26 0 47-16 55-39l65 0c12 0 20-10 20-20 0-10-10-20-20-20l-63 0c-8-21-29-39-55-39-25 0-47 16-55 39l-299 0c-10-2-20 8-20 18 0 10 10 22 20 22z m472 96l-321 0c-8-21-29-39-55-39-25 0-47 16-55 39l-41 0c-12 0-20 10-20 20 0 12 10 20 20 20l41 0c8 21 30 39 55 39 26 0 47-16 55-39l321 0c12 0 20-10 20-20 0-12-10-20-20-20z m0 136l-136 0c-7-21-29-39-55-39-25 0-47 16-55 39l-226 0c-12 0-20 10-20 20 0 10 10 20 20 20l226 0c8 21 30 39 55 39 26 0 48-16 55-39l136 0c12 0 20-10 20-20 0-10-10-20-20-20z"/>
    </symbol>
  
</svg>
