<?xml version="1.0" encoding="iso-8859-1"?>
<!-- Generator: Adobe Illustrator 19.0.0, SVG Export Plug-In . SVG Version: 6.00 Build 0)  -->
<svg version="1.1" id="Layer_1" xmlns="http://www.w3.org/2000/svg" xmlns:xlink="http://www.w3.org/1999/xlink" x="0px" y="0px"
	 viewBox="0 0 11.35 11.88" style="enable-background:new 0 0 11.35 11.88;" xml:space="preserve">
<path id="XMLID_15_" style="fill:#FFFFFF;" d="M0.05,5.68C0.019,5.763,0.002,5.851,0,5.94l0,0C0.002,6.029,0.019,6.117,0.05,6.2
	v0.09c0.014,0.035,0.031,0.068,0.05,0.1l3.78,5.2c0.287,0.328,0.786,0.362,1.115,0.075c0.289-0.253,0.354-0.677,0.155-1.005
	L2.33,6.74h8.23c0.436,0,0.79-0.354,0.79-0.79s-0.354-0.79-0.79-0.79H2.33L5.2,1.22c0.226-0.373,0.108-0.859-0.265-1.085
	C4.607-0.064,4.183,0.001,3.93,0.29L0.14,5.52c-0.019,0.032-0.036,0.065-0.05,0.1L0.05,5.68z"/>
</svg>
