<?xml version="1.0" encoding="utf-8"?>
<!-- Generator: Adobe Illustrator 19.0.0, SVG Export Plug-In . SVG Version: 6.00 Build 0)  -->
<svg version="1.1" id="Layer_1" xmlns="http://www.w3.org/2000/svg" xmlns:xlink="http://www.w3.org/1999/xlink" x="0px" y="0px"
	 viewBox="-334 399.5 150 163" enable-background="new -334 399.5 150 163" xml:space="preserve">
<g>
	<path fill="#E7D680" d="M-202,470.404l-2.4-6.478c-0.3-0.904-0.75-2.561-0.75-3.164c0-0.151,0.15-0.753,0.45-1.657v-0.151v-0.151
		c0.75-2.712,0.75-7.984-4.05-11.148c3-4.821,0.75-9.641-1.05-11.75l-0.15-0.151l-0.15-0.151c-0.75-0.603-1.05-1.205-1.05-1.205l0,0
		c-0.3-0.452-0.6-1.958-0.75-3.164l-0.6-6.93l-0.15-2.109l-2.25-0.753l-6.6-2.109c-1.05-0.301-2.4-1.055-2.85-1.356
		c0,0-0.45-0.452-1.05-1.356v-0.151v-0.151c-0.3-0.452-3.15-4.218-7.95-4.218c-1.05,0-2.1,0.151-3.15,0.603
		c-1.65-4.519-5.7-6.478-9.45-6.478c-0.3,0-0.45,0-0.45,0h-0.15h-0.15c-0.45,0-0.75,0-1.05,0c-0.3,0-0.45,0-0.6,0l0,0
		c-0.6-0.151-1.95-0.753-2.85-1.506l-5.7-3.766l-2.1-1.356l-1.95,1.356l-5.7,3.766c-0.9,0.603-2.25,1.356-2.85,1.506
		c0,0-0.3,0-0.6,0c-0.3,0-0.75,0-1.05,0h-0.15c0,0-0.15,0-0.45,0c-3.75,0-7.8,1.958-9.45,6.478c-1.05-0.301-2.1-0.603-3.15-0.603
		c-4.95,0-7.65,3.766-7.95,4.218v0.151v0.151c-0.45,0.753-0.9,1.205-1.05,1.356l0,0c-0.45,0.301-1.8,1.055-3,1.356l-6.45,2.109
		l-2.7,0.753l-0.15,2.41l-0.6,6.93c-0.15,1.055-0.45,2.561-0.75,3.164c0,0.151-0.45,0.603-1.05,1.356l-0.15,0.151l-0.15,0.151
		c-1.8,2.109-4.2,6.93-1.05,11.75c-4.8,3.013-4.8,8.436-4.05,11.148v0.151v0.151c0.3,0.904,0.45,1.506,0.45,1.657l0,0
		c0,0.603-0.3,2.109-0.75,3.164l-2.4,6.026l-0.9,2.26l1.8,1.657l4.95,4.821c0.75,0.753,1.8,1.958,2.1,2.561
		c0,0.151,0.3,0.603,0.3,1.657v0.151v0.151c0.45,2.712,2.85,7.532,8.4,8.135c-0.6,5.725,3.45,9.039,6,10.093h0.15h0.15
		c0.9,0.301,1.35,0.603,1.5,0.753l0,0c0.45,0.301,1.35,1.506,1.95,2.561l3.75,5.875l1.2,2.109l2.4-0.301l6.75-0.904
		c0,0,1.05-0.151,1.95-0.151c0.75,0,1.05,0,1.2,0.151c0.15,0,0.6,0.301,1.5,0.753h0.15h0.15c0.3,0.151,2.4,1.205,4.95,1.205
		c2.55,0,4.8-1.055,6.75-2.862c1.8,1.808,4.2,2.862,6.75,2.862s4.65-1.055,4.95-1.205h0.15h0.15c0.75-0.452,1.35-0.753,1.5-0.753
		l0,0c0,0,0.3-0.151,1.2-0.151c1.05,0,1.95,0.151,1.95,0.151l6.75,0.904l2.4,0.301l1.2-2.109l3.45-5.875
		c0.6-0.904,1.5-2.109,1.95-2.561c0.15,0,0.6-0.301,1.5-0.753h0.15h0.15c2.55-1.055,6.75-4.369,6-10.093
		c5.7-0.603,7.95-5.574,8.4-8.135v-0.151v-0.151c0.15-0.904,0.3-1.506,0.3-1.657l0,0c0.15-0.452,1.2-1.657,2.1-2.561l4.95-4.821
		l1.8-1.657L-202,470.404z M-208.75,473.718l4.35-0.904l-4.95,4.821c-0.75,0.753-2.1,2.26-2.55,3.164l0,0l0,0
		c0,0-0.3,0.753-0.45,2.26l0,0l0,0c-0.3,2.109-2.25,6.177-6.9,6.478c-0.3,0-0.6,0-0.9,0l0,0c-0.15,0-0.3,0-0.6,0h-0.15
		c-0.15,0-0.45,0-0.6-0.151c0.15,0.151,0.15,0.452,0.3,0.603v0.151c0.15,0.452,0.3,0.904,0.3,1.356c0.6,4.67-2.7,7.382-4.8,8.286
		l0,0l0,0c-1.35,0.452-2.1,0.904-2.1,0.904c-0.9,0.603-2.1,2.41-2.55,3.164l-3.45,5.875l-0.15-4.519c-0.9,0.452-1.8,0.753-2.7,0.753
		c-0.6,0.753-1.35,1.356-2.25,1.657l3.45,2.862l-6.75-0.904c0,0-1.05-0.151-2.25-0.151c-1.05,0-1.5,0.151-1.8,0.151l0,0l0,0
		c0,0-0.75,0.151-1.95,1.055l0,0l0,0c-0.15,0.151-1.8,1.055-4.05,1.055c-1.5,0-3.6-0.452-5.4-2.26c-0.3-0.301-0.6-0.753-0.9-1.055
		l0,0l0,0c-0.3,0-0.45-0.301-0.45-0.452c-0.15,0.151-0.15,0.452-0.3,0.603l0,0l0,0c-0.3,0.452-0.6,0.753-0.9,1.055
		c-1.8,1.958-3.9,2.26-5.4,2.26c-2.1,0-3.75-0.904-4.05-1.055l0,0l0,0c-1.2-0.753-1.95-1.055-1.95-1.055
		c-0.3,0-0.75-0.151-1.8-0.151c-1.2,0-2.25,0.151-2.25,0.151l-6.75,0.904l3.45-2.862c-0.9-0.301-1.65-0.904-2.25-1.657
		c-0.9,0-1.95-0.301-2.7-0.753l-0.15,4.519l-3.45-5.875c-0.6-0.904-1.65-2.561-2.55-3.164l0,0l0,0c0,0-0.6-0.452-1.95-0.904l0,0l0,0
		c-2.1-0.904-5.4-3.616-4.8-8.286c0-0.452,0.15-0.904,0.3-1.356v-0.151c0-0.151,0.15-0.452,0.3-0.603c-0.3,0-0.45,0.151-0.6,0.151
		h-0.15c-0.15,0-0.45,0-0.6,0c-0.3,0-0.6,0-0.9,0c-4.65-0.452-6.6-4.369-6.9-6.478l0,0l0,0c-0.15-1.506-0.45-2.26-0.45-2.26
		c-0.45-1.055-1.95-2.561-2.55-3.164l-4.95-4.821l4.35,0.904c-0.3-0.904-0.3-1.808-0.15-2.862c-0.6-0.753-1.05-1.657-1.2-2.561
		l-3.6,2.712l2.4-6.478c0.3-0.904,0.9-2.862,0.9-3.917l0,0l0,0c0,0,0-0.753-0.45-2.109l0,0l0,0c-0.6-2.109-0.6-6.478,3.45-8.888
		c0.45-0.301,0.75-0.452,1.35-0.603h0.15c0.15,0,0.3-0.151,0.6-0.151c-0.3-0.151-0.45-0.452-0.45-0.452l0,0
		c-0.3-0.452-0.6-0.753-0.9-1.205c-2.55-3.917-0.75-7.834,0.75-9.491l0,0l0,0c1.05-1.055,1.35-1.808,1.35-1.808
		c0.45-1.055,0.9-3.013,0.9-3.917l0.6-6.93l2.1,4.067c0.6-0.753,1.2-1.356,2.1-1.808c0.3-0.904,0.6-1.808,1.35-2.561l-4.8-1.657
		l6.6-2.109c1.05-0.301,2.85-1.055,3.6-1.808l0,0l0,0c0,0,0.6-0.603,1.35-1.808l0,0l0,0c0.15-0.151,2.4-3.314,6.3-3.314
		c0.9,0,1.8,0.151,2.7,0.452c0.45,0.151,0.9,0.301,1.35,0.603h0.15c0.15,0.151,0.3,0.301,0.6,0.452c0-0.301,0-0.452,0-0.603v-0.151
		c0.15-0.452,0.15-0.904,0.3-1.356c1.35-3.917,4.8-5.273,7.65-5.273c0.15,0,0.3,0,0.3,0h0.15c0.45,0,0.9,0.151,1.35,0.151
		c0.6,0,0.9,0,0.9,0c1.05-0.151,2.85-1.205,3.6-1.808l5.7-4.067l-1.8,4.067c0.15,0,0.3,0,0.3,0c0.9,0,1.65,0.151,2.4,0.603
		c0.75-0.301,1.5-0.603,2.4-0.603c0.15,0,0.3,0,0.3,0l-1.8-4.067l5.7,3.766c0.9,0.603,2.55,1.506,3.6,1.808l0,0l0,0c0,0,0.3,0,0.9,0
		c0.45,0,0.9,0,1.35-0.151l0,0l0,0c0,0,0.15,0,0.3,0c2.85,0,6.3,1.356,7.65,5.273c0.15,0.452,0.3,0.904,0.3,1.356v0.151
		c0,0.151,0,0.452,0,0.603c0.15-0.151,0.3-0.301,0.6-0.452h0.15c0.45-0.301,0.9-0.452,1.35-0.603c0.9-0.301,1.8-0.452,2.7-0.452
		c3.9,0,6.3,3.314,6.3,3.314l0,0l0,0c0.75,1.205,1.35,1.808,1.35,1.808c0.9,0.753,2.85,1.506,3.6,1.808l6.6,2.109l-4.35,1.205
		c0.6,0.753,1.05,1.506,1.35,2.561c0.9,0.452,1.65,1.055,2.1,1.808l2.1-4.067l0.6,6.93c0.15,1.055,0.45,3.013,0.9,3.917l0,0l0,0
		c0,0,0.45,0.753,1.35,1.657l0,0l0,0c1.5,1.657,3.3,5.574,0.75,9.491c-0.3,0.452-0.6,0.753-0.9,1.205l0,0c0,0-0.3,0.301-0.45,0.452
		c0.3,0,0.6,0.151,0.6,0.151h0.15c0.45,0.151,0.9,0.452,1.35,0.603c3.9,2.41,4.05,6.779,3.45,8.888l0,0l0,0
		c-0.45,1.356-0.45,2.26-0.45,2.26c0,1.055,0.6,3.164,0.9,3.917l2.4,6.478l-3.6-2.712c-0.15,0.904-0.6,1.808-1.2,2.561
		C-208.45,471.911-208.45,472.814-208.75,473.718z"/>
	<path fill="#E7D680" d="M-220.15,449.163c-1.2-0.603-3.75-2.41-3.75-7.08c-0.9-0.452-2.1-1.356-3.15-3.013l1.05-1.055
		c-0.3-0.301-0.75-0.753-1.05-1.506c-0.75-0.151-1.5-0.452-2.1-1.205c-0.6-0.603-0.75-1.506-0.6-2.26
		c-0.6-0.452-0.9-1.055-1.2-1.356l-1.2,0.753c-1.35-1.506-1.95-2.712-2.25-3.766c-4.65-1.055-5.7-3.917-6-5.122
		c0-0.151,0-0.301,0-0.301c-0.15-0.753-0.15-1.356-0.15-1.958c-0.45,0.452-1.05,0.753-1.65,1.055c-0.15,0-0.15,0.151-0.3,0.151
		c-0.45,0.301-1.35,0.603-2.55,0.603c-1.35,0-3.15-0.452-5.25-2.109c-0.75,0.301-1.8,0.603-3.15,0.603c-0.3,0-0.75,0-1.2,0
		l-0.15-1.506c-0.15,0-0.45,0-0.75,0s-0.75,0-1.05-0.151c-0.6,0.603-1.35,0.904-2.25,0.904s-1.65-0.301-2.25-0.904
		c-0.3,0-0.75,0.151-1.05,0.151c-0.3,0-0.45,0-0.75,0l-0.15,1.506c-0.45,0-0.75,0-1.2,0c-1.35,0-2.4-0.301-3.15-0.603
		c-2.1,1.657-3.9,2.109-5.25,2.109c-1.2,0-2.1-0.301-2.55-0.603c-0.15,0-0.3-0.151-0.3-0.151c-0.6-0.301-1.2-0.603-1.65-1.055
		c0,0.603,0,1.205-0.15,1.958c0,0.151,0,0.151,0,0.301c-0.3,1.205-1.5,4.218-6,5.122c-0.3,1.055-0.9,2.26-2.25,3.766l-1.2-0.753
		c-0.3,0.452-0.6,0.904-1.2,1.356c0.15,0.753-0.15,1.657-0.6,2.26c-0.45,0.603-1.35,1.055-2.1,1.205
		c-0.3,0.603-0.75,1.055-1.05,1.506l1.05,1.055c-1.05,1.657-2.25,2.561-3.15,3.013c0,4.67-2.55,6.478-3.75,7.08
		c-0.15,0-0.3,0.151-0.3,0.151c-0.6,0.301-1.2,0.452-1.8,0.603c0.45,0.452,1.05,0.904,1.35,1.356c0,0,0.15,0.151,0.15,0.301
		c0.75,1.055,2.25,3.766,0.3,7.984c0.6,0.753,1.35,2.109,1.5,4.067l-1.65,0.603c0.15,0.452,0.3,1.055,0.3,1.808
		c0.75,0.452,1.2,1.055,1.35,1.958s0,1.657-0.45,2.41c0.3,0.753,0.45,1.356,0.45,1.808l1.5-0.151c0.6,1.958,0.6,3.314,0.45,4.369
		c3.75,2.862,3.45,6.026,3.15,7.382c0,0.151,0,0.301-0.15,0.301c-0.15,0.753-0.45,1.356-0.6,1.808c0.6-0.151,1.2-0.301,1.95-0.301
		c0.15,0,0.15,0,0.3,0l0,0c1.05,0,4.35,0.452,6.45,4.821l0,0c1.2,0,2.7,0.452,4.05,1.356l-0.3,1.205
		c0.45,0.151,1.05,0.452,1.65,0.753c0.3-0.151,0.75-0.151,1.05-0.151c0.45,0,0.9,0.151,1.35,0.301c0.75,0.452,1.35,1.055,1.65,1.808
		c0.75,0.151,1.2,0.452,1.65,0.753l0.75-1.205c1.95,0.753,3,1.506,3.6,2.41c0.9-0.151,1.65-0.301,2.4-0.301
		c3,0,4.65,1.506,5.25,2.26c0.15,0.151,0.15,0.151,0.15,0.301c0.45,0.603,0.75,1.055,1.05,1.657c0.3-0.603,0.6-1.055,1.05-1.657
		c0-0.151,0.15-0.151,0.15-0.301c0.6-0.753,2.25-2.26,5.25-2.26c0.75,0,1.5,0.151,2.4,0.301c0.6-0.904,1.8-1.657,3.6-2.41
		l0.75,1.205c0.45-0.301,0.9-0.603,1.65-0.753c0.3-0.753,0.75-1.356,1.65-1.808c0.45-0.151,0.9-0.301,1.35-0.301
		c0.3,0,0.75,0,1.05,0.151c0.6-0.452,1.2-0.753,1.65-0.753l-0.45-1.356c1.5-0.904,2.85-1.356,4.05-1.356l0,0
		c2.1-4.369,5.25-4.821,6.45-4.821l0,0c0.15,0,0.3,0,0.3,0c0.75,0,1.35,0.151,1.95,0.301c-0.3-0.603-0.45-1.205-0.6-1.808
		c0-0.151,0-0.151-0.15-0.301c-0.3-1.205-0.45-4.369,3.15-7.382c-0.3-1.055-0.3-2.41,0.45-4.369l1.5,0.151
		c0-0.452,0.15-1.055,0.45-1.808c-0.45-0.603-0.6-1.506-0.45-2.41c0.15-0.904,0.75-1.506,1.35-1.958c0-0.753,0.15-1.356,0.3-1.808
		l-1.35-0.452c0.3-1.958,0.9-3.314,1.5-4.067c-2.1-4.218-0.45-6.93,0.3-7.984c0.15-0.151,0.15-0.151,0.15-0.301
		c0.45-0.452,0.9-1.055,1.35-1.356c-0.6-0.151-1.2-0.301-1.8-0.603C-219.85,449.314-220,449.314-220.15,449.163z M-259,495.411
		c-19.8,0-35.85-16.119-35.85-36.155c0-6.779,1.95-13.257,5.1-18.68c0.15-0.151,0.3-0.301,0.3-0.603l0.9-1.356l0,0
		c0.9-1.356,1.95-2.712,3-3.917l0,0l1.05-1.055c0.15-0.151,0.3-0.301,0.45-0.603c5.4-5.122,12.3-8.738,19.95-9.792
		c0.3,0,0.6,0,0.9,0l1.5-0.151l0,0c0.75,0,1.65-0.151,2.4-0.151c0.9,0,1.65,0,2.4,0.151l0,0l1.5,0.151c0.3,0,0.6,0,0.9,0
		c7.65,1.055,14.7,4.519,19.95,9.792c0.15,0.151,0.3,0.301,0.45,0.603l1.05,1.055l0,0c1.05,1.205,2.1,2.561,3,3.917l0,0l0.9,1.356
		c0.15,0.151,0.3,0.301,0.3,0.603c3.3,5.423,5.1,11.75,5.1,18.68C-223.15,479.292-239.2,495.411-259,495.411z"/>
	<path fill="#E7D680" d="M-240.1,415.267c-0.9-5.423-6.15-5.122-6.15-5.122c-1.8,0.151-2.85,0-2.85,0
		c-1.8-0.301-4.35-2.109-4.35-2.109c2.1,4.67,4.5,4.369,4.5,4.369c0,3.766,3,3.616,3,3.616c-0.9-0.904-0.9-3.917,1.65-3.164
		s1.5,3.164,1.5,3.164c-0.9,2.41-3.6,1.657-3.6,1.657c-3-0.904-4.35-4.067-4.35-4.067c-1.2-3.013-4.95-6.628-8.25-4.067
		c-3.3-2.561-7.05,1.055-8.25,4.067c0,0-1.35,3.164-4.35,4.067c0,0-2.7,0.904-3.6-1.657c0,0-0.9-2.41,1.5-3.164
		c2.55-0.753,2.4,2.41,1.65,3.164c0,0,3.15,0.151,3-3.616c0,0,2.4,0.301,4.5-4.369c0,0-2.55,1.657-4.35,2.109c0,0-1.05,0.151-2.85,0
		c0,0-5.25-0.301-6.15,4.971c0,0-0.45,3.465,3.15,5.273c0,0,3,2.109,7.05-2.26c0,0,0.75,1.657,4.2,1.205c0,0-0.9-0.301-1.8-1.808
		c0,0-2.4-3.465,1.8-5.273c0,0,2.55-1.055,3.15,1.657c0,0,0.45,1.958-1.35,2.26c0,0-1.65,0.452-1.2-1.205c0,0,0.3-0.904,1.5-1.356
		c0,0-3.15-0.603-3.3,1.958c0,0-0.15,1.657,1.65,2.26c0,0,1.2,0.452,3.15-0.452c0,0,0,0,0.15,0c0,0.151-0.15,0.301-0.15,0.452
		c0,0.603,0.45,1.055,1.05,1.055s1.05-0.452,1.05-1.055c0-0.151,0-0.301-0.15-0.452c0,0,0,0,0.15,0
		c1.95,0.904,3.15,0.452,3.15,0.452c1.65-0.603,1.65-2.26,1.65-2.26c-0.15-2.561-3.3-1.958-3.3-1.958c1.2,0.603,1.5,1.356,1.5,1.356
		c0.3,1.506-1.2,1.205-1.2,1.205c-1.8-0.301-1.35-2.26-1.35-2.26c0.15-2.561,2.85-1.506,2.85-1.506c4.2,1.808,1.8,5.273,1.8,5.273
		c-1.05,1.506-1.8,1.808-1.8,1.808c3.45,0.301,4.2-1.205,4.2-1.205c4.05,4.218,7.05,2.26,7.05,2.26
		C-239.65,418.732-240.1,415.267-240.1,415.267z"/>
	<path fill="#E7D680" d="M-281.5,416.924c-4.65-2.561-7.8,1.657-7.8,1.657c-1.05,1.657-1.8,2.26-1.8,2.26
		c-1.35,1.205-4.35,2.109-4.35,2.109c4.95,1.205,6.3-0.753,6.3-0.753c3,2.41,4.8-0.151,4.8-0.151c-1.2,0.151-3.75-1.808-1.5-3.314
		c2.1-1.506,3.45,0.753,3.45,0.753c1.35,2.26-1.05,3.917-1.05,3.917c-2.55,1.808-5.85,0.904-5.85,0.904
		c-3.15-0.904-8.4-0.301-8.4,3.917c-4.05,0.904-3.6,6.177-1.95,9.039c0,0,1.65,3.013,0.45,5.875c0,0-1.05,2.712-3.45,1.808
		c0,0-2.4-0.753-1.5-3.164c1.05-2.41,3.3-0.452,3.45,0.753c0,0,2.1-2.41-0.9-4.67c0,0,1.65-1.657-0.6-6.327c0,0-0.3,3.013-1.2,4.67
		c0,0-0.45,0.904-1.8,2.26c0,0-3.45,3.917,0.15,7.984c0,0,2.4,2.561,6.15,0.753c0,0,3.45-1.055,2.7-6.93c0,0,1.65,0.452,3.6-2.561
		c0,0-0.75,0.452-2.55,0.301c0,0-4.2-0.301-3-4.67c0,0,0.9-2.712,3.3-1.506c0,0,1.8,0.904,0.9,2.41c0,0-0.6,1.506-1.65,0.301
		c0,0-0.45-0.753-0.15-1.958c0,0-2.4,2.109-0.6,3.766c0,0,1.2,1.055,2.7,0.151c0,0,1.05-0.603,1.65-2.712c0,0,0,0,0-0.151
		c0,0.151,0.15,0.301,0.3,0.301c0.45,0.301,1.05,0.301,1.5-0.151c0.3-0.452,0.3-1.055-0.15-1.506c-0.15-0.151-0.3-0.151-0.45-0.151
		c0,0,0,0,0.15,0c1.95-0.904,2.25-2.109,2.25-2.109c0.6-1.657-0.75-2.712-0.75-2.712c-2.1-1.506-3.6,1.356-3.6,1.356
		c1.2-0.603,1.95-0.301,1.95-0.301c1.35,0.753,0.15,1.657,0.15,1.657c-1.35,1.356-2.55-0.301-2.55-0.301
		c-1.8-2.109,0.6-3.616,0.6-3.616c4.05-2.109,5.25,1.958,5.25,1.958c0.45,1.657,0.3,2.561,0.3,2.561
		c2.4-2.561,1.65-4.067,1.65-4.067c5.85-0.603,6.15-4.218,6.15-4.218C-278.65,418.883-281.5,416.924-281.5,416.924z"/>
	<path fill="#E7D680" d="M-306.1,450.669c-4.95,2.109-3.45,7.08-3.45,7.08c0.6,1.808,0.6,2.862,0.6,2.862
		c0,1.808-1.05,4.67-1.05,4.67c4.05-3.164,3.3-5.423,3.3-5.423c3.75-0.753,2.85-3.766,2.85-3.766c-0.6,1.055-3.6,1.808-3.45-0.753
		c0.15-2.561,2.7-2.26,2.7-2.26c2.55,0.301,2.4,3.164,2.4,3.164c-0.15,3.164-3,5.122-3,5.122c-2.7,1.958-5.4,6.327-2.1,9.039
		c-1.8,3.766,2.55,6.628,5.85,7.231c0,0,3.45,0.603,4.95,3.314c0,0,1.35,2.561-0.75,3.917c0,0-2.1,1.506-3.45-0.753
		c-1.35-2.26,1.8-2.862,2.85-2.26c0,0-0.6-3.013-4.2-2.26c0,0-0.3-2.41-5.25-3.465c0,0,2.25,2.109,3,3.766c0,0,0.45,0.904,0.6,2.862
		c0,0,0.9,5.273,6.3,4.971c0,0,3.45-0.301,4.35-4.369c0,0,1.35-3.465-3.75-6.478c0,0,1.35-1.055,0.3-4.369c0,0-0.15,0.904-1.35,2.26
		c0,0-2.85,3.164-5.55-0.603c0,0-1.5-2.41,0.9-3.465c0,0,1.8-0.904,2.55,0.753c0,0,0.75,1.506-0.75,1.506c0,0-0.9-0.151-1.65-1.055
		c0,0,0.15,3.314,2.55,2.862c0,0,1.65-0.301,1.8-2.109c0,0,0.15-1.205-1.05-2.862c0,0,0,0,0-0.151c0.15,0,0.3,0,0.45,0
		c0.6-0.151,0.9-0.753,0.75-1.205c-0.15-0.603-0.6-0.904-1.2-0.753c-0.15,0-0.3,0.151-0.45,0.151c0,0,0,0,0-0.151
		c0.45-2.109-0.3-3.164-0.3-3.164c-1.05-1.506-2.55-1.055-2.55-1.055c-2.4,0.603-1.2,3.616-1.2,3.616
		c0.3-1.205,1.05-1.808,1.05-1.808c1.5-0.603,1.35,1.055,1.35,1.055c0.15,1.808-1.95,1.808-1.95,1.808c-2.7,0-2.4-2.712-2.4-2.712
		c0.9-4.519,4.8-2.862,4.8-2.862c1.65,0.603,2.1,1.356,2.1,1.356c-0.45-3.465-2.1-3.766-2.1-3.766c3.3-4.971,0.6-7.532,0.6-7.532
		C-302.8,449.464-306.1,450.669-306.1,450.669z"/>
	<path fill="#E7D680" d="M-295.15,490.892c-1.5,5.273,3.3,7.231,3.3,7.231c1.8,0.603,2.55,1.205,2.55,1.205
		c1.5,1.055,3,3.766,3,3.766c0.15-5.122-2.1-6.026-2.1-6.026c1.65-3.465-1.2-4.67-1.2-4.67c0.45,1.055-0.9,4.067-2.85,2.26
		c-1.95-1.808,0-3.465,0-3.465c1.8-1.808,3.9,0.151,3.9,0.151c2.4,2.109,2.25,5.574,2.25,5.574c-0.15,3.314,1.65,8.286,5.7,7.231
		c1.8,3.766,6.75,2.109,9.15,0c0,0,2.55-2.26,5.7-1.808c0,0,2.85,0.452,2.55,3.013c0,0-0.15,2.561-2.7,2.109
		c-2.55-0.452-1.2-3.164,0-3.616c0,0-2.7-1.506-4.35,1.958c0,0-2.1-1.205-6,2.109c0,0,3-0.452,4.8,0c0,0,1.05,0.301,2.55,1.205
		c0,0,4.65,2.561,7.65-1.808c0,0,1.95-3.013-0.6-6.177c0,0-1.8-3.164-7.35-1.055c0,0,0-1.808-3.3-3.013c0,0,0.6,0.753,0.9,2.41
		c0,0,0.6,4.218-3.9,4.067c0,0-2.85-0.301-2.1-3.013c0,0,0.45-1.958,2.25-1.506c0,0,1.65,0.301,0.6,1.506c0,0-0.6,0.603-1.95,0.603
		c0,0,2.55,1.958,3.75-0.301c0,0,0.75-1.356-0.45-2.712c0,0-0.9-0.904-3-0.904c0,0,0,0-0.15,0c0.15-0.151,0.15-0.151,0.3-0.301
		c0.3-0.452,0-1.055-0.6-1.356c-0.45-0.301-1.2,0-1.35,0.452c0,0.151-0.15,0.301-0.15,0.452c0,0,0,0,0-0.151
		c-1.35-1.657-2.55-1.657-2.55-1.657c-1.8-0.151-2.4,1.356-2.4,1.356c-1.05,2.41,2.1,3.164,2.1,3.164
		c-0.75-1.055-0.75-1.958-0.75-1.958c0.45-1.506,1.65-0.452,1.65-0.452c1.5,1.055,0.3,2.712,0.3,2.712
		c-1.65,2.109-3.6,0.151-3.6,0.151c-3-3.465,0.75-5.574,0.75-5.574c1.5-0.904,2.4-0.753,2.4-0.753c-3-1.808-4.35-0.753-4.35-0.753
		c-1.8-5.574-5.4-5.122-5.4-5.122C-293.95,487.578-295.15,490.892-295.15,490.892z"/>
	<path fill="#E7D680" d="M-257.05,507.463c3.15,4.369,7.65,1.808,7.65,1.808c1.5-1.055,2.55-1.205,2.55-1.205c1.8-0.452,4.8,0,4.8,0
		c-3.9-3.314-6-2.109-6-2.109c-1.65-3.465-4.35-1.958-4.35-1.958c1.05,0.452,2.55,3.164,0,3.616c-2.55,0.452-2.7-2.109-2.7-2.109
		c-0.3-2.561,2.55-3.013,2.55-3.013c3.15-0.603,5.7,1.808,5.7,1.808c2.4,2.26,7.35,3.917,9.15,0c4.05,0.904,5.85-3.917,5.7-7.231
		c0,0-0.15-3.465,2.1-5.574c0,0,2.1-1.958,3.9-0.151c0,0,1.95,1.808,0,3.465c-1.95,1.808-3.15-1.055-2.85-2.26
		c0,0-2.85,1.205-1.2,4.67c0,0-2.25,0.753-2.1,6.026c0,0,1.5-2.561,3-3.766c0,0,0.9-0.603,2.55-1.205c0,0,4.8-1.958,3.3-7.231
		c0,0-1.05-3.314-5.1-3.314c0,0-3.6-0.452-5.4,5.122c0,0-1.35-1.055-4.35,0.753c0,0,0.9,0,2.4,0.753c0,0,3.6,2.109,0.75,5.574
		c0,0-1.95,2.109-3.6-0.151c0,0-1.35-1.657,0.3-2.712c0,0,1.2-1.055,1.65,0.452c0,0,0.15,0.904-0.75,1.958c0,0,3.15-0.904,2.1-3.164
		c0,0-0.6-1.506-2.4-1.356c0,0-1.2,0-2.55,1.657c0,0,0,0,0,0.151c0-0.151,0-0.301-0.15-0.452c-0.3-0.452-0.9-0.753-1.35-0.452
		s-0.75,0.904-0.6,1.356c0,0.151,0.15,0.301,0.3,0.301c0,0,0,0-0.15,0c-2.1,0-3,0.904-3,0.904c-1.2,1.356-0.45,2.712-0.45,2.712
		c1.2,2.26,3.75,0.301,3.75,0.301c-1.2,0-1.95-0.603-1.95-0.603c-0.9-1.205,0.6-1.506,0.6-1.506c1.8-0.603,2.25,1.506,2.25,1.506
		c0.6,2.712-2.1,3.013-2.1,3.013c-4.5,0.151-3.9-4.067-3.9-4.067c0.3-1.808,0.9-2.41,0.9-2.41c-3.3,1.205-3.3,3.013-3.3,3.013
		c-5.55-2.109-7.35,1.055-7.35,1.055C-259,504.45-257.05,507.463-257.05,507.463z"/>
	<path fill="#E7D680" d="M-220.45,487.728c5.4,0.301,6.3-4.971,6.3-4.971c0.15-1.808,0.6-2.862,0.6-2.862
		c0.75-1.657,3-3.766,3-3.766c-4.95,1.055-5.25,3.465-5.25,3.465c-3.75-0.904-4.2,2.26-4.2,2.26c1.05-0.603,4.05,0,2.85,2.26
		c-1.35,2.26-3.45,0.753-3.45,0.753c-2.4-1.356-0.9-3.917-0.9-3.917c1.5-2.712,4.95-3.314,4.95-3.314
		c3.3-0.603,7.65-3.465,5.85-7.231c3.3-2.561,0.6-7.08-2.1-9.039c0,0-2.85-1.958-3-5.122c0,0-0.15-2.862,2.4-3.164
		c0,0,2.55-0.452,2.7,2.26c0.15,2.561-2.85,1.808-3.45,0.753c0,0-0.75,3.013,2.85,3.766c0,0-0.75,2.26,3.3,5.423
		c0,0-1.05-2.862-1.05-4.67c0,0,0-1.055,0.6-2.862c0,0,1.5-5.122-3.45-7.08c0,0-3.3-1.205-5.85,1.958c0,0-2.7,2.561,0.6,7.532
		c0,0-1.65,0.301-2.1,3.766c0,0,0.6-0.753,2.1-1.356c0,0,3.9-1.506,4.8,2.862c0,0,0.45,2.862-2.4,2.712c0,0-2.1,0-1.95-1.808
		c0,0,0-1.657,1.35-1.055c0,0,0.75,0.452,1.05,1.808c0,0,1.35-3.013-1.2-3.616c0,0-1.5-0.452-2.55,1.055c0,0-0.75,1.055-0.3,3.164
		c0,0,0,0,0,0.151c-0.15-0.151-0.3-0.151-0.45-0.151c-0.6-0.151-1.05,0.301-1.2,0.753c-0.15,0.603,0.15,1.205,0.75,1.205
		c0.15,0,0.3,0,0.45,0c0,0,0,0,0,0.151c-1.35,1.657-1.05,2.862-1.05,2.862c0.3,1.808,1.8,2.109,1.8,2.109
		c2.55,0.452,2.55-2.862,2.55-2.862c-0.75,1.055-1.65,1.055-1.65,1.055c-1.5,0-0.75-1.506-0.75-1.506
		c0.75-1.808,2.55-0.753,2.55-0.753c2.55,1.205,0.9,3.465,0.9,3.465c-2.7,3.766-5.55,0.603-5.55,0.603
		c-1.2-1.356-1.35-2.26-1.35-2.26c-1.05,3.314,0.3,4.369,0.3,4.369c-5.1,3.013-3.75,6.478-3.75,6.478
		C-223.9,487.427-220.45,487.728-220.45,487.728z"/>
	<path fill="#E7D680" d="M-212.95,446.753c3.6-4.067,0.15-7.984,0.15-7.984c-1.35-1.356-1.8-2.26-1.8-2.26
		c-0.9-1.657-1.2-4.67-1.2-4.67c-2.4,4.519-0.6,6.327-0.6,6.327c-3,2.41-0.9,4.67-0.9,4.67c0.15-1.205,2.55-3.164,3.45-0.753
		c1.05,2.41-1.5,3.164-1.5,3.164c-2.4,0.904-3.45-1.808-3.45-1.808c-1.2-2.862,0.45-5.875,0.45-5.875
		c1.65-2.862,2.1-8.135-1.95-9.039c0-4.218-5.1-4.971-8.4-3.917c0,0-3.3,0.904-5.85-0.904c0,0-2.4-1.657-1.05-3.917
		c0,0,1.2-2.26,3.45-0.753c2.1,1.506-0.3,3.314-1.5,3.314c0,0,1.8,2.561,4.8,0.151c0,0,1.35,2.109,6.3,0.753
		c0,0-2.85-0.904-4.35-2.109c0,0-0.75-0.603-1.8-2.26c0,0-3-4.369-7.8-1.657c0,0-3,1.808-2.1,5.875c0,0,0.3,3.616,6.15,4.218
		c0,0-0.75,1.506,1.65,4.067c0,0-0.3-0.904,0.3-2.561c0,0,1.2-4.067,5.25-1.958c0,0,2.4,1.506,0.6,3.616c0,0-1.2,1.657-2.55,0.301
		c0,0-1.35-1.055,0.15-1.657c0,0,0.9-0.301,1.95,0.301c0,0-1.5-2.862-3.6-1.356c0,0-1.35,0.904-0.75,2.712c0,0,0.3,1.205,2.25,2.109
		c0,0,0,0,0.15,0c-0.15,0-0.3,0.151-0.45,0.151c-0.45,0.301-0.45,1.055-0.15,1.506c0.3,0.452,1.05,0.603,1.5,0.151
		c0.15-0.151,0.15-0.151,0.3-0.301c0,0,0,0,0,0.151c0.45,2.109,1.65,2.712,1.65,2.712c1.5,0.904,2.7-0.151,2.7-0.151
		c1.95-1.657-0.6-3.766-0.6-3.766c0.3,1.205-0.15,1.958-0.15,1.958c-1.05,1.205-1.65-0.301-1.65-0.301c-0.9-1.657,0.9-2.41,0.9-2.41
		c2.55-1.205,3.3,1.506,3.3,1.506c1.2,4.369-3,4.67-3,4.67c-1.8,0.151-2.55-0.301-2.55-0.301c1.95,3.013,3.6,2.561,3.6,2.561
		c-0.75,5.875,2.7,6.93,2.7,6.93C-215.35,449.314-212.95,446.753-212.95,446.753z"/>
	<path fill="#E7D680" d="M-259,425.059c-18.75,0-34.05,15.366-34.05,34.197s15.15,34.348,34.05,34.348s34.05-15.366,34.05-34.197
		S-240.25,425.059-259,425.059z M-227.35,454.435c-2.4,1.356-6.3,3.013-6.9,3.164c0,0,3.75-2.26,6.3-6.177
		C-227.65,452.477-227.5,453.532-227.35,454.435z M-228.55,447.656c-1.5,3.164-3.9,8.738-8.55,8.738c-0.3,0-1.05-0.151-1.8,0
		c-0.6,0.301-1.35,0.603-1.8,1.356c-0.3,0.603-0.3,1.506-0.15,2.26c-0.6-0.603-0.75-1.506-0.75-2.26s0.3-1.506,0.6-1.958
		c0.15-0.301,0.45-0.603,0.9-0.753c-1.05-2.561,2.55-6.93,5.55-3.465c0,0-2.25-0.753-3.15,0.753c-0.9,1.657,0.6,3.013,3,2.109
		c1.65-0.603,4.5-4.067,4.65-9.792C-229.45,445.547-229,446.602-228.55,447.656z M-233.35,439.069c0.6,1.055,1.35,2.109,1.8,3.314
		c-1.5,3.164-4.05,6.177-4.05,6.177S-233.5,444.643-233.35,439.069z M-236.8,435.303c0.15,1.657,0.3,3.465,0,5.725
		c0,0-1.95-5.122-4.35-9.34C-239.65,432.742-238.15,433.948-236.8,435.303z M-256.6,448.41c0,0,1.65,5.122,8.1,4.821
		c6.6-0.301,8.85-7.984,7.5-11.6c-0.9-2.561-5.4-8.286-7.2-13.558c0.3,0.151,0.75,0.301,1.05,0.452c0.9,1.958,2.4,4.218,4.8,7.08
		c6.75,8.135,2.55,18.831-5.55,19.132C-256,454.887-256.75,450.669-256.6,448.41z M-257.2,468.747c0,0,1.05,0.151,0.75-0.904
		c0,0-0.3-0.603-1.05-1.055c0,0,1.95-0.603,2.25,1.205c0,0,0.15,1.205-0.9,1.808c0,0-0.75,0.452-2.1-0.151l0,0
		c0,0.151,0,0.151,0,0.301c0,0.452-0.3,0.753-0.75,0.753s-0.75-0.301-0.75-0.753c0-0.151,0-0.151,0-0.301l0,0
		c-1.35,0.753-2.25,0.301-2.25,0.301c-1.2-0.603-0.9-1.808-0.9-1.808c0.3-1.808,2.25-1.205,2.25-1.205
		c-0.75,0.301-1.05,1.055-1.05,1.055c-0.3,1.055,0.75,0.904,0.75,0.904c1.2-0.151,0.9-1.657,0.9-1.657
		c-0.3-1.958-1.95-1.356-1.95-1.356c-0.9,0.301-1.2,1.055-1.5,1.657c-0.15,0.301-0.45,0.753-0.9,0.753c-0.3,0-3.75,0-3.75,0
		c3.9-1.205,4.05-3.465,6.3-4.67c1.65-0.904,2.7,0.452,2.7,0.452s1.05-1.356,2.7-0.452c2.25,1.205,2.4,3.616,6.3,4.67
		c0,0-3.45,0-3.75,0c-0.45,0-0.75-0.452-0.9-0.753c-0.3-0.603-0.6-1.356-1.5-1.657c0,0-1.65-0.603-1.95,1.356
		C-258.25,467.09-258.55,468.596-257.2,468.747z M-257.95,473.266c0,0.603-0.45,1.205-1.2,1.205s-1.2-0.452-1.2-1.205
		c0-0.603,0.45-1.205,1.2-1.205S-257.95,472.664-257.95,473.266z M-261.1,456.996l2.1-4.67l2.1,4.67l-2.1,4.67L-261.1,456.996z
		 M-259,440.576c0,0,4.05,3.465,1.2,7.08c0,0-0.45,0.603-1.2,0.603s-1.2-0.603-1.2-0.603C-263.05,444.041-259,440.576-259,440.576z
		 M-270.85,428.524c0.3-0.151,0.75-0.301,1.05-0.452c-1.8,5.273-6.3,10.997-7.2,13.558c-1.35,3.616,1.05,11.148,7.5,11.6
		c6.6,0.301,8.1-4.821,8.1-4.821c0.15,2.26-0.75,6.478-8.7,6.327c-7.95-0.301-12.3-10.997-5.55-19.132
		C-273.4,432.742-271.9,430.483-270.85,428.524z M-281.2,435.303c1.35-1.356,2.85-2.561,4.35-3.616
		c-2.4,4.218-4.35,9.491-4.35,9.491C-281.5,438.768-281.5,436.96-281.2,435.303z M-284.35,438.768c0.15,5.423,2.25,9.491,2.25,9.491
		s-2.55-3.013-4.05-6.177C-285.55,440.877-284.95,439.823-284.35,438.768z M-287.8,444.191c0,5.725,3,9.189,4.65,9.792
		c2.4,0.904,3.9-0.452,3-2.109c-0.9-1.506-3.15-0.753-3.15-0.753c3-3.465,6.6,0.904,5.55,3.465c0.3,0.151,0.6,0.452,0.9,0.753
		c0.45,0.603,0.6,1.356,0.6,1.958c0,0.753-0.15,1.506-0.75,2.26c0.15-0.753,0.3-1.657-0.15-2.26c-0.45-0.753-1.2-1.205-1.8-1.356
		c-0.75-0.301-1.5,0-1.8,0c-4.65,0.151-6.9-5.574-8.55-8.738C-288.7,446.15-288.25,445.246-287.8,444.191z M-290.2,451.573
		c2.7,3.766,6.3,6.177,6.3,6.177c-0.6,0-4.5-1.657-6.9-3.164C-290.5,453.532-290.35,452.628-290.2,451.573z M-290.8,461.064
		c-0.15-0.904-0.15-1.808-0.15-2.862c0-0.301,0-0.452,0-0.753c4.65,2.109,11.55,3.465,11.55,3.465S-288.85,461.064-290.8,461.064z
		 M-283.6,466.337c-1.35,0-5.7-3.013-5.7-3.013l17.4,1.055C-271.9,464.378-282.25,466.337-283.6,466.337z M-266.05,461.968
		c0.45-1.205,0.3-2.109,0.3-2.109c-0.15-0.753-0.45-1.958-2.25-2.561c0,0-2.25-0.753-3.3,0.904c-1.05,1.657,1.8,2.41,2.7,2.109
		c0,0-0.6,2.41-4.2,1.205c0,0-0.45,1.958-5.25,1.506c0,0,2.25-1.055,3-2.109c0,0,0.45-0.603,0.6-1.958c0,0,0.45-3.616,5.55-3.164
		c0,0,3.45,0.151,4.65,3.616c0,0,0.3,0.753,0.15,1.657c-0.6,4.971-6.45,7.382-6.45,7.382c-2.25,0.301-7.65-0.753-7.65-0.753
		C-268.6,465.583-267.4,464.529-266.05,461.968z M-269.35,491.043c-1.2-0.452-2.4-0.904-3.45-1.356
		c12.15-3.465,10.35-12.052,10.35-12.052C-260.65,482.606-265.75,488.03-269.35,491.043z M-267.1,491.645
		c4.95-4.971,6.3-10.545,6.3-13.106c0-1.356-0.45-3.164-1.8-4.519c0,0-1.2-1.356-2.7-1.356c0,0-1.35,0-1.35,1.356
		c0,0,0,1.205,1.05,1.205c1.05,0,0.75-1.506,0.3-1.808c0,0,1.35-0.452,1.65,1.506c0,0,1.05-0.301,2.1,1.808
		c0,0-1.05-0.753-1.8-0.753c0,0-0.45,0-1.05,0.301c0,0-2.1,0.904-3.3-1.356c0,0-0.9-1.657,0.45-3.164c1.5-1.205,2.85-0.904,4.05,0
		c0.75,0.603,1.2,1.055,1.65,1.657c0.75,1.055,1.05,2.109,1.2,2.561c0.9,4.971-2.1,11.901-4.05,15.818
		C-265.45,492.097-266.2,491.947-267.1,491.645z M-259.15,492.7c-0.75,0-1.65,0-2.4-0.151c0.6-1.958,1.5-4.971,2.1-9.641l0.3-5.273
		l0,0l0.3,5.273c0.6,4.519,1.5,7.683,2.1,9.641C-257.5,492.7-258.25,492.7-259.15,492.7z M-253.6,492.248
		c-1.8-3.917-4.95-10.847-4.05-15.818c0-0.452,0.3-1.506,1.2-2.561c0.45-0.603,0.9-1.055,1.65-1.657c1.2-0.904,2.55-1.356,4.05,0
		c1.35,1.506,0.45,3.164,0.45,3.164c-1.2,2.26-3.3,1.356-3.3,1.356c-0.75-0.301-1.05-0.301-1.05-0.301c-0.75,0-1.8,0.753-1.8,0.753
		c1.05-2.26,2.1-1.808,2.1-1.808c0.3-1.958,1.65-1.506,1.65-1.506c-0.45,0.301-0.75,1.808,0.3,1.808s1.05-1.205,1.05-1.205
		c0-1.356-1.35-1.356-1.35-1.356c-1.5,0-2.7,1.356-2.7,1.356c-1.35,1.356-1.95,3.164-1.8,4.519c0.15,2.41,1.35,8.135,6.3,13.106
		C-251.8,491.796-252.7,492.097-253.6,492.248z M-248.8,491.043c-3.6-3.013-8.55-8.286-6.9-13.408c0,0-1.8,8.587,10.35,12.052
		C-246.4,490.139-247.6,490.591-248.8,491.043z M-247.6,468.144c0,0-5.85-2.41-6.45-7.382c-0.15-0.904,0.15-1.657,0.15-1.657
		c1.2-3.314,4.65-3.616,4.65-3.616c5.1-0.301,5.55,3.164,5.55,3.164c0.15,1.356,0.6,1.958,0.6,1.958c0.75,1.055,3,2.109,3,2.109
		c-4.8,0.603-5.25-1.506-5.25-1.506c-3.45,1.205-4.2-1.205-4.2-1.205c0.9,0.452,3.9-0.452,2.7-2.109
		c-1.05-1.657-3.3-0.904-3.3-0.904c-1.8,0.452-2.1,1.808-2.25,2.561c0,0-0.3,1.055,0.3,2.109c1.35,2.712,2.55,3.766,12,5.273
		C-239.95,467.24-245.5,468.295-247.6,468.144z M-234.55,466.337c-1.35,0-11.7-1.958-11.7-1.958l17.25-1.055
		C-228.85,463.324-233.2,466.337-234.55,466.337z M-238.75,460.763c0,0,6.9-1.356,11.55-3.465c0,0.301,0,0.603,0,0.753
		c0,0.904,0,1.808-0.15,2.712C-229.15,460.913-238.75,460.763-238.75,460.763z"/>
	<g>
		<path fill="#E7D680" d="M-291.55,526.143c-0.3-0.301-0.75-0.452-1.2-0.603s-0.9-0.151-1.35-0.151c-0.45,0-1.05,0-1.35,0.151
			c-0.3,0.151-0.9,0.301-1.2,0.603c-0.3,0.301-0.6,0.603-0.75,0.904c-0.15,0.452-0.3,0.904-0.3,1.356s0.15,1.055,0.3,1.356
			c0.15,0.452,0.45,0.753,0.75,0.904c0.3,0.301,0.75,0.452,1.2,0.603c0.45,0.151,0.9,0.151,1.35,0.151c0.45,0,1.05,0,1.35-0.151
			c0.45-0.151,0.9-0.301,1.2-0.603c0.3-0.301,0.6-0.603,0.75-0.904c0.15-0.452,0.3-0.904,0.3-1.356s-0.15-1.055-0.3-1.356
			C-290.95,526.746-291.25,526.445-291.55,526.143z M-292,529.458c-0.15,0.301-0.3,0.452-0.6,0.603
			c-0.15,0.151-0.45,0.301-0.75,0.452c-0.15,0-0.45,0.151-0.75,0.151c-0.3,0-0.6,0-0.9-0.151s-0.6-0.301-0.75-0.452
			c-0.15-0.151-0.45-0.452-0.6-0.603c0-0.301-0.15-0.603-0.15-0.904c0-0.301,0-0.603,0.15-0.904s0.3-0.452,0.6-0.603
			c0.15-0.151,0.45-0.301,0.75-0.452c0.3-0.151,0.6-0.151,0.9-0.151c0.3,0,0.6,0,0.9,0.151c0.3,0.151,0.6,0.301,0.75,0.452
			c0.15,0.151,0.45,0.452,0.6,0.603c0.15,0.301,0.15,0.603,0.15,0.904C-291.85,528.855-291.85,529.156-292,529.458z"/>
		<path fill="#E7D680" d="M-284.05,524.336c0.15,0.151,0.45,0.301,0.75,0.452c0.3,0.151,0.6,0.151,0.9,0.151c0.3,0,0.6,0,0.9-0.151
			c0.3-0.151,0.45-0.151,0.75-0.452c0.3-0.301,0.3-0.452,0.45-0.603c0.15-0.301,0.15-0.452,0.15-0.753h-0.75
			c0,0.151-0.15,0.452-0.15,0.603c-0.15,0.151-0.15,0.301-0.3,0.301s-0.3,0.151-0.45,0.151s-0.3,0-0.45,0s-0.3,0-0.45,0
			s-0.3-0.151-0.45-0.151s-0.3-0.151-0.3-0.301c-0.15-0.151-0.15-0.301-0.15-0.603h-0.75c0,0.301,0.15,0.603,0.15,0.753
			C-284.5,523.884-284.2,524.034-284.05,524.336z"/>
		<path fill="#E7D680" d="M-251.2,526.143c-0.3-0.301-0.75-0.452-1.2-0.603s-0.9-0.151-1.35-0.151c-0.45,0-1.05,0-1.35,0.151
			c-0.45,0.151-0.9,0.301-1.2,0.603c-0.3,0.301-0.6,0.603-0.75,0.904c-0.15,0.452-0.3,0.904-0.3,1.356s0.15,1.055,0.3,1.356
			c0.15,0.452,0.45,0.753,0.75,0.904c0.3,0.301,0.75,0.452,1.2,0.603s0.9,0.151,1.35,0.151c0.45,0,1.05,0,1.35-0.151
			c0.45-0.151,0.9-0.301,1.2-0.603c0.3-0.301,0.6-0.603,0.75-0.904c0.15-0.452,0.3-0.904,0.3-1.356s-0.15-1.055-0.3-1.356
			C-250.6,526.746-250.75,526.445-251.2,526.143z M-251.65,529.458c-0.15,0.301-0.3,0.452-0.6,0.603
			c-0.15,0.151-0.45,0.301-0.75,0.452s-0.6,0.151-0.9,0.151c-0.3,0-0.6,0-0.9-0.151c-0.3-0.151-0.6-0.301-0.75-0.452
			c-0.15-0.151-0.45-0.452-0.6-0.603c0.15-0.301,0.15-0.603,0.15-0.904c0-0.301,0-0.603,0.15-0.904s0.3-0.452,0.6-0.603
			c0.15-0.151,0.45-0.301,0.75-0.452c0.3-0.151,0.6-0.151,0.9-0.151c0.3,0,0.6,0,0.9,0.151c0.3,0.151,0.6,0.301,0.75,0.452
			c0.15,0.151,0.45,0.452,0.6,0.603c0.15,0.301,0.15,0.603,0.15,0.904C-251.35,528.855-251.5,529.156-251.65,529.458z"/>
		<path fill="#E7D680" d="M-184.75,529.608c0,0-0.3,0.301-0.45,0.301c-0.15,0.151-0.3,0.151-0.6,0.301
			c-0.15,0.151-0.45,0.151-0.75,0.301c-0.15,0.151-0.45,0.151-0.6,0.151c-0.3,0-0.6,0-0.75-0.151c-0.3-0.151-0.45-0.301-0.75-0.452
			c-0.15-0.151-0.3-0.452-0.45-0.603c-0.15-0.301-0.15-0.603-0.15-0.904c0-0.301,0-0.603,0.15-0.904s0.3-0.452,0.45-0.603
			c0.15-0.151,0.45-0.301,0.75-0.452c0.3-0.151,0.6-0.151,0.9-0.151s0.6,0,0.75,0.151c0.3,0,0.45,0.151,0.6,0.151
			s0.3,0.151,0.45,0.301s0.3,0.301,0.3,0.301l0.6-0.904c0,0-0.3-0.151-0.6-0.301c-0.15,0-0.3-0.151-0.6-0.151
			c-0.15-0.151-0.45-0.151-0.75-0.151s-0.6-0.151-0.9-0.151c-0.45,0-0.9,0-1.35,0.151c-0.45,0.151-0.75,0.301-1.2,0.603
			c-0.3,0.301-0.6,0.603-0.75,0.904c-0.15,0.452-0.3,0.904-0.3,1.356c0,0.452,0.15,0.904,0.3,1.356
			c0.15,0.452,0.45,0.753,0.75,0.904c0.3,0.301,0.75,0.452,1.05,0.603c0.45,0.151,0.9,0.151,1.2,0.151c0.45,0,0.75,0,1.05-0.151
			c0.3,0,0.6-0.151,0.9-0.301c0.3-0.151,0.45-0.151,0.6-0.301c0.15-0.151,0.6-0.301,0.6-0.301L-184.75,529.608z"/>
		<path fill="#E7D680" d="M-323.5,525.541h-1.65c0,0-2.7,2.109-3,2.41v-2.41h-1.2v2.26c-0.3-0.301-0.6-0.452-0.9-0.603
			c-0.3-0.151-1.95-1.657-1.95-1.657h-1.8l0.9,0.603c0.75,0.753,2.1,1.808,2.1,1.808l-2.85,3.616l0,0h1.5l2.4-2.862l0.6,0.452v2.41
			h1.35v-2.26l0.75-0.603l2.4,2.862h1.5l0,0l-3.15-3.616l0.75-0.603L-323.5,525.541z"/>
		<polygon fill="#E7D680" points="-318.1,529.759 -318.1,525.541 -319.3,525.541 -319.3,531.115 -319.3,531.567 -318.1,531.567 
			-314.05,526.897 -314.05,531.567 -312.85,531.567 -312.85,525.541 -314.2,525.541 		"/>
		<polygon fill="#E7D680" points="-284.65,529.759 -284.65,525.541 -285.85,525.541 -285.85,531.115 -285.85,531.567 
			-284.65,531.567 -280.6,526.897 -280.6,531.567 -279.4,531.567 -279.4,525.541 -280.75,525.541 		"/>
		<polygon fill="#E7D680" points="-305.65,525.541 -308.35,531.567 -307,531.567 -305.05,526.746 -302.8,531.567 -301.3,531.567 
			-304.3,525.541 		"/>
		<polygon fill="#E7D680" points="-219.25,525.541 -221.95,531.567 -220.6,531.567 -218.65,526.746 -216.4,531.567 -214.9,531.567 
			-217.9,525.541 		"/>
		<path fill="#E7D680" d="M-262.45,525.541c0,0-3,2.41-3.3,2.712v-2.712h-1.35v6.026h1.35v-1.958l1.05-0.904l2.4,2.862h1.5l0,0
			l-2.85-3.616l3-2.41H-262.45z"/>
		<path fill="#E7D680" d="M-195.55,525.541c0,0-3,2.41-3.3,2.712v-2.712h-1.35v6.026h1.35v-1.958l1.05-0.904l2.4,2.862h1.5l0,0
			l-2.85-3.616l3-2.41H-195.55z"/>
		<polygon fill="#E7D680" points="-241.9,529.307 -244,525.541 -245.35,525.541 -245.35,531.567 -244.15,531.567 -244.15,527.198 
			-244.15,527.198 -241.9,531.567 -241.9,531.567 -239.5,527.198 -239.5,527.198 -239.5,531.567 -238.3,531.567 -238.3,525.541 
			-239.65,525.541 		"/>
		<polygon fill="#E7D680" points="-232.6,531.567 -231.4,531.567 -231.4,526.445 -227.8,526.445 -227.8,531.567 -226.45,531.567 
			-226.45,525.541 -232.6,525.541 		"/>
		<polygon fill="#E7D680" points="-209.2,528.855 -206.5,528.855 -206.5,527.951 -209.2,527.951 -209.2,526.445 -205.15,526.445 
			-205.15,525.541 -210.55,525.541 -210.55,531.567 -205.15,531.567 -205.15,530.512 -209.2,530.512 		"/>
	</g>
	<g>
		<path fill="#E7D680" d="M-325.15,537.141l0.15-0.904c1.2,0,2.55,0,3.9,0c1.5,0,2.7,0,4.2,0l-0.15,0.904l-2.55,1.055v1.055
			c4.95,0.301,11.4,1.808,11.4,9.641c0,7.382-6.3,9.34-11.4,9.491v1.356l3.15,1.055l-0.15,0.904c-1.2,0-2.7,0-4.35,0
			c-1.65,0-3.3,0-4.5,0l0.15-0.904l2.85-1.055v-1.356c-4.95-0.151-11.4-1.657-11.4-9.34c0-7.532,6.3-9.641,11.4-9.943v-1.205
			L-325.15,537.141z M-322.6,540.606c-4.8,0.452-7.95,2.712-7.95,8.286c0,5.423,3,7.984,7.95,8.436V540.606z M-319.6,557.177
			c4.8-0.452,7.95-2.561,7.95-8.286c0-5.725-3.15-7.984-7.95-8.436V557.177z"/>
		<path fill="#E7D680" d="M-305.35,536.689c1.5,0,3,0.151,4.35,0.151h9c0.3-0.151,2.4-0.452,3-0.452v0.151
			c0,1.055-0.6,4.369-0.9,5.423l-0.6,0.301c-0.3-0.904-1.2-3.314-1.5-4.067l-7.35,0.301v9.491c3.3,0,6.9-0.151,9.15-0.452
			l0.15,0.301c-0.15,0.301-1.8,2.26-2.1,2.26c-0.6,0-6.15-0.452-7.2-0.452c0,2.561,0,7.231,0.15,10.244l7.65,0.301
			c0.75-1.055,2.4-3.465,3.15-4.519h0.75c-0.15,1.205-0.9,4.821-1.2,6.177c-2.4-0.151-4.5-0.151-6.6-0.151h-5.7
			c-1.65,0-3.45,0-4.95,0l0.3-0.904l3.15-1.205c0.15-0.452,0.15-4.67,0.15-10.997v-10.093l-3.15-1.055L-305.35,536.689z"/>
		<path fill="#E7D680" d="M-284.5,536.689c1.35,0,2.85,0,4.2,0c1.35,0,2.4,0,3.45,0l-0.3,0.904l-1.5,1.205v8.587h12.6v-8.587
			l-1.95-1.356l0.3-0.753c1.05,0,2.1,0,3.15,0c1.65,0,3.3,0,4.8,0l-0.3,0.904l-2.85,1.205v9.943c0,4.218,0.15,10.395,0.3,10.847
			l3.3,1.205l-0.3,0.904c-1.5,0-3.3,0-4.8,0c-1.2,0-2.4,0-3.3,0l0.3-0.904l1.35-1.205c0.15-3.766,0-7.08,0-10.545
			c-0.9,0.151-2.85,0.301-4.65,0.301h-7.95c0,3.164,0,6.327,0,10.244l1.65,1.356l-0.3,0.904c-1.05,0-1.95,0-3.15,0
			c-1.5,0-3.3,0-4.65,0l0.3-0.904l2.7-1.205c0-0.904,0.15-6.478,0.15-11.148v-9.792l-2.85-1.055L-284.5,536.689z"/>
		<path fill="#E7D680" d="M-254.2,538.647l-2.85-1.205l0.3-0.904c1.5,0,2.85,0,4.2,0c1.35,0,2.7,0,4.05,0l-0.3,0.904l-2.4,1.055
			v10.696c0,2.561,0,5.875-0.3,9.039h0.15c4.2-6.779,8.25-13.558,12.45-20.337l0-1.205h2.25c1.5,0,3.15,0,4.65,0l-0.3,0.904
			l-2.7,1.055v9.943c0,5.875,0.15,10.395,0.15,10.997l3.3,1.055l-0.3,0.904c-1.35,0-3,0-4.8,0c-1.65,0-3.3,0-4.5,0l0.3-0.904
			l2.4-1.055c0.15-2.109,0.15-5.122,0.15-10.997c0-2.712,0-5.574,0.3-8.888h-0.3c-4.2,6.93-8.25,13.558-12.3,20.337l0.15,1.506
			h-2.25c-1.5,0-3.15,0-4.8,0l0.3-0.904l2.7-1.055c0.15-1.055,0.15-5.875,0.15-11.148v-9.792H-254.2z"/>
		<path fill="#E7D680" d="M-226.3,538.647l-2.85-1.055l0.3-0.904c1.35,0,2.7,0,4.2,0s3,0,4.5,0l-0.3,0.904l-2.55,1.055v9.943
			c1.8-0.603,2.4-1.055,2.85-1.657c2.1-2.41,4.65-5.423,6.75-8.436v-1.808c0.75,0,1.65,0,2.55,0c1.05,0,2.25,0,3.45,0l-0.3,0.904
			l-3.9,1.506c-2.4,2.561-6.3,7.231-7.2,8.436v0.151c0.3,0.452,0.75,1.055,1.2,1.657c3.45,4.67,8.55,10.696,10.2,12.654l-0.45,0.452
			c-2.4,0-3.9-0.753-5.55-2.561c-1.65-1.808-3.9-4.821-7.65-9.34c-0.6-0.904-1.2-0.904-2.1-0.603c0,5.273,0.15,9.491,0.15,9.943
			l3.3,1.055l-0.3,0.904c-1.35,0-2.85,0-4.8,0c-1.8,0-3.6,0-4.95,0l0.15-0.904l2.85-1.055c0.15-0.603,0.15-4.67,0.15-10.997v-10.244
			H-226.3z"/>
		<path fill="#E7D680" d="M-187,537.442c0.9-0.603,1.95-0.904,2.85-1.055l0.15,0.151c-0.15,1.506-1.05,5.273-1.5,6.177l-0.6,0.452
			c-0.3-0.753-1.05-2.862-1.2-4.218c-0.75-0.603-2.7-1.205-4.65-1.205c-6.75,0-10.8,4.971-10.8,11.6
			c0,6.478,4.2,11.449,11.25,11.449c1.2,0,1.8-0.151,2.4-0.301c1.5-1.657,3.3-3.616,4.2-4.218l0.9,0.151
			c-0.3,1.205-1.95,4.519-2.4,4.971c-1.35,0.603-4.35,1.205-6.3,1.205c-6.75,0-13.65-3.917-13.65-12.956s7.5-13.408,13.65-13.408
			C-190.3,535.935-188.35,536.538-187,537.442z"/>
	</g>
</g>
</svg>
