<svg id="Layer_1" data-name="Layer 1" xmlns="http://www.w3.org/2000/svg" viewBox="0 0 255 104"><defs><style>.cls-1{fill:#e7d780;}</style></defs><title>Untitled-2</title><path class="cls-1" d="M156.73,39.09a3.12,3.12,0,0,0-1.06-.53,4.91,4.91,0,0,0-2.6,0,3.12,3.12,0,0,0-1.06.53,2.52,2.52,0,0,0-.72.88,3.08,3.08,0,0,0,0,2.49,2.51,2.51,0,0,0,.72.88,2.88,2.88,0,0,0,1.06.51,5.48,5.48,0,0,0,2.6,0,2.89,2.89,0,0,0,1.06-.51,2.51,2.51,0,0,0,.72-0.88,3.08,3.08,0,0,0,0-2.49A2.53,2.53,0,0,0,156.73,39.09ZM156.32,42a1.86,1.86,0,0,1-.48.6,2.23,2.23,0,0,1-.69.38,2.41,2.41,0,0,1-1.57,0,2.23,2.23,0,0,1-.68-0.38,1.87,1.87,0,0,1-.48-0.6,1.86,1.86,0,0,1,0-1.61,1.87,1.87,0,0,1,.48-0.6,2.23,2.23,0,0,1,.68-0.38,2.41,2.41,0,0,1,1.57,0,2.23,2.23,0,0,1,.69.38,1.86,1.86,0,0,1,.48.6A1.86,1.86,0,0,1,156.32,42Z"/><path class="cls-1" d="M163.56,37.34a1.94,1.94,0,0,0,.63.36,2.45,2.45,0,0,0,1.55,0,1.94,1.94,0,0,0,.63-0.36,1.74,1.74,0,0,0,.43-0.57A2.18,2.18,0,0,0,167,36h-0.73a1.4,1.4,0,0,1-.19.49,0.89,0.89,0,0,1-.3.29,1.18,1.18,0,0,1-.38.14,2.52,2.52,0,0,1-.87,0,1.18,1.18,0,0,1-.38-0.14,0.89,0.89,0,0,1-.3-0.29,1.39,1.39,0,0,1-.19-0.49h-0.73a2.18,2.18,0,0,0,.2.75A1.73,1.73,0,0,0,163.56,37.34Z"/><path class="cls-1" d="M193.67,39.09a3.12,3.12,0,0,0-1.06-.53,4.91,4.91,0,0,0-2.6,0,3.12,3.12,0,0,0-1.06.53,2.52,2.52,0,0,0-.72.88,3.08,3.08,0,0,0,0,2.49,2.51,2.51,0,0,0,.72.88,2.89,2.89,0,0,0,1.06.51,5.48,5.48,0,0,0,2.6,0,2.88,2.88,0,0,0,1.06-.51,2.51,2.51,0,0,0,.72-0.88,3.08,3.08,0,0,0,0-2.49A2.52,2.52,0,0,0,193.67,39.09ZM193.26,42a1.87,1.87,0,0,1-.48.6,2.22,2.22,0,0,1-.68.38,2.41,2.41,0,0,1-1.57,0,2.23,2.23,0,0,1-.68-0.38,1.87,1.87,0,0,1-.48-0.6,1.86,1.86,0,0,1,0-1.61,1.87,1.87,0,0,1,.48-0.6,2.23,2.23,0,0,1,.68-0.38,2.41,2.41,0,0,1,1.57,0,2.22,2.22,0,0,1,.68.38,1.87,1.87,0,0,1,.48.6A1.86,1.86,0,0,1,193.26,42Z"/><path class="cls-1" d="M254.4,42.24l-0.48.33a3.31,3.31,0,0,1-.48.27,4.64,4.64,0,0,1-.64.21,2.85,2.85,0,0,1-.69.09,2,2,0,0,1-.72-0.13,1.88,1.88,0,0,1-.63-0.39,2,2,0,0,1-.45-0.61,1.86,1.86,0,0,1-.17-0.81,2,2,0,0,1,.15-0.8,1.6,1.6,0,0,1,.43-0.59,1.83,1.83,0,0,1,.65-0.36,2.68,2.68,0,0,1,.82-0.12,3.27,3.27,0,0,1,.69.07,3,3,0,0,1,.55.17,2,2,0,0,1,.38.22L254.15,40l0.59-.86-0.49-.28-0.5-.2a5.25,5.25,0,0,0-.7-0.2,4,4,0,0,0-.87-0.09,4.15,4.15,0,0,0-1.2.18,3.08,3.08,0,0,0-1,.53,2.72,2.72,0,0,0-.73.88,2.61,2.61,0,0,0-.28,1.23,2.64,2.64,0,0,0,.28,1.24,2.77,2.77,0,0,0,.72.89,2.8,2.8,0,0,0,1,.52,4.1,4.1,0,0,0,1.14.16,4.8,4.8,0,0,0,1-.1,4.7,4.7,0,0,0,.8-0.24c0.23-.1.42-0.18,0.57-0.26s0.52-.33.52-0.33Z"/><path class="cls-1" d="M127.56,38.46H126l-2.69,2.19V38.46h-1.17v2.12L121.36,40l-1.85-1.5h-1.63l0.81,0.64c0.75,0.58,2,1.57,2,1.57L118,44h1.31l2.17-2.65,0.62,0.49V44h1.17V41.91l0.65-.53,2.13,2.6h1.41v0l-2.66-3.29,0.75-.61Z"/><polygon class="cls-1" points="132.43 42.4 132.43 38.46 131.38 38.46 131.38 43.56 131.38 43.98 132.4 43.98 136.2 39.79 136.2 43.98 137.26 43.98 137.26 38.46 136.01 38.46 132.43 42.4"/><polygon class="cls-1" points="163.03 42.4 163.03 38.46 161.97 38.46 161.97 43.56 161.97 43.98 163 43.98 166.8 39.79 166.8 43.98 167.85 43.98 167.85 38.46 166.61 38.46 163.03 42.4"/><polygon class="cls-1" points="143.87 38.46 141.34 43.98 142.55 43.98 144.42 39.63 146.47 43.98 147.75 43.98 145.11 38.46 143.87 38.46"/><polygon class="cls-1" points="222.85 38.46 220.32 43.98 221.53 43.98 223.4 39.63 225.45 43.98 226.73 43.98 224.09 38.46 222.85 38.46"/><path class="cls-1" d="M183.33,38.46l-3,2.46V38.46H179.1V44h1.21V42.16l1-.78,2.13,2.6h1.41l-2.67-3.3,2.74-2.21h-1.58Z"/><path class="cls-1" d="M244.42,38.46l-3,2.46V38.46h-1.21V44h1.21V42.16l1-.78,2.13,2.6h1.41l-2.67-3.3L246,38.46h-1.58Z"/><polygon class="cls-1" points="202.17 41.98 200.25 38.46 198.99 38.46 198.99 43.98 200.04 43.98 200.04 40.04 200.06 40.04 202.08 43.98 202.18 43.98 204.32 40.04 204.34 40.04 204.34 43.98 205.4 43.98 205.4 38.46 204.11 38.46 202.17 41.98"/><polygon class="cls-1" points="210.55 43.98 211.76 43.98 211.76 39.39 215 39.39 215 43.98 216.21 43.98 216.21 38.46 210.55 38.46 210.55 43.98"/><polygon class="cls-1" points="231.96 41.57 234.53 41.57 234.53 40.64 231.96 40.64 231.96 39.39 235.64 39.39 235.64 38.46 230.75 38.46 230.75 43.98 235.75 43.98 235.75 43.05 231.96 43.05 231.96 41.57"/><path class="cls-1" d="M126,49l0.23-.76c1.16,0,2.32,0,3.55,0s2.52,0,3.81,0l-0.2.79-2.25.9v1c4.54,0.24,10.44,1.59,10.44,8.83,0,6.76-5.74,8.55-10.44,8.69v1.17l2.88,1-0.2.79c-1.16,0-2.42,0-4,0s-3,0-4.18,0l0.2-.79,2.55-1V68.45c-4.54-.14-10.47-1.52-10.47-8.52s5.8-8.72,10.47-9v-1Zm2.35,3.1c-4.38.41-7.26,2.41-7.26,7.48s2.75,7.21,7.26,7.66V52.14Zm2.79,15.14c4.41-.38,7.26-2.31,7.26-7.48s-2.88-7.28-7.26-7.66V67.28Z"/><path class="cls-1" d="M144.09,48.59c1.33,0,2.72.07,4,.07h8.22a18.24,18.24,0,0,1,2.78-.45l0.07,0.14c-0.07.93-.6,3.93-0.83,5l-0.56.31c-0.33-.83-1.16-3-1.43-3.72l-6.73.28v8.59a80.59,80.59,0,0,0,8.42-.41l0.13,0.31a6.24,6.24,0,0,1-2,2c-0.5,0-5.6-.34-6.56-0.34,0,2.28,0,6.52.13,9.38l7,0.31c0.73-1,2.15-3.21,2.92-4.1l0.66,0a55.68,55.68,0,0,1-1.16,5.55c-2.19-.1-4.08-0.1-6-0.1H148c-1.49,0-3.15,0-4.57,0l0.26-.79,2.82-1c0.1-.41.2-4.24,0.2-10.07V50.35l-2.85-.93Z"/><path class="cls-1" d="M163.11,48.62c1.19,0,2.55,0,3.81,0s2.22,0,3.11,0l-0.23.83-1.43,1.07v7.83h11.54V50.55l-1.66-1.21,0.3-.72c0.93,0,1.86,0,2.85,0,1.56,0,3,0,4.38,0l-0.3.86-2.65,1v9.07c0,3.9.1,9.41,0.26,9.83l3,1.1-0.3.86c-1.33,0-2.95,0-4.44,0-1.16,0-2.19,0-3.08,0l0.23-.86,1.29-1.07c0.13-3.38.07-6.38,0.07-9.62a32.55,32.55,0,0,1-4.28.21h-7.26c0,2.83-.07,5.72,0,9.28l1.52,1.28-0.23.79c-0.89,0-1.79,0-2.92,0-1.43,0-3,0-4.31,0l0.3-.83,2.45-1c0-.86.2-5.93,0.2-10.14V50.45l-2.62-1Z"/><path class="cls-1" d="M190.81,50.41l-2.62-1,0.3-.76c1.33,0,2.59,0,3.88,0s2.45,0,3.68,0l-0.26.83-2.16,1v9.76c0,2.38,0,5.28-.23,8.24h0.17c3.81-6.21,7.59-12.28,11.37-18.52l-0.1-1.28H207c1.43,0,2.82,0,4.21,0l-0.27.83-2.49,1v9.07c0,5.31.1,9.45,0.17,10l3,1-0.23.83c-1.23,0-2.72,0-4.41,0-1.49,0-2.95,0-4.08,0l0.23-.83,2.26-1c0.13-1.86.2-4.62,0.2-10,0-2.48,0-5.1.23-8.14H205.6C201.82,57.69,198,63.79,194.29,70l0.1,1.34h-2.06c-1.36,0-2.82,0-4.41,0l0.27-.83,2.42-1c0.1-.9.2-5.28,0.2-10.14v-9Z"/><path class="cls-1" d="M216.39,50.38l-2.62-1,0.33-.76c1.26,0,2.52,0,3.78,0s2.72,0,4.11,0l-0.26.83-2.39,1v9A5.59,5.59,0,0,0,222,58c1.86-2.14,4.28-5,6.17-7.69l0-1.69c0.7,0,1.49,0,2.35,0,1,0,2.12,0,3.18,0l-0.26.83-3.61,1.34c-2.16,2.28-5.7,6.52-6.56,7.62v0.07A17.89,17.89,0,0,0,224.35,60c3.22,4.31,7.76,9.79,9.31,11.55l-0.36.34a6.42,6.42,0,0,1-5.11-2.31c-1.56-1.62-3.61-4.34-7-8.52a1.34,1.34,0,0,0-1.89-.48c0,4.79.1,8.59,0.17,9l3,1-0.3.83c-1.23,0-2.65,0-4.34,0s-3.28,0-4.54,0l0.2-.83,2.62-1c0.13-.59.2-4.31,0.2-10V50.38Z"/><path class="cls-1" d="M252.25,49.31a7.64,7.64,0,0,1,2.55-1l0.2,0.14A30.48,30.48,0,0,1,253.67,54l-0.6.34A24,24,0,0,1,252,50.52a8.43,8.43,0,0,0-4.21-1c-6.2,0-9.84,4.52-9.84,10.52s3.84,10.38,10.24,10.38a6,6,0,0,0,2.16-.28c1.43-1.52,3.08-3.24,3.88-3.9L255,66.38a18,18,0,0,1-2.25,4.52A16.72,16.72,0,0,1,247,72c-6.2,0-12.46-3.59-12.46-11.83S241.38,48,247,48A9.49,9.49,0,0,1,252.25,49.31Z"/><path class="cls-1" d="M105.07,64.32l-2.21-5.87a11.29,11.29,0,0,1-.69-2.87,6.65,6.65,0,0,1,.37-1.48l0-.1,0-.11a9,9,0,0,0-3.74-10.07,9,9,0,0,0-1-10.7L97.81,33,97.73,33a6.77,6.77,0,0,1-1-1.16h0a10.79,10.79,0,0,1-.63-2.89l-0.56-6.25-0.2-2.21-2.11-.68-6-1.94a11.27,11.27,0,0,1-2.67-1.25,6.65,6.65,0,0,1-.92-1.21l-0.06-.09-0.07-.09a9.43,9.43,0,0,0-7.31-3.84,8.8,8.8,0,0,0-2.9.5,9,9,0,0,0-8.63-5.91H64.18a8.54,8.54,0,0,1-1,.06,4.51,4.51,0,0,1-.53,0h0A10.79,10.79,0,0,1,60,4.68L54.78,1.22,52.93,0,51.08,1.22,45.85,4.68A11.27,11.27,0,0,1,43.2,6a4.34,4.34,0,0,1-.53,0,8.54,8.54,0,0,1-1-.06l-0.2,0H41.11a9,9,0,0,0-8.63,5.91,8.8,8.8,0,0,0-2.9-.5,9.41,9.41,0,0,0-7.31,3.84l-0.06.09-0.06.1a6.75,6.75,0,0,1-.92,1.21h0a10.8,10.8,0,0,1-2.68,1.26l-6,1.93-2.11.68-0.2,2.21L9.73,28.91a11.3,11.3,0,0,1-.63,2.89,6.68,6.68,0,0,1-1,1.17L8,33,8,33.12a9,9,0,0,0-1,10.7A9,9,0,0,0,3.23,53.89l0,0.11,0,0.11a6.78,6.78,0,0,1,.37,1.47h0A10.79,10.79,0,0,1,3,58.45L0.78,64.32,0,66.4l1.6,1.53,4.54,4.33A11.28,11.28,0,0,1,8,74.54,6.61,6.61,0,0,1,8.31,76v0.12l0,0.11a9,9,0,0,0,7.74,7.45,9,9,0,0,0,5.54,9.21l0.1,0,0.1,0a6.76,6.76,0,0,1,1.38.62h0A10.78,10.78,0,0,1,25,96l3.21,5.39,1.13,1.89,2.2-.3,6.21-.84a16.12,16.12,0,0,1,1.85-.12,5.18,5.18,0,0,1,1.11.09,6.69,6.69,0,0,1,1.36.69l0.09,0.06,0.09,0.05A9.89,9.89,0,0,0,46.82,104a8.54,8.54,0,0,0,6.11-2.55A8.54,8.54,0,0,0,59,104a9.9,9.9,0,0,0,4.54-1.13l0.1-.05,0.09-.06a6.78,6.78,0,0,1,1.35-.69h0a4.89,4.89,0,0,1,1.11-.09,16.09,16.09,0,0,1,1.84.12l6.21,0.85,2.2,0.3,1.14-1.9L80.83,96a11.3,11.3,0,0,1,1.81-2.33A6.64,6.64,0,0,1,84,93l0.1,0,0.1,0a9,9,0,0,0,5.54-9.21,9,9,0,0,0,7.74-7.45l0-.11V76a6.8,6.8,0,0,1,.3-1.49h0a10.81,10.81,0,0,1,1.87-2.29l4.54-4.33,1.6-1.53ZM99,67.4l4-.81-4.55,4.34a12.18,12.18,0,0,0-2.28,2.88l0,0h0a7.78,7.78,0,0,0-.43,2V76a7.17,7.17,0,0,1-6.31,6c-0.26,0-.52,0-0.79,0H88a5,5,0,0,1-.6-0.1,5,5,0,0,1,.24.57l0,0.08a8.72,8.72,0,0,1,.27,1.28,7.15,7.15,0,0,1-4.4,7.48l-0.05,0-0.05,0a7.67,7.67,0,0,0-1.86.87A12.41,12.41,0,0,0,79.26,95L76,100.42,75.93,96.3a5.11,5.11,0,0,1-2.48.65,5.07,5.07,0,0,1-2.05,1.54l3.15,2.65-6.23-.85a17.85,17.85,0,0,0-2.09-.13,6.37,6.37,0,0,0-1.58.15h0a7.76,7.76,0,0,0-1.82.9l0,0,0,0a8.1,8.1,0,0,1-3.66.9,6.7,6.7,0,0,1-4.93-2.12,8.61,8.61,0,0,1-.84-1l0,0,0,0a5,5,0,0,1-.3-0.54,5,5,0,0,1-.3.54l0,0,0,0a8.62,8.62,0,0,1-.84,1,6.7,6.7,0,0,1-4.93,2.12,8.09,8.09,0,0,1-3.66-.9l0,0,0,0a7.68,7.68,0,0,0-1.84-.91,6.34,6.34,0,0,0-1.6-.15,17.85,17.85,0,0,0-2.09.13l-6.21.84,3.13-2.64a5.07,5.07,0,0,1-2.05-1.54,5.1,5.1,0,0,1-2.48-.65l-0.11,4.12L26.59,95a12.17,12.17,0,0,0-2.3-2.86l0,0h0a7.78,7.78,0,0,0-1.84-.86l-0.05,0-0.05,0a7.15,7.15,0,0,1-4.4-7.48,8.71,8.71,0,0,1,.27-1.28l0-.08a5,5,0,0,1,.24-0.57,5,5,0,0,1-.6.1h-0.6c-0.27,0-.54,0-0.79,0a7.17,7.17,0,0,1-6.31-6V75.85a7.69,7.69,0,0,0-.44-2,12.41,12.41,0,0,0-2.29-2.9L2.85,66.6l4,0.81a5.06,5.06,0,0,1-.08-2.56,5.06,5.06,0,0,1-1-2.34L2.48,65l2.21-5.89a12.18,12.18,0,0,0,.8-3.59v0h0a7.79,7.79,0,0,0-.48-2l0-.05,0-.05a7.15,7.15,0,0,1,3.1-8.1,8.71,8.71,0,0,1,1.17-.59l0.08,0a4.86,4.86,0,0,1,.61-0.17,4.91,4.91,0,0,1-.47-0.41L9.41,44a8.71,8.71,0,0,1-.8-1,7.15,7.15,0,0,1,.72-8.65l0,0,0,0a7.67,7.67,0,0,0,1.3-1.6,12.41,12.41,0,0,0,.84-3.6L12.1,22.8,14,26.47a5.06,5.06,0,0,1,2-1.66,5.14,5.14,0,0,1,1.19-2.27l-4-1,6-1.94A12.18,12.18,0,0,0,22.42,18l0,0h0a7.78,7.78,0,0,0,1.25-1.61l0,0,0,0a7.66,7.66,0,0,1,5.82-3.08,7,7,0,0,1,2.44.45,8.59,8.59,0,0,1,1.19.54l0.07,0a5,5,0,0,1,.5.36,5,5,0,0,1,0-.61V13.86a8.5,8.5,0,0,1,.32-1.27,7.11,7.11,0,0,1,7-4.84h0.35a10.33,10.33,0,0,0,1.2.08,5.26,5.26,0,0,0,.85-0.05A12.4,12.4,0,0,0,46.85,6.2L52.1,2.74,50.41,6.5h0.31a5.08,5.08,0,0,1,2.21.5,5.08,5.08,0,0,1,2.21-.5h0.31L53.76,2.74,59,6.2a12.17,12.17,0,0,0,3.32,1.58h0a5.6,5.6,0,0,0,.83.05,10.33,10.33,0,0,0,1.2-.08h0.35a7.11,7.11,0,0,1,7,4.84A8.5,8.5,0,0,1,72,13.86v0.08a5,5,0,0,1,0,.61,5,5,0,0,1,.5-0.36l0.07,0a8.57,8.57,0,0,1,1.19-.54,7,7,0,0,1,2.44-.45,7.67,7.67,0,0,1,5.82,3.08l0,0,0,0a7.67,7.67,0,0,0,1.27,1.62,12.4,12.4,0,0,0,3.32,1.62l6,1.94-4,1A5.14,5.14,0,0,1,89.9,24.8a5.06,5.06,0,0,1,2,1.66l1.89-3.66,0.56,6.26a12.18,12.18,0,0,0,.83,3.58l0,0h0a7.78,7.78,0,0,0,1.29,1.57l0,0,0,0A7.15,7.15,0,0,1,97.24,43a8.72,8.72,0,0,1-.8,1l-0.06.06a4.92,4.92,0,0,1-.47.41,4.84,4.84,0,0,1,.61.17l0.08,0a8.71,8.71,0,0,1,1.17.59,7.15,7.15,0,0,1,3.1,8.1l0,0.05,0,0.05a7.68,7.68,0,0,0-.48,2,12.41,12.41,0,0,0,.8,3.6L103.37,65l-3.29-2.48a5.06,5.06,0,0,1-1,2.34A5.06,5.06,0,0,1,99,67.4Z"/><path class="cls-1" d="M88.5,45c-1-.51-3.39-2.16-3.36-6.46a7.14,7.14,0,0,1-2.88-2.75l0.9-1a5.37,5.37,0,0,1-1-1.31,2.82,2.82,0,0,1-2.51-3.15,5.38,5.38,0,0,1-1.06-1.26l-1.14.67a7.14,7.14,0,0,1-2-3.42c-4.19-.93-5.27-3.6-5.54-4.71,0-.12,0-0.22-0.06-0.3a7.69,7.69,0,0,1-.18-1.78,7.68,7.68,0,0,1-1.47,1l-0.3.16a5.43,5.43,0,0,1-2.33.5,7.64,7.64,0,0,1-4.81-1.9,6.42,6.42,0,0,1-2.88.59,10.47,10.47,0,0,1-1.06-.06l-0.19-1.31a4.88,4.88,0,0,1-.66,0,5.77,5.77,0,0,1-1-.09,2.8,2.8,0,0,1-4,0,5.77,5.77,0,0,1-1,.09,4.85,4.85,0,0,1-.66,0l-0.19,1.31A10.46,10.46,0,0,1,48,19.9a6.42,6.42,0,0,1-2.88-.59,7.64,7.64,0,0,1-4.81,1.9,5.43,5.43,0,0,1-2.33-.5l-0.3-.16a7.68,7.68,0,0,1-1.47-1A7.7,7.7,0,0,1,36,21.37c0,0.08,0,.18-0.06.3-0.27,1.12-1.35,3.79-5.54,4.71a7.15,7.15,0,0,1-2,3.42l-1.14-.67a5.39,5.39,0,0,1-1.06,1.26,2.82,2.82,0,0,1-2.51,3.15,5.36,5.36,0,0,1-1,1.31l0.9,1a7.13,7.13,0,0,1-2.88,2.75c0,4.3-2.33,5.94-3.36,6.46l-0.28.13a7.68,7.68,0,0,1-1.7.57A7.62,7.62,0,0,1,16.66,47l0.2,0.24c0.71,0.91,2.12,3.42.23,7.27a7.15,7.15,0,0,1,1.4,3.73l-1.23.48a5.37,5.37,0,0,1,.32,1.61,2.82,2.82,0,0,1,.9,3.93,5.38,5.38,0,0,1,.41,1.6l1.32-.11a7.15,7.15,0,0,1,.36,4c3.37,2.65,3.19,5.53,2.95,6.65,0,0.12-.05.22-0.08,0.3a7.7,7.7,0,0,1-.61,1.68,7.67,7.67,0,0,1,1.74-.22H24.9c1,0,3.94.38,5.83,4.36h0a7.25,7.25,0,0,1,3.74,1.23L34.12,85a5.38,5.38,0,0,1,1.46.75,2.81,2.81,0,0,1,1-.17,2.84,2.84,0,0,1,1.23.28,2.81,2.81,0,0,1,1.46,1.64,5.37,5.37,0,0,1,1.49.67L41.45,87a7.14,7.14,0,0,1,3.32,2.19A9.63,9.63,0,0,1,47,89a6,6,0,0,1,4.85,2.11L52,91.34a7.73,7.73,0,0,1,.91,1.49,7.73,7.73,0,0,1,.91-1.49l0.2-.27A6,6,0,0,1,58.89,89a9.63,9.63,0,0,1,2.19.27A7.14,7.14,0,0,1,64.4,87l0.74,1.1a5.37,5.37,0,0,1,1.49-.67,2.81,2.81,0,0,1,1.46-1.64,2.84,2.84,0,0,1,1.23-.28,2.8,2.8,0,0,1,1,.17,5.37,5.37,0,0,1,1.46-.75l-0.4-1.26a7.24,7.24,0,0,1,3.74-1.23h0C77,78.48,80,78.11,81,78.1H81.3a7.67,7.67,0,0,1,1.74.22,7.69,7.69,0,0,1-.61-1.68c0-.08,0-0.18-0.08-0.3-0.24-1.13-.42-4,2.95-6.65a7.15,7.15,0,0,1,.36-4L87,65.84a5.39,5.39,0,0,1,.41-1.6,2.82,2.82,0,0,1,.9-3.93,5.38,5.38,0,0,1,.32-1.61l-1.23-.48a7.15,7.15,0,0,1,1.4-3.73c-1.89-3.85-.47-6.36.23-7.27L89.2,47a7.62,7.62,0,0,1,1.28-1.25,7.67,7.67,0,0,1-1.7-.57ZM52.93,87.1A32.85,32.85,0,0,1,24.79,37.32l0.34-.5,0.77-1.2h0a33,33,0,0,1,2.8-3.52h0l1-1,0.46-.49a32.72,32.72,0,0,1,18.26-8.88c0.28,0,.56,0,0.85-0.06l1.41-.15v0c0.74-.05,1.49-0.08,2.24-0.08s1.5,0,2.25.08v0l1.41,0.15c0.29,0,.57,0,0.85.06A32.72,32.72,0,0,1,75.7,30.6l0.45,0.49,1,1h0A33,33,0,0,1,80,35.62h0l0.77,1.2,0.33,0.49A32.85,32.85,0,0,1,52.93,87.1Z"/><path class="cls-1" d="M70.22,14.16A5.4,5.4,0,0,0,64.6,9.58a8.88,8.88,0,0,1-2.63,0,14.42,14.42,0,0,1-4-1.85c1.91,4.27,4.11,4,4.11,4,0,3.46,2.81,3.35,2.81,3.35-0.76-.77-0.85-3.63,1.44-2.94A2.08,2.08,0,0,1,67.77,15c-0.78,2.24-3.3,1.48-3.3,1.48a6.88,6.88,0,0,1-4-3.67c-1.15-2.8-4.57-6.09-7.57-3.72-3-2.38-6.42.91-7.57,3.72a6.88,6.88,0,0,1-4,3.67s-2.51.75-3.3-1.48a2.08,2.08,0,0,1,1.41-2.87c2.29-.68,2.2,2.17,1.44,2.94,0,0,2.85.11,2.81-3.35,0,0,2.19.23,4.11-4a14.42,14.42,0,0,1-4,1.85,8.88,8.88,0,0,1-2.63,0,5.4,5.4,0,0,0-5.62,4.58A4.89,4.89,0,0,0,38.57,19s2.76,1.85,6.49-2c0,0,.67,1.45,3.84,1.13a4.52,4.52,0,0,1-1.69-1.64,3.13,3.13,0,0,1,1.61-4.86,2.12,2.12,0,0,1,2.94,1.56,1.59,1.59,0,0,1-1.24,2.07s-1.44.37-1.15-1a2.7,2.7,0,0,1,1.33-1.29s-2.92-.54-3,1.77a2.12,2.12,0,0,0,1.45,2,3.76,3.76,0,0,0,2.81-.37l0.08,0a0.87,0.87,0,0,0-.08.38,1,1,0,0,0,1.95,0,0.87,0.87,0,0,0-.08-0.38l0.08,0a3.77,3.77,0,0,0,2.81.37,2.12,2.12,0,0,0,1.45-2c-0.1-2.32-3-1.77-3-1.77a2.7,2.7,0,0,1,1.33,1.29c0.29,1.4-1.15,1-1.15,1a1.59,1.59,0,0,1-1.24-2.07A2.12,2.12,0,0,1,57,11.53a3.13,3.13,0,0,1,1.61,4.86A4.52,4.52,0,0,1,57,18c3.16,0.32,3.84-1.13,3.84-1.13,3.73,3.9,6.49,2,6.49,2A4.89,4.89,0,0,0,70.22,14.16Z"/><path class="cls-1" d="M32.33,15.75a5.39,5.39,0,0,0-7.08,1.54,8.89,8.89,0,0,1-1.64,2.05,14.42,14.42,0,0,1-3.93,2c4.53,1.16,5.72-.69,5.72-0.69,2.68,2.19,4.37-.11,4.37-0.11-1.07.11-3.36-1.6-1.4-3a2.07,2.07,0,0,1,3.12.68c1.26,2-.9,3.5-0.9,3.5a6.87,6.87,0,0,1-5.35.82c-2.91-.85-7.61-0.22-7.62,3.6-3.73.86-3.29,5.59-1.82,8.24a6.88,6.88,0,0,1,.39,5.4s-1,2.44-3.21,1.65a2.07,2.07,0,0,1-1.36-2.89c0.9-2.22,3.07-.37,3.2.71,0,0,1.86-2.16-.87-4.29,0,0,1.55-1.57-.59-5.73a14.44,14.44,0,0,1-1,4.27,8.89,8.89,0,0,1-1.64,2.06,5.4,5.4,0,0,0,.08,7.25,4.88,4.88,0,0,0,5.57.69s3.17-1,2.45-6.35c0,0,1.56.38,3.27-2.3a4.52,4.52,0,0,1-2.34.29,3.13,3.13,0,0,1-2.79-4.29A2.12,2.12,0,0,1,20,29.52a1.59,1.59,0,0,1,.85,2.26s-0.61,1.36-1.52.26a2.7,2.7,0,0,1-.18-1.84s-2.24,1.94-.49,3.46a2.12,2.12,0,0,0,2.49.14,3.77,3.77,0,0,0,1.46-2.43l0-.09a0.87,0.87,0,0,0,.25.3A1,1,0,0,0,24.07,30a0.87,0.87,0,0,0-.34-0.18l0.09,0a3.77,3.77,0,0,0,2-2,2.13,2.13,0,0,0-.69-2.4c-1.87-1.37-3.27,1.25-3.27,1.25a2.7,2.7,0,0,1,1.84-.23C25,27.13,23.83,28,23.83,28a1.59,1.59,0,0,1-2.39-.32,2.12,2.12,0,0,1,.61-3.28,3.12,3.12,0,0,1,4.8,1.77,4.52,4.52,0,0,1,.23,2.34c2.23-2.27,1.51-3.7,1.51-3.7C34,24.34,34.25,21,34.25,21A4.89,4.89,0,0,0,32.33,15.75Z"/><path class="cls-1" d="M10,46.38a5.4,5.4,0,0,0-3.22,6.5,8.9,8.9,0,0,1,.58,2.56,14.44,14.44,0,0,1-.92,4.3c3.73-2.82,3-4.9,3-4.9,3.38-.73,2.64-3.49,2.64-3.49-0.58.91-3.34,1.64-3.19-.75a2.07,2.07,0,0,1,2.48-2c2.35,0.27,2.18,2.89,2.18,2.89a6.88,6.88,0,0,1-2.7,4.7C8.36,57.9,5.92,62,8.9,64.36c-1.65,3.45,2.32,6.06,5.3,6.56A6.87,6.87,0,0,1,18.67,74S20,76.26,18,77.52a2.07,2.07,0,0,1-3.11-.74c-1.17-2.09,1.63-2.63,2.55-2.06,0,0-.53-2.8-3.89-2,0,0-.26-2.19-4.85-3.11a14.43,14.43,0,0,1,2.69,3.47,8.9,8.9,0,0,1,.59,2.56,5.4,5.4,0,0,0,5.72,4.46,4.88,4.88,0,0,0,4-3.92s1.19-3.1-3.44-5.87c0,0,1.27-1,.25-4a4.52,4.52,0,0,1-1.23,2,3.12,3.12,0,0,1-5.09-.49A2.12,2.12,0,0,1,13,64.62a1.59,1.59,0,0,1,2.29.75s0.69,1.32-.75,1.35a2.7,2.7,0,0,1-1.56-1s0.12,3,2.4,2.54a2.12,2.12,0,0,0,1.66-1.87,3.77,3.77,0,0,0-1-2.66L16,63.66a0.87,0.87,0,0,0,.39,0,1,1,0,0,0-.43-1.9,0.87,0.87,0,0,0-.35.16l0-.09A3.78,3.78,0,0,0,15.38,59a2.12,2.12,0,0,0-2.31-1c-2.24.61-1.06,3.33-1.06,3.33a2.7,2.7,0,0,1,1-1.58c1.3-.6,1.26.89,1.26,0.89a1.59,1.59,0,0,1-1.74,1.67,2.12,2.12,0,0,1-2.18-2.52,3.12,3.12,0,0,1,4.37-2.65,4.52,4.52,0,0,1,2,1.28c-0.39-3.16-2-3.49-2-3.49,3-4.51.55-6.78,0.55-6.78A4.88,4.88,0,0,0,10,46.38Z"/><path class="cls-1" d="M19.93,83A5.4,5.4,0,0,0,23,89.54a8.89,8.89,0,0,1,2.37,1.14,14.43,14.43,0,0,1,2.78,3.4c0.13-4.68-1.95-5.42-1.95-5.42,1.54-3.1-1.08-4.24-1.08-4.24,0.35,1-.81,3.64-2.58,2a2.08,2.08,0,0,1,0-3.19c1.68-1.67,3.61.1,3.61,0.1a6.88,6.88,0,0,1,2,5c-0.18,3,1.48,7.47,5.21,6.63,1.67,3.44,6.18,2,8.43-.06a6.87,6.87,0,0,1,5.18-1.59s2.59,0.41,2.33,2.77a2.07,2.07,0,0,1-2.51,2c-2.36-.38-1-2.91,0-3.28,0,0-2.52-1.34-4,1.8,0,0-1.88-1.16-5.45,1.86a14.42,14.42,0,0,1,4.39.06A8.89,8.89,0,0,1,44,99.68a5.39,5.39,0,0,0,7-1.69,4.89,4.89,0,0,0-.57-5.59s-1.68-2.87-6.73-1c0,0,0-1.6-3-2.68A4.52,4.52,0,0,1,41.64,91a3.13,3.13,0,0,1-3.56,3.68,2.12,2.12,0,0,1-2-2.68,1.59,1.59,0,0,1,2-1.33s1.46,0.29.59,1.43a2.7,2.7,0,0,1-1.76.59s2.39,1.75,3.48-.29A2.13,2.13,0,0,0,40,89.89a3.77,3.77,0,0,0-2.7-.88H37.22a0.87,0.87,0,0,0,.23-0.31,1,1,0,0,0-1.76-.85,0.87,0.87,0,0,0-.1.37l-0.06-.08a3.77,3.77,0,0,0-2.37-1.56A2.12,2.12,0,0,0,31,87.8c-0.92,2.13,1.95,2.91,1.95,2.91A2.7,2.7,0,0,1,32.3,89c0.35-1.39,1.48-.43,1.48-0.43a1.59,1.59,0,0,1,.22,2.4,2.12,2.12,0,0,1-3.33.13A3.13,3.13,0,0,1,31.32,86a4.52,4.52,0,0,1,2.23-.75c-2.71-1.67-3.95-.65-3.95-0.65-1.67-5.13-5-4.66-5-4.66A4.88,4.88,0,0,0,19.93,83Z"/><path class="cls-1" d="M54.76,98a5.39,5.39,0,0,0,7,1.69,8.89,8.89,0,0,1,2.37-1.14,14.42,14.42,0,0,1,4.39-.06c-3.58-3-5.45-1.86-5.45-1.86-1.47-3.14-4-1.8-4-1.8,1,0.37,2.34,2.9,0,3.28a2.07,2.07,0,0,1-2.51-2c-0.26-2.35,2.33-2.77,2.33-2.77A6.87,6.87,0,0,1,64.09,95c2.25,2,6.76,3.5,8.43.06,3.73,0.84,5.39-3.61,5.21-6.63a6.88,6.88,0,0,1,2-5s1.94-1.77,3.61-.1a2.08,2.08,0,0,1,0,3.19c-1.77,1.61-2.93-1-2.58-2,0,0-2.61,1.14-1.08,4.24,0,0-2.08.75-1.95,5.42a14.43,14.43,0,0,1,2.78-3.4,8.89,8.89,0,0,1,2.37-1.14A5.4,5.4,0,0,0,85.92,83a4.88,4.88,0,0,0-4.72-3s-3.29-.47-5,4.66c0,0-1.24-1-3.95.65a4.52,4.52,0,0,1,2.23.75,3.13,3.13,0,0,1,.65,5.08,2.12,2.12,0,0,1-3.33-.13,1.59,1.59,0,0,1,.22-2.4s1.14-1,1.48.43a2.7,2.7,0,0,1-.63,1.74s2.86-.78,1.95-2.91a2.12,2.12,0,0,0-2.19-1.2,3.77,3.77,0,0,0-2.37,1.56l-0.06.08a0.87,0.87,0,0,0-.1-0.37,1,1,0,0,0-1.76.85,0.87,0.87,0,0,0,.23.31h-0.1a3.77,3.77,0,0,0-2.7.88,2.13,2.13,0,0,0-.42,2.46c1.09,2,3.48.29,3.48,0.29a2.7,2.7,0,0,1-1.76-.59c-0.87-1.14.59-1.43,0.59-1.43a1.59,1.59,0,0,1,2,1.33,2.12,2.12,0,0,1-2,2.68A3.13,3.13,0,0,1,64.22,91,4.52,4.52,0,0,1,65,88.75c-3,1.08-3,2.68-3,2.68-5.05-1.89-6.73,1-6.73,1A4.89,4.89,0,0,0,54.76,98Z"/><path class="cls-1" d="M88.2,80.11a5.4,5.4,0,0,0,5.72-4.46,8.9,8.9,0,0,1,.59-2.56,14.43,14.43,0,0,1,2.69-3.47c-4.58.92-4.85,3.11-4.85,3.11-3.36-.81-3.89,2-3.89,2,0.92-.57,3.72,0,2.55,2.06a2.07,2.07,0,0,1-3.11.74c-2-1.26-.71-3.54-0.71-3.54a6.87,6.87,0,0,1,4.47-3.06c3-.49,7-3.1,5.3-6.56,3-2.39.54-6.47-1.94-8.21a6.88,6.88,0,0,1-2.7-4.7s-0.18-2.62,2.18-2.89a2.07,2.07,0,0,1,2.48,2c0.15,2.39-2.61,1.66-3.19.75,0,0-.74,2.75,2.64,3.49,0,0-.71,2.09,3,4.9a14.44,14.44,0,0,1-.92-4.3,8.9,8.9,0,0,1,.58-2.56,5.4,5.4,0,0,0-3.22-6.5,4.88,4.88,0,0,0-5.32,1.79s-2.42,2.28.55,6.78c0,0-1.57.33-2,3.49a4.52,4.52,0,0,1,2-1.28,3.12,3.12,0,0,1,4.37,2.65,2.12,2.12,0,0,1-2.18,2.52,1.59,1.59,0,0,1-1.74-1.67s0-1.49,1.26-.89a2.7,2.7,0,0,1,1,1.58S95,58.64,92.78,58a2.12,2.12,0,0,0-2.31,1,3.77,3.77,0,0,0-.26,2.83l0,0.09a0.87,0.87,0,0,0-.35-0.16,1,1,0,0,0-.43,1.9,0.87,0.87,0,0,0,.39,0l-0.06.07a3.78,3.78,0,0,0-1,2.66,2.12,2.12,0,0,0,1.66,1.87c2.28,0.42,2.4-2.54,2.4-2.54a2.7,2.7,0,0,1-1.56,1c-1.43,0-.75-1.35-0.75-1.35a1.59,1.59,0,0,1,2.29-.75,2.12,2.12,0,0,1,.87,3.22,3.12,3.12,0,0,1-5.09.49,4.52,4.52,0,0,1-1.23-2c-1,3,.25,4,0.25,4-4.63,2.77-3.44,5.87-3.44,5.87A4.88,4.88,0,0,0,88.2,80.11Z"/><path class="cls-1" d="M95.08,42.81a5.4,5.4,0,0,0,.08-7.25,8.89,8.89,0,0,1-1.64-2.06,14.44,14.44,0,0,1-1-4.27C90.35,33.39,91.9,35,91.9,35,89.17,37.09,91,39.25,91,39.25c0.13-1.07,2.3-2.93,3.2-.71a2.07,2.07,0,0,1-1.36,2.89c-2.24.78-3.21-1.65-3.21-1.65a6.88,6.88,0,0,1,.39-5.4C91.53,31.73,92,27,88.23,26.14c0-3.83-4.72-4.45-7.62-3.6a6.87,6.87,0,0,1-5.35-.82s-2.16-1.49-.9-3.5a2.07,2.07,0,0,1,3.12-.68c2,1.37-.33,3.08-1.4,3,0,0,1.69,2.3,4.37.11,0,0,1.19,1.86,5.72.69a14.42,14.42,0,0,1-3.93-2,8.89,8.89,0,0,1-1.64-2.05,5.39,5.39,0,0,0-7.08-1.54A4.89,4.89,0,0,0,71.61,21s0.27,3.31,5.65,3.8c0,0-.72,1.43,1.51,3.7A4.52,4.52,0,0,1,79,26.19a3.12,3.12,0,0,1,4.8-1.77,2.12,2.12,0,0,1,.61,3.27A1.59,1.59,0,0,1,82,28s-1.19-.9.09-1.54a2.7,2.7,0,0,1,1.84.23s-1.39-2.62-3.26-1.25a2.13,2.13,0,0,0-.69,2.4,3.77,3.77,0,0,0,2,2l0.09,0a0.87,0.87,0,0,0-.34.18A1,1,0,0,0,83,31.56a0.87,0.87,0,0,0,.25-0.3l0,0.09a3.77,3.77,0,0,0,1.46,2.43,2.12,2.12,0,0,0,2.49-.14c1.75-1.52-.49-3.46-0.49-3.46A2.7,2.7,0,0,1,86.54,32c-0.92,1.1-1.52-.26-1.52-0.26a1.59,1.59,0,0,1,.85-2.26,2.12,2.12,0,0,1,3.05,1.33,3.13,3.13,0,0,1-2.79,4.29,4.52,4.52,0,0,1-2.34-.29c1.72,2.68,3.27,2.3,3.27,2.3-0.72,5.35,2.45,6.35,2.45,6.35A4.88,4.88,0,0,0,95.08,42.81Z"/><path class="cls-1" d="M52.93,23.11A31.14,31.14,0,1,0,84.05,54.25,31.13,31.13,0,0,0,52.93,23.11ZM81.84,49.88a32.16,32.16,0,0,1-6.26,2.82,22.84,22.84,0,0,0,5.81-5.55Q81.68,48.49,81.84,49.88Zm-1.06-6.29c-1.37,2.83-3.55,8-7.75,7.89a4,4,0,0,0-1.69,0,3,3,0,0,0-1.65,1.28,2.78,2.78,0,0,0-.08,2,2.83,2.83,0,0,1-.71-2,3.64,3.64,0,0,1,.59-1.85,2.42,2.42,0,0,1,.79-0.71c-0.91-2.28,2.32-6.31,5.13-3.15,0,0-2.07-.69-2.9.74s0.54,2.68,2.77,1.87c1.47-.54,4.16-3.63,4.2-8.87Q80.19,42.16,80.77,43.59Zm-4.4-7.72a34.36,34.36,0,0,1,1.69,3,33,33,0,0,1-3.68,5.62A21.25,21.25,0,0,0,76.37,35.87ZM73.25,32.4a21,21,0,0,1,0,5.25,78.31,78.31,0,0,0-4-8.51A29.24,29.24,0,0,1,73.25,32.4ZM55.11,44.31s1.45,4.7,7.44,4.36,8.05-7.27,6.88-10.52c-0.86-2.37-4.89-7.54-6.6-12.31l1,0.37a33.81,33.81,0,0,0,4.35,6.4c6.21,7.39,2.29,17.18-5,17.4S55,46.32,55.11,44.31ZM54.56,62.86A0.59,0.59,0,0,0,55.28,62a2,2,0,0,0-.92-0.89s1.81-.58,2.07,1.12a1.55,1.55,0,0,1-.83,1.61,2.29,2.29,0,0,1-2-.16l-0.06,0a0.69,0.69,0,1,1-1.25,0l-0.06,0a2.29,2.29,0,0,1-2,.16,1.55,1.55,0,0,1-.83-1.61c0.25-1.7,2.07-1.12,2.07-1.12a2,2,0,0,0-.92.89,0.59,0.59,0,0,0,.72.82c1.16-.11.88-1.49,0.88-1.49a1.34,1.34,0,0,0-1.81-1.28A2.88,2.88,0,0,0,49,61.64a1.23,1.23,0,0,1-.88.72H44.73c3.57-1.05,3.66-3.22,5.72-4.29a2,2,0,0,1,2.48.37,2,2,0,0,1,2.48-.37c2.05,1.07,2.15,3.23,5.72,4.29H57.76a1.23,1.23,0,0,1-.88-0.72,2.88,2.88,0,0,0-1.39-1.56,1.34,1.34,0,0,0-1.81,1.28S53.4,62.75,54.56,62.86ZM54,66.92a1,1,0,1,1-1-1A1,1,0,0,1,54,66.92ZM51,52.1l2-4.27,1.91,4.27L53,56.37Zm1.94-14.93s3.72,3.13,1.13,6.42a1.53,1.53,0,0,1-1.13.56,1.43,1.43,0,0,1-1.13-.56C49.2,40.3,52.93,37.17,52.93,37.17Zm-10.82-11,0.94-.36c-1.69,4.79-5.76,10-6.63,12.38-1.17,3.25.9,10.18,6.88,10.52s7.44-4.36,7.44-4.36c0.11,2-.67,5.93-8,5.71s-11.24-10-5-17.4A33.66,33.66,0,0,0,42.11,26.2Zm-9.5,6.19a29.24,29.24,0,0,1,4-3.29,77.87,77.87,0,0,0-4,8.62A20.92,20.92,0,0,1,32.61,32.39Zm-2.8,3.16a21.25,21.25,0,0,0,2,8.64,33,33,0,0,1-3.68-5.62A34.36,34.36,0,0,1,29.81,35.55Zm-3.11,5c0,5.23,2.73,8.33,4.2,8.87,2.22,0.81,3.63-.39,2.77-1.87s-2.9-.74-2.9-0.74c2.81-3.16,6,.87,5.13,3.15a2.42,2.42,0,0,1,.79.71,3.64,3.64,0,0,1,.59,1.85,2.83,2.83,0,0,1-.71,2,2.78,2.78,0,0,0-.08-2,3,3,0,0,0-1.65-1.28,4,4,0,0,0-1.69,0c-4.19.08-6.38-5.06-7.75-7.89Q26,41.84,26.7,40.5Zm-2.25,6.7a22.84,22.84,0,0,0,5.83,5.57A32.17,32.17,0,0,1,24,49.94Q24.17,48.55,24.45,47.2Zm-0.51,8.59c-0.07-.84-0.11-1.7-0.11-2.56,0-.22,0-0.44,0-0.66a60.33,60.33,0,0,0,10.58,3.11S25.66,55.83,23.94,55.79Zm6.56,4.85c-1.17,0-5.15-2.69-5.15-2.69l15.83,0.9S31.67,60.64,30.5,60.64Zm16-4a3.38,3.38,0,0,0,.25-2,2.7,2.7,0,0,0-2.09-2.32s-2-.65-3,0.84,1.63,2.24,2.52,1.86c0,0-.59,2.26-3.78,1.09,0,0-.43,1.79-4.83,1.3a8.23,8.23,0,0,0,2.79-1.95,3.9,3.9,0,0,0,.57-1.81s0.39-3.25,5.07-2.91A5,5,0,0,1,48.24,54a3.62,3.62,0,0,1,.14,1.44c-0.56,4.5-5.87,6.75-5.87,6.75-2,.25-7-0.75-7-0.75C44.19,60,45.31,59,46.48,56.6ZM43.55,83.07a28.9,28.9,0,0,1-3.16-1.28c11.12-3.15,9.43-10.93,9.43-10.93C51.42,75.47,46.81,80.33,43.55,83.07Zm2,0.59a18.86,18.86,0,0,0,5.8-11.85,5.68,5.68,0,0,0-1.71-4.12,3.83,3.83,0,0,0-2.4-1.17,1.19,1.19,0,0,0-1.19,1.21A1,1,0,0,0,47,68.88c1,0,.65-1.36.24-1.63,0,0,1.24-.4,1.51,1.31,0,0,1-.34,1.89,1.7A4.15,4.15,0,0,0,49,69.63a2.36,2.36,0,0,0-1,.28,2.25,2.25,0,0,1-3-1.25,2.44,2.44,0,0,1,.43-2.84c1.39-1.16,2.54-.77,3.68.07a6.81,6.81,0,0,1,1.47,1.51,5.51,5.51,0,0,1,1,2.34c0.84,4.54-2,10.87-3.68,14.43Q46.71,84,45.55,83.66ZM52.9,84.6q-1.12,0-2.21-.08a48.6,48.6,0,0,0,1.92-8.77L52.93,71h0l0.3,4.79a51.21,51.21,0,0,0,1.9,8.74Q54,84.6,52.9,84.6ZM58,84.15c-1.71-3.56-4.52-9.89-3.68-14.43a5.51,5.51,0,0,1,1-2.34,6.81,6.81,0,0,1,1.47-1.51c1.14-.84,2.29-1.23,3.68-0.07a2.44,2.44,0,0,1,.43,2.84,2.25,2.25,0,0,1-3,1.25,2.36,2.36,0,0,0-1-.28,4.15,4.15,0,0,0-1.66.64c0.91-2,1.89-1.7,1.89-1.7,0.27-1.71,1.51-1.31,1.51-1.31-0.41.27-.74,1.63,0.24,1.63a1,1,0,0,0,.93-1.15,1.19,1.19,0,0,0-1.19-1.21,3.83,3.83,0,0,0-2.4,1.17,5.68,5.68,0,0,0-1.71,4.12,18.86,18.86,0,0,0,5.8,11.85Q59.16,83.95,58,84.15ZM62.3,83C59,80.31,54.43,75.45,56,70.83c0,0-1.68,7.78,9.43,10.93A28.9,28.9,0,0,1,62.3,83Zm1-20.83S58,60,57.47,55.46A3.62,3.62,0,0,1,57.61,54a5,5,0,0,1,4.27-3.23C66.57,50.46,67,53.7,67,53.7a3.9,3.9,0,0,0,.57,1.81,8.23,8.23,0,0,0,2.79,1.95c-4.41.48-4.83-1.3-4.83-1.3-3.19,1.16-3.78-1.09-3.78-1.09,0.88,0.38,3.53-.37,2.52-1.86s-3-.84-3-0.84a2.7,2.7,0,0,0-2.09,2.32,3.38,3.38,0,0,0,.25,2c1.17,2.42,2.29,3.39,11,4.84C70.39,61.47,65.36,62.47,63.34,62.22Zm12-1.64c-1.17,0-10.68-1.79-10.68-1.79l15.83-.89S76.53,60.58,75.35,60.58Zm-3.91-5A60.31,60.31,0,0,0,82,52.5q0,0.36,0,.73c0,0.84,0,1.67-.11,2.49C80.21,55.77,71.44,55.61,71.44,55.61Z"/></svg>