<?xml version="1.0" encoding="utf-8"?>
<!-- Generator: Adobe Illustrator 19.0.1, SVG Export Plug-In . SVG Version: 6.00 Build 0)  -->
<svg version="1.1" id="Слой_1" xmlns="http://www.w3.org/2000/svg" xmlns:xlink="http://www.w3.org/1999/xlink" x="0px" y="0px"
	 viewBox="0 0 255 183" style="enable-background:new 0 0 255 183;" xml:space="preserve">
<style type="text/css">
	.st0{fill:#8E1A1C;}
</style>
<g>
	<polygon class="st0" points="169.2,83.2 169.2,0 125.8,0 109.2,49.9 109.2,0 99.2,0 99.2,69.9 113.2,69.9 133.2,10 159.2,10 
		159.2,73.2 129.7,73.2 126.4,83.2 	"/>
	<polygon class="st0" points="130.8,69.8 134.2,59.9 145.8,59.9 145.8,23.3 142.8,23.3 122.8,83.2 85.8,83.2 85.8,0 95.8,0 
		95.8,73.2 115.5,73.2 135.5,13.3 155.8,13.3 155.8,69.8 	"/>
	<polygon class="st0" points="29.5,99.9 34.5,99.9 39.8,115.1 45.1,99.9 50.2,99.9 50.2,119.9 46.5,119.9 46.5,104.9 41.4,119.9 
		38.3,119.9 33.2,104.9 33.2,119.9 29.5,119.9 	"/>
	<g>
		<path class="st0" d="M70.2,109.9c0-3.7-2.9-6.8-6.9-6.8c-3.9,0-6.9,3.1-6.9,6.8c0,3.8,3,6.9,6.8,6.9
			C67.3,116.7,70.2,113.6,70.2,109.9 M73.9,110c0,5.8-4.6,10.4-10.6,10.4s-10.6-4.6-10.6-10.4c0-5.8,4.6-10.5,10.6-10.5
			S73.9,104.2,73.9,110"/>
		<path class="st0" d="M91.1,105.6c-1-1.3-2.7-2.5-5-2.5c-4,0-6.8,3.2-6.8,6.8c0,3.8,3,6.9,6.8,6.9c1.8,0,3.6-0.7,4.8-2.3h4.3
			c-1.6,3.5-4.9,5.9-9.2,5.9c-7,0-10.4-5.9-10.4-10.5c0-4.5,3.4-10.4,10.5-10.4c4.1,0,7.6,2.2,9.3,6.1H91.1z"/>
	</g>
	<polygon class="st0" points="97.7,99.9 101.4,99.9 101.4,108.5 107.7,99.9 112.1,99.9 104.5,109.7 112.1,119.9 107.7,119.9 
		101.4,111.1 101.4,119.9 97.7,119.9 	"/>
	<g>
		<path class="st0" d="M129.2,109.9c0-3.7-2.9-6.8-6.8-6.8c-3.9,0-6.9,3.1-6.9,6.8c0,3.8,2.9,6.9,6.8,6.9
			C126.3,116.7,129.2,113.6,129.2,109.9 M132.9,110c0,5.8-4.6,10.4-10.6,10.4c-6,0-10.6-4.6-10.6-10.4c0-5.8,4.6-10.5,10.6-10.5
			C128.3,99.5,132.9,104.2,132.9,110"/>
		<path class="st0" d="M141.6,116.3c0.4,0,3.2,0,3.2-2.5c0-0.8-0.3-2.6-3.2-2.6h-2.4v5.1H141.6z M141,107.6c2.4,0,2.6-1.5,2.6-2.1
			c0-1.9-1.8-2.1-2.6-2.1h-1.7v4.1H141z M135.5,99.9h4.8c1.2,0,7,0,7,5.3c0,2.5-1.7,3.5-2.2,3.8c2.2,0.7,3.4,2.6,3.4,4.8
			c0,2.9-1.6,6.1-8,6.1h-5V99.9z"/>
		<path class="st0" d="M165.7,105.6c-1-1.3-2.7-2.5-5-2.5c-4,0-6.8,3.2-6.8,6.8c0,3.8,3,6.9,6.8,6.9c1.8,0,3.6-0.7,4.8-2.3h4.3
			c-1.7,3.5-4.9,5.9-9.2,5.9c-7,0-10.4-5.9-10.4-10.5c0-4.5,3.4-10.4,10.5-10.4c4.1,0,7.6,2.2,9.3,6.1H165.7z"/>
	</g>
	<polygon class="st0" points="172.3,99.9 176,99.9 176,108.5 182.3,99.9 186.7,99.9 179.2,109.7 186.7,119.9 182.3,119.9 176,111.1 
		176,119.9 172.3,119.9 	"/>
	<polygon class="st0" points="192.8,99.9 192.8,113.9 201.8,99.9 205.5,99.9 205.5,119.9 201.8,119.9 201.8,105.8 192.8,119.9 
		189.1,119.9 189.1,99.9 	"/>
	<g>
		<path class="st0" d="M215.6,95c0.1,0.9,0.9,1.3,1.8,1.3c0.8,0,1.6-0.4,1.8-1.3h3.1c-0.4,2.2-2.2,3.8-4.9,3.8
			c-2.7,0-4.5-1.6-4.9-3.8H215.6z M212.9,99.9v14.1l8.9-14.1h3.7v20h-3.7v-14.1l-8.9,14.1h-3.7v-20H212.9z"/>
	</g>
	<polygon class="st0" points="3.7,131.4 3.7,145.4 12.6,131.4 16.4,131.4 16.4,151.4 12.6,151.4 12.6,137.3 3.7,151.4 0,151.4 
		0,131.4 	"/>
	<polygon class="st0" points="20,131.4 23.7,131.4 23.7,139.4 31.1,139.4 31.1,131.4 34.8,131.4 34.8,151.4 31.1,151.4 31.1,143 
		23.7,143 23.7,151.4 20,151.4 	"/>
	<path class="st0" d="M52.7,147.8l-5-11.3l-5,11.3H52.7z M56.8,147.8h1.9v6.1h-3.7v-2.5H40.5v2.5h-3.7v-6.1h1.9l7.4-16.4h3.3
		L56.8,147.8z"/>
	<polygon class="st0" points="65.2,151.4 61.1,151.4 63.4,146.3 55.8,131.4 60.3,131.4 65.5,142 70.2,131.4 74.2,131.4 	"/>
	<g>
		<path class="st0" d="M89.1,137.1c-1-1.3-2.7-2.5-5-2.5c-4,0-6.8,3.2-6.8,6.8c0,3.8,3,6.9,6.8,6.9c1.8,0,3.6-0.7,4.8-2.3h4.3
			c-1.7,3.5-4.9,5.9-9.2,5.9c-7,0-10.4-5.9-10.4-10.5c0-4.5,3.4-10.3,10.5-10.3c4.1,0,7.6,2.2,9.3,6.1H89.1z"/>
	</g>
	<polygon class="st0" points="97.7,135 94,135 94,131.4 105.1,131.4 105.1,135 101.4,135 101.4,151.4 97.7,151.4 	"/>
	<g>
		<path class="st0" d="M110.8,140.2h2.2c1,0,3.2-0.2,3.2-2.6c0-2.5-2.2-2.6-3.2-2.6h-2.2V140.2z M107.1,131.4h5.6
			c6.4,0,7.2,4.3,7.2,6.2c0,2.5-1.4,6.2-7.2,6.2h-1.9v7.6h-3.7V131.4z"/>
	</g>
	<polygon class="st0" points="125.9,131.4 125.9,145.4 134.9,131.4 138.6,131.4 138.6,151.4 134.9,151.4 134.9,137.3 125.9,151.4 
		122.2,151.4 122.2,131.4 	"/>
	<path class="st0" d="M152.7,142.6l-2.3-5.8l-2.3,5.8H152.7z M148.9,131.4h3l8.3,20h-4.1l-2.1-5.2h-7.4l-2.1,5.2h-4.1L148.9,131.4z"
		/>
	<polygon class="st0" points="179.8,151.4 175.7,151.4 170.2,136.5 164.7,151.4 160.6,151.4 168.6,131.4 171.8,131.4 	"/>
	<g>
		<path class="st0" d="M185.5,147.8h3c1.7,0,2.9-0.9,2.9-2.5c0-1.6-1.2-2.6-2.9-2.6h-3V147.8z M185.5,131.4v7.7h3
			c5,0,6.6,3.2,6.6,6.2c0,3.6-2.7,6.1-6.6,6.1h-6.7v-20H185.5z"/>
	</g>
	<polygon class="st0" points="197.5,131.4 201.2,131.4 201.2,139.4 208.5,139.4 208.5,131.4 212.2,131.4 212.2,151.4 208.5,151.4 
		208.5,143 201.2,143 201.2,151.4 197.5,151.4 	"/>
	<g>
		<path class="st0" d="M231.3,131.4h3.7v20h-3.7V131.4z M219.6,147.8h3c1.7,0,2.9-0.9,2.9-2.5c0-1.6-1.2-2.6-2.9-2.6h-3V147.8z
			 M219.6,131.4v7.7h3c5,0,6.6,3.2,6.6,6.2c0,3.6-2.7,6.1-6.6,6.1h-6.7v-20H219.6z"/>
		<path class="st0" d="M245.1,126.5c0.1,0.9,0.9,1.4,1.8,1.4c0.8,0,1.6-0.4,1.8-1.4h3.1c-0.4,2.2-2.2,3.8-4.9,3.8
			c-2.7,0-4.5-1.6-4.9-3.8H245.1z M242.4,131.4v14.1l8.9-14.1h3.7v20h-3.7v-14.1l-8.9,14.1h-3.7v-20H242.4z"/>
		<path class="st0" d="M96.7,179.4h3.2c2,0,2.9-1.3,2.9-2.5c0-0.9-0.6-2.6-2.9-2.6h-3.2V179.4z M104.7,163v3.6h-8v4.1h3.2
			c6.4,0,6.6,5.1,6.6,6.2c0,3.6-2.7,6.1-6.6,6.1H93v-20H104.7z"/>
	</g>
	<path class="st0" d="M119.7,174.2l-2.3-5.8l-2.3,5.8H119.7z M115.9,163h3l8.3,20h-4.1l-2.1-5.2h-7.4l-2.1,5.2h-4.1L115.9,163z"/>
	<polygon class="st0" points="129.2,163 133,163 133,171 140.3,171 140.3,163 144,163 144,183 140.3,183 140.3,174.6 133,174.6 
		133,183 129.2,183 	"/>
	<polygon class="st0" points="147.7,163 151.4,163 151.4,171.7 157.6,163 162,163 154.5,172.8 162,183 157.6,183 151.4,174.2 
		151.4,183 147.7,183 	"/>
</g>
</svg>
