<svg id="Layer_1" data-name="Layer 1" xmlns="http://www.w3.org/2000/svg" viewBox="0 0 135 134"><defs><style>.cls-1{fill:#e7d780;}</style></defs><title>news-date</title><path class="cls-1" d="M67.5,3.62l2.24,1.5,6.33,4.24A13,13,0,0,0,79.27,11h0a5.4,5.4,0,0,0,.64,0,10.2,10.2,0,0,0,1.2-.08h0.69a10.86,10.86,0,0,1,10.44,7.23,10.52,10.52,0,0,1,3.5-.61,11.38,11.38,0,0,1,8.84,4.71l0.08,0.11,0.07,0.12a8.13,8.13,0,0,0,1.12,1.49,13.56,13.56,0,0,0,3.23,1.53l7.22,2.37,2.55,0.84,0.24,2.7L119.76,39a13.36,13.36,0,0,0,.76,3.54h0A8.28,8.28,0,0,0,121.69,44l0.1,0.1,0.09,0.1c2,2.3,4.57,7.72,1.21,13.1,5.34,3.37,5.37,9.37,4.52,12.33l0,0.13,0,0.13a8.23,8.23,0,0,0-.45,1.81,14,14,0,0,0,.83,3.51l2.67,7.19,0.94,2.54-1.94,1.87-5.49,5.31a13.21,13.21,0,0,0-2.26,2.81h0a8.41,8.41,0,0,0-.36,1.82v0.13l0,0.14c-0.5,3-3.08,8.41-9.36,9.12a11,11,0,0,1-6.7,11.28l-0.13.05-0.13,0a8,8,0,0,0-1.68.77,13.81,13.81,0,0,0-2.19,2.85l-3.89,6.6L96,130.06l-2.66-.37-7.52-1a19.23,19.23,0,0,0-2.23-.14,5.84,5.84,0,0,0-1.35.11h0a8.16,8.16,0,0,0-1.63.85l-0.11.07-0.12.07A11.87,11.87,0,0,1,74.89,131a10.27,10.27,0,0,1-7.39-3.12A10.27,10.27,0,0,1,60.11,131a11.85,11.85,0,0,1-5.49-1.38l-0.11-.06-0.11-.07a8.05,8.05,0,0,0-1.65-.85,6.19,6.19,0,0,0-1.34-.1,19.27,19.27,0,0,0-2.23.14l-7.51,1L39,130l-1.36-2.32-3.89-6.6a13.18,13.18,0,0,0-2.2-2.85h0a8.13,8.13,0,0,0-1.67-.76l-0.12,0-0.12-.05a11,11,0,0,1-6.7-11.28c-6.28-.72-8.86-6.15-9.36-9.12l0-.13V96.73a8.18,8.18,0,0,0-.37-1.82,13.78,13.78,0,0,0-2.25-2.8L5.42,86.8,3.48,84.93l0.94-2.54L7.09,75.2a13.36,13.36,0,0,0,.83-3.52h0a8.39,8.39,0,0,0-.45-1.8l0-.13,0-.13c-0.85-3-.81-9,4.52-12.33-3.36-5.38-.82-10.8,1.21-13.1l0.09-.1L13.31,44a8.17,8.17,0,0,0,1.18-1.44A14,14,0,0,0,15.25,39l0.68-7.65,0.24-2.7,2.55-.84,7.21-2.37a13,13,0,0,0,3.24-1.54h0a8.26,8.26,0,0,0,1.11-1.48l0.07-.12,0.08-.11a11.35,11.35,0,0,1,8.84-4.71,10.52,10.52,0,0,1,3.5.61,10.86,10.86,0,0,1,10.44-7.23h0.44l0.24,0a10.2,10.2,0,0,0,1.2.08,5.19,5.19,0,0,0,.65,0,13.57,13.57,0,0,0,3.2-1.6l6.33-4.24,2.24-1.5M67.5,0L65.86,1.1,63.62,2.6,57.29,6.83A14.27,14.27,0,0,1,55.19,8h-0.1a7.27,7.27,0,0,1-.85-0.06H54.16l-0.24,0s-0.28,0-.71,0a13.86,13.86,0,0,0-12.09,6.75,13.06,13.06,0,0,0-1.85-.13c-6.9,0-10.85,5.37-11.27,6l-0.07.11-0.05.07,0,0.08-0.07.12a7.12,7.12,0,0,1-.56.79,13.85,13.85,0,0,1-2.19,1L17.79,25l-2.55.84-1.87.61-0.18,2L13,31.09l-0.68,7.65a14.62,14.62,0,0,1-.44,2.38,7.07,7.07,0,0,1-.63.72l-0.09.09L11.06,42,11,42.05l-0.09.1A14.37,14.37,0,0,0,8.17,56.41a14.35,14.35,0,0,0-3.64,14l0,0.13,0,0.08,0,0.08,0,0.13a7.16,7.16,0,0,1,.26.93,14.23,14.23,0,0,1-.63,2.33L1.64,81.33,0.69,83.87,0,85.73l1.42,1.38L3.36,89l5.49,5.31a14.46,14.46,0,0,1,1.56,1.82,7,7,0,0,1,.16.94v0.24l0,0.11,0,0.13a14.17,14.17,0,0,0,9.29,11,14.2,14.2,0,0,0,8.57,11.65l0.13,0.05,0.08,0,0.09,0,0.12,0a6.88,6.88,0,0,1,.88.37,14.06,14.06,0,0,1,1.41,2l3.88,6.6,1.36,2.32,1,1.71L39.4,133l2.67-.36,7.51-1h0a16.62,16.62,0,0,1,1.84-.12l0.56,0a7,7,0,0,1,.83.46l0.11,0.07L53,132.13l0.08,0,0.11,0.06A14.75,14.75,0,0,0,60.11,134a13,13,0,0,0,7.39-2.25A13,13,0,0,0,74.89,134a14.77,14.77,0,0,0,6.94-1.76l0.12-.07,0.08,0,0.08-.05,0.11-.07a6.89,6.89,0,0,1,.82-0.46l0.56,0a16.4,16.4,0,0,1,1.85.12l7.5,1L95.59,133l2,0.27,1-1.71,1.37-2.33,3.89-6.6a14.56,14.56,0,0,1,1.41-1.95,6.89,6.89,0,0,1,.88-0.37l0.12,0,0.09,0,0.09,0,0.13-.05a14.2,14.2,0,0,0,8.57-11.65,14.19,14.19,0,0,0,9.29-11l0-.14,0-.09V97a7,7,0,0,1,.16-0.94,14.08,14.08,0,0,1,1.56-1.82l5.48-5.3,1.94-1.87L135,85.74l-0.69-1.87-0.94-2.54-2.67-7.19a14.7,14.7,0,0,1-.63-2.33,7.08,7.08,0,0,1,.26-0.92l0-.12,0-.09,0-.09,0-.13a14.35,14.35,0,0,0-3.64-14,14.36,14.36,0,0,0-2.73-14.25l-0.09-.1L124,42l-0.07-.07-0.1-.1a7,7,0,0,1-.64-0.72,14.25,14.25,0,0,1-.43-2.38L122,31.09l-0.24-2.7-0.18-2-1.87-.61L117.21,25,110,22.58a14.25,14.25,0,0,1-2.19-1,7,7,0,0,1-.55-0.78l-0.07-.12,0-.08-0.05-.07L107,20.46c-0.43-.61-4.39-6-11.27-6a13.06,13.06,0,0,0-1.85.13A13.86,13.86,0,0,0,81.79,7.86a5.18,5.18,0,0,0-.63,0v0H80.75a7.23,7.23,0,0,1-.84.05h-0.1a13.86,13.86,0,0,1-2.1-1.14L71.38,2.6,69.14,1.1,67.5,0h0Z"/></svg>