<svg xmlns="http://www.w3.org/2000/svg" xmlns:xlink="http://www.w3.org/1999/xlink" id="Слой_4" data-name="Слой 4" viewBox="0 0 753 753"><defs><style>.cls-1,.cls-6{fill:none;}.cls-2{fill:#eed87b;}.cls-3{font-size:14.09px;font-family:'GothamPro', Arial;}.cls-3,.cls-5{fill:#fff;}.cls-4{letter-spacing:-1px;}.cls-6{stroke:#153e28;stroke-miterlimit:10;}.cls-7{opacity:0.6;}.cls-8{clip-path:url(#clip-path);}</style></defs><title>floor-plan-commercial</title><text class="cls-3" transform="translate(58.63 258.42)">16,5</text><text class="cls-3" transform="translate(58.63 180.47)">2<tspan x="8.44" y="0">0</tspan><tspan x="18.24" y="0">,</tspan><tspan x="20.99" y="0">1</tspan></text><text class="cls-3" transform="translate(58.63 84.34)">22,2</text><text class="cls-3" transform="translate(149.89 82.22)">1<tspan x="5.05" y="0">9</tspan><tspan x="14.02" y="0">,6</tspan></text><text class="cls-3" transform="translate(247.13 82.22)">1<tspan class="cls-4" x="5.05" y="0">7</tspan><tspan x="12.04" y="0">,3</tspan></text><text class="cls-3" transform="translate(320.42 82.22)">36,9</text><text class="cls-3" transform="translate(407.45 82.22)">36,9</text><text class="cls-3" transform="translate(483.55 84.34)">1<tspan class="cls-4" x="5.04" y="0">7</tspan><tspan x="12.04" y="0">,3</tspan></text><text class="cls-3" transform="translate(575.16 82.22)">1<tspan x="5.04" y="0">9</tspan><tspan x="14.02" y="0">,6</tspan></text><text class="cls-3" transform="translate(670.99 82.22)">22,2</text><text class="cls-3" transform="translate(673.74 177.18)">2<tspan x="8.44" y="0">0</tspan><tspan x="18.24" y="0">,</tspan><tspan x="20.99" y="0">1</tspan></text><text class="cls-3" transform="translate(673.77 259.62)">18,5</text><text class="cls-3" transform="translate(668.43 334.17)">43<tspan x="18.1" y="0">,</tspan><tspan x="21.27" y="0">0</tspan></text><text class="cls-3" transform="translate(668.43 424.87)">43<tspan x="18.1" y="0">,</tspan><tspan x="21.27" y="0">0</tspan></text><text class="cls-3" transform="translate(673.77 500.53)">18,5</text><text class="cls-3" transform="translate(673.74 584.39)">2<tspan x="8.44" y="0">0</tspan><tspan x="18.24" y="0">,</tspan><tspan x="20.99" y="0">1</tspan></text><text class="cls-3" transform="translate(670.99 681.81)">22,2</text><text class="cls-3" transform="translate(576.21 681.81)">1<tspan x="5.04" y="0">9</tspan><tspan x="14.02" y="0">,6</tspan></text><text class="cls-3" transform="translate(479.32 681.81)">1<tspan class="cls-4" x="5.04" y="0">7</tspan><tspan x="12.04" y="0">,3</tspan></text><text class="cls-3" transform="translate(407.45 681.81)">36,9</text><text class="cls-3" transform="translate(317.37 681.81)">36,9</text><text class="cls-3" transform="translate(238.09 681.81)">1<tspan class="cls-4" x="5.05" y="0">7</tspan><tspan x="12.04" y="0">,3</tspan></text><text class="cls-3" transform="translate(149.89 681.81)">1<tspan x="5.05" y="0">9</tspan><tspan x="14.02" y="0">,6</tspan></text><text class="cls-3" transform="translate(58.63 681.81)">22,2</text><text class="cls-3" transform="translate(58.63 582.8)">2<tspan x="8.44" y="0">0</tspan><tspan x="18.24" y="0">,</tspan><tspan x="20.99" y="0">1</tspan></text><text class="cls-3" transform="translate(58.63 504.76)">18,5</text><text class="cls-3" transform="translate(58.63 424.87)">43<tspan x="18.1" y="0">,</tspan><tspan x="21.27" y="0">0</tspan></text><text class="cls-3" transform="translate(58.63 332.97)">43<tspan x="18.1" y="0">,</tspan><tspan x="21.27" y="0">0</tspan></text></svg>