<svg xmlns="http://www.w3.org/2000/svg" xmlns:xlink="http://www.w3.org/1999/xlink" id="plan" data-name="Слой 4" viewBox="0 0 753 753"><defs><style>.cls-1,.cls-6{fill:none;}.cls-2{fill:#eed87b;}.cls-3{font-size:14.09px;font-family:'GothamPro', Arial;}.cls-3,.cls-5{fill:#fff;}.cls-4{letter-spacing:-1px;}.cls-6{stroke:#153e28;stroke-miterlimit:10;}.cls-7{opacity:0.6;}.cls-8{clip-path:url(#clip-path);}</style></defs><title>floor-plan-commercial</title><path class="cls-5" d="M17.81,252.41H35.62V220.55h98.75v9.87H139V196h-4.58v12.34h-105V195.46H19.57v50H10.05v13h7.76v-6.11ZM35.09,34.7H53V26.35h1.76V18.59H19.57V53.15H35.09V34.7Zm65.6,0.71H112v80.29h22.39v4.73H139v-6h5.91v-3.56H137.6v-9.76H115.74V35.4H128V26.35h17.63V18.59H99.28v7.76h1.41V35.4Zm38.21,344.09H190.5V383h17.87v99.6H173.1v5.2h78.41v18.87h6V487.17h98.34V472.83h-13L343,413.42h-6.23v4H302.18v-4h-5.41v4h-52.9v6.11H276.7v11.52h6.11V423.57h53.93v49.25H282.81V458.6H276.7v14.22H220.83V423.57h4.26v-6.11h-4.26V294.85h65.6v94h10.34v5h4.7v-5h35.27v5.69H343v-5.69h2V368.2h-8v7.52H299.59V338.34H337v9.11h8V324.24h-8v8.23H299.59V294.85H337v9.29h8V276.75h13.69v-13H257.39v-19h-6.17v19.13H172.63v4.5h35.74V368.91H190.5v3.53H138.89V367.5H0.06v16.69H138.89v-4.7ZM17,297H138.78V268.28h14.9v-4.5H139V246.5h-4.58v18.37h-9.58V277H109.86v13.28h-92v-9.17H10.05v14.61l-1.92.47-0.75,3.63,8.19,2.41ZM164.64,174.3h3.64V155.6H207.9v30.86H194.5V206.8H168.28V188.93h-3.64V210.8H207.9v16.75H168.28v-2.06h-3.64V231h50.67v-10.7l35.91,0v5.55h6.17v-5.53h8.46v-7.05h-11.2v-30h11.2V160.56h-3.44v19.29H251.28v9.52H223.18v-40h11.87v-3.44H223.18V131.36h39.23v14.19h3.44v-24.8h2.26v-3.1h-5.7v10.27H223.18V33.05h30.09V16.83h3.06V9.07H245.87v9.52H198.5v7.76H210.6v84.52H196.73v3.56H207.9v37.71H168.28V114.43h13.4v-3.56H163.35v3.56h1.29V174.3ZM29.36,126.86H93v20.63h41.38v31.45H139V137.21h-4.58V144H96.46V123.39H37.74V101.12H19.57v38.62h9.79V126.86Zm266.53,38.62H291v47.79h-5.23v7.05H467.46v-7.05h-4.7V166.18h-5.64v47.08H398.81V177.06H383.29V0.49H369.51V177.06H353.67v36.21H295.89V165.48ZM291,117.65h-4.41v3.1H291v22.34h4.94V16.83h0.41l6.37-1.8-2-8.3-2.82,1-0.1,1.33h-13.1v7.76H291V117.65Zm196.11,26h3.76V130.89h38.35V145.2H517.43V149h11.75v40.79h-27.6V178.38H490.83v-20h-3.76v23.78h10.65v31.12H486.51v7.05h11.21v5.47h3.86V219.5h36.59v10.79h49.32v-5h-3.25v1.59h-39.6v-17h42.85V188.23h-3.86V206H558.1V185.4H542.46V155h41.16v18.22h3.86V110H570.91v3.86h12.72v37.18H542.46V113.91h13.4V110h-13.4V27.53h12.34V18.59H507.2V9.42h-9.4v7.67h1.53V33.29h29.86v93.84H490.83V116.75h-6.38v3.76h2.62v23.1ZM614.53,296.14H735.95l1.46,5.81,8.26-1.67-0.83-4.13-1.35.24V280.86h-7.76v9.29H643.44V276.39h-14.9V264.31h-9.43V245.62h-5.47v18.69H589.07V269h25.45v27.16ZM699.64,35.05h18V52.8h15V18.59h-35v8.93h2v7.52Zm-86,84.76h5.47v-4.7h22.1V35.05H652V27.53H653V18.59H608.06v8.93H625v7.52h11.52v65.13H615.7V110h-8v3.86h5.94v5.9Zm5.47,16.34h-5.47v41.76h5.47v-31.3h40.73V126.16H723v81.47H619.11V195.16h-5.47v35.27h5.47V220.32h97.16v32.45h19.46v6.58h7.76V245.59H732.67V101.65h-16.4v20.28H655.61v20.46h-36.5v-6.23Zm-162-119.32V143.08h5.64V120.51h3.41v-3.76h-3.41V17.09H469V9.42H457l0.2-1.6-4.14-1-2.4,8.62L456,16.81ZM614.53,368.26v4.41H562.86v-4.41h-18V269h25.45v-4.67H501.58v-19.4h-3.86V263.7H397.63v13H410.1v15H416v-15h53.63v49.84H416V312.48H410.1v22.57H416v-2.59h34.8v4.23h5.88v-4.23H507.9v-5.88H482V276.75h49.14v49.84H528v5.88h3.14V455h-64.3v-94.4H456.65v-4.88h-5.88v4.88H416v-5.64H410.1V360h-1.88v22.45H416v-8.82h37.79V410.7H416v-7h-7.76v22.69h7.93v-9.17h37.62V455H416.15v-7.05h-7.93v24.92h-13.4v14.34H497.44V506h4V487.17h75.82v-4H544.87V383.78h18v-5.47h51.67v5.47H752.77V368.26H614.53ZM457.12,587.09h4.94v-47.9h5.41v-6.41H284.78v5.88H290v47.49h5.88V538.66h58.31v37.13h16.22v176.8h12.7V575.79h16.46V538.66h57.6v48.43Zm278.72-87.46H716.62V531H618.05v-9h-3.88v34.65h4.76V544.07H723.68v80.64H660.14V605h-41.2V573.25h-4.76v41.82h4.76v-6.23h37.79v19.87h59v22h16.93V506.92h10.58V493.75h-7.41v5.88ZM537.53,532.08H501.44v-6.82h-4.7v7.52H486.57v6.41h11.31v29.9H486.45v19.18H490V572.65h11.43v-10h28.33v39.21H517.31v4.29h12.46v13.75H490v-17.3h-3.56v27.52h-1.57V634H490V623.45h39.76V719.7H500v15.78h-2.76v7.41H507.4V732.39h46.88v-6.64H545V640.52H556.4v-3.26H545V600.73h39.5v36.53H571.37v3.26h16.71v-62.6h-3.53v18.46H545v-30h13.4V545.48h26.1v17.75h3.53V541.6H545V525.14h43v-3.53H537.53v10.46ZM652.79,717.23h-12L640.8,637H618.93v-5.29h-4.76v5.55H608v3.26h6.13v11.29h23.39v65.42h-12.2v8.52h-18v6.64h47.29v-6.93h-1.88v-8.23Zm64.89,0H700v8.23h-1.88v6.93h34.59V699.06h-15v18.16Zm18.21-261.8H614.17v27.74h-18.1v4h18.1V506.6h3.88V487.17h10.7V475.89h14.34V462h92.75v9.76h7.41V455.9h2.29v-3.53l-8.47-2.48Zm-440.06,277V608.49H290v22.69h-2.59v3.44H290v101h-5.88v7.14h12.34l-0.24,2,3.9,1,2.6-8.95-6.85-1.72v-2.8ZM265.91,603.32h-3.61v17.2H223.42V606.67h11.45v-4.23H223.42V561.59h27.95V573H262.3v15.87h3.61V569.37H255V538.66h11.53v-5.88h-9.12v-7.85h-5.94v6.9H215V520.62H164.87v5.19h3.36V524h42.25V541.3H164.87v21.81h3.36V544.66h26.44v21.27h15.81v30.33H168.23V577.49h-3.36v60.39h-1.06v3.79h18v-4.12H168.23V599.62h42.25v37.93H196.91v4.12h13.57v83.67H198.14v7.05H245.4v10.4h9.29v-7.14h-0.94V719.23H223.42V624.74h38.88v9.87h6.21v-3.44h-2.6V603.32ZM462.29,634H466v-3.88h-4V608.49h-4.94V735.27l-7.1,2,2.44,8.66,4.08-1.21-0.29-1.34,1.68-.47h10.6v-7.41h-6.23V634ZM127.37,717.7H115.15V651.45h22.31v-9.79h7.49v-3.79h-6.05v-5.64h-4.7V637H111.62v80.7H101.28v8.23H99.63v6.47H145v-7.05H127.37V717.7Zm-74.21-.47H35.09V699.77H19.57v32.62h35v-6.47H53.17v-8.7Zm81-101.57h4.7V573.93h-4.58v31.86H93v19.4H29.89V612.84H19.57v38.09H37.21V629.18H96.69v-20h37.5v6.53ZM9.64,493.52v13.87h9.93v50.17H29.89V544.07H134.31v12.87h4.58V522.47h-4.26v9.26H36.15V499.63H17.28v-6.11H9.64Zm129.25-39H17.11l-1.3-4.64-8.5,2.08,0.64,4H9.64v15.87h7.64v-9.7h92v14.11h15.34v11.64h10v18h4.26v-18h15.4v-5.2h-15.4V454.49Z" transform="translate(0 -0.17)"/><path class="cls-6" d="M700.66,722.25" transform="translate(0 -0.17)"/><path class="cls-6" d="M652.08,722.25" transform="translate(0 -0.17)"/><path class="cls-6" d="M744.65,298.24" transform="translate(0 -0.17)"/><rect class="cls-5" x="723.35" y="650.58" width="1" height="48.32"/><rect class="cls-5" x="654.67" y="725.28" width="43.41" height="1"/><rect class="cls-5" x="554.28" y="725.58" width="53.11" height="1"/><rect class="cls-5" x="145.01" y="725.16" width="53.13" height="1"/><rect class="cls-5" x="54.58" y="725.75" width="45.05" height="1"/><path class="cls-5" d="M752.75,368.67l-1,0c1-23.52-1.09-43.91-7.07-68.17l1-.24C751.66,324.58,753.78,345,752.75,368.67Z" transform="translate(0 -0.17)"/><path class="cls-5" d="M745.47,370.1l-1,0c1-23.52-1.09-43.91-7.07-68.17l1-.24C744.38,326,746.5,346.48,745.47,370.1Z" transform="translate(0 -0.17)"/><path class="cls-5" d="M745.54,452.42l-1-.24c6-24.25,8.09-44.72,7.05-68.44l1,0C753.67,407.51,751.55,428.06,745.54,452.42Z" transform="translate(0 -0.17)"/><path class="cls-5" d="M737.92,450.8l-1-.24c5.3-21.48,8.59-41.06,7.47-66.82l1,0C746.55,409.57,743.24,429.24,737.92,450.8Z" transform="translate(0 -0.17)"/><rect class="cls-5" x="54.72" y="25.18" width="44.56" height="1"/><rect class="cls-5" x="145.59" y="25.18" width="52.9" height="1"/><rect class="cls-5" x="28.36" y="139.4" width="1" height="55.88"/><rect class="cls-5" x="19.57" y="139.56" width="1" height="55.72"/><rect class="cls-5" x="19.57" y="650.75" width="1" height="48.84"/><rect class="cls-5" x="19.57" y="557.38" width="1" height="55.28"/><rect class="cls-5" x="34.09" y="650.58" width="1" height="49.01"/><rect class="cls-5" x="9.64" y="471.6" width="1" height="21.75"/><rect class="cls-5" x="16.28" y="471.6" width="1" height="21.75"/><rect class="cls-5" x="10.05" y="258.35" width="1" height="22.57"/><rect class="cls-5" x="16.81" y="258.35" width="1" height="22.57"/><rect class="cls-5" x="19.57" y="52.98" width="1" height="47.96"/><rect class="cls-5" x="29.3" y="52.98" width="1" height="47.96"/><rect class="cls-5" x="54.72" y="18.42" width="44.55" height="1"/><rect class="cls-5" x="145.59" y="18.42" width="52.9" height="1"/><rect class="cls-5" x="468.99" y="9.25" width="28.8" height="1"/><rect class="cls-5" x="468.99" y="15.92" width="28.8" height="1"/><rect class="cls-5" x="554.81" y="18.42" width="53.26" height="1"/><rect class="cls-5" x="554.81" y="26.35" width="53.26" height="1"/><rect class="cls-5" x="652.97" y="18.42" width="44.67" height="1"/><rect class="cls-5" x="652.97" y="26.35" width="44.67" height="1"/><rect class="cls-5" x="731.67" y="52.63" width="1" height="48.83"/><rect class="cls-5" x="723.35" y="52.63" width="1" height="48.83"/><rect class="cls-5" x="742.48" y="259.17" width="1" height="21.51"/><rect class="cls-5" x="735.73" y="259.17" width="1" height="21.51"/><rect class="cls-5" x="735.84" y="471.6" width="1" height="21.98"/><rect class="cls-5" x="742.25" y="471.6" width="1" height="21.98"/><rect class="cls-5" x="731.67" y="650.58" width="1" height="48.32"/><rect class="cls-5" x="654.67" y="731.22" width="43.4" height="1"/><rect class="cls-5" x="554.28" y="731.22" width="53.11" height="1"/><rect class="cls-5" x="468.52" y="741.71" width="28.74" height="1"/><rect class="cls-5" x="468.52" y="735.3" width="28.74" height="1"/><rect class="cls-5" x="254.69" y="735.48" width="29.39" height="1"/><rect class="cls-5" x="254.69" y="741.62" width="29.39" height="1"/><rect class="cls-5" x="145.01" y="731.22" width="53.13" height="1"/><rect class="cls-5" x="54.58" y="731.22" width="45.04" height="1"/><path class="cls-5" d="M7.79,368.82a214.57,214.57,0,0,1,7-67.6l1,0.26a213.59,213.59,0,0,0-6.93,67.29Z" transform="translate(0 -0.17)"/><path class="cls-5" d="M0.35,368.56a218.36,218.36,0,0,1,7-68.79l1,0.26a217.38,217.38,0,0,0-7,68.47Z" transform="translate(0 -0.17)"/><path class="cls-5" d="M7.49,452.55a221.22,221.22,0,0,1-7.14-69.7l1,0.06a220.25,220.25,0,0,0,7.1,69.38Z" transform="translate(0 -0.17)"/><path class="cls-5" d="M15,451.14a216.76,216.76,0,0,1-7.68-68.36l1,0a215.79,215.79,0,0,0,7.64,68Z" transform="translate(0 -0.17)"/><rect class="cls-5" x="256.33" y="8.9" width="28.33" height="1"/><rect class="cls-5" x="256.33" y="15.65" width="28.33" height="1"/><path class="cls-5" d="M302.66,15l-0.24-1a240.16,240.16,0,0,1,68-6.44l0,1A239.24,239.24,0,0,0,302.66,15Z" transform="translate(0 -0.17)"/><path class="cls-5" d="M300.91,7.7l-0.23-1A246.4,246.4,0,0,1,370.42.53l-0.05,1A245.26,245.26,0,0,0,300.91,7.7Z" transform="translate(0 -0.17)"/><path class="cls-5" d="M451.22,15.62a244.76,244.76,0,0,0-69.3-6.84l0-1a245.62,245.62,0,0,1,69.58,6.86Z" transform="translate(0 -0.17)"/><path class="cls-5" d="M452.78,7.87a248.55,248.55,0,0,0-70.36-6.32l-0.05-1A249.61,249.61,0,0,1,453,6.89Z" transform="translate(0 -0.17)"/><path class="cls-5" d="M361.36,745.23a242.57,242.57,0,0,1-59-7.25l0.24-1a242,242,0,0,0,68.56,7l0,1Q366.3,745.23,361.36,745.23Z" transform="translate(0 -0.17)"/><path class="cls-5" d="M358.49,752.65a251.47,251.47,0,0,1-58.39-6.85l0.23-1a251.17,251.17,0,0,0,71,6.5l0.05,1Q364.95,752.65,358.49,752.65Z" transform="translate(0 -0.17)"/><path class="cls-5" d="M393.44,745q-5.66,0-11.34-.26l0-1a239.75,239.75,0,0,0,67.9-6.51l0.24,1A240.21,240.21,0,0,1,393.44,745Z" transform="translate(0 -0.17)"/><path class="cls-5" d="M394.3,752.83q-6.1,0-12.2-.3l0-1A247.61,247.61,0,0,0,452.21,745l0.23,1A248,248,0,0,1,394.3,752.83Z" transform="translate(0 -0.17)"/><rect class="cls-5" x="28.89" y="557.38" width="1" height="55.28"/><path class="cls-5" d="M321.8,264.65H256.44V250H321.8v14.61Zm-64.86-.5H321.3V250.54H256.94v13.61Z" transform="translate(0 -0.17)"/><path class="cls-5" d="M498.68,265.27H438.32V250h60.35v15.22Zm-59.85-.5h59.35V250.54H438.82v14.22Z" transform="translate(0 -0.17)"/><path class="cls-5" d="M317.48,502.53H256.55V486.22h60.92v16.31Zm-60.42-.5H317V486.72H257.05V502Z" transform="translate(0 -0.17)"/><path class="cls-5" d="M497.69,501.12H430.3V486.45h67.39v14.66Zm-66.89-.5h66.39V487H430.8v13.66Z" transform="translate(0 -0.17)"/><path class="cls-6" d="M700.66,717.93" transform="translate(0 -0.17)"/><path class="cls-6" d="M652.08,717.93" transform="translate(0 -0.17)"/><path class="cls-6" d="M255.24,243.8" transform="translate(0 -0.17)"/><path class="cls-5" d="M282.31,435.59V458.1H277.2V435.59h5.11m0.5-.5H276.7V458.6h6.11V435.09h0Z" transform="translate(0 -0.17)"/><path class="cls-5" d="M415.65,426.89v20.51h-6.93V426.89h6.93m0.5-.5h-7.93v21.51h7.93V426.39h0Z" transform="translate(0 -0.17)"/><path class="cls-5" d="M415.47,382.7v20.51h-6.76V382.7h6.76m0.5-.5h-7.76v21.51H416V382.2h0Z" transform="translate(0 -0.17)"/><path class="cls-5" d="M415.47,292.29V312H410.6V292.29h4.88m0.5-.5H410.1v20.69H416V291.79h0Z" transform="translate(0 -0.17)"/><path class="cls-5" d="M344.47,304.64v19.1h-7v-19.1h7m0.5-.5h-8v20.1h8v-20.1h0Z" transform="translate(0 -0.17)"/><path class="cls-5" d="M344.47,348V367.7h-7V348h7m0.5-.5h-8V368.2h8V347.45h0Z" transform="translate(0 -0.17)"/><rect class="cls-5" x="318.03" y="287.14" width="0.5" height="53.03" transform="translate(-128.57 315.36) rotate(-44.82)"/><rect class="cls-5" x="291.77" y="313.41" width="53.03" height="0.5" transform="translate(-128.56 317.99) rotate(-45.16)"/><rect class="cls-5" x="318.03" y="330.6" width="0.5" height="52.87" transform="translate(-159.24 329.46) rotate(-45)"/><rect class="cls-5" x="291.85" y="356.79" width="52.87" height="0.5" transform="translate(-159.24 329.46) rotate(-45)"/><rect class="cls-5" x="309.53" y="411.68" width="0.5" height="73.04" transform="translate(-230.08 374.5) rotate(-47.59)"/><rect class="cls-5" x="273.26" y="447.95" width="73.04" height="0.5" transform="translate(-221.17 325.81) rotate(-42.39)"/><polygon class="cls-5" points="453.59 454.96 415.97 417.23 416.33 416.87 453.94 454.61 453.59 454.96"/><polygon class="cls-5" points="416.33 454.96 415.97 454.61 453.59 416.87 453.94 417.23 416.33 454.96"/><rect class="cls-5" x="408.39" y="391.91" width="52.95" height="0.5" transform="translate(-150.22 415.72) rotate(-44.37)"/><rect class="cls-5" x="434.62" y="365.68" width="0.5" height="52.95" transform="translate(-149.62 427.66) rotate(-45.54)"/><rect class="cls-5" x="442.54" y="265.06" width="0.5" height="73.22" transform="translate(-79.62 420.48) rotate(-47.1)"/><rect class="cls-5" x="406.18" y="301.42" width="73.22" height="0.5" transform="translate(-86.98 381.57) rotate(-42.86)"/><path class="cls-5" d="M257.73,378.29h-9.05V320h9.05v58.27Zm-8.55-.5h8.05V320.52h-8.05v57.27Z" transform="translate(0 -0.17)"/><path class="cls-5" d="M255.38,375.44H251V322.87h4.35v52.58Zm-3.85-.5h3.35V323.37h-3.35v51.58Z" transform="translate(0 -0.17)"/><rect class="cls-5" x="219.98" y="322.69" width="28.95" height="0.5"/><rect class="cls-5" x="234.2" y="314.75" width="0.5" height="28.95" transform="translate(-96.12 561.58) rotate(-89.67)"/><rect class="cls-5" x="234.2" y="320.85" width="0.5" height="28.95" transform="translate(-101.63 568.51) rotate(-89.81)"/><rect class="cls-5" x="219.98" y="341.18" width="28.95" height="0.5" transform="translate(-1.33 0.74) rotate(-0.22)"/><rect class="cls-5" x="219.98" y="347.1" width="28.95" height="0.5"/><rect class="cls-5" x="219.98" y="353.21" width="28.95" height="0.5"/><rect class="cls-5" x="234.2" y="345.26" width="0.5" height="28.95" transform="translate(-126.42 592.26) rotate(-89.72)"/><rect class="cls-5" x="234.2" y="351.36" width="0.5" height="28.95" transform="translate(-133.48 596.81) rotate(-89.48)"/><rect class="cls-5" x="219.98" y="371.51" width="28.95" height="0.5"/><rect class="cls-5" x="219.98" y="377.62" width="28.95" height="0.5"/><rect class="cls-5" x="257.48" y="322.69" width="28.95" height="0.5"/><rect class="cls-5" x="271.7" y="314.75" width="0.5" height="28.95" transform="translate(-58.84 599.08) rotate(-89.67)"/><rect class="cls-5" x="271.7" y="320.85" width="0.5" height="28.95" transform="translate(-64.25 606.01) rotate(-89.81)"/><rect class="cls-5" x="257.48" y="341.18" width="28.95" height="0.5" transform="translate(-1.33 0.89) rotate(-0.22)"/><rect class="cls-5" x="257.48" y="347.1" width="28.95" height="0.5"/><rect class="cls-5" x="257.48" y="353.21" width="28.95" height="0.5"/><rect class="cls-5" x="271.7" y="345.26" width="0.5" height="28.95" transform="translate(-89.1 629.76) rotate(-89.72)"/><rect class="cls-5" x="271.7" y="351.36" width="0.5" height="28.95" transform="translate(-96.32 634.31) rotate(-89.48)"/><rect class="cls-5" x="257.48" y="371.51" width="28.95" height="0.5"/><rect class="cls-5" x="257.48" y="377.62" width="28.95" height="0.5"/><polygon class="cls-5" points="235.39 376.42 234.89 376.42 234.89 307.23 271.92 307.23 271.92 375.72 271.42 375.72 271.42 307.73 235.39 307.73 235.39 376.42"/><polygon class="cls-5" points="270.17 375.29 271.67 377.88 273.17 375.29 270.17 375.29"/><rect class="cls-5" x="256.91" y="332.35" width="30.46" height="0.5" transform="translate(-80.05 86.16) rotate(-15.75)"/><rect class="cls-5" x="256.95" y="334.13" width="30.37" height="0.5" transform="translate(-78.05 82.73) rotate(-15.18)"/><circle class="cls-5" cx="235.14" cy="377.87" r="2.08"/><rect class="cls-5" x="271.42" y="324.08" width="0.5" height="6.2"/><polygon class="cls-5" points="270.17 329.83 271.67 332.43 273.17 329.83 270.17 329.83"/><path class="cls-5" d="M503.48,431h-9.05V372.75h9.05V431Zm-8.55-.5H503V373.25h-8.05v57.27Z" transform="translate(0 -0.17)"/><path class="cls-5" d="M501.13,428.17h-4.35V375.6h4.35v52.58Zm-3.85-.5h3.35V376.1h-3.35v51.58Z" transform="translate(0 -0.17)"/><rect class="cls-5" x="465.73" y="427.5" width="28.95" height="0.5"/><polygon class="cls-5" points="465.73 421.98 465.73 421.48 494.68 421.31 494.68 421.81 465.73 421.98"/><rect class="cls-5" x="465.73" y="415.47" width="28.95" height="0.5" transform="translate(-1.62 1.7) rotate(-0.22)"/><rect class="cls-5" x="479.95" y="395.14" width="0.5" height="28.95" transform="translate(69.05 888.33) rotate(-89.82)"/><rect class="cls-5" x="465.73" y="403.09" width="28.95" height="0.5"/><rect class="cls-5" x="465.73" y="396.98" width="28.95" height="0.5"/><rect class="cls-5" x="465.73" y="391.06" width="28.95" height="0.5" transform="translate(-1.52 1.7) rotate(-0.22)"/><polygon class="cls-5" points="465.73 385.41 465.73 384.91 494.68 384.65 494.68 385.15 465.73 385.41"/><rect class="cls-5" x="465.73" y="378.68" width="28.95" height="0.5"/><rect class="cls-5" x="465.73" y="372.57" width="28.95" height="0.5"/><rect class="cls-5" x="503.23" y="427.5" width="28.95" height="0.5"/><polygon class="cls-5" points="503.23 421.98 503.23 421.48 532.18 421.31 532.18 421.81 503.23 421.98"/><rect class="cls-5" x="503.23" y="415.47" width="28.95" height="0.5" transform="translate(-1.62 1.85) rotate(-0.22)"/><rect class="cls-5" x="517.45" y="395.14" width="0.5" height="28.95" transform="translate(106.43 925.83) rotate(-89.82)"/><rect class="cls-5" x="503.23" y="403.09" width="28.95" height="0.5"/><rect class="cls-5" x="503.23" y="396.98" width="28.95" height="0.5"/><rect class="cls-5" x="503.23" y="391.06" width="28.95" height="0.5" transform="translate(-1.52 1.85) rotate(-0.22)"/><polygon class="cls-5" points="503.23 385.41 503.23 384.91 532.18 384.65 532.18 385.15 503.23 385.41"/><rect class="cls-5" x="503.23" y="378.68" width="28.95" height="0.5"/><rect class="cls-5" x="503.23" y="372.57" width="28.95" height="0.5"/><polygon class="cls-5" points="517.67 443.46 480.64 443.46 480.64 374.27 481.14 374.27 481.14 442.96 517.17 442.96 517.17 374.97 517.67 374.97 517.67 443.46"/><polygon class="cls-5" points="518.92 375.41 517.42 372.81 515.92 375.41 518.92 375.41"/><polygon class="cls-5" points="532.48 422.64 503.16 414.37 503.3 413.89 532.61 422.16 532.48 422.64"/><rect class="cls-5" x="517.64" y="401.47" width="0.5" height="30.37" transform="translate(-19.43 807.76) rotate(-74.88)"/><circle class="cls-5" cx="480.89" cy="372.82" r="2.08"/><rect class="cls-5" x="517.17" y="420.42" width="0.5" height="6.2"/><polygon class="cls-5" points="518.92 420.86 517.42 418.26 515.92 420.86 518.92 420.86"/><path class="cls-5" d="M153.2,288l0-.25V268.28h0.5v19.27a19.28,19.28,0,0,0,19-19.27h0.5A19.78,19.78,0,0,1,153.45,288H153.2Z" transform="translate(0 -0.17)"/><path class="cls-5" d="M134.36,247a16.87,16.87,0,0,1-16.85-16.84v-0.25h16.85v0.5H118a16.35,16.35,0,0,0,16.35,16.1h0V247h0Z" transform="translate(0 -0.17)"/><path class="cls-5" d="M134.35,137.72a17.56,17.56,0,0,1-17.53-17.55v-0.25h17.55v0.49H117.31a17.07,17.07,0,0,0,17,16.82v0.49Z" transform="translate(0 -0.17)"/><path class="cls-5" d="M164.63,226a15.51,15.51,0,0,1-15.51-15.51v-0.25h15.52v0.51h-15a15,15,0,0,0,15,14.76h0V226h0Z" transform="translate(0 -0.17)"/><path class="cls-5" d="M251.21,245.21A19.61,19.61,0,0,1,231.6,225.6v-0.25h19.62v0.49H232.1a19.12,19.12,0,0,0,19.12,18.88h0v0.49h0Z" transform="translate(0 -0.17)"/><path class="cls-5" d="M134.37,196.48H116.55v-0.25a17.83,17.83,0,0,1,17.81-17.81v0.5A17.34,17.34,0,0,0,117.05,196h17.32v0.5Z" transform="translate(0 -0.17)"/><path class="cls-5" d="M183.46,189.44H168.28v-0.5H183.2a14.91,14.91,0,0,0-14.88-14.64h0v-0.5h0a15.39,15.39,0,0,1,15.39,15.35v0.25Z" transform="translate(0 -0.17)"/><path class="cls-5" d="M163.9,110.87H163.4a18.81,18.81,0,0,0-18.55-18.8v18.8h-0.49V91.58h0.25A19.31,19.31,0,0,1,163.9,110.87Z" transform="translate(0 -0.17)"/><path class="cls-5" d="M197.23,130.28H197a15.85,15.85,0,0,1-15.85-15.85h0.5a15.35,15.35,0,0,0,15.1,15.35V114.43h0.5v15.85Z" transform="translate(0 -0.17)"/><path class="cls-5" d="M153.82,463l0,0.25v19.34h0.49V463.53a19.11,19.11,0,0,1,18.84,19.09h0.49A19.59,19.59,0,0,0,154.07,463h-0.25Z" transform="translate(0 -0.17)"/><path class="cls-5" d="M134.63,505.29a17.43,17.43,0,0,0-17.41,17.41V523h17.42v-0.52h-16.9a16.9,16.9,0,0,1,16.89-16.64h0v-0.52h0Z" transform="translate(0 -0.17)"/><path class="cls-5" d="M134.17,615.1a17.39,17.39,0,0,0-17.36,17.38v0.24h17.38v-0.49H117.3a16.91,16.91,0,0,1,16.87-16.65V615.1Z" transform="translate(0 -0.17)"/><path class="cls-5" d="M164.87,525.27a16.26,16.26,0,0,0-16.26,16.26v0.27h16.27v-0.53H149.14a15.73,15.73,0,0,1,15.73-15.47h0v-0.53h0Z" transform="translate(0 -0.17)"/><path class="cls-5" d="M251.51,506.16a19,19,0,0,0-19,19v0.24h19V525H233a18.54,18.54,0,0,1,18.54-18.31h0v-0.48h0Z" transform="translate(0 -0.17)"/><path class="cls-5" d="M134.31,556.44H116.5v0.25a17.83,17.83,0,0,0,17.81,17.81V574A17.34,17.34,0,0,1,117,556.94h17.32v-0.5Z" transform="translate(0 -0.17)"/><path class="cls-5" d="M183.17,562.61H168.23v0.49h14.69a14.68,14.68,0,0,1-14.65,14.41h0V578h0a15.15,15.15,0,0,0,15.15-15.11v-0.25Z" transform="translate(0 -0.17)"/><path class="cls-5" d="M164.41,641.67h-0.5a19.22,19.22,0,0,1-19,19.2v-19.2h-0.5v19.71h0.25A19.73,19.73,0,0,0,164.41,641.67Z" transform="translate(0 -0.17)"/><path class="cls-5" d="M197.41,621.7h-0.25a15.85,15.85,0,0,0-15.85,15.85h0.5a15.35,15.35,0,0,1,15.1-15.35v15.35h0.5V621.7Z" transform="translate(0 -0.17)"/><path class="cls-5" d="M528.5,305.66l0,0.26v20.66H528v-20.4a20.42,20.42,0,0,0-20.14,20.4h-0.53a20.94,20.94,0,0,1,20.9-20.93h0.26Z" transform="translate(0 -0.17)"/><path class="cls-5" d="M476.42,356.19l-0.25,0H456.65v-0.5h19.27a19.29,19.29,0,0,0-19.27-19v-0.5a19.78,19.78,0,0,1,19.77,19.75v0.25Z" transform="translate(0 -0.17)"/><path class="cls-5" d="M436.63,355.39l-0.26,0H416V354.9h20.13A20.15,20.15,0,0,0,416,335V334.5a20.67,20.67,0,0,1,20.66,20.63v0.26Z" transform="translate(0 -0.17)"/><path class="cls-5" d="M224.59,443.19l0-.25V423.57h0.49v19.11a19.13,19.13,0,0,0,18.87-19.11h0.49a19.62,19.62,0,0,1-19.59,19.61h-0.25Z" transform="translate(0 -0.17)"/><path class="cls-5" d="M276.51,393.4l0.26,0h20v0.51H277a19.77,19.77,0,0,0,19.75,19.5v0.51a20.28,20.28,0,0,1-20.27-20.24V393.4Z" transform="translate(0 -0.17)"/><path class="cls-5" d="M317,394.08l0.25,0h19.48v0.5H317.51a19.24,19.24,0,0,0,19.23,19V414A19.74,19.74,0,0,1,317,394.33v-0.25Z" transform="translate(0 -0.17)"/><path class="cls-5" d="M501.44,505.51a20,20,0,0,1,20,20v0.25h-20v-0.5h19.5A19.49,19.49,0,0,0,501.44,506h0v-0.5h0Z" transform="translate(0 -0.17)"/><path class="cls-5" d="M596.53,463.56l0,0.25v19.37h-0.49V464.06a19.13,19.13,0,0,0-18.87,19.12H576.7a19.62,19.62,0,0,1,19.59-19.61h0.25Z" transform="translate(0 -0.17)"/><path class="cls-5" d="M618.05,506.06a16.2,16.2,0,0,1,16.2,16.2v0.23h-16.2V522h15.72a15.76,15.76,0,0,0-7.62-13.26,15.34,15.34,0,0,0-8.09-2.21h0v-0.48h0Z" transform="translate(0 -0.17)"/><path class="cls-5" d="M619,614.52a17.43,17.43,0,0,1,17.4,17.43v0.24H618.93V631.7h16.93A17,17,0,0,0,619,615v-0.49Z" transform="translate(0 -0.17)"/><path class="cls-5" d="M588.08,524.58a17.26,17.26,0,0,1,17.26,17.25v0.28H588.08v-0.56h16.7a16.69,16.69,0,0,0-16.69-16.42h0v-0.56h0Z" transform="translate(0 -0.17)"/><path class="cls-5" d="M618.93,556.18h17.39v0.24a17.41,17.41,0,0,1-17.39,17.39v-0.48a16.93,16.93,0,0,0,16.91-16.67H618.93v-0.48Z" transform="translate(0 -0.17)"/><path class="cls-5" d="M569.29,562.71h15.26v0.51h-15a15,15,0,0,0,15,14.73h0v0.51h0A15.48,15.48,0,0,1,569,563v-0.25Z" transform="translate(0 -0.17)"/><path class="cls-5" d="M587.46,640.52H588A20.34,20.34,0,0,0,608,660.84V640.52h0.53v20.85h-0.27A20.87,20.87,0,0,1,587.46,640.52Z" transform="translate(0 -0.17)"/><path class="cls-5" d="M555.9,621.41h0.25A15.85,15.85,0,0,1,572,637.26h-0.5a15.35,15.35,0,0,0-15.1-15.35v15.35h-0.5V621.41Z" transform="translate(0 -0.17)"/><path class="cls-5" d="M266,538.66a19,19,0,0,0,19,19h0.24v-19h-0.48v18.55a18.54,18.54,0,0,1-18.31-18.54H266Z" transform="translate(0 -0.17)"/><path class="cls-5" d="M262.3,588.36H247v0.21a15.28,15.28,0,0,0,15.27,15.27v-0.43a14.86,14.86,0,0,1-14.84-14.63H262.3v-0.43Z" transform="translate(0 -0.17)"/><path class="cls-5" d="M307,585.78H295.68v0.38h11.16a11.16,11.16,0,0,1-11.14,11h0v0.38h0A11.51,11.51,0,0,0,307.22,586v-0.19Z" transform="translate(0 -0.17)"/><path class="cls-5" d="M307.09,608.87h-11.4v-0.38H306.9a11.21,11.21,0,0,0-11.19-11h0v-0.38h0a11.57,11.57,0,0,1,11.57,11.54v0.19Z" transform="translate(0 -0.17)"/><path class="cls-5" d="M267.94,634.61h0.5a19.22,19.22,0,0,0,19,19.2v-19.2h0.5v19.71h-0.25A19.73,19.73,0,0,1,267.94,634.61Z" transform="translate(0 -0.17)"/><path class="cls-5" d="M487,539.2A19.82,19.82,0,0,1,467.23,559H467V539.19h0.5v19.33a19.32,19.32,0,0,0,19.08-19.32H487Z" transform="translate(0 -0.17)"/><path class="cls-5" d="M490,587.84h15v0.21a15,15,0,0,1-15,15v-0.42a14.59,14.59,0,0,0,14.57-14.36H490v-0.42Z" transform="translate(0 -0.17)"/><path class="cls-5" d="M446.17,586.72h11v0.36H446.35a10.76,10.76,0,0,0,10.74,10.57h0V598h0A11.11,11.11,0,0,1,446,586.93v-0.18Z" transform="translate(0 -0.17)"/><path class="cls-5" d="M446.12,609h11v-0.36H446.3A10.81,10.81,0,0,1,457.09,598h0v-0.36h0a11.16,11.16,0,0,0-11.16,11.13V609Z" transform="translate(0 -0.17)"/><path class="cls-5" d="M358,296.39V276.75h0.65v19.11a0.2,0.2,0,0,0,.21.2,19.31,19.31,0,0,0,18.75-19.26v0h0.65a19.39,19.39,0,0,1-2.4,9.61,20,20,0,0,1-17.47,10.36H358.1Z" transform="translate(0 -0.17)"/><path class="cls-5" d="M398,296.48V276.75h-0.65v19.2a0.2,0.2,0,0,1-.21.2,19.39,19.39,0,0,1-18.83-19.35v0h-0.65a19.48,19.48,0,0,0,2.41,9.66,20.1,20.1,0,0,0,17.55,10.4h0.33Z" transform="translate(0 -0.17)"/><path class="cls-5" d="M355.09,453v19.85h0.66V453.51a0.21,0.21,0,0,1,.21-0.2,19.51,19.51,0,0,1,18.95,19.47v0h0.66a19.6,19.6,0,0,0-2.43-9.72,20.23,20.23,0,0,0-17.66-10.47h-0.33Z" transform="translate(0 -0.17)"/><path class="cls-5" d="M395.47,452.88v19.94h-0.66v-19.4a0.21,0.21,0,0,0-.21-0.2,19.6,19.6,0,0,0-19,19.56v0H374.9a19.69,19.69,0,0,1,2.44-9.76,20.32,20.32,0,0,1,17.74-10.52h0.33Z" transform="translate(0 -0.17)"/><path class="cls-5" d="M485.48,634H485a19.22,19.22,0,0,1-19,19.2V634h-0.5v19.71h0.25A19.73,19.73,0,0,0,485.48,634Z" transform="translate(0 -0.17)"/><path class="cls-5" d="M265.34,213.26a20.6,20.6,0,0,1,20.59-20.6h0.26v20.61h-0.52V193.18a20.08,20.08,0,0,0-19.83,20.08h-0.52Z" transform="translate(0 -0.17)"/><path class="cls-5" d="M262.42,161H246.67v-0.22A15.77,15.77,0,0,1,262.42,145v0.44a15.33,15.33,0,0,0-15.31,15.09h15.31V161Z" transform="translate(0 -0.17)"/><path class="cls-5" d="M307.35,166H295.89v-0.38h11.27a11.26,11.26,0,0,0-11.24-11.06h0v-0.38h0a11.62,11.62,0,0,1,11.62,11.59V166Z" transform="translate(0 -0.17)"/><path class="cls-5" d="M307.4,142.71H295.89v0.38h11.32a11.31,11.31,0,0,1-11.29,11.11h0v0.38h0a11.67,11.67,0,0,0,11.67-11.65v-0.19Z" transform="translate(0 -0.17)"/><path class="cls-5" d="M267.6,117.65h0.49a18.73,18.73,0,0,1,18.47-18.71v18.71H287V98.44H286.8A19.22,19.22,0,0,0,267.6,117.65Z" transform="translate(0 -0.17)"/><path class="cls-5" d="M589.55,288.46l0-.25V269h-0.49v19a19,19,0,0,1-18.74-19h-0.49a19.48,19.48,0,0,0,19.45,19.47h0.25Z" transform="translate(0 -0.17)"/><path class="cls-5" d="M619.11,246.22a16.05,16.05,0,0,0,16.05-16.05v-0.23H619.11v0.48h15.57a15.61,15.61,0,0,1-7.55,13.13,15.2,15.2,0,0,1-8,2.19h0v0.48h0Z" transform="translate(0 -0.17)"/><path class="cls-5" d="M619.13,136.73a17.18,17.18,0,0,0,17.15-17.17v-0.24H619.11v0.48H635.8a16.7,16.7,0,0,1-16.67,16.45v0.48Z" transform="translate(0 -0.17)"/><path class="cls-5" d="M587.5,225.82a16.22,16.22,0,0,0,16.22-16.21v-0.26H587.49v0.53h15.69a15.69,15.69,0,0,1-15.69,15.43h0v0.53h0Z" transform="translate(0 -0.17)"/><path class="cls-5" d="M501.59,245.54a20,20,0,0,0,20-20V225.3h-20v0.5h19.5A19.49,19.49,0,0,1,501.59,245h0v0.5h0Z" transform="translate(0 -0.17)"/><path class="cls-5" d="M619.11,195.66H637v-0.25a18,18,0,0,0-17.93-17.93V178a17.45,17.45,0,0,1,17.43,17.18H619.11v0.5Z" transform="translate(0 -0.17)"/><path class="cls-5" d="M568,188.73h15.63v-0.52H568.26a15.36,15.36,0,0,1,15.33-15.08h0v-0.52h0a15.85,15.85,0,0,0-15.85,15.81v0.26Z" transform="translate(0 -0.17)"/><path class="cls-5" d="M587,110h0.54a20.51,20.51,0,0,1,20.22-20.49V110h0.54V89H608A21,21,0,0,0,587,110Z" transform="translate(0 -0.17)"/><path class="cls-5" d="M555.37,129.76h0.25a15.85,15.85,0,0,0,15.85-15.85H571a15.35,15.35,0,0,1-15.1,15.35V113.91h-0.5v15.85Z" transform="translate(0 -0.17)"/><path class="cls-5" d="M487,213.26a19.82,19.82,0,0,0-19.82-19.82H467v19.83h0.5V193.94a19.32,19.32,0,0,1,19.08,19.32H487Z" transform="translate(0 -0.17)"/><path class="cls-5" d="M490.83,158.78h15.42v-0.21a15.44,15.44,0,0,0-15.42-15.42v0.43a15,15,0,0,1,15,14.77h-15v0.43Z" transform="translate(0 -0.17)"/><path class="cls-5" d="M445.37,166.62h11.75v-0.39H445.56a11.55,11.55,0,0,1,11.53-11.34h0V154.5h0a11.92,11.92,0,0,0-11.92,11.89v0.2Z" transform="translate(0 -0.17)"/><path class="cls-5" d="M445.31,142.72h11.8v0.39H445.51a11.6,11.6,0,0,0,11.58,11.39h0v0.39h0a12,12,0,0,1-12-11.94v-0.2Z" transform="translate(0 -0.17)"/><path class="cls-5" d="M485,116.75h-0.49a18.63,18.63,0,0,0-18.37-18.61v18.61h-0.49V97.65h0.24A19.12,19.12,0,0,1,485,116.75Z" transform="translate(0 -0.17)"/></svg>