<svg id="Слой_1" data-name="Слой 1" xmlns="http://www.w3.org/2000/svg" viewBox="0 0 122 120"><defs><style>.cls-1{fill:#173e29;}</style></defs><title>plate</title><path class="cls-1" d="M121.1,74.22l-2.54-6.78a13,13,0,0,1-.79-3.31,7.68,7.68,0,0,1,.43-1.71l0-.12,0-.12c0.81-2.79.77-8.44-4.31-11.62,3.2-5.07.78-10.18-1.15-12.34l-0.08-.1L112.64,38a7.82,7.82,0,0,1-1.12-1.34h0a12.46,12.46,0,0,1-.72-3.33l-0.64-7.21-0.23-2.55-2.43-.79-6.88-2.23a13,13,0,0,1-3.08-1.44,7.68,7.68,0,0,1-1.06-1.4l-0.07-.11-0.07-.11a10.87,10.87,0,0,0-8.43-4.44,10.13,10.13,0,0,0-3.34.58,10.34,10.34,0,0,0-9.94-6.81H74a9.83,9.83,0,0,1-1.14.07,5.2,5.2,0,0,1-.61,0h0A12.43,12.43,0,0,1,69.16,5.4l-6-4L61,0,58.87,1.41l-6,4a13,13,0,0,1-3,1.51,5,5,0,0,1-.62,0A9.83,9.83,0,0,1,48,6.87l-0.23,0H47.38a10.35,10.35,0,0,0-9.95,6.81,10.13,10.13,0,0,0-3.34-.58,10.84,10.84,0,0,0-8.43,4.43l-0.07.1-0.07.11a7.79,7.79,0,0,1-1.06,1.39h0a12.44,12.44,0,0,1-3.08,1.45l-6.87,2.23-2.43.79-0.23,2.55-0.64,7.21a13,13,0,0,1-.72,3.33A7.71,7.71,0,0,1,9.36,38l-0.09.09-0.09.1C7.25,40.38,4.83,45.49,8,50.56,3,53.74,2.92,59.39,3.73,62.18l0,0.12,0,0.12a7.83,7.83,0,0,1,.43,1.69h0a12.47,12.47,0,0,1-.79,3.32L0.9,74.22,0,76.61l1.85,1.77,5.23,5A13,13,0,0,1,9.22,86a7.63,7.63,0,0,1,.35,1.72v0.14l0,0.13c0.47,2.8,2.94,7.92,8.92,8.59-0.69,6,3.7,9.52,6.39,10.63l0.12,0,0.12,0a7.79,7.79,0,0,1,1.59.72h0a12.44,12.44,0,0,1,2.1,2.69l3.7,6.22,1.3,2.18,2.54-.34,7.16-1a18.56,18.56,0,0,1,2.13-.14,6,6,0,0,1,1.28.1,7.71,7.71,0,0,1,1.57.8l0.11,0.07,0.11,0.06A11.39,11.39,0,0,0,54,120a9.84,9.84,0,0,0,7-2.94A9.84,9.84,0,0,0,68,120a11.41,11.41,0,0,0,5.23-1.3l0.11-.06,0.11-.07a7.81,7.81,0,0,1,1.55-.8h0a5.63,5.63,0,0,1,1.28-.1,18.52,18.52,0,0,1,2.12.14l7.16,1,2.53,0.34,1.31-2.2,3.7-6.22A13,13,0,0,1,95.25,108a7.65,7.65,0,0,1,1.6-.73l0.12,0,0.12,0c2.68-1.11,7.08-4.66,6.39-10.62,6-.67,8.45-5.8,8.92-8.6l0-.13V87.74a7.85,7.85,0,0,1,.35-1.71h0a12.47,12.47,0,0,1,2.15-2.64l5.23-5L122,76.61Z"/></svg>