<?xml version="1.0" encoding="iso-8859-1"?>
<!-- Generator: Adobe Illustrator 19.0.0, SVG Export Plug-In . SVG Version: 6.00 Build 0)  -->
<svg version="1.1" id="Layer_1" xmlns="http://www.w3.org/2000/svg" xmlns:xlink="http://www.w3.org/1999/xlink" x="0px" y="0px"
	 viewBox="0 0 11.35 11.88" style="enable-background:new 0 0 11.35 11.88;" xml:space="preserve">
<path id="XMLID_20_" style="fill:#FFFFFF;" d="M11.3,6.18c0.031-0.083,0.048-0.171,0.05-0.26l0,0
	c-0.002-0.089-0.019-0.177-0.05-0.26V5.57c-0.014-0.035-0.031-0.068-0.05-0.1l-3.78-5.2C7.183-0.058,6.684-0.092,6.355,0.195
	C6.066,0.448,6.001,0.872,6.2,1.2l2.87,3.95H0.79C0.354,5.15,0,5.504,0,5.94s0.354,0.79,0.79,0.79l0,0h8.23l-2.87,3.95
	c-0.226,0.373-0.108,0.859,0.265,1.085c0.328,0.199,0.752,0.134,1.005-0.155l3.78-5.2c0.019-0.032,0.036-0.065,0.05-0.1L11.3,6.18z"
	/>
</svg>
