<svg xmlns="http://www.w3.org/2000/svg" width="168" height="353.53" viewBox="0 0 168 353.53">
  <defs>
    <style>
      .cls-1 {
        fill: #e7d780;
        fill-rule: evenodd;
        opacity: 0.7;
      }
    </style>
  </defs>
  <path id="Фигура_2" data-name="Фигура 2" class="cls-1" d="M3109,1893l-3-1-13,9-11-9s-8-4.59-15-5-3-4-3-4l-26-20-1-11-12-10,5-4,1-12,11-7,2-14-5-6,6-5,15-164,8-5,1-26,1-9,7-4v-5l14-7s2.01-22.88,20-26,10,8,10,8l13-5,52,39-1,8,7,4-1,8,2,3-5,2-2,21,5,6-31,192,9,7-2,15-16,19-9,5-10-1-1,4-14,7Z" transform="translate(-3025 -1547.47)"/>
</svg>
