<?xml version="1.0" encoding="utf-8"?>
<!-- Generator: Adobe Illustrator 19.2.0, SVG Export Plug-In . SVG Version: 6.00 Build 0)  -->
<svg version="1.1" id="Layer_1" xmlns="http://www.w3.org/2000/svg" xmlns:xlink="http://www.w3.org/1999/xlink" x="0px" y="0px"
	 viewBox="0 0 34 34" style="enable-background:new 0 0 34 34;" xml:space="preserve">
<style type="text/css">
	.st0{fill:#8B9F94;}
</style>
<g>
	<g>
		<path class="st0" d="M17,34c-4.5,0-8.8-1.8-12-5C-1.7,22.4-1.7,11.6,5,5c3.2-3.2,7.5-5,12-5c4.5,0,8.8,1.8,12,5
			c6.6,6.6,6.6,17.4,0,24.1C25.8,32.2,21.5,34,17,34L17,34z M17,2.9C13.2,2.9,9.7,4.3,7,7c-5.5,5.5-5.5,14.5,0,20
			c2.7,2.7,6.2,4.1,10,4.1c3.8,0,7.3-1.5,10-4.1c5.5-5.5,5.5-14.5,0-20C24.3,4.3,20.8,2.9,17,2.9L17,2.9z"/>
	</g>
</g>
</svg>
