<svg id="Layer_1" data-name="Layer 1" xmlns="http://www.w3.org/2000/svg" viewBox="0 0 58 73"><defs><style>.cls-1{fill:none;isolation:isolate;}.cls-2{fill:#eddb7a;}</style></defs><title>conditions-icon</title><path class="cls-1"/><path class="cls-2" d="M13.21,21.29H26.77a1.35,1.35,0,0,0,0-2.69H13.21A1.35,1.35,0,0,0,13.21,21.29Z"/><path class="cls-2" d="M13.21,28.38h22.5a1.35,1.35,0,0,0,0-2.69H13.21A1.35,1.35,0,0,0,13.21,28.38Z"/><path class="cls-2" d="M13.21,35.46h22.5a1.35,1.35,0,0,0,0-2.69H13.21A1.35,1.35,0,0,0,13.21,35.46Z"/><path class="cls-2" d="M22.63,39.86H13.21a1.35,1.35,0,0,0,0,2.69h9.42A1.35,1.35,0,0,0,22.63,39.86Z"/><path class="cls-2" d="M49,41.43v-36a2.67,2.67,0,0,0-2.65-2.69H38.23A5.6,5.6,0,0,0,33.47,0H15.57a5.6,5.6,0,0,0-4.76,2.69H2.65A2.67,2.67,0,0,0,0,5.38V62.6a2.67,2.67,0,0,0,2.65,2.69h25A16.39,16.39,0,0,0,41.54,73,16.75,16.75,0,0,0,49,41.43ZM5.3,59.9V8.08h5.15a5.63,5.63,0,0,0,5.12,3.37H33.47a5.63,5.63,0,0,0,5.12-3.37h5.15V39.74a16.21,16.21,0,0,0-2.2-.17A16.61,16.61,0,0,0,25.09,56.29a16.92,16.92,0,0,0,.4,3.62H5.3Zm36.24,10.4a14,14,0,1,1,13.81-14A13.93,13.93,0,0,1,41.54,70.31Z"/><path class="cls-2" d="M46.43,49.67l-7.7,9.53-2.28-2.43a2.62,2.62,0,0,0-3.75-.09,2.72,2.72,0,0,0-.09,3.81L37,65.13a2.63,2.63,0,0,0,1.92.84H39a2.64,2.64,0,0,0,2-1l9.6-11.89a2.72,2.72,0,0,0-.37-3.79A2.62,2.62,0,0,0,46.43,49.67Z"/></svg>