<svg id="Слой_1" data-name="Слой 1" xmlns="http://www.w3.org/2000/svg" viewBox="0 0 34 24"><defs><style>.cls-1{fill:#8b9f94;}</style></defs><title>eye-icon</title><path class="cls-1" d="M17,24C9.2,24,2.4,19.36.07,12.44a1.38,1.38,0,0,1,0-.89C2.4,4.64,9.2,0,17,0S31.6,4.64,33.93,11.55a1.38,1.38,0,0,1,0,.89C31.6,19.36,24.8,24,17,24h0ZM3,12a14.67,14.67,0,0,0,14,9.13A14.68,14.68,0,0,0,31,12,14.68,14.68,0,0,0,17,2.87,14.67,14.67,0,0,0,3,12H3Z" transform="translate(0)"/><path class="cls-1" d="M17,19.76A7.89,7.89,0,0,1,9,12a1.48,1.48,0,0,1,3,0A5,5,0,0,0,22,12a5,5,0,0,0-5-4.89,1.43,1.43,0,1,1,0-2.87A7.89,7.89,0,0,1,25,12a7.89,7.89,0,0,1-8,7.76h0Z" transform="translate(0)"/></svg>