<svg id="Слой_1" data-name="Слой 1" xmlns="http://www.w3.org/2000/svg" viewBox="0 0 68 68"><defs><style>.cls-1{fill:#f4dc74;}.cls-2{fill:#999;}</style></defs><title>floor-icon-position-1</title><path class="cls-1" d="M19.09,0H1.9A1.9,1.9,0,0,0,0,1.9V19.21H0A1.89,1.89,0,0,0,1.9,21H19.09a1.9,1.9,0,0,0,1.9-1.9V1.9A1.9,1.9,0,0,0,19.09,0Z"/><path class="cls-2" d="M42.59,0H25.41a1.9,1.9,0,0,0-1.9,1.9V19.08a1.9,1.9,0,0,0,1.9,1.9H42.59a1.9,1.9,0,0,0,1.9-1.9V1.9A1.9,1.9,0,0,0,42.59,0Zm-1.9,17.17H27.31V3.8H40.69V17.17Z"/><path class="cls-2" d="M19.09,23.51H1.9A1.9,1.9,0,0,0,0,25.41V42.59a1.9,1.9,0,0,0,1.9,1.9H19.09a1.9,1.9,0,0,0,1.9-1.9V25.41A1.9,1.9,0,0,0,19.09,23.51Zm-1.9,17.17H3.81V27.31H17.19V40.69Z"/><path class="cls-2" d="M66.1,0H48.91A1.9,1.9,0,0,0,47,1.9V19.08a1.9,1.9,0,0,0,1.9,1.9H66.1a1.9,1.9,0,0,0,1.9-1.9V1.9A1.9,1.9,0,0,0,66.1,0Zm-1.9,17.17H50.81V3.8H64.19V17.17Z"/><path class="cls-2" d="M66.1,23.51H48.91a1.9,1.9,0,0,0-1.9,1.9V42.59a1.9,1.9,0,0,0,1.9,1.9H66.1a1.9,1.9,0,0,0,1.9-1.9V25.41A1.9,1.9,0,0,0,66.1,23.51Zm-1.9,17.17H50.81V27.31H64.19V40.69Z"/><path class="cls-2" d="M19.09,47H1.9A1.9,1.9,0,0,0,0,48.92V66.1A1.9,1.9,0,0,0,1.9,68H19.09A1.9,1.9,0,0,0,21,66.1V48.92A1.9,1.9,0,0,0,19.09,47ZM17.19,64.2H3.81V50.83H17.19V64.2Z"/><path class="cls-2" d="M42.59,47H25.41a1.9,1.9,0,0,0-1.9,1.9V66.1a1.9,1.9,0,0,0,1.9,1.9H42.59a1.9,1.9,0,0,0,1.9-1.9V48.92A1.9,1.9,0,0,0,42.59,47ZM40.69,64.2H27.31V50.83H40.69V64.2Z"/><path class="cls-2" d="M66.1,47H48.91a1.9,1.9,0,0,0-1.9,1.9V66.1a1.9,1.9,0,0,0,1.9,1.9H66.1A1.9,1.9,0,0,0,68,66.1V48.92A1.9,1.9,0,0,0,66.1,47ZM64.19,64.2H50.81V50.83H64.19V64.2Z"/></svg>