<svg id="Слой_1" data-name="Слой 1" xmlns="http://www.w3.org/2000/svg" viewBox="0 0 90.96 60.47"><defs><style>.cls-1{fill:#999;}.cls-2{fill:#4c4e53;}</style></defs><title>level-icon-2-floor-nonactive_solo</title><path class="cls-1" d="M1.86,33.91L18.08,44.07l7.39,4.63L43.9,60.22a3.28,3.28,0,0,0,3.53,0L65.55,48.88l7.39-4.66L89.16,34.1a4.28,4.28,0,0,0,0-7l-42-26.32a3.28,3.28,0,0,0-3.53,0L1.86,26.88A4.28,4.28,0,0,0,1.86,33.91Zm43.5-25L80,30.58l-14.46,9-7.39,4.59-12.5,7.83-12.8-8-7.39-4.63L11,30.39Z" transform="translate(-0.02 -0.26)"/><path class="cls-2" d="M39.6,34.36l5.24-4.3c2-1.62,2.72-2.48,2.72-3.78a1.93,1.93,0,0,0-1.85-2H45.44c-1.21,0-2,.68-3.22,2.12l-2.43-2c1.55-2.12,3.06-3.26,5.87-3.26,3.26,0,5.42,1.91,5.42,4.91,0,2.63-1.35,3.94-4.14,6.1l-2.57,2h6.87v3H39.6V34.36Z" transform="translate(-0.02 -0.26)"/></svg>