<svg id="Layer_1" data-name="Layer 1" xmlns="http://www.w3.org/2000/svg" viewBox="0 0 51 58"><defs><style>.cls-1{fill:none;isolation:isolate;}.cls-2{fill:#eddb7a;}</style></defs><title>mail-icon</title><path class="cls-1" transform="translate(0 0)"/><path class="cls-2" d="M50.22,20.82L27,0.55a2.19,2.19,0,0,0-2.9,0L0.78,20.81A2.3,2.3,0,0,0,0,22.54V52.64A5.31,5.31,0,0,0,5.25,58H45.74A5.31,5.31,0,0,0,51,52.64V22.54A2.29,2.29,0,0,0,50.22,20.82ZM4.46,27.9L16.81,39.14,4.46,50.37V27.9Zm41.86,25.3a0.79,0.79,0,0,1-.57.25H5.25a0.78,0.78,0,0,1-.57-0.25L19,40.18a1.1,1.1,0,0,0,.34-0.25,1.08,1.08,0,0,0,.07-0.12l6.08-5.53ZM34.19,39.13L46.54,27.9V50.37ZM25.59,5.26l21,18.33v1.27l-14,12.75-6.27-5.7a1.1,1.1,0,0,0-1.48,0l-6.28,5.71-14-12.76V23.59Z" transform="translate(0 0)"/><path class="cls-2" d="M23.92,28.5a2.2,2.2,0,0,0,3.15,0l6.13-6.24a2.3,2.3,0,0,0,0-3.21,2.2,2.2,0,0,0-3.15,0l-2.32,2.37V14a2.23,2.23,0,1,0-4.46,0v7.41L20.94,19a2.2,2.2,0,0,0-3.15,0,2.3,2.3,0,0,0,0,3.21Z" transform="translate(0 0)"/></svg>