<svg id="Layer_1" data-name="Layer 1" xmlns="http://www.w3.org/2000/svg" viewBox="0 0 52 63"><defs><style>.cls-1{fill:none;isolation:isolate;}.cls-2{fill:#eddb7a;}</style></defs><title>pdf-icon</title><path class="cls-1"/><path class="cls-2" d="M49.16,0H2.84A2.82,2.82,0,0,0,0,2.8a2.82,2.82,0,0,0,2.84,2.8H46.33V42H32.14a1.41,1.41,0,0,0-1.42,1.4v14H5.67v-14a2.82,2.82,0,0,0-2.84-2.8A2.82,2.82,0,0,0,0,43.42V60.2A2.82,2.82,0,0,0,2.84,63H32.14a2.86,2.86,0,0,0,2-.82l17-16.78a2.77,2.77,0,0,0,.83-2V2.8A2.82,2.82,0,0,0,49.16,0ZM33.56,54.85v-10H43.73Z"/><path class="cls-2" d="M5.2,26H7.11c4.06,0,6-2.22,6-6.29V16.39c0-4.07-2-6.29-6-6.29h-6V35.55H5.2V26Zm0-12.25H7.11c1.29,0,2,.58,2,2.4V20c0,1.82-.7,2.4-2,2.4H5.2V13.74Z"/><path class="cls-2" d="M27.51,29.26V16.39c0-4.07-2-6.29-6-6.29H15V35.55h6.42C25.52,35.55,27.51,33.33,27.51,29.26Zm-4.06.18c0,1.82-.78,2.47-2.07,2.47H19.1V13.74h2.29c1.29,0,2.07.65,2.07,2.47V29.44Z"/><polygon class="cls-2" points="40.82 13.74 40.82 10.1 30.09 10.1 30.09 35.55 34.14 35.55 34.14 25.04 39.38 25.04 39.38 21.41 34.14 21.41 34.14 13.74 40.82 13.74"/></svg>