<svg id="Layer_1" data-name="Layer 1" xmlns="http://www.w3.org/2000/svg" viewBox="0 0 58 56"><defs><style>.cls-1{fill:none;isolation:isolate;}.cls-2{fill:#eddb7a;}</style></defs><title>print-icon</title><path class="cls-1"/><path class="cls-2" d="M47,41.19H11a1.24,1.24,0,0,0-1.24,1.25V54.75A1.24,1.24,0,0,0,11,56H47a1.24,1.24,0,0,0,1.24-1.25V42.44A1.24,1.24,0,0,0,47,41.19ZM45.8,53.51H12.2V43.68H45.8v9.83Z"/><path class="cls-2" d="M48.28,23.65V1.25A1.24,1.24,0,0,0,47,0H24.22a1.18,1.18,0,0,0-.84.34l0,0L10.1,13.73a1.26,1.26,0,0,0-.36.88v9H0V51.7H7.74v-5H4.94V28.63H53.06V46.71H50.27v5H58V23.65H48.28ZM23,4.25v9.12h-9ZM12.2,15.86h12a1.24,1.24,0,0,0,1.24-1.25V2.49H45.8V23.65H12.2V15.86Z"/><ellipse class="cls-2" cx="43.48" cy="35.26" rx="2.91" ry="2.93"/><path class="cls-2" d="M36.38,35.86a1.25,1.25,0,0,0,0-2.49H21.19a1.25,1.25,0,0,0,0,2.49H36.38Z"/></svg>