<svg id="Layer_1" data-name="Layer 1" xmlns="http://www.w3.org/2000/svg" viewBox="0 0 52 63"><defs><style>.cls-1{fill:none;isolation:isolate;}.cls-2{fill:#eddb7a;}</style></defs><title>sent-icon</title><path class="cls-1"/><path class="cls-2" d="M49.16,0H2.84A2.82,2.82,0,0,0,0,2.8V60.2A2.82,2.82,0,0,0,2.84,63H32.14a2.86,2.86,0,0,0,2-.82l17-16.78a2.77,2.77,0,0,0,.83-2V2.8A2.82,2.82,0,0,0,49.16,0ZM5.67,5.59H46.33V42H32.14a1.41,1.41,0,0,0-1.42,1.4v14H5.67V5.59ZM33.56,54.85v-10H43.73Z"/><path class="cls-2" d="M12.41,14.8H29.07a1.4,1.4,0,1,0,0-2.8H12.41A1.4,1.4,0,1,0,12.41,14.8Z"/><path class="cls-2" d="M12.41,21.56H40.06a1.4,1.4,0,1,0,0-2.8H12.41A1.4,1.4,0,1,0,12.41,21.56Z"/><path class="cls-2" d="M12.41,28.32H40.06a1.4,1.4,0,1,0,0-2.8H12.41A1.4,1.4,0,1,0,12.41,28.32Z"/><path class="cls-2" d="M24,32.28H12.41a1.4,1.4,0,1,0,0,2.8H24A1.4,1.4,0,1,0,24,32.28Z"/></svg>