<svg id="Layer_1" data-name="Layer 1" xmlns="http://www.w3.org/2000/svg" viewBox="0 0 50 50"><defs><style>.cls-1{fill:#133e28;}.cls-2{fill:#fff;}</style></defs><title>10</title><path class="cls-1" d="M50,25A25,25,0,1,1,25,0,25,25,0,0,1,50,25" transform="translate(0 0)"/><rect class="cls-2" x="10.78" y="34.01" width="28.43" height="0.68"/><rect class="cls-2" x="12.14" y="32.8" width="25.73" height="0.68"/><path class="cls-2" d="M18.91,30.77H31.09v0.68H18.91V30.77Zm0-7.56h2v6.88h-2V23.21Zm5.3,6.88h-2V23.21h2v6.88Zm3.28,0H25.56V23.21h1.93v6.88Zm3.6,0H28.84V23.21h2.25v6.88Zm0,2h5.42V20.47h-4.4V17.79H29.45a7.07,7.07,0,0,0-3.92-1.7s0,0,0,0a0.74,0.74,0,1,0-1.48,0s0,0,0,0a7.07,7.07,0,0,0-3.92,1.7H17.89v2.68h-4.4V32.12h17.6Z" transform="translate(0 0)"/></svg>