<svg id="Layer_1" data-name="Layer 1" xmlns="http://www.w3.org/2000/svg" viewBox="0 0 50 50"><defs><style>.cls-1{fill:#133e28;}.cls-2{fill:#fff;}</style></defs><title>2</title><path class="cls-1" d="M50,25A25,25,0,1,1,25,0,25,25,0,0,1,50,25" transform="translate(0 0)"/><path class="cls-2" d="M29.87,34.68a2.55,2.55,0,1,0,2.53,2.55,2.54,2.54,0,0,0-2.53-2.55m-7.6,0a2.55,2.55,0,1,0,2.54,2.54,2.56,2.56,0,0,0-2.54-2.54m-1.5-8.11a0.31,0.31,0,0,1-.21-0.18c-0.27-.87-0.53-1.74-0.8-2.64a1.56,1.56,0,0,1,.25,0c0.78,0,1.57,0,2.35,0a0.36,0.36,0,0,1,.28.17c0.08,0.88.13,1.77,0.2,2.7-0.72,0-1.39,0-2.07,0m8.54,0c0.07-1,.14-1.91.21-2.85h3c-0.26.92-.51,1.8-0.77,2.69a0.25,0.25,0,0,1-.16.15H29.31m-2,0H24.81l-0.21-2.84h2.93l-0.2,2.84m0.34-4.83h-3a0.28,0.28,0,0,1-.21-0.17c-0.07-.89-0.13-1.77-0.19-2.7h3.59l-0.2,2.88m-5.2,0H21.24c-0.6,0-1.21,0-1.82,0a0.41,0.41,0,0,1-.31-0.13c-0.29-.9-0.56-1.8-0.85-2.74l0.27,0c1.14,0,2.28,0,3.42,0a0.3,0.3,0,0,1,.37.36c0,0.72.09,1.45,0.14,2.17,0,0.11,0,.23,0,0.39m7.18,0,0.21-2.89h4c0,0.17-.07.31-0.11,0.45-0.2.72-.4,1.44-0.62,2.15a0.43,0.43,0,0,1-.25.28c-1.05,0-2.11,0-3.23,0m-8.44,6.81h11a1,1,0,0,0,1.18-.89l2.68-9.35A1,1,0,0,0,35,16.85H18a0.4,0.4,0,0,1-.47-0.35c-0.21-.74-0.43-1.48-0.66-2.22a1.24,1.24,0,0,0-1.21-.94q-2.18,0-4.35,0a1.21,1.21,0,0,0-1.12.86,1.23,1.23,0,0,0,1.17,1.63c1,0,1.95,0,2.92,0a0.49,0.49,0,0,1,.57.42c0.64,2.19,1.32,4.37,2,6.55l3,9.89a1.3,1.3,0,0,0,1.39,1.08H31.5a1.79,1.79,0,0,0,.72-0.15,1.23,1.23,0,0,0,.64-1.38,1.27,1.27,0,0,0-1.25-1c-0.83,0-1.67,0-2.5,0H22.36A0.49,0.49,0,0,1,22,31.09c-0.27-.82-0.51-1.65-0.78-2.55" transform="translate(0 0)"/></svg>