<svg id="Слой_1" data-name="Слой 1" xmlns="http://www.w3.org/2000/svg" viewBox="0 0 162 162"><defs><style>.cls-1{fill:#153e28;}.cls-2{fill:#dcd076;}</style></defs><title>contacts_logo</title><path class="cls-1" d="M501.76,289.41a81,81,0,1,1-81-81,81,81,0,0,1,81,81" transform="translate(-339.76 -208.41)"/><path class="cls-2" d="M485.33,302.7l-2.73-7.29a14.2,14.2,0,0,1-.85-3.56,8.64,8.64,0,0,1,.47-1.84l0-.13,0-.13c0.87-3,.83-9.09-4.63-12.5,3.44-5.46.84-10.95-1.23-13.28l-0.09-.1-0.1-.1a8.53,8.53,0,0,1-1.21-1.44h0a13.22,13.22,0,0,1-.78-3.59L473.56,251l-0.24-2.74-2.61-.85-7.39-2.4a13.88,13.88,0,0,1-3.3-1.55,8.25,8.25,0,0,1-1.15-1.51l-0.07-.11-0.08-.11a11.68,11.68,0,0,0-9.05-4.77,10.85,10.85,0,0,0-3.59.62,11.11,11.11,0,0,0-10.68-7.33h-0.7a10.52,10.52,0,0,1-1.23.08,6.18,6.18,0,0,1-.66,0h0a13.16,13.16,0,0,1-3.28-1.62l-6.48-4.3-2.29-1.51-2.29,1.51-6.48,4.3a13.87,13.87,0,0,1-3.27,1.62,5,5,0,0,1-.66,0,10.33,10.33,0,0,1-1.23-.08l-0.26,0h-0.45a11.11,11.11,0,0,0-10.69,7.33,10.85,10.85,0,0,0-3.59-.62,11.63,11.63,0,0,0-9,4.77l-0.08.11-0.08.12a8.27,8.27,0,0,1-1.13,1.5h0a13.53,13.53,0,0,1-3.31,1.56l-7.39,2.4-2.61.85L368,251l-0.69,7.75a14,14,0,0,1-.78,3.58,8.4,8.4,0,0,1-1.21,1.45l-0.1.1-0.09.1c-2.08,2.33-4.68,7.82-1.24,13.28-5.46,3.42-5.49,9.5-4.63,12.5l0,0.13,0,0.13a8.44,8.44,0,0,1,.47,1.82h0a13.4,13.4,0,0,1-.85,3.57l-2.74,7.29-1,2.57,2,1.9,5.62,5.38a14.08,14.08,0,0,1,2.3,2.83,8.11,8.11,0,0,1,.38,1.85v0.15l0,0.14c0.51,3,3.16,8.52,9.58,9.24-0.74,6.41,4,10.24,6.86,11.43l0.12,0.05,0.13,0a8.29,8.29,0,0,1,1.7.77h0a13.34,13.34,0,0,1,2.25,2.89l4,6.69,1.39,2.35,2.73-.37,7.69-1a18.67,18.67,0,0,1,2.29-.15,6.43,6.43,0,0,1,1.37.11,8.52,8.52,0,0,1,1.69.86l0.11,0.07,0.11,0.07a12.21,12.21,0,0,0,5.62,1.4,10.57,10.57,0,0,0,7.56-3.16,10.55,10.55,0,0,0,7.56,3.16,12.2,12.2,0,0,0,5.62-1.4l0.13-.07,0.11-.07a8.44,8.44,0,0,1,1.67-.86h0a6.47,6.47,0,0,1,1.38-.11,18.52,18.52,0,0,1,2.28.15l7.69,1,2.72,0.37,1.4-2.36,4-6.69a13.81,13.81,0,0,1,2.25-2.89,8.33,8.33,0,0,1,1.72-.79l0.13,0,0.13-.05c2.88-1.19,7.6-5,6.86-11.43,6.42-.73,9.07-6.24,9.58-9.25l0-.14v-0.13a8.8,8.8,0,0,1,.37-1.84h0a13.36,13.36,0,0,1,2.31-2.84l5.62-5.38,2-1.9Zm-7.57,3.83,5-1-5.63,5.39a15.09,15.09,0,0,0-2.82,3.58l0,0a9.55,9.55,0,0,0-.53,2.47v0.14a8.89,8.89,0,0,1-7.81,7.39c-0.32,0-.64,0-1,0h0l-0.64,0h-0.1a5.86,5.86,0,0,1-.75-0.13,6,6,0,0,1,.29.71l0,0.1a10.77,10.77,0,0,1,.34,1.59,8.88,8.88,0,0,1-5.45,9.28l-0.06,0-0.06,0a9.42,9.42,0,0,0-2.3,1.08,15.37,15.37,0,0,0-2.87,3.57l-4,6.7-0.13-5.11a6.33,6.33,0,0,1-3.07.8,6.31,6.31,0,0,1-2.54,1.91l3.9,3.3-7.71-1.05a22.72,22.72,0,0,0-2.59-.17,8.09,8.09,0,0,0-2,.18h0A9.52,9.52,0,0,0,433,348.5l-0.06,0-0.06,0a9.92,9.92,0,0,1-4.52,1.12,8.27,8.27,0,0,1-6.1-2.64,11.16,11.16,0,0,1-1-1.25l0,0,0,0a6,6,0,0,1-.36-0.67,6.89,6.89,0,0,1-.37.67l0,0,0,0a11.15,11.15,0,0,1-1,1.25,8.28,8.28,0,0,1-6.1,2.64,10,10,0,0,1-4.52-1.12l-0.06,0-0.06,0a9.53,9.53,0,0,0-2.28-1.13,7.83,7.83,0,0,0-2-.19,22.8,22.8,0,0,0-2.59.17l-7.69,1,3.88-3.28a6.31,6.31,0,0,1-2.54-1.91,6.32,6.32,0,0,1-3.07-.8l-0.14,5.11-4-6.7a15.21,15.21,0,0,0-2.85-3.55l0,0h0a9.38,9.38,0,0,0-2.28-1.07l-0.06,0-0.06,0a8.87,8.87,0,0,1-5.44-9.28,10.48,10.48,0,0,1,.33-1.59l0-.1a5.94,5.94,0,0,1,.29-0.71,5.8,5.8,0,0,1-.75.13h-0.1l-0.64,0c-0.34,0-.66,0-1,0a8.9,8.9,0,0,1-7.81-7.39V317a9.67,9.67,0,0,0-.55-2.5,15.33,15.33,0,0,0-2.83-3.6l-5.63-5.39,5,1a6.35,6.35,0,0,1-.1-3.18,6.31,6.31,0,0,1-1.28-2.91l-4.07,3.08,2.74-7.31a15.08,15.08,0,0,0,1-4.45v0a9.72,9.72,0,0,0-.59-2.46l0-.06,0-.07a8.89,8.89,0,0,1,3.84-10.06,11.11,11.11,0,0,1,1.44-.73l0.1,0a7.18,7.18,0,0,1,.75-0.21,6.55,6.55,0,0,1-.59-0.51l-0.07-.08a10.81,10.81,0,0,1-1-1.29,8.89,8.89,0,0,1,.89-10.73l0-.05,0,0a9.3,9.3,0,0,0,1.6-2,15.32,15.32,0,0,0,1-4.46l0.69-7.77,2.34,4.55a6.24,6.24,0,0,1,2.42-2.07,6.44,6.44,0,0,1,1.48-2.82l-5-1.27,7.4-2.41a15.11,15.11,0,0,0,4.09-2l0,0h0a9.53,9.53,0,0,0,1.55-2l0-.06,0-.05a9.47,9.47,0,0,1,7.21-3.82,8.74,8.74,0,0,1,3,.56,10.91,10.91,0,0,1,1.47.68l0.09,0.05a5.8,5.8,0,0,1,.62.45,6.38,6.38,0,0,1,0-.76v-0.1a10.68,10.68,0,0,1,.4-1.57,8.8,8.8,0,0,1,8.61-6h0.43a12.46,12.46,0,0,0,1.49.09,6.89,6.89,0,0,0,1.05-.07,15.38,15.38,0,0,0,4.13-2l6.49-4.3-2.09,4.67H418a6.25,6.25,0,0,1,2.73.62,6.22,6.22,0,0,1,2.73-.62h0.38l-2.09-4.67,6.49,4.3a15.09,15.09,0,0,0,4.1,2h0a7.21,7.21,0,0,0,1,.06,12.44,12.44,0,0,0,1.49-.09h0.44a8.8,8.8,0,0,1,8.61,6,10.34,10.34,0,0,1,.4,1.57v0.1a5.9,5.9,0,0,1,0,.76,5.8,5.8,0,0,1,.62-0.45l0.09-.05a10.88,10.88,0,0,1,1.47-.68,8.74,8.74,0,0,1,3-.56,9.47,9.47,0,0,1,7.21,3.82l0,0.05,0,0.06a9.44,9.44,0,0,0,1.57,2,15.2,15.2,0,0,0,4.11,2l7.4,2.41-5,1.27a6.38,6.38,0,0,1,1.48,2.82,6.3,6.3,0,0,1,2.43,2.07l2.33-4.55,0.69,7.77a15.17,15.17,0,0,0,1,4.45l0,0a9.66,9.66,0,0,0,1.59,2l0,0,0,0.05a8.88,8.88,0,0,1,.89,10.73,11.28,11.28,0,0,1-1,1.29l-0.07.08a5.79,5.79,0,0,1-.59.51,7.06,7.06,0,0,1,.75.21l0.1,0a11,11,0,0,1,1.45.73,8.88,8.88,0,0,1,3.84,10.06l0,0.07,0,0.06a9.48,9.48,0,0,0-.59,2.49,15.33,15.33,0,0,0,1,4.47l2.73,7.3-4.07-3.08a6.3,6.3,0,0,1-1.28,2.91,6.26,6.26,0,0,1-.1,3.18" transform="translate(-339.76 -208.41)"/><path class="cls-2" d="M464.81,278.77c-1.28-.64-4.21-2.68-4.17-8a8.87,8.87,0,0,1-3.56-3.41l1.12-1.2a6.76,6.76,0,0,1-1.23-1.63,3.47,3.47,0,0,1-2.38-1.3,3.5,3.5,0,0,1-.73-2.61,6.8,6.8,0,0,1-1.32-1.57l-1.41.83a8.88,8.88,0,0,1-2.53-4.24c-5.18-1.15-6.52-4.46-6.86-5.85,0-.15-0.06-0.28-0.08-0.38a9.42,9.42,0,0,1-.22-2.21,9.4,9.4,0,0,1-1.83,1.19,3.62,3.62,0,0,1-.37.2,6.69,6.69,0,0,1-2.88.63,9.45,9.45,0,0,1-6-2.36,8,8,0,0,1-3.57.74c-0.42,0-.87,0-1.32-0.07l-0.24-1.62a6,6,0,0,1-.82.06,7.1,7.1,0,0,1-1.23-.11,3.47,3.47,0,0,1-5,0,7.1,7.1,0,0,1-1.23.11,6,6,0,0,1-.82-0.06L416,247.51c-0.45,0-.9.07-1.32,0.07a7.94,7.94,0,0,1-3.57-.74,9.45,9.45,0,0,1-6,2.36,6.71,6.71,0,0,1-2.89-.63,4,4,0,0,1-.37-0.2,9.31,9.31,0,0,1-1.82-1.19,10,10,0,0,1-.22,2.21c0,0.1,0,.23-0.08.38-0.34,1.39-1.67,4.7-6.86,5.85a8.85,8.85,0,0,1-2.53,4.24L389,259a6.82,6.82,0,0,1-1.32,1.57,3.49,3.49,0,0,1-3.1,3.91,6.69,6.69,0,0,1-1.23,1.63l1.12,1.2a8.82,8.82,0,0,1-3.56,3.4c0,5.34-2.89,7.38-4.16,8l-0.35.16a9.63,9.63,0,0,1-2.1.71,9.51,9.51,0,0,1,1.59,1.54l0.25,0.3c0.87,1.12,2.62,4.24.29,9a8.86,8.86,0,0,1,1.73,4.63l-1.52.59a6.89,6.89,0,0,1,.4,2,3.52,3.52,0,0,1,1.11,4.88,6.89,6.89,0,0,1,.51,2l1.63-.13a8.94,8.94,0,0,1,.45,4.92c4.17,3.29,3.94,6.86,3.64,8.26a3.84,3.84,0,0,1-.09.37,9.49,9.49,0,0,1-.76,2.08,9.32,9.32,0,0,1,2.15-.28h0.43c1.21,0,4.88.47,7.22,5.42h0.06a9,9,0,0,1,4.63,1.52l-0.49,1.56a6.74,6.74,0,0,1,1.81.93,3.42,3.42,0,0,1,1.19-.21,3.53,3.53,0,0,1,3.32,2.39,6.48,6.48,0,0,1,1.85.84l0.91-1.36a8.84,8.84,0,0,1,4.11,2.72,11.71,11.71,0,0,1,2.71-.33,7.42,7.42,0,0,1,6,2.61c0.11,0.13.19,0.25,0.26,0.33a9.6,9.6,0,0,1,1.13,1.85,9.86,9.86,0,0,1,1.13-1.85l0.25-.33a7.44,7.44,0,0,1,6-2.61,11.69,11.69,0,0,1,2.71.33,8.87,8.87,0,0,1,4.12-2.72l0.91,1.36a6.47,6.47,0,0,1,1.85-.84,3.52,3.52,0,0,1,3.33-2.39,3.43,3.43,0,0,1,1.19.21,6.56,6.56,0,0,1,1.81-.93l-0.49-1.56a8.94,8.94,0,0,1,4.63-1.52h0.06c2.34-4.95,6-5.41,7.22-5.42h0.42a9.36,9.36,0,0,1,2.16.28,9.49,9.49,0,0,1-.76-2.08l-0.09-.37c-0.3-1.4-.53-5,3.65-8.26a8.91,8.91,0,0,1,.44-4.92l1.63,0.13a6.73,6.73,0,0,1,.51-2,3.51,3.51,0,0,1,1.11-4.88,6.59,6.59,0,0,1,.4-2l-1.52-.59a8.84,8.84,0,0,1,1.73-4.63c-2.33-4.78-.58-7.9.29-9a3.42,3.42,0,0,1,.25-0.3,9.35,9.35,0,0,1,1.59-1.55,9.27,9.27,0,0,1-2.1-.71l-0.35-.16m-44,52.2a40.79,40.79,0,0,1-34.83-61.78c0.14-.2.28-0.4,0.42-0.62l0.95-1.49h0a40.45,40.45,0,0,1,3.47-4.37h0l1.23-1.26c0.2-.2.38-0.41,0.57-0.61a40.49,40.49,0,0,1,22.61-11c0.35,0,.69,0,1-0.07l1.75-.18v0c0.92-.06,1.85-0.1,2.78-0.1s1.86,0,2.78.1v0l1.75,0.18c0.36,0,.7.06,1,0.07a40.51,40.51,0,0,1,22.62,11c0.18,0.2.36,0.4,0.55,0.6l1.24,1.26h0a40.16,40.16,0,0,1,3.47,4.37h0l1,1.49,0.41,0.61A40.79,40.79,0,0,1,420.76,331" transform="translate(-339.76 -208.41)"/><path class="cls-2" d="M442.17,240.45c-1-6-7-5.69-7-5.69a10.94,10.94,0,0,1-3.25,0,17.79,17.79,0,0,1-4.93-2.3c2.36,5.3,5.08,5,5.08,5,0,4.3,3.48,4.16,3.48,4.16-0.94-1-1.05-4.5,1.78-3.65a2.58,2.58,0,0,1,1.75,3.56c-1,2.77-4.08,1.84-4.08,1.84-3.42-1-4.92-4.56-4.92-4.56-1.42-3.48-5.66-7.56-9.37-4.61-3.71-2.95-8,1.13-9.37,4.61,0,0-1.5,3.59-4.92,4.56,0,0-3.11.94-4.08-1.84a2.58,2.58,0,0,1,1.74-3.56c2.84-.85,2.72,2.7,1.79,3.65,0,0,3.52.13,3.48-4.16,0,0,2.72.29,5.09-5a17.86,17.86,0,0,1-4.93,2.3,10.94,10.94,0,0,1-3.25,0s-5.94-.34-7,5.69a6.06,6.06,0,0,0,3.63,5.94s3.41,2.3,8-2.54c0,0,.83,1.8,4.75,1.4a5.56,5.56,0,0,1-2.09-2s-2.7-3.94,2-6c0,0,3-1.12,3.64,1.94,0,0,.57,2.26-1.53,2.57,0,0-1.79.46-1.43-1.28a3.34,3.34,0,0,1,1.64-1.6s-3.61-.68-3.73,2.2a2.64,2.64,0,0,0,1.8,2.52,4.64,4.64,0,0,0,3.48-.47l0.11-.06a1.2,1.2,0,1,0,2.32.47,1,1,0,0,0-.1-0.47l0.11,0.06a4.66,4.66,0,0,0,3.48.47,2.63,2.63,0,0,0,1.79-2.52c-0.12-2.88-3.73-2.2-3.73-2.2a3.32,3.32,0,0,1,1.64,1.6c0.36,1.74-1.42,1.28-1.42,1.28-2.1-.31-1.53-2.57-1.53-2.57,0.68-3.05,3.65-1.94,3.65-1.94,4.69,2.09,2,6,2,6a5.56,5.56,0,0,1-2.09,2c3.91,0.4,4.75-1.4,4.75-1.4,4.62,4.84,8,2.54,8,2.54a6.07,6.07,0,0,0,3.63-5.94" transform="translate(-339.76 -208.41)"/><path class="cls-2" d="M395.27,242.43c-5.34-3-8.77,1.91-8.77,1.91a11,11,0,0,1-2,2.55,17.79,17.79,0,0,1-4.86,2.43c5.61,1.44,7.08-.86,7.08-0.86,3.32,2.72,5.41-.13,5.41-0.13-1.33.14-4.16-2-1.74-3.68a2.57,2.57,0,0,1,3.86.85c1.56,2.49-1.11,4.34-1.11,4.34-2.89,2.08-6.63,1-6.63,1-3.6-1.05-9.42-.28-9.44,4.47-4.62,1.07-4.08,6.94-2.25,10.22,0,0,1.86,3.42.49,6.71,0,0-1.21,3-4,2.05a2.58,2.58,0,0,1-1.68-3.59c1.11-2.75,3.8-.46,4,0.88,0,0,2.31-2.68-1.07-5.33,0,0,1.92-2-.74-7.11a17.87,17.87,0,0,1-1.28,5.3,11,11,0,0,1-2,2.55s-4,4.44.1,9a6,6,0,0,0,6.9.86s3.92-1.25,3-7.88c0,0,1.92.47,4.05-2.85a5.59,5.59,0,0,1-2.89.37s-4.75-.35-3.46-5.33c0,0,1-3,3.78-1.65,0,0,2.12,1,1,2.8,0,0-.76,1.69-1.89.32a3.34,3.34,0,0,1-.23-2.29s-2.77,2.41-.61,4.3a2.62,2.62,0,0,0,3.08.17,4.68,4.68,0,0,0,1.81-3l0-.12a1,1,0,0,0,.31.37,1.18,1.18,0,0,0,1.64-.24,1.15,1.15,0,0,0-.56-1.87l0.11,0a4.7,4.7,0,0,0,2.53-2.44,2.64,2.64,0,0,0-.85-3c-2.32-1.7-4,1.55-4,1.55a3.35,3.35,0,0,1,2.28-.29c1.59,0.8.11,1.92,0.11,1.92-1.55,1.46-3-.4-3-0.4-2-2.44.76-4.07,0.76-4.07,4.56-2.37,5.95,2.19,5.95,2.19a5.67,5.67,0,0,1,.29,2.91c2.75-2.82,1.87-4.6,1.87-4.6,6.65-.6,7-4.71,7-4.71a6.07,6.07,0,0,0-2.36-6.55" transform="translate(-339.76 -208.41)"/><path class="cls-2" d="M367.56,280.43c-5.63,2.34-4,8.07-4,8.07a11.15,11.15,0,0,1,.72,3.18,18,18,0,0,1-1.14,5.33c4.62-3.5,3.74-6.09,3.74-6.09,4.19-.91,3.27-4.33,3.27-4.33-0.72,1.13-4.14,2-3.94-.93a2.57,2.57,0,0,1,3.07-2.5c2.91,0.33,2.69,3.58,2.69,3.58-0.18,3.56-3.34,5.83-3.34,5.83-3.07,2.16-6.09,7.22-2.39,10.19-2,4.29,2.87,7.53,6.57,8.14,0,0,3.83.67,5.53,3.8,0,0,1.6,2.83-.88,4.4a2.56,2.56,0,0,1-3.84-.91c-1.46-2.59,2-3.27,3.15-2.56,0,0-.65-3.48-4.82-2.48,0,0-.33-2.72-6-3.86a17.92,17.92,0,0,1,3.33,4.31,11.11,11.11,0,0,1,.73,3.18s1,5.88,7.08,5.53a6.05,6.05,0,0,0,5-4.87s1.47-3.85-4.26-7.29c0,0,1.56-1.22.31-5a5.65,5.65,0,0,1-1.52,2.49s-3.23,3.51-6.31-.61c0,0-1.75-2.65,1.07-4,0,0,2.07-1.06,2.83.93,0,0,.85,1.64-0.92,1.67a3.32,3.32,0,0,1-1.92-1.24s0.15,3.68,3,3.16a2.64,2.64,0,0,0,2.05-2.32,4.66,4.66,0,0,0-1.23-3.3l-0.08-.09a1,1,0,0,0,.48,0,1.21,1.21,0,0,0-.54-2.35,1,1,0,0,0-.44.2l0-.12a4.69,4.69,0,0,0-.32-3.51,2.63,2.63,0,0,0-2.85-1.19c-2.77.76-1.31,4.14-1.31,4.14a3.38,3.38,0,0,1,1.2-2c1.62-.74,1.56,1.11,1.56,1.11,0.17,2.12-2.15,2.07-2.15,2.07-3.12,0-2.7-3.13-2.7-3.13,1-5.05,5.42-3.3,5.42-3.3a5.58,5.58,0,0,1,2.45,1.59c-0.48-3.92-2.42-4.34-2.42-4.34,3.67-5.59.68-8.42,0.68-8.42a6,6,0,0,0-6.58-2.23" transform="translate(-339.76 -208.41)"/><path class="cls-2" d="M379.92,325.85c-1.69,5.88,3.8,8.15,3.8,8.15a10.91,10.91,0,0,1,2.93,1.42,18,18,0,0,1,3.45,4.22c0.15-5.81-2.42-6.73-2.42-6.73,1.9-3.85-1.34-5.26-1.34-5.26,0.43,1.27-1,4.51-3.19,2.51a2.58,2.58,0,0,1,0-4c2.08-2.08,4.47.11,4.47,0.11,2.66,2.36,2.46,6.26,2.46,6.26-0.22,3.75,1.83,9.27,6.45,8.23,2.06,4.28,7.65,2.44,10.43-.08,0,0,2.91-2.58,6.41-2,0,0,3.21.51,2.88,3.43a2.58,2.58,0,0,1-3.11,2.45c-2.93-.47-1.29-3.62,0-4.07,0,0-3.12-1.66-4.93,2.24,0,0-2.32-1.44-6.75,2.3a17.86,17.86,0,0,1,5.43.08,10.94,10.94,0,0,1,2.93,1.41s5.2,2.89,8.73-2.1a6.07,6.07,0,0,0-.7-6.93s-2.09-3.55-8.34-1.21c0,0,0-2-3.67-3.33a5.64,5.64,0,0,1,1,2.75s0.72,4.72-4.41,4.56c0,0-3.16-.29-2.44-3.33,0,0,.47-2.28,2.49-1.65,0,0,1.81.36,0.73,1.77a3.37,3.37,0,0,1-2.17.73s3,2.17,4.31-.36a2.64,2.64,0,0,0-.52-3.06,4.66,4.66,0,0,0-3.34-1.09h-0.12a1.21,1.21,0,0,0,.29-0.38,1.21,1.21,0,0,0-2.17-1.05,1.08,1.08,0,0,0-.12.47,0.4,0.4,0,0,0-.07-0.1,4.67,4.67,0,0,0-2.93-1.93,2.63,2.63,0,0,0-2.71,1.49c-1.14,2.64,2.41,3.61,2.41,3.61a3.36,3.36,0,0,1-.79-2.17c0.43-1.73,1.84-.53,1.84-0.53,1.76,1.19.27,3,.27,3-1.93,2.46-4.12.16-4.12,0.16-3.33-3.93.8-6.3,0.8-6.3a5.6,5.6,0,0,1,2.76-.93c-3.35-2.07-4.89-.8-4.89-0.8-2.07-6.37-6.14-5.79-6.14-5.79a6,6,0,0,0-5.84,3.77" transform="translate(-339.76 -208.41)"/><path class="cls-2" d="M423,344.49c3.52,5,8.73,2.1,8.73,2.1a11.13,11.13,0,0,1,2.93-1.41,17.81,17.81,0,0,1,5.43-.07c-4.42-3.74-6.75-2.3-6.75-2.3-1.81-3.89-4.94-2.23-4.94-2.23,1.26,0.45,2.9,3.59,0,4.07a2.57,2.57,0,0,1-3.11-2.44c-0.33-2.92,2.88-3.43,2.88-3.43,3.5-.61,6.41,2,6.41,2,2.78,2.52,8.37,4.35,10.43.08,4.62,1,6.68-4.48,6.45-8.23,0,0-.2-3.89,2.46-6.25,0,0,2.39-2.2,4.47-.12a2.58,2.58,0,0,1,0,4c-2.19,2-3.62-1.25-3.19-2.52,0,0-3.24,1.41-1.34,5.26,0,0-2.57.92-2.42,6.73a17.94,17.94,0,0,1,3.45-4.22,11.09,11.09,0,0,1,2.93-1.42s5.49-2.28,3.8-8.15a6,6,0,0,0-5.84-3.77s-4.07-.58-6.14,5.79c0,0-1.53-1.26-4.89.8a5.55,5.55,0,0,1,2.77.93s4.13,2.38.8,6.3c0,0-2.19,2.3-4.12-.16,0,0-1.49-1.78.27-3,0,0,1.41-1.19,1.84.54a3.35,3.35,0,0,1-.79,2.16s3.55-1,2.41-3.61a2.63,2.63,0,0,0-2.71-1.5,4.66,4.66,0,0,0-2.93,1.93,0.45,0.45,0,0,0-.07.1,1.08,1.08,0,0,0-.12-0.47,1.21,1.21,0,0,0-2.17,1.05,1.11,1.11,0,0,0,.29.38H440.1a4.69,4.69,0,0,0-3.34,1.1,2.64,2.64,0,0,0-.52,3.06c1.36,2.54,4.31.36,4.31,0.36a3.32,3.32,0,0,1-2.17-.73c-1.08-1.41.73-1.77,0.73-1.77,2-.63,2.49,1.65,2.49,1.65,0.71,3-2.44,3.33-2.44,3.33-5.13.16-4.41-4.56-4.41-4.56a5.6,5.6,0,0,1,1-2.75c-3.7,1.34-3.67,3.33-3.67,3.33-6.25-2.35-8.34,1.21-8.34,1.21a6.07,6.07,0,0,0-.7,6.93" transform="translate(-339.76 -208.41)"/><path class="cls-2" d="M464.44,322.3c6.09,0.35,7.08-5.53,7.08-5.53a11,11,0,0,1,.72-3.18,17.9,17.9,0,0,1,3.33-4.31c-5.68,1.14-6,3.86-6,3.86-4.16-1-4.82,2.47-4.82,2.47,1.14-.7,4.61,0,3.16,2.56a2.56,2.56,0,0,1-3.85.92c-2.49-1.56-.88-4.4-0.88-4.4,1.7-3.13,5.53-3.8,5.53-3.8,3.7-.61,8.61-3.85,6.57-8.14,3.69-3,.67-8-2.4-10.19,0,0-3.16-2.27-3.34-5.83,0,0-.22-3.25,2.7-3.58a2.57,2.57,0,0,1,3.07,2.5c0.19,3-3.23,2.07-4,.94,0,0-.91,3.42,3.27,4.32,0,0-.88,2.59,3.74,6.09a17.87,17.87,0,0,1-1.13-5.33,11,11,0,0,1,.72-3.18s1.65-5.73-4-8.07a6,6,0,0,0-6.59,2.23s-3,2.83.68,8.43c0,0-1.94.41-2.42,4.33a5.57,5.57,0,0,1,2.45-1.59s4.43-1.76,5.41,3.3c0,0,.43,3.15-2.69,3.13,0,0-2.32.05-2.16-2.07,0,0-.05-1.85,1.56-1.11a3.33,3.33,0,0,1,1.19,2s1.46-3.38-1.31-4.13a2.63,2.63,0,0,0-2.86,1.19,4.68,4.68,0,0,0-.32,3.51,0.53,0.53,0,0,0,0,.11,1.06,1.06,0,0,0-.43-0.2,1.21,1.21,0,0,0-.54,2.36,1.18,1.18,0,0,0,.48,0l-0.08.09a4.68,4.68,0,0,0-1.23,3.3,2.62,2.62,0,0,0,2.06,2.31c2.82,0.52,3-3.16,3-3.16a3.35,3.35,0,0,1-1.93,1.25c-1.78,0-.93-1.68-0.93-1.68,0.77-2,2.84-.92,2.84-0.92,2.82,1.34,1.07,4,1.07,4-3.08,4.12-6.31.61-6.31,0.61a5.66,5.66,0,0,1-1.52-2.5c-1.26,3.74.31,5,.31,5-5.73,3.44-4.26,7.29-4.26,7.29a6.05,6.05,0,0,0,5,4.87" transform="translate(-339.76 -208.41)"/><path class="cls-2" d="M473,276c4.07-4.56.1-9,.1-9a10.81,10.81,0,0,1-2-2.55,17.87,17.87,0,0,1-1.28-5.3c-2.65,5.16-.74,7.11-0.74,7.11-3.38,2.64-1.07,5.32-1.07,5.32,0.16-1.33,2.86-3.63,4-.87a2.58,2.58,0,0,1-1.69,3.59c-2.77,1-4-2.05-4-2.05-1.38-3.29.49-6.7,0.49-6.7,1.82-3.28,2.37-9.15-2.25-10.22,0-4.75-5.84-5.53-9.43-4.47,0,0-3.74,1.06-6.63-1,0,0-2.67-1.86-1.11-4.35a2.56,2.56,0,0,1,3.86-.85c2.43,1.7-.4,3.82-1.73,3.68,0,0,2.09,2.86,5.41.14,0,0,1.48,2.31,7.08.86a17.87,17.87,0,0,1-4.87-2.43,11.21,11.21,0,0,1-2-2.55s-3.44-4.86-8.77-1.91a6.06,6.06,0,0,0-2.37,6.55s0.34,4.11,7,4.72c0,0-.89,1.78,1.87,4.6a5.65,5.65,0,0,1,.29-2.91s1.39-4.57,5.94-2.19c0,0,2.72,1.63.76,4.07,0,0-1.41,1.85-3,.4,0,0-1.48-1.11.1-1.92a3.31,3.31,0,0,1,2.28.29s-1.73-3.25-4-1.55a2.64,2.64,0,0,0-.85,3,4.66,4.66,0,0,0,2.53,2.44l0.11,0a1,1,0,0,0-.43.22,1.19,1.19,0,0,0-.13,1.65A1.18,1.18,0,0,0,458,262a1.13,1.13,0,0,0,.31-0.37,1,1,0,0,0,0,.11,4.7,4.7,0,0,0,1.81,3,2.63,2.63,0,0,0,3.08-.17c2.17-1.89-.61-4.3-0.61-4.3a3.34,3.34,0,0,1-.23,2.29c-1.13,1.37-1.88-.32-1.88-0.32-1.07-1.84,1-2.8,1-2.8,2.8-1.37,3.78,1.65,3.78,1.65,1.3,5-3.45,5.32-3.45,5.32a5.57,5.57,0,0,1-2.89-.36C461.11,269.44,463,269,463,269c-0.89,6.64,3,7.88,3,7.88A6,6,0,0,0,473,276" transform="translate(-339.76 -208.41)"/><path class="cls-2" d="M420.76,251.56a38.65,38.65,0,1,0,38.54,38.65,38.59,38.59,0,0,0-38.54-38.65m35.8,33.22a40,40,0,0,1-7.75,3.5,28.35,28.35,0,0,0,7.2-6.89c0.23,1.11.42,2.24,0.55,3.39M455.24,277c-1.7,3.51-4.4,9.89-9.59,9.79a5,5,0,0,0-2.1,0,3.67,3.67,0,0,0-2,1.59,3.48,3.48,0,0,0-.1,2.53,3.51,3.51,0,0,1-.87-2.54,4.57,4.57,0,0,1,.73-2.29,3,3,0,0,1,1-.89c-1.12-2.84,2.87-7.83,6.35-3.91,0,0-2.56-.86-3.59.91s0.68,3.32,3.43,2.31c1.82-.66,5.15-4.51,5.2-11q0.88,1.67,1.6,3.44m-5.45-9.58q1.13,1.8,2.09,3.75a41.13,41.13,0,0,1-4.56,7,26.39,26.39,0,0,0,2.48-10.72m-3.86-4.31a26,26,0,0,1,0,6.52A97.27,97.27,0,0,0,441,259a36.39,36.39,0,0,1,4.93,4m-22.47,14.78s1.8,5.83,9.21,5.42,10-9,8.51-13.05c-1.06-2.95-6.05-9.35-8.17-15.27,0.4,0.14.8,0.3,1.19,0.45a41.94,41.94,0,0,0,5.39,7.95c7.69,9.17,2.84,21.32-6.23,21.59s-10-4.58-9.9-7.08m-0.68,23a0.73,0.73,0,0,0,.89-1,2.5,2.5,0,0,0-1.13-1.11s2.24-.72,2.56,1.39a1.92,1.92,0,0,1-1,2,2.85,2.85,0,0,1-2.45-.19l-0.07,0a0.88,0.88,0,0,1,.07.35,0.85,0.85,0,1,1-1.7,0,0.88,0.88,0,0,1,.07-0.35l-0.07,0a2.84,2.84,0,0,1-2.45.19,1.92,1.92,0,0,1-1-2c0.31-2.11,2.56-1.39,2.56-1.39a2.5,2.5,0,0,0-1.14,1.11,0.73,0.73,0,0,0,.9,1c1.44-.14,1.08-1.85,1.08-1.85-0.38-2.27-2.24-1.59-2.24-1.59a3.6,3.6,0,0,0-1.72,1.94,1.52,1.52,0,0,1-1.09.89h-4.17c4.42-1.31,4.54-4,7.08-5.32a10.51,10.51,0,0,0,6.16,0c2.54,1.33,2.65,4,7.07,5.32h-4.17a1.53,1.53,0,0,1-1.09-.89,3.56,3.56,0,0,0-1.72-1.94s-1.86-.68-2.24,1.59c0,0-.35,1.71,1.09,1.85m-0.75,5a1.28,1.28,0,1,1-1.28-1.28,1.28,1.28,0,0,1,1.28,1.28m-3.68-18.4,2.45-5.3,2.37,5.3-2.37,5.3Zm2.4-18.53s4.61,3.88,1.4,8a1.89,1.89,0,0,1-1.4.69,1.77,1.77,0,0,1-1.4-.69c-3.2-4.09,1.4-8,1.4-8m-13.39-13.62c0.39-.16.77-0.31,1.17-0.45-2.09,5.94-7.13,12.41-8.2,15.36-1.46,4,1.11,12.64,8.51,13.06s9.21-5.42,9.21-5.42c0.14,2.5-.83,7.36-9.9,7.08s-13.92-12.43-6.23-21.59a41.72,41.72,0,0,0,5.44-8m-11.77,7.69a36.87,36.87,0,0,1,5-4.09,96.36,96.36,0,0,0-5,10.7,26.2,26.2,0,0,1,0-6.61M392.14,267a26.38,26.38,0,0,0,2.48,10.72,41,41,0,0,1-4.56-7,42.36,42.36,0,0,1,2.09-3.74m-3.85,6.15c0.05,6.49,3.38,10.33,5.2,11,2.75,1,4.49-.49,3.43-2.32s-3.59-.91-3.59-0.91c3.47-3.92,7.47,1.08,6.34,3.91a2.91,2.91,0,0,1,1,.89,4.55,4.55,0,0,1,.73,2.29,3.52,3.52,0,0,1-.87,2.54,3.48,3.48,0,0,0-.1-2.53,3.69,3.69,0,0,0-2-1.59,4.91,4.91,0,0,0-2.1,0c-5.19.1-7.89-6.28-9.59-9.79q0.73-1.78,1.6-3.44m-2.78,8.32a28.33,28.33,0,0,0,7.21,6.91,39.43,39.43,0,0,1-7.76-3.51c0.13-1.15.31-2.28,0.55-3.4m-0.64,10.66c-0.09-1-.14-2.1-0.14-3.18,0-.27,0-0.55,0-0.82a74.77,74.77,0,0,0,13.1,3.86s-10.83.2-13,.14m8.12,6c-1.45,0-6.37-3.33-6.37-3.33l19.6,1.11s-11.77,2.22-13.23,2.22m19.79-5a4.18,4.18,0,0,0,.32-2.42,3.35,3.35,0,0,0-2.59-2.88s-2.49-.81-3.73,1,2,2.78,3.12,2.31c0,0-.73,2.8-4.67,1.36,0,0-.53,2.22-6,1.61,0,0,2.6-1.14,3.46-2.42a4.83,4.83,0,0,0,.71-2.24s0.47-4,6.28-3.61a6.2,6.2,0,0,1,5.29,4,4.48,4.48,0,0,1,.17,1.79c-0.69,5.59-7.27,8.38-7.27,8.38-2.49.31-8.72-.93-8.72-0.93,10.8-1.8,12.19-3,13.64-6M409.15,326a34.79,34.79,0,0,1-3.91-1.6c13.76-3.91,11.68-13.56,11.68-13.56,2,5.72-3.73,11.75-7.77,15.15m2.48,0.74A23.42,23.42,0,0,0,418.82,312a7.06,7.06,0,0,0-2.11-5.12,4.75,4.75,0,0,0-3-1.45,1.47,1.47,0,0,0-1.47,1.51,1.29,1.29,0,0,0,1.15,1.44c1.21,0,.81-1.69.3-2,0,0,1.54-.5,1.87,1.62,0,0,1.21-.42,2.34,2.12a5.11,5.11,0,0,0-2.06-.79,2.92,2.92,0,0,0-1.27.35,2.78,2.78,0,0,1-3.68-1.55,3,3,0,0,1,.53-3.53c1.72-1.44,3.15-1,4.56.08a8.62,8.62,0,0,1,1.81,1.87,6.88,6.88,0,0,1,1.28,2.9c1,5.63-2.44,13.49-4.56,17.91q-1.47-.26-2.91-0.63m9.09,1.17q-1.38,0-2.74-.1a60.73,60.73,0,0,0,2.38-10.89l0.39-5.9h0l0.37,5.94a63,63,0,0,0,2.35,10.85c-0.91.07-1.84,0.11-2.77,0.11m6.28-.55c-2.12-4.42-5.59-12.28-4.55-17.91a6.82,6.82,0,0,1,1.28-2.9,8.55,8.55,0,0,1,1.82-1.88c1.41-1,2.84-1.52,4.55-.08a3,3,0,0,1,.53,3.53,2.78,2.78,0,0,1-3.68,1.55,2.9,2.9,0,0,0-1.26-.35,5.11,5.11,0,0,0-2.06.79C424.77,307.53,426,308,426,308c0.33-2.13,1.87-1.63,1.87-1.63-0.51.34-.92,2,0.3,2a1.29,1.29,0,0,0,1.15-1.43,1.47,1.47,0,0,0-1.47-1.51,4.73,4.73,0,0,0-3,1.45,7,7,0,0,0-2.11,5.12,23.41,23.41,0,0,0,7.18,14.71c-1,.25-1.93.46-2.91,0.63m5.37-1.38c-4-3.4-9.75-9.43-7.77-15.16,0,0-2.08,9.66,11.68,13.56a35.39,35.39,0,0,1-3.91,1.59m1.28-25.85s-6.58-2.79-7.27-8.38a4.53,4.53,0,0,1,.17-1.8,6.19,6.19,0,0,1,5.29-4c5.8-.42,6.28,3.61,6.28,3.61a4.89,4.89,0,0,0,.71,2.25c0.86,1.27,3.45,2.41,3.45,2.41-5.46.6-6-1.61-6-1.61-4,1.44-4.68-1.36-4.68-1.36,1.09,0.47,4.37-.46,3.12-2.31s-3.73-1-3.73-1a3.34,3.34,0,0,0-2.59,2.88,4.21,4.21,0,0,0,.31,2.42c1.45,3,2.84,4.2,13.64,6,0,0-6.23,1.24-8.72.93m14.87-2c-1.45,0-13.22-2.22-13.22-2.22l19.59-1.11s-4.91,3.33-6.37,3.33m-4.85-6.16a74.6,74.6,0,0,0,13.1-3.86c0,0.3,0,.6,0,0.91,0,1,0,2.07-.13,3.09-2.12.05-13-.14-13-0.14" transform="translate(-339.76 -208.41)"/></svg>