<svg id="Слой_1" data-name="Слой 1" xmlns="http://www.w3.org/2000/svg" viewBox="0 0 162 162"><defs><style>.cls-1{fill:#153e28;}.cls-2{fill:#dcd076;}</style></defs><title>00</title><path class="cls-1" d="M501.76,297.74a81,81,0,1,1-81-81,81,81,0,0,1,81,81" transform="translate(-339.76 -216.74)"/><path class="cls-2" d="M454.91,289.17l-1.45-3.86a7.51,7.51,0,0,1-.45-1.88,4.57,4.57,0,0,1,.25-1l0-.07,0-.07a5.89,5.89,0,0,0-2.45-6.61,5.9,5.9,0,0,0-.65-7l0-.05-0.05-.05a4.51,4.51,0,0,1-.64-0.76h0a7,7,0,0,1-.41-1.9l-0.37-4.1-0.13-1.45-1.38-.45-3.91-1.27a7.34,7.34,0,0,1-1.75-.82,4.36,4.36,0,0,1-.61-0.8l0-.06,0-.06a6.18,6.18,0,0,0-4.79-2.52,5.74,5.74,0,0,0-1.9.33,5.88,5.88,0,0,0-5.65-3.88h-0.37a5.56,5.56,0,0,1-.65,0l-0.35,0h0a7,7,0,0,1-1.74-.86L422,247.75l-1.21-.8-1.21.8L416.13,250a7.34,7.34,0,0,1-1.73.86,2.65,2.65,0,0,1-.35,0,5.46,5.46,0,0,1-.65,0H413a5.88,5.88,0,0,0-5.65,3.88,5.74,5.74,0,0,0-1.9-.33,6.15,6.15,0,0,0-4.79,2.52l0,0.06,0,0.06a4.37,4.37,0,0,1-.6.79h0a7.16,7.16,0,0,1-1.75.82l-3.91,1.27-1.38.45-0.13,1.45-0.37,4.1a7.42,7.42,0,0,1-.41,1.89,4.44,4.44,0,0,1-.64.77l-0.05.05,0,0.05a5.9,5.9,0,0,0-.66,7,5.89,5.89,0,0,0-2.45,6.61l0,0.07,0,0.07a4.46,4.46,0,0,1,.25,1h0a7.09,7.09,0,0,1-.45,1.89l-1.45,3.86-0.51,1.36,1,1,3,2.85a7.45,7.45,0,0,1,1.22,1.5,4.29,4.29,0,0,1,.2,1V297a5.91,5.91,0,0,0,5.07,4.89,5.88,5.88,0,0,0,3.63,6l0.07,0,0.07,0a4.39,4.39,0,0,1,.9.41h0a7.06,7.06,0,0,1,1.19,1.53l2.11,3.54,0.74,1.24,1.44-.2,4.07-.55a9.88,9.88,0,0,1,1.21-.08,3.4,3.4,0,0,1,.73.06,4.5,4.5,0,0,1,.89.46l0.06,0,0.06,0a6.46,6.46,0,0,0,3,.74,5.59,5.59,0,0,0,4-1.67,5.58,5.58,0,0,0,4,1.67,6.45,6.45,0,0,0,3-.74l0.07,0,0.06,0a4.46,4.46,0,0,1,.88-0.45h0a3.42,3.42,0,0,1,.73-0.06,9.8,9.8,0,0,1,1.21.08l4.07,0.55,1.44,0.2,0.74-1.25,2.1-3.54a7.31,7.31,0,0,1,1.19-1.53,4.41,4.41,0,0,1,.91-0.42l0.07,0,0.07,0a5.89,5.89,0,0,0,3.63-6A5.91,5.91,0,0,0,450,297v-0.14a4.66,4.66,0,0,1,.2-1h0a7.07,7.07,0,0,1,1.22-1.5l3-2.85,1-1Zm-4,2,2.65-.53-3,2.85a8,8,0,0,0-1.49,1.89v0a5.05,5.05,0,0,0-.28,1.3v0.07a4.7,4.7,0,0,1-4.13,3.91l-0.52,0h-0.39l-0.4-.07a3.19,3.19,0,0,1,.15.37l0,0.05a5.7,5.7,0,0,1,.18.84,4.7,4.7,0,0,1-2.88,4.91h-0.07a5,5,0,0,0-1.22.57,8.13,8.13,0,0,0-1.52,1.89l-2.11,3.55-0.07-2.7a4.36,4.36,0,0,0-3,1.44l2.06,1.74-4.08-.56a12,12,0,0,0-1.37-.09,4.28,4.28,0,0,0-1,.1h0a5,5,0,0,0-1.19.6l0,0,0,0a5.25,5.25,0,0,1-2.39.59,4.38,4.38,0,0,1-3.23-1.39A5.9,5.9,0,0,1,421,312v0a3.17,3.17,0,0,1-.19-0.35,3.64,3.64,0,0,1-.19.35l0,0v0a5.9,5.9,0,0,1-.55.66,4.38,4.38,0,0,1-3.23,1.39,5.26,5.26,0,0,1-2.39-.59l0,0,0,0a5,5,0,0,0-1.21-.6,4.14,4.14,0,0,0-1-.1,12.06,12.06,0,0,0-1.37.09l-4.07.55,2.05-1.74a4.36,4.36,0,0,0-3-1.44l-0.07,2.7-2.11-3.55a8,8,0,0,0-1.51-1.88h0a5,5,0,0,0-1.2-.57h-0.07a4.69,4.69,0,0,1-2.88-4.91,5.54,5.54,0,0,1,.17-0.84l0-.05a3.14,3.14,0,0,1,.15-0.37l-0.4.07h-0.39l-0.52,0a4.71,4.71,0,0,1-4.13-3.91v-0.07a5.12,5.12,0,0,0-.29-1.32,8.11,8.11,0,0,0-1.5-1.9l-3-2.85,2.64,0.53a4.41,4.41,0,0,0-.73-3.22l-2.15,1.63,1.45-3.87a8,8,0,0,0,.53-2.35v0a5.14,5.14,0,0,0-.31-1.3V282a4.7,4.7,0,0,1,2-5.32,5.88,5.88,0,0,1,.76-0.38l0.05,0a3.8,3.8,0,0,1,.4-0.11,3.46,3.46,0,0,1-.31-0.27l0,0a5.72,5.72,0,0,1-.52-0.68,4.7,4.7,0,0,1,.47-5.68l0,0,0,0a4.92,4.92,0,0,0,.85-1,8.1,8.1,0,0,0,.55-2.36l0.37-4.11,1.24,2.4a3.3,3.3,0,0,1,1.28-1.09,3.41,3.41,0,0,1,.78-1.49l-2.62-.67,3.91-1.27a8,8,0,0,0,2.16-1.06l0,0h0a5,5,0,0,0,.82-1.05l0,0,0,0a5,5,0,0,1,3.81-2,4.62,4.62,0,0,1,1.6.3,5.77,5.77,0,0,1,.78.36l0,0a3.07,3.07,0,0,1,.33.24,3.37,3.37,0,0,1,0-.4V256a5.65,5.65,0,0,1,.21-0.83A4.66,4.66,0,0,1,413,252h0.23a6.59,6.59,0,0,0,.79,0,3.64,3.64,0,0,0,.56,0,8.13,8.13,0,0,0,2.18-1l3.43-2.27-1.1,2.47h0.2a3.33,3.33,0,0,0,2.89,0h0.2l-1.1-2.47,3.44,2.27a8,8,0,0,0,2.17,1h0a3.81,3.81,0,0,0,.55,0,6.58,6.58,0,0,0,.79,0h0.23a4.65,4.65,0,0,1,4.55,3.18,5.47,5.47,0,0,1,.21.83v0.06a3.12,3.12,0,0,1,0,.4,3.07,3.07,0,0,1,.33-0.24l0,0a5.76,5.76,0,0,1,.78-0.36,4.62,4.62,0,0,1,1.6-.3,5,5,0,0,1,3.81,2l0,0,0,0a5,5,0,0,0,.83,1.06,8,8,0,0,0,2.17,1.06l3.92,1.27-2.62.67a3.37,3.37,0,0,1,.78,1.49,3.33,3.33,0,0,1,1.28,1.09l1.23-2.4,0.37,4.11a8,8,0,0,0,.54,2.35v0a5.11,5.11,0,0,0,.84,1l0,0,0,0a4.7,4.7,0,0,1,.47,5.68,6,6,0,0,1-.52.68l0,0a3.06,3.06,0,0,1-.31.27,3.74,3.74,0,0,1,.4.11l0.05,0a5.8,5.8,0,0,1,.77.38,4.7,4.7,0,0,1,2,5.32v0.07a5,5,0,0,0-.31,1.31,8.11,8.11,0,0,0,.53,2.37l1.45,3.86L451.64,288a4.43,4.43,0,0,0-.73,3.22" transform="translate(-339.76 -216.74)"/><path class="cls-2" d="M444.06,276.51c-0.68-.34-2.22-1.42-2.2-4.24a4.69,4.69,0,0,1-1.88-1.8l0.59-.63a3.58,3.58,0,0,1-.65-0.86,1.83,1.83,0,0,1-1.26-.69,1.85,1.85,0,0,1-.38-1.38,3.6,3.6,0,0,1-.7-0.83l-0.75.44a4.7,4.7,0,0,1-1.34-2.24c-2.74-.61-3.45-2.36-3.63-3.1,0-.08,0-0.15,0-0.2a5,5,0,0,1-.12-1.17,5,5,0,0,1-1,.63l-0.2.1a3.54,3.54,0,0,1-1.52.33,5,5,0,0,1-3.15-1.25A4.21,4.21,0,0,1,424,260c-0.22,0-.46,0-0.7,0l-0.13-.86a3.15,3.15,0,0,1-.43,0,3.75,3.75,0,0,1-.65-0.06,1.83,1.83,0,0,1-2.63,0,3.75,3.75,0,0,1-.65.06,3.19,3.19,0,0,1-.43,0l-0.12.86c-0.24,0-.48,0-0.7,0a4.2,4.2,0,0,1-1.89-.39,5,5,0,0,1-3.15,1.25,3.55,3.55,0,0,1-1.53-.33l-0.2-.1a4.92,4.92,0,0,1-1-.63,5.26,5.26,0,0,1-.11,1.17c0,0.05,0,.12,0,0.2-0.18.73-.88,2.49-3.63,3.1a4.68,4.68,0,0,1-1.34,2.24l-0.75-.44a3.61,3.61,0,0,1-.7.83,1.84,1.84,0,0,1-1.64,2.07,3.54,3.54,0,0,1-.65.86l0.59,0.63a4.67,4.67,0,0,1-1.89,1.8c0,2.82-1.53,3.9-2.2,4.24l-0.19.08a5.1,5.1,0,0,1-1.11.37,5,5,0,0,1,.84.82l0.13,0.16c0.46,0.59,1.39,2.24.15,4.77a4.68,4.68,0,0,1,.92,2.45l-0.81.31a3.65,3.65,0,0,1,.21,1.05,1.86,1.86,0,0,1,.59,2.58,3.64,3.64,0,0,1,.27,1.05l0.86-.07a4.73,4.73,0,0,1,.24,2.6c2.21,1.74,2.08,3.63,1.93,4.37a2,2,0,0,1,0,.2,5,5,0,0,1-.4,1.1,4.93,4.93,0,0,1,1.14-.15h0.23c0.64,0,2.58.25,3.82,2.86h0a4.73,4.73,0,0,1,2.45.81l-0.26.83a3.57,3.57,0,0,1,1,.49,1.81,1.81,0,0,1,.63-0.11,1.87,1.87,0,0,1,1.76,1.26,3.43,3.43,0,0,1,1,.44l0.48-.72a4.67,4.67,0,0,1,2.18,1.44,6.19,6.19,0,0,1,1.43-.18,3.92,3.92,0,0,1,3.17,1.38l0.14,0.18a5.08,5.08,0,0,1,.6,1,5.22,5.22,0,0,1,.6-1l0.13-.18a3.94,3.94,0,0,1,3.17-1.38,6.18,6.18,0,0,1,1.43.18,4.69,4.69,0,0,1,2.18-1.44l0.48,0.72a3.42,3.42,0,0,1,1-.44,1.86,1.86,0,0,1,1.76-1.26,1.82,1.82,0,0,1,.63.11,3.47,3.47,0,0,1,1-.49l-0.26-.83a4.73,4.73,0,0,1,2.45-.81h0c1.24-2.62,3.18-2.86,3.82-2.86h0.22a5,5,0,0,1,1.14.15,5,5,0,0,1-.4-1.1l0-.2c-0.16-.74-0.28-2.63,1.93-4.37a4.71,4.71,0,0,1,.23-2.6l0.86,0.07a3.56,3.56,0,0,1,.27-1.05,1.86,1.86,0,0,1,.59-2.58,3.48,3.48,0,0,1,.21-1.05l-0.81-.31a4.67,4.67,0,0,1,.91-2.45c-1.23-2.53-.31-4.18.15-4.77l0.13-.16a5,5,0,0,1,.84-0.82,4.9,4.9,0,0,1-1.11-.37l-0.18-.08m-23.3,27.61a21.58,21.58,0,0,1-18.42-32.68l0.22-.33,0.5-.79h0a21.4,21.4,0,0,1,1.83-2.31h0l0.65-.67,0.3-.32a21.41,21.41,0,0,1,12-5.83l0.56,0,0.92-.1v0c0.48,0,1-.05,1.47-0.05s1,0,1.47.05v0l0.93,0.1,0.55,0a21.42,21.42,0,0,1,12,5.83l0.29,0.32,0.65,0.67h0a21.24,21.24,0,0,1,1.83,2.31h0l0.5,0.79,0.22,0.32a21.58,21.58,0,0,1-18.42,32.68" transform="translate(-339.76 -216.74)"/><path class="cls-2" d="M432.09,256.24a3.54,3.54,0,0,0-3.68-3,5.79,5.79,0,0,1-1.72,0,9.41,9.41,0,0,1-2.61-1.22c1.25,2.8,2.69,2.65,2.69,2.65,0,2.27,1.84,2.2,1.84,2.2-0.5-.51-0.56-2.38.94-1.93a1.36,1.36,0,0,1,.93,1.88,1.73,1.73,0,0,1-2.16,1,4.51,4.51,0,0,1-2.6-2.41c-0.75-1.84-3-4-5-2.44-2-1.56-4.21.6-5,2.44a4.51,4.51,0,0,1-2.6,2.41,1.73,1.73,0,0,1-2.16-1,1.36,1.36,0,0,1,.92-1.88c1.5-.45,1.44,1.43.95,1.93,0,0,1.86.07,1.84-2.2,0,0,1.44.15,2.69-2.65a9.45,9.45,0,0,1-2.61,1.22,5.79,5.79,0,0,1-1.72,0,3.53,3.53,0,0,0-3.68,3,3.2,3.2,0,0,0,1.92,3.14s1.81,1.22,4.25-1.34c0,0,.44,1,2.51.74a2.94,2.94,0,0,1-1.1-1.08,2.06,2.06,0,0,1,1.06-3.19,1.39,1.39,0,0,1,1.93,1,1,1,0,0,1-.81,1.36s-0.94.24-.75-0.68a1.77,1.77,0,0,1,.87-0.85s-1.91-.36-2,1.17a1.4,1.4,0,0,0,.95,1.33,2.46,2.46,0,0,0,1.84-.25l0.06,0a0.63,0.63,0,1,0,1.23.25,0.55,0.55,0,0,0-.05-0.25l0.06,0a2.46,2.46,0,0,0,1.84.25,1.39,1.39,0,0,0,.95-1.33c-0.06-1.52-2-1.17-2-1.17a1.76,1.76,0,0,1,.87.85c0.19,0.92-.75.68-0.75,0.68a1,1,0,0,1-.81-1.36,1.39,1.39,0,0,1,1.93-1,2.06,2.06,0,0,1,1.06,3.19,2.94,2.94,0,0,1-1.1,1.08c2.07,0.21,2.51-.74,2.51-0.74,2.45,2.56,4.25,1.34,4.25,1.34a3.21,3.21,0,0,0,1.92-3.14" transform="translate(-339.76 -216.74)"/><path class="cls-2" d="M407.28,257.29a3.53,3.53,0,0,0-4.64,1,5.81,5.81,0,0,1-1.07,1.35,9.41,9.41,0,0,1-2.57,1.29c3,0.76,3.74-.46,3.74-0.46,1.76,1.44,2.86-.07,2.86-0.07-0.71.07-2.2-1-.92-1.95a1.36,1.36,0,0,1,2,.45,1.73,1.73,0,0,1-.58,2.3,4.49,4.49,0,0,1-3.51.54c-1.9-.56-5-0.15-5,2.37-2.44.57-2.16,3.67-1.19,5.41a4.54,4.54,0,0,1,.26,3.55,1.73,1.73,0,0,1-2.1,1.09,1.36,1.36,0,0,1-.89-1.9c0.59-1.46,2-.24,2.09.46,0,0,1.22-1.42-.57-2.82,0,0,1-1-.39-3.76a9.45,9.45,0,0,1-.68,2.8,5.8,5.8,0,0,1-1.07,1.35,3.55,3.55,0,0,0,.05,4.76,3.19,3.19,0,0,0,3.65.45s2.07-.66,1.6-4.17c0,0,1,.25,2.14-1.51a3,3,0,0,1-1.53.2,2.05,2.05,0,0,1-1.83-2.82,1.38,1.38,0,0,1,2-.87,1,1,0,0,1,.56,1.48s-0.4.89-1,.17a1.77,1.77,0,0,1-.12-1.21s-1.47,1.28-.32,2.27a1.38,1.38,0,0,0,1.63.09,2.47,2.47,0,0,0,1-1.6v-0.06a0.55,0.55,0,0,0,.16.19,0.63,0.63,0,0,0,.87-0.13,0.61,0.61,0,0,0-.3-1l0.06,0a2.48,2.48,0,0,0,1.34-1.29,1.4,1.4,0,0,0-.45-1.58c-1.23-.9-2.14.82-2.14,0.82a1.77,1.77,0,0,1,1.2-.15c0.84,0.43.06,1,.06,1a1,1,0,0,1-1.57-.21,1.39,1.39,0,0,1,.4-2.15,2,2,0,0,1,3.15,1.16,3,3,0,0,1,.15,1.54c1.46-1.49,1-2.43,1-2.43,3.52-.32,3.7-2.49,3.7-2.49a3.21,3.21,0,0,0-1.25-3.46" transform="translate(-339.76 -216.74)"/><path class="cls-2" d="M392.62,277.39a3.55,3.55,0,0,0-2.11,4.27,5.9,5.9,0,0,1,.38,1.68,9.51,9.51,0,0,1-.6,2.82c2.44-1.85,2-3.22,2-3.22,2.22-.48,1.73-2.29,1.73-2.29-0.38.6-2.19,1.07-2.09-.49a1.36,1.36,0,0,1,1.62-1.32,1.73,1.73,0,0,1,1.42,1.89,4.51,4.51,0,0,1-1.76,3.08c-1.62,1.14-3.22,3.82-1.27,5.39-1.08,2.27,1.52,4,3.47,4.3a4.5,4.5,0,0,1,2.93,2,1.73,1.73,0,0,1-.47,2.33,1.36,1.36,0,0,1-2-.48c-0.77-1.37,1.07-1.73,1.67-1.36,0,0-.34-1.84-2.55-1.31,0,0-.17-1.44-3.17-2a9.48,9.48,0,0,1,1.76,2.28,5.88,5.88,0,0,1,.39,1.68,3.54,3.54,0,0,0,3.74,2.93,3.2,3.2,0,0,0,2.63-2.58s0.78-2-2.25-3.86c0,0,.83-0.64.16-2.62a3,3,0,0,1-.8,1.32,2,2,0,0,1-3.34-.32,1.39,1.39,0,0,1,.57-2.11,1,1,0,0,1,1.5.49s0.45,0.87-.49.89a1.75,1.75,0,0,1-1-.66s0.08,1.95,1.57,1.67a1.39,1.39,0,0,0,1.09-1.22,2.47,2.47,0,0,0-.65-1.75l0,0a0.55,0.55,0,0,0,.25,0,0.64,0.64,0,0,0-.28-1.25,0.55,0.55,0,0,0-.23.1v-0.06a2.48,2.48,0,0,0-.17-1.85,1.39,1.39,0,0,0-1.51-.63c-1.46.4-.7,2.19-0.7,2.19a1.79,1.79,0,0,1,.63-1c0.85-.39.83,0.59,0.83,0.59a1,1,0,0,1-1.14,1.09,1.39,1.39,0,0,1-1.43-1.66,2,2,0,0,1,2.86-1.74,3,3,0,0,1,1.29.84c-0.25-2.07-1.28-2.29-1.28-2.29,1.94-3,.36-4.45.36-4.45a3.19,3.19,0,0,0-3.48-1.18" transform="translate(-339.76 -216.74)"/><path class="cls-2" d="M399.16,301.41a3.55,3.55,0,0,0,2,4.31,5.77,5.77,0,0,1,1.55.75,9.49,9.49,0,0,1,1.82,2.23c0.08-3.07-1.28-3.56-1.28-3.56,1-2-.71-2.78-0.71-2.78,0.23,0.67-.53,2.39-1.69,1.33a1.36,1.36,0,0,1,0-2.1,1.72,1.72,0,0,1,2.37.06,4.53,4.53,0,0,1,1.3,3.31c-0.12,2,1,4.9,3.41,4.35,1.09,2.26,4,1.29,5.52,0a4.49,4.49,0,0,1,3.39-1,1.73,1.73,0,0,1,1.53,1.81,1.36,1.36,0,0,1-1.65,1.29c-1.55-.25-0.68-1.91,0-2.15,0,0-1.65-.88-2.61,1.18,0,0-1.23-.76-3.57,1.22a9.45,9.45,0,0,1,2.87,0,5.78,5.78,0,0,1,1.55.75,3.53,3.53,0,0,0,4.61-1.11,3.21,3.21,0,0,0-.37-3.67s-1.1-1.88-4.41-.64c0,0,0-1.05-1.94-1.76a3,3,0,0,1,.53,1.45,2,2,0,0,1-2.33,2.41,1.39,1.39,0,0,1-1.29-1.76,1,1,0,0,1,1.32-.87s1,0.19.39,0.94a1.78,1.78,0,0,1-1.15.39s1.56,1.15,2.28-.19a1.4,1.4,0,0,0-.28-1.62,2.47,2.47,0,0,0-1.77-.58h-0.06a0.64,0.64,0,0,0,.15-0.2,0.64,0.64,0,0,0-1.15-.56,0.57,0.57,0,0,0-.06.25l0-.05a2.47,2.47,0,0,0-1.55-1,1.39,1.39,0,0,0-1.43.79c-0.6,1.4,1.27,1.91,1.27,1.91a1.78,1.78,0,0,1-.42-1.15c0.23-.91,1-0.28,1-0.28a1,1,0,0,1,.14,1.58,1.38,1.38,0,0,1-2.18.09,2.05,2.05,0,0,1,.43-3.33,3,3,0,0,1,1.46-.49c-1.77-1.09-2.58-.43-2.58-0.43-1.09-3.37-3.25-3.06-3.25-3.06a3.2,3.2,0,0,0-3.09,2" transform="translate(-339.76 -216.74)"/><path class="cls-2" d="M422,311.27a3.52,3.52,0,0,0,4.61,1.11,5.88,5.88,0,0,1,1.55-.75,9.42,9.42,0,0,1,2.87,0c-2.34-2-3.57-1.22-3.57-1.22-1-2.06-2.61-1.18-2.61-1.18,0.67,0.24,1.53,1.9,0,2.15a1.36,1.36,0,0,1-1.65-1.29,1.73,1.73,0,0,1,1.52-1.82,4.5,4.5,0,0,1,3.39,1c1.47,1.33,4.43,2.3,5.52,0C436,309.87,437.13,307,437,305a4.52,4.52,0,0,1,1.3-3.31,1.72,1.72,0,0,1,2.36-.06,1.36,1.36,0,0,1,0,2.1c-1.16,1.06-1.91-.66-1.69-1.33,0,0-1.71.75-.71,2.78,0,0-1.36.49-1.28,3.56a9.49,9.49,0,0,1,1.82-2.23,5.86,5.86,0,0,1,1.55-.75,3.54,3.54,0,0,0,2-4.31,3.2,3.2,0,0,0-3.09-2s-2.15-.31-3.25,3.06c0,0-.81-0.67-2.58.43a2.94,2.94,0,0,1,1.46.49,2.05,2.05,0,0,1,.43,3.33,1.38,1.38,0,0,1-2.18-.08,1,1,0,0,1,.14-1.58s0.74-.63,1,0.28a1.77,1.77,0,0,1-.42,1.14s1.88-.51,1.27-1.91a1.39,1.39,0,0,0-1.43-.79,2.46,2.46,0,0,0-1.55,1l0,0.05a0.57,0.57,0,0,0-.06-0.25,0.64,0.64,0,0,0-1.15.56,0.59,0.59,0,0,0,.15.2H431a2.48,2.48,0,0,0-1.77.58,1.4,1.4,0,0,0-.28,1.62c0.72,1.34,2.28.19,2.28,0.19a1.75,1.75,0,0,1-1.15-.39c-0.57-.75.38-0.94,0.38-0.94a1,1,0,0,1,1.32.87,1.39,1.39,0,0,1-1.29,1.76,2.05,2.05,0,0,1-2.33-2.41,3,3,0,0,1,.53-1.45c-2,.71-1.94,1.76-1.94,1.76-3.31-1.24-4.41.64-4.41,0.64a3.21,3.21,0,0,0-.37,3.66" transform="translate(-339.76 -216.74)"/><path class="cls-2" d="M443.86,299.53a3.54,3.54,0,0,0,3.74-2.93,5.83,5.83,0,0,1,.38-1.68,9.47,9.47,0,0,1,1.76-2.28c-3,.6-3.18,2-3.18,2-2.2-.53-2.55,1.31-2.55,1.31,0.6-.37,2.44,0,1.67,1.35a1.36,1.36,0,0,1-2,.49,1.74,1.74,0,0,1-.47-2.33,4.5,4.5,0,0,1,2.92-2c2-.32,4.55-2,3.48-4.3,2-1.57.35-4.24-1.27-5.39a4.52,4.52,0,0,1-1.77-3.08,1.73,1.73,0,0,1,1.43-1.89,1.36,1.36,0,0,1,1.62,1.32c0.1,1.57-1.71,1.09-2.09.49,0,0-.48,1.81,1.73,2.29,0,0-.47,1.37,2,3.22a9.45,9.45,0,0,1-.6-2.82,5.79,5.79,0,0,1,.38-1.68,3.55,3.55,0,0,0-2.11-4.27,3.19,3.19,0,0,0-3.48,1.18s-1.58,1.5.36,4.46c0,0-1,.22-1.28,2.29a3,3,0,0,1,1.29-.84,2,2,0,0,1,2.86,1.74,1.39,1.39,0,0,1-1.42,1.66,1,1,0,0,1-1.14-1.09s0-1,.83-0.59a1.76,1.76,0,0,1,.63,1s0.77-1.79-.69-2.19a1.39,1.39,0,0,0-1.51.63,2.48,2.48,0,0,0-.17,1.85v0.06a0.56,0.56,0,0,0-.23-0.1,0.64,0.64,0,0,0-.28,1.25,0.62,0.62,0,0,0,.25,0l0,0a2.47,2.47,0,0,0-.65,1.75,1.39,1.39,0,0,0,1.09,1.22c1.49,0.28,1.57-1.67,1.57-1.67a1.77,1.77,0,0,1-1,.66c-0.94,0-.49-0.89-0.49-0.89a1,1,0,0,1,1.5-.49,1.39,1.39,0,0,1,.57,2.11,2,2,0,0,1-3.34.32,3,3,0,0,1-.8-1.32c-0.67,2,.16,2.62.16,2.62-3,1.82-2.25,3.86-2.25,3.86a3.2,3.2,0,0,0,2.63,2.58" transform="translate(-339.76 -216.74)"/><path class="cls-2" d="M448.37,275a3.55,3.55,0,0,0,.05-4.76,5.72,5.72,0,0,1-1.07-1.35,9.45,9.45,0,0,1-.68-2.8c-1.4,2.73-.39,3.76-0.39,3.76-1.79,1.4-.57,2.81-0.57,2.81,0.09-.7,1.51-1.92,2.1-0.46a1.36,1.36,0,0,1-.89,1.9,1.73,1.73,0,0,1-2.11-1.08,4.53,4.53,0,0,1,.26-3.55c1-1.74,1.25-4.84-1.19-5.41,0-2.51-3.09-2.93-5-2.36a4.5,4.5,0,0,1-3.5-.54,1.73,1.73,0,0,1-.59-2.3,1.36,1.36,0,0,1,2-.45c1.29,0.9-.21,2-0.92,1.95,0,0,1.11,1.51,2.86.07,0,0,.78,1.22,3.74.46a9.45,9.45,0,0,1-2.57-1.28,5.93,5.93,0,0,1-1.07-1.35,3.53,3.53,0,0,0-4.64-1,3.21,3.21,0,0,0-1.25,3.46s0.18,2.18,3.7,2.49c0,0-.47.94,1,2.43a3,3,0,0,1,.15-1.54A2,2,0,0,1,441,263a1.39,1.39,0,0,1,.4,2.15,1,1,0,0,1-1.56.21s-0.78-.59.06-1a1.75,1.75,0,0,1,1.21.15s-0.91-1.72-2.14-.82a1.4,1.4,0,0,0-.45,1.58,2.46,2.46,0,0,0,1.34,1.29l0.06,0a0.55,0.55,0,0,0-.23.12,0.63,0.63,0,0,0-.07.87,0.62,0.62,0,0,0,.86.13,0.6,0.6,0,0,0,.17-0.2v0.06a2.49,2.49,0,0,0,1,1.6,1.39,1.39,0,0,0,1.63-.09c1.15-1-.32-2.27-0.32-2.27a1.77,1.77,0,0,1-.12,1.21c-0.6.72-1-.17-1-0.17a1,1,0,0,1,.55-1.48,1.39,1.39,0,0,1,2,.87,2,2,0,0,1-1.83,2.82,2.94,2.94,0,0,1-1.53-.19c1.13,1.76,2.14,1.51,2.14,1.51-0.47,3.51,1.6,4.17,1.6,4.17a3.19,3.19,0,0,0,3.65-.45" transform="translate(-339.76 -216.74)"/><path class="cls-2" d="M420.76,262.12a20.44,20.44,0,1,0,20.38,20.44,20.41,20.41,0,0,0-20.38-20.44m18.93,17.57a21.13,21.13,0,0,1-4.1,1.85,15,15,0,0,0,3.81-3.64c0.12,0.59.22,1.18,0.29,1.79m-0.7-4.13c-0.9,1.86-2.33,5.23-5.07,5.18a2.65,2.65,0,0,0-1.11,0,1.94,1.94,0,0,0-1.08.84,1.84,1.84,0,0,0-.05,1.34,1.86,1.86,0,0,1-.46-1.34,2.42,2.42,0,0,1,.39-1.21,1.58,1.58,0,0,1,.52-0.47c-0.59-1.5,1.52-4.14,3.36-2.07,0,0-1.35-.45-1.9.48s0.36,1.76,1.81,1.22c1-.35,2.72-2.38,2.75-5.82q0.46,0.88.85,1.82m-2.88-5.07q0.6,0.95,1.1,2a21.76,21.76,0,0,1-2.41,3.69,14,14,0,0,0,1.31-5.67m-2-2.28a13.73,13.73,0,0,1,0,3.45,51.45,51.45,0,0,0-2.59-5.58,19.25,19.25,0,0,1,2.61,2.14M422.19,276a4.55,4.55,0,0,0,4.87,2.86c3.92-.22,5.27-4.77,4.5-6.9-0.56-1.56-3.2-4.95-4.32-8.08l0.63,0.24a22.18,22.18,0,0,0,2.85,4.2c4.07,4.85,1.5,11.27-3.3,11.42s-5.31-2.42-5.24-3.75m-0.36,12.18a0.39,0.39,0,0,0,.47-0.54,1.32,1.32,0,0,0-.6-0.58,1,1,0,0,1,1.35.73,1,1,0,0,1-.55,1.06,1.51,1.51,0,0,1-1.3-.1l0,0a0.47,0.47,0,0,1,0,.19,0.45,0.45,0,1,1-.9,0,0.47,0.47,0,0,1,0-.19l0,0a1.5,1.5,0,0,1-1.3.1,1,1,0,0,1-.55-1.06,1,1,0,0,1,1.35-.73,1.32,1.32,0,0,0-.6.58,0.39,0.39,0,0,0,.47.54,0.77,0.77,0,0,0,.57-1,0.88,0.88,0,0,0-1.19-.84,1.9,1.9,0,0,0-.91,1,0.8,0.8,0,0,1-.58.47h-2.2c2.34-.69,2.4-2.11,3.74-2.82a5.56,5.56,0,0,0,3.26,0c1.34,0.7,1.4,2.12,3.74,2.82h-2.2a0.81,0.81,0,0,1-.58-0.47,1.88,1.88,0,0,0-.91-1,0.88,0.88,0,0,0-1.19.84,0.77,0.77,0,0,0,.58,1m-0.39,2.67a0.68,0.68,0,1,1-.68-0.68,0.68,0.68,0,0,1,.68.68m-1.95-9.73,1.29-2.8,1.25,2.8-1.25,2.8Zm1.27-9.8s2.44,2.05.74,4.22a1,1,0,0,1-.74.37,0.94,0.94,0,0,1-.74-0.37c-1.69-2.16.74-4.22,0.74-4.22m-7.08-7.2,0.62-.24c-1.11,3.14-3.77,6.56-4.34,8.13-0.77,2.13.58,6.69,4.5,6.91a4.55,4.55,0,0,0,4.87-2.86c0.07,1.32-.44,3.89-5.24,3.75s-7.36-6.57-3.3-11.42a22.07,22.07,0,0,0,2.88-4.26m-6.22,4.07A19.5,19.5,0,0,1,410.1,266a51,51,0,0,0-2.63,5.66,13.86,13.86,0,0,1,0-3.5m-1.83,2.07a14,14,0,0,0,1.31,5.67,21.7,21.7,0,0,1-2.41-3.69,22.41,22.41,0,0,1,1.1-2m-2,3.25c0,3.44,1.79,5.47,2.75,5.82,1.46,0.53,2.38-.26,1.81-1.23s-1.9-.48-1.9-0.48c1.84-2.08,4,.57,3.36,2.07a1.54,1.54,0,0,1,.52.47,2.41,2.41,0,0,1,.39,1.21,1.86,1.86,0,0,1-.46,1.34,1.84,1.84,0,0,0-.05-1.34,2,2,0,0,0-1.08-.84,2.6,2.6,0,0,0-1.11,0c-2.75.05-4.17-3.32-5.07-5.18q0.38-.94.85-1.82m-1.47,4.4a15,15,0,0,0,3.82,3.65,20.85,20.85,0,0,1-4.1-1.85c0.07-.61.16-1.21,0.29-1.8m-0.34,5.64c0-.55-0.08-1.11-0.08-1.68,0-.14,0-0.29,0-0.44a39.55,39.55,0,0,0,6.93,2s-5.73.1-6.86,0.08m4.3,3.18c-0.77,0-3.37-1.76-3.37-1.76l10.37,0.59s-6.23,1.17-7,1.17m10.47-2.65a2.21,2.21,0,0,0,.17-1.28,1.77,1.77,0,0,0-1.37-1.52,1.81,1.81,0,0,0-2,.55c-0.66,1,1.07,1.47,1.65,1.22,0,0-.38,1.48-2.47.72,0,0-.28,1.17-3.17.85a5.37,5.37,0,0,0,1.83-1.28,2.56,2.56,0,0,0,.37-1.19s0.25-2.13,3.32-1.91a3.28,3.28,0,0,1,2.8,2.12,2.37,2.37,0,0,1,.09.95c-0.37,3-3.85,4.43-3.85,4.43a22.7,22.7,0,0,1-4.61-.49c5.71-1,6.45-1.59,7.22-3.17m-1.92,17.37a18.4,18.4,0,0,1-2.07-.84c7.28-2.07,6.18-7.17,6.18-7.17,1,3-2,6.22-4.11,8m1.31,0.39a12.39,12.39,0,0,0,3.8-7.78,3.73,3.73,0,0,0-1.12-2.71,2.51,2.51,0,0,0-1.57-.77,0.78,0.78,0,0,0-.78.8,0.68,0.68,0,0,0,.61.76c0.64,0,.43-0.89.16-1.07,0,0,.81-0.26,1,0.86,0,0,.64-0.22,1.24,1.12a2.7,2.7,0,0,0-1.09-.42,1.54,1.54,0,0,0-.67.19,1.47,1.47,0,0,1-1.95-.82,1.6,1.6,0,0,1,.28-1.87,1.72,1.72,0,0,1,2.41,0,4.56,4.56,0,0,1,1,1,3.64,3.64,0,0,1,.68,1.54c0.55,3-1.29,7.14-2.41,9.47q-0.78-.14-1.54-0.33m4.81,0.62q-0.73,0-1.45-.05a32.12,32.12,0,0,0,1.26-5.76l0.21-3.12h0l0.2,3.14a33.32,33.32,0,0,0,1.24,5.74c-0.48,0-1,.06-1.46.06m3.32-.29c-1.12-2.34-3-6.5-2.41-9.47a3.6,3.6,0,0,1,.68-1.53,4.52,4.52,0,0,1,1-1,1.72,1.72,0,0,1,2.41,0A1.6,1.6,0,0,1,426,292a1.47,1.47,0,0,1-1.95.82,1.54,1.54,0,0,0-.67-0.18,2.7,2.7,0,0,0-1.09.42c0.6-1.34,1.23-1.12,1.23-1.12,0.18-1.13,1-.86,1-0.86-0.27.18-.49,1.07,0.16,1.07a0.68,0.68,0,0,0,.61-0.76,0.78,0.78,0,0,0-.78-0.8,2.5,2.5,0,0,0-1.57.77,3.73,3.73,0,0,0-1.12,2.71,12.38,12.38,0,0,0,3.8,7.78c-0.5.13-1,.24-1.54,0.33m2.84-.73c-2.14-1.8-5.16-5-4.11-8,0,0-1.1,5.11,6.18,7.17a18.72,18.72,0,0,1-2.07.84m0.68-13.67s-3.48-1.48-3.85-4.43a2.39,2.39,0,0,1,.09-0.95,3.28,3.28,0,0,1,2.8-2.12c3.07-.22,3.32,1.91,3.32,1.91a2.59,2.59,0,0,0,.37,1.19,5.41,5.41,0,0,0,1.83,1.28c-2.89.32-3.16-.85-3.16-0.85-2.09.76-2.48-.72-2.48-0.72,0.58,0.25,2.31-.24,1.65-1.22a1.81,1.81,0,0,0-2-.55,1.77,1.77,0,0,0-1.37,1.52,2.23,2.23,0,0,0,.16,1.28c0.76,1.59,1.5,2.22,7.22,3.17a22.69,22.69,0,0,1-4.61.49m7.87-1.08c-0.77,0-7-1.18-7-1.18l10.36-.59s-2.6,1.76-3.37,1.76m-2.56-3.26a39.46,39.46,0,0,0,6.93-2c0,0.16,0,.32,0,0.48,0,0.55,0,1.1-.07,1.64-1.12,0-6.86-.08-6.86-0.08" transform="translate(-339.76 -216.74)"/><path class="cls-2" d="M401.31,322.49a2,2,0,0,0-.7-0.35,3.25,3.25,0,0,0-1.71,0,2,2,0,0,0-.69.35,1.63,1.63,0,0,0-.47.58,2,2,0,0,0,0,1.64,1.62,1.62,0,0,0,.47.58,1.86,1.86,0,0,0,.69.33,3.55,3.55,0,0,0,1.71,0,1.87,1.87,0,0,0,.7-0.33,1.62,1.62,0,0,0,.47-0.58,2,2,0,0,0,0-1.64,1.63,1.63,0,0,0-.47-0.58M401,324.41a1.21,1.21,0,0,1-.32.39,1.43,1.43,0,0,1-.45.25,1.57,1.57,0,0,1-1,0,1.39,1.39,0,0,1-.45-0.25,1.25,1.25,0,0,1-.32-0.39,1.23,1.23,0,0,1,0-1.05,1.25,1.25,0,0,1,.32-0.39,1.4,1.4,0,0,1,.45-0.25,1.59,1.59,0,0,1,1,0,1.44,1.44,0,0,1,.45.25,1.21,1.21,0,0,1,.32.39,1.23,1.23,0,0,1,0,1.05" transform="translate(-339.76 -216.74)"/><path class="cls-2" d="M405.78,321.34a1.29,1.29,0,0,0,.41.23,1.55,1.55,0,0,0,.5.08,1.56,1.56,0,0,0,.51-0.08,1.29,1.29,0,0,0,.41-0.23,1.15,1.15,0,0,0,.28-0.37,1.45,1.45,0,0,0,.13-0.49h-0.48a1,1,0,0,1-.12.32,0.64,0.64,0,0,1-.2.19,0.82,0.82,0,0,1-.25.09l-0.28,0-0.28,0a0.78,0.78,0,0,1-.25-0.09,0.64,0.64,0,0,1-.2-0.19,0.92,0.92,0,0,1-.12-0.32h-0.48a1.37,1.37,0,0,0,.13.49,1.12,1.12,0,0,0,.28.37" transform="translate(-339.76 -216.74)"/><path class="cls-2" d="M425.5,322.49a2,2,0,0,0-.7-0.35,3.25,3.25,0,0,0-1.71,0,2,2,0,0,0-.69.35,1.63,1.63,0,0,0-.47.58,2,2,0,0,0,0,1.64,1.62,1.62,0,0,0,.47.58,1.86,1.86,0,0,0,.69.33,3.55,3.55,0,0,0,1.71,0,1.87,1.87,0,0,0,.7-0.33,1.63,1.63,0,0,0,.47-0.58,2,2,0,0,0,0-1.64,1.64,1.64,0,0,0-.47-0.58m-0.27,1.92a1.21,1.21,0,0,1-.32.39,1.43,1.43,0,0,1-.45.25,1.57,1.57,0,0,1-1,0,1.45,1.45,0,0,1-.45-0.25,1.25,1.25,0,0,1-.32-0.39,1.23,1.23,0,0,1,0-1.05A1.25,1.25,0,0,1,423,323a1.45,1.45,0,0,1,.45-0.25,1.59,1.59,0,0,1,1,0,1.44,1.44,0,0,1,.45.25,1.21,1.21,0,0,1,.32.39,1.23,1.23,0,0,1,0,1.05" transform="translate(-339.76 -216.74)"/><path class="cls-2" d="M465.27,324.55l-0.31.22a2.45,2.45,0,0,1-.32.17l-0.42.14a1.89,1.89,0,0,1-.45.06,1.31,1.31,0,0,1-.47-0.09,1.23,1.23,0,0,1-.41-0.26,1.26,1.26,0,0,1-.29-0.4,1.2,1.2,0,0,1-.11-0.53,1.32,1.32,0,0,1,.1-0.52,1.06,1.06,0,0,1,.28-0.39,1.24,1.24,0,0,1,.43-0.24,1.78,1.78,0,0,1,.54-0.08,2.08,2.08,0,0,1,.81.16,1.49,1.49,0,0,1,.25.14l0.22,0.16,0.39-.57-0.32-.18-0.33-.13a3.19,3.19,0,0,0-.46-0.13,2.5,2.5,0,0,0-.57-0.06,2.76,2.76,0,0,0-.79.11,2.06,2.06,0,0,0-.68.35,1.81,1.81,0,0,0-.48.58,1.92,1.92,0,0,0,0,1.62,1.83,1.83,0,0,0,.47.59,1.81,1.81,0,0,0,.66.34,2.71,2.71,0,0,0,.75.11,3.26,3.26,0,0,0,.67-0.07,3,3,0,0,0,.53-0.16,3.88,3.88,0,0,0,.37-0.17l0.34-.21Z" transform="translate(-339.76 -216.74)"/><path class="cls-2" d="M382.21,322.07h-1l-1.76,1.44v-1.44h-0.77v1.39l-0.5-.4-1.21-1h-1.06l0.53,0.42c0.49,0.38,1.31,1,1.31,1L376,325.69h0.86l1.42-1.74,0.4,0.32v1.42h0.77v-1.36l0.43-.35,1.4,1.7h0.93l-1.75-2.16,0.49-.4Z" transform="translate(-339.76 -216.74)"/><polygon class="cls-2" points="45.63 107.92 45.63 105.33 44.94 105.33 44.94 108.68 44.94 108.95 45.61 108.95 48.1 106.2 48.1 108.95 48.79 108.95 48.79 105.33 47.98 105.33 45.63 107.92"/><polygon class="cls-2" points="65.67 107.92 65.67 105.33 64.97 105.33 64.97 108.68 64.97 108.95 65.65 108.95 68.14 106.2 68.14 108.95 68.83 108.95 68.83 105.33 68.01 105.33 65.67 107.92"/><polygon class="cls-2" points="53.12 105.33 51.46 108.95 52.26 108.95 53.48 106.1 54.82 108.95 55.66 108.95 53.94 105.33 53.12 105.33"/><polygon class="cls-2" points="104.84 105.33 103.19 108.95 103.98 108.95 105.21 106.1 106.55 108.95 107.39 108.95 105.66 105.33 104.84 105.33"/><path class="cls-2" d="M418.73,322.07l-2,1.61v-1.61H416v3.62h0.79V324.5l0.64-.51,1.4,1.7h0.93L418,323.52l1.79-1.45h-1Z" transform="translate(-339.76 -216.74)"/><path class="cls-2" d="M458.73,322.07l-2,1.61v-1.61H456v3.62h0.79V324.5l0.64-.51,1.4,1.7h0.93L458,323.52l1.79-1.45h-1Z" transform="translate(-339.76 -216.74)"/><polygon class="cls-2" points="91.3 107.64 90.04 105.33 89.22 105.33 89.22 108.95 89.91 108.95 89.91 106.37 89.92 106.37 91.24 108.95 91.31 108.95 92.71 106.37 92.72 106.37 92.72 108.95 93.41 108.95 93.41 105.33 92.57 105.33 91.3 107.64"/><polygon class="cls-2" points="96.79 108.95 97.58 108.95 97.58 105.94 99.7 105.94 99.7 108.95 100.49 108.95 100.49 105.33 96.79 105.33 96.79 108.95"/><polygon class="cls-2" points="110.81 107.37 112.5 107.37 112.5 106.77 110.81 106.77 110.81 105.94 113.22 105.94 113.22 105.33 110.02 105.33 110.02 108.95 113.29 108.95 113.29 108.34 110.81 108.34 110.81 107.37"/><path class="cls-2" d="M381.16,329l0.15-.5,2.33,0,2.49,0L386,329l-1.48.59v0.63c3,0.16,6.84,1,6.84,5.79,0,4.44-3.76,5.61-6.84,5.7v0.77l1.89,0.63-0.13.52-2.63,0-2.74,0,0.13-.52,1.67-.63v-0.77c-3-.09-6.86-1-6.86-5.59s3.8-5.73,6.86-5.91v-0.68Zm1.54,2c-2.86.27-4.75,1.59-4.75,4.91s1.8,4.73,4.75,5v-9.94Zm1.82,9.94c2.88-.25,4.75-1.52,4.75-4.91s-1.89-4.78-4.75-5V341Z" transform="translate(-339.76 -216.74)"/><path class="cls-2" d="M393,328.72c0.87,0,1.78,0,2.65,0h5.39a11.85,11.85,0,0,1,1.82-.29l0,0.09c0,0.61-.39,2.58-0.54,3.28L402,332c-0.22-.54-0.76-1.95-0.94-2.44l-4.41.18v5.64a53.06,53.06,0,0,0,5.51-.27l0.09,0.2a4.06,4.06,0,0,1-1.3,1.31c-0.32,0-3.67-.23-4.3-0.23,0,1.49,0,4.28.09,6.16l4.6,0.2c0.48-.66,1.41-2.11,1.91-2.69l0.44,0a35.72,35.72,0,0,1-.76,3.65c-1.43-.07-2.67-0.07-3.93-0.07h-3.43l-3,0,0.17-.52,1.85-.68c0.06-.27.13-2.78,0.13-6.61v-6l-1.87-.61Z" transform="translate(-339.76 -216.74)"/><path class="cls-2" d="M405.48,328.74l2.5,0,2,0-0.15.54-0.94.7v5.14h7.56V330l-1.09-.79,0.19-.48,1.87,0,2.86,0-0.2.57-1.74.68v6c0,2.56.06,6.18,0.17,6.45l2,0.72-0.2.57-2.91,0-2,0,0.15-.57,0.85-.7c0.09-2.22,0-4.19,0-6.31a21.16,21.16,0,0,1-2.8.14h-4.75c0,1.86,0,3.76,0,6.09l1,0.84-0.15.52-1.91,0-2.82,0,0.2-.55,1.61-.68c0-.56.13-3.89,0.13-6.65v-5.86l-1.71-.66Z" transform="translate(-339.76 -216.74)"/><path class="cls-2" d="M423.63,329.92l-1.72-.68,0.2-.5,2.54,0,2.41,0-0.17.54-1.41.66v6.41c0,1.56,0,3.46-.15,5.41h0.11c2.5-4.07,5-8.06,7.45-12.15l-0.07-.84h1.39l2.76,0-0.17.54-1.63.66v6c0,3.49.07,6.2,0.11,6.59l2,0.66-0.15.54-2.89,0-2.67,0,0.15-.54,1.48-.66c0.09-1.22.13-3,.13-6.54,0-1.63,0-3.35.15-5.34h-0.15c-2.47,4.1-5,8.1-7.4,12.18l0.07,0.88h-1.35l-2.89,0,0.17-.54,1.59-.66c0.07-.59.13-3.46,0.13-6.65v-5.91Z" transform="translate(-339.76 -216.74)"/><path class="cls-2" d="M440.38,329.9l-1.71-.66,0.22-.5,2.47,0,2.69,0-0.17.54-1.56.66v5.91a3.65,3.65,0,0,0,1.74-.95c1.22-1.4,2.8-3.28,4-5l0-1.11,1.54,0,2.08,0-0.17.54-2.37.88c-1.41,1.49-3.73,4.28-4.3,5v0a11.14,11.14,0,0,0,.7,1c2.11,2.83,5.08,6.43,6.1,7.58l-0.24.23a4.19,4.19,0,0,1-3.34-1.52c-1-1.06-2.37-2.85-4.56-5.59a0.88,0.88,0,0,0-1.24-.32c0,3.15.06,5.64,0.11,5.91l2,0.66-0.2.54-2.84,0-3,0,0.13-.54,1.72-.66c0.09-.38.13-2.83,0.13-6.59v-6Z" transform="translate(-339.76 -216.74)"/><path class="cls-2" d="M463.86,329.19a5,5,0,0,1,1.67-.66l0.13,0.09a20,20,0,0,1-.87,3.64l-0.39.23a15.83,15.83,0,0,1-.74-2.51,5.52,5.52,0,0,0-2.76-.68c-4.06,0-6.45,3-6.45,6.9S457,343,461.17,343a3.92,3.92,0,0,0,1.41-.18c0.94-1,2-2.13,2.54-2.56l0.52,0.11a11.83,11.83,0,0,1-1.48,3,11,11,0,0,1-3.75.72c-4.06,0-8.16-2.36-8.16-7.76a8,8,0,0,1,8.21-8,6.2,6.2,0,0,1,3.41.86" transform="translate(-339.76 -216.74)"/></svg>