<svg id="Layer_1" data-name="Layer 1" xmlns="http://www.w3.org/2000/svg" viewBox="0 0 50 50"><defs><style>.cls-1{fill:#133e28;}.cls-2{fill:#fff;}</style></defs><title>1</title><path class="cls-1" d="M50,25A25,25,0,1,1,25,0,25,25,0,0,1,50,25" transform="translate(0 0)"/><path class="cls-2" d="M27,31.76a5.28,5.28,0,0,1-4,0l-6.73-3.11L15,30.47a1.38,1.38,0,0,0,.58,2.08l7.88,3.65a4.12,4.12,0,0,0,3,0l6-2.77V29.22Z" transform="translate(0 0)"/><path class="cls-2" d="M40,22.71L26.44,16.43a3.91,3.91,0,0,0-2.88,0L10,22.71c-0.79.37-.79,1,0,1.33l7.35,3.4,6.23,2.88a3.91,3.91,0,0,0,2.88,0l5.81-2.69L25.7,24.31a3.38,3.38,0,0,1-.76.09c-1.3,0-2.35-.7-2.35-1.57s1.05-1.57,2.35-1.57,2.35,0.7,2.35,1.57c0,0,0,.06,0,0.09l3.54,1.8,3.69,1.87L40,24c0.79-.37.79-1,0-1.33" transform="translate(0 0)"/><polygon class="cls-2" points="34.03 28.71 34.03 32.6 34.03 36.21 36.48 35.09 36.48 27.6 34.03 28.71"/></svg>