<svg id="Layer_1" data-name="Layer 1" xmlns="http://www.w3.org/2000/svg" viewBox="0 0 50 50"><defs><style>.cls-1{fill:#133e28;}.cls-2{fill:#fff;}</style></defs><title>3</title><path class="cls-1" d="M50,25A25,25,0,1,1,25,0,25,25,0,0,1,50,25" transform="translate(0 0)"/><path class="cls-2" d="M26.38,13.6A2.39,2.39,0,0,1,29.71,13a2.15,2.15,0,0,1,.4,3.15,2.24,2.24,0,0,1-3.17.75,2.39,2.39,0,0,1-.57-3.34" transform="translate(0 0)"/><path class="cls-2" d="M35.84,18.46a1.26,1.26,0,0,0-1.42-1.11,1.24,1.24,0,0,0-.79.46l-1,1.51-1,1.51S30.09,19.42,29.64,19a11.62,11.62,0,0,0-1.49-1,6.15,6.15,0,0,0-2.71-.62L25,17.48l-4.08.59a1.82,1.82,0,0,0-1.23.89L17.94,22.1a1.41,1.41,0,0,0-.23.93A1.18,1.18,0,0,0,19,24a1.55,1.55,0,0,0,1-.67l1.55-2.52,1.8-.26-2.14,4.85c-1.19,2.09.64,3.41,1.29,4.06l0.23,0.2,3.37,2.92-2.39,4.08a1.12,1.12,0,0,0-.17.65A1.44,1.44,0,0,0,25,38.73a1.51,1.51,0,0,0,1.33-.82l0.62-1.09,2-3.55a2.39,2.39,0,0,0-.3-2.51l-3.44-3.44,0.92-1.58,2.15-3.68,2.78,1.63A1.31,1.31,0,0,0,33,23.3l1-1.42,1.56-2.31v0a1.73,1.73,0,0,0,.34-1.1" transform="translate(0 0)"/><path class="cls-2" d="M22.16,30.21L21.93,30a7.81,7.81,0,0,1-1.26-1.38s-2.92,4.85-2.92,4.85l-3.24,3.46a1.11,1.11,0,0,0-.31.59,1.44,1.44,0,0,0,1.06,1.74,1.5,1.5,0,0,0,1.48-.5l0.84-.92,2.76-3c0.71-.87,2.11-2.83,2.78-3.77Z" transform="translate(0 0)"/></svg>