<svg id="Layer_1" data-name="Layer 1" xmlns="http://www.w3.org/2000/svg" viewBox="0 0 50 50"><defs><style>.cls-1{fill:#133e28;}.cls-2{fill:#fff;}</style></defs><title>4</title><path class="cls-1" d="M50,25A25,25,0,1,1,25,0,25,25,0,0,1,50,25" transform="translate(0 0)"/><path class="cls-2" d="M38.21,34.14H11.79v1.38H38.21V34.14Zm-2-2.48H13.79V33H36.21V31.66h0ZM29.38,20.4H26.21V30.63h3.17V20.4Zm5.24,0H31.45V30.63h3.17V20.4Zm-10.49,0H21V30.63h3.17V20.4Zm-5.24,0H15.72V30.63h3.17V20.4ZM25,12.13l11.21,7.18H13.79Z" transform="translate(0 0)"/></svg>