<svg id="Layer_1" data-name="Layer 1" xmlns="http://www.w3.org/2000/svg" viewBox="0 0 50 50"><defs><style>.cls-1{fill:#133e28;}.cls-2{fill:#fff;}</style></defs><title>5</title><path class="cls-1" d="M50,25A25,25,0,1,1,25,0,25,25,0,0,1,50,25" transform="translate(0 0)"/><path class="cls-2" d="M23.84,17.15a0.82,0.82,0,0,1,.83.42,0.83,0.83,0,0,1,.42.83,7.11,7.11,0,0,1-.92,1.21l4,0.86,5.2-5.2c0.89-.89,2.28-1.11,3-0.43s0.46,2.07-.43,3L30.69,23l0.86,4a7,7,0,0,1,1.21-.92,0.83,0.83,0,0,1,.83.42,0.82,0.82,0,0,1,.41.83,7.28,7.28,0,0,1-1.14,1.45,8.26,8.26,0,0,1-.78.69L33,33.74c0.24,1.33.13,2.13-1.35,3.37-1.21,1-1.85-.66-2.61-2.38l-3.07-7a69.06,69.06,0,0,1-5.45,4.74,0.82,0.82,0,0,0-.29.86L21,36.79a1.55,1.55,0,0,1-.71,1.77c-0.64.53-1-.35-1.37-1.25l-1.25-3a2,2,0,0,1-1.12.3h0a2,2,0,0,1,.3-1.12l-3-1.25c-0.9-.4-1.78-0.73-1.25-1.37a1.56,1.56,0,0,1,1.77-.71l3.5,0.75a0.81,0.81,0,0,0,.86-0.29,69.07,69.07,0,0,1,4.74-5.45l-7-3.07c-1.72-.75-3.4-1.39-2.38-2.61,1.24-1.48,2-1.59,3.37-1.35l4.28,0.92a8,8,0,0,1,.69-0.78,7.35,7.35,0,0,1,1.45-1.14" transform="translate(0 0)"/></svg>