<svg id="Layer_1" data-name="Layer 1" xmlns="http://www.w3.org/2000/svg" viewBox="0 0 50 50"><defs><style>.cls-1{fill:#133e28;}.cls-2{fill:#fff;}</style></defs><title>7</title><path class="cls-1" d="M50,25A25,25,0,1,1,25,0,25,25,0,0,1,50,25" transform="translate(0 0)"/><path class="cls-2" d="M24.48,20.3a1.91,1.91,0,0,1-1.85,1.82V37a1.45,1.45,0,1,1-2.88,0V22.12a1.88,1.88,0,0,1-1.89-1.94V12a0.52,0.52,0,1,1,1,0v6h0.85V12a0.5,0.5,0,1,1,1,0v6.07h0.88V12a0.48,0.48,0,1,1,1,0v6.06h0.88V12a0.5,0.5,0,1,1,1,0V20.3Z" transform="translate(0 0)"/><path class="cls-2" d="M32.14,13.89V37a1.44,1.44,0,1,1-2.88,0V27.8H27.73V13.89a2.21,2.21,0,1,1,4.41,0" transform="translate(0 0)"/></svg>