<svg id="Layer_1" data-name="Layer 1" xmlns="http://www.w3.org/2000/svg" viewBox="0 0 50 50"><defs><style>.cls-1{fill:#133e28;}.cls-2{fill:#fff;}</style></defs><title>8</title><path class="cls-1" d="M50,25A25,25,0,1,1,25,0,25,25,0,0,1,50,25" transform="translate(0 0)"/><path class="cls-2" d="M19.9,19.22V31.9a5.2,5.2,0,0,0-2.66-.69c-2.21,0-4,1.19-4,2.67s1.79,2.66,4,2.66,4-1.19,4-2.66V21.52l12-3.27V27.9a5.22,5.22,0,0,0-2.66-.69c-2.21,0-4,1.19-4,2.66s1.79,2.66,4,2.66,4-1.19,4-2.66V15.22Z" transform="translate(0 0)"/></svg>