<svg id="Layer_1" data-name="Layer 1" xmlns="http://www.w3.org/2000/svg" viewBox="0 0 50 50"><defs><style>.cls-1{fill:#133e28;}.cls-2{fill:#fff;}</style></defs><title>9</title><path class="cls-1" d="M50,25A25,25,0,1,1,25,0,25,25,0,0,1,50,25" transform="translate(0 0)"/><path class="cls-2" d="M27.9,33.1a9.05,9.05,0,1,1,4.28-17,11.36,11.36,0,1,0,4,11.56A9.05,9.05,0,0,1,27.9,33.1" transform="translate(0 0)"/><polygon class="cls-2" points="26.8 28.77 27.47 24.68 24.23 22.29 28.36 21.86 29.28 17.59 31.07 21.59 35.26 21.31 32.3 24.31 33.67 27.98 30.03 26.11 26.8 28.77"/></svg>