<svg id="Layer_1" data-name="Layer 1" xmlns="http://www.w3.org/2000/svg" viewBox="0 0 85 83"><defs><style>.cls-1{fill:#173e29;}.cls-2{fill:#fff;}</style></defs><title>security-4</title><path class="cls-1" d="M79.4,35a7.12,7.12,0,0,0-.8-8.54l-0.06-.07-0.06-.06a5.41,5.41,0,0,1-.78-0.93h0a8.57,8.57,0,0,1-.5-2.31l-0.45-5-0.16-1.76-1.69-.55L70.1,14.23a9.07,9.07,0,0,1-2.14-1,5.32,5.32,0,0,1-.74-1l0-.08-0.05-.07A7.58,7.58,0,0,0,61.24,9a7.1,7.1,0,0,0-2.33.4A7.21,7.21,0,0,0,52,4.73H51.53a6.9,6.9,0,0,1-.8,0,3.65,3.65,0,0,1-.42,0h0a8.69,8.69,0,0,1-2.13-1L44,1,42.5,0,41,1l-4.2,2.76a9.07,9.07,0,0,1-2.12,1,3.51,3.51,0,0,1-.43,0,6.9,6.9,0,0,1-.8,0H33a7.21,7.21,0,0,0-6.93,4.71A7.1,7.1,0,0,0,23.76,9a7.56,7.56,0,0,0-5.87,3.07l-0.05.07,0,0.08a5.39,5.39,0,0,1-.74,1h0a8.69,8.69,0,0,1-2.15,1l-4.79,1.54-1.69.55L8.26,18.08l-0.45,5a9,9,0,0,1-.5,2.3,5.34,5.34,0,0,1-.79.94l-0.06.06-0.06.07A7.12,7.12,0,0,0,5.6,35a7.13,7.13,0,0,0-3,8l0,0.08,0,0.08A5.39,5.39,0,0,1,3,44.35H3a8.57,8.57,0,0,1-.55,2.29L0.63,51.33,0,53l1.29,1.22,3.64,3.46a9,9,0,0,1,1.5,1.82,5.25,5.25,0,0,1,.25,1.19v0.09l0,0.09a7.2,7.2,0,0,0,6.21,5.94,7.15,7.15,0,0,0,4.45,7.35l0.08,0,0.08,0a5.44,5.44,0,0,1,1.11.5h0a8.61,8.61,0,0,1,1.46,1.86l2.58,4.3,0.91,1.51,1.77-.24,5-.67a13,13,0,0,1,1.48-.09,4.18,4.18,0,0,1,.89.07A5.39,5.39,0,0,1,33.8,82l0.08,0,0.07,0a8,8,0,0,0,3.65.9,6.88,6.88,0,0,0,4.9-2,6.88,6.88,0,0,0,4.9,2,8,8,0,0,0,3.65-.9l0.08,0,0.07,0a5.46,5.46,0,0,1,1.08-.55h0a4,4,0,0,1,.89-0.07,13,13,0,0,1,1.48.09l5,0.67,1.76,0.24,0.91-1.52,2.58-4.3a9,9,0,0,1,1.46-1.86,5.35,5.35,0,0,1,1.12-.5l0.08,0,0.08,0a7.15,7.15,0,0,0,4.45-7.35,7.2,7.2,0,0,0,6.21-5.95V60.69a5.39,5.39,0,0,1,.24-1.19h0a8.63,8.63,0,0,1,1.5-1.83l3.64-3.46L85,53l-0.63-1.66L82.6,46.65A9,9,0,0,1,82,44.36a5.28,5.28,0,0,1,.3-1.18l0-.08,0-.09A7.13,7.13,0,0,0,79.4,35Z" transform="translate(0)"/><path class="cls-2" d="M35,39.94L41,29.49a1.68,1.68,0,0,1,2.91,0L50,39.94a1.67,1.67,0,0,1-1.45,2.5H36.43A1.67,1.67,0,0,1,35,39.94Z" transform="translate(0)"/><path class="cls-2" d="M50,49.35L44,59.79a1.68,1.68,0,0,1-2.91,0L35,49.35a1.67,1.67,0,0,1,1.45-2.5H48.57A1.67,1.67,0,0,1,50,49.35Z" transform="translate(0)"/></svg>